<svg xmlns="http://www.w3.org/2000/svg" viewBox="0 0 3966.62 522.77"><title>ActivTrades_logo_white</title><path d="M2184.66,252.57h-91.25c-16,0-24,4.08-24,12.28V522.77H1916.14V264.84q0-12.3-24.89-12.28H1768.67l29.86-56.6h386.12v56.6Z" style="fill:#fff"/><path d="M2592.2,522.77H2436.63l-113.44-90.13v90.13H2184.69V259.27h172.94q75,0,126.44,14.41,71.18,20.16,71.23,63,0,28.79-34.2,48.17-28.42,15.64-75,22.64ZM2439.68,336.63c0-29.31-54.88-31.21-73.57-31.21h-42.92v58.42h42.92c18.68,0,73.57,2.09,73.57-27.22" style="fill:#fff"/><path d="M2970.54,522.77H2840.19l-14.92-36.68H2677.83l-14.94,36.68h-81.43l122.25-263.26,144.92-.46Zm-165.95-87.51L2752,306.74,2699.72,435.2Z" style="fill:#fff"/><path d="M3359,391.11q0,54.31-58,93t-139.52,38.66H2988.67V259.45h172.84q81.49,0,139.52,38.67t58,93m-114.13-.69c0-50.06-57.93-84.84-83.33-84.84h-50.9V476.64h50.9c25.4,0,83.33-36.17,83.33-86.22" style="fill:#fff"/><path d="M3674.28,522.77l-295.87-1.08V259.16l295.87,0.54V305.8H3521.64c-13.12,0-19.71,3.31-19.71,9.9v52.82h172.35v46.08H3501.93v52.27c0,6.55,6.6,9.8,19.71,9.8h152.63v46.09Z" style="fill:#fff"/><path d="M3966.5,446.19c-2.73,49.83-48.92,76.59-90,76.59h-176.3V476.1h128.33c5.81,0,20.44-3.18,20.44-15.82,0-50.78-148.77-48.59-148.77-124.83,0-57.21,53.34-79.13,83.24-79.13h183V303H3838.37c-5.78,0-19.87,2.06-19.87,15.41,0,33.17,153,35.5,148,127.79" style="fill:#fff"/><path d="M1608.43,482.08L1857.72,0h-54.09L1576.87,439,1465.45,254.46H1333.27l120.44,228.82q8.19,15.5,30.6,25.34a116.27,116.27,0,0,0,28.71,8.14h38a104.72,104.72,0,0,0,28-8.31q21.24-10.06,29.43-26.37" style="fill:#fff"/><rect x="1195.64" y="254.59" width="122.73" height="263.81" style="fill:#fff"/><path d="M1166.87,302.41h-91.58c-13,0-19.42,3.28-19.42,9.92V518.39H932.13V312.33c0-6.64-6.71-9.92-20.12-9.92H813l24.12-48h329.74v48Z" style="fill:#fff"/><path d="M805.39,518.39H657.46q-81.38,0-139.08-38.64t-57.73-92.9q0-54.22,57.73-92.91t139.08-38.62H805.39L781.27,301.4H657.86q-38.48,0-51.6,32.47-7.38,17.65-7.37,53t7.37,53q13.11,32.46,51.6,32.42H805.39v46.09Z" style="fill:#fff"/><path d="M481.62,518.39H320.26L301.79,473H119.3l-18.51,45.39H0L151.33,192.53,330.68,192ZM276.21,410.08L211.14,251,146.4,410Z" style="fill:#fff"/></svg>