<svg width="56" height="32" viewBox="0 0 56 32" fill="none" xmlns="http://www.w3.org/2000/svg">
<path fill-rule="evenodd" clip-rule="evenodd" d="M22.3834 20.2304C23.015 20.2304 23.5271 19.7207 23.5271 19.0927L23.5271 7.43193L23.5253 7.42707V5.63194C23.5253 3.87175 22.639 3.0291 20.9851 2.49372C20.3306 2.29127 19.7046 2.12854 19.0994 1.9973L19.0994 20.2304H22.3834ZM28.9165 20.2304C29.5477 20.2304 30.06 19.7207 30.06 19.0927L30.06 7.43193L30.0583 7.42707V5.63194C30.0583 3.87175 29.1717 3.0291 27.5178 2.49372C26.8633 2.29127 26.2373 2.12854 25.6321 1.9973L25.6321 20.2304H28.9165ZM36.6186 19.0927V0.0476213C36.0151 0.178295 35.3885 0.340951 34.7349 0.544041C33.0784 1.08054 32.1936 1.92228 32.1936 3.68191V5.47873L32.1918 5.4845V20.2304L35.4744 20.2304C36.106 20.2304 36.6186 19.7204 36.6186 19.0927ZM55.1825 15.4399L53.6771 15.8821C51.7261 16.4316 50.1433 16.7962 48.9268 16.7962C45.393 16.7962 43.5925 14.6743 43.5925 10.2459C43.5925 5.78333 45.393 3.65795 48.9268 3.65795C50.1433 3.65795 51.7261 4.06413 53.6771 4.57323L55.1825 5.01661V1.25482L54.2286 0.987699C52.0574 0.366593 50.179 0 48.5247 0C42.9656 0 39.1762 3.51291 39.1762 10.2459C39.1762 17.2359 42.9656 20.4934 48.5247 20.4934C50.179 20.4934 52.0574 20.0899 54.2286 19.47L55.1825 19.2003V15.4399ZM16.0063 15.4399L14.5009 15.8821C12.5507 16.4316 10.9673 16.7962 9.75086 16.7962C6.21738 16.7962 4.41666 14.6743 4.41666 10.2459C4.41666 5.78333 6.21738 3.65795 9.75086 3.65795C10.9673 3.65795 12.5507 4.06413 14.5009 4.57323L16.0063 5.01661V1.25482L15.0523 0.987699C12.8814 0.366593 11.003 0 9.34909 0C3.78974 0 0 3.51291 0 10.2459C0 17.2359 3.78974 20.4934 9.34909 20.4934C11.003 20.4934 12.8814 20.0899 15.0523 19.47L16.0063 19.2003V15.4399Z" fill="#FAFAFA"/>
<path d="M1.59766 31.8656H2.42137L2.42137 27.8199C2.42137 27.2265 2.36765 26.1027 2.36765 26.1027H2.38555C2.38555 26.1027 2.66311 27.1096 2.85113 27.6311L4.47169 31.8656H5.18796L6.80853 27.6311C7.0055 27.1096 7.2741 26.1027 7.2741 26.1027H7.29201C7.29201 26.1027 7.23829 27.2265 7.23829 27.8199V31.8656H8.11572V25.1766H6.89806L5.53715 28.8088C5.26854 29.546 4.85669 30.9036 4.85669 30.9036H4.83878C4.83878 30.9036 4.43588 29.537 4.16728 28.8088L2.7795 25.1766H1.59766L1.59766 31.8656Z" fill="#FAFAFA"/>
<path d="M10.7557 31.8656H11.6958L12.3763 29.9147H14.9996L15.6622 31.8656H16.6649L14.2117 25.1766H13.191L10.7557 31.8656ZM13.2806 27.3254C13.4954 26.705 13.6924 25.9049 13.6924 25.9049H13.7193C13.7193 25.9049 13.8983 26.6781 14.1222 27.3254L14.7579 29.1954H12.627L13.2806 27.3254Z" fill="#FAFAFA"/>
<path d="M19.3173 31.8656H20.2306V29.0785H22.0033C22.8718 29.0785 23.2658 29.4202 23.3284 30.3642C23.4001 31.434 23.418 31.7397 23.5702 31.8656H24.5461V31.8206C24.4118 31.7307 24.3223 31.4071 24.2417 30.3552C24.179 29.3932 23.9641 28.9437 23.212 28.7189V28.6919C24.0984 28.4132 24.4297 27.8378 24.4297 27.0197C24.4297 25.9139 23.6239 25.1766 22.4331 25.1766H19.3173V31.8656ZM20.2306 25.9678H22.1824C23.1225 25.9678 23.4896 26.3724 23.4896 27.1546C23.4896 27.8828 23.0419 28.3413 22.1376 28.3413H20.2306V25.9678Z" fill="#FAFAFA"/>
<path d="M27.3771 31.8656H28.2904V29.4471L29.3021 28.4492L31.7643 31.8656L32.8297 31.8656L29.9378 27.8558L32.6148 25.1677H31.4688L28.2545 28.4762C28.2724 28.1525 28.2904 27.694 28.2904 27.2445V25.1766H27.3771V31.8656Z" fill="#FAFAFA"/>
<path d="M35.3058 31.8656H40.1406V31.0295H36.219V28.7729H39.675V28.0087H36.219V25.9858H40.0421V25.1766H35.3058V31.8656Z" fill="#FAFAFA"/>
<path d="M42.6477 25.9858H44.8323V31.8656H45.7545V25.9858H47.9481V25.1766H42.6477V25.9858Z" fill="#FAFAFA"/>
<path d="M53.0215 32.0005C54.463 32.0005 55.5016 31.2902 55.5016 30.0225C55.5016 28.5301 54.3287 28.1975 53.0394 27.9367C52.0366 27.73 51.3114 27.5232 51.3114 26.7949C51.3114 26.1296 51.8844 25.77 52.7618 25.77C53.7019 25.77 54.2839 26.2106 54.4003 27.0197H55.2867C55.1255 25.8779 54.3914 25.0508 52.7529 25.0508C51.383 25.0508 50.4429 25.7161 50.4429 26.8399C50.4429 28.1255 51.4546 28.4672 52.6454 28.7189C53.8094 28.9796 54.5794 29.1864 54.5794 30.0585C54.5794 30.8676 53.9347 31.2632 53.0483 31.2632C51.8396 31.2632 51.1771 30.7058 51.0696 29.6989H50.1654C50.237 30.9755 51.1592 32.0005 53.0215 32.0005Z" fill="#FAFAFA"/>
</svg>
