<svg width="266" height="19" viewBox="0 0 266 19" fill="none" xmlns="http://www.w3.org/2000/svg">
<path d="M26.5253 0.957458H35.118V18.0467H26.5253V0.957458Z" fill="#D00000"/>
<path d="M38.1066 0.957458H46.7198V7.61215H46.7729L50.9337 0.957458H61.2696L54.0875 9.79489L60.872 18.0467H51.0132L46.7994 12.4301H46.7463V18.0467H38.1331V0.957458H38.1066Z" fill="#D00000"/>
<path d="M62.3905 9.03004C62.3905 2.42161 67.9363 0.585938 74.1455 0.585938C80.3547 0.585938 85.927 2.42161 85.927 9.03004C85.927 12.9112 85.0513 18.4182 74.1455 18.4182C63.2662 18.4182 62.3905 12.9112 62.3905 9.03004ZM77.0643 9.71186C77.0643 7.5615 76.2948 6.14541 74.1455 6.14541C71.9961 6.14541 71.2266 7.5615 71.2266 9.71186C71.2266 11.8622 71.9961 13.2783 74.1455 13.2783C76.2948 13.2783 77.0643 11.8622 77.0643 9.71186Z" fill="#D00000"/>
<path d="M99.3765 0.957458H110.268L112.879 9.78114H112.931L115.463 0.957458H126.275V18.0467H118.232V8.93067H118.179L115.226 18.0467H110.479L107.473 8.93067H107.42V18.0467H99.3765V0.957458Z" fill="white"/>
<path d="M133.596 0.957458H147.295L152.801 18.0467H143.863L143.305 15.8674H137.586L136.948 18.0467H128.143L133.596 0.957458ZM140.459 4.91748H140.379L138.597 11.1632H142.294L140.459 4.91748Z" fill="white"/>
<path d="M154.295 0.957458H170.369C174.229 0.957458 176.476 2.74092 176.476 5.9884C176.476 9.39561 173.859 10.7798 171.189 10.9927L177.084 18.0467H166.932L162.914 12.5366H162.861V18.0467H154.295V0.957458ZM162.887 9.07618H165.531C167.487 9.07618 167.91 8.43733 167.91 7.15963C167.91 6.06826 167.197 5.64236 165.663 5.64236H162.887V9.07618Z" fill="white"/>
<path d="M179.326 0.957458H187.939V7.61215H187.992L192.153 0.957458H202.489L195.28 9.79489L202.065 18.0467H192.206L187.992 12.4301H187.939V18.0467H179.326V0.957458Z" fill="white"/>
<path d="M203.983 0.957458H223.41V6.3695H212.692V7.99577H223.41V11.9682H212.692V13.5678H223.41V18.0467H203.983V0.957458Z" fill="white"/>
<path d="M231.079 7.68153H226.025V0.957458H244.705V7.68153H239.651V18.0467H231.052V7.68153H231.079Z" fill="white"/>
<path d="M265.446 1.3715V5.90157C263.861 5.77065 260.271 5.22075 257.816 5.22075C255.624 5.22075 254.991 5.56116 254.991 6.08487C254.991 6.45147 255.334 6.84425 256.918 6.84425H259.268C264.284 6.84425 266 8.75578 266 12.3432C266 17.7636 260.509 18.4182 255.651 18.4182C252.377 18.4182 249.763 18.3135 246.912 17.7112V12.736C248.575 13.1026 251.11 13.2597 253.301 13.2597C255.968 13.2597 257.208 13.2335 257.208 12.5527C257.208 11.7933 256.469 11.7409 255.202 11.7409H252.852C249.579 11.7409 246.199 10.8244 246.199 6.92281C246.199 1.47624 251.48 0.585938 256.68 0.585938C259.162 0.585938 262.937 0.952533 265.446 1.3715Z" fill="white"/>
<path d="M19.1513 0.957458H5.4528L0 18.0467H8.80427L9.44265 15.864H15.1614L15.72 18.0467H24.6573L19.1513 0.957458ZM11.2514 4.81718C11.2514 4.81718 10.7194 4.95027 10.5066 5.16322C10.5066 5.16322 9.62884 4.7107 9.49585 3.64595C9.49585 3.61933 9.86823 4.63085 11.2514 4.81718ZM16.0924 12.9093H7.9797C7.76691 11.6848 9.07026 10.5402 9.07026 10.5402C9.81504 9.79489 10.2672 8.51719 10.2672 8.51719C10.6662 9.02294 10.8258 10.5402 10.8258 10.5402C10.9322 8.83661 10.4268 8.03805 10.4268 8.03805C10.1874 7.50567 9.46925 7.42582 9.46925 7.42582L8.91067 7.29272C8.51169 7.23949 8.48509 6.94668 8.48509 6.94668V6.73373C8.48509 6.30783 9.54905 5.93517 9.54905 5.93517C10.8258 4.97689 11.5174 4.8438 11.5174 4.8438C11.9696 4.79056 12.3153 4.65747 12.3153 4.65747C14.0975 3.992 13.9645 2.23516 13.9645 2.23516C14.6827 3.88552 13.1133 5.1366 13.1133 5.1366C13.2995 5.16322 13.9645 5.5625 13.9645 5.5625C14.6029 5.9884 14.922 5.77545 14.922 5.77545C14.4965 6.73373 13.5123 6.36107 13.5123 6.36107C16.385 8.91647 16.0924 12.9093 16.0924 12.9093Z" fill="#D00000"/>
</svg>
