<svg xmlns="http://www.w3.org/2000/svg" xmlns:xlink="http://www.w3.org/1999/xlink" viewBox="0 0 381.61 105.48"><defs><style>.cls-1,.cls-3{fill:#03071e;}.cls-1,.cls-2{fill-rule:evenodd;}.cls-2{fill:url(#Безымянный_градиент_2);}</style><linearGradient id="Безымянный_градиент_2" x1="-12.96" y1="644" x2="94.12" y2="536.18" gradientTransform="matrix(1, 0, 0, -1, 0, 647.47)" gradientUnits="userSpaceOnUse"><stop offset="0" stop-color="#f48c06"/><stop offset="0.32" stop-color="#f18105"/><stop offset="0.88" stop-color="#e96304"/><stop offset="1" stop-color="#e85d04"/></linearGradient></defs><g id="Слой_2" data-name="Слой 2"><g id="Слой_1-2" data-name="Слой 1"><path class="cls-1" d="M103.78.6a2.17,2.17,0,0,1,3.62,1.15Q110,15.48,112.64,29.2a2.16,2.16,0,0,1-2.82,2.49l-6.62-2.31L95.77,49.5a1.35,1.35,0,0,1-2.58,0L88.34,36.4a6.64,6.64,0,0,1-.15-4.86L90.63,25l-7.22-2.51a2.16,2.16,0,0,1-.73-3.68ZM59.63,102.76A44,44,0,0,0,79.39,88.2a3.47,3.47,0,0,0,.4-3.23l-4.58-12.4a1.14,1.14,0,0,0-2.17.05,30.86,30.86,0,0,1-6.51,10.12V45.8a2,2,0,0,0-2-1.95H57.8a2,2,0,0,0-1.95,1.95V99.86c0,2.06,1.72,3.66,3.78,2.9Z"/><path class="cls-2" d="M35.72,17.67a44.31,44.31,0,0,0-5.5,85.47,2,2,0,0,0,2.62-2V74.72a2,2,0,0,0-2-2H24.11a2,2,0,0,0-2,2v8A30.85,30.85,0,1,1,72.79,49.4c7.14,19.36,15.12,40.95,15.12,40.95A24.57,24.57,0,0,0,106,105.05a1.69,1.69,0,0,0,1.66-2.73,23,23,0,0,1-3.7-7.09L84.3,42.07a44.26,44.26,0,0,0-48.58-24.4Zm12,42.55a2,2,0,0,1,2,2v41.35a2,2,0,0,1-2,2H41a2,2,0,0,1-2-2V62.18a2,2,0,0,1,2-2Z"/><path class="cls-3" d="M175.58,89.08H165.09a4.91,4.91,0,0,1-2.91-.82,4.23,4.23,0,0,1-1.58-2.11L157.16,76H135l-3.44,10.17a4.57,4.57,0,0,1-1.57,2,4.49,4.49,0,0,1-2.84.9H116.55l22.59-58.35H153l22.59,58.35ZM138.09,66.77H154l-5.36-16c-.35-1-.76-2.21-1.22-3.59s-.93-2.87-1.38-4.47q-.65,2.45-1.32,4.53c-.46,1.39-.88,2.59-1.28,3.6l-5.37,15.9Z"/><path class="cls-3" d="M193.12,29.12v60H180.71v-60Z"/><path class="cls-3" d="M205,89.08v-33l-2.72-.56a5.53,5.53,0,0,1-2.27-1,2.4,2.4,0,0,1-.86-2V47.63H205V45.26a17.58,17.58,0,0,1,1.14-6.44,13.56,13.56,0,0,1,3.29-4.93,15,15,0,0,1,5.23-3.17,22.06,22.06,0,0,1,9.83-.93,19.28,19.28,0,0,1,2.7.58l-.24,6.05a2,2,0,0,1-.34,1.06,2.4,2.4,0,0,1-.74.68,3.51,3.51,0,0,1-1,.38,4.94,4.94,0,0,1-1.07.12,11.73,11.73,0,0,0-2.92.33,4.57,4.57,0,0,0-2.14,1.14,5.12,5.12,0,0,0-1.31,2.16,11.11,11.11,0,0,0-.44,3.39v2h9.77v8.49h-9.37v33H205Z"/><path class="cls-3" d="M260.81,89.08a5.72,5.72,0,0,1-2.67-.49,3.64,3.64,0,0,1-1.5-2l-.88-2.28c-1,.88-2,1.65-3,2.32a18.62,18.62,0,0,1-3,1.7,14.79,14.79,0,0,1-3.28,1,20.92,20.92,0,0,1-3.87.33,16.75,16.75,0,0,1-5.16-.74,10.61,10.61,0,0,1-4-2.19,9.63,9.63,0,0,1-2.5-3.59,13,13,0,0,1-.89-5,10.54,10.54,0,0,1,1.12-4.54,11.1,11.1,0,0,1,3.89-4.24,24.69,24.69,0,0,1,7.45-3.2A45.85,45.85,0,0,1,254.39,65V63.19c0-2.45-.5-4.23-1.5-5.31a5.5,5.5,0,0,0-4.27-1.64,11.27,11.27,0,0,0-3.6.48,16.75,16.75,0,0,0-2.51,1.08c-.73.4-1.45.76-2.14,1.08a5.9,5.9,0,0,1-2.48.48,3.72,3.72,0,0,1-2.19-.62,4.64,4.64,0,0,1-1.42-1.54L232,53.32a25.24,25.24,0,0,1,8.35-5,29.34,29.34,0,0,1,9.83-1.62A18.14,18.14,0,0,1,257,48a14.62,14.62,0,0,1,5.12,3.4,14.94,14.94,0,0,1,3.23,5.19,18.8,18.8,0,0,1,1.12,6.57V89.08h-5.67ZM246.55,81.5a9.92,9.92,0,0,0,4.21-.84,12.58,12.58,0,0,0,3.64-2.72V72.25a31.39,31.39,0,0,0-6.13.49,14.41,14.41,0,0,0-3.8,1.21,4.67,4.67,0,0,0-1.94,1.66,3.94,3.94,0,0,0-.54,2,3.54,3.54,0,0,0,1.16,3,5.61,5.61,0,0,0,3.4.86Z"/><path class="cls-3" d="M277.2,89.08v-59h7.16V54.35a20.93,20.93,0,0,1,5.79-4.7,15.34,15.34,0,0,1,7.47-1.79A15,15,0,0,1,304,49.18a12.87,12.87,0,0,1,4.85,4,19.09,19.09,0,0,1,3.08,6.49A33.25,33.25,0,0,1,313,68.53a28,28,0,0,1-1.2,8.35,20.32,20.32,0,0,1-3.47,6.69,16.05,16.05,0,0,1-12.87,6.07,13.3,13.3,0,0,1-6.67-1.52A15.18,15.18,0,0,1,284,83.87l-.36,3.69a1.72,1.72,0,0,1-1.84,1.52Zm18.1-35.53a11.48,11.48,0,0,0-6.11,1.6,17.8,17.8,0,0,0-4.83,4.53V79.3A11.18,11.18,0,0,0,288.63,83a12.33,12.33,0,0,0,5.23,1.09,10.26,10.26,0,0,0,8.73-4q3-4.05,3-11.54a28.55,28.55,0,0,0-.7-6.8,13.41,13.41,0,0,0-2-4.67,7.91,7.91,0,0,0-3.24-2.67,10.81,10.81,0,0,0-4.37-.84Z"/><path class="cls-3" d="M334,89.72c-3.2,0-5.66-.9-7.38-2.68s-2.59-4.37-2.59-7.73V54.48h-4.89a1.59,1.59,0,0,1-1.08-.39,1.47,1.47,0,0,1-.44-1.18V50.07l6.65-.84,1.64-12.54a1.51,1.51,0,0,1,.52-1,1.69,1.69,0,0,1,1.12-.38h3.61v14h11.61v5.16H331.18V78.82a5.14,5.14,0,0,0,1.24,3.8,4.34,4.34,0,0,0,3.2,1.25,5.61,5.61,0,0,0,1.94-.3,8.21,8.21,0,0,0,1.42-.66c.4-.24.75-.46,1-.66a1.37,1.37,0,0,1,.74-.3,1.23,1.23,0,0,1,1,.68l2.08,3.4a13.41,13.41,0,0,1-4.44,2.71,15.23,15.23,0,0,1-5.37,1Z"/><path class="cls-3" d="M379.28,55.71a3,3,0,0,1-.64.68,1.44,1.44,0,0,1-.92.24,2.25,2.25,0,0,1-1.3-.5c-.47-.33-1.07-.69-1.78-1.1a14.87,14.87,0,0,0-2.62-1.1,12.26,12.26,0,0,0-3.79-.5A12.41,12.41,0,0,0,363,54.49a10.21,10.21,0,0,0-3.83,3.07,13.88,13.88,0,0,0-2.32,4.84,24.11,24.11,0,0,0-.78,6.37,23.85,23.85,0,0,0,.84,6.55,14.17,14.17,0,0,0,2.36,4.8,10.11,10.11,0,0,0,3.7,3,11.47,11.47,0,0,0,4.91,1,12.3,12.3,0,0,0,4.28-.62A12.91,12.91,0,0,0,375,82.11a21.35,21.35,0,0,0,1.84-1.38,2.23,2.23,0,0,1,1.44-.62,1.49,1.49,0,0,1,1.36.68l2,2.6A15.42,15.42,0,0,1,375,88.14a23.51,23.51,0,0,1-8.37,1.5,17.77,17.77,0,0,1-7.07-1.4,16.19,16.19,0,0,1-5.67-4.07,19.2,19.2,0,0,1-3.78-6.54,26.35,26.35,0,0,1-1.38-8.85A26.71,26.71,0,0,1,350,60.41a18.78,18.78,0,0,1,3.69-6.63,16.58,16.58,0,0,1,6-4.35,20.13,20.13,0,0,1,8.16-1.56,19.26,19.26,0,0,1,7.53,1.38,17.87,17.87,0,0,1,5.81,3.91l-1.88,2.56Z"/></g></g></svg>