<?xml version="1.0" encoding="UTF-8"?> <!-- Generator: Adobe Illustrator 25.2.3, SVG Export Plug-In . SVG Version: 6.00 Build 0) --> <svg xmlns="http://www.w3.org/2000/svg" xmlns:xlink="http://www.w3.org/1999/xlink" version="1.1" id="Слой_1" x="0px" y="0px" viewBox="0 0 120 101.4" style="enable-background:new 0 0 120 101.4;" xml:space="preserve"> <style type="text/css"> .st0{fill:#644091;} .st1{fill:#333333;} </style> <g> <g> <g> <path class="st0" d="M38.1,97.2h-1.4v-0.5h3.4v0.5h-1.4v4.1h-0.6V97.2z"></path> <path class="st0" d="M47.5,96.8c0.3-0.1,0.7-0.1,1.1-0.1c0.6,0,1.1,0.1,1.3,0.4c0.2,0.2,0.4,0.5,0.4,0.9c0,0.6-0.4,1-0.9,1.2v0 c0.4,0.1,0.6,0.5,0.7,0.9c0.2,0.6,0.3,1.1,0.4,1.3h-0.6c-0.1-0.1-0.2-0.5-0.3-1.1c-0.1-0.6-0.4-0.9-0.9-0.9h-0.6v2h-0.6V96.8z M48.1,98.9h0.6c0.6,0,1-0.4,1-0.9c0-0.6-0.4-0.9-1.1-0.9c-0.3,0-0.5,0-0.6,0.1V98.9z"></path> <path class="st0" d="M58.9,99.9l-0.5,1.5h-0.6l1.6-4.6h0.7l1.6,4.6H61l-0.5-1.5H58.9z M60.4,99.4L60,98.1 c-0.1-0.3-0.2-0.6-0.2-0.8h0c-0.1,0.3-0.1,0.6-0.2,0.8L59,99.4H60.4z"></path> <path class="st0" d="M69.2,96.8c0.4-0.1,0.8-0.1,1.3-0.1c0.9,0,1.5,0.2,1.9,0.6c0.4,0.4,0.7,0.9,0.7,1.7c0,0.8-0.2,1.4-0.7,1.8 c-0.4,0.4-1.1,0.7-2,0.7c-0.4,0-0.8,0-1.1-0.1V96.8z M69.8,100.9c0.2,0,0.4,0,0.6,0c1.3,0,2-0.7,2-2c0-1.1-0.6-1.8-1.9-1.8 c-0.3,0-0.5,0-0.7,0.1V100.9z"></path> <path class="st0" d="M83.1,99.2h-1.8v1.7h2v0.5h-2.6v-4.6h2.5v0.5h-1.9v1.5h1.8V99.2z"></path> </g> <g> <path class="st1" d="M9.9,86.1H2.6L1,89.6H0L5.8,77h0.9l5.8,12.6h-1L9.9,86.1z M9.6,85.3L6.3,78L3,85.3H9.6z"></path> <path class="st1" d="M25.4,77h0.9v11.8h7.3v0.8h-8.2V77z"></path> <path class="st1" d="M47.7,77.8h-4.5V77h10v0.8h-4.5v11.8h-0.9V77.8z"></path> <path class="st1" d="M66.1,77H67v12.6h-0.9V77z"></path> <path class="st1" d="M93.7,89.6l0-10.8l-5.3,9.1h-0.5l-5.3-9.1v10.8h-0.9V77h0.8l5.6,9.7l5.6-9.7h0.8l0,12.6H93.7z"></path> <path class="st1" d="M117.4,86.1h-7.3l-1.6,3.5h-1l5.8-12.6h0.9l5.8,12.6h-1L117.4,86.1z M117,85.3l-3.3-7.3l-3.3,7.3H117z"></path> </g> </g> <g> <path class="st0" d="M93.6,63.7c-5.6-10.6-11.2-21.3-16.7-31.9l-8.2-16l-4.1-8l-2-4c-0.4-0.6-0.7-1.4-1-1.8 c-0.4-0.4-1-0.7-1.6-0.7c-0.6,0-1.2,0.2-1.6,0.7c-0.4,0.4-0.7,1.2-1,1.8l-2,4l-4.1,8c-2.7,5.3-5.4,10.7-8.2,16l-8.3,16l-8.4,15.9 l7.8-16.2l8-16.2c2.6-5.4,5.4-10.7,8-16.1l4-8l2-4c0.4-0.7,0.6-1.3,1.2-2.1C58.2,0.4,59.1,0,60,0c0.9,0,1.8,0.4,2.5,1.1 c0.6,0.8,0.8,1.4,1.2,2.1l2,4l4,8l8,16.1C83.1,42.1,88.4,52.9,93.6,63.7z"></path> <path class="st0" d="M86.5,63.7l-6.5-12.2l-6.4-12.3l-6.3-12.3l-3.1-6.2l-0.8-1.5l-0.4-0.8c-0.1-0.2-0.2-0.4-0.4-0.6 C62,16.9,61,16.5,60,16.5c-1,0-2,0.4-2.6,1.2c-0.2,0.2-0.3,0.4-0.4,0.6l-0.4,0.8l-0.8,1.5l-3.1,6.2l-6.3,12.3L40,51.5l-6.5,12.2 l6-12.5l6.1-12.4l6.2-12.4l3.1-6.2l0.8-1.5l0.4-0.8c0.2-0.3,0.3-0.6,0.5-0.8c0.8-1,2.1-1.6,3.4-1.6c1.3,0,2.6,0.6,3.4,1.6 c0.2,0.2,0.4,0.5,0.5,0.8l0.4,0.8l0.8,1.5l3.1,6.2l6.2,12.4l6.1,12.4L86.5,63.7z"></path> <path class="st0" d="M80.9,63.7c-3.4-6-6.7-12-10-18l-4.9-9l-2.5-4.5c-0.4-0.8-0.8-1.5-1.4-1.9c-0.6-0.5-1.4-0.7-2.2-0.7 c-0.8,0-1.5,0.3-2.2,0.7c-0.6,0.5-1,1.2-1.4,1.9L54,36.7l-4.9,9l-5,9l-5,9l4.7-9.1l4.8-9.1l4.8-9.1l2.4-4.5 c0.4-0.7,0.8-1.6,1.6-2.2c0.8-0.6,1.7-0.9,2.6-0.9c0.9,0,1.9,0.3,2.6,0.9c0.8,0.6,1.2,1.5,1.6,2.2l2.4,4.5l4.8,9.1 C74.7,51.5,77.8,57.6,80.9,63.7z"></path> <path class="st0" d="M76.5,63.7c-2.6-4-5.3-8-7.8-12.1l-3.9-6.1c-0.6-1-1.3-2.1-1.9-3c-0.7-0.9-1.8-1.4-2.9-1.4 c-1.1,0-2.2,0.5-2.9,1.4c-0.7,0.9-1.3,2-1.9,3l-3.9,6.1c-2.6,4.1-5.2,8.1-7.8,12.1c2.4-4.1,4.9-8.3,7.4-12.3l3.8-6.1 c0.7-1,1.2-2,1.9-3.1c0.8-1,2.1-1.6,3.4-1.6c1.3,0,2.6,0.6,3.4,1.6c0.7,1,1.3,2,1.9,3.1l3.8,6.1C71.6,55.5,74.1,59.6,76.5,63.7z"></path> <path class="st0" d="M73.1,63.7c-2.1-2.4-4.2-4.8-6.2-7.3l-3.1-3.7c-0.5-0.6-1-1.3-1.6-1.7c-0.6-0.4-1.4-0.6-2.1-0.7 c-0.8,0-1.5,0.2-2.1,0.7c-0.6,0.4-1.1,1.1-1.6,1.7l-3.1,3.7c-2.1,2.4-4.1,4.9-6.2,7.3c2-2.5,4-5,6-7.5l3-3.7 c0.5-0.6,1-1.3,1.7-1.8c0.7-0.5,1.5-0.7,2.4-0.8c0.8,0,1.7,0.3,2.4,0.8c0.7,0.5,1.2,1.2,1.7,1.8l3,3.7 C69.1,58.7,71.1,61.2,73.1,63.7z"></path> <path class="st0" d="M70.3,63.7c-1.7-1.2-3.4-2.4-5-3.7l-2.5-1.9C62,57.6,61,57.3,60,57.3c-1,0-2,0.3-2.8,0.9L54.7,60 c-1.7,1.2-3.3,2.5-5,3.7c1.6-1.3,3.2-2.6,4.8-3.9l2.5-1.9c0.9-0.6,1.9-1,3-1c1.1,0,2.1,0.4,3,1l2.5,1.9 C67.1,61.1,68.7,62.4,70.3,63.7z"></path> </g> </g> </svg> 