<?xml version="1.0" encoding="utf-8"?>
<!-- Generator: Adobe Illustrator 25.2.3, SVG Export Plug-In . SVG Version: 6.00 Build 0)  -->
<svg version="1.1" id="Layer_1" xmlns="http://www.w3.org/2000/svg" xmlns:xlink="http://www.w3.org/1999/xlink" x="0px" y="0px"
	 viewBox="0 0 1000 1000" style="enable-background:new 0 0 1000 1000;" xml:space="preserve">
<style type="text/css">
	.st0{fill:#FFFFFF;}
</style>
<g>
	<polyline class="st0" points="311.9,526.8 276.8,526.8 276.8,472.1 311.9,472.1 311.9,475.9 286.5,475.9 286.5,496 307.6,496 
		307.6,500.5 286.5,500.5 286.5,523 311.9,523 311.9,526.8 	"/>
	<polyline class="st0" points="496.8,490.2 496.8,487.4 517.2,487.4 517.2,490.2 508.5,490.2 508.5,512.7 505.4,512.7 505.4,490.2 
		496.8,490.2 	"/>
	<path class="st0" d="M538.1,495.5c0-2.5-1.8-5.4-5.4-5.4h-8.3v10.6h8.2C536.3,500.7,538.1,498.4,538.1,495.5 M530.4,503.5h-6.1v9.1
		h-3.2v-25.3h11.5c5.7,0,8.6,4,8.6,8.1c0,3.8-2.1,7.4-7.3,7.8l8.3,9.4h-4L530.4,503.5z"/>
	<path class="st0" d="M557.3,490.5l-6,13.7h12L557.3,490.5 M559,487.4l11.3,25.3H567l-2.5-5.6H550l-2.5,5.6h-3.4l11.3-25.3
		L559,487.4L559,487.4z"/>
	<path class="st0" d="M593.2,499.7c0-4.7-3.1-9.3-9.6-9.3h-6.1v19.2h6.1C590.3,509.5,593.2,504.5,593.2,499.7 M574.4,487.3h9.2
		c8.6,0,12.7,6.1,12.7,12.4c0,6.5-3.9,12.9-12.7,12.9h-9.2V487.3z"/>
	<rect x="601.5" y="487.4" class="st0" width="3.2" height="25.3"/>
	<polyline class="st0" points="613.6,487.4 629.1,506.7 629.1,487.4 632.2,487.4 632.2,512.7 630,512.7 614.5,493.4 614.5,512.7 
		611.4,512.7 611.4,487.4 613.6,487.4 	"/>
	<path class="st0" d="M658.1,492.7c-2-1.9-4.9-3-7.5-3c-6.5,0-10,4.9-10,10.5c0,5.1,3.2,9.9,10.1,9.9c2.4,0,4.8-0.8,6.9-2.6v-6h-7.9
		v-2.8h10.7v10c-2.6,2.8-5.7,4.3-9.8,4.3c-9,0-13.2-6.1-13.2-12.9c0-7.6,4.9-13.4,13.2-13.4c3.4,0,6.7,1.3,9.3,3.8L658.1,492.7"/>
	<polyline class="st0" points="675.1,487.4 692.9,487.4 692.9,490.2 678.2,490.2 678.2,498.2 692.3,498.2 692.3,501.1 678.2,501.1 
		678.2,509.6 693.5,509.6 693.5,512.7 675.1,512.7 675.1,487.4 	"/>
	<path class="st0" d="M719,487.4v15.2c0,7-4.7,10.6-10.3,10.6c-5.4,0-10.4-3.5-10.4-10.6v-15.2h3.1v15.2c0,5,3.4,7.7,7.3,7.7
		c3.9,0,7.2-2.8,7.2-7.7v-15.2L719,487.4L719,487.4"/>
	<path class="st0" d="M742.4,495.5c0-2.5-1.8-5.4-5.4-5.4h-8.3v10.6h8.2C740.6,500.7,742.4,498.4,742.4,495.5 M734.8,503.5h-6.1v9.1
		h-3.2v-25.3H737c5.7,0,8.6,4,8.6,8.1c0,3.8-2.1,7.4-7.3,7.8l8.3,9.4h-4L734.8,503.5z"/>
	<path class="st0" d="M762.5,489.8c-6.4,0-9.8,4.7-9.8,10.3c0,5.1,3.1,10.1,9.8,10.1s9.7-5.1,9.7-10.1
		C772.2,494.9,769.1,489.9,762.5,489.8 M775.3,500.1c0,6.6-4.2,13.1-12.8,13.1c-8.7,0-12.9-6.4-12.9-13.1c0-7.3,4.9-13.2,12.9-13.2
		C771.1,487,775.4,493.4,775.3,500.1"/>
	<path class="st0" d="M792,490.3h-8.4v11.3h8.4C799.4,501.5,799.4,490.3,792,490.3 M783.6,512.7h-3.1v-25.3H792
		c11.6,0,11.6,17.1,0,17.1h-8.4V512.7z"/>
	<polyline class="st0" points="805.2,487.4 823,487.4 823,490.2 808.3,490.2 808.3,498.2 822.4,498.2 822.4,501.1 808.3,501.1 
		808.3,509.6 823.6,509.6 823.6,512.7 805.2,512.7 805.2,487.4 	"/>
	<polyline class="st0" points="841.2,509.7 854.9,509.7 854.9,512.7 838,512.7 838,487.4 841.2,487.4 841.2,509.7 	"/>
	<polyline class="st0" points="852.7,490.2 852.7,487.4 873.1,487.4 873.1,490.2 864.4,490.2 864.4,512.7 861.3,512.7 861.3,490.2 
		852.7,490.2 	"/>
	<path class="st0" d="M895.9,499.7c0-4.7-3.1-9.3-9.6-9.3h-6.1v19.2h6.1C893,509.5,895.9,504.5,895.9,499.7 M877.1,487.3h9.2
		c8.6,0,12.7,6.1,12.7,12.4c0,6.5-3.9,12.9-12.7,12.9h-9.2V487.3z"/>
	<path class="st0" d="M112.2,513.2h22.6l-11.5-24.3L112.2,513.2 M101,526.8l25.2-54.6l25.8,54.6h-10.8l-4.7-9.8h-26.1l-4.6,9.8H101z
		"/>
	<path class="st0" d="M186.3,487.4c0-11.6-10.5-11.6-10.5-11.6l-5.1,0.1v22.8h5.1C178.7,498.8,186.3,498.9,186.3,487.4 M195.9,487.4
		c0,15.4-16.4,15.3-25.2,15.2v24.1H161v-54.7h9.6C179.2,472.1,195.9,472.2,195.9,487.4"/>
	<polyline class="st0" points="262.6,472.1 262.6,526.8 252.9,526.8 252.9,482.6 231.4,527.9 210.8,484.5 210.8,526.8 206.4,526.8 
		206.4,472.1 215.7,472.1 234.3,511.3 252.9,472.1 262.6,472.1 	"/>
	<path class="st0" d="M435.1,525.5l-13.5-17.8l5.3-6.3l18.3,24.1L435.1,525.5 M418.2,503.2l-2.1,2.5l-1.9,2.2l0,0l-15,17.6h-4.5
		l21.5-25.1l-19.6-25.8h10.1l14.8,19.6l16.6-19.6h4.6l-18.9,22.1l0,0L418.2,503.2L418.2,503.2z M394.3,477.8h-24.8V496h17.9v3.3
		h-17.9v26.1H361v-50.9h33.4L394.3,477.8L394.3,477.8z M335.9,557.5h134.4v-115H335.9V557.5z"/>
</g>
</svg>
