<svg xmlns="http://www.w3.org/2000/svg" width="2800" height="799" viewBox="0 0 2800 799">
  <defs>
    <style>
      .cls-1, .cls-3 {
        fill: #e71e2e;
      }

      .cls-2 {
        fill: #fff;
      }

      .cls-2, .cls-3, .cls-4 {
        fill-rule: evenodd;
      }

      .cls-4 {
        fill: #2f2e2e;
      }
    </style>
  </defs>
  <circle id="Эллипс_1" data-name="Эллипс 1" class="cls-1" cx="399" cy="399" r="399"/>
  <path class="cls-2" d="M106,597L397,82,673,573H535L394,325,274,531Z"/>
  <path id="ARUM" class="cls-3" d="M1182.55-.593L992.913,399.578h44.747l62.53-131.668H1273.1l63.13,131.668h43.33L1192.37-.593h-9.82Zm73.2,229.874H1118.53l68.78-144.853Zm260.85,170.3h40.11v-185.8h22.67l144.36,185.8h49.62l-144.34-185.8q50.475-.268,79.13-12.939t44.06-37.453q15.42-24.783,15.42-57.472,0-39.225-22.38-66.055t-58.12-35q-23.73-5.445-90.58-5.449H1516.6V399.578Zm110.89-361q41.265,0,59.04,7.073a60.892,60.892,0,0,1,28.69,23.532,64.694,64.694,0,0,1,10.93,36.59,67.491,67.491,0,0,1-10.79,37.409,61.813,61.813,0,0,1-30.07,24.348q-19.26,7.618-59.44,7.617l-69.14-.548V38.581h70.78Zm300.1,202.4q0,60.94,7.37,84.332,11.73,38.09,46.38,61.209t83.23,23.123q44.745,0,76.26-24.483t42.02-57.537q10.5-33.052,10.51-86.644V-0.593h-40.11V240.979q0,47.334-4.1,62.569-5.73,21.219-18.01,36.181a84.836,84.836,0,0,1-30.56,23.4,90.165,90.165,0,0,1-38.2,8.433q-22.92,0-45.56-10.746-22.665-10.743-33.57-26.66t-13.91-39.582q-1.635-10.609-1.64-53.591V-0.593h-40.11V240.979Zm457.65,158.6,39.43-288.363,143.61,288.363h10.25l141.92-286.186,39.66,286.186h39.33L2741.68-.593h-6.43l-161.6,328.352L2410.48-.593h-6.52L2346.5,399.578h38.74Z"/>
  <path id="capital" class="cls-4" d="M1148.48,585.063a89.124,89.124,0,0,0-26.19-13.208,102.082,102.082,0,0,0-32.04-5.068q-26.43,0-47.78,11.672a86.006,86.006,0,0,0-33.57,32.483,87.537,87.537,0,0,0-12.215,45.076q0,36.093,26.115,61.28,26.13,25.189,65.76,25.187,25.815,0,46.02-9.947a80.513,80.513,0,0,0,32.19-27.988l-17.06-11.211q-23.325,29.335-60.16,29.334-20.1,0-36.29-8.9a65.019,65.019,0,0,1-25.47-25,67.711,67.711,0,0,1-9.29-34.364q0-28.074,20.18-47.709t50.72-19.637q38.22,0,60.31,29.334l17.06-10.6A71.924,71.924,0,0,0,1148.48,585.063Zm330.83-13.976V601.8q-12.6-17.51-29.27-26.263t-37.26-8.754q-35.655,0-61,25.648t-25.35,61.74q0,36.86,25.12,62.585t60.61,25.725a82.086,82.086,0,0,0,36.8-8.294q16.83-8.292,30.35-24.726v28.72h21.2v-167.1h-21.2ZM1461.58,607q19.11,19.485,19.11,48.477,0,19.023-8.52,34.21a62.283,62.283,0,0,1-24.32,24.084,67.19,67.19,0,0,1-33.46,8.9,63.59,63.59,0,0,1-32.77-8.975,66,66,0,0,1-24.32-25.082,67.711,67.711,0,0,1-.08-67.5,64.891,64.891,0,0,1,57.33-33.6Q1442.465,587.521,1461.58,607Zm213.5,192.306h21.51V709.465q13.5,16.435,30.23,24.726a81.436,81.436,0,0,0,36.69,8.294q35.445,0,60.55-25.725t25.09-62.585q0-36.088-25.33-61.74t-60.93-25.648a77.968,77.968,0,0,0-36.99,8.754q-16.575,8.754-29.31,26.263V571.087h-21.51V799.31Zm119.14-202.968a64.682,64.682,0,0,1,24.15,24.777,67.776,67.776,0,0,1-.08,67.5,65.876,65.876,0,0,1-24.3,25.082,63.146,63.146,0,0,1-32.57,8.975,67.465,67.465,0,0,1-33.49-8.9,62.02,62.02,0,0,1-24.37-24.084q-8.52-15.186-8.51-34.21,0-28.992,19.08-48.477t46.98-19.483A64.715,64.715,0,0,1,1794.22,596.342ZM2010.33,507.5a17.187,17.187,0,0,0-5.2,12.594,17.67,17.67,0,0,0,35.34,0,17.809,17.809,0,0,0-17.75-17.816A16.9,16.9,0,0,0,2010.33,507.5Zm1.71,230.681h21.51v-167.1h-21.51v167.1Zm210.83-167.1h-29.35v18.584h29.35V738.185h21.51V589.671h34.11V571.087h-34.11V509.04h-21.51v62.047Zm359.09,0V601.8q-12.6-17.51-29.27-26.263t-37.26-8.754q-35.64,0-60.99,25.648t-25.35,61.74q0,36.86,25.12,62.585t60.61,25.725a82.116,82.116,0,0,0,36.8-8.294q16.815-8.292,30.34-24.726v28.72h21.2v-167.1h-21.2ZM2564.24,607q19.11,19.485,19.1,48.477a68.8,68.8,0,0,1-8.51,34.21,62.244,62.244,0,0,1-24.33,24.084,67.181,67.181,0,0,1-33.45,8.9,63.563,63.563,0,0,1-32.77-8.975,65.853,65.853,0,0,1-24.32-25.082,67.711,67.711,0,0,1-.08-67.5,64.86,64.86,0,0,1,57.32-33.6Q2545.13,587.521,2564.24,607ZM2774.2,738.185h21.51v-231.6H2774.2v231.6Z"/>
</svg>
