<svg width="127" height="36" viewBox="0 0 127 36" fill="none" xmlns="http://www.w3.org/2000/svg">
<path fill-rule="evenodd" clip-rule="evenodd" d="M17.9975 35.9951C22.5014 35.9951 26.6189 34.3407 29.7755 31.6064C29.6692 31.4068 29.609 31.1787 29.609 30.9362V26.6119C26.7833 30.4073 22.1504 32.7776 16.9936 32.425C9.85822 31.9402 4.07451 26.1663 3.57499 19.0358C2.98732 10.5929 9.68681 3.53591 17.9975 3.5408C18.4579 3.5408 18.9133 3.56039 19.3639 3.60447C20.074 3.66813 20.6176 4.2656 20.6176 4.98061V5.06876C20.6176 5.8915 19.8977 6.51836 19.0749 6.44C18.1934 6.35675 17.2776 6.37633 16.3422 6.50856C11.1119 7.25295 6.9884 11.5381 6.4546 16.7929C5.7249 23.9919 11.6261 30.0449 18.7762 29.5797C24.5697 29.2026 29.2515 24.4767 29.5894 18.6783C29.7902 15.1474 28.3994 11.9348 26.078 9.68201V17.6989C26.0829 17.8409 26.0878 17.9878 26.0878 18.1347C26.0878 18.2816 26.0878 18.4237 26.078 18.5706V18.6734H26.0683C25.7891 23.0614 22.1455 26.5336 17.6841 26.5336C12.7329 26.5336 8.77592 22.2436 9.33421 17.1749C9.75048 13.3697 12.7819 10.2795 16.5822 9.79464C19.1337 9.47142 21.4893 10.2942 23.2229 11.8123L23.1544 7.59576V6.67017C23.1544 5.61725 24.3003 4.94143 25.2161 5.47034C29.5453 7.97285 32.4592 12.6498 32.4592 17.9976V28.7125C34.6808 25.719 35.995 22.0118 35.995 17.9975C35.995 8.05778 27.9373 0 17.9975 0C8.05772 0 -6.10352e-05 8.05778 -6.10352e-05 17.9975C-6.10352e-05 27.9373 8.05772 35.9951 17.9975 35.9951ZM17.6841 23.6785C14.6233 23.6785 12.1355 21.1906 12.1355 18.1298C12.1355 15.069 14.6233 12.5812 17.6841 12.5812C20.6714 12.5812 23.1054 14.9515 23.2229 17.9095V18.3551C23.1005 21.3082 20.6665 23.6785 17.6841 23.6785ZM20.2455 18.2817C20.2455 19.7016 19.0943 20.8528 17.6744 20.8528C16.2544 20.8528 15.1033 19.7016 15.1033 18.2817C15.1033 16.8617 16.2544 15.7106 17.6744 15.7106C19.0943 15.7106 20.2455 16.8617 20.2455 18.2817Z" fill="url(#paint0_linear)"/>
<path d="M50.7105 19.2542V24.1352C50.7105 24.3527 50.6465 24.5254 50.5249 24.6533C50.3968 24.7877 50.2304 24.8516 50.0128 24.8516C49.7951 24.8516 49.6223 24.7877 49.4943 24.6533C49.3662 24.519 49.2958 24.3463 49.2958 24.1352V23.2716C49.0654 23.7833 48.7197 24.1863 48.2524 24.4678C47.7851 24.7493 47.2474 24.89 46.6393 24.89C46.076 24.89 45.5575 24.7749 45.0838 24.551C44.6101 24.3207 44.2389 24.0072 43.9636 23.5978C43.6884 23.1884 43.5475 22.7406 43.5475 22.2544C43.5475 21.5955 43.714 21.0837 44.0532 20.7191C44.3861 20.3545 44.9366 20.0922 45.7048 19.9323C46.4729 19.7723 47.5355 19.6892 48.8989 19.6892H49.2958V19.0942C49.2958 18.3778 49.1486 17.8532 48.8541 17.5142C48.5597 17.1815 48.086 17.0088 47.4267 17.0088C46.6137 17.0088 45.788 17.2327 44.9494 17.6741C44.6294 17.8788 44.3989 17.9811 44.2645 17.9811C44.1237 17.9811 44.002 17.93 43.906 17.8212C43.81 17.7125 43.7652 17.5781 43.7652 17.4054C43.7652 17.2391 43.8164 17.0919 43.9188 16.964C44.0212 16.8361 44.1877 16.7081 44.4117 16.5802C44.8278 16.3435 45.3079 16.1516 45.8392 16.0172C46.3705 15.8829 46.9018 15.8125 47.4267 15.8125C49.6159 15.8061 50.7105 16.9576 50.7105 19.2542ZM48.5981 23.0093C49.059 22.5231 49.2894 21.9026 49.2894 21.1349V20.6168H48.9694C47.9132 20.6168 47.113 20.6615 46.5625 20.7511C46.012 20.8407 45.6215 20.9878 45.3847 21.1989C45.1542 21.41 45.0326 21.7171 45.0326 22.1201C45.0326 22.5871 45.2055 22.9709 45.5447 23.278C45.884 23.585 46.3129 23.7321 46.825 23.7321C47.5483 23.7385 48.1372 23.4955 48.5981 23.0093Z" fill="#291356"/>
<path d="M54.7369 24.6919C54.2376 24.5575 53.8023 24.372 53.4182 24.1353C53.2006 23.9946 53.047 23.8603 52.9574 23.7323C52.8677 23.6044 52.8229 23.4572 52.8229 23.2781C52.8229 23.1246 52.8677 22.9967 52.9574 22.8943C53.047 22.7919 53.1622 22.7408 53.3094 22.7408C53.4503 22.7408 53.6615 22.8303 53.9367 23.0094C54.2952 23.2269 54.6537 23.3933 55.0057 23.5212C55.3578 23.6492 55.7995 23.7067 56.3244 23.7067C56.9709 23.7067 57.4702 23.5916 57.8351 23.3677C58.1935 23.1374 58.3728 22.8111 58.3728 22.3825C58.3728 22.1202 58.3088 21.9091 58.1743 21.7428C58.0399 21.5829 57.8159 21.4358 57.4894 21.3142C57.1693 21.1863 56.6957 21.0583 56.0683 20.9304C55.0121 20.7065 54.2632 20.3994 53.8087 20.0156C53.3542 19.6318 53.1238 19.1136 53.1238 18.4547C53.1238 17.9429 53.2646 17.4887 53.5527 17.0921C53.8407 16.6955 54.2376 16.3884 54.7497 16.1581C55.2554 15.9342 55.8379 15.8191 56.4844 15.8191C56.9517 15.8191 57.3998 15.8831 57.8415 16.0046C58.2768 16.1325 58.6672 16.3053 59.0001 16.5356C59.4098 16.8234 59.6082 17.1241 59.6082 17.4312C59.6082 17.5847 59.557 17.719 59.4674 17.8278C59.3714 17.9365 59.2561 17.9877 59.1281 17.9877C58.9873 17.9877 58.7696 17.8854 58.4816 17.6807C58.1487 17.4631 57.8287 17.2968 57.5278 17.1753C57.227 17.0537 56.8557 16.9962 56.414 16.9962C55.8507 16.9962 55.4026 17.1241 55.057 17.3736C54.7113 17.6231 54.5449 17.9621 54.5449 18.3779C54.5449 18.6402 54.6089 18.8513 54.7305 19.0176C54.8585 19.1776 55.0634 19.3247 55.3578 19.4463C55.6523 19.5742 56.0747 19.6957 56.6252 19.8109C57.4382 19.99 58.0719 20.1883 58.52 20.4058C58.9681 20.6233 59.2881 20.8856 59.4802 21.1927C59.6722 21.5061 59.7682 21.8963 59.7682 22.3761C59.7682 23.131 59.4482 23.7387 58.8145 24.1993C58.1807 24.6599 57.3422 24.8902 56.2988 24.8902C55.7611 24.8902 55.2362 24.8198 54.7369 24.6919Z" fill="#291356"/>
<path d="M63.3593 24.6919C62.86 24.5575 62.4248 24.372 62.0407 24.1353C61.823 23.9946 61.6694 23.8603 61.5798 23.7323C61.4902 23.6044 61.4454 23.4572 61.4454 23.2781C61.4454 23.1246 61.4902 22.9967 61.5798 22.8943C61.6694 22.7919 61.7846 22.7408 61.9319 22.7408C62.0727 22.7408 62.2839 22.8303 62.5592 23.0094C62.9176 23.2269 63.2761 23.3933 63.6282 23.5212C63.9802 23.6492 64.4219 23.7067 64.9468 23.7067C65.5933 23.7067 66.0926 23.5916 66.4575 23.3677C66.8224 23.1438 66.9952 22.8111 66.9952 22.3825C66.9952 22.1202 66.9312 21.9091 66.7968 21.7428C66.6623 21.5829 66.4383 21.4358 66.1118 21.3142C65.7918 21.1863 65.3181 21.0583 64.6908 20.9304C63.6346 20.7065 62.8856 20.3994 62.4312 20.0156C61.9767 19.6318 61.7462 19.1136 61.7462 18.4547C61.7462 17.9429 61.8871 17.4887 62.1751 17.0921C62.4632 16.6955 62.86 16.3884 63.3721 16.1581C63.8778 15.9342 64.4603 15.8191 65.1069 15.8191C65.5741 15.8191 66.0222 15.8831 66.4639 16.0046C66.8992 16.1325 67.2897 16.3053 67.6225 16.5356C68.0322 16.8234 68.2306 17.1241 68.2306 17.4312C68.2306 17.5847 68.1794 17.719 68.0898 17.8278C67.9938 17.9365 67.8786 17.9877 67.7505 17.9877C67.6097 17.9877 67.3921 17.8854 67.104 17.6807C66.7712 17.4631 66.4511 17.2968 66.1503 17.1753C65.8494 17.0537 65.4781 16.9962 65.0364 16.9962C64.4731 16.9962 64.0251 17.1241 63.6794 17.3736C63.3337 17.6231 63.1673 17.9621 63.1673 18.3779C63.1673 18.6402 63.2313 18.8513 63.3529 19.0176C63.481 19.1776 63.6858 19.3247 63.9802 19.4463C64.2747 19.5742 64.6972 19.6957 65.2477 19.8109C66.0606 19.99 66.6944 20.1883 67.1424 20.4058C67.5905 20.6233 67.9106 20.8856 68.1026 21.1927C68.2947 21.5061 68.3907 21.8963 68.3907 22.3761C68.3907 23.131 68.0706 23.7387 67.4369 24.1993C66.8032 24.6599 65.9646 24.8902 64.9212 24.8902C64.3771 24.8902 63.8522 24.8198 63.3593 24.6919Z" fill="#291356"/>
<path d="M77.7107 22.8942C77.8067 23.003 77.8516 23.1373 77.8516 23.31C77.8516 23.6107 77.6403 23.8858 77.2242 24.1352C76.7953 24.3847 76.3409 24.5766 75.8608 24.6982C75.3807 24.8197 74.9134 24.8837 74.4589 24.8837C73.1083 24.8837 72.0393 24.4807 71.2519 23.681C70.471 22.8814 70.0741 21.7747 70.0741 20.3609C70.0741 19.4654 70.2469 18.6721 70.5926 17.9812C70.9383 17.2903 71.4247 16.7594 72.0585 16.3755C72.6858 15.9917 73.4027 15.7998 74.2029 15.7998C75.3423 15.7998 76.2449 16.1708 76.9106 16.9129C77.5827 17.655 77.9156 18.6593 77.9156 19.9259C77.9156 20.1626 77.8643 20.3354 77.7747 20.4441C77.6851 20.5529 77.5251 20.604 77.3074 20.604H71.5272C71.636 22.6639 72.609 23.6874 74.4525 23.6874C74.9198 23.6874 75.3231 23.6235 75.6559 23.5019C75.9888 23.374 76.3473 23.2077 76.7313 22.9902C77.045 22.811 77.2498 22.7215 77.3587 22.7215C77.4995 22.7343 77.6147 22.7855 77.7107 22.8942ZM72.3849 17.655C71.924 18.1348 71.6488 18.8064 71.5656 19.6829H76.6481C76.6225 18.8001 76.4049 18.122 75.9824 17.6486C75.5599 17.1752 74.9774 16.9385 74.2221 16.9385C73.4603 16.9385 72.8458 17.1816 72.3849 17.655Z" fill="#291356"/>
<path d="M84.6752 24.2762C84.6752 24.4809 84.5984 24.6344 84.4512 24.7368C84.304 24.8391 84.0799 24.8775 83.7791 24.8519L83.2926 24.8135C82.3324 24.7432 81.6283 24.4553 81.1738 23.9499C80.7193 23.4446 80.4889 22.6897 80.4889 21.6726V17.169H79.2854C79.0806 17.169 78.9206 17.1178 78.8118 17.0155C78.6965 16.9131 78.6389 16.7788 78.6389 16.6124C78.6389 16.4333 78.6965 16.2926 78.8118 16.1838C78.927 16.0751 79.0806 16.0239 79.2854 16.0239H80.4889V13.996C80.4889 13.7721 80.5529 13.593 80.6873 13.4651C80.8217 13.3371 81.001 13.2795 81.225 13.2795C81.4426 13.2795 81.6155 13.3435 81.7435 13.4651C81.8779 13.593 81.9419 13.7657 81.9419 13.996V16.0239H83.9327C84.1247 16.0239 84.2784 16.0751 84.3872 16.1838C84.5024 16.2926 84.56 16.4333 84.56 16.6124C84.56 16.7788 84.5024 16.9131 84.3872 17.0155C84.272 17.1178 84.1183 17.169 83.9327 17.169H81.9419V21.7429C81.9419 22.4018 82.0763 22.8752 82.3452 23.1695C82.614 23.4637 83.0173 23.6301 83.555 23.6621L84.0415 23.7004C84.464 23.7388 84.6752 23.9307 84.6752 24.2762Z" fill="#291356"/>
<path d="M86.3076 24.3655C86.0451 24.1032 85.9107 23.7258 85.9107 23.2332V13.6376C85.9107 13.145 86.0451 12.7675 86.3076 12.5053C86.57 12.243 86.9477 12.1086 87.4406 12.1086H91.0701C92.4719 12.1086 93.6754 12.3645 94.6867 12.8699C95.6981 13.3753 96.4727 14.1045 97.0104 15.0513C97.5481 15.9981 97.8169 17.124 97.8169 18.4226C97.8169 19.7404 97.5481 20.8727 97.0168 21.8195C96.4855 22.7726 95.7109 23.4955 94.6995 24.0009C93.6882 24.5062 92.4783 24.7557 91.0637 24.7557H87.4342C86.9477 24.7621 86.57 24.6278 86.3076 24.3655ZM93.6049 21.1989C94.2195 20.5976 94.5267 19.67 94.5267 18.429C94.5267 17.1879 94.2195 16.2668 93.6049 15.6654C92.9904 15.0705 92.0623 14.7698 90.8332 14.7698H89.2201V22.1073H90.8332C92.0687 22.1073 92.9904 21.8067 93.6049 21.1989Z" fill="#291356"/>
<path d="M100.185 24.3655C99.9229 24.1032 99.7885 23.7258 99.7885 23.2332V13.6376C99.7885 13.145 99.9229 12.7675 100.185 12.5053C100.448 12.243 100.826 12.1086 101.318 12.1086H107.528C108.04 12.1086 108.43 12.2174 108.693 12.4285C108.955 12.646 109.089 12.9531 109.089 13.3625C109.089 14.2261 108.571 14.6547 107.528 14.6547H103.002V17.06H107.169C108.212 17.06 108.731 17.4822 108.731 18.333C108.731 18.7424 108.597 19.0495 108.334 19.267C108.072 19.4845 107.681 19.5869 107.169 19.5869H103.002V22.2033H107.528C108.571 22.2033 109.089 22.6319 109.089 23.4955C109.089 23.9049 108.955 24.212 108.693 24.4295C108.43 24.647 108.04 24.7493 107.528 24.7493H101.318C100.826 24.7621 100.448 24.6278 100.185 24.3655Z" fill="#291356"/>
<path d="M121.194 23.3613C121.194 23.7707 121.034 24.1225 120.72 24.4296C120.4 24.7366 120.048 24.8838 119.651 24.8838C119.235 24.8838 118.871 24.7047 118.557 24.3464L115.471 20.6489L112.328 24.3464C112.015 24.7047 111.656 24.8838 111.253 24.8838C110.856 24.8838 110.504 24.7303 110.184 24.4168C109.864 24.1033 109.71 23.7451 109.71 23.3421C109.71 22.9966 109.838 22.6704 110.088 22.3761L113.532 18.3907L110.178 14.4949C109.915 14.1814 109.781 13.8616 109.781 13.5289C109.781 13.1195 109.941 12.7677 110.254 12.4606C110.575 12.1535 110.933 12 111.343 12C111.759 12 112.124 12.1791 112.437 12.5374L115.471 16.1261L118.486 12.5374C118.774 12.1791 119.127 12 119.543 12C119.952 12 120.311 12.1535 120.631 12.4606C120.951 12.7677 121.105 13.1195 121.105 13.5289C121.105 13.8744 120.976 14.2006 120.727 14.4949L117.366 18.3907L120.797 22.3761C121.06 22.6768 121.194 23.003 121.194 23.3613Z" fill="#291356"/>
<path d="M125.284 12.4991C125.284 12.5375 125.272 12.5631 125.252 12.5822C125.227 12.6014 125.195 12.6142 125.156 12.6142H124.747V13.8169C124.747 13.8617 124.734 13.8937 124.708 13.9192C124.683 13.9448 124.651 13.9576 124.612 13.9576C124.568 13.9576 124.536 13.9448 124.51 13.9192C124.484 13.8937 124.472 13.8617 124.472 13.8169V12.6142H124.068C123.979 12.6142 123.934 12.5759 123.934 12.4991C123.934 12.4223 123.979 12.3839 124.068 12.3839H125.156C125.24 12.3839 125.284 12.4223 125.284 12.4991ZM126.962 12.4031C126.987 12.4287 127 12.4607 127 12.5055V13.8169C127 13.8617 126.987 13.8937 126.962 13.9192C126.936 13.9448 126.91 13.9512 126.872 13.9512C126.84 13.9512 126.808 13.9384 126.782 13.9192C126.757 13.9001 126.75 13.8617 126.75 13.8169V12.9021L126.373 13.625C126.341 13.6826 126.296 13.7145 126.245 13.7145C126.193 13.7145 126.149 13.6826 126.117 13.625L125.733 12.9085V13.8169C125.733 13.8617 125.72 13.8937 125.694 13.9192C125.669 13.9448 125.643 13.9512 125.605 13.9512C125.573 13.9512 125.541 13.9384 125.515 13.9192C125.489 13.8937 125.477 13.8617 125.477 13.8169V12.5055C125.477 12.4607 125.489 12.4287 125.515 12.4031C125.541 12.3775 125.573 12.3647 125.611 12.3647C125.662 12.3647 125.707 12.3967 125.745 12.4607L126.238 13.4075L126.731 12.4607C126.77 12.3967 126.808 12.3647 126.859 12.3647C126.904 12.3711 126.936 12.3839 126.962 12.4031Z" fill="#291356"/>
<defs>
<linearGradient id="paint0_linear" x1="-6.10352e-05" y1="17.9994" x2="35.9987" y2="17.9994" gradientUnits="userSpaceOnUse">
<stop stop-color="#8E2DE2"/>
<stop offset="1" stop-color="#4A00E0"/>
</linearGradient>
</defs>
</svg>
