<svg width="206" height="32" viewBox="0 0 206 32" fill="none" xmlns="http://www.w3.org/2000/svg">
<path fill-rule="evenodd" clip-rule="evenodd" d="M5.21582 31.6652C5.76993 31.6652 10.8383 31.7346 11.1273 31.624C16.4746 28.2534 21.8288 24.8962 27.1851 21.5397C28.9573 24.889 30.6253 28.3087 32.4014 31.6652H38.2312L31.6036 18.7168C31.6036 18.7168 43.9054 10.9531 43.9996 10.8618C32.8932 15.1682 9.37752 24.2831 9.16514 24.3843C8.79287 24.5553 5.5934 30.9418 5.21582 31.6652Z" fill="white"/>
<path fill-rule="evenodd" clip-rule="evenodd" d="M0 25.8968L17.2091 19.2341C17.5943 19.0814 17.7001 19.1105 17.8801 18.7392C18.7505 17.0879 21.7852 11.2301 21.7852 11.2301L24.424 16.2009L29.3333 14.3598L22.0307 0C22.0429 0.0240399 12.4174 18.0017 12.4174 18.0017C12.2984 18.2476 12.3205 18.2811 12.104 18.4248C12.104 18.4248 0.143541 25.7008 0 25.8968Z" fill="white"/>
<path fill-rule="evenodd" clip-rule="evenodd" d="M74.4688 31.5202C78.7987 31.5202 77.9654 32.3291 77.9654 27.5241C77.9654 26.0256 77.9654 24.5269 77.9654 23.0284C78.1804 23.2759 78.0361 23.101 78.2437 23.4162L79.0589 24.7656C79.523 25.5376 81.9615 30.0217 82.6276 30.0217C84.3009 30.0217 83.8056 30.0183 85.8631 26.5971L87.5269 23.7653C87.6257 23.5997 87.7027 23.4704 87.7791 23.3513L88.1221 22.8619C88.4958 24.4659 88.2886 29.5446 88.2886 31.5202H91.6188V16.2018C87.9695 16.2018 88.9788 15.6757 87.3422 18.419C86.7326 19.4406 83.4634 25.1576 82.9605 25.526C82.801 24.9285 78.8107 18.5166 78.0807 17.2521C77.3065 15.9113 77.7517 16.2018 74.4688 16.2018V31.5202Z" fill="white"/>
<path fill-rule="evenodd" clip-rule="evenodd" d="M63.647 28.6895C61.0842 28.6895 58.9849 26.7496 58.9849 24.5267C58.9849 22.9511 58.903 21.7912 60.2441 20.4579C62.1148 18.5978 65.7561 18.7705 67.2463 20.761C69.6301 23.9454 67.6937 28.6895 63.647 28.6895ZM55.1553 23.6943C55.1553 26.1847 56.2945 28.3154 57.607 29.5677C60.7519 32.5682 66.5206 32.5451 69.4365 29.6503C70.2994 28.7938 70.5851 28.4966 71.1437 27.3614C72.6944 24.2103 71.9947 20.9154 69.8508 18.4895C68.0109 16.4075 65.5322 16.0352 62.9809 16.0352C60.5776 16.0352 58.6966 17.1874 57.4185 18.4649C56.0821 19.8001 55.1553 21.8733 55.1553 23.6943Z" fill="white"/>
<path fill-rule="evenodd" clip-rule="evenodd" d="M101.275 23.3612C101.275 33.1435 112.711 33.5777 115.761 29.0224C115.336 28.3876 114.08 27.2928 113.43 26.8578C111.273 30.0793 104.938 29.0407 104.938 23.8608C104.938 21.3966 106.816 19.1986 108.935 19.1986C110.393 19.1986 111.017 19.0481 112.201 19.7622C112.871 20.1663 113.062 20.5055 113.597 20.8636C114.207 20.3329 115.327 19.3479 115.761 18.6992C113.224 14.9096 104.728 14.8146 102.06 20.316C101.723 21.0111 101.275 22.4069 101.275 23.3612Z" fill="white"/>
<path fill-rule="evenodd" clip-rule="evenodd" d="M41 16.7011V19.1987H45.9951V31.52C48.2392 31.52 49.6582 31.854 49.6582 31.0206V19.1987H54.4869V16.2017H41.4994C41.1158 16.2017 41 16.3175 41 16.7011Z" fill="white"/>
<path fill-rule="evenodd" clip-rule="evenodd" d="M182.661 29.8197H178.831V17.4985C182.393 17.4985 184.846 17.114 187.461 18.8592C190.852 21.1222 191.215 29.8197 182.661 29.8197ZM177 31.3184C181.803 31.3184 186.017 32.0118 189.198 29.1968C193.37 25.5051 191.975 16 183.327 16H177V31.3184Z" fill="white"/>
<path fill-rule="evenodd" clip-rule="evenodd" d="M147.994 24.9912H143.832V17.4985C147.4 17.4985 152.323 16.8178 152.323 21.3281C152.323 23.8537 150.517 24.9912 147.994 24.9912ZM142 16.4995V30.8188C142 31.4985 142.522 31.3184 143.832 31.3184V26.4897H149.16C149.31 27.0527 149.59 27.2725 149.922 27.726C150.419 28.4075 152.154 30.6849 152.323 31.3184H154.321C153.673 30.0924 151.384 27.3606 150.658 25.9901C154.833 25.6429 156.529 16 147.828 16H142.5C142.116 16 142 16.1157 142 16.4995Z" fill="white"/>
<path fill-rule="evenodd" clip-rule="evenodd" d="M195 31.3184H205.823V29.8197H196.665V24.3251H204.491V22.8266H196.665V17.4985H205.49V16H195V31.3184Z" fill="white"/>
<path fill-rule="evenodd" clip-rule="evenodd" d="M165.659 18.0146C166.117 18.35 165.943 18.2118 166.189 18.8174L168.871 24.7934C169.06 25.2331 169.121 25.4609 169.322 25.8403H162.329C162.63 24.55 165.322 19.4625 165.659 18.0146ZM158 31.335H159.832C159.944 30.8508 160.44 29.8473 160.666 29.3392C160.993 28.6069 161.286 28.2444 161.497 27.3388H169.988C170.655 28.5995 171.148 30.0659 171.82 31.335H173.485C173.443 30.8299 172.991 29.8786 172.764 29.3917L168.321 19.6819C168.043 19.059 167.76 18.4319 167.436 17.7364C166.493 15.7093 167.023 16.0166 165.326 16.0166C164.696 16.0166 163.61 19.0379 163.326 19.6775C162.754 20.9634 162.135 22.1758 161.545 23.5573L158 31.335Z" fill="white"/>
<path fill-rule="evenodd" clip-rule="evenodd" d="M95.1143 31.52H98.7772V16.2017H95.1143V31.52Z" fill="white"/>
<path fill-rule="evenodd" clip-rule="evenodd" d="M125.467 17.4985H130.795V31.3184H132.627V17.4985H137.955V16H125.467V17.4985Z" fill="white"/>
</svg>
