<svg id="Layer_1" data-name="Layer 1" xmlns="http://www.w3.org/2000/svg" xmlns:xlink="http://www.w3.org/1999/xlink" viewBox="0 0 340.52 78.48"><defs><linearGradient id="linear-gradient" x1="12.86" y1="64.48" x2="64.19" y2="13.15" gradientUnits="userSpaceOnUse"><stop offset="0" stop-color="#50b848"/><stop offset="1" stop-color="#d5e05c"/></linearGradient></defs><path d="M108.1,58A17,17,0,0,1,99,55.55a17.87,17.87,0,0,1-6.43-6.81,20.3,20.3,0,0,1-2.37-9.9A20.43,20.43,0,0,1,92.54,29a17.71,17.71,0,0,1,6.36-6.82,17.06,17.06,0,0,1,9.2-2.5,17.28,17.28,0,0,1,8.34,2,14.69,14.69,0,0,1,5.84,5.67V20.84h6.81V56.91h-6.81V50.15a16.87,16.87,0,0,1-6,5.81A16.35,16.35,0,0,1,108.1,58m1.82-5.89a12.36,12.36,0,0,0,6.52-1.7,12.13,12.13,0,0,0,4.44-4.71,14.28,14.28,0,0,0,1.61-6.87A14.34,14.34,0,0,0,120.88,32a12.18,12.18,0,0,0-4.44-4.7,13.23,13.23,0,0,0-13,0A12.2,12.2,0,0,0,99,32a14.12,14.12,0,0,0-1.63,6.87A14.16,14.16,0,0,0,99,45.73a12.19,12.19,0,0,0,4.48,4.72,12.33,12.33,0,0,0,6.49,1.7" fill="#222"/><polygon points="131.59 56.91 146.83 38.24 133.66 20.84 141.52 20.84 151.11 33.48 160.66 20.84 168.53 20.84 155.36 38.24 170.6 56.91 162.49 56.91 151.11 42.75 139.7 56.91 131.59 56.91" fill="#222"/><path d="M176.42,13.55a4.07,4.07,0,0,1-2.13-.59,4.43,4.43,0,0,1-1.54-1.56,4.16,4.16,0,0,1-.58-2.15,4,4,0,0,1,.58-2.15,4.42,4.42,0,0,1,1.54-1.53A4.07,4.07,0,0,1,176.42,5a4,4,0,0,1,2.14.59,4.48,4.48,0,0,1,1.53,1.53,4,4,0,0,1,.58,2.15,4.16,4.16,0,0,1-.58,2.15A4.48,4.48,0,0,1,178.56,13a4,4,0,0,1-2.14.59M173,20.84h6.81V56.91H173Z" fill="#222"/><path d="M202.88,58a17,17,0,0,1-9.08-2.49,17.94,17.94,0,0,1-6.43-6.81,20.3,20.3,0,0,1-2.36-9.9A20.42,20.42,0,0,1,187.32,29a17.78,17.78,0,0,1,6.36-6.82,17.09,17.09,0,0,1,9.2-2.5,17.28,17.28,0,0,1,8.34,2,14.69,14.69,0,0,1,5.84,5.67V20.84h6.81V56.91h-6.81V50.15A16.87,16.87,0,0,1,211,56,16.35,16.35,0,0,1,202.88,58m1.82-5.89a12.36,12.36,0,0,0,6.52-1.7,12.13,12.13,0,0,0,4.44-4.71,14.28,14.28,0,0,0,1.61-6.87A14.34,14.34,0,0,0,215.66,32a12.18,12.18,0,0,0-4.44-4.7,13.23,13.23,0,0,0-13,0,12.2,12.2,0,0,0-4.48,4.7,14.12,14.12,0,0,0-1.63,6.87,14.16,14.16,0,0,0,1.63,6.86,12.19,12.19,0,0,0,4.48,4.72,12.33,12.33,0,0,0,6.49,1.7" fill="#222"/><path d="M230.05,56.91V20.84h6.81v4.65a12.79,12.79,0,0,1,4.75-4.12,15.2,15.2,0,0,1,7.33-1.66,14.4,14.4,0,0,1,7.24,1.74,11.87,11.87,0,0,1,4.72,5,17.12,17.12,0,0,1,1.67,7.82V56.91h-6.81V35.67q0-5.07-2.43-7.79a8.64,8.64,0,0,0-6.81-2.71,10.42,10.42,0,0,0-5.18,1.22A8.62,8.62,0,0,0,238,29.63a8.76,8.76,0,0,0-1.16,4.42V56.91Z" fill="#222"/><path d="M287.49,58a20,20,0,0,1-7.64-1.45,19.44,19.44,0,0,1-6.27-4.05,19,19,0,0,1-4.23-6.09,18.66,18.66,0,0,1-1.52-7.58,19,19,0,0,1,1.47-7.48,18.74,18.74,0,0,1,4.14-6.1,19.49,19.49,0,0,1,6.25-4.1,20.09,20.09,0,0,1,7.76-1.48,21.71,21.71,0,0,1,6.74,1,16.85,16.85,0,0,1,5.41,2.8L297,28.17a15,15,0,0,0-15.8-.94,12.57,12.57,0,0,0-4.72,4.88,14.53,14.53,0,0,0,.05,13.62,12.6,12.6,0,0,0,4.79,4.82,13.84,13.84,0,0,0,7.08,1.78,15.06,15.06,0,0,0,4.7-.72,12.34,12.34,0,0,0,3.86-2l2.6,4.62A18.26,18.26,0,0,1,294.19,57a20.81,20.81,0,0,1-6.7,1.06" fill="#222"/><path d="M320.09,58A20.54,20.54,0,0,1,310,55.54a18.76,18.76,0,0,1-7.1-6.82,18.53,18.53,0,0,1-2.6-9.74A19.23,19.23,0,0,1,312,21.19a18.68,18.68,0,0,1,7.44-1.48A20.15,20.15,0,0,1,329.24,22a16.66,16.66,0,0,1,6.6,6.48,19.15,19.15,0,0,1,2.37,9.65,5,5,0,0,1,0,.74,6.94,6.94,0,0,1-.14.74H307.14a12.84,12.84,0,0,0,1.7,6.66,12,12,0,0,0,4.7,4.52A15.26,15.26,0,0,0,327,51a14.4,14.4,0,0,0,5.06-4.51l5,2.6a17.7,17.7,0,0,1-7,6.63,21.1,21.1,0,0,1-10,2.36m-12.6-23.43h23.87a10.77,10.77,0,0,0-2.16-4.88A11.49,11.49,0,0,0,325,26.46a12.82,12.82,0,0,0-5.53-1.18,13.83,13.83,0,0,0-5.71,1.14,10.64,10.64,0,0,0-6.3,8.19" fill="#222"/><path d="M20.44,38.81a18.07,18.07,0,0,1,31-12.74L64.13,38.81,51.38,51.58A18.07,18.07,0,0,1,20.44,38.81M51.3,1a1.72,1.72,0,0,0-1.22.51L38.52,13.13,27,1.53A1.68,1.68,0,0,0,25.75,1H25.7a1.72,1.72,0,0,0-1.22.51L1.36,24.73A1.73,1.73,0,0,0,.85,26V26a1.76,1.76,0,0,0,.51,1.22L12.92,38.81,1.36,50.41a1.76,1.76,0,0,0-.51,1.22v0a1.73,1.73,0,0,0,.51,1.22L24.48,76.1a1.72,1.72,0,0,0,1.22.51h.05A1.68,1.68,0,0,0,27,76.1L38.52,64.5,50.08,76.1a1.72,1.72,0,0,0,1.22.51h.05a1.72,1.72,0,0,0,1.22-.51L75.69,52.9a1.77,1.77,0,0,0,0-2.49L64.13,38.81,75.69,27.22a1.77,1.77,0,0,0,0-2.49L52.57,1.53A1.72,1.72,0,0,0,51.35,1Z" fill="url(#linear-gradient)"/></svg>