<svg xmlns="http://www.w3.org/2000/svg" xmlns:xlink="http://www.w3.org/1999/xlink" id="&#x421;&#x43B;&#x43E;&#x439;_1" x="0px" y="0px" width="1181px" height="512px" viewBox="0 0 1181 512" xml:space="preserve">
<g>
	<g>
		<rect x="2.118" y="-0.302" width="373.225" height="373.225"></rect>
		<path fill="#FFFFFF" d="M293.168,203.438c7.606,9.852,11.412,21.715,11.412,35.594c0,20.6-8.507,36.549-25.521,47.85    c-17.014,11.308-41.634,16.957-73.872,16.957H72.881V68.782h125.589c31.344,0,55.012,5.599,71.024,16.79    c15.999,11.198,24.009,26.082,24.009,44.662c0,10.971-2.747,20.82-8.23,29.551c-5.489,8.731-13.599,15.782-24.343,21.154    C274.805,186.09,285.549,193.589,293.168,203.438z M150.786,124.191v34.923h36.939c17.235,0,25.855-5.819,25.855-17.461    c0-11.639-8.62-17.461-25.855-17.461H150.786z M224.665,229.964c0-12.31-8.734-18.47-26.195-18.47h-47.683v36.939h47.683    C215.931,248.434,224.665,242.281,224.665,229.964z"></path>
	</g>
	<g>
		<rect x="404.731" y="-0.302" width="373.225" height="373.225"></rect>
		<path fill="#FFFFFF" d="M695.781,203.438c7.606,9.852,11.412,21.715,11.412,35.594c0,20.6-8.507,36.549-25.521,47.85    c-17.014,11.308-41.634,16.957-73.872,16.957H475.493V68.782h125.589c31.344,0,55.012,5.599,71.024,16.79    c15.999,11.198,24.009,26.082,24.009,44.662c0,10.971-2.747,20.82-8.23,29.551c-5.489,8.731-13.599,15.782-24.343,21.154    C677.418,186.09,688.162,193.589,695.781,203.438z M553.399,124.191v34.923h36.939c17.235,0,25.855-5.819,25.855-17.461    c0-11.639-8.62-17.461-25.855-17.461H553.399z M627.277,229.964c0-12.31-8.734-18.47-26.195-18.47h-47.683v36.939h47.683    C618.543,248.434,627.277,242.281,627.277,229.964z"></path>
	</g>
	<g>
		<rect x="807.343" y="-0.302" width="373.225" height="373.225"></rect>
		<path fill="#FFFFFF" d="M933.509,302.665c-18.47-4.367-33.637-10.243-45.497-17.628l25.521-57.756    c11.191,6.494,23.725,11.699,37.607,15.612c13.876,3.92,27.197,5.876,39.958,5.876c10.965,0,18.804-1.059,23.505-3.189    c4.701-2.124,7.051-5.315,7.051-9.569c0-4.921-3.075-8.617-9.232-11.081c-6.157-2.461-16.283-5.148-30.392-8.06    c-18.129-3.806-33.24-7.893-45.327-12.256c-12.093-4.367-22.616-11.529-31.57-21.491c-8.954-9.959-13.428-23.448-13.428-40.465    c0-14.774,4.14-28.205,12.427-40.295c8.274-12.089,20.65-21.602,37.103-28.543c16.453-6.935,36.435-10.41,59.94-10.41    c16.119,0,31.955,1.736,47.513,5.205c15.558,3.475,29.27,8.564,41.136,15.278l-23.839,57.422    c-23.063-11.639-44.892-17.461-65.485-17.461c-20.373,0-30.556,4.928-30.556,14.774c0,4.701,3.025,8.23,9.068,10.58    c6.043,2.35,15.999,4.868,29.888,7.555c17.903,3.356,33.014,7.218,45.327,11.582c12.313,4.367,23.007,11.475,32.068,21.324    c9.068,9.852,13.605,23.284,13.605,40.295c0,14.777-4.146,28.155-12.427,40.128c-8.286,11.979-20.65,21.491-37.103,28.543    c-16.459,7.051-36.435,10.577-59.94,10.577C970.952,309.212,951.978,307.028,933.509,302.665z"></path>
	</g>
	<g>
		<path d="M84.966,489.553c0,14.576-12.306,23.059-35.365,23.059H2.527v-83.634h44.684c23.059,0,33.812,9.2,33.812,21.864    c0,7.767-3.943,14.218-11.589,18.041C79.231,472.467,84.966,479.636,84.966,489.553z M30.246,448.691v12.426h13.142    c6.333,0,9.2-2.15,9.2-6.213s-2.867-6.213-9.2-6.213H30.246z M56.53,486.326c0-4.301-3.106-6.571-9.319-6.571H30.246v13.143    h16.965C53.424,492.897,56.53,490.628,56.53,486.326z"></path>
		<path d="M91.294,428.261c0-7.766,6.332-13.739,16.249-13.739s16.249,5.496,16.249,13.262c0,8.244-6.333,14.218-16.249,14.218    S91.294,436.027,91.294,428.261z M94.042,447.258h27.002v65.354H94.042V447.258z"></path>
		<path d="M205.272,423.96v88.651h-25.687v-5.376c-3.943,4.42-9.797,6.57-17.922,6.57c-17.085,0-31.542-12.903-31.542-33.931    c0-21.028,14.457-33.812,31.542-33.812c7.169,0,12.665,1.792,16.607,5.615V423.96H205.272z M178.749,479.875    c0-8.483-4.66-12.784-10.633-12.784c-5.974,0-10.634,4.301-10.634,12.784c0,8.482,4.66,12.903,10.634,12.903    C174.089,492.778,178.749,488.357,178.749,479.875z"></path>
		<path d="M216.618,467.927h35.843v20.312h-35.843V467.927z"></path>
		<path d="M347.084,489.553c0,14.576-12.306,23.059-35.365,23.059h-47.074v-83.634h44.684c23.059,0,33.812,9.2,33.812,21.864    c0,7.767-3.943,14.218-11.589,18.041C341.35,472.467,347.084,479.636,347.084,489.553z M292.364,448.691v12.426h13.142    c6.333,0,9.2-2.15,9.2-6.213s-2.867-6.213-9.2-6.213H292.364z M318.649,486.326c0-4.301-3.106-6.571-9.319-6.571h-16.965v13.143    h16.965C315.542,492.897,318.649,490.628,318.649,486.326z"></path>
		<path d="M402.996,446.063v23.895c-2.39-0.358-4.062-0.478-5.974-0.478c-8.124,0-13.859,3.704-13.859,14.098v29.033h-27.002    v-65.354h25.688v7.049C386.627,448.811,393.916,446.063,402.996,446.063z"></path>
		<path d="M406.578,479.875c0-19.833,15.891-33.812,37.994-33.812c22.223,0,37.994,13.979,37.994,33.812    s-15.771,33.931-37.994,33.931C422.469,513.806,406.578,499.708,406.578,479.875z M455.205,479.875    c0-8.483-4.66-12.784-10.633-12.784s-10.633,4.301-10.633,12.784c0,8.482,4.66,12.903,10.633,12.903    S455.205,488.357,455.205,479.875z"></path>
		<path d="M522.348,492.539l-4.301,4.66v15.412h-27.002V423.96h27.002v42.295l18.758-18.997h31.9l-27.002,28.315l29.152,37.038    h-32.617L522.348,492.539z"></path>
		<path d="M642.419,486.207h-45.4c1.911,5.018,6.451,7.646,13.142,7.646c5.975,0,9.319-1.553,13.621-4.779l14.098,14.218    c-6.332,6.93-15.532,10.514-28.555,10.514c-24.015,0-39.547-14.456-39.547-33.931c0-19.833,15.891-33.812,37.038-33.812    c19.354,0,35.962,11.708,35.962,33.812C642.777,481.786,642.539,484.296,642.419,486.207z M596.54,473.185h21.028    c-1.075-5.496-5.019-8.723-10.515-8.723C601.438,464.462,597.615,467.688,596.54,473.185z"></path>
		<path d="M698.093,446.063v23.895c-2.39-0.358-4.063-0.478-5.974-0.478c-8.125,0-13.859,3.704-13.859,14.098v29.033h-27.002    v-65.354h25.688v7.049C681.725,448.811,689.013,446.063,698.093,446.063z"></path>
		<path d="M703.944,467.927h35.844v20.312h-35.844V467.927z"></path>
		<path d="M745.521,505.921l9.081-20.55c7.885,4.659,18.399,7.646,27.599,7.646c8.005,0,10.872-1.673,10.872-4.54    c0-10.515-46.237-2.031-46.237-33.215c0-15.532,13.023-28.196,38.949-28.196c11.231,0,22.82,2.39,31.542,7.288l-8.482,20.431    c-8.244-4.182-16.01-6.213-23.298-6.213c-8.244,0-10.873,2.39-10.873,5.257c0,10.036,46.237,1.673,46.237,32.497    c0,15.293-13.022,28.197-38.949,28.197C767.983,514.523,753.886,511.059,745.521,505.921z"></path>
		<path d="M876.585,510.341c-4.182,2.39-10.275,3.465-16.607,3.465c-18.041,0-28.555-8.482-28.555-26.523v-16.727h-8.961v-19.714    h8.961v-18.279h27.001v18.279h13.382v19.714h-13.382v16.487c0,4.063,2.39,6.333,5.616,6.333c2.15,0,4.301-0.598,6.093-1.792    L876.585,510.341z"></path>
		<path d="M878.135,479.875c0-19.833,15.891-33.812,37.994-33.812c22.222,0,37.993,13.979,37.993,33.812    s-15.771,33.931-37.993,33.931C894.025,513.806,878.135,499.708,878.135,479.875z M926.762,479.875    c0-8.483-4.659-12.784-10.633-12.784c-5.975,0-10.634,4.301-10.634,12.784c0,8.482,4.659,12.903,10.634,12.903    C922.103,492.778,926.762,488.357,926.762,479.875z"></path>
		<path d="M959.136,479.875c0-19.833,16.01-33.812,38.591-33.812c15.891,0,27.838,7.288,32.14,19.354l-20.908,10.275    c-2.748-6.094-6.691-8.603-11.351-8.603c-6.094,0-11.111,4.301-11.111,12.784c0,8.603,5.018,12.903,11.111,12.903    c4.659,0,8.603-2.509,11.351-8.603l20.908,10.275c-4.302,12.066-16.249,19.354-32.14,19.354    C975.146,513.806,959.136,499.827,959.136,479.875z"></path>
		<path d="M1067.378,492.539l-4.301,4.66v15.412h-27.002V423.96h27.002v42.295l18.758-18.997h31.9l-27.002,28.315l29.152,37.038    h-32.617L1067.378,492.539z"></path>
		<path d="M1114.809,507.354l7.408-17.802c6.213,3.703,15.054,5.854,22.819,5.854c6.571,0,8.364-1.194,8.364-3.105    c0-6.691-37.636,2.27-37.636-23.896c0-12.307,11.47-22.342,33.454-22.342c9.558,0,19.713,1.792,26.643,5.376l-7.407,17.802    c-6.69-3.703-13.382-4.779-18.877-4.779c-6.93,0-8.842,1.554-8.842,3.106c0,6.811,37.516-2.03,37.516,24.135    c0,11.828-11.111,22.103-33.812,22.103C1133.208,513.806,1121.5,511.178,1114.809,507.354z"></path>
	</g>
</g>
<g display="none">
	<rect x="2.118" y="-1.413" display="inline" fill="#FFFFFF" width="373.225" height="373.225"></rect>
	<path display="inline" d="M293.168,202.327c7.606,9.852,11.412,21.715,11.412,35.594c0,20.6-8.507,36.549-25.521,47.85   c-17.014,11.308-41.634,16.957-73.872,16.957H72.881V67.671h125.589c31.344,0,55.012,5.599,71.024,16.79   c15.999,11.198,24.009,26.082,24.009,44.662c0,10.971-2.747,20.82-8.23,29.551c-5.489,8.731-13.599,15.782-24.343,21.154   C274.805,184.979,285.549,192.478,293.168,202.327z M150.786,123.08v34.923h36.939c17.235,0,25.855-5.819,25.855-17.461   c0-11.639-8.62-17.461-25.855-17.461H150.786z M224.665,228.853c0-12.31-8.734-18.47-26.195-18.47h-47.683v36.939h47.683   C215.931,247.323,224.665,241.17,224.665,228.853z"></path>
	<rect x="404.731" y="-1.413" display="inline" fill="#FFFFFF" width="373.225" height="373.225"></rect>
	<path display="inline" d="M695.781,202.327c7.606,9.852,11.412,21.715,11.412,35.594c0,20.6-8.507,36.549-25.521,47.85   c-17.014,11.308-41.634,16.957-73.872,16.957H475.493V67.671h125.589c31.344,0,55.012,5.599,71.024,16.79   c15.999,11.198,24.009,26.082,24.009,44.662c0,10.971-2.747,20.82-8.23,29.551c-5.489,8.731-13.599,15.782-24.343,21.154   C677.418,184.979,688.162,192.478,695.781,202.327z M553.399,123.08v34.923h36.939c17.235,0,25.855-5.819,25.855-17.461   c0-11.639-8.62-17.461-25.855-17.461H553.399z M627.277,228.853c0-12.31-8.734-18.47-26.195-18.47h-47.683v36.939h47.683   C618.543,247.323,627.277,241.17,627.277,228.853z"></path>
	<rect x="807.343" y="-1.413" display="inline" fill="#FFFFFF" width="373.225" height="373.225"></rect>
	<path display="inline" d="M933.509,301.554c-18.47-4.367-33.637-10.243-45.497-17.628l25.521-57.756   c11.191,6.494,23.725,11.699,37.607,15.612c13.876,3.92,27.197,5.876,39.958,5.876c10.965,0,18.804-1.059,23.505-3.189   c4.701-2.124,7.051-5.315,7.051-9.569c0-4.921-3.075-8.617-9.232-11.081c-6.157-2.461-16.283-5.148-30.392-8.06   c-18.129-3.806-33.24-7.893-45.327-12.256c-12.093-4.367-22.616-11.529-31.57-21.491c-8.954-9.959-13.428-23.448-13.428-40.465   c0-14.774,4.14-28.205,12.427-40.295c8.274-12.089,20.65-21.602,37.103-28.543c16.453-6.935,36.435-10.41,59.94-10.41   c16.119,0,31.955,1.736,47.513,5.205c15.558,3.475,29.27,8.564,41.136,15.278l-23.839,57.422   c-23.063-11.639-44.892-17.461-65.485-17.461c-20.373,0-30.556,4.928-30.556,14.774c0,4.701,3.025,8.23,9.068,10.58   c6.043,2.35,15.999,4.868,29.888,7.555c17.903,3.356,33.014,7.218,45.327,11.582c12.313,4.367,23.007,11.475,32.068,21.324   c9.068,9.852,13.605,23.284,13.605,40.295c0,14.777-4.146,28.155-12.427,40.128c-8.286,11.979-20.65,21.491-37.103,28.543   c-16.459,7.051-36.435,10.577-59.94,10.577C970.952,308.101,951.978,305.918,933.509,301.554z"></path>
	<path display="inline" fill="#FFFFFF" d="M84.966,488.442c0,14.576-12.306,23.059-35.365,23.059H2.527v-83.634h44.684   c23.059,0,33.812,9.2,33.812,21.864c0,7.767-3.943,14.218-11.589,18.041C79.231,471.356,84.966,478.525,84.966,488.442z    M30.246,447.581v12.426h13.142c6.333,0,9.2-2.15,9.2-6.213s-2.867-6.213-9.2-6.213H30.246z M56.53,485.215   c0-4.301-3.106-6.571-9.319-6.571H30.246v13.143h16.965C53.424,491.787,56.53,489.517,56.53,485.215z"></path>
	<path display="inline" fill="#FFFFFF" d="M91.294,427.15c0-7.766,6.332-13.739,16.249-13.739s16.249,5.496,16.249,13.262   c0,8.244-6.333,14.218-16.249,14.218S91.294,434.917,91.294,427.15z M94.042,446.147h27.002V511.5H94.042V446.147z"></path>
	<path display="inline" fill="#FFFFFF" d="M205.272,422.849V511.5h-25.687v-5.376c-3.943,4.42-9.797,6.57-17.922,6.57   c-17.085,0-31.542-12.903-31.542-33.931c0-21.028,14.457-33.812,31.542-33.812c7.169,0,12.665,1.792,16.607,5.615v-27.719H205.272z    M178.749,478.764c0-8.483-4.66-12.784-10.633-12.784c-5.974,0-10.634,4.301-10.634,12.784c0,8.482,4.66,12.903,10.634,12.903   C174.089,491.667,178.749,487.247,178.749,478.764z"></path>
	<path display="inline" fill="#FFFFFF" d="M216.618,466.816h35.843v20.312h-35.843V466.816z"></path>
	<path display="inline" fill="#FFFFFF" d="M347.084,488.442c0,14.576-12.306,23.059-35.365,23.059h-47.074v-83.634h44.684   c23.059,0,33.812,9.2,33.812,21.864c0,7.767-3.943,14.218-11.589,18.041C341.35,471.356,347.084,478.525,347.084,488.442z    M292.364,447.581v12.426h13.142c6.333,0,9.2-2.15,9.2-6.213s-2.867-6.213-9.2-6.213H292.364z M318.649,485.215   c0-4.301-3.106-6.571-9.319-6.571h-16.965v13.143h16.965C315.542,491.787,318.649,489.517,318.649,485.215z"></path>
	<path display="inline" fill="#FFFFFF" d="M402.996,444.953v23.895c-2.39-0.358-4.062-0.478-5.974-0.478   c-8.124,0-13.859,3.704-13.859,14.098V511.5h-27.002v-65.354h25.688v7.049C386.627,447.7,393.916,444.953,402.996,444.953z"></path>
	<path display="inline" fill="#FFFFFF" d="M406.578,478.764c0-19.833,15.891-33.812,37.994-33.812   c22.223,0,37.994,13.979,37.994,33.812s-15.771,33.931-37.994,33.931C422.469,512.695,406.578,498.597,406.578,478.764z    M455.205,478.764c0-8.483-4.66-12.784-10.633-12.784s-10.633,4.301-10.633,12.784c0,8.482,4.66,12.903,10.633,12.903   S455.205,487.247,455.205,478.764z"></path>
	<path display="inline" fill="#FFFFFF" d="M522.348,491.428l-4.301,4.66V511.5h-27.002v-88.651h27.002v42.295l18.758-18.997h31.9   l-27.002,28.315l29.152,37.038h-32.617L522.348,491.428z"></path>
	<path display="inline" fill="#FFFFFF" d="M642.419,485.096h-45.4c1.911,5.018,6.451,7.646,13.142,7.646   c5.975,0,9.319-1.553,13.621-4.779l14.098,14.218c-6.332,6.93-15.532,10.514-28.555,10.514c-24.015,0-39.547-14.456-39.547-33.931   c0-19.833,15.891-33.812,37.038-33.812c19.354,0,35.962,11.708,35.962,33.812C642.777,480.675,642.539,483.185,642.419,485.096z    M596.54,472.074h21.028c-1.075-5.496-5.019-8.723-10.515-8.723C601.438,463.351,597.615,466.578,596.54,472.074z"></path>
	<path display="inline" fill="#FFFFFF" d="M698.093,444.953v23.895c-2.39-0.358-4.063-0.478-5.974-0.478   c-8.125,0-13.859,3.704-13.859,14.098V511.5h-27.002v-65.354h25.688v7.049C681.725,447.7,689.013,444.953,698.093,444.953z"></path>
	<path display="inline" fill="#FFFFFF" d="M703.944,466.816h35.844v20.312h-35.844V466.816z"></path>
	<path display="inline" fill="#FFFFFF" d="M745.521,504.81l9.081-20.55c7.885,4.659,18.399,7.646,27.599,7.646   c8.005,0,10.872-1.673,10.872-4.54c0-10.515-46.237-2.031-46.237-33.215c0-15.532,13.023-28.196,38.949-28.196   c11.231,0,22.82,2.39,31.542,7.288l-8.482,20.431c-8.244-4.182-16.01-6.213-23.298-6.213c-8.244,0-10.873,2.39-10.873,5.257   c0,10.036,46.237,1.673,46.237,32.497c0,15.293-13.022,28.197-38.949,28.197C767.983,513.413,753.886,509.948,745.521,504.81z"></path>
	<path display="inline" fill="#FFFFFF" d="M876.585,509.23c-4.182,2.39-10.275,3.465-16.607,3.465   c-18.041,0-28.555-8.482-28.555-26.523v-16.727h-8.961v-19.714h8.961v-18.279h27.001v18.279h13.382v19.714h-13.382v16.487   c0,4.063,2.39,6.333,5.616,6.333c2.15,0,4.301-0.598,6.093-1.792L876.585,509.23z"></path>
	<path display="inline" fill="#FFFFFF" d="M878.135,478.167c0-19.833,15.891-33.812,37.994-33.812   c22.222,0,37.993,13.979,37.993,33.812s-15.771,33.931-37.993,33.931C894.025,512.098,878.135,498,878.135,478.167z    M926.762,478.167c0-8.483-4.659-12.784-10.633-12.784c-5.975,0-10.634,4.301-10.634,12.784c0,8.482,4.659,12.903,10.634,12.903   C922.103,491.07,926.762,486.649,926.762,478.167z"></path>
	<path display="inline" fill="#FFFFFF" d="M959.136,478.764c0-19.833,16.01-33.812,38.591-33.812   c15.891,0,27.838,7.288,32.14,19.354l-20.908,10.275c-2.748-6.094-6.691-8.603-11.351-8.603c-6.094,0-11.111,4.301-11.111,12.784   c0,8.603,5.018,12.903,11.111,12.903c4.659,0,8.603-2.509,11.351-8.603l20.908,10.275c-4.302,12.066-16.249,19.354-32.14,19.354   C975.146,512.695,959.136,498.716,959.136,478.764z"></path>
	<path display="inline" fill="#FFFFFF" d="M1067.378,491.428l-4.301,4.66V511.5h-27.002v-88.651h27.002v42.295l18.758-18.997h31.9   l-27.002,28.315l29.152,37.038h-32.617L1067.378,491.428z"></path>
	<path display="inline" fill="#FFFFFF" d="M1114.809,506.244l7.408-17.802c6.213,3.703,15.054,5.854,22.819,5.854   c6.571,0,8.364-1.194,8.364-3.105c0-6.691-37.636,2.27-37.636-23.896c0-12.307,11.47-22.342,33.454-22.342   c9.558,0,19.713,1.792,26.643,5.376l-7.407,17.802c-6.69-3.703-13.382-4.779-18.877-4.779c-6.93,0-8.842,1.554-8.842,3.106   c0,6.811,37.516-2.03,37.516,24.135c0,11.828-11.111,22.103-33.812,22.103C1133.208,512.695,1121.5,510.067,1114.809,506.244z"></path>
</g>
</svg>