<?xml version="1.0" encoding="utf-8"?>
<!-- Generator: Adobe Illustrator 22.0.1, SVG Export Plug-In . SVG Version: 6.00 Build 0)  -->
<svg version="1.1" id="Layer_1" xmlns="http://www.w3.org/2000/svg" xmlns:xlink="http://www.w3.org/1999/xlink" x="0px" y="0px"
	 viewBox="0 0 132.4 50" style="enable-background:new 0 0 132.4 50;" xml:space="preserve">
<style type="text/css">
	.st0{fill:#FFFFFF;}
	.st1{fill:#00889E;}
</style>
<g>
	<path class="st0" d="M47.9,3.7c-0.3-1.8-1.5-2.9-2-3.3c0.2,0.4,0.6,1.3,0.6,2.5c0,1.8-1.1,3.9-2.6,4.8c-1.3,0.8-2.8,0.7-4.2,0.4
		c-2.4-0.5-4.9-1.3-7.3-1.7c-0.3-0.1-0.7-0.1-1-0.1c-1.2-0.1-2.3-0.2-3.5-0.1c-0.1,0-0.1,0-0.2,0c0.5-0.2,1-0.3,1.5-0.3
		c0.9-0.1,1.6,0,2.3,0.1c0.2,0,0.4,0.1,0.6,0.1c0.1,0,0.1,0,0.2,0c0.1,0,0.1,0,0.2,0c0.1,0,0.3-0.1,0.4-0.2c1.4-0.6,1.9-2.1,2.1-2.6
		c0.4-1,0.4-2.3,0.2-3.4c0.2,1.5-0.6,3.1-1.9,4c-1.6,1.1-3.2,0.5-6,1.2c-0.3,0.1-0.6,0.2-0.9,0.3c-1.6,0.5-2.9,1.3-3.8,2
		C23,7.6,23.5,8,24,8.4c1.2,1,2,1.9,2,2c-0.1,0-1-1.1-2.6-2.2c-1.2-0.8-2.3-1.3-2.9-1.6c-0.4-0.2-0.7-0.3-1-0.4
		c0.1,0.3,0.2,0.8,0.3,1.4c0.2,0.7,0.3,1.1,0.4,1.4c0.3,0.9,0.8,1.6,1.4,2.3c0.5,0.5,1.1,1,1.7,1.4l1.6,0.7
		c-0.8-0.2-2.4-0.7-3.7-2.1c-0.7-0.7-1.1-1.4-1.3-1.9c-4.2,1.1-9.3,3.1-14.3,6.4c2.9,6.3,8,14.4,16.9,20.5c1.3,0.9,2.6,1.7,3.9,2.4
		c0-2.5-0.4-4.4-0.8-5.7c-0.3-1-0.8-2.5-0.6-4.5c0.1-0.5,0.2-1,0.3-1.4c0,0,0,0,0-0.1c-1.4-1.8-1.7-4.4-0.7-6.4
		c-0.5,1.8-0.1,3.9,1.2,5.3c0.8,0.9,1.8,1.6,2.6,2.6c0.2,0.2,0.3,0.5,0.4,0.7c0.1,0.2,0.2,0.4,0.3,0.6c0.4,0.8,0.9,1.2,1.9,1.1
		c0.7-0.1,1.3,0,2,0c1,0,1.9-0.2,2.7-0.7c0,0,0.1-0.1,0.1-0.2c0-0.1,0.1-0.1,0.1-0.2c0-0.2-0.1-0.3-0.3-0.5
		c-0.2-0.3-0.4-0.6-0.3-0.9c0.1-0.3,0.4-0.6,0.7-0.5c0.3,0.1,0.4,0.4,0.4,0.7c0,0.2,0,0.5,0.1,0.8c0-0.1,0.1-0.1,0.2-0.2
		c0.3-0.4,0.5-0.6,0.6-0.9c0-0.1,0.1-0.4,0.1-0.8c-0.1-0.6-0.6-1-0.8-1.2c-1-0.9-1.3-2.5-1.6-3.8c0,0-0.3-1.4-0.1-3.1
		c0.2-0.5,0.3-1,0.3-1.4c0.2-1.7,0-3.4-0.7-4.9c-0.2-0.4-0.4-0.9-0.7-1.3c0.2,0,0.5,0.1,0.8,0.1c3.3,0.5,6.8,1.4,9.7-0.7
		c0.7-0.5,1.3-1.2,1.8-1.9C47.4,7.6,48.3,5.6,47.9,3.7z M32,19.3c-1.2-0.6-1.8-1.8-1.5-2.7c0.2-0.7,0.7-1.1,0.9-1.2
		c0.1,0.3,0.2,0.6,0.3,0.9C32,17.4,32,18.5,32,19.3z"/>
	<g>
		<path class="st1" d="M43.3,17.3h5.8c1.5,0,2.7,0.3,3.5,1c0.9,0.7,1.3,1.5,1.3,2.6v0.8c0,0.8-0.1,1.4-0.4,1.9
			c-0.3,0.5-0.8,0.8-1.6,1.1v0.1c0.9,0.2,1.6,0.7,2.1,1.3c0.4,0.6,0.7,1.4,0.7,2.3v1.4c0,1.2-0.4,2.2-1.3,2.9s-2,1.1-3.5,1.1H47
			c-1.3,0-2.2-0.4-2.8-1.1s-0.9-1.6-0.9-2.8V17.3z M47.2,24.1h1.2c0.5,0,0.9-0.2,1.2-0.6c0.3-0.4,0.4-0.9,0.4-1.4v-0.9
			c0-0.5-0.1-1-0.4-1.3c-0.3-0.4-0.7-0.5-1.2-0.5h-1.2V24.1z M50.7,28.2c0-0.8-0.2-1.4-0.6-1.8c-0.4-0.4-0.9-0.6-1.6-0.6h-1.4v3.9
			c0,0.7,0.1,1.2,0.4,1.6c0.3,0.4,0.7,0.5,1.3,0.5c0.7,0,1.1-0.2,1.4-0.5c0.3-0.4,0.4-0.9,0.4-1.6V28.2z"/>
		<path class="st1" d="M56.5,21.6h3.9v8.5c0,0.6,0.1,1.1,0.4,1.3c0.2,0.3,0.6,0.4,1,0.4c0.4,0,0.7-0.1,0.8-0.3v-10h3.9v12.2h-4.6
			c-2.1,0-3.5-0.4-4.2-1.1c-0.7-0.8-1.1-1.7-1.1-2.7V21.6z"/>
		<path class="st1" d="M68.7,30.2V17.3h3.9V30c0,0.5,0.1,0.8,0.4,1.1c0.2,0.2,0.6,0.4,1.2,0.4h1.5l-0.2,2.4h-3.1
			c-1.2,0-2.1-0.3-2.7-1C68.9,32.2,68.7,31.4,68.7,30.2z"/>
		<path class="st1" d="M77,30.2V17.3h3.9V30c0,0.5,0.1,0.8,0.4,1.1c0.2,0.2,0.6,0.4,1.2,0.4h1.5l-0.2,2.4h-3.1c-1.2,0-2.1-0.3-2.7-1
			C77.3,32.2,77,31.4,77,30.2z"/>
		<path class="st0" d="M92.4,28h3.9v2.4c0,1-0.3,1.9-0.9,2.5c-0.6,0.6-1.5,1-2.7,1h-3.7c-1.2,0-2.1-0.3-2.7-1
			c-0.6-0.6-0.9-1.5-0.9-2.5v-9.5c0-1,0.3-1.9,0.9-2.5c0.6-0.6,1.5-1,2.7-1h3.7c1.2,0,2.1,0.3,2.7,1c0.6,0.6,0.9,1.5,0.9,2.5v1.9
			h-3.9v-1.6c0-0.5-0.1-1-0.4-1.3c-0.3-0.4-0.7-0.5-1.2-0.5c-0.5,0-0.9,0.2-1.2,0.5c-0.3,0.4-0.4,0.8-0.4,1.3v8.7
			c0,0.5,0.1,1,0.4,1.4c0.3,0.4,0.7,0.6,1.2,0.6c0.5,0,0.9-0.2,1.2-0.6c0.3-0.4,0.4-0.9,0.4-1.4V28z"/>
		<path class="st0" d="M102.4,27.2v6.6h-3.9V20.7c0-1.1,0.2-2,0.7-2.5c0.5-0.6,1.3-0.8,2.3-0.8h5.9v2.3h-3.9c-0.4,0-0.7,0.1-0.9,0.4
			c-0.2,0.2-0.3,0.6-0.3,1.1v4.1h4.4v2.1H102.4z"/>
		<path class="st0" d="M116.6,17.3c1.2,0,2.1,0.3,2.7,1c0.6,0.6,0.9,1.5,0.9,2.5v9.5c0,1-0.3,1.9-0.9,2.5c-0.6,0.6-1.5,1-2.7,1h-7.3
			V17.3H116.6z M116.3,29.9v-8.7c0-0.5-0.1-1-0.4-1.3c-0.3-0.4-0.7-0.5-1.2-0.5h-1.6v12.6h1.6c0.5,0,0.9-0.2,1.2-0.6
			C116.1,30.9,116.3,30.4,116.3,29.9z"/>
		<path class="st0" d="M122.4,24.7c0-0.9,0.3-1.6,0.9-2.2c0.6-0.6,1.5-0.9,2.7-0.9h2.8c1.2,0,2.1,0.3,2.7,1c0.6,0.6,0.9,1.5,0.9,2.5
			v0.7h-3.9V25c0-0.5-0.1-0.8-0.3-1.1c-0.2-0.2-0.5-0.4-0.8-0.4c-0.3,0-0.6,0.1-0.8,0.4c-0.2,0.2-0.3,0.6-0.3,1.1
			c0,0.8,0.4,1.3,1.3,1.6l1.7,0.5c2,0.6,3,1.8,3,3.4c0,1-0.3,1.8-0.9,2.4c-0.6,0.6-1.5,1-2.7,1H126c-1.2,0-2.1-0.3-2.7-1
			c-0.6-0.6-0.9-1.5-0.9-2.5v-0.7h3.9v0.7c0,0.5,0.1,0.8,0.3,1.1s0.5,0.4,0.8,0.4c0.3,0,0.6-0.1,0.8-0.4c0.2-0.3,0.3-0.6,0.3-1.1
			c0-0.9-0.4-1.5-1.3-1.8l-1.7-0.5C123.4,27.4,122.4,26.3,122.4,24.7z"/>
	</g>
	<path class="st1" d="M1.1,6.7C2.7,18.9,9.7,27,11.8,29.3c1.2,1.4,4.4,4.8,9.3,8c6,3.9,11.2,5.4,12.3,5.7c5.4,1.5,10.2,1.6,13.6,1.3
		c-2.7,0.6-6.8,1.2-11.6,1c-3.5-0.2-10.9-0.6-18.6-5.3c-6.7-4-10.2-9.1-11-10.3c-4.7-7-5.4-13.9-5.7-17C-0.3,8,0.3,4.1,0.8,1.4
		C0.8,2.6,0.9,4.5,1.1,6.7z"/>
	<path class="st1" d="M58.5,42.1c-2.3,1.6-5.8,3.7-10.4,5.3c-3.3,1.2-10.3,3.6-19.2,2.2C21.2,48.4,16,45,14.8,44.2
		C8.1,39.7,4.7,33.8,3.2,30.7c-1.6-3.4-2.4-6.5-2.8-8.7c0.8,2.7,2.1,5.6,4.1,8.7c1.6,2.4,5.5,6.9,11,10.3c11.8,7.3,25.6,5.8,30,5.1
		C51.1,45.1,55.6,43.4,58.5,42.1z"/>
</g>
</svg>
