<svg xmlns="http://www.w3.org/2000/svg" xmlns:xlink="http://www.w3.org/1999/xlink" version="1.1" id="Layer_1" x="0px" y="0px" style="enable-background:new 0 0 2000 2000;" xml:space="preserve" viewBox="309 778.58 1382 442.84">
<style type="text/css">
	.st0{display:none;fill:#FFFFFF;}
	.st1{fill:#04043A;}
	.st2{fill:#00145B;}
	.st3{fill:#051244;}
	.st4{fill:#1D56AB;}
	.st5{fill:#1D56AB;}
	.st6{fill:#1D56AB;}
	.st7{fill:#1D56AB;}
	.st8{fill:#1D56AB;}
	.st9{fill:#1D56AB;}
	.st10{fill:#1D56AB;}
	.st11{fill:#1D56AB;}
	.st12{fill:#1D56AB;}
	.st13{fill:#1D56AB;}
	.st14{fill:#1D56AB;}
	.st15{fill:#1D56AB;}
	.st16{fill:#1D56AB;}
	.st17{fill:#FFFFFF;}
	.st18{fill:#248DFF;}
	.st19{fill:#01AFF1;}
	.st20{fill:#FF081A;}
	.st21{fill:#42EA1F;}
	.st22{opacity:0.2;fill:#051244;}
	.st23{opacity:0.2;fill:#FFFFFF;}
</style>
<rect class="st0" width="2000" height="2000"/>
<g>
	<g>
		<g>
			<linearGradient id="SVGID_1_" gradientUnits="userSpaceOnUse" x1="384.7051" y1="1024.3743" x2="1674.994" y2="1024.3743">
				<stop offset="0" style="stop-color:#248DFF"/>
				<stop offset="1" style="stop-color:#081553"/>
			</linearGradient>
			<path class="st4" d="M480.72,1126.25c-24.99,12.28-48.29,18.41-69.93,18.41c-34.32,0-61.24-12.06-80.73-36.2     c-19.5-24.13-25.46-53.25-17.88-87.37c7.25-32.66,26.55-60.53,57.89-83.62c30.11-22.26,61.71-33.39,94.78-33.39     c13.31,0,24.29,1.15,32.94,3.43c7.86,2.08,17.44,6.24,28.74,12.48l-29.43,27.15c-6.47-4.57-20.63-6.86-42.47-6.86     s-43.03,8.06-63.56,24.18c-20.54,16.12-33.23,35.1-38.08,56.95c-5.22,23.51-1.59,43.68,10.89,60.53     c12.48,16.85,30.37,25.27,53.67,25.27c19.97,0,35.58-4.26,46.84-12.79L480.72,1126.25z"/>
			<linearGradient id="SVGID_2_" gradientUnits="userSpaceOnUse" x1="384.7051" y1="1068.1779" x2="1674.994" y2="1068.1779">
				<stop offset="0" style="stop-color:#248DFF"/>
				<stop offset="1" style="stop-color:#081553"/>
			</linearGradient>
			<path class="st5" d="M654.66,1139.67h-39.63l2.56-11.55c-14.06,10.82-29.5,16.23-46.35,16.23c-21.64,0-37.83-7.38-48.59-22.16     c-10.76-14.77-13.71-33.07-8.86-54.92c4.76-21.42,15.8-39.31,33.13-53.67c17.33-14.36,36.71-21.53,58.14-21.53     c26.18-0.83,43.62,5.41,52.32,18.72l29.3-15.29L654.66,1139.67z M632.18,1066.65c2.63-11.86,1.22-21.63-4.25-29.33     c-5.47-7.69-14.03-11.55-25.67-11.55c-11.44,0-21.76,4.06-30.94,12.17c-9.19,8.11-15.05,17.89-17.59,29.33     c-2.45,11.03-1.19,20.8,3.78,29.33c5.25,9.15,13.28,13.73,24.1,13.73c12.48,0,23.33-4.1,32.54-12.32     C623.35,1089.8,629.36,1079.34,632.18,1066.65z"/>
			<linearGradient id="SVGID_3_" gradientUnits="userSpaceOnUse" x1="384.7051" y1="1106.75" x2="1674.994" y2="1106.75">
				<stop offset="0" style="stop-color:#248DFF"/>
				<stop offset="1" style="stop-color:#081553"/>
			</linearGradient>
			<path class="st6" d="M850.91,1069.46c-4.76,21.43-15.17,39.74-31.23,54.92c-17.29,16.01-36.44,24.03-57.45,24.03     c-17.89,0-31.67-5.41-41.33-16.23l-19.82,89.24h-39.63l50.18-225.91l17.61,19.03c12.94-13.31,32.08-20.8,57.41-22.47     c27.46,0,46.37,7.6,56.72,22.78C853.25,1029.42,855.76,1047.62,850.91,1069.46z M811.91,1069.46     c2.73-12.27,1.29-22.47-4.29-30.58c-5.58-8.11-14.51-12.17-26.78-12.17c-11.44,0-21.53,4.21-30.27,12.64     c-8.74,8.43-14.4,18.46-16.99,30.11c-2.68,12.07-1.7,22.16,2.95,30.27c4.71,8.74,12.85,13.31,24.41,13.73     c0.87-0.21,4.3-0.62,10.26-1.25c4.41-0.21,9.15-1.87,14.21-4.99C799.33,1098.9,808.17,1086.31,811.91,1069.46z"/>
			<linearGradient id="SVGID_4_" gradientUnits="userSpaceOnUse" x1="384.7051" y1="1027.651" x2="1674.994" y2="1027.651">
				<stop offset="0" style="stop-color:#248DFF"/>
				<stop offset="1" style="stop-color:#081553"/>
			</linearGradient>
			<path class="st7" d="M906.53,1139.36H866.9l32.85-147.9h39.63L906.53,1139.36z M955.21,915.95l-9.15,41.19h-39.94l9.15-41.19     H955.21z"/>
			<linearGradient id="SVGID_5_" gradientUnits="userSpaceOnUse" x1="384.7051" y1="1040.2881" x2="1674.994" y2="1040.2881">
				<stop offset="0" style="stop-color:#248DFF"/>
				<stop offset="1" style="stop-color:#081553"/>
			</linearGradient>
			<path class="st8" d="M1048.14,1028.59h-27.15l-24.6,110.77h-39.63l24.6-110.77l-19.9-0.31l27.87-35.57l11.43-51.48h39.63     l-11.43,51.48h27.15L1048.14,1028.59z"/>
			<linearGradient id="SVGID_6_" gradientUnits="userSpaceOnUse" x1="384.7051" y1="1068.1779" x2="1674.994" y2="1068.1779">
				<stop offset="0" style="stop-color:#248DFF"/>
				<stop offset="1" style="stop-color:#081553"/>
			</linearGradient>
			<path class="st9" d="M1204.13,1139.67h-39.63l2.56-11.55c-14.06,10.82-29.5,16.23-46.35,16.23c-21.63,0-37.83-7.38-48.59-22.16     c-10.76-14.77-13.72-33.07-8.86-54.92c4.76-21.42,15.8-39.31,33.14-53.67c17.33-14.36,36.71-21.53,58.14-21.53     c26.18-0.83,43.62,5.41,52.32,18.72l29.3-15.29L1204.13,1139.67z M1181.65,1066.65c2.63-11.86,1.22-21.63-4.25-29.33     c-5.47-7.69-14.03-11.55-25.68-11.55c-11.44,0-21.76,4.06-30.94,12.17c-9.19,8.11-15.05,17.89-17.59,29.33     c-2.45,11.03-1.19,20.8,3.78,29.33c5.25,9.15,13.28,13.73,24.09,13.73c12.48,0,23.33-4.1,32.54-12.32     C1172.82,1089.8,1178.83,1079.34,1181.65,1066.65z"/>
			<linearGradient id="SVGID_7_" gradientUnits="userSpaceOnUse" x1="384.7051" y1="1024.5304" x2="1674.994" y2="1024.5304">
				<stop offset="0" style="stop-color:#248DFF"/>
				<stop offset="1" style="stop-color:#081553"/>
			</linearGradient>
			<path class="st10" d="M1269.72,1139.36h-39.63l51.01-229.65h38.69L1269.72,1139.36z"/>
			<linearGradient id="SVGID_8_" gradientUnits="userSpaceOnUse" x1="384.7051" y1="1040.2881" x2="1674.994" y2="1040.2881">
				<stop offset="0" style="stop-color:#248DFF"/>
				<stop offset="1" style="stop-color:#081553"/>
			</linearGradient>
			<path class="st11" d="M1483.72,1028.59h-27.15l-24.6,110.77h-39.63l24.6-110.77l-19.9-0.31l27.87-35.57l11.44-51.48h39.63     l-11.44,51.48h27.15L1483.72,1028.59z"/>
			<linearGradient id="SVGID_9_" gradientUnits="userSpaceOnUse" x1="384.7051" y1="1107.5289" x2="1674.994" y2="1107.5289">
				<stop offset="0" style="stop-color:#248DFF"/>
				<stop offset="1" style="stop-color:#081553"/>
			</linearGradient>
			<path class="st12" d="M1691,995.82l-153.21,223.41h-47.43l55.18-79.88l-30.52-143.53h46.49l19.53,96.1l64.72-96.1H1691z"/>
		</g>
		<g>
			<linearGradient id="SVGID_10_" gradientUnits="userSpaceOnUse" x1="384.7051" y1="879.4991" x2="1674.994" y2="879.4991">
				<stop offset="0" style="stop-color:#248DFF"/>
				<stop offset="1" style="stop-color:#081553"/>
			</linearGradient>
			<polygon class="st13" points="1376.38,951.25 1355.74,924.67 1465.4,839.51 1484.34,875.51 1571.32,807.75 1592.01,834.3      1473.3,926.77 1454.32,890.72    "/>
			<g>
				<linearGradient id="SVGID_11_" gradientUnits="userSpaceOnUse" x1="384.7051" y1="830.0984" x2="1674.994" y2="830.0984">
					<stop offset="0" style="stop-color:#248DFF"/>
					<stop offset="1" style="stop-color:#081553"/>
				</linearGradient>
				<path class="st14" d="M1636.14,778.58c-18.22,29.48-37.39,70.49-43.71,103.04l-17.92-55.03l-48.97-30.82      C1558.66,797.6,1603.1,789.05,1636.14,778.58z"/>
			</g>
		</g>
		<g>
			<linearGradient id="SVGID_12_" gradientUnits="userSpaceOnUse" x1="384.7051" y1="1065.406" x2="1674.994" y2="1065.406">
				<stop offset="0" style="stop-color:#248DFF"/>
				<stop offset="1" style="stop-color:#081553"/>
			</linearGradient>
			<polygon class="st15" points="1302.48,1139.36 1342.11,1139.36 1374.96,991.46 1335.33,991.46    "/>
			<linearGradient id="SVGID_13_" gradientUnits="userSpaceOnUse" x1="384.7051" y1="936.5386" x2="1674.994" y2="936.5386">
				<stop offset="0" style="stop-color:#248DFF"/>
				<stop offset="1" style="stop-color:#081553"/>
			</linearGradient>
			<polygon class="st16" points="1390.79,915.95 1366.97,915.95 1347.49,931.07 1341.71,957.13 1368.81,957.13 1384.32,945.08         "/>
		</g>
	</g>
</g>
</svg>
