<?xml version="1.0" encoding="utf-8"?>
<!-- Generator: Adobe Illustrator 22.0.1, SVG Export Plug-In . SVG Version: 6.00 Build 0)  -->
<svg version="1.1" id="Layer_1" xmlns="http://www.w3.org/2000/svg" xmlns:xlink="http://www.w3.org/1999/xlink" x="0px" y="0px"
	 viewBox="0 0 535.5 164.1" style="enable-background:new 0 0 535.5 164.1;" xml:space="preserve">
<style type="text/css">
	.st0{fill:url(#SVGID_1_);}
	.st1{fill:url(#SVGID_2_);}
	.st2{fill:url(#SVGID_3_);}
	.st3{fill:url(#SVGID_4_);}
</style>
<g>
	<g>
		<g>
			<linearGradient id="SVGID_1_" gradientUnits="userSpaceOnUse" x1="-129.3509" y1="56.0845" x2="137.869" y2="56.0845">
				<stop  offset="0" style="stop-color:#2A83F6"/>
				<stop  offset="1" style="stop-color:#34B3FA"/>
			</linearGradient>
			<path class="st0" d="M134.2,79.6c-1.1,2.4-2.5,4.7-4.2,6.7c-5.8,7-14.7,11.3-24,11.2c-0.1,0-0.2,0-0.3,0
				c-2.3-0.1-11.9-0.6-19.5-7.7c-1.5-1.4-3.6-3.7-5.5-7.2c0.4-0.3,0.8-0.5,1.2-0.9c0.7-0.5,1.4-1.1,2.1-1.9c1.1-1.2,2-2.5,2.7-3.8
				c0-0.1,0.1-0.2,0.2-0.3c0.1-0.2,0.2-0.4,0.3-0.6c0,0,0,0,0-0.1c1.2-2.5,1.6-4.9,1.8-6.3c0.1-2.9-0.2-10-5-16
				c-6.2-7.8-16.1-8.4-22-8.8c-9.9-0.7-18.2,2.1-24.2,5.1l0,0c-0.1,0.1-0.2,0.1-0.3,0.2c-0.8,0.4-1.5,0.7-2.3,1.1
				c-4.3,2.3-8,5.3-11.3,8.9c-2.9,3.3-5.3,6.9-7.3,10.8c-0.3,0.6-0.6,1.2-0.9,1.8c0,0,0,0.1-0.1,0.1c-0.2,0.4-0.3,0.7-0.5,1.1
				c0,0.1-0.1,0.2-0.1,0.3c-0.2,0.4-0.4,0.9-0.5,1.3c0,0.1-0.1,0.1-0.1,0.2c-0.2,0.4-0.3,0.8-0.5,1.2c0,0.1-0.1,0.1-0.1,0.2
				c-0.1,0.3-0.2,0.7-0.4,1c-0.2,0.6-0.4,1.3-0.6,1.9c-0.1,0.5-0.3,1-0.4,1.4c-0.1,0.5-0.3,1-0.4,1.5c0,0,0,0,0,0
				c-0.1,0.5-0.3,1-0.4,1.5c0,0,0,0,0,0c0,0,0,0,0,0.1c-0.1,0.5-0.2,1-0.3,1.5c0,0,0,0.1,0,0.1c-0.1,0.5-0.2,0.9-0.3,1.4
				c-0.1,0.5-0.2,1-0.3,1.5c0,0.1,0,0.1,0,0.2c-0.1,0.4-0.1,0.9-0.2,1.3c0,0.1,0,0.2,0,0.3c-0.1,0.5-0.1,0.9-0.2,1.4
				c-0.1,0.5-0.1,1-0.2,1.5c-0.1,0.7-0.1,1.3-0.2,2c0,0.3-0.1,0.7-0.1,1.1c0,0.1,0,0.2,0,0.3c0,0,0,0.1,0,0.1
				c-0.2,3.2-0.2,6.1-0.1,8.6c-1.8-4.3-3.9-10.7-5-18.7c-2.6-21.1,4.8-37.1,6.6-40.7C18.6,31.2,31,19.4,45.9,12.9
				c22.7-9.9,51.9-7.2,71.6,8.3c9.7,7.7,14.7,17.2,14.7,17.2c0.2,0.3,0.3,0.6,0.5,1c3.3,6.6,5.1,14.2,5.2,21.8
				C137.9,67.5,136.8,73.9,134.2,79.6z"/>
			<linearGradient id="SVGID_2_" gradientUnits="userSpaceOnUse" x1="25.499" y1="45.2622" x2="120.7332" y2="113.8483">
				<stop  offset="0" style="stop-color:#2A83F6"/>
				<stop  offset="1" style="stop-color:#34B3FA"/>
			</linearGradient>
			<path class="st1" d="M130,86.3c-5.8,7-14.7,11.3-24,11.2C95,96.8,87.9,90,84.6,85.8c-0.2-0.3-0.5-0.6-0.5-0.6
				c-0.9-1.3-1.6-2.4-2.2-3.4c0.7-0.5,1.4-1.1,2.1-1.9c1.1-1.2,2-2.5,2.7-3.8c0-0.1,0.1-0.2,0.2-0.3c0.1-0.2,0.2-0.4,0.3-0.6
				c0,0,0,0,0-0.1c0.6-1.5,1-3.1,1.1-4.7c0.4-5.1-2.1-11.1-6.1-15.7c-1.4-1.6-2.9-3.1-4.6-4.3c-3.8-2.7-8.2-4.3-12.8-5
				c-5.3-0.8-10.8-0.6-16,0.3c-3.9,0.7-7.8,1.9-11.4,3.6c-0.8,0.4-1.5,0.7-2.3,1.1c-4.3,2.3-8,5.3-11.3,8.9
				c-2.9,3.3-5.3,6.9-7.3,10.8c-0.3,0.6-0.6,1.2-0.9,1.8c0,0,0,0.1-0.1,0.1c-0.2,0.4-0.3,0.7-0.5,1.1c0,0.1-0.1,0.2-0.1,0.3
				c-0.2,0.4-0.4,0.9-0.5,1.3c0,0.1-0.1,0.1-0.1,0.2c-0.2,0.4-0.3,0.8-0.5,1.2c0,0.1-0.1,0.1-0.1,0.2c-0.1,0.3-0.2,0.7-0.4,1
				c-0.2,0.6-0.4,1.3-0.6,1.9c-0.1,0.5-0.3,1-0.4,1.4c-0.1,0.5-0.3,1-0.4,1.5c0,0,0,0,0,0c-0.1,0.5-0.3,1-0.4,1.5c0,0,0,0,0,0
				c0,0,0,0,0,0.1c-0.1,0.5-0.2,1-0.3,1.5c0,0,0,0.1,0,0.1c-0.1,0.5-0.2,0.9-0.3,1.4c-0.1,0.5-0.2,1-0.3,1.5c0,0.1,0,0.1,0,0.2
				c-0.1,0.4-0.1,0.9-0.2,1.3c0,0.1,0,0.2,0,0.3c-0.1,0.5-0.1,0.9-0.2,1.4c-0.1,0.5-0.1,1-0.2,1.5c-0.1,0.7-0.1,1.3-0.2,2
				c0,0.3-0.1,0.7-0.1,1.1c0,0.1,0,0.2,0,0.3c0,0,0,0.1,0,0.1c-0.1-0.5-0.1-1.2-0.2-2c-0.2-1.8-0.2-3.3-0.2-4.4c0,0,0.1-2.5,0.3-5
				C12.2,62.4,25.6,41.6,47.3,33c21.3-8.4,46.9-3.5,63.9,11.8c2.2,2,4.3,4.2,6.1,6.6c5.2,6.7,9.1,14.4,11.5,22.4
				C129.7,78.2,130.1,82.4,130,86.3z"/>
			
				<linearGradient id="SVGID_3_" gradientUnits="userSpaceOnUse" x1="-5599.2007" y1="6953.0781" x2="-5331.981" y2="6953.0781" gradientTransform="matrix(-1 0 0 -1 -5312.6807 7062.5137)">
				<stop  offset="0" style="stop-color:#2A83F6"/>
				<stop  offset="1" style="stop-color:#34B3FA"/>
			</linearGradient>
			<path class="st2" d="M22.9,86c1.1-2.4,2.5-4.7,4.2-6.7c5.8-7,14.7-11.3,24-11.2c0.1,0,0.2,0,0.3,0c2.3,0.1,11.9,0.6,19.5,7.7
				c1.5,1.4,3.6,3.7,5.5,7.2c-0.4,0.3-0.8,0.5-1.2,0.9c-0.7,0.5-1.4,1.1-2.1,1.9c-1.1,1.2-2,2.5-2.7,3.8c0,0.1-0.1,0.2-0.2,0.3
				c-0.1,0.2-0.2,0.4-0.3,0.6c0,0,0,0,0,0.1c-1.2,2.5-1.6,4.9-1.8,6.3c-0.1,2.9,0.2,10,5,16c6.2,7.8,16.1,8.4,22,8.8
				c9.9,0.7,18.2-2.1,24.2-5.1l0,0c0.1-0.1,0.2-0.1,0.3-0.2c0.8-0.4,1.5-0.7,2.3-1.1c4.3-2.3,8-5.3,11.3-8.9
				c2.9-3.3,5.3-6.9,7.3-10.8c0.3-0.6,0.6-1.2,0.9-1.8c0,0,0-0.1,0.1-0.1c0.2-0.4,0.3-0.7,0.5-1.1c0-0.1,0.1-0.2,0.1-0.3
				c0.2-0.4,0.4-0.9,0.5-1.3c0-0.1,0.1-0.1,0.1-0.2c0.2-0.4,0.3-0.8,0.5-1.2c0-0.1,0.1-0.1,0.1-0.2c0.1-0.3,0.2-0.7,0.4-1
				c0.2-0.6,0.4-1.3,0.6-1.9c0.1-0.5,0.3-1,0.4-1.4c0.1-0.5,0.3-1,0.4-1.5c0,0,0,0,0,0c0.1-0.5,0.3-1,0.4-1.5c0,0,0,0,0,0
				c0,0,0,0,0-0.1c0.1-0.5,0.2-1,0.3-1.5c0,0,0-0.1,0-0.1c0.1-0.5,0.2-0.9,0.3-1.4c0.1-0.5,0.2-1,0.3-1.5c0-0.1,0-0.1,0-0.2
				c0.1-0.4,0.1-0.9,0.2-1.3c0-0.1,0-0.2,0-0.3c0.1-0.5,0.1-0.9,0.2-1.4c0.1-0.5,0.1-1,0.2-1.5c0.1-0.7,0.1-1.3,0.2-2
				c0-0.3,0.1-0.7,0.1-1.1c0-0.1,0-0.2,0-0.3c0,0,0-0.1,0-0.1c0.2-3.2,0.2-6.1,0.1-8.6c1.8,4.3,3.9,10.7,5,18.7
				c2.6,21.1-4.8,37.1-6.6,40.7c-7.1,14.6-19.6,26.4-34.5,32.9c-22.7,9.9-51.9,7.2-71.6-8.3C30,136.7,25,127.1,25,127.1
				c-0.2-0.3-0.3-0.6-0.5-1c-3.3-6.6-5.1-14.2-5.2-21.8C19.2,98,20.4,91.6,22.9,86z"/>
			
				<linearGradient id="SVGID_4_" gradientUnits="userSpaceOnUse" x1="-5444.3511" y1="6942.2559" x2="-5349.1167" y2="7010.8418" gradientTransform="matrix(-1 0 0 -1 -5312.6807 7062.5137)">
				<stop  offset="0" style="stop-color:#2A83F6"/>
				<stop  offset="1" style="stop-color:#34B3FA"/>
			</linearGradient>
			<path class="st3" d="M27.2,79.2c5.8-7,14.7-11.3,24-11.2c11,0.6,18.1,7.5,21.5,11.7c0.2,0.3,0.5,0.6,0.5,0.6
				c0.9,1.3,1.6,2.4,2.2,3.4c-0.7,0.5-1.4,1.1-2.1,1.9c-1.1,1.2-2,2.5-2.7,3.8c0,0.1-0.1,0.2-0.2,0.3c-0.1,0.2-0.2,0.4-0.3,0.6
				c0,0,0,0,0,0.1c-0.6,1.5-1,3.1-1.1,4.7c-0.4,5.1,2.1,11.1,6.1,15.7c1.4,1.6,2.9,3.1,4.6,4.3c3.8,2.7,8.2,4.3,12.8,5
				c5.3,0.8,10.8,0.6,16-0.3c3.9-0.7,7.8-1.9,11.4-3.6c0.8-0.4,1.5-0.7,2.3-1.1c4.3-2.3,8-5.3,11.3-8.9c2.9-3.3,5.3-6.9,7.3-10.8
				c0.3-0.6,0.6-1.2,0.9-1.8c0,0,0-0.1,0.1-0.1c0.2-0.4,0.3-0.7,0.5-1.1c0-0.1,0.1-0.2,0.1-0.3c0.2-0.4,0.4-0.9,0.5-1.3
				c0-0.1,0.1-0.1,0.1-0.2c0.2-0.4,0.3-0.8,0.5-1.2c0-0.1,0.1-0.1,0.1-0.2c0.1-0.3,0.2-0.7,0.4-1c0.2-0.6,0.4-1.3,0.6-1.9
				c0.1-0.5,0.3-1,0.4-1.4c0.1-0.5,0.3-1,0.4-1.5c0,0,0,0,0,0c0.1-0.5,0.3-1,0.4-1.5c0,0,0,0,0,0c0,0,0,0,0-0.1
				c0.1-0.5,0.2-1,0.3-1.5c0,0,0-0.1,0-0.1c0.1-0.5,0.2-0.9,0.3-1.4c0.1-0.5,0.2-1,0.3-1.5c0-0.1,0-0.1,0-0.2
				c0.1-0.4,0.1-0.9,0.2-1.3c0-0.1,0-0.2,0-0.3c0.1-0.5,0.1-0.9,0.2-1.4c0.1-0.5,0.1-1,0.2-1.5c0.1-0.7,0.1-1.3,0.2-2
				c0-0.3,0.1-0.7,0.1-1.1c0-0.1,0-0.2,0-0.3c0,0,0-0.1,0-0.1c0.1,0.5,0.1,1.2,0.2,2c0.2,1.8,0.2,3.3,0.2,4.4c0,0-0.1,2.5-0.3,5
				c-2.3,22.8-15.8,43.6-37.5,52.2C88.6,141,63,136.1,46,120.7c-2.2-2-4.3-4.2-6.1-6.6c-5.2-6.7-9.1-14.4-11.5-22.4
				C27.5,87.3,27,83.1,27.2,79.2z"/>
		</g>
	</g>
	<g>
		<path d="M209.3,46.9c3.3,0,6.2,0.3,8.7,0.8c2.5,0.6,4.5,1.3,6.2,2.3c1.6,1,2.9,2.1,3.7,3.5c0.8,1.3,1.2,2.8,1.2,4.3
			c0,1.1-0.2,2-0.6,2.8c-0.4,0.8-1,1.6-1.8,2.1c-0.8,0.6-1.7,1-2.7,1.4c-1,0.3-2.2,0.5-3.4,0.5c0-1.5-0.2-3-0.6-4.5
			c-0.4-1.5-1.1-2.8-2-4c-0.9-1.2-2.1-2.2-3.5-2.9c-1.4-0.7-3.2-1.1-5.4-1.1c-3.7,0-6.8,0.7-9.4,2c-2.6,1.4-4.7,3.3-6.3,5.9
			c-1.6,2.6-2.8,5.8-3.5,9.6c-0.7,3.8-1.1,8.2-1.1,13.1c0,4.4,0.4,8.4,1.1,12c0.8,3.6,2,6.7,3.6,9.3c1.7,2.6,3.8,4.6,6.3,6
			c2.6,1.4,5.6,2.1,9.2,2.1c2.4,0,4.5-0.2,6.3-0.7c1.8-0.5,3.4-1.1,4.8-1.8c1.4-0.8,2.6-1.6,3.7-2.7c1.1-1,2-2,2.8-3.1
			c0.5,0.4,1,0.8,1.3,1.4c0.3,0.6,0.5,1.4,0.5,2.4c0,1.2-0.4,2.5-1.3,3.8c-0.8,1.3-2.1,2.5-3.8,3.5c-1.7,1.1-3.9,1.9-6.5,2.6
			c-2.6,0.7-5.8,1-9.4,1c-4.9,0-9.2-0.9-12.8-2.6c-3.7-1.7-6.8-4.2-9.3-7.3c-2.5-3.2-4.4-6.9-5.7-11.4c-1.3-4.4-1.9-9.3-1.9-14.7
			c0-5.3,0.7-10.1,2-14.5c1.3-4.4,3.3-8.2,5.9-11.3c2.6-3.2,5.9-5.6,9.8-7.4C199.6,47.8,204.1,46.9,209.3,46.9z"/>
		<path d="M267.8,118.7c-3.9,0-7.3-0.4-10.4-1.2c-3.1-0.8-5.6-2.1-7.8-3.9c-2.1-1.8-3.7-4-4.8-6.8c-1.1-2.8-1.7-6.2-1.7-10.1v-38
			c0-1.4-0.2-2.6-0.6-3.5c-0.4-0.9-1-1.6-1.7-2c-0.7-0.5-1.6-0.8-2.6-0.9c-1-0.1-2-0.2-3.1-0.2h-1.2v-4.1h28.5V52H261
			c-1.1,0-2.1,0.1-3.1,0.2c-1,0.2-1.8,0.5-2.6,1c-0.7,0.5-1.3,1.2-1.7,2.1c-0.4,0.9-0.6,2.1-0.6,3.7v38.2c0,2.8,0.4,5.2,1.2,7.2
			c0.8,2,1.9,3.6,3.4,4.8c1.4,1.2,3.2,2.1,5.2,2.7c2,0.6,4.2,0.9,6.6,0.9c2.8,0,5.3-0.4,7.3-1.1c2.1-0.8,3.8-1.8,5.1-3.2
			c1.4-1.4,2.4-3,3-4.8c0.7-1.9,1-3.9,1-6.1V58.7c0-1.4-0.2-2.6-0.6-3.5c-0.4-0.9-1-1.6-1.7-2c-0.7-0.5-1.6-0.8-2.6-0.9
			c-1-0.1-2-0.2-3.1-0.2h-1.2v-4.1h24.5V52h-1.3c-1.1,0-2.1,0.1-3.1,0.2c-1,0.2-1.8,0.5-2.6,1c-0.7,0.5-1.3,1.2-1.7,2.1
			c-0.4,0.9-0.6,2.1-0.6,3.7v38.7c0,3.2-0.5,6.2-1.6,8.8c-1,2.6-2.6,4.8-4.6,6.6c-2,1.8-4.5,3.2-7.5,4.1
			C275.1,118.2,271.6,118.7,267.8,118.7z"/>
		<path d="M306.2,117.7v-4.1h1.2c1.1,0,2.2-0.1,3.1-0.2c1-0.2,1.8-0.5,2.6-1c0.7-0.5,1.3-1.2,1.7-2.1c0.4-0.9,0.6-2.1,0.6-3.7v-48
			c0-1.4-0.2-2.6-0.6-3.5c-0.4-0.9-1-1.6-1.7-2c-0.7-0.5-1.6-0.8-2.6-0.9c-1-0.1-2-0.2-3.1-0.2h-1.2v-4.1h27.5
			c4.1,0,7.7,0.5,10.7,1.4c3,0.9,5.5,2.3,7.5,4.1c2,1.8,3.4,3.9,4.4,6.4c1,2.5,1.5,5.4,1.5,8.5c0,2.9-0.5,5.7-1.4,8.4
			c-0.9,2.7-2.4,5-4.5,7.1c-2.1,2.1-4.8,3.7-8.1,4.9c-3.3,1.2-7.4,1.8-12.3,1.8h-6.2v16.5c0,1.4,0.2,2.6,0.6,3.5
			c0.4,0.9,1,1.5,1.7,2c0.7,0.4,1.6,0.7,2.6,0.9c1,0.1,2,0.2,3.1,0.2h3.2v4.1H306.2z M325.4,85.9h5.2c3,0,5.5-0.3,7.6-0.9
			c2.1-0.6,3.8-1.6,5.2-3s2.3-3.2,2.9-5.3c0.6-2.2,0.9-4.8,0.9-7.9c0-2.7-0.3-5.1-0.8-7.1c-0.5-2-1.4-3.7-2.6-5
			c-1.2-1.3-2.8-2.3-4.7-3c-1.9-0.7-4.3-1-7-1h-6.6V85.9z"/>
		<path d="M365.3,117.7v-4.1h1.2c1.1,0,2.2-0.1,3.1-0.2c1-0.2,1.8-0.5,2.6-1c0.7-0.5,1.3-1.2,1.7-2.1c0.4-0.9,0.6-2.1,0.6-3.7V59
			c0-1.5-0.2-2.8-0.6-3.7c-0.4-0.9-1-1.6-1.7-2.1c-0.7-0.5-1.6-0.8-2.6-1c-1-0.2-2-0.2-3.1-0.2h-1.2v-4.1h28.5V52h-1.3
			c-1.1,0-2.1,0.1-3.1,0.2c-1,0.2-1.8,0.5-2.6,1c-0.7,0.5-1.3,1.2-1.7,2.1c-0.4,0.9-0.6,2.1-0.6,3.7v47.6c0,1.5,0.2,2.8,0.6,3.7
			c0.4,0.9,1,1.6,1.7,2.1c0.7,0.5,1.6,0.8,2.6,1c1,0.2,2,0.2,3.1,0.2h1.3v4.1H365.3z"/>
		<path d="M451.7,105.8c1.7,2.6,3.3,4.6,4.8,5.9c1.6,1.3,3.4,2,5.4,2h0.3v4.1h-1.4c-3.1,0-5.6-0.1-7.5-0.3c-2-0.2-3.6-0.7-5-1.3
			c-1.4-0.6-2.5-1.5-3.5-2.7c-1-1.1-2-2.6-3.1-4.5l-13.2-22h-8.1v20.2c0,1.4,0.2,2.6,0.6,3.5c0.4,0.9,1,1.5,1.7,2
			c0.7,0.4,1.6,0.7,2.6,0.9c1,0.1,2,0.2,3.1,0.2h1.3v4.1h-28.5v-4.1h1.2c1.1,0,2.1-0.1,3.1-0.2c1-0.1,1.8-0.4,2.6-0.9
			c0.7-0.4,1.3-1.1,1.7-2c0.4-0.9,0.6-2,0.6-3.5V58.7c0-1.4-0.2-2.6-0.6-3.5c-0.4-0.9-1-1.6-1.7-2c-0.7-0.5-1.6-0.8-2.6-0.9
			c-1-0.1-2-0.2-3.1-0.2h-1.2v-4.1h26.3c8.5,0,14.8,1.6,18.9,4.7c4.1,3.1,6.2,7.9,6.2,14.2c0,2.6-0.4,4.9-1.3,6.9
			c-0.8,2-2,3.7-3.3,5.1c-1.4,1.4-2.9,2.6-4.6,3.6c-1.7,1-3.4,1.7-5.2,2.3L451.7,105.8z M420.4,82.4h6.9c2.9,0,5.3-0.3,7.2-1
			c1.9-0.6,3.4-1.6,4.6-2.9c1.1-1.3,2-2.9,2.5-4.8c0.5-1.9,0.7-4.1,0.7-6.7c0-2.6-0.3-4.8-0.8-6.7c-0.5-1.8-1.4-3.3-2.6-4.5
			c-1.2-1.2-2.8-2-4.7-2.5c-1.9-0.5-4.3-0.8-7-0.8h-6.6V82.4z"/>
		<path d="M526.7,82.7c0,5.4-0.7,10.3-2,14.7c-1.3,4.4-3.3,8.2-5.9,11.4c-2.6,3.2-5.8,5.6-9.6,7.3c-3.8,1.7-8.2,2.6-13.1,2.6
			c-5.2,0-9.7-0.9-13.6-2.6c-3.9-1.7-7.1-4.2-9.6-7.3c-2.5-3.2-4.5-6.9-5.7-11.4c-1.3-4.4-1.9-9.4-1.9-14.8c0-5.4,0.6-10.3,1.9-14.7
			c1.3-4.4,3.2-8.2,5.7-11.3c2.5-3.1,5.8-5.5,9.6-7.2c3.9-1.7,8.4-2.6,13.6-2.6c4.9,0,9.3,0.9,13.1,2.6c3.8,1.7,7,4.1,9.6,7.3
			c2.6,3.1,4.6,6.9,5.9,11.3C526,72.4,526.7,77.3,526.7,82.7z M476,82.7c0,4.8,0.4,9.2,1.1,13c0.7,3.8,1.9,7,3.5,9.6
			c1.6,2.6,3.7,4.6,6.2,6c2.5,1.4,5.6,2.1,9.2,2.1c3.6,0,6.7-0.7,9.2-2.1s4.6-3.4,6.2-6c1.6-2.6,2.7-5.8,3.4-9.6
			c0.7-3.8,1.1-8.1,1.1-13c0-4.8-0.4-9.2-1.1-13c-0.7-3.8-1.8-7-3.4-9.6c-1.6-2.6-3.6-4.6-6.1-6c-2.5-1.4-5.6-2.1-9.2-2.1
			s-6.7,0.7-9.3,2.1c-2.5,1.4-4.6,3.4-6.2,6c-1.6,2.6-2.8,5.8-3.5,9.6C476.4,73.6,476,77.9,476,82.7z"/>
	</g>
</g>
</svg>
