<svg id="Слой_1" data-name="Слой 1" xmlns="http://www.w3.org/2000/svg" viewBox="0 0 684 512"><defs><style>.cls-1{fill:#fff;}.cls-2{fill:#fa1d1b;}.cls-3{fill:#d9090d;}.cls-4{fill:#a5000d;}</style></defs><path class="cls-1" d="M241.65,164l-4,29.35q-20.28,2.71-40.07,6.48L204.89,164Z"/><path class="cls-1" d="M306.69,67.87l-7,119.75q-20,1.06-39.73,3.08L275.59,67.87Z"/><path class="cls-1" d="M483.8,200.4q-19.86-3.85-40.16-6.64l-4-29.75h36.76Z"/><path class="cls-1" d="M421.36,191q-19.68-2.13-39.76-3.23l-7-119.92h31.1Z"/><path class="cls-1" d="M360.11,186.92c-7-.2-13.91-.29-20.9-.29-6,0-12.07.06-18.07.23L326.49,0h28.27Z"/><path class="cls-2" d="M631,262.7a1137.77,1137.77,0,0,0-139.21-23.53q-21-2.25-42.42-3.82-11.19-.79-22.5-1.47-21.09-1.14-42.59-1.66c-7.58-.17-15.21-.29-22.85-.32-2.68,0-5.34,0-8,0q-16.85,0-33.51.42c-7.66.2-15.3.45-22.87.76-14.4.63-28.68,1.47-42.76,2.55q-11.37.84-22.57,1.89-21.67,2-42.75,4.75c-65.07,8.4-125.87,21.69-180.53,39,56.36-29,118.88-50.73,185.59-63.71q20.4-4,41.34-6.87,11.16-1.53,22.45-2.74c13.49-1.44,27.15-2.52,40.89-3.25,7.33-.37,14.65-.66,22-.82q9.25-.22,18.55-.23c7.16,0,14.28.08,21.38.31,7.38.2,14.7.48,22,.9,13.77.77,27.43,1.93,40.94,3.4,7.53.85,15,1.78,22.46,2.85q21,2.94,41.39,7A709.35,709.35,0,0,1,631,262.7Z"/><path class="cls-3" d="M229.41,253.91l-4.72,34.52H179.44l5.46-26.69Q206.88,257.15,229.41,253.91Z"/><path class="cls-3" d="M296.14,247.2l-6.41,109.1h-50.9l13.43-105.36Q274,248.44,296.14,247.2Z"/><path class="cls-3" d="M366.08,395.89h-50.9l4.27-149.62q9.84-.26,19.76-.25c7.55,0,15.1.11,22.6.33Z"/><path class="cls-3" d="M442.43,356.3h-50.9l-6.42-108.93q22.18,1.32,43.94,3.91Z"/><path class="cls-3" d="M501.81,288.43H456.56l-4.63-34.1q22.56,3.34,44.53,8Z"/><path class="cls-4" d="M496.46,262.36q-22-4.67-44.53-8l-2.61-19q21.46,1.58,42.42,3.82Z"/><path class="cls-4" d="M429.05,251.28q-21.72-2.59-43.94-3.91l-.88-15.15q21.47.51,42.59,1.66Z"/><path class="cls-4" d="M361.81,246.35c-7.5-.22-15.05-.33-22.6-.33q-9.93,0-19.76.25l.39-14q16.67-.42,33.51-.42c2.69,0,5.35,0,8,0Z"/><path class="cls-4" d="M297,233.06l-.83,14.14q-22.17,1.23-43.88,3.74l2-15.33C268.29,234.53,282.57,233.69,297,233.06Z"/><path class="cls-4" d="M231.64,237.5l-2.23,16.41q-22.53,3.25-44.51,7.83l4-19.49Q210,239.54,231.64,237.5Z"/><path class="cls-1" d="M.82,446.94H30a41.13,41.13,0,0,1,18.52,4,30,30,0,0,1,12.5,11.26,34.34,34.34,0,0,1,0,33.81,30,30,0,0,1-12.5,11.26,41,41,0,0,1-18.52,4H.82ZM29.31,499q9.65,0,15.39-5.38t5.74-14.56q0-9.19-5.74-14.57t-15.39-5.37H15.71V499Z"/><path class="cls-1" d="M126.52,499.31v11.95H76.72V446.94h48.61v11.94H91.51v14h29.87v11.58H91.51v14.88Z"/><path class="cls-1" d="M138.38,446.94h14.88v52.19h32.25v12.13H138.38Z"/><path class="cls-1" d="M201.23,459.07H180.65V446.94h56v12.13H216.11v52.19H201.23Z"/><path class="cls-1" d="M283.83,497.47H254l-5.7,13.79H233l28.67-64.32h14.7l28.76,64.32H289.53Zm-4.68-11.3L269,461.55l-10.2,24.62Z"/><path class="cls-1" d="M318.7,509.51a25.23,25.23,0,0,1-10.15-6.06l2.66-5.24a25.58,25.58,0,0,0,9.28,5.65A34,34,0,0,0,332.44,506q8.64,0,13-3.17a9.77,9.77,0,0,0,4.31-8.22,8.23,8.23,0,0,0-2.34-6.16,15.91,15.91,0,0,0-5.74-3.54,94.63,94.63,0,0,0-9.47-2.71,96.35,96.35,0,0,1-11.57-3.54,18.94,18.94,0,0,1-7.4-5.19q-3.07-3.48-3.08-9.46a16.07,16.07,0,0,1,2.57-8.87,17.72,17.72,0,0,1,7.91-6.39,32.37,32.37,0,0,1,13.23-2.39,39,39,0,0,1,10.79,1.52,31.09,31.09,0,0,1,9.15,4.18l-2.3,5.42a32.79,32.79,0,0,0-17.64-5.33q-8.46,0-12.73,3.27a10.09,10.09,0,0,0-4.27,8.4,8.41,8.41,0,0,0,2.34,6.21,15.37,15.37,0,0,0,5.88,3.58q3.54,1.25,9.51,2.71A95.31,95.31,0,0,1,346,479.79a18.7,18.7,0,0,1,7.4,5.14q3,3.45,3,9.33a15.76,15.76,0,0,1-2.62,8.86,17.49,17.49,0,0,1-8,6.34,33.4,33.4,0,0,1-13.32,2.35A41.37,41.37,0,0,1,318.7,509.51Z"/><path class="cls-1" d="M382.79,452.82h-22.6v-5.88h52v5.88H389.59v58.44h-6.8Z"/><path class="cls-1" d="M467,511.26l-14.7-20.68a45.21,45.21,0,0,1-5.15.28H429.84v20.4H423V446.94h24.07q12.31,0,19.3,5.88t7,16.17a20.94,20.94,0,0,1-3.81,12.73,21.17,21.17,0,0,1-10.89,7.49l15.71,22.05Zm-5.42-30.42c3.37-2.81,5-6.77,5-11.85s-1.68-9.2-5-12-8.24-4.18-14.61-4.18H429.84v32.25h17.09Q456.49,485.07,461.54,480.84Z"/><path class="cls-1" d="M535,505.38v5.88H489.47V446.94h44.11v5.88H496.27V475.7h33.26v5.79H496.27v23.89Z"/><path class="cls-1" d="M591.28,494.07H555.44l-7.71,17.19h-7.08l29.41-64.32h6.7l29.41,64.32H599Zm-2.48-5.51L573.36,454l-15.43,34.55Z"/><path class="cls-1" d="M683.63,446.94v64.32H677.1V459.8l-25.27,43.28h-3.21l-25.27-43v51.18h-6.53V446.94h5.61l27.93,47.69L678,446.94Z"/></svg>