<svg width="96" height="89" viewBox="0 0 96 89" fill="none" xmlns="http://www.w3.org/2000/svg">
<path d="M62.383 16.708C63.9035 16.708 65.136 15.4755 65.136 13.955C65.136 12.4346 63.9035 11.202 62.383 11.202C60.8626 11.202 59.63 12.4346 59.63 13.955C59.63 15.4755 60.8626 16.708 62.383 16.708Z" fill="white"/>
<path d="M62.384 16.7961C61.8223 16.7961 61.2732 16.6295 60.8062 16.3175C60.3392 16.0054 59.9751 15.5619 59.7602 15.0429C59.5452 14.524 59.489 13.9529 59.5986 13.402C59.7082 12.8511 59.9786 12.3451 60.3758 11.9479C60.773 11.5507 61.2791 11.2802 61.83 11.1707C62.3809 11.0611 62.9519 11.1173 63.4708 11.3323C63.9898 11.5472 64.4333 11.9112 64.7454 12.3783C65.0575 12.8453 65.224 13.3944 65.224 13.9561C65.224 14.7093 64.9248 15.4317 64.3922 15.9643C63.8596 16.4969 63.1372 16.7961 62.384 16.7961ZM62.384 11.2901C61.8565 11.2901 61.3409 11.4465 60.9023 11.7396C60.4637 12.0326 60.1219 12.4491 59.92 12.9365C59.7182 13.4238 59.6653 13.96 59.7683 14.4774C59.8712 14.9947 60.1252 15.47 60.4982 15.8429C60.8712 16.2159 61.3464 16.4699 61.8637 16.5728C62.3811 16.6757 62.9173 16.6229 63.4046 16.4211C63.892 16.2192 64.3085 15.8774 64.6015 15.4388C64.8946 15.0002 65.051 14.4846 65.051 13.9571C65.0512 13.6068 64.9823 13.2599 64.8483 12.9362C64.7143 12.6125 64.5179 12.3184 64.2702 12.0706C64.0226 11.8228 63.7285 11.6263 63.4049 11.4922C63.0812 11.3581 62.7343 11.2891 62.384 11.2891V11.2901Z" fill="white"/>
<path d="M33.054 16.7841C34.5745 16.7841 35.807 15.5515 35.807 14.0311C35.807 12.5106 34.5745 11.2781 33.054 11.2781C31.5336 11.2781 30.301 12.5106 30.301 14.0311C30.301 15.5515 31.5336 16.7841 33.054 16.7841Z" fill="white"/>
<path d="M33.054 16.8711C32.3967 16.8703 31.76 16.6417 31.2523 16.2241C30.7447 15.8065 30.3976 15.2257 30.2702 14.5809C30.1427 13.936 30.2428 13.2669 30.5535 12.6876C30.8641 12.1083 31.366 11.6546 31.9736 11.4039C32.5812 11.1532 33.257 11.1209 33.8857 11.3126C34.5145 11.5043 35.0573 11.908 35.4217 12.4551C35.7861 13.0022 35.9496 13.6587 35.8842 14.3128C35.8188 14.9669 35.5286 15.578 35.063 16.0421C34.5298 16.5738 33.8071 16.8721 33.054 16.8711ZM33.054 11.3651C32.4369 11.3669 31.8395 11.5826 31.3636 11.9754C30.8876 12.3683 30.5626 12.914 30.4438 13.5196C30.325 14.1251 30.4198 14.7532 30.7121 15.2967C31.0044 15.8402 31.4761 16.2656 32.0468 16.5004C32.6175 16.7352 33.252 16.7649 33.8421 16.5845C34.4323 16.404 34.9416 16.0245 35.2834 15.5107C35.6251 14.9968 35.7782 14.3804 35.7165 13.7664C35.6548 13.1523 35.3822 12.5787 34.945 12.1431C34.6965 11.8954 34.4016 11.6992 34.0771 11.5657C33.7526 11.4321 33.4049 11.364 33.054 11.3651Z" fill="white"/>
<path d="M47.7 3.15407C47.4034 3.15407 47.1134 3.06608 46.8667 2.90126C46.62 2.73644 46.4278 2.50218 46.3142 2.22809C46.2007 1.954 46.171 1.65239 46.2289 1.36142C46.2867 1.07045 46.4296 0.803177 46.6394 0.593398C46.8491 0.383619 47.1164 0.240754 47.4074 0.182876C47.6984 0.124998 48 0.154702 48.2741 0.268233C48.5482 0.381765 48.7824 0.574035 48.9472 0.820708C49.1121 1.06738 49.2 1.3574 49.2 1.65407C49.2 2.05189 49.042 2.43342 48.7607 2.71472C48.4794 2.99603 48.0979 3.15407 47.7 3.15407ZM47.7 0.323058C47.3939 0.323885 47.0975 0.430778 46.8613 0.625548C46.6251 0.820319 46.4637 1.09093 46.4046 1.39131C46.3454 1.69169 46.3922 2.00329 46.5369 2.27306C46.6817 2.54282 46.9155 2.75409 47.1984 2.87089C47.4814 2.9877 47.7961 3.00284 48.089 2.91371C48.3819 2.82459 48.6349 2.63672 48.8049 2.38208C48.9748 2.12744 49.0513 1.82177 49.0212 1.5171C48.9912 1.21243 48.8565 0.927588 48.64 0.711059C48.3905 0.462314 48.0524 0.322767 47.7 0.323058Z" fill="white"/>
<path d="M42.66 6.77112H41.449V43.6581H42.66V6.77112Z" fill="white"/>
<path d="M45.475 4.38306H44.264V44.2461H45.475V4.38306Z" fill="white"/>
<path d="M48.29 2.70105H47.079V44.459H48.29V2.70105Z" fill="white"/>
<path d="M51.105 4.42603H49.894V44.35H51.105V4.42603Z" fill="white"/>
<path d="M53.92 6.74207H52.709V43.8291H53.92V6.74207Z" fill="white"/>
<path d="M58.7 9.43208C58.062 8.28208 57.838 7.49008 56.416 7.40308C54.316 8.52008 55.365 14.1351 57.175 18.3531C58.575 23.2821 63.637 33.6111 60.089 38.0871C55.209 44.2451 40.921 45.3291 35.717 39.0041C31.441 33.8041 38.938 19.3591 39.55 15.0511C39.998 11.9001 40.735 8.67109 38.927 7.38309C37.452 7.33609 36.627 9.47408 36.627 9.47408C36.627 9.47408 38.661 9.82008 36.008 17.0541C33.024 24.1721 27.6 32.0891 32.472 41.2081C33.6072 43.5229 35.4489 45.4168 37.731 46.6161C37.731 46.6161 34.24 49.5421 33.222 52.1161H62.047C60.9843 49.9758 59.4411 48.1102 57.538 46.6651C60.297 44.9726 62.4543 42.456 63.7052 39.4708C64.9561 36.4856 65.2373 33.1828 64.509 30.0291C63.078 23.0281 55.912 12.9751 58.7 9.43208Z" fill="white"/>
<path d="M58.696 9.43112C58.565 9.19912 58.439 8.95412 58.308 8.71712C58.1821 8.47624 58.0317 8.24904 57.859 8.03913C57.6828 7.83232 57.4591 7.67137 57.207 7.57012C56.9531 7.47521 56.6858 7.42088 56.415 7.40912C55.9964 7.65738 55.6844 8.05166 55.539 8.51612C55.3832 8.97359 55.2942 9.45119 55.275 9.93411C55.2405 10.9004 55.3153 11.8676 55.498 12.8171C55.6709 13.7676 55.9013 14.7066 56.188 15.6291C56.4737 16.5526 56.8075 17.4605 57.188 18.3491C57.659 19.9611 58.263 21.5291 58.818 23.1151C59.373 24.7011 59.925 26.2881 60.371 27.9071C60.8472 29.5214 61.1627 31.1788 61.313 32.8551C61.3806 33.6956 61.352 34.5411 61.228 35.3751C61.1089 36.214 60.8153 37.0187 60.366 37.7371C59.8881 38.4263 59.3158 39.045 58.666 39.5751C58.0168 40.1103 57.3172 40.5812 56.577 40.9811C55.0931 41.7738 53.5082 42.3608 51.866 42.7261C50.2258 43.1007 48.5485 43.2883 46.866 43.2851C45.185 43.293 43.5099 43.0867 41.881 42.6711C40.2446 42.2664 38.701 41.5515 37.334 40.5651C36.9954 40.3147 36.6743 40.0414 36.373 39.7471C36.0686 39.4557 35.7883 39.14 35.535 38.8031C35.0502 38.1088 34.7217 37.3176 34.572 36.4841C34.4172 35.6556 34.3591 34.812 34.399 33.9701C34.4318 33.1291 34.5183 32.2911 34.658 31.4611C34.9433 29.8045 35.334 28.1679 35.828 26.5611C36.308 24.9491 36.853 23.3611 37.412 21.7761C37.971 20.1911 38.554 18.6161 39.058 17.0131C39.182 16.6131 39.3 16.2131 39.403 15.8021C39.4996 15.3938 39.5741 14.9805 39.626 14.5641C39.748 13.7321 39.885 12.9041 39.981 12.0641C40.0956 11.2321 40.1164 10.3898 40.043 9.55312C39.9997 9.13499 39.8907 8.72631 39.72 8.34212C39.6321 8.15254 39.5216 7.97426 39.391 7.81113C39.2578 7.65127 39.1053 7.50851 38.937 7.38613C38.6647 7.38126 38.3957 7.4467 38.156 7.57613C37.9166 7.71336 37.702 7.8898 37.521 8.09812C37.3365 8.29978 37.1724 8.51918 37.031 8.75311C36.8883 8.98627 36.7642 9.23038 36.66 9.48313L36.646 9.45912C36.8552 9.53438 37.0267 9.68831 37.124 9.88812C37.2262 10.0798 37.2978 10.2863 37.336 10.5001C37.4089 10.9254 37.4267 11.3583 37.389 11.7881C37.3572 12.2166 37.2995 12.6427 37.216 13.0641C37.135 13.4881 37.044 13.9061 36.926 14.3211C36.703 15.1511 36.438 15.9691 36.148 16.7771L36.038 17.0771L35.914 17.3771L35.655 17.9551L35.127 19.1291C33.5716 22.1906 32.2784 25.3783 31.261 28.6581C30.8037 30.3138 30.5716 32.0235 30.571 33.7411C30.5847 35.4585 30.8848 37.1615 31.459 38.7801C31.7452 39.5874 32.0912 40.3723 32.494 41.1281C32.8948 41.8854 33.3605 42.6064 33.886 43.2831C34.4109 43.9588 35.0007 44.5815 35.647 45.1421C36.2865 45.7087 36.9984 46.1879 37.764 46.5671L37.821 46.5951L37.774 46.6351C37.322 47.0211 36.886 47.4291 36.461 47.8461C36.036 48.2631 35.626 48.6991 35.236 49.1461C34.843 49.5942 34.4757 50.0643 34.136 50.5541C33.7926 51.0397 33.5035 51.5615 33.274 52.1101L33.236 52.0551H62.061L62.023 52.1161C61.7731 51.578 61.4812 51.0604 61.15 50.5681C60.8167 50.0748 60.4623 49.5988 60.087 49.1401C59.3406 48.2167 58.4812 47.3905 57.529 46.6811L57.479 46.6451L57.531 46.6141C58.9894 45.7161 60.2901 44.5844 61.381 43.2641C63.5819 40.5998 64.8065 37.2636 64.852 33.8081C64.8789 32.095 64.6545 30.3872 64.186 28.7391C63.6958 27.0963 63.104 25.4855 62.414 23.9161C61.745 22.3371 61.034 20.7771 60.344 19.2041C59.6356 17.6416 59.03 16.0345 58.531 14.3931C58.2803 13.5714 58.1256 12.7234 58.07 11.8661C58.0471 11.4369 58.0807 11.0066 58.17 10.5861C58.2175 10.377 58.2844 10.1728 58.37 9.97612C58.458 9.78286 58.5673 9.60005 58.696 9.43112ZM58.696 9.43112C58.5662 9.60203 58.4553 9.78643 58.365 9.98113C58.2796 10.1775 58.2126 10.3813 58.165 10.5901C58.0765 11.01 58.0429 11.4396 58.065 11.8681C58.1227 12.7243 58.279 13.5709 58.531 14.3911C59.0394 16.0273 59.649 17.6304 60.356 19.1911C61.036 20.7651 61.756 22.3211 62.426 23.8981C63.1186 25.469 63.7137 27.0811 64.208 28.7251C64.682 30.3791 64.9111 32.0937 64.888 33.8141C64.8612 35.5357 64.5486 37.2409 63.963 38.8601C63.3707 40.477 62.51 41.9825 61.417 43.3131C60.3232 44.6418 59.0185 45.7816 57.555 46.6871V46.6201C58.5148 47.3318 59.3812 48.1613 60.134 49.0891C60.5134 49.5498 60.8692 50.0294 61.2 50.5261C61.5351 51.02 61.8294 51.5404 62.08 52.0821L62.108 52.1431H33.157L33.179 52.0891C33.4084 51.5345 33.6978 51.0067 34.042 50.5151C34.3827 50.0223 34.752 49.5498 35.148 49.1001C35.54 48.6491 35.948 48.2151 36.376 47.7931C36.804 47.3711 37.239 46.9661 37.694 46.5821L37.704 46.6481C36.9308 46.2658 36.2121 45.7818 35.567 45.2091C34.9235 44.6434 34.3377 44.0153 33.818 43.3341C33.2882 42.6546 32.8197 41.9294 32.418 41.1671C32.0148 40.4069 31.6689 39.6177 31.383 38.8061C30.8082 37.1798 30.5084 35.469 30.496 33.7441C30.5002 32.0205 30.7356 30.3052 31.196 28.6441C32.2184 25.3625 33.5164 22.1731 35.076 19.1101L35.606 17.9381L35.863 17.3471L35.989 17.0471L36.098 16.7471C36.388 15.9391 36.655 15.1231 36.878 14.2951C36.988 13.8801 37.088 13.4631 37.168 13.0411C37.2515 12.6207 37.3092 12.1956 37.341 11.7681C37.377 11.3416 37.3592 10.9122 37.288 10.4901C37.2513 10.2804 37.1814 10.0779 37.081 9.89012C36.9895 9.69749 36.8267 9.54796 36.627 9.47312H36.606V9.45412C36.7119 9.19965 36.8376 8.95389 36.982 8.71912C37.1259 8.48308 37.2935 8.26229 37.482 8.06012C37.6659 7.85166 37.884 7.67614 38.127 7.54112C38.372 7.4076 38.6481 7.34135 38.927 7.34912H38.936C39.107 7.47339 39.2619 7.6185 39.397 7.78111C39.5284 7.94698 39.6402 8.12753 39.73 8.31912C39.9004 8.70339 40.0094 9.11203 40.053 9.53012C40.1257 10.3692 40.1043 11.2138 39.989 12.0481C39.894 12.8831 39.76 13.7131 39.644 14.5481C39.5928 14.9658 39.519 15.3804 39.423 15.7901C39.323 16.1981 39.207 16.6031 39.078 17.0011C38.578 18.6011 37.991 20.1811 37.438 21.7651C36.885 23.3491 36.338 24.9401 35.861 26.5501C35.3702 28.1573 34.9818 29.7939 34.698 31.4501C34.5606 32.2773 34.4755 33.1123 34.443 33.9501C34.4065 34.7876 34.4672 35.6266 34.624 36.4501C34.7724 37.277 35.0985 38.0617 35.58 38.7501C35.8311 39.0848 36.1097 39.3979 36.413 39.6861C36.7124 39.9777 37.0311 40.2486 37.367 40.4971C38.7287 41.4773 40.2658 42.1871 41.895 42.5881C43.5184 43.0015 45.1879 43.2054 46.863 43.1951C48.5382 43.1951 50.208 43.0066 51.841 42.6331C53.4791 42.2736 55.0604 41.6919 56.541 40.9041C57.2778 40.5078 57.9744 40.041 58.621 39.5101C59.2724 38.9837 59.8473 38.3692 60.329 37.6841C60.7757 36.9739 61.0692 36.1783 61.191 35.3481C61.3145 34.5187 61.3434 33.678 61.277 32.8421C61.1307 31.1683 60.8185 29.5132 60.345 27.9011C59.896 26.2841 59.355 24.6931 58.793 23.1091C58.231 21.5251 57.637 19.9531 57.168 18.3391C56.787 17.4494 56.4532 16.5401 56.168 15.6151C55.8805 14.6911 55.6501 13.7504 55.478 12.7981C55.2963 11.8468 55.2235 10.8779 55.261 9.91013C55.2805 9.42568 55.3705 8.94664 55.528 8.48812C55.6747 8.02051 55.9893 7.62371 56.411 7.37412C56.6847 7.38541 56.9548 7.44045 57.211 7.53713C57.4649 7.63952 57.6901 7.80221 57.867 8.01113C58.0399 8.22136 58.1901 8.44929 58.315 8.69112L58.696 9.43112Z" fill="white"/>
<path d="M44.842 4.96204C45.4965 4.96204 46.027 4.4315 46.027 3.77704C46.027 3.12258 45.4965 2.59204 44.842 2.59204C44.1876 2.59204 43.657 3.12258 43.657 3.77704C43.657 4.4315 44.1876 4.96204 44.842 4.96204Z" fill="white"/>
<path d="M50.557 4.69202C51.2115 4.69202 51.742 4.16148 51.742 3.50702C51.742 2.85256 51.2115 2.32202 50.557 2.32202C49.9026 2.32202 49.372 2.85256 49.372 3.50702C49.372 4.16148 49.9026 4.69202 50.557 4.69202Z" fill="white"/>
<path d="M53.35 7.37C54.0045 7.37 54.535 6.83946 54.535 6.185C54.535 5.53054 54.0045 5 53.35 5C52.6956 5 52.165 5.53054 52.165 6.185C52.165 6.83946 52.6956 7.37 53.35 7.37Z" fill="white"/>
<path d="M42.112 7.37C42.7665 7.37 43.297 6.83946 43.297 6.185C43.297 5.53054 42.7665 5 42.112 5C41.4576 5 40.927 5.53054 40.927 6.185C40.927 6.83946 41.4576 7.37 42.112 7.37Z" fill="white"/>
<path d="M47.7 3.06401C48.4815 3.06401 49.115 2.43049 49.115 1.64901C49.115 0.867526 48.4815 0.234009 47.7 0.234009C46.9185 0.234009 46.285 0.867526 46.285 1.64901C46.285 2.43049 46.9185 3.06401 47.7 3.06401Z" fill="white"/>
<path d="M15.562 78.721C15.562 82.099 12.721 84.85 8.25002 84.85H1.25002V84.779H1.87202C2.89002 84.779 3.71302 84.638 3.71302 83.272V74.186C3.71302 72.802 2.88802 72.6621 1.87202 72.6621H1.26102V72.592H8.26102C12.72 72.588 15.562 75.338 15.562 78.721ZM6.47202 72.663H5.47202V84.789H6.47202V72.663ZM13.449 78.725C13.449 75.763 11.838 72.663 8.04902 72.663H6.57201L8.04502 74.5201V82.932L6.57201 84.785H8.04502C11.831 84.785 13.446 81.699 13.446 78.721L13.449 78.725Z" fill="#575756" stroke="#575756" stroke-width="2" stroke-miterlimit="10"/>
<path d="M30.066 72.566C31.383 73.128 31.566 74.946 31.566 75.689V81.158C31.5573 81.6848 31.4216 82.2018 31.1706 82.665C30.9196 83.1282 30.5606 83.5241 30.124 83.819C29.1016 84.5405 27.875 84.9155 26.624 84.889C24.632 84.889 23.309 83.539 23.309 81.157V74.188C23.2555 73.9003 23.2748 73.6038 23.3651 73.3254C23.4554 73.047 23.6138 72.7956 23.826 72.594H19.1C19.5966 72.6784 20.0708 72.8633 20.4935 73.1374C20.9161 73.4115 21.2784 73.769 21.558 74.188V81.164C21.558 83.37 23.825 85.001 26.624 85.001C29.423 85.001 31.688 83.371 31.688 81.164V75.696C31.688 74.733 31.788 73.644 34.146 72.666V72.596L30.066 72.566Z" fill="#575756" stroke="#575756" stroke-width="2" stroke-linejoin="round"/>
<path d="M50.166 84.788V84.853H34.514V84.782C35.3163 84.7466 36.0898 84.4726 36.7354 83.9949C37.3811 83.5173 37.8694 82.8579 38.138 82.101L42.704 72.588H42.789L47.516 82.388C48.004 83.4 48.684 84.788 50.166 84.788ZM46.31 83.772L41.879 74.607L38.215 82.212C38.0796 82.4951 38.0295 82.8114 38.0707 83.1225C38.1119 83.4335 38.2426 83.7259 38.447 83.964C38.6832 84.2289 38.9738 84.4397 39.2989 84.5819C39.6241 84.7242 39.9762 84.7944 40.331 84.788H45.487C45.623 84.7921 45.7581 84.7659 45.8827 84.7113C46.0072 84.6566 46.118 84.5749 46.207 84.472C46.2895 84.3767 46.3431 84.2598 46.3613 84.135C46.3796 84.0103 46.3617 83.883 46.31 83.768V83.772Z" fill="#575756" stroke="#575756" stroke-width="2" stroke-miterlimit="10"/>
<path d="M65.007 81.5939L64.561 84.8629H53.494V84.7919H54.109C55.125 84.7919 55.95 84.6509 55.95 83.2849V74.1849C55.95 72.8009 55.123 72.6609 54.109 72.6609H53.494V72.5909H60.7V72.6609H58.792L60.274 74.5179V82.9299L58.792 84.787H60.214C63.897 84.787 64.685 82.649 64.914 81.58L65.007 81.5939ZM58.713 72.6509H57.713V84.7769H58.713V72.6509Z" fill="#575756" stroke="#575756" stroke-width="2" stroke-miterlimit="10"/>
<path d="M68.321 84.85V84.779H68.936C69.954 84.779 70.777 84.638 70.777 83.272V74.186C70.777 72.802 69.952 72.662 68.936 72.662H68.321V72.592H74.996V72.662H74.361C73.345 72.662 72.54 72.801 72.54 74.186V83.286C72.54 84.652 73.34 84.793 74.361 84.793H74.996V84.853L68.321 84.85Z" fill="#575756" stroke="#575756" stroke-width="2" stroke-miterlimit="10"/>
<path d="M80.449 73.714L87.612 82.633V84.8551H87.527L84.262 80.789L82.271 83.171C82.1403 83.3148 82.0611 83.4978 82.0457 83.6915C82.0303 83.8852 82.0797 84.0785 82.186 84.241C82.3105 84.4151 82.476 84.5557 82.6679 84.6505C82.8598 84.7452 83.0721 84.7911 83.286 84.784H83.901V84.854H78.33V84.784C79.1344 84.7538 79.9229 84.552 80.643 84.1923C81.363 83.8325 81.9978 83.3231 82.505 82.698L84.179 80.682L80.365 75.956V73.714H80.449ZM94.223 84.79V84.8551H92.168C91.7163 84.8653 91.2679 84.7764 90.8543 84.5947C90.4407 84.4129 90.0719 84.1427 89.774 83.803L81.657 73.727C81.361 73.384 80.993 73.1104 80.5792 72.9258C80.1654 72.7412 79.716 72.6501 79.263 72.659V72.589H81.318C81.7711 72.5797 82.2206 72.6706 82.6345 72.8553C83.0483 73.0399 83.4163 73.3137 83.712 73.6571L86.828 77.513L89.518 74.271C89.6445 74.1252 89.7212 73.9427 89.7368 73.7503C89.7525 73.5578 89.7063 73.3654 89.605 73.201C89.4785 73.0292 89.3125 72.8903 89.1211 72.7959C88.9297 72.7016 88.7184 72.6547 88.505 72.659H87.87V72.589H93.464V72.659C92.6593 72.6862 91.8698 72.8864 91.1494 73.246C90.4289 73.6056 89.7944 74.1162 89.289 74.7431L86.92 77.6141L91.837 83.7301C92.1339 84.0691 92.5015 84.3391 92.9138 84.521C93.3262 84.7029 93.7734 84.7923 94.224 84.783L94.223 84.79Z" fill="#575756" stroke="#575756" stroke-width="2" stroke-miterlimit="10"/>
<path d="M14.717 78.328C14.717 81.709 11.878 84.461 7.40501 84.461H0.405014V84.391H1.01701C2.03501 84.391 2.85801 84.252 2.85801 82.884V73.793C2.85801 72.409 2.03101 72.268 1.01701 72.268H0.417015V72.198H7.41702C11.877 72.193 14.717 74.945 14.717 78.328ZM5.62601 72.264H4.62601V84.393H5.62601V72.264ZM12.598 78.328C12.598 75.366 10.987 72.264 7.19801 72.264H5.71701L7.19001 74.121V82.533L5.71701 84.393H7.19001C10.986 84.393 12.597 81.306 12.597 78.328H12.598Z" fill="white"/>
<path d="M7.40501 84.632H0.223007V84.221H1.02301C1.96401 84.221 2.68001 84.121 2.68001 82.886V73.792C2.68001 72.538 1.96001 72.439 1.02301 72.439H0.233009V72.021H7.41501C11.759 72.021 14.915 74.673 14.915 78.328C14.915 81.983 11.749 84.632 7.40501 84.632ZM2.43301 84.288H4.44601V72.365H2.42001C2.64238 72.5245 2.8178 72.7408 2.92792 72.9913C3.03805 73.2418 3.07883 73.5173 3.04601 73.789V82.883C3.08353 83.1507 3.04632 83.4237 2.9385 83.6716C2.83067 83.9195 2.65643 84.1328 2.43501 84.288H2.43301ZM6.08101 84.218H7.18101C10.787 84.218 12.401 81.26 12.401 78.328C12.401 75.396 10.793 72.436 7.18101 72.436H6.08101L7.37001 74.065V82.592L6.08101 84.218ZM4.81801 84.218H5.44601V72.435H4.81401L4.81801 84.218ZM9.76301 72.661C10.6934 73.2844 11.456 74.1273 11.9833 75.1154C12.5106 76.1034 12.7864 77.2061 12.7864 78.326C12.7864 79.4459 12.5106 80.5486 11.9833 81.5367C11.456 82.5247 10.6934 83.3676 9.76301 83.991C12.63 83.231 14.538 81.079 14.538 78.324C14.538 75.569 12.625 73.421 9.76301 72.661ZM5.81501 72.677V83.977L7.00101 82.477V74.177L5.81501 72.677Z" fill="white"/>
<path d="M29.22 72.172C30.537 72.734 30.72 74.55 30.72 75.295V80.762C30.7125 81.2885 30.5784 81.8054 30.3289 82.269C30.0795 82.7327 29.7222 83.1296 29.287 83.426C28.264 84.1461 27.0378 84.521 25.787 84.496C23.795 84.496 22.472 83.146 22.472 80.762V73.792C22.4178 73.5033 22.4366 73.2057 22.5269 72.9262C22.6173 72.6467 22.7761 72.3943 22.989 72.192H18.254C18.7511 72.2771 19.2256 72.4629 19.6483 72.738C20.071 73.0132 20.433 73.3719 20.712 73.792V80.766C20.712 82.974 22.981 84.605 25.778 84.605C28.575 84.605 30.842 82.975 30.842 80.766V75.292C30.842 74.327 30.942 73.239 33.3 72.26V72.192L29.22 72.172Z" fill="white"/>
<path d="M25.784 84.773C22.838 84.773 20.534 83.012 20.534 80.762V73.831C19.9923 73.0559 19.1651 72.5275 18.234 72.362C18.2107 72.3611 18.1878 72.3556 18.1666 72.3458C18.1454 72.336 18.1263 72.3221 18.1105 72.3049C18.0947 72.2877 18.0824 72.2676 18.0745 72.2456C18.0665 72.2237 18.0629 72.2003 18.064 72.177C18.0695 72.1294 18.0937 72.086 18.1312 72.0562C18.1687 72.0264 18.2164 72.0127 18.264 72.018H22.998C23.0322 72.0178 23.0658 72.027 23.0951 72.0447C23.1244 72.0623 23.1482 72.0877 23.164 72.118C23.1793 72.1466 23.1858 72.179 23.1826 72.2113C23.1794 72.2435 23.1667 72.2741 23.146 72.299C22.623 72.946 22.638 73.199 22.658 73.549V80.764C22.658 83 23.825 84.326 25.788 84.326C26.9964 84.3525 28.1814 83.9908 29.169 83.294C29.5842 83.0136 29.9257 82.6373 30.1645 82.1969C30.4033 81.7564 30.5325 81.2649 30.541 80.764V75.298C30.541 74.898 30.475 72.89 29.153 72.331C29.1163 72.3157 29.0861 72.288 29.0679 72.2527C29.0496 72.2174 29.0443 72.1768 29.053 72.138C29.0636 72.0984 29.0872 72.0635 29.12 72.039C29.1529 72.0145 29.1931 72.0018 29.234 72.003L33.316 72.024C33.3394 72.0232 33.3627 72.027 33.3846 72.0352C33.4065 72.0434 33.4266 72.0559 33.4437 72.0719C33.4608 72.0879 33.4745 72.107 33.4842 72.1283C33.4939 72.1496 33.4992 72.1726 33.5 72.196V72.266C33.4996 72.3002 33.489 72.3335 33.4696 72.3616C33.4502 72.3898 33.4228 72.4115 33.391 72.424C31.041 73.396 31.041 74.45 31.041 75.298V80.765C31.026 83.012 28.73 84.773 25.784 84.773ZM19.356 72.365C19.9881 72.6454 20.5184 73.1136 20.875 73.706C20.8896 73.7312 20.8972 73.7599 20.897 73.789V80.763C20.9604 81.5644 21.2793 82.3244 21.8067 82.9312C22.3341 83.5379 23.0422 83.9596 23.827 84.134C23.305 83.7494 22.8896 83.238 22.6203 82.6481C22.351 82.0582 22.2367 81.4094 22.288 80.763V73.563C22.2635 73.3494 22.2823 73.133 22.3433 72.9269C22.4043 72.7207 22.5062 72.5289 22.643 72.363L19.356 72.365ZM29.834 72.348C30.354 72.8453 30.6929 73.5021 30.797 74.214C30.9621 73.7923 31.2134 73.4097 31.5349 73.0908C31.8564 72.7719 32.241 72.5237 32.664 72.362L29.834 72.348Z" fill="white"/>
<path d="M49.321 84.393V84.464H33.669V84.393C34.4715 84.3582 35.2452 84.0843 35.8909 83.6066C36.5366 83.1289 37.0249 82.4692 37.293 81.712L41.869 72.196H41.954L46.681 81.996C47.159 83.005 47.839 84.393 49.321 84.393ZM45.465 83.377L41.036 74.212L37.37 81.819C37.2344 82.1019 37.1842 82.4181 37.2254 82.7291C37.2666 83.04 37.3975 83.3322 37.602 83.57C37.8384 83.8352 38.1294 84.0461 38.4549 84.1883C38.7804 84.3305 39.1328 84.4007 39.488 84.394H44.644C44.7799 84.3985 44.9151 84.3725 45.0396 84.318C45.1642 84.2635 45.275 84.1818 45.364 84.079C45.4449 83.9836 45.4972 83.8673 45.5149 83.7434C45.5326 83.6196 45.515 83.4933 45.464 83.379L45.465 83.377Z" fill="white"/>
<path d="M49.506 84.632H33.485V84.221H33.665C35.602 84.221 36.53 82.845 37.121 81.641L41.747 72.024H42.069L46.836 81.93C47.302 82.902 47.936 84.23 49.316 84.23H49.5L49.506 84.632ZM45.406 84.288H48.227C47.438 83.7371 46.8381 82.9563 46.509 82.052L41.909 72.517L41.172 74.053L45.641 83.302C45.7055 83.4444 45.7276 83.6024 45.7048 83.757C45.6819 83.9117 45.615 84.0564 45.512 84.174C45.4798 84.2158 45.4433 84.254 45.403 84.288H45.406ZM35.094 84.288H38.256C37.9487 84.1417 37.676 83.9318 37.456 83.672C37.1956 83.3577 37.045 82.9668 37.027 82.559C36.5893 83.326 35.9165 83.9318 35.108 84.287L35.094 84.288ZM41.031 74.628L37.531 81.886C37.4083 82.1408 37.3629 82.426 37.4006 82.7063C37.4383 82.9866 37.5573 83.2497 37.743 83.463C37.9615 83.7064 38.2298 83.8997 38.5297 84.03C38.8296 84.1603 39.1541 84.2244 39.481 84.218H44.637C44.7441 84.2215 44.8507 84.2015 44.9493 84.1595C45.0479 84.1176 45.1362 84.0546 45.208 83.975C45.2716 83.904 45.3136 83.8163 45.329 83.7222C45.3444 83.6281 45.3326 83.5316 45.295 83.444L41.031 74.628Z" fill="white"/>
<path d="M64.159 81.201L63.713 84.469H52.649V84.398H53.264C54.28 84.398 55.105 84.259 55.105 82.891V73.793C55.105 72.409 54.278 72.268 53.264 72.268H52.649V72.198H59.849V72.268H57.949L59.433 74.125V82.537L57.949 84.394H59.369C63.052 84.394 63.84 82.256 64.069 81.188L64.159 81.201ZM57.865 72.258H56.865V84.384H57.865V72.258Z" fill="white"/>
<path d="M63.875 84.632H52.465V84.221H53.265C54.388 84.221 54.922 84.021 54.922 82.886V73.792C54.922 72.537 54.233 72.439 53.265 72.439H52.465V72.021H60.035V72.435H58.31L59.61 74.064V82.591L58.31 84.218H59.363C61.921 84.218 63.444 83.186 63.887 81.15L63.924 80.978L64.357 81.067L63.875 84.632ZM61.422 84.288H63.551L63.803 82.443C63.5485 82.8936 63.2067 83.2889 62.7975 83.6057C62.3883 83.9225 61.92 84.1545 61.42 84.288H61.422ZM54.673 84.288H56.684V72.365H54.658C54.8804 72.5245 55.0558 72.7408 55.1659 72.9913C55.2761 73.2418 55.3169 73.5173 55.284 73.789V82.883C55.3218 83.1506 55.2848 83.4233 55.1774 83.6713C55.0699 83.9192 54.8961 84.1326 54.675 84.288H54.673ZM57.052 84.218H57.68V72.435H57.052V84.218ZM58.052 72.676V83.976L59.252 82.476V74.176L58.052 72.676Z" fill="white"/>
<path d="M67.483 84.46V84.39H68.096C69.114 84.39 69.937 84.251 69.937 82.883V73.793C69.937 72.409 69.112 72.268 68.096 72.268H67.483V72.198H74.158V72.268H73.521C72.505 72.268 71.7 72.409 71.7 73.793V82.887C71.7 84.254 72.5 84.394 73.521 84.394H74.158V84.464L67.483 84.46Z" fill="white"/>
<path d="M74.343 84.632H67.299V84.221H68.099C69.224 84.221 69.756 84.021 69.756 82.886V73.792C69.756 72.537 69.069 72.439 68.099 72.439H67.299V72.021H74.343V72.435H73.522C72.563 72.435 71.885 72.535 71.885 73.788V82.882C71.885 84.122 72.563 84.217 73.522 84.217H74.343V84.632ZM69.504 84.288H72.113C71.8955 84.1298 71.7249 83.9156 71.6192 83.6682C71.5136 83.4209 71.4769 83.1495 71.513 82.883V73.789C71.4774 73.5197 71.5143 73.2459 71.6197 72.9956C71.7252 72.7453 71.8955 72.5276 72.113 72.365H69.495C69.717 72.5247 69.892 72.7411 70.0018 72.9916C70.1116 73.2421 70.152 73.5175 70.119 73.789V82.883C70.1539 83.1511 70.115 83.4236 70.0065 83.6712C69.8979 83.9188 69.7238 84.1321 69.503 84.288H69.504Z" fill="white"/>
<path d="M79.604 73.319L86.767 82.24V84.465H86.682L83.421 80.399L81.427 82.791C81.2963 82.9348 81.2171 83.1179 81.2017 83.3115C81.1863 83.5052 81.2357 83.6984 81.342 83.861C81.4666 84.0349 81.6322 84.1753 81.8241 84.2699C82.016 84.3644 82.2282 84.4102 82.442 84.403H83.048V84.473H77.484V84.403C78.2882 84.3731 79.0767 84.1717 79.7967 83.8122C80.5168 83.4528 81.1517 82.9437 81.659 82.319L83.335 80.303L79.52 75.568V73.319H79.604ZM93.378 84.395V84.466H91.324C90.8724 84.4764 90.424 84.3877 90.0104 84.2061C89.5968 84.0245 89.228 83.7545 88.93 83.415L80.813 73.333C80.5175 72.9893 80.1496 72.7151 79.7357 72.5301C79.3219 72.3452 78.8722 72.2539 78.419 72.263V72.192H80.476C80.9292 72.1831 81.3788 72.2744 81.7926 72.4593C82.2065 72.6443 82.5744 72.9184 82.87 73.262L85.984 77.116L88.676 73.872C88.7994 73.7273 88.8741 73.5475 88.8897 73.3581C88.9054 73.1686 88.861 72.979 88.763 72.816C88.6367 72.6439 88.4708 72.5046 88.2793 72.4101C88.0879 72.3156 87.8765 72.2686 87.663 72.273H87.024V72.203H92.618V72.273C91.8131 72.3005 91.0236 72.501 90.3031 72.861C89.5827 73.2209 88.9483 73.7319 88.443 74.359L86.069 77.233L90.986 83.349C91.2847 83.6861 91.6535 83.9539 92.0665 84.1337C92.4795 84.3135 92.9267 84.401 93.377 84.39L93.378 84.395Z" fill="white"/>
<path d="M93.562 84.6319H91.323C90.8433 84.6424 90.3672 84.5476 89.9281 84.3541C89.4891 84.1606 89.0979 83.8731 88.782 83.5119L80.659 73.4359C80.3806 73.1148 80.0351 72.8587 79.6468 72.6859C79.2585 72.5131 78.837 72.4278 78.412 72.4359H78.228V72.0209H80.475C80.9557 72.0132 81.4323 72.1108 81.8712 72.3069C82.3102 72.503 82.701 72.7928 83.016 73.1559L85.984 76.8309L88.529 73.7659C88.6326 73.6459 88.6952 73.4959 88.7078 73.3379C88.7204 73.1798 88.6823 73.0219 88.599 72.8869C88.4893 72.7415 88.3466 72.6243 88.1826 72.545C88.0186 72.4657 87.8381 72.4266 87.656 72.4309H86.84V72.0209H92.803V72.4349H92.619C91.8423 72.467 91.0813 72.6638 90.3863 73.0122C89.6914 73.3606 89.0784 73.8527 88.588 74.4559L86.303 77.2249L91.135 83.2359C91.4151 83.5538 91.7614 83.8065 92.1496 83.9761C92.5378 84.1458 92.9585 84.2283 93.382 84.2179H93.566L93.562 84.6319ZM79.784 72.3649C80.2409 72.5498 80.6447 72.8453 80.959 73.2249L89.076 83.3029C89.3561 83.6208 89.7024 83.8735 90.0906 84.0431C90.4788 84.2128 90.8995 84.2953 91.323 84.2849H91.995C91.5464 84.1024 91.1495 83.8126 90.839 83.4409L85.839 77.2189L82.725 73.3669C82.4462 73.0463 82.1006 72.7906 81.7124 72.6178C81.3242 72.445 80.9028 72.3594 80.478 72.3669L79.784 72.3649ZM88.56 72.3649C88.6973 72.4572 88.8166 72.5738 88.912 72.709C89.0565 72.9386 89.108 73.2146 89.056 73.4809C89.6227 72.9909 90.2759 72.6111 90.982 72.3609L88.56 72.3649ZM86.951 84.6319H86.583L83.408 80.6759L81.567 82.8819C81.4588 82.9991 81.393 83.1493 81.3803 83.3083C81.3676 83.4674 81.4087 83.626 81.497 83.7589C81.6041 83.9066 81.7461 84.0255 81.9103 84.105C82.0744 84.1846 82.2557 84.2223 82.438 84.2149H83.238V84.6289H77.3V84.2149H77.484C78.2593 84.1766 79.018 83.9774 79.712 83.6298C80.406 83.2822 81.0201 82.7939 81.515 82.1959L83.102 80.2849L79.334 75.6139V73.1409H79.702L86.957 82.1769L86.951 84.6319ZM79.119 84.2879H81.528C81.3909 84.1945 81.2739 84.0745 81.184 83.9349C81.0425 83.7097 80.9888 83.4403 81.033 83.1779C80.4697 83.6639 79.8206 84.0404 79.119 84.2879ZM83.419 80.1119L86.581 84.0499V82.291L79.701 73.7249V75.4999L83.419 80.1119Z" fill="white"/>
</svg>
