<svg width="177" height="27" viewBox="0 0 177 27" fill="none" xmlns="http://www.w3.org/2000/svg">
<path d="M59.3596 1.71533L56.1427 25.029H51.7671L53.2133 14.4414H45.2099L43.7473 25.029H39.3882L42.0074 5.86697H30.4974L27.8803 25.029H23.5356L26.1527 5.86697H13.6977V5.8526H7.05019L6.3805 10.6698H14.5585L14.0264 14.7742H5.81147L4.9528 20.9554H13.2232L12.6932 25.029H0L3.18409 1.71533H46.9663L45.7523 10.5116H53.7495L54.9512 1.71533H59.3596Z" fill="url(#paint0_linear_57_5268)"/>
<path d="M115.371 22.2988L107.92 16.5613L108.193 14.5276L105.755 12.65L102.91 13.8209L102.503 16.8695L104.939 18.7491L106.838 17.9664L115.1 24.3305L115.371 22.2988Z" fill="#5A62FF"/>
<path d="M119.258 7.04606L121.645 8.88462L123.541 8.10195L119.527 5.0144L119.258 7.04606Z" fill="#5A62FF"/>
<path d="M115.371 22.2989L120.112 20.3432L121.645 8.8846L123.541 8.10193L121.741 21.5942L115.1 24.3305L115.371 22.2989Z" fill="#5A62FF"/>
<path d="M101.283 12.572L109.978 8.9894L111.601 10.2425L114.446 9.06952L114.853 6.02101L112.419 4.14343L109.574 5.31435L109.301 7.34806L99.6579 11.321L101.283 12.572Z" fill="#3640FF"/>
<path d="M112.548 23.5664L109.763 24.7127L109.492 26.7464L114.173 24.8154L112.548 23.5664Z" fill="#3640FF"/>
<path d="M101.283 12.5721L100.607 17.6563L109.763 24.7127L109.492 26.7464L98.7088 18.4431L99.6579 11.321L101.283 12.5721Z" fill="#3640FF"/>
<path d="M116.772 5.16429L115.529 14.4865L113.631 15.2671L113.226 18.3177L115.663 20.1932L118.506 19.0223L118.914 15.9737L117.287 14.7207L118.67 4.38367L116.772 5.16429Z" fill="#23BFDE"/>
<path d="M101.622 9.42494L102.018 6.43805L100.393 5.18701L99.7257 10.2076L101.622 9.42494Z" fill="#23BFDE"/>
<path d="M116.069 2.38088L118.67 4.38377L116.772 5.16439L112.709 2.03782L102.018 6.43802L100.393 5.18698L112.978 0L116.069 2.38088Z" fill="#23BFDE"/>
<path d="M63.1723 1.71519H69.5138C71.6112 1.71519 73.1169 1.91035 74.029 2.30065C74.9411 2.69096 75.6704 3.3175 76.2189 4.17824C76.7673 5.03897 77.0406 6.05582 77.0406 7.2288C77.0406 8.76127 76.6092 10.0945 75.7443 11.2305C74.8795 12.3665 73.7907 13.1409 72.4719 13.5518C71.5126 13.8579 69.8219 14.0119 67.4 14.0119H63.8769L62.3712 25.0268H60.0211L63.1744 1.71313L63.1723 1.71519ZM65.2512 3.96665L64.1584 11.7173H67.3958C69.5754 11.7173 71.0853 11.5674 71.9214 11.2654C72.7595 10.9634 73.4333 10.4458 73.9427 9.71239C74.4543 8.97902 74.709 8.16143 74.709 7.26372C74.709 6.52419 74.5344 5.89559 74.1893 5.37792C73.8421 4.86025 73.3635 4.49665 72.7554 4.28506C72.1453 4.07347 71.0257 3.9687 69.3967 3.9687H65.2492L65.2512 3.96665Z" fill="white"/>
<path d="M82.587 1.71519H88.4416C90.5267 1.71519 92.0181 1.9124 92.9158 2.30887C93.8156 2.70534 94.5448 3.33805 95.1056 4.2111C95.6664 5.08416 95.9458 6.09486 95.9458 7.24524C95.9458 8.50244 95.6151 9.66924 94.9557 10.7477C94.2942 11.8262 93.3944 12.6356 92.2523 13.18C91.1101 13.7243 89.6105 13.9955 87.7494 13.9955L94.7872 25.0268H92.1413L85.1199 13.9955H83.2731L81.7818 25.0268H79.4317L82.585 1.71313L82.587 1.71519ZM84.6331 3.96665L83.5854 11.7173H86.2641C88.2506 11.7173 89.5509 11.6393 90.1631 11.4791C91.1882 11.2264 92.014 10.7272 92.6426 9.98561C93.2712 9.24197 93.5855 8.33399 93.5855 7.25756C93.5855 6.04555 93.1479 5.16428 92.2708 4.61579C91.5949 4.18235 90.3788 3.96665 88.6265 3.96665H84.6331Z" fill="white"/>
<path d="M140.42 1.71533L140.135 3.9976H131.205L130.168 11.6209H139.106L138.82 13.8559H129.864L128.343 25.029H126.045L129.198 1.71533H140.418H140.42Z" fill="white"/>
<path d="M144.794 1.71533H147.144L143.991 25.029H141.641L144.794 1.71533Z" fill="white"/>
<path d="M149.517 1.71533H163.446L163.144 3.91749H157.269L154.416 25.027H152.066L154.919 3.91749H149.215L149.517 1.71533Z" fill="white"/>
<path d="M176.871 6.02722L174.669 6.58187C174.373 5.59993 173.886 4.82343 173.21 4.25235C172.534 3.68126 171.805 3.39572 171.023 3.39572C170.156 3.39572 169.451 3.68948 168.907 4.27494C168.362 4.8604 168.091 5.64513 168.091 6.62912C168.091 7.49601 168.381 8.39987 168.962 9.33867C169.322 9.93029 170.189 10.8506 171.561 12.0955C172.986 13.3855 173.983 14.5852 174.548 15.7007C175.113 16.8161 175.396 17.907 175.396 18.9731C175.396 20.1029 175.088 21.1917 174.47 22.2373C173.851 23.2829 173.019 24.1067 171.974 24.7106C170.928 25.3146 169.819 25.6145 168.646 25.6145C167.156 25.6145 165.864 25.14 164.771 24.1889C163.679 23.2377 162.894 21.8429 162.417 20.0043L164.572 19.2751C164.911 20.6699 165.46 21.7053 166.22 22.3811C166.98 23.057 167.857 23.3959 168.851 23.3959C169.981 23.3959 170.953 22.9789 171.768 22.1449C172.582 21.3108 172.988 20.2796 172.988 19.0553C172.988 18.1576 172.758 17.2804 172.298 16.4238C171.838 15.5672 170.938 14.538 169.597 13.3342C168.159 12.0236 167.224 11.0211 166.791 10.3227C166.082 9.15996 165.729 7.93562 165.729 6.64555C165.729 5.04939 166.248 3.73262 167.29 2.69111C168.329 1.64961 169.622 1.12988 171.164 1.12988C172.465 1.12988 173.621 1.54279 174.636 2.36655C175.651 3.1903 176.394 4.41052 176.871 6.02722Z" fill="white"/>
<defs>
<linearGradient id="paint0_linear_57_5268" x1="0" y1="13.3732" x2="59.3596" y2="13.3732" gradientUnits="userSpaceOnUse">
<stop stop-color="#C622AF"/>
<stop offset="0.15" stop-color="#C126B0"/>
<stop offset="0.31" stop-color="#B532B3"/>
<stop offset="0.47" stop-color="#A045B9"/>
<stop offset="0.63" stop-color="#8361C2"/>
<stop offset="0.79" stop-color="#5E86CC"/>
<stop offset="0.95" stop-color="#31B1D9"/>
<stop offset="1" stop-color="#23BFDE"/>
</linearGradient>
</defs>
</svg>
