<?xml version="1.0" encoding="utf-8"?>
<!-- Generator: Adobe Illustrator 24.0.0, SVG Export Plug-In . SVG Version: 6.00 Build 0)  -->
<svg version="1.1" id="Layer_1" xmlns="http://www.w3.org/2000/svg" xmlns:xlink="http://www.w3.org/1999/xlink" x="0px" y="0px"
	 viewBox="0 0 178 65" style="enable-background:new 0 0 178 65;" xml:space="preserve">
<style type="text/css">
	.st0{fill:#3A6092;}
	.st1{fill:#359947;}
	.st2{fill:#231F20;}
</style>
<g>
	<path class="st0" d="M28,23.7c0.4,1.9,0.9,3.8,1.3,5.7c0,0.4-0.2,0.5-0.6,0.5c-0.2,0-0.5-0.2-0.7-0.5c-1.4-1.8-2.7-3-3.9-3.6
		c-1.2-0.6-2.9-0.9-5.1-0.9c-1.2,0-2.5,0.1-3.6,0.3c-0.3,2.1-0.4,4.5-0.4,7c0,0.4,0,1.2,0,2.2h1.6c1,0,1.8-0.1,2.5-0.4
		c0.7-0.2,1.3-0.7,1.8-1.5s0.8-1.3,0.9-1.5c0.1-0.4,0.3-0.6,0.6-0.6c0.4,0,0.6,0.1,0.6,0.4c0,0.1,0,0.2,0,0.3
		c-0.2,0.7-0.2,3-0.2,6.7c0,0.5,0.1,1,0.2,1.4c0,0.1,0,0.2,0,0.3c0,0.3-0.2,0.5-0.7,0.5c-0.3,0-0.5-0.3-0.7-1
		c-0.3-1.1-0.9-2-1.9-2.6s-2.5-0.9-4.7-0.9c-0.1,2-0.1,3.4-0.1,4c0,2.8,0,4.4,0.1,4.9s0.4,0.9,1.1,1.3c0.6,0.3,1.6,0.5,3.1,0.5
		c5.3,0,8.7-1.5,10.4-4.4c0.2-0.4,0.5-0.6,0.8-0.6c0.4,0,0.6,0.1,0.6,0.4c0,0.2,0,0.4-0.1,0.7l-1.3,5.2h-7.5c-2.1,0-4.1-0.1-5.9-0.1
		c-1.8-0.1-3.3-0.1-4.3-0.1c-1.2,0-2.9,0.1-5.3,0.2c-0.3,0-0.5,0-0.6,0c-0.7,0-1-0.2-1-0.6c0-0.3,0.3-0.5,0.8-0.5
		c1.3,0,2.2-0.3,2.7-1c0.5-0.6,0.7-1.9,0.7-3.9l0.1-9.3c0-3.2,0-5.2-0.1-5.9c-0.1-0.7-0.3-1.2-0.7-1.5s-1.1-0.5-2.2-0.6
		c-0.4,0-0.7-0.2-0.7-0.5c0-0.4,0.3-0.5,0.8-0.5l5,0.1L28,23.7z"/>
	<path class="st0" d="M38.8,31.9c0.1,1.2,0.1,2.9,0.1,5.1c0,3.3,0,5.4,0.1,6.3c0.1,0.9,0.3,1.6,0.8,2.1s1,0.7,1.6,0.7
		c0.7,0,1.4-0.2,2.2-0.7s1.3-1.1,1.6-1.9c0.4-0.8,0.5-2,0.5-3.7v-4c0-1.1-0.1-1.8-0.2-2.1c-0.1-0.3-0.6-0.5-1.3-0.5
		c-0.8,0-1.2-0.2-1.2-0.6c0-0.2,0.1-0.3,0.3-0.4C43.6,32,44.2,32,45,32c1.9,0,3.7,0,5.4-0.1c0.1,0.5,0.1,3.1,0.1,7.7
		c0,3.8,0,5.8,0.1,6.2c0.1,0.3,0.5,0.5,1.3,0.6c0.5,0,0.7,0.2,0.7,0.5c0,0.4-0.3,0.5-0.8,0.5c-0.1,0-0.3,0-0.5,0c-0.4,0-0.8,0-1.4,0
		c-1.8,0-2.9,0-3.1,0c-0.2,0-0.4,0-0.6,0c-0.3,0-0.4,0-0.5-0.1s-0.1-0.3-0.1-0.7c0-0.6,0-1.3,0.1-1.9c-1,1-2,1.8-3,2.3
		c-1.1,0.5-2.2,0.8-3.3,0.8c-3.5,0-5.3-1.7-5.3-5.2V37c0-1.9-0.1-3.1-0.2-3.4c-0.2-0.3-0.6-0.5-1.3-0.6c-0.6-0.1-0.9-0.2-0.9-0.5
		S32,32,32.5,32C36.4,32,38.4,32,38.8,31.9"/>
	<path class="st0" d="M61,35.2c0.7-1.2,1.5-2.1,2.4-2.7c0.9-0.6,1.9-0.9,3-0.9s1.9,0.3,2.5,0.8c0.6,0.5,0.9,1.2,0.9,2
		c0,0.6-0.2,1.2-0.7,1.6c-0.4,0.4-1,0.7-1.7,0.7c-0.5,0-0.9-0.1-1.2-0.3c-0.3-0.2-0.7-0.6-1-1.2c-0.5-0.8-0.9-1.2-1.3-1.2
		c-0.5,0-1.1,0.5-1.7,1.4c-0.7,0.9-1,2.7-1,5.3c0,3.3,0.1,5.1,0.4,5.5c0.3,0.4,0.8,0.6,1.7,0.6c0.8,0,1.1,0.2,1.1,0.5
		s-0.4,0.5-1.1,0.5c-0.4,0-1,0-1.8-0.1c-0.7-0.1-1.4-0.1-2-0.1c-1.4,0-2.7,0-4.1,0.1c-0.6,0-0.9,0.1-1,0.1c-0.6,0-0.9-0.2-0.9-0.6
		c0-0.3,0.3-0.5,1-0.5s1.1-0.2,1.4-0.4c0.3-0.2,0.4-0.8,0.4-1.6l0.1-4.5c0-0.9,0-2.1-0.1-3.4c-0.1-1.4-0.2-2.2-0.2-2.4
		c-0.1-0.3-0.2-0.5-0.5-0.7s-0.7-0.3-1.2-0.4c-0.5,0-0.8-0.1-0.9-0.2c-0.1-0.1-0.2-0.2-0.2-0.4c0-0.3,0.3-0.5,1-0.5
		c1.3,0,3.4-0.2,6.5-0.4L61,35.2z"/>
	<path class="st0" d="M78,31.5c0.1,1.7,0.1,4.7,0.1,9.1L78,44.5c0,0.8,0.1,1.3,0.4,1.6s0.8,0.4,1.5,0.5c0.8,0.1,1.2,0.3,1.2,0.6
		s-0.3,0.5-0.9,0.5c-0.3,0-0.8,0-1.5-0.1c-1.5-0.1-3-0.1-4.5-0.1c-0.7,0-1.5,0-2.2,0.1c-0.5,0.1-0.8,0.1-0.9,0.1
		c-0.6,0-0.9-0.2-0.9-0.5s0.4-0.5,1.2-0.6c1.1-0.1,1.7-0.4,1.8-0.9c0.1-0.5,0.2-1.6,0.2-3.3c0-2.1,0-4.1-0.1-5.9
		c-0.1-1.8-0.2-2.8-0.4-3.1c-0.2-0.3-0.7-0.4-1.6-0.5c-0.7-0.1-1-0.2-1-0.5s0.3-0.5,1-0.5h0.4L78,31.5z M77.7,25.4
		c0,0.7-0.3,1.3-0.9,1.8S75.5,28,74.7,28c-0.8,0-1.5-0.3-2.1-0.8s-0.9-1.1-0.9-1.8c0-0.7,0.3-1.3,0.9-1.9c0.6-0.5,1.3-0.8,2.1-0.8
		c0.8,0,1.5,0.3,2.1,0.8C77.4,24,77.7,24.7,77.7,25.4"/>
	<path class="st0" d="M92.5,42.6c0.9-1.7,1.7-3.5,2.5-5.3c0.8-1.9,1.2-3,1.2-3.5s-0.3-0.8-1-1c-0.6-0.1-0.9-0.3-0.9-0.6
		s0.2-0.5,0.7-0.5c0.2,0,0.8,0,1.5,0.1s1.2,0.1,1.5,0.1c0.6,0,1.2,0,1.7-0.1c0.3,0,0.5-0.1,0.7-0.1c0.4,0,0.6,0.2,0.6,0.5
		s-0.3,0.4-0.9,0.5c-1.3,0.2-2.4,1.2-3.3,3.2c-1,2.2-1.9,4.3-2.8,6.2s-1.6,3.3-2.1,4.1s-0.8,1.3-0.9,1.4c-0.1,0.1-0.2,0.1-0.4,0.1
		c-0.2,0-0.4-0.1-0.5-0.3c-0.2-0.2-0.9-1.4-2.1-3.6l-4.8-8.3c-0.7-1.2-1.2-1.9-1.6-2.1c-0.4-0.2-0.7-0.4-0.9-0.4
		c-0.5-0.1-0.8-0.3-0.8-0.5c0-0.3,0.3-0.5,0.8-0.5c0.2,0,0.6,0,1,0c1.1,0.1,2.2,0.1,3.3,0.1c0.4,0,0.9,0,1.5,0
		c1-0.1,1.6-0.1,1.8-0.1c0.9,0,1.4,0.1,1.4,0.4c0,0.3-0.3,0.5-0.8,0.6c-0.7,0.1-1.1,0.3-1.1,0.9c0,0.3,0.6,1.6,1.7,3.7
		C90.7,39.7,91.7,41.4,92.5,42.6"/>
	<path class="st0" d="M105.5,39.2c0,0.4,0,0.6,0,0.8c0,1.7,0.5,3.2,1.4,4.4c1,1.2,2.3,1.8,3.9,1.8c1.7,0,3.3-0.6,4.9-1.9
		c0.3-0.3,0.6-0.4,0.7-0.4c0.4,0,0.5,0.2,0.5,0.5s-0.4,0.7-1.2,1.4c-0.8,0.7-1.8,1.2-3.1,1.6c-1.2,0.4-2.4,0.5-3.7,0.5
		c-2.8,0-5-0.8-6.6-2.3s-2.4-3.3-2.4-5.3c0-2.5,0.9-4.5,2.8-6.2c1.8-1.7,4.1-2.5,6.9-2.5c2.6,0,4.5,0.8,5.9,2.3c1.3,1.5,2,3,2,4.3
		c0,0.4-0.1,0.7-0.4,0.8s-1.1,0.1-2.6,0.1L105.5,39.2z M105.6,37.9c2,0,3.2,0,3.6,0c1.6,0,2.5-0.1,2.9-0.3s0.5-0.6,0.5-1.2
		c0-1-0.3-1.9-1-2.6c-0.7-0.8-1.4-1.1-2.3-1.1C107.1,32.7,105.9,34.4,105.6,37.9"/>
	<path class="st0" d="M129.7,37.6l1-1.1c1.2-1.2,1.9-2,2.1-2.3c0.2-0.3,0.3-0.5,0.3-0.7c0-0.4-0.5-0.6-1.4-0.7
		c-0.5,0-0.7-0.2-0.7-0.5s0.3-0.5,1-0.5c0.2,0,0.5,0,1,0.1c0.6,0.1,1.2,0.1,1.8,0.1s1.2,0,1.8-0.1c0.4,0,0.6-0.1,0.7-0.1
		c0.5,0,0.8,0.2,0.8,0.5s-0.3,0.5-1,0.5c-0.5,0-0.9,0.1-1.3,0.3c-0.3,0.2-0.8,0.6-1.5,1.2l-2.2,2.2l-1.8,1.8l4.9,5.5
		c0.8,0.9,1.4,1.5,2,1.8c0.6,0.4,1.2,0.6,1.9,0.7c0.6,0.1,0.9,0.3,0.9,0.6c0,0.4-0.3,0.5-1,0.5c-0.3,0-0.9,0-1.7-0.1
		c-0.8,0-1.9-0.1-3.4-0.1c-1.4,0-2.6,0-3.7,0.1c-0.4,0-0.8,0.1-1,0.1c-0.6,0-0.8-0.2-0.8-0.5s0.3-0.5,1-0.6c0.9-0.1,1.3-0.4,1.3-0.7
		s-0.3-0.8-0.9-1.4c-0.5-0.6-0.8-1-1-1.1c-0.1-0.1-0.2-0.3-0.4-0.4l-1.2-1.4l-2.2,2.3c-0.9,0.9-1.3,1.5-1.3,1.9
		c0,0.3,0.1,0.5,0.4,0.6s0.8,0.2,1.7,0.3c0.5,0.1,0.7,0.2,0.7,0.5s-0.3,0.5-1,0.5c-0.2,0-0.4,0-0.7,0c-0.7-0.1-1.6-0.1-2.6-0.1
		c-0.7,0-1.7,0-3,0.1c-0.1,0-0.2,0-0.3,0c-0.6,0-0.9-0.2-0.9-0.5s0.4-0.5,1.1-0.5c0.7-0.1,1.4-0.3,2-0.6s1.2-0.8,1.9-1.6
		c0.1-0.1,0.2-0.2,0.3-0.3l3.2-3.3l-5-5.6c-0.7-0.8-1.2-1.3-1.6-1.6s-0.9-0.5-1.5-0.6c-0.5-0.1-0.7-0.3-0.7-0.5
		c0-0.4,0.3-0.5,0.8-0.5c0.2,0,0.7,0,1.4,0.1c0.9,0.1,1.6,0.1,2.1,0.1c1.9,0,3.5,0,4.6-0.1c0.3,0,0.5,0,0.7,0c0.5,0,0.7,0.2,0.7,0.5
		s-0.4,0.4-1.1,0.6c-0.6,0.1-0.8,0.2-0.8,0.5s0.4,0.9,1.1,1.6c0.1,0.2,0.3,0.3,0.4,0.5L129.7,37.6z"/>
	<path class="st0" d="M160.2,20.5c0.8-0.5,1.7-1.1,2.7-1.8c-0.5-0.4-1.1-0.9-1.7-1.3c-1,0.8-2.1,1.5-3,2l0,0c-0.4,0.2-1,0.5-1.7,0.9
		c0.6,0.4,1.1,0.9,1.6,1.4C159,21.3,159.7,20.9,160.2,20.5"/>
	<path class="st0" d="M166.6,24.3c-0.8,0.5-1.6,1-2.5,1.4c-0.6,0.3-1.5,0.8-2.7,1.4c0.2,0.9,0.3,1.9,0.2,2.9c0.6-0.3,1-0.6,1.4-0.8
		l0,0c1.1-0.7,2.6-1.6,3.9-2.8C166.9,25.6,166.8,24.9,166.6,24.3"/>
	<path class="st0" d="M160,37.1c-0.4,0.2-0.9,0.3-1.4,0.5c-5.2,7.8-16.5,16.4-31.5,23.8c17.3-7.8,30.6-17.3,36.5-25.9
		C162.5,36,161.3,36.5,160,37.1"/>
	<path class="st0" d="M150.5,17c1.8-0.9,3.1-1.6,3.9-2.2l0,0l0,0c0.3-0.2,0.6-0.4,0.9-0.6c-13.5-5.6-37.1-6.7-60.5,1.5
		c-5.3,1.9-10.3,4.1-14.9,6.6c3.1-1.5,6.4-2.8,9.8-4C113.3,10.1,137,11.3,150.5,17L150.5,17z"/>
	<path class="st1" d="M169.4,17.9c0,0,5.6-0.1,4.8,4.5c-0.8,4.5-5.2,8-8.3,9.7c-2.1,1.2-9,5.1-19.6,6.5c9.7-3.2,15.3-6.2,17.7-7.7
		s6.9-4.2,8.1-9.4C172.8,18.8,169.4,17.9,169.4,17.9"/>
	<path class="st0" d="M167.8,6.3c0,0,6.9-0.1,5.9,5.5c-1,5.5-6.1,9.9-10.4,12.1c-2.6,1.3-10.8,5.9-23.8,7.8
		c11.9-4,18.8-7.7,21.8-9.5c2.9-1.9,8.7-5.3,10.2-11.6C172.3,7.3,167.8,6.3,167.8,6.3"/>
	<path class="st1" d="M160.8,3.6c0,0,5.6-0.1,4.8,4.5c-0.8,4.5-5.2,8-8.3,9.7c-2.1,1.2-9,5.1-19.6,6.5c9.7-3.2,15.3-6.2,17.7-7.8
		c2.4-1.5,6.9-4.2,8.1-9.4C164.2,4.5,160.8,3.6,160.8,3.6"/>
	<g>
		<path class="st2" d="M10.3,50.8l0.1,2h-0.1c-0.2-0.6-0.5-1-0.8-1.3c-0.3-0.2-0.8-0.3-1.4-0.3c-0.5,0-0.8,0.1-1.1,0.3
			c-0.3,0.2-0.6,0.5-0.8,0.9S5.8,53.3,5.8,54c0,0.6,0.1,1,0.2,1.4c0.2,0.3,0.5,0.7,0.8,0.9c0.3,0.2,0.8,0.3,1.3,0.3
			c0.5,0,0.8-0.1,1.1-0.2c0.3-0.1,0.7-0.5,1-0.9l0.1,0.1c-0.3,0.6-0.7,0.9-1.1,1.1c-0.2,0-0.8,0.1-1.4,0.1c-1,0-2-0.3-2.5-1
			c-0.5-0.6-0.7-1.1-0.7-2c0-0.6,0.1-1.1,0.5-1.6c0.3-0.5,0.7-0.9,1.1-1.1c0.5-0.2,1-0.5,1.7-0.5c0.5,0,0.9,0.1,1.4,0.3
			c0.2,0.1,0.2,0.2,0.3,0.2c0.1,0,0.1,0,0.2-0.1c0.1-0.1,0.1-0.2,0.2-0.3C10.2,50.8,10.3,50.8,10.3,50.8z"/>
		<path class="st2" d="M12.1,52.9h2.1V53H14c-0.1,0-0.2,0-0.3,0.1c-0.1,0-0.1,0.1-0.1,0.2s0,0.2,0.1,0.5l1,2l1-2.2
			c0-0.1,0.1-0.2,0.1-0.3v-0.1L15.7,53c0,0-0.1,0-0.3,0v-0.1h1.4V53c-0.1,0-0.2,0-0.2,0.1c-0.1,0-0.1,0.1-0.2,0.2
			c0,0-0.1,0.1-0.1,0.3l-1.8,3.9c-0.2,0.3-0.3,0.7-0.7,0.9c-0.2,0.2-0.6,0.3-0.8,0.3c-0.2,0-0.3,0-0.5-0.1c-0.1-0.1-0.2-0.2-0.2-0.3
			s0-0.2,0.1-0.3c0.1-0.1,0.2-0.1,0.3-0.1c0.1,0,0.2,0,0.5,0.1c0.1,0,0.2,0.1,0.2,0.1c0.1,0,0.2,0,0.3-0.1c0.1-0.1,0.2-0.2,0.3-0.6
			l0.3-0.7l-1.6-3c0-0.1-0.1-0.2-0.2-0.3c-0.1-0.1-0.1-0.1-0.2-0.2c-0.1,0-0.2-0.1-0.3-0.1v-0.2H12.1z"/>
		<path class="st2" d="M17.8,53.2l1.4-0.5h0.2v0.9c0.2-0.3,0.5-0.6,0.7-0.7c0.2-0.1,0.5-0.2,0.7-0.2c0.5,0,0.8,0.1,1.1,0.5
			c0.3,0.3,0.6,0.9,0.6,1.5c0,0.7-0.2,1.3-0.7,1.7C21.5,56.8,21,57,20.4,57c-0.2,0-0.5,0-0.6-0.1c-0.1,0-0.2-0.1-0.5-0.2v1.3
			c0,0.2,0,0.5,0,0.6c0,0.1,0.1,0.1,0.2,0.2c0.1,0,0.2,0.1,0.5,0.1V59h-2.3v-0.1h0.1c0.2,0,0.3,0,0.5-0.1c0.1,0,0.1-0.1,0.1-0.1
			c0-0.1,0-0.2,0-0.6v-3.8c0-0.2,0-0.5,0-0.5c0-0.1-0.1-0.1-0.1-0.1s-0.1,0-0.2,0s-0.2,0-0.3,0.1L17.8,53.2z M19.4,53.9v1.5
			c0,0.3,0,0.6,0,0.7c0,0.1,0.1,0.3,0.3,0.5c0.2,0.1,0.3,0.2,0.7,0.2c0.3,0,0.6-0.1,0.8-0.3c0.2-0.3,0.3-0.7,0.3-1.3s-0.1-1-0.5-1.4
			c-0.2-0.2-0.5-0.3-0.7-0.3c-0.1,0-0.3,0-0.5,0.1C19.9,53.6,19.6,53.7,19.4,53.9"/>
		<path class="st2" d="M25.4,52.8v0.9c0.3-0.6,0.8-0.9,1.1-0.9c0.2,0,0.3,0,0.5,0.1c0.1,0.1,0.2,0.2,0.2,0.3c0,0.1,0,0.2-0.1,0.2
			c-0.1,0.1-0.2,0.1-0.3,0.1c-0.1,0-0.2,0-0.3-0.1c-0.2-0.1-0.3-0.1-0.5-0.1s-0.1,0-0.2,0.1c-0.1,0.1-0.3,0.3-0.5,0.6v2
			c0,0.2,0,0.3,0.1,0.5c0,0.1,0.1,0.1,0.2,0.2c0.1,0,0.2,0.1,0.5,0.1l0,0h-2.3v-0.1c0.2,0,0.3,0,0.5-0.1c0.1,0,0.1-0.1,0.1-0.2
			c0,0,0-0.2,0-0.5v-1.5c0-0.5,0-0.7,0-0.8c0-0.1-0.1-0.1-0.1-0.2c0,0-0.1-0.1-0.2-0.1s-0.2,0-0.3,0.1v-0.1l1.4-0.5H25.4z"/>
		<path class="st2" d="M32.2,52.9v2.4c0,0.5,0,0.7,0,0.8s0.1,0.2,0.1,0.2s0.1,0.1,0.2,0.1s0.2,0,0.3-0.1l0.1,0.1l-1.3,0.5h-0.2v-0.8
			c-0.3,0.3-0.7,0.6-0.9,0.7c-0.2,0.1-0.5,0.1-0.6,0.1c-0.2,0-0.5-0.1-0.7-0.2c-0.2-0.1-0.3-0.3-0.3-0.5c-0.1-0.2-0.1-0.5-0.1-0.8
			v-1.7c0-0.2,0-0.3-0.1-0.3c0-0.1-0.1-0.1-0.2-0.1c-0.1,0-0.2,0-0.5,0v-0.1h1.5v2.6c0,0.3,0.1,0.6,0.2,0.7c0.1,0.1,0.3,0.2,0.6,0.2
			c0.1,0,0.3,0,0.5-0.1c0.2-0.1,0.3-0.2,0.6-0.5v-2.3c0-0.2,0-0.3-0.1-0.5c-0.1-0.1-0.2-0.1-0.6-0.1v-0.1h1.5V52.9z"/>
		<path class="st2" d="M37.1,52.8v1.4H37c-0.1-0.5-0.2-0.7-0.5-0.9c-0.2-0.1-0.5-0.2-0.7-0.2s-0.5,0-0.6,0.1
			c-0.1,0.1-0.2,0.2-0.2,0.3c0,0.1,0,0.3,0.1,0.5c0.1,0.1,0.3,0.2,0.6,0.3l0.7,0.3c0.7,0.2,1,0.7,1,1.1c0,0.3-0.1,0.7-0.5,0.9
			c-0.3,0.2-0.7,0.3-1,0.3c-0.2,0-0.6,0-0.9-0.1c-0.1,0-0.2,0-0.2,0c-0.1,0-0.1,0-0.2,0.1h-0.1v-1.4h0.1c0.1,0.5,0.2,0.7,0.5,0.9
			c0.2,0.2,0.6,0.3,0.8,0.3c0.2,0,0.3-0.1,0.6-0.2c0.1-0.1,0.2-0.2,0.2-0.5s-0.1-0.3-0.2-0.5c-0.1-0.1-0.5-0.3-0.9-0.5
			c-0.5-0.2-0.8-0.3-0.9-0.6c-0.1-0.1-0.2-0.3-0.2-0.6c0-0.3,0.1-0.6,0.3-0.8c0.2-0.2,0.6-0.3,0.9-0.3c0.2,0,0.3,0,0.6,0.1
			c0.1,0,0.2,0.1,0.3,0.1h0.1l0.1-0.1h0.3V52.8z"/>
		<path class="st2" d="M45.3,56.7v0.1h-2.8v-0.1h0.2c0.2,0,0.5-0.1,0.6-0.2c0.1-0.1,0.1-0.3,0.1-0.7V52c0-0.3,0-0.5-0.1-0.6
			c0-0.1-0.1-0.1-0.2-0.2C43,51,42.7,51,42.6,51h-0.2v-0.1h2.9V51H45c-0.2,0-0.5,0.1-0.6,0.2c-0.1,0.1-0.1,0.3-0.1,0.7v3.8
			c0,0.3,0,0.5,0.1,0.6c0,0.1,0.1,0.1,0.2,0.2c0.1,0.1,0.2,0.1,0.5,0.1H45.3z"/>
		<path class="st2" d="M48.1,53.6c0.5-0.6,1-0.8,1.5-0.8c0.2,0,0.5,0,0.6,0.1c0.2,0.1,0.3,0.3,0.5,0.6c0.1,0.2,0.1,0.5,0.1,0.8V56
			c0,0.2,0,0.5,0.1,0.5c0,0.1,0.1,0.1,0.1,0.1c0.1,0,0.2,0.1,0.5,0.1v0.1h-2.2v-0.1h0.1c0.2,0,0.3,0,0.5-0.1c0.1,0,0.1-0.1,0.1-0.2
			c0,0,0-0.2,0-0.5v-1.6c0-0.3,0-0.6-0.1-0.8c-0.1-0.1-0.2-0.2-0.6-0.2c-0.3,0-0.8,0.2-1.1,0.6v2.1c0,0.2,0,0.5,0,0.5
			c0,0.1,0.1,0.1,0.2,0.2c0.1,0,0.2,0.1,0.5,0.1v0.1h-2.2v-0.1h0.1c0.2,0,0.3,0,0.5-0.1c0.1-0.1,0.1-0.3,0.1-0.6v-1.5
			c0-0.5,0-0.8,0-0.9c0-0.1-0.1-0.2-0.1-0.2s-0.1,0-0.2,0c-0.1,0-0.2,0-0.3,0.1l-0.1-0.1l1.4-0.5h0.2V53.6z"/>
		<path class="st2" d="M52.5,52.9h2.1V53h-0.1c-0.1,0-0.2,0-0.2,0.1c-0.1,0-0.1,0.1-0.1,0.2s0,0.2,0.1,0.3l1,2.2l1-2.3
			c0.1-0.1,0.1-0.2,0.1-0.3v-0.1L56.3,53c0,0-0.1,0-0.3,0v-0.1h1.5V53c-0.1,0-0.2,0-0.3,0.1c-0.3,0.1-0.3,0.2-0.5,0.5L55,57h-0.2
			l-1.5-3.4c-0.1-0.1-0.1-0.2-0.2-0.3c-0.1-0.1-0.1-0.1-0.2-0.1c0,0-0.1,0-0.3-0.1V52.9z"/>
		<path class="st2" d="M59.4,54.4c0,0.6,0.1,1,0.5,1.4c0.3,0.3,0.7,0.5,1.1,0.5c0.3,0,0.6-0.1,0.8-0.2c0.2-0.1,0.3-0.3,0.6-0.7
			l0.1,0.1c-0.1,0.3-0.2,0.8-0.6,1c-0.3,0.3-0.7,0.5-1.3,0.5s-1-0.2-1.4-0.6s-0.6-0.9-0.6-1.5c0-0.7,0.2-1.3,0.6-1.6
			c0.3-0.3,0.9-0.6,1.5-0.6c0.5,0,0.9,0.1,1.3,0.5c0.3,0.3,0.5,0.7,0.5,1.1h-3.1V54.4z M59.4,54.1h2.1c0-0.2,0-0.5-0.1-0.6
			c-0.1-0.1-0.2-0.3-0.3-0.3c-0.1-0.1-0.3-0.1-0.5-0.1c-0.2,0-0.5,0.1-0.7,0.2C59.5,53.5,59.4,53.8,59.4,54.1"/>
		<path class="st2" d="M66.9,52.8v1.4h-0.1c-0.1-0.5-0.2-0.7-0.5-0.9c-0.2-0.1-0.5-0.2-0.7-0.2c-0.2,0-0.5,0-0.6,0.1
			c-0.2,0.1-0.2,0.2-0.2,0.3c0,0.1,0,0.3,0.1,0.5c0.1,0.1,0.3,0.2,0.6,0.3l0.7,0.3c0.7,0.2,1,0.7,1,1.1c0,0.3-0.1,0.7-0.5,0.9
			c-0.3,0.2-0.7,0.3-1,0.3c-0.2,0-0.6,0-0.9-0.1c-0.1,0-0.2,0-0.2,0c-0.1,0-0.1,0-0.2,0.1h-0.1v-1.4h0.1c0.1,0.5,0.2,0.7,0.5,0.9
			s0.6,0.3,0.8,0.3s0.3-0.1,0.6-0.2c0.1-0.1,0.2-0.2,0.2-0.5s-0.1-0.3-0.2-0.5c-0.1-0.1-0.5-0.3-0.9-0.5c-0.5-0.2-0.8-0.3-0.9-0.6
			c-0.1-0.1-0.2-0.3-0.2-0.6c0-0.3,0.1-0.6,0.3-0.8S65,53,65.4,53c0.2,0,0.3,0,0.6,0.1c0.1,0,0.2,0.1,0.3,0.1h0.1l0.1-0.1h0.3V52.8z
			"/>
		<path class="st2" d="M70.1,51.5v1.3h1v0.3h-1v2.5c0,0.2,0,0.5,0.1,0.6c0.1,0.1,0.2,0.1,0.3,0.1s0.2,0,0.3-0.1
			c0.1-0.1,0.2-0.1,0.2-0.2h0.2c-0.1,0.2-0.2,0.5-0.5,0.7c-0.2,0.1-0.5,0.2-0.7,0.2c-0.1,0-0.3,0-0.5-0.1c-0.1-0.1-0.2-0.2-0.3-0.3
			c-0.1-0.1-0.1-0.3-0.1-0.7v-2.6h-0.7V53c0.2-0.1,0.3-0.1,0.6-0.3c0.2-0.1,0.3-0.3,0.5-0.6c0.1-0.1,0.2-0.3,0.3-0.6
			C70,51.5,70.1,51.5,70.1,51.5z"/>
		<path class="st2" d="M73.9,53.6c0.3-0.3,0.5-0.5,0.6-0.5c0.1-0.1,0.3-0.2,0.5-0.2c0.1-0.1,0.3-0.1,0.5-0.1c0.2,0,0.5,0.1,0.7,0.2
			c0.2,0.1,0.3,0.3,0.3,0.6c0.3-0.3,0.6-0.6,0.8-0.7c0.2-0.1,0.5-0.1,0.7-0.1c0.2,0,0.5,0,0.6,0.1c0.2,0.1,0.3,0.2,0.5,0.6
			c0.1,0.1,0.1,0.5,0.1,0.8V56c0,0.2,0,0.5,0.1,0.5c0,0.1,0.1,0.1,0.2,0.1c0.1,0,0.2,0.1,0.5,0.1v0.1h-2.2v-0.1h0.1
			c0.2,0,0.3,0,0.5-0.1c0.1,0,0.1-0.1,0.1-0.2c0,0,0-0.2,0-0.5v-1.7c0-0.3,0-0.6-0.1-0.7c-0.1-0.2-0.3-0.2-0.6-0.2
			c-0.1,0-0.3,0-0.5,0.1c-0.1,0.1-0.3,0.2-0.6,0.5l0,0V54v1.8c0,0.2,0,0.5,0,0.5c0,0.1,0.1,0.1,0.2,0.1c0.1,0,0.2,0.1,0.5,0.1v0.2
			h-2.2v-0.1c0.2,0,0.5,0,0.5-0.1c0.1,0,0.1-0.1,0.2-0.2c0,0,0-0.2,0-0.5v-1.7c0-0.3,0-0.6-0.1-0.7c-0.1-0.2-0.3-0.2-0.6-0.2
			c-0.2,0-0.3,0-0.5,0.1c-0.2,0.1-0.5,0.2-0.6,0.5V56c0,0.2,0,0.5,0.1,0.5c0,0.1,0.1,0.1,0.2,0.2c0.1,0,0.2,0.1,0.5,0.1v0h-2.2v-0.1
			c0.2,0,0.3,0,0.5-0.1c0.1,0,0.1-0.1,0.2-0.2c0-0.1,0.1-0.2,0.1-0.5v-1.5c0-0.5,0-0.7,0-0.8c0-0.1,0-0.1-0.1-0.2c0,0-0.1,0-0.2,0
			c-0.1,0-0.2,0-0.3,0.1l-0.1-0.1l1.4-0.5h0.2v0.7H73.9z"/>
		<path class="st2" d="M81.9,54.4c0,0.6,0.1,1,0.5,1.4s0.7,0.5,1.1,0.5c0.3,0,0.6-0.1,0.8-0.2c0.2-0.1,0.3-0.3,0.6-0.7l0.1,0.1
			c-0.1,0.3-0.2,0.8-0.6,1c-0.3,0.3-0.7,0.5-1.3,0.5c-0.6,0-1-0.2-1.4-0.6c-0.3-0.3-0.6-0.9-0.6-1.5c0-0.7,0.2-1.3,0.6-1.6
			c0.3-0.3,0.9-0.6,1.5-0.6c0.5,0,0.9,0.1,1.3,0.5c0.3,0.3,0.5,0.7,0.5,1.1h-3.1V54.4z M81.9,54.1H84c0-0.2,0-0.5-0.1-0.6
			c-0.1-0.1-0.2-0.3-0.3-0.3c-0.1-0.1-0.3-0.1-0.5-0.1c-0.2,0-0.5,0.1-0.7,0.2C82.2,53.5,82,53.8,81.9,54.1"/>
		<path class="st2" d="M87.9,53.6c0.5-0.6,1-0.8,1.5-0.8c0.2,0,0.5,0,0.6,0.1c0.2,0.1,0.3,0.3,0.5,0.6c0.1,0.2,0.1,0.5,0.1,0.8V56
			c0,0.2,0,0.5,0.1,0.5c0,0.1,0.1,0.1,0.1,0.1c0.1,0,0.2,0.1,0.5,0.1v0.1h-2.3v-0.1H89c0.2,0,0.3,0,0.5-0.1c0.1,0,0.1-0.1,0.1-0.2
			c0,0,0-0.2,0-0.5v-1.6c0-0.3,0-0.6-0.1-0.8c-0.1-0.1-0.2-0.2-0.6-0.2s-0.8,0.2-1.1,0.6v2.1c0,0.2,0,0.5,0,0.5
			c0,0.1,0.1,0.1,0.2,0.2c0.1,0,0.2,0.1,0.5,0.1v0.1h-2.2v-0.1h0.1c0.2,0,0.3,0,0.5-0.1C87,56.4,87,56.2,87,56v-1.5
			c0-0.5,0-0.8,0-0.9c0-0.1-0.1-0.2-0.1-0.2s-0.1,0-0.2,0s-0.2,0-0.3,0.1l-0.1-0.1l1.4-0.5h0.2v0.7H87.9z"/>
		<path class="st2" d="M93.8,51.5v1.3h1v0.3h-1v2.5c0,0.2,0,0.5,0.1,0.6c0.1,0.1,0.2,0.1,0.3,0.1s0.2,0,0.3-0.1
			c0.1-0.1,0.2-0.1,0.2-0.2H95c-0.1,0.2-0.2,0.5-0.5,0.7c-0.2,0.1-0.5,0.2-0.7,0.2c-0.1,0-0.3,0-0.5-0.1c-0.1-0.1-0.2-0.2-0.3-0.3
			C93,56.3,93,56.1,93,55.8v-2.6h-0.7V53c0.2-0.1,0.3-0.1,0.6-0.3c0.2-0.1,0.3-0.3,0.5-0.6c0.1-0.1,0.2-0.3,0.3-0.6
			C93.6,51.5,93.8,51.5,93.8,51.5z"/>
		<path class="st2" d="M101.3,51.3v2.3h1.1c0.2,0,0.5,0,0.6-0.1c0.1-0.1,0.2-0.3,0.2-0.7h0.2v2h-0.2c0-0.2,0-0.3-0.1-0.5
			S103.1,54,103,54c-0.1,0-0.2-0.1-0.5-0.1h-1.1v1.8c0,0.3,0,0.5,0.1,0.6c0,0.1,0.1,0.1,0.2,0.2c0.1,0.1,0.3,0.1,0.5,0.1h0.2v0.1
			h-2.8v-0.1h0.2c0.2,0,0.5-0.1,0.6-0.2c0.1-0.1,0.1-0.3,0.1-0.7V52c0-0.3,0-0.5-0.1-0.6c0-0.1-0.1-0.1-0.2-0.2
			C100.1,51,100,51,99.7,51h-0.2v-0.1h4.8l0.1,1.3h-0.1c-0.1-0.2-0.2-0.5-0.3-0.6c-0.1-0.1-0.2-0.2-0.5-0.2c-0.1,0-0.5-0.1-0.8-0.1
			C102.7,51.3,101.3,51.3,101.3,51.3z"/>
		<path class="st2" d="M107.7,52.8V56c0,0.2,0,0.5,0.1,0.5c0,0.1,0.1,0.1,0.2,0.2c0.1,0,0.2,0.1,0.5,0.1l0,0h-2.3v-0.1
			c0.2,0,0.3,0,0.5,0s0.1-0.1,0.2-0.2c0-0.1,0.1-0.2,0.1-0.5v-1.5c0-0.5,0-0.7,0-0.8c0-0.1-0.1-0.1-0.1-0.2c0,0-0.1,0-0.2,0
			s-0.2,0-0.3,0.1l-0.1-0.3l1.4-0.5H107.7z M107.3,50.7c0.1,0,0.2,0,0.3,0.1c0.1,0.1,0.1,0.2,0.1,0.3c0,0.1,0,0.2-0.1,0.3
			c-0.1,0.1-0.2,0.1-0.3,0.1c-0.1,0-0.2,0-0.3-0.1c-0.1-0.1-0.1-0.2-0.1-0.3c0-0.1,0-0.2,0.1-0.3C107,50.7,107.1,50.7,107.3,50.7"/>
		<path class="st2" d="M111.1,52.8v0.9c0.3-0.6,0.8-0.9,1.1-0.9c0.2,0,0.3,0,0.5,0.1c0.1,0.1,0.2,0.2,0.2,0.3c0,0.1,0,0.2-0.1,0.2
			c-0.1,0.1-0.2,0.1-0.3,0.1c-0.1,0-0.2,0-0.3-0.1c-0.2-0.1-0.2-0.1-0.3-0.1s-0.1,0-0.2,0.1c-0.1,0.1-0.3,0.3-0.5,0.6v2
			c0,0.2,0,0.3,0.1,0.5c0,0.1,0.1,0.1,0.2,0.2c0.1,0,0.2,0.1,0.5,0.1l0,0h-2.3v-0.1c0.2,0,0.3,0,0.5-0.1c0.1,0,0.1-0.1,0.1-0.2
			c0,0,0-0.2,0-0.5v-1.5c0-0.5,0-0.7,0-0.8c0-0.1-0.1-0.1-0.1-0.2c0,0-0.1-0.1-0.2-0.1s-0.2,0-0.3,0.1v-0.1l1.4-0.5H111.1z"/>
		<path class="st2" d="M115.5,53.6c0.3-0.3,0.5-0.5,0.6-0.5c0.1-0.1,0.3-0.2,0.5-0.2c0.1-0.1,0.3-0.1,0.5-0.1c0.2,0,0.5,0.1,0.7,0.2
			c0.2,0.1,0.3,0.3,0.3,0.6c0.3-0.3,0.6-0.6,0.8-0.7c0.2-0.1,0.5-0.1,0.7-0.1s0.5,0,0.6,0.1c0.2,0.1,0.3,0.2,0.5,0.6
			c0.1,0.1,0.1,0.5,0.1,0.8V56c0,0.2,0,0.5,0.1,0.5c0,0.1,0.1,0.1,0.2,0.1s0.2,0.1,0.5,0.1v0.1h-2.2v-0.1h0.1c0.2,0,0.3,0,0.5-0.1
			c0.1,0,0.1-0.1,0.1-0.2c0,0,0-0.2,0-0.5v-1.7c0-0.3,0-0.6-0.1-0.7c-0.1-0.2-0.3-0.2-0.6-0.2c-0.1,0-0.3,0-0.5,0.1
			c-0.1,0.1-0.3,0.2-0.6,0.5l0,0V54v1.8c0,0.2,0,0.5,0,0.5c0,0.1,0.1,0.1,0.2,0.1s0.2,0.1,0.5,0.1v0.2h-2.2v-0.1
			c0.2,0,0.5,0,0.5-0.1c0.1,0,0.1-0.1,0.2-0.2c0,0,0-0.2,0-0.5v-1.7c0-0.3,0-0.6-0.1-0.7c-0.1-0.2-0.3-0.2-0.6-0.2
			c-0.2,0-0.3,0-0.5,0.1c-0.2,0.1-0.5,0.2-0.6,0.5V56c0,0.2,0,0.5,0.1,0.5c0,0.1,0.1,0.1,0.2,0.2c0.1,0,0.2,0.1,0.5,0.1v0h-2.2v-0.1
			c0.2,0,0.3,0,0.5-0.1c0.1,0,0.1-0.1,0.2-0.2c0-0.1,0.1-0.2,0.1-0.5v-1.5c0-0.5,0-0.7,0-0.8c0-0.1-0.1-0.1-0.1-0.2c0,0-0.1,0-0.2,0
			s-0.2,0-0.3,0.1l-0.1-0.1l1.4-0.5h0.2v0.7H115.5z"/>
	</g>
</g>
</svg>
