<?xml version="1.0" encoding="utf-8"?>
<!-- Generator: Adobe Illustrator 21.1.0, SVG Export Plug-In . SVG Version: 6.00 Build 0)  -->
<svg version="1.1" id="Layer_1" xmlns="http://www.w3.org/2000/svg" xmlns:xlink="http://www.w3.org/1999/xlink" x="0px" y="0px"
	 viewBox="0 0 530 166" style="enable-background:new 0 0 530 166;" xml:space="preserve">
<style type="text/css">
	.st0{display:none;fill:#131B26;stroke:#000000;stroke-width:0.25;stroke-miterlimit:10;}
	.st1{display:none;}
	.st2{display:inline;fill:#FFFFFF;}
	.st3{display:inline;fill:#32A722;}
	.st4{display:none;fill:none;stroke:#FFFFFF;stroke-width:5;stroke-miterlimit:10;}
	.st5{fill:#4BADF2;}
	.st6{fill:#FFFFFF;}
</style>
<rect id="bg" class="st0" width="530" height="166"/>
<g class="st1">
	<path class="st2" d="M179.6,42.5c0,4.4-0.1,7.5-0.3,9.3s-0.9,3.5-2.1,5c-1.2,1.5-2.8,2.7-4.8,3.5s-4.4,1.2-7,1.2
		c-2.5,0-4.8-0.4-6.8-1.1c-2-0.8-3.6-1.9-4.9-3.4c-1.2-1.5-2-3.2-2.2-5s-0.4-4.9-0.4-9.4v-7.4c0-4.4,0.1-7.5,0.3-9.3s0.9-3.5,2.1-5
		c1.2-1.5,2.8-2.7,4.8-3.5s4.4-1.2,7-1.2c2.5,0,4.8,0.4,6.8,1.1c2,0.8,3.6,1.9,4.9,3.4c1.2,1.5,2,3.2,2.2,5s0.4,4.9,0.4,9.4V42.5z
		 M167.2,28.2c0-2-0.1-3.3-0.4-3.9c-0.2-0.6-0.7-0.8-1.5-0.8c-0.6,0-1.1,0.2-1.5,0.7c-0.3,0.5-0.5,1.8-0.5,4v20.3
		c0,2.5,0.1,4.1,0.3,4.7s0.7,0.9,1.6,0.9c0.8,0,1.4-0.3,1.6-1c0.2-0.7,0.4-2.3,0.4-4.9L167.2,28.2L167.2,28.2z"/>
	<path class="st2" d="M195.5,24.9l-0.2,3.4c0.9-1.3,2-2.4,3.3-3c1.3-0.7,2.7-1,4.3-1c3.2,0,5.7,1.3,7.5,4c1-1.3,2.1-2.4,3.4-3
		c1.3-0.7,2.6-1,4.2-1c2,0,3.7,0.4,5,1.3s2.2,2,2.5,3.3c0.4,1.3,0.6,3.4,0.6,6.3v25.3h-11.5V37.3c0-3-0.1-4.9-0.3-5.7
		c-0.2-0.7-0.7-1.1-1.6-1.1c-0.8,0-1.4,0.4-1.6,1.1c-0.2,0.7-0.4,2.6-0.4,5.7v23.2h-11.5V37.9c0-3.5-0.1-5.6-0.3-6.3s-0.7-1-1.5-1
		c-0.5,0-1,0.2-1.3,0.6c-0.4,0.4-0.6,0.8-0.6,1.3s-0.1,1.7-0.1,3.4v24.7h-11.5V24.9H195.5z"/>
	<path class="st2" d="M256.9,43.3h-15.3V51c0,1.6,0.1,2.6,0.4,3.1c0.3,0.5,0.7,0.7,1.5,0.7c0.9,0,1.5-0.3,1.8-0.9
		c0.3-0.6,0.5-1.8,0.5-3.6v-4.7H257v2.6c0,2.2-0.2,3.9-0.5,5.1c-0.3,1.2-1,2.4-2.1,3.8s-2.5,2.3-4.2,3s-3.9,1-6.4,1s-4.7-0.3-6.6-1
		c-1.9-0.7-3.4-1.6-4.5-2.7c-1.1-1.2-1.8-2.4-2.2-3.8c-0.4-1.4-0.6-3.4-0.6-6.1V37.2c0-3.1,0.5-5.6,1.4-7.4s2.4-3.2,4.5-4.1
		c2.1-1,4.5-1.4,7.2-1.4c3.3,0,6.1,0.6,8.2,1.7c2.2,1.2,3.7,2.7,4.5,4.6c0.9,1.9,1.3,4.6,1.3,8L256.9,43.3L256.9,43.3z M245.1,37.5
		v-2.6c0-1.8-0.1-3-0.3-3.6c-0.2-0.5-0.7-0.8-1.3-0.8c-0.8,0-1.3,0.2-1.5,0.7s-0.3,1.7-0.3,3.7v2.6H245.1z"/>
	<path class="st2" d="M287.7,24.9v27.4c0,3.7-0.1,6.1-0.3,7.2c-0.2,1.1-0.8,2.2-2,3.4c-1.1,1.2-2.7,2.1-4.7,2.8c-2,0.6-4.6,1-7.6,1
		c-3.8,0-6.8-0.6-9.1-1.8c-2.3-1.2-3.5-3.5-3.5-6.9H272c0,1.6,0.6,2.4,1.9,2.4c0.9,0,1.5-0.2,1.8-0.7s0.4-1.5,0.4-3V54
		c-1,0.8-2.1,1.5-3.2,1.9s-2.3,0.6-3.5,0.6c-2.1,0-3.9-0.4-5.3-1.2s-2.3-1.8-2.8-3.1s-0.8-3.1-0.8-5.5V33.8c0-3.4,0.7-5.8,2-7.3
		s3.4-2.2,6.1-2.2c1.5,0,2.8,0.3,4.1,0.8c1.2,0.6,2.3,1.4,3.3,2.5l0.9-2.7C276.9,24.9,287.7,24.9,287.7,24.9z M275.8,34.3
		c0-1.6-0.1-2.7-0.3-3.1c-0.2-0.4-0.7-0.7-1.4-0.7c-0.7,0-1.2,0.3-1.5,0.8s-0.4,1.5-0.4,3v12c0,1.6,0.1,2.6,0.3,3.1
		c0.2,0.5,0.7,0.7,1.3,0.7c0.8,0,1.3-0.3,1.5-0.9c0.2-0.6,0.4-1.9,0.4-3.9v-11H275.8z"/>
	<path class="st2" d="M302.5,38.7h-11.1v-2.4c0-2.8,0.3-4.9,1-6.4s2.1-2.8,4.2-4c2.1-1.1,4.8-1.7,8.1-1.7c4,0,7,0.6,9.1,1.9
		c2,1.3,3.3,2.9,3.7,4.8c0.4,1.9,0.6,5.8,0.6,11.7v17.9h-11.5v-3.2c-0.7,1.3-1.7,2.2-2.8,2.9s-2.5,1-4.1,1c-2.1,0-4-0.5-5.7-1.6
		s-2.6-3.4-2.6-7v-2.9c0-2.7,0.5-4.5,1.4-5.5s3.2-2.1,6.8-3.4c3.9-1.4,6-2.3,6.2-2.8s0.4-1.5,0.4-3c0-1.9-0.2-3.1-0.5-3.6
		c-0.3-0.6-0.8-0.8-1.5-0.8c-0.8,0-1.3,0.2-1.5,0.7s-0.3,1.7-0.3,3.7L302.5,38.7L302.5,38.7z M306.3,43.6c-1.9,1.3-3,2.3-3.3,3.2
		s-0.5,2.1-0.5,3.7c0,1.8,0.1,3,0.4,3.6s0.8,0.8,1.6,0.8c0.7,0,1.2-0.2,1.5-0.6c0.2-0.4,0.3-1.5,0.3-3.3V43.6z"/>
	<path class="st2" d="M361.3,60.5v5.3H352c-2.2,0-3.8-0.2-4.7-0.5c-0.9-0.3-1.5-0.8-1.9-1.4c-0.3-0.6-0.5-1.7-0.5-3.4
		c-2.8-0.1-5.2-0.7-7.2-2s-3.3-2.9-4-4.8c-0.6-2-1-4.9-1-8.8V31.4c0-3,0.2-5.2,0.6-6.8c0.4-1.5,1.2-3,2.4-4.4
		c1.2-1.4,2.7-2.4,4.6-3.1s4-1,6.2-1c2.8,0,5.2,0.4,7.4,1.3c2.2,0.9,3.8,2,4.8,3.3c1.1,1.3,1.8,2.7,2.1,4.1c0.3,1.4,0.5,3.5,0.5,6.3
		v14.1c0,3.9-0.2,6.5-0.6,7.9s-1.2,2.5-2.4,3.3c-1.2,0.8-2.7,1.4-4.6,1.9c0.1,1,0.3,1.6,0.7,1.8c0.4,0.3,1.3,0.4,2.7,0.4H361.3z
		 M349,28.2c0-2-0.1-3.3-0.4-3.9c-0.2-0.6-0.7-0.8-1.5-0.8c-0.6,0-1.1,0.2-1.5,0.7c-0.3,0.5-0.5,1.8-0.5,4v20.3
		c0,2.5,0.1,4.1,0.3,4.7s0.7,0.9,1.6,0.9c0.8,0,1.4-0.3,1.6-1s0.4-2.3,0.4-4.9V28.2z"/>
	<path class="st2" d="M392.7,24.9v35.6h-12l0.2-3c-0.8,1.2-1.8,2.1-3,2.7s-2.6,0.9-4.1,0.9c-1.8,0-3.3-0.3-4.4-0.9s-2-1.3-2.6-2.3
		c-0.6-0.9-0.9-1.9-1-3c-0.1-1-0.2-3.1-0.2-6.1v-24h11.8v24.3c0,2.8,0.1,4.4,0.3,4.9c0.2,0.5,0.7,0.8,1.5,0.8c0.9,0,1.4-0.3,1.6-0.8
		s0.2-2.3,0.2-5.2v-24L392.7,24.9L392.7,24.9z"/>
	<path class="st2" d="M423.7,37.4v8.7c0,3.2-0.2,5.6-0.5,7c-0.4,1.5-1.1,2.9-2.3,4.2c-1.2,1.3-2.6,2.3-4.4,2.9
		c-1.8,0.6-3.9,0.9-6.2,0.9c-2.6,0-4.8-0.3-6.7-0.8c-1.8-0.5-3.2-1.3-4.2-2.4c-1-1.1-1.7-2.4-2.2-3.9c-0.4-1.5-0.6-3.8-0.6-6.8v-9.1
		c0-3.3,0.4-5.9,1.2-7.8c0.8-1.9,2.2-3.4,4.2-4.5s4.6-1.7,7.8-1.7c2.7,0,4.9,0.4,6.8,1.1s3.4,1.7,4.4,2.8c1,1.2,1.7,2.4,2.1,3.6
		C423.5,33,423.7,34.9,423.7,37.4z M411.9,34.7c0-1.8-0.1-3-0.3-3.5c-0.2-0.5-0.7-0.7-1.4-0.7c-0.7,0-1.2,0.2-1.4,0.7
		c-0.2,0.5-0.4,1.6-0.4,3.5v16.1c0,1.7,0.1,2.8,0.4,3.3c0.2,0.5,0.7,0.8,1.4,0.8c0.7,0,1.2-0.2,1.4-0.7c0.2-0.5,0.3-1.5,0.3-3V34.7z
		"/>
	<path class="st2" d="M440.1,20.1v5.6h3.2v5.6h-3.2v19.1c0,2.3,0.1,3.7,0.4,3.9s1.4,0.4,3.3,0.4v5.7H439c-2.7,0-4.6-0.1-5.8-0.3
		c-1.2-0.2-2.2-0.7-3-1.4c-0.9-0.7-1.4-1.6-1.6-2.6s-0.3-3.2-0.3-6.8V31.4h-2.5v-5.6h2.5v-5.6L440.1,20.1L440.1,20.1z"/>
	<path class="st2" d="M472.7,43.3h-15.3V51c0,1.6,0.1,2.6,0.4,3.1s0.7,0.7,1.5,0.7c0.9,0,1.5-0.3,1.8-0.9c0.3-0.6,0.5-1.8,0.5-3.6
		v-4.7h11.2v2.6c0,2.2-0.2,3.9-0.5,5.1c-0.3,1.2-1,2.4-2.1,3.8c-1.1,1.3-2.5,2.3-4.2,3s-3.9,1-6.4,1s-4.7-0.3-6.6-1
		s-3.4-1.6-4.5-2.7c-1.1-1.2-1.8-2.4-2.2-3.8c-0.4-1.4-0.6-3.4-0.6-6.1V37.2c0-3.1,0.5-5.6,1.4-7.4s2.4-3.2,4.5-4.1
		c2.1-1,4.5-1.4,7.2-1.4c3.3,0,6.1,0.6,8.2,1.7c2.2,1.2,3.7,2.7,4.5,4.6c0.9,1.9,1.3,4.6,1.3,8L472.7,43.3L472.7,43.3z M460.8,37.5
		v-2.6c0-1.8-0.1-3-0.3-3.6s-0.7-0.8-1.3-0.8c-0.8,0-1.3,0.2-1.5,0.7s-0.3,1.7-0.3,3.7v2.6H460.8z"/>
	<path class="st2" d="M500.8,36.3h-10.5v-1.9c0-1.6-0.1-2.7-0.3-3.1c-0.2-0.4-0.7-0.7-1.5-0.7c-0.7,0-1.2,0.2-1.5,0.6
		s-0.5,1-0.5,1.8c0,1.1,0.1,1.9,0.2,2.4c0.2,0.5,0.7,1.1,1.5,1.7c0.8,0.6,2.5,1.5,5.1,2.7c3.4,1.5,5.7,3,6.8,4.4
		c1.1,1.4,1.6,3.3,1.6,5.9c0,2.9-0.4,5.1-1.2,6.6c-0.8,1.5-2.2,2.6-4.1,3.4c-1.9,0.8-4.2,1.2-7,1.2c-3,0-5.6-0.4-7.7-1.3
		s-3.6-2-4.4-3.5s-1.2-3.7-1.2-6.7V48h10.5v2.3c0,1.9,0.1,3.2,0.4,3.7c0.3,0.6,0.8,0.9,1.6,0.9c0.8,0,1.4-0.2,1.8-0.6
		c0.3-0.4,0.5-1.2,0.5-2.4c0-1.7-0.2-2.8-0.6-3.2c-0.5-0.4-2.7-1.7-6.9-3.8c-3.5-1.8-5.6-3.4-6.4-4.9s-1.1-3.2-1.1-5.2
		c0-2.8,0.4-4.9,1.2-6.3c0.8-1.4,2.2-2.4,4.2-3.1s4.2-1.1,6.8-1.1c2.6,0,4.8,0.3,6.6,0.9c1.8,0.6,3.2,1.4,4.2,2.4s1.6,1.9,1.8,2.7
		c0.2,0.8,0.3,2.2,0.3,3.9v2.1H500.8z"/>
</g>
<g class="st1">
	<path class="st3" d="M156.3,123V95.2h-9.2v-3.5h25.6v3.5h-9.1V123H156.3z"/>
	<path class="st3" d="M174,99h4.9l1.2,4h0.2c0-0.2,0.1-0.7,0.4-1.4c0.3-0.8,0.8-1.5,1.5-2.1c0.8-0.7,1.8-1,3-1
		c0.7,0,1.5,0.1,2.4,0.3c0.9,0.2,1.5,0.3,1.8,0.4l-0.6,4.5c-0.3-0.1-0.9-0.2-1.9-0.4c-1-0.2-1.8-0.3-2.5-0.3c-0.8,0-1.5,0.2-2,0.6
		s-0.9,0.9-1.1,1.4c-0.2,0.5-0.4,0.8-0.4,0.9V123h-7V99H174z"/>
	<path class="st3" d="M192,121.8c-1.5-1.1-2.2-2.7-2.2-4.6c0-2.8,1.4-4.9,4.3-6.1c2.9-1.3,6.2-2,10.1-2.3v-1.4c0-2.2-0.3-3.7-1-4.5
		s-1.8-1.2-3.4-1.2c-0.7,0-1.6,0.1-2.5,0.4s-1.7,0.5-2.4,0.8s-1.1,0.5-1.3,0.6l-0.7-3.1c0.2-0.1,0.7-0.3,1.5-0.6
		c0.8-0.3,1.8-0.6,3-0.9s2.4-0.4,3.6-0.4c3.3,0,5.8,0.6,7.5,1.9s2.6,3.4,2.6,6.5v10.9c0,1.7,0.4,2.5,1.1,2.5c0.3,0,0.6,0,1-0.1
		s0.6-0.2,0.8-0.2l0.2,2.5c-0.2,0.1-0.6,0.2-1.3,0.3c-0.7,0.2-1.4,0.3-2.3,0.5c-0.9,0.2-1.6,0.2-2.3,0.2c-1,0-1.8-0.2-2.4-0.7
		c-0.6-0.5-0.9-1.2-1.1-2.3h-0.3c0,0.1-0.2,0.4-0.7,0.9s-1.2,1-2.2,1.4s-2.3,0.7-3.9,0.7C195.4,123.5,193.5,122.9,192,121.8z
		 M202.4,119.7c0.6-0.4,1.1-0.8,1.4-1.3c0.3-0.5,0.5-0.7,0.5-0.8v-6.3c-2.3,0.2-4.1,0.7-5.3,1.5s-1.8,2-1.8,3.6
		c0,1.3,0.3,2.2,0.8,2.9c0.6,0.7,1.3,1,2.3,1C201,120.3,201.7,120.1,202.4,119.7z"/>
	<path class="st3" d="M222,122c-1.7-1-2.9-2.4-3.9-4.2c-0.9-1.8-1.4-3.9-1.4-6.3c0-2.6,0.4-4.9,1.3-6.8c0.9-2,2.1-3.5,3.7-4.6
		c1.6-1.1,3.5-1.6,5.6-1.6c1.4,0,2.5,0.1,3.4,0.4s1.6,0.6,2,0.9c0.5,0.3,0.7,0.5,0.7,0.6h0.2V87.1l7-0.4V123h-5.8l-0.8-2.2l0,0
		c0,0.1-0.2,0.4-0.6,0.8c-0.4,0.4-1.1,0.9-2,1.3s-2.1,0.6-3.6,0.6C225.6,123.5,223.7,123,222,122z M231.6,119.3
		c0.6-0.3,1.2-0.7,1.5-1.1c0.4-0.4,0.6-0.6,0.6-0.7v-13.8c-0.1-0.1-0.3-0.3-0.6-0.5s-0.8-0.5-1.4-0.7c-0.6-0.2-1.3-0.4-2.1-0.4
		c-1.9,0-3.2,0.7-4.1,2.1c-0.8,1.4-1.2,3.7-1.2,7.1c0,2.2,0.2,4,0.6,5.2c0.4,1.2,0.9,2.1,1.6,2.5c0.7,0.5,1.7,0.7,2.9,0.7
		C230.2,119.7,230.9,119.6,231.6,119.3z"/>
	<path class="st3" d="M247.7,94.4c-0.8-0.7-1.2-1.6-1.2-2.7s0.4-2,1.2-2.7c0.7-0.6,1.7-1,2.8-1s2,0.3,2.7,0.9
		c0.8,0.7,1.2,1.6,1.2,2.7s-0.4,2-1.2,2.8c-0.8,0.6-1.7,0.9-2.7,0.9C249.4,95.4,248.5,95,247.7,94.4z M247,123V99h7v24H247z"/>
	<path class="st3" d="M260.2,99h5.6l0.9,2h0.2c0-0.1,0.3-0.3,0.9-0.7s1.4-0.8,2.5-1.2s2.4-0.6,4-0.6c2.7,0,4.7,0.7,6.1,2
		c1.3,1.3,2,3.4,2,6.2V123h-7v-15c0-2.1-0.3-3.6-0.8-4.4s-1.4-1.2-2.8-1.2c-0.9,0-1.7,0.1-2.4,0.4c-0.7,0.3-1.3,0.5-1.7,0.8
		c-0.4,0.3-0.6,0.5-0.6,0.5V123h-7L260.2,99L260.2,99z"/>
	<path class="st3" d="M288.7,133.4c-1.9-1.4-2.9-3.4-2.9-5.9c0-2.7,1.1-4.7,3.3-5.9c-0.4-0.8-0.6-1.6-0.6-2.6c0-1.9,0.8-3.5,2.3-4.7
		c-1.3-0.7-2.2-1.7-3-2.9c-0.7-1.2-1.1-2.6-1.1-4.3c0-2.9,1-5,3-6.5c2-1.4,4.6-2.2,7.8-2.2c1.4,0,2.7,0.2,4,0.5h7.1v2.8l-2.5,0.1
		c1,1.3,1.5,3,1.5,5.1c0,2.8-0.9,5-2.8,6.5s-4.3,2.3-7.4,2.3c-1.2,0-2.4-0.1-3.6-0.4c-0.7,0.5-1,1.1-1,1.8c0,0.6,0.4,1.1,1.2,1.5
		s2.2,0.5,4.1,0.5c3.8,0,6.7,0.6,8.5,1.9c1.9,1.3,2.8,3.2,2.8,5.7c0,2.8-1,5-3,6.5s-5,2.2-8.9,2.2
		C293.6,135.5,290.6,134.8,288.7,133.4z M302.1,131.3c1-0.7,1.5-1.6,1.5-2.9c0-1.3-0.5-2.2-1.7-2.8s-2.8-0.9-5-0.9
		c-2.1,0-3.8-0.3-5.1-0.8c-0.9,0.9-1.3,2-1.3,3.5c0,1.6,0.6,2.8,1.7,3.6s2.9,1.3,5.2,1.3C299.6,132.3,301.1,131.9,302.1,131.3z
		 M299.9,111.6c0.6-0.9,0.9-2.4,0.9-4.6c0-2.1-0.3-3.6-0.9-4.3c-0.6-0.8-1.5-1.2-2.7-1.2s-2.1,0.4-2.8,1.2c-0.6,0.8-0.9,2.2-0.9,4.4
		c0,2.1,0.3,3.6,1,4.5c0.6,0.9,1.6,1.4,2.8,1.4C298.4,113,299.3,112.5,299.9,111.6z"/>
	<path class="st3" d="M326.8,91.8h10.4c3.9,0,6.9,0.9,9,2.7c2.1,1.8,3.2,4.4,3.2,7.9c0,2.5-0.6,4.6-1.8,6.2s-2.7,2.8-4.6,3.6
		c-1.9,0.8-3.8,1.1-5.8,1.1H334v9.7h-7.2V91.8z M336.5,110.1c1.7,0,3-0.6,3.9-1.7c0.8-1.1,1.3-3.1,1.3-5.9s-0.4-4.8-1.3-6
		c-0.8-1.2-2.1-1.7-3.9-1.7H334v15.3C334,110.1,336.5,110.1,336.5,110.1z"/>
	<path class="st3" d="M353.8,123V87.1l7-0.4V123H353.8z"/>
	<path class="st3" d="M367.6,121.8c-1.5-1.1-2.2-2.7-2.2-4.6c0-2.8,1.4-4.9,4.3-6.1c2.9-1.3,6.2-2,10.1-2.3v-1.4
		c0-2.2-0.3-3.7-1-4.5s-1.8-1.2-3.4-1.2c-0.7,0-1.6,0.1-2.5,0.4s-1.7,0.5-2.4,0.8c-0.7,0.3-1.1,0.5-1.3,0.6l-0.7-3.1
		c0.2-0.1,0.7-0.3,1.5-0.6c0.8-0.3,1.8-0.6,3-0.9s2.4-0.4,3.6-0.4c3.3,0,5.8,0.6,7.5,1.9s2.6,3.4,2.6,6.5v10.9
		c0,1.7,0.4,2.5,1.1,2.5c0.3,0,0.6,0,1-0.1s0.6-0.2,0.8-0.2l0.2,2.5c-0.2,0.1-0.6,0.2-1.3,0.3c-0.7,0.2-1.4,0.3-2.3,0.5
		s-1.6,0.2-2.3,0.2c-1,0-1.8-0.2-2.4-0.7s-0.9-1.2-1.1-2.3h-0.3c0,0.1-0.2,0.4-0.7,0.9s-1.2,1-2.2,1.4s-2.3,0.7-3.9,0.7
		C371,123.5,369.1,122.9,367.6,121.8z M377.9,119.7c0.6-0.4,1.1-0.8,1.4-1.3s0.5-0.7,0.5-0.8v-6.3c-2.3,0.2-4.1,0.7-5.3,1.5
		c-1.2,0.8-1.8,2-1.8,3.6c0,1.3,0.3,2.2,0.8,2.9c0.6,0.7,1.3,1,2.3,1C376.6,120.3,377.3,120.1,377.9,119.7z"/>
	<path class="st3" d="M396.7,121.8c-1.2-1.1-1.8-3-1.8-5.7v-13.5h-2.5v-2.9L395,99l3.4-8.1h3.6v8h5.8v3.7H402v11.9
		c0,1.5,0.1,2.6,0.2,3.4s0.4,1.3,0.8,1.6c0.3,0.3,0.8,0.5,1.5,0.5s1.3-0.1,1.9-0.2s0.8-0.2,0.8-0.2l0.4,2.7c0,0-0.2,0.1-0.6,0.3
		c-0.4,0.2-1,0.4-1.8,0.6s-1.8,0.3-3,0.3C399.7,123.5,397.9,122.9,396.7,121.8z"/>
	<path class="st3" d="M413.8,102.7h-2.6v-2.9l2.6-0.7v-3.6c0-2.9,0.6-5.1,1.9-6.7s3.4-2.4,6.3-2.4c0.9,0,1.7,0.1,2.6,0.4
		c0.9,0.2,1.6,0.5,2.2,0.7c0.6,0.3,0.9,0.4,1.1,0.5l-0.9,2.7c-0.1-0.1-0.4-0.2-0.8-0.4c-0.4-0.2-0.9-0.4-1.5-0.5s-1-0.3-1.5-0.3
		c-0.7,0-1.2,0.2-1.5,0.5s-0.6,1-0.8,1.9c-0.2,0.9-0.3,2.3-0.3,4.2V99h6.5v3.7h-6.5V123h-7v-20.3H413.8z"/>
	<path class="st3" d="M432.2,120.2c-2.1-2.2-3.2-5.3-3.2-9.3s1.1-7.1,3.2-9.3c2.1-2.2,5.1-3.3,9-3.3s7,1.1,9.1,3.3
		c2.1,2.2,3.2,5.3,3.2,9.3s-1.1,7-3.3,9.2c-2.2,2.2-5.2,3.3-9,3.3C437.3,123.5,434.3,122.4,432.2,120.2z M444,119.4
		c0.7-0.6,1.2-1.6,1.5-2.9s0.5-3.2,0.5-5.5s-0.2-4.2-0.5-5.5s-0.8-2.3-1.5-2.9s-1.6-0.9-2.8-0.9c-1.2,0-2.1,0.3-2.8,0.9
		c-0.7,0.6-1.2,1.6-1.5,2.9s-0.5,3.2-0.5,5.5s0.2,4.2,0.5,5.5c0.3,1.4,0.8,2.3,1.5,3c0.7,0.6,1.6,0.9,2.8,0.9
		C442.4,120.3,443.3,120,444,119.4z"/>
	<path class="st3" d="M458.1,99h4.9l1.2,4h0.2c0-0.2,0.1-0.7,0.4-1.4c0.3-0.8,0.8-1.5,1.5-2.1c0.8-0.7,1.8-1,3-1
		c0.7,0,1.5,0.1,2.4,0.3c0.9,0.2,1.5,0.3,1.8,0.4l-0.6,4.5c-0.3-0.1-0.9-0.2-1.9-0.4c-1-0.2-1.8-0.3-2.5-0.3c-0.8,0-1.5,0.2-2,0.6
		s-0.9,0.9-1.1,1.4s-0.4,0.8-0.4,0.9V123h-7V99H458.1z"/>
	<path class="st3" d="M476.7,99h5.6l0.9,2.2h0.2c0-0.1,0.3-0.3,0.9-0.8s1.5-0.9,2.5-1.3s2.2-0.6,3.5-0.6c1.4,0,2.6,0.2,3.6,0.6
		c0.9,0.4,1.7,1.1,2.2,1.9c0.6-0.4,1.1-0.8,1.5-1.1c0.4-0.3,1.2-0.6,2.3-0.9c1.1-0.4,2.3-0.5,3.6-0.5c2.5,0,4.3,0.6,5.3,1.8
		c1.1,1.2,1.6,3.2,1.6,5.9V123h-7v-16.3c0-1.7-0.2-2.9-0.7-3.4c-0.4-0.6-1.1-0.8-2.1-0.8c-0.9,0-1.6,0.2-2.3,0.6
		c-0.6,0.4-1.1,0.8-1.5,1.2c0.1,0.8,0.1,1.4,0.1,1.9V123h-7v-16.3c0-1.7-0.2-2.8-0.7-3.4c-0.4-0.6-1.1-0.9-2.1-0.9
		c-0.9,0-1.7,0.2-2.4,0.6c-0.7,0.4-1.1,0.8-1.4,1.1V123h-7V99H476.7z"/>
</g>
<rect x="17.5" y="17.5" class="st4" width="105" height="105"/>
<g class="st1">
	<path class="st2" d="M93.7,92.8c0,0.7-0.2,1.3-0.7,1.9c-0.4,0.5-1,0.8-1.6,0.8H73.5V94h-0.1c3.5-1.5,6.2-4.5,8.1-9
		s2.8-10.2,2.8-17.1c0-7-1.2-12.2-3.5-15.5c-2.4-3.3-5.8-5-10.5-5c-4.6,0-8.1,1.7-10.5,5s-3.5,8.5-3.5,15.5c0,6.6,1,12.2,3,16.8
		s4.6,7.7,7.7,9.3v1.5H49.2c-0.6,0-1.2-0.3-1.6-0.8c-0.4-0.5-0.7-1.2-0.7-1.9c0-0.8,0.3-1.5,0.8-2.2l14.8,2.5
		c-2.5-1.3-4.8-3.2-6.7-5.7c-2-2.5-3.5-5.5-4.6-8.9s-1.7-7-1.7-10.7c0-7.7,1.8-13.5,5.3-17.4c3.6-3.9,8.7-5.8,15.6-5.8
		c6.8,0,12,1.9,15.6,5.8s5.3,9.7,5.3,17.4c0,5.8-1.1,11-3.4,15.6s-5.3,7.8-9.3,9.7L93,90.7C93.5,91.4,93.7,92.1,93.7,92.8z"/>
</g>
<path class="st5" d="M130.6,112.8c-3.4-0.5-2.8-5.6,0.6-5.3c5.2,0.6,10.3,1.2,15.7,2.1c3.4,0.6,2.6,5.8-0.9,5.2
	C140.9,113.9,135.8,113.2,130.6,112.8z M111.4,11c5.6,0,11.4,0.1,16.9,0.6c3.4,0.2,3.1,5.5-0.4,5.2c-5.5-0.4-11-0.6-16.6-0.6
	c-5.4,0-11,0.4-16.7,0.6c-3.4,0.1-3.8-5.1-0.2-5.2C100.1,11.4,105.6,11,111.4,11z M137.4,27.5c-3.5-0.5-2.9-5.6,0.6-5.2
	c4.8,0.5,9.9,1.3,15,2.2c3.5,0.7,2.6,5.9-0.8,5.2C147.3,28.8,142.4,28.1,137.4,27.5z M111.4,35.3c-18.3,0-36.5,2.5-53.9,6.8
	C54.1,43,53,38,56.3,37.2c18-4.7,36.5-7,55.1-7h2.3c3.4,0,3.4,5.2,0,5.2L111.4,35.3z M49.6,53.9c-3.3,0.9-4.7-3.9-1.4-4.9
	c17.5-5.3,35.6-8.3,53.9-9c3.4-0.1,3.8,5.1,0.2,5.2C84.1,45.8,66.5,49,49.6,53.9z M135.7,46.3c-3.4-0.5-2.8-5.6,0.6-5.2
	c5,0.6,10.2,1.3,15.3,2.3c3.4,0.7,2.2,5.9-1.2,5.2C145.5,47.6,140.6,46.8,135.7,46.3z M165.1,51.8c-3.3-0.9-2.1-6.1,1.2-5.3
	c3.2,0.9,6,1.8,9,2.6c3.3,1.1,1.9,6-1.4,4.9C170.8,53.2,167.9,52.2,165.1,51.8L165.1,51.8z M45.1,64.9c-3.3,1.2-5.1-3.8-1.8-4.8
	C53.5,56.7,64,54,74.7,52.2c3.5-0.5,4.3,4.7,0.8,5.2C65.1,59.3,54.8,61.6,45.1,64.9L45.1,64.9z M111.4,54.5c-6,0-12.3,0.2-18.2,0.8
	c-3.5,0.4-4-4.8-0.6-5.2c6.3-0.6,12.5-0.8,18.8-0.8c6.2,0,12.2,0.2,18.2,0.7c3.4,0.2,3.1,5.4-0.4,5.2
	C123.3,54.7,117.3,54.5,111.4,54.5L111.4,54.5z M42.4,75.5c-3.3,1.1-5-3.8-1.8-4.9c4.6-1.6,9.2-2.9,13.9-4.2
	c3.3-0.8,4.7,4.1,1.4,4.9C51.3,72.6,46.6,73.9,42.4,75.5L42.4,75.5z M168.6,71.8c-3.3-0.9-1.8-5.8,1.5-4.9c4.1,1.2,8.5,2.5,12.5,3.9
	c3.3,1.2,1.6,6.1-1.6,4.9C176.9,74.1,172.8,72.8,168.6,71.8z M124.8,74c-3.4-0.1-3.2-5.3,0.4-5.2c9.9,0.6,19.9,1.9,29.3,3.8
	c3.5,0.7,2.6,5.9-0.8,5.2C144,75.8,134.4,74.6,124.8,74z M52.3,101c-3.3,1.1-4.7-3.9-1.4-4.8C65.7,91.7,81.5,89,97.5,88
	c3.4-0.2,3.6,4.9,0.2,5.2C82.3,94.2,67.1,96.8,52.3,101L52.3,101z M118.9,92.9c-3.4-0.2-3.2-5.4,0.2-5.2c13.2,0.4,26,2,38.4,4.7
	c3.3,0.7,2.2,5.9-1.2,5.2C144,94.8,131.5,93.3,118.9,92.9L118.9,92.9z M45.8,112.5c-3.3,1.1-4.7-3.9-1.4-4.8c6.7-2.2,14-4.1,21-5.8
	c3.4-0.7,4.6,4.5,1.1,5.2C59.5,108.6,52.6,110.4,45.8,112.5z M111.4,102.3c-9.3,0-18.7,0.6-27.7,1.8c-3.4,0.5-4-4.7-0.6-5.2
	c9.4-1.2,18.9-1.8,28.3-1.8c6.1,0,12.1,0.2,18.2,0.7c3.4,0.4,2.8,5.5-0.6,5.3C123.1,102.5,117.2,102.3,111.4,102.3L111.4,102.3z
	 M166.4,109.4c-3.3-0.8-1.9-5.8,1.4-4.8c3.6,0.9,7.4,2,10.9,3.2c3.3,0.9,1.9,5.9-1.4,4.8L166.4,109.4z M111.4,111.8
	c-21.4,0-42,3.3-61.7,9c-3.3,1.1-4.7-3.9-1.4-4.8c20.4-6.2,41.7-9.4,63.1-9.4c2.3,0,4.5,0.1,6.3,0.1c3.5,0,3.5,5.2,0,5.2
	C115.6,111.9,113.4,111.8,111.4,111.8z M54.8,129c-3.3,0.8-4.7-4-1.4-4.9c14.7-4,29.8-6.5,45-7.4c3.5-0.4,3.8,4.8,0.4,5.2
	C83.6,122.7,68.8,125.2,54.8,129L54.8,129z M120.2,121.6c-3.4-0.1-3.2-5.3,0.2-5.2c3.1,0.2,6.2,0.4,9.4,0.6c3.4,0.4,2.8,5.5-0.6,5.2
	C126.4,121.9,123.2,121.8,120.2,121.6z M69.9,144.6c-3.5,0.7-4.3-4.5-0.9-5.2c3.1-0.6,6.1-1.2,9.4-1.5c3.4-0.5,4,4.7,0.6,5.2
	C75.9,143.5,72.8,144,69.9,144.6z M111.4,140.6c-5,0-9.9,0.1-14.8,0.6c-3.4,0.2-4-4.9-0.6-5.2c5.2-0.5,10.3-0.6,15.4-0.6
	c8.1,0,15.7,0.5,23.5,1.2c3.4,0.2,2.8,5.4-0.6,5.2C126.7,141,119,140.6,111.4,140.6z M111.4,150.1c-9.8,0-19.4,0.7-29,2
	c-3.4,0.5-4-4.7-0.6-5.2c9.6-1.3,19.6-2,29.6-2c2,0,3.8,0.1,5.4,0.1c3.4,0,3.4,5.2,0,5.2C114.9,150.2,113.1,150.1,111.4,150.1z
	 M128.8,150.8c-3.4-0.5-2.8-5.6,0.6-5.2c4.1,0.5,8.1,0.8,12,1.3c3.4,0.5,2.8,5.6-0.6,5.2C136.9,151.7,132.9,151.3,128.8,150.8z
	 M111.4,154.6c3.8,0,7.6,0.1,11.4,0.2c3.4,0.1,3.2,5.4-0.2,5.2c-3.8-0.1-7.4-0.2-11.2-0.2s-7.3,0.1-10.9,0.2c-3.4,0.2-3.8-5-0.2-5.2
	C103.7,154.7,107.6,154.6,111.4,154.6z M41.8,85.3c-3.3,1.2-5-3.8-1.8-4.9C61.4,73,83.9,69,106.5,68.6c3.4,0,3.4,5.2,0,5.2
	C84.5,74.1,62.6,78,41.8,85.3z M111.4,78.1c9.6,0,19,0.5,28.3,1.6c3.5,0.5,2.9,5.6-0.5,5.2c-9.2-1.1-18.5-1.6-27.8-1.6
	c-7.4,0-14.8,0.2-21.9,1.1c-3.4,0.5-4-4.7-0.6-5.2C96.3,78.3,104,78.1,111.4,78.1L111.4,78.1z M72.9,81.4c3.5-0.6,4.3,4.6,0.9,5.2
	c-10.9,2-21.7,4.6-32.1,8.2c-3.3,1.1-5-3.8-1.8-4.9C50.8,86.2,61.8,83.4,72.9,81.4z M61.3,136.9c-3.3,0.9-4.5-4-1.1-4.8
	c20.2-5.1,41.5-7.1,63.6-6c3.4,0.2,3.1,5.4-0.4,5.2C102.6,130.2,81.7,132.1,61.3,136.9L61.3,136.9z M125.8,35.8
	c-3.5-0.4-3.2-5.5,0.2-5.2c4,0.2,8.1,0.7,12.1,1.1c3.4,0.5,2.8,5.6-0.6,5.2C133.6,36.5,129.6,36,125.8,35.8z M72.8,67.5
	c-3.4,0.7-4.2-4.5-0.8-5.2c14.6-2.7,29.5-3.9,44.4-3.5c3.5,0,3.5,5.2,0,5.2C101.8,63.6,87.2,64.8,72.8,67.5L72.8,67.5z M89.3,27
	C83,27.6,77,28.4,70.9,29.6c-3.4,0.7-4.2-4.5-0.8-5.2c6-1.2,12.3-2,18.6-2.6c6.1-0.7,12.1-1.1,18.2-1.2c3.5-0.1,3.5,5,0,5.2
	C101,25.9,95.1,26.3,89.3,27z M135.1,65.3c-3.4-0.5-2.6-5.6,0.9-5.2c2.9,0.4,6,0.8,9,1.3c3.4,0.4,2.6,5.5-0.9,5.2
	C141.1,66.1,138.1,65.7,135.1,65.3z M149.2,134.3c-3.4-0.6-2.6-5.8,0.9-5.2c4.5,0.7,8.6,1.9,12.8,2.9c3.3,0.8,2.1,5.8-1.2,4.8
	C157.5,135.9,153.4,135,149.2,134.3L149.2,134.3z"/>
<g>
	<path class="st6" d="M223.9,19.7h24.4v11.1h-10v10.5h8.9v10.5h-8.9V75h-14.4V19.7z"/>
	<path class="st6" d="M265.5,19.7v7.2h-14.2v-7.2H265.5z M265.5,29.6V75h-14.2V29.6H265.5z"/>
	<path class="st6" d="M284.5,29.6l-0.2,4.2c1-1.7,2.2-2.9,3.7-3.7c1.4-0.8,3.1-1.2,5-1.2c2.4,0,4.3,0.6,5.8,1.7
		c1.5,1.1,2.5,2.5,2.9,4.2c0.4,1.7,0.6,4.5,0.6,8.5V75h-13.8V43.6c0-3.1-0.1-5-0.3-5.7s-0.8-1-1.7-1c-1,0-1.6,0.4-1.8,1.2
		c-0.3,0.8-0.4,2.9-0.4,6.3V75h-13.8V29.6H284.5z"/>
	<path class="st6" d="M338.4,53.1h-17.9v9.8c0,2.1,0.1,3.4,0.4,4c0.3,0.6,0.9,0.9,1.7,0.9c1,0,1.7-0.4,2.1-1.2
		c0.4-0.8,0.5-2.3,0.5-4.6v-6h13.1v3.3c0,2.8-0.2,5-0.5,6.5s-1.2,3.1-2.5,4.8s-2.9,3-4.9,3.8c-2,0.9-4.5,1.3-7.5,1.3
		c-2.9,0-5.5-0.4-7.7-1.3c-2.2-0.8-4-2-5.2-3.5c-1.2-1.5-2.1-3.1-2.6-4.9c-0.5-1.8-0.7-4.3-0.7-7.7V45.3c0-4,0.5-7.1,1.6-9.4
		c1.1-2.3,2.8-4,5.3-5.3c2.4-1.2,5.2-1.8,8.4-1.8c3.9,0,7.1,0.7,9.6,2.2s4.3,3.4,5.3,5.8c1,2.4,1.5,5.8,1.5,10.2V53.1z M324.5,45.7
		v-3.3c0-2.3-0.1-3.9-0.4-4.5c-0.3-0.7-0.8-1-1.5-1c-1,0-1.5,0.3-1.8,0.9c-0.2,0.6-0.3,2.1-0.3,4.7v3.3H324.5z"/>
	<path class="st6" d="M370.3,29.6l-5.5,21.7l6.7,23.7H358c-1.3-6-2.3-11.1-3-15.4c-0.9,5.4-1.9,10.5-3,15.4h-11.5l5.9-23.7
		l-5.9-21.7H352c1.9,9.3,2.9,14.5,3,15.8c1.3-7.7,2.3-13,3-15.8H370.3z"/>
	<path class="st6" d="M254.4,103.4H241v-4.1c0-1.9-0.2-3.1-0.5-3.7c-0.3-0.5-0.9-0.8-1.7-0.8c-0.9,0-1.5,0.4-2,1.1
		c-0.4,0.7-0.7,1.8-0.7,3.2c0,1.8,0.2,3.2,0.7,4.2c0.5,0.9,1.8,2.1,4.1,3.4c6.4,3.8,10.4,6.9,12.1,9.4c1.7,2.4,2.5,6.4,2.5,11.8
		c0,3.9-0.5,6.8-1.4,8.7c-0.9,1.9-2.7,3.4-5.3,4.7c-2.6,1.3-5.7,1.9-9.2,1.9c-3.9,0-7.1-0.7-9.9-2.2s-4.5-3.3-5.3-5.6
		c-0.8-2.3-1.3-5.5-1.3-9.6v-3.6h13.4v6.7c0,2.1,0.2,3.4,0.6,4c0.4,0.6,1,0.9,2,0.9s1.7-0.4,2.1-1.1c0.5-0.8,0.7-1.9,0.7-3.3
		c0-3.3-0.4-5.4-1.3-6.4c-0.9-1-3.2-2.7-6.7-5c-3.6-2.4-5.9-4.1-7.1-5.2c-1.2-1.1-2.1-2.6-2.9-4.4c-0.8-1.9-1.1-4.3-1.1-7.2
		c0-4.2,0.5-7.3,1.6-9.3c1.1-2,2.8-3.5,5.2-4.6c2.4-1.1,5.3-1.7,8.8-1.7c3.7,0,6.9,0.6,9.6,1.8c2.6,1.2,4.4,2.7,5.2,4.6
		c0.9,1.8,1.3,5,1.3,9.3V103.4z"/>
	<path class="st6" d="M274.2,90.6v7.1h3.7v7.2h-3.7v24.3c0,3,0.2,4.6,0.5,5c0.3,0.3,1.6,0.5,3.8,0.5v7.3H273c-3.1,0-5.4-0.1-6.7-0.4
		c-1.3-0.3-2.5-0.9-3.6-1.8c-1-0.9-1.7-2-1.9-3.2c-0.3-1.2-0.4-4.1-0.4-8.6v-23h-3v-7.2h3v-7.1H274.2z"/>
	<path class="st6" d="M312.2,112.6v11.1c0,4.1-0.2,7.1-0.6,9s-1.3,3.7-2.6,5.3c-1.3,1.7-3.1,2.9-5.2,3.7c-2.1,0.8-4.5,1.2-7.3,1.2
		c-3.1,0-5.6-0.3-7.8-1c-2.1-0.7-3.8-1.7-4.9-3c-1.2-1.4-2-3-2.5-4.9c-0.5-1.9-0.8-4.8-0.8-8.7v-11.6c0-4.2,0.5-7.5,1.4-9.9
		c0.9-2.4,2.6-4.3,4.9-5.7c2.4-1.4,5.4-2.2,9.1-2.2c3.1,0,5.8,0.5,8,1.4c2.2,0.9,3.9,2.1,5.1,3.6c1.2,1.5,2,3,2.5,4.6
		C312,107,312.2,109.4,312.2,112.6z M298.4,109.2c0-2.3-0.1-3.8-0.4-4.4c-0.3-0.6-0.8-0.9-1.6-0.9s-1.4,0.3-1.6,0.9
		s-0.4,2.1-0.4,4.4v20.5c0,2.1,0.1,3.5,0.4,4.2c0.3,0.6,0.8,1,1.6,1c0.8,0,1.4-0.3,1.6-0.9c0.3-0.6,0.4-1.9,0.4-3.8V109.2z"/>
	<path class="st6" d="M347.3,113.8h-13v-5.2c0-1.8-0.1-3.1-0.4-3.7c-0.3-0.7-0.8-1-1.6-1c-0.8,0-1.3,0.3-1.6,0.9s-0.4,1.8-0.4,3.8
		v21.4c0,1.6,0.2,2.8,0.6,3.6c0.4,0.8,1,1.2,1.8,1.2c0.9,0,1.6-0.4,1.9-1.3c0.3-0.8,0.5-2.4,0.5-4.8v-5.4h12.3
		c0,3.6-0.2,6.3-0.4,8.2c-0.2,1.8-1,3.7-2.3,5.6c-1.3,1.9-3,3.3-5,4.3c-2.1,1-4.6,1.5-7.7,1.5c-3.9,0-7-0.7-9.3-2
		c-2.3-1.3-3.9-3.2-4.8-5.6c-0.9-2.4-1.4-5.8-1.4-10.2v-12.9c0-3.9,0.4-6.8,1.2-8.7c0.8-2,2.4-3.7,5-5.2c2.5-1.5,5.6-2.3,9.2-2.3
		c3.6,0,6.7,0.8,9.2,2.3c2.6,1.5,4.2,3.5,5.1,5.8C346.9,106.2,347.3,109.5,347.3,113.8z"/>
	<path class="st6" d="M381.1,96.6l-5.6,18.1l7.3,27.3h-13.3l-4.3-19.8l0,19.8h-13.8V86.7h13.8l0,23.2l4.3-13.2H381.1z"/>
</g>
</svg>
