<?xml version="1.0" encoding="UTF-8"?>
<svg xmlns="http://www.w3.org/2000/svg" xmlns:xlink="http://www.w3.org/1999/xlink" width="128pt" height="40pt" viewBox="0 0 128 40" version="1.1">
<g id="surface1">
<path style=" stroke:none;fill-rule:evenodd;fill:rgb(20%,20%,20%);fill-opacity:1;" d="M 39.210938 27.132812 L 41.066406 27.132812 L 41.066406 32.40625 L 41.746094 32.40625 L 41.746094 27.132812 L 43.601562 27.132812 L 43.601562 26.527344 L 39.210938 26.527344 Z M 39.210938 27.132812 "/>
<path style=" stroke:none;fill-rule:evenodd;fill:rgb(20%,20%,20%);fill-opacity:1;" d="M 46.4375 27.925781 C 46.128906 27.925781 45.851562 27.988281 45.609375 28.109375 C 45.371094 28.230469 45.183594 28.398438 45.054688 28.609375 L 45.011719 28.609375 C 45.035156 28.460938 45.042969 28.269531 45.042969 28.042969 L 45.042969 26.148438 L 44.378906 26.148438 L 44.378906 32.40625 L 45.042969 32.40625 L 45.042969 30.101562 C 45.042969 29.527344 45.152344 29.113281 45.363281 28.863281 C 45.574219 28.613281 45.910156 28.484375 46.375 28.484375 C 46.722656 28.484375 46.976562 28.574219 47.140625 28.75 C 47.300781 28.929688 47.382812 29.195312 47.382812 29.554688 L 47.382812 32.40625 L 48.046875 32.40625 L 48.046875 29.53125 C 48.046875 28.972656 47.914062 28.566406 47.644531 28.308594 C 47.378906 28.054688 46.976562 27.925781 46.4375 27.925781 Z M 46.4375 27.925781 "/>
<path style=" stroke:none;fill-rule:evenodd;fill:rgb(20%,20%,20%);fill-opacity:1;" d="M 49.75 26.363281 C 49.636719 26.363281 49.542969 26.398438 49.46875 26.46875 C 49.394531 26.539062 49.355469 26.652344 49.355469 26.804688 C 49.355469 26.953125 49.394531 27.066406 49.46875 27.140625 C 49.542969 27.214844 49.636719 27.25 49.75 27.25 C 49.855469 27.25 49.949219 27.214844 50.027344 27.140625 C 50.101562 27.066406 50.140625 26.953125 50.140625 26.804688 C 50.140625 26.652344 50.101562 26.542969 50.027344 26.46875 C 49.949219 26.398438 49.855469 26.363281 49.75 26.363281 Z M 49.75 26.363281 "/>
<path style=" stroke:none;fill-rule:evenodd;fill:rgb(20%,20%,20%);fill-opacity:1;" d="M 49.414062 28 L 50.078125 28 L 50.078125 32.40625 L 49.414062 32.40625 Z M 49.414062 28 "/>
<path style=" stroke:none;fill-rule:evenodd;fill:rgb(20%,20%,20%);fill-opacity:1;" d="M 53.5625 27.917969 C 53.261719 27.917969 52.988281 27.976562 52.742188 28.097656 C 52.496094 28.214844 52.304688 28.382812 52.167969 28.601562 L 52.136719 28.601562 L 52.027344 28 L 51.488281 28 L 51.488281 32.40625 L 52.152344 32.40625 L 52.152344 30.09375 C 52.152344 29.519531 52.257812 29.109375 52.472656 28.859375 C 52.6875 28.609375 53.023438 28.484375 53.480469 28.484375 C 53.828125 28.484375 54.082031 28.574219 54.246094 28.75 C 54.410156 28.929688 54.492188 29.195312 54.492188 29.554688 L 54.492188 32.40625 L 55.15625 32.40625 L 55.15625 29.53125 C 55.15625 28.96875 55.023438 28.558594 54.753906 28.300781 C 54.488281 28.046875 54.089844 27.917969 53.5625 27.917969 Z M 53.5625 27.917969 "/>
<path style=" stroke:none;fill-rule:evenodd;fill:rgb(20%,20%,20%);fill-opacity:1;" d="M 59.90625 28 L 59.117188 28 L 57.703125 29.507812 C 57.46875 29.773438 57.292969 29.988281 57.175781 30.148438 L 57.144531 30.148438 C 57.167969 29.839844 57.175781 29.613281 57.175781 29.464844 L 57.175781 26.148438 L 56.519531 26.148438 L 56.519531 32.40625 L 57.175781 32.40625 L 57.175781 30.757812 L 57.679688 30.324219 L 59.226562 32.40625 L 60.03125 32.40625 L 58.128906 29.878906 Z M 59.90625 28 "/>
<path style=" stroke:none;fill-rule:evenodd;fill:rgb(20%,20%,20%);fill-opacity:1;" d="M 66.277344 29.324219 L 66.277344 29.285156 C 66.550781 29.238281 66.769531 29.105469 66.933594 28.878906 C 67.097656 28.65625 67.179688 28.363281 67.179688 28.015625 C 67.179688 27.496094 66.992188 27.117188 66.617188 26.882812 C 66.242188 26.644531 65.640625 26.527344 64.808594 26.527344 L 62.988281 26.527344 L 62.988281 32.40625 L 65.175781 32.40625 C 65.839844 32.40625 66.363281 32.257812 66.75 31.957031 C 67.132812 31.65625 67.324219 31.238281 67.324219 30.703125 C 67.324219 30.324219 67.246094 30.019531 67.082031 29.792969 C 66.917969 29.566406 66.648438 29.410156 66.277344 29.324219 Z M 64.226562 27.546875 L 64.878906 27.546875 C 65.234375 27.546875 65.496094 27.597656 65.660156 27.695312 C 65.824219 27.792969 65.902344 27.953125 65.902344 28.179688 C 65.902344 28.421875 65.828125 28.59375 65.679688 28.699219 C 65.527344 28.804688 65.285156 28.855469 64.949219 28.855469 L 64.226562 28.855469 C 64.226562 28.855469 64.226562 27.546875 64.226562 27.546875 Z M 65.792969 31.183594 C 65.632812 31.3125 65.378906 31.378906 65.035156 31.378906 L 64.230469 31.378906 L 64.230469 29.84375 L 64.996094 29.847656 C 65.691406 29.847656 66.039062 30.089844 66.039062 30.578125 C 66.039062 30.847656 65.957031 31.050781 65.792969 31.183594 Z M 65.792969 31.183594 "/>
<path style=" stroke:none;fill-rule:evenodd;fill:rgb(20%,20%,20%);fill-opacity:1;" d="M 68.496094 26.527344 L 69.738281 26.527344 L 69.738281 32.40625 L 68.496094 32.40625 Z M 68.496094 26.527344 "/>
<path style=" stroke:none;fill-rule:evenodd;fill:rgb(20%,20%,20%);fill-opacity:1;" d="M 73.433594 30.144531 L 74.542969 30.144531 L 74.542969 31.371094 C 74.277344 31.425781 74.011719 31.453125 73.753906 31.453125 C 73.257812 31.453125 72.878906 31.28125 72.621094 30.945312 C 72.359375 30.609375 72.230469 30.121094 72.230469 29.484375 C 72.230469 28.871094 72.390625 28.386719 72.714844 28.023438 C 73.039062 27.660156 73.46875 27.480469 74.003906 27.480469 C 74.464844 27.480469 74.910156 27.585938 75.335938 27.800781 L 75.75 26.804688 C 75.191406 26.5625 74.613281 26.441406 74.011719 26.441406 C 73.054688 26.441406 72.304688 26.707031 71.761719 27.238281 C 71.222656 27.769531 70.953125 28.507812 70.953125 29.457031 C 70.953125 30.433594 71.183594 31.183594 71.652344 31.707031 C 72.117188 32.226562 72.792969 32.488281 73.675781 32.488281 C 74.023438 32.488281 74.363281 32.464844 74.695312 32.414062 C 75.023438 32.363281 75.378906 32.277344 75.753906 32.15625 L 75.753906 29.105469 L 73.433594 29.105469 C 73.433594 29.105469 73.433594 30.144531 73.433594 30.144531 Z M 73.433594 30.144531 "/>
<path style=" stroke:none;fill-rule:evenodd;fill:rgb(15.686275%,65.098039%,29.019608%);fill-opacity:1;" d="M 78.613281 27.132812 L 80.46875 27.132812 L 80.46875 32.40625 L 81.148438 32.40625 L 81.148438 27.132812 L 83.003906 27.132812 L 83.003906 26.527344 L 78.613281 26.527344 Z M 78.613281 27.132812 "/>
<path style=" stroke:none;fill-rule:evenodd;fill:rgb(15.686275%,65.098039%,29.019608%);fill-opacity:1;" d="M 85.027344 28.152344 C 84.800781 28.308594 84.601562 28.53125 84.441406 28.816406 L 84.40625 28.816406 L 84.332031 28 L 83.785156 28 L 83.785156 32.410156 L 84.449219 32.410156 L 84.449219 30.042969 C 84.449219 29.609375 84.574219 29.25 84.828125 28.960938 C 85.078125 28.671875 85.382812 28.527344 85.738281 28.527344 C 85.878906 28.527344 86.039062 28.546875 86.21875 28.585938 L 86.3125 27.964844 C 86.15625 27.933594 85.980469 27.917969 85.789062 27.917969 C 85.511719 27.917969 85.257812 27.996094 85.027344 28.152344 Z M 85.027344 28.152344 "/>
<path style=" stroke:none;fill-rule:evenodd;fill:rgb(15.686275%,65.098039%,29.019608%);fill-opacity:1;" d="M 88.78125 27.925781 C 88.523438 27.925781 88.265625 27.960938 88.007812 28.027344 C 87.75 28.09375 87.515625 28.1875 87.296875 28.304688 L 87.5 28.816406 C 87.960938 28.589844 88.375 28.476562 88.742188 28.476562 C 89.066406 28.476562 89.304688 28.5625 89.453125 28.722656 C 89.601562 28.890625 89.675781 29.144531 89.675781 29.492188 L 89.675781 29.765625 L 88.929688 29.789062 C 87.511719 29.832031 86.800781 30.300781 86.800781 31.191406 C 86.800781 31.605469 86.925781 31.925781 87.171875 32.152344 C 87.417969 32.375 87.761719 32.488281 88.195312 32.488281 C 88.519531 32.488281 88.792969 32.441406 89.011719 32.34375 C 89.226562 32.242188 89.445312 32.058594 89.664062 31.78125 L 89.695312 31.78125 L 89.828125 32.410156 L 90.320312 32.410156 L 90.320312 29.398438 C 90.320312 28.882812 90.195312 28.511719 89.945312 28.277344 C 89.691406 28.042969 89.304688 27.925781 88.78125 27.925781 Z M 89.300781 31.59375 C 89.066406 31.824219 88.742188 31.9375 88.328125 31.9375 C 88.066406 31.9375 87.863281 31.875 87.71875 31.75 C 87.574219 31.621094 87.5 31.441406 87.5 31.195312 C 87.5 30.890625 87.617188 30.660156 87.847656 30.515625 C 88.082031 30.367188 88.464844 30.285156 88.992188 30.269531 L 89.65625 30.238281 L 89.65625 30.636719 C 89.65625 31.046875 89.539062 31.367188 89.300781 31.59375 Z M 89.300781 31.59375 "/>
<path style=" stroke:none;fill-rule:evenodd;fill:rgb(15.686275%,65.098039%,29.019608%);fill-opacity:1;" d="M 94.640625 27.941406 L 94.65625 28.25 L 94.6875 28.570312 L 94.632812 28.570312 C 94.316406 28.136719 93.859375 27.917969 93.261719 27.917969 C 92.691406 27.917969 92.246094 28.117188 91.925781 28.523438 C 91.605469 28.921875 91.445312 29.488281 91.445312 30.214844 C 91.445312 30.941406 91.605469 31.503906 91.925781 31.898438 C 92.246094 32.292969 92.691406 32.488281 93.265625 32.488281 C 93.875 32.488281 94.332031 32.265625 94.640625 31.816406 L 94.675781 31.816406 L 94.765625 32.40625 L 95.304688 32.40625 L 95.304688 26.148438 L 94.640625 26.148438 Z M 94.644531 30.355469 C 94.644531 30.910156 94.539062 31.308594 94.335938 31.558594 C 94.132812 31.804688 93.800781 31.929688 93.347656 31.929688 C 92.949219 31.929688 92.648438 31.785156 92.445312 31.496094 C 92.238281 31.210938 92.136719 30.785156 92.136719 30.222656 C 92.136719 29.667969 92.238281 29.238281 92.445312 28.933594 C 92.652344 28.628906 92.949219 28.476562 93.339844 28.476562 C 93.792969 28.476562 94.125 28.609375 94.332031 28.878906 C 94.539062 29.144531 94.644531 29.589844 94.644531 30.214844 C 94.644531 30.214844 94.644531 30.355469 94.644531 30.355469 Z M 94.644531 30.355469 "/>
<path style=" stroke:none;fill-rule:evenodd;fill:rgb(15.686275%,65.098039%,29.019608%);fill-opacity:1;" d="M 98.398438 27.917969 C 97.808594 27.917969 97.34375 28.128906 96.996094 28.542969 C 96.648438 28.964844 96.472656 29.527344 96.472656 30.238281 C 96.472656 30.945312 96.660156 31.496094 97.035156 31.894531 C 97.410156 32.289062 97.921875 32.488281 98.570312 32.488281 C 98.867188 32.488281 99.121094 32.464844 99.328125 32.421875 C 99.539062 32.378906 99.757812 32.304688 99.996094 32.199219 L 99.996094 31.605469 C 99.535156 31.804688 99.066406 31.902344 98.59375 31.902344 C 98.144531 31.902344 97.796875 31.769531 97.550781 31.5 C 97.304688 31.234375 97.175781 30.839844 97.160156 30.324219 L 100.183594 30.324219 L 100.183594 29.898438 C 100.183594 29.304688 100.027344 28.824219 99.703125 28.460938 C 99.382812 28.097656 98.945312 27.917969 98.398438 27.917969 Z M 97.175781 29.785156 C 97.214844 29.375 97.335938 29.054688 97.546875 28.824219 C 97.757812 28.59375 98.039062 28.476562 98.390625 28.476562 C 98.738281 28.476562 99.003906 28.589844 99.191406 28.816406 C 99.375 29.039062 99.472656 29.363281 99.472656 29.785156 C 99.472656 29.785156 97.175781 29.785156 97.175781 29.785156 Z M 97.175781 29.785156 "/>
<path style=" stroke:none;fill-rule:evenodd;fill:rgb(15.686275%,65.098039%,29.019608%);fill-opacity:1;" d="M 103.546875 32.40625 L 104.226562 32.40625 L 104.226562 29.890625 L 106.65625 29.890625 L 106.65625 29.285156 L 104.226562 29.285156 L 104.226562 27.132812 L 106.8125 27.132812 L 106.8125 26.527344 L 103.546875 26.527344 Z M 103.546875 32.40625 "/>
<path style=" stroke:none;fill-rule:evenodd;fill:rgb(15.686275%,65.098039%,29.019608%);fill-opacity:1;" d="M 109.460938 27.917969 C 108.824219 27.917969 108.328125 28.121094 107.972656 28.519531 C 107.613281 28.917969 107.433594 29.480469 107.433594 30.199219 C 107.433594 30.664062 107.519531 31.070312 107.683594 31.414062 C 107.851562 31.757812 108.082031 32.023438 108.386719 32.207031 C 108.691406 32.394531 109.042969 32.488281 109.433594 32.488281 C 110.066406 32.488281 110.566406 32.285156 110.925781 31.882812 C 111.285156 31.480469 111.464844 30.917969 111.464844 30.199219 C 111.464844 29.5 111.285156 28.945312 110.925781 28.535156 C 110.5625 28.125 110.074219 27.917969 109.460938 27.917969 Z M 110.441406 31.488281 C 110.214844 31.78125 109.882812 31.929688 109.449219 31.929688 C 109.015625 31.929688 108.683594 31.78125 108.460938 31.488281 C 108.234375 31.191406 108.121094 30.761719 108.121094 30.199219 C 108.121094 29.632812 108.234375 29.203125 108.457031 28.917969 C 108.675781 28.628906 109.007812 28.484375 109.441406 28.484375 C 109.882812 28.484375 110.214844 28.632812 110.441406 28.921875 C 110.664062 29.214844 110.777344 29.640625 110.777344 30.199219 C 110.777344 30.765625 110.664062 31.195312 110.441406 31.488281 Z M 110.441406 31.488281 "/>
<path style=" stroke:none;fill-rule:evenodd;fill:rgb(15.686275%,65.098039%,29.019608%);fill-opacity:1;" d="M 113.878906 28.152344 C 113.648438 28.308594 113.449219 28.53125 113.289062 28.816406 L 113.257812 28.816406 L 113.179688 28 L 112.632812 28 L 112.632812 32.410156 L 113.296875 32.410156 L 113.296875 30.042969 C 113.296875 29.609375 113.421875 29.25 113.675781 28.960938 C 113.925781 28.671875 114.230469 28.527344 114.585938 28.527344 C 114.722656 28.527344 114.886719 28.546875 115.066406 28.585938 L 115.160156 27.964844 C 115.003906 27.933594 114.828125 27.917969 114.636719 27.917969 C 114.359375 27.917969 114.105469 27.996094 113.878906 28.152344 Z M 113.878906 28.152344 "/>
<path style=" stroke:none;fill-rule:evenodd;fill:rgb(15.686275%,65.098039%,29.019608%);fill-opacity:1;" d="M 117.660156 27.917969 C 117.074219 27.917969 116.605469 28.128906 116.257812 28.542969 C 115.910156 28.964844 115.734375 29.527344 115.734375 30.238281 C 115.734375 30.945312 115.921875 31.496094 116.296875 31.894531 C 116.671875 32.289062 117.183594 32.488281 117.832031 32.488281 C 118.128906 32.488281 118.382812 32.464844 118.589844 32.421875 C 118.800781 32.378906 119.023438 32.304688 119.257812 32.199219 L 119.257812 31.605469 C 118.796875 31.804688 118.328125 31.902344 117.855469 31.902344 C 117.40625 31.902344 117.0625 31.769531 116.816406 31.5 C 116.566406 31.234375 116.4375 30.839844 116.425781 30.324219 L 119.449219 30.324219 L 119.449219 29.898438 C 119.449219 29.304688 119.289062 28.824219 118.96875 28.460938 C 118.644531 28.101562 118.210938 27.917969 117.660156 27.917969 Z M 116.441406 29.785156 C 116.476562 29.375 116.601562 29.054688 116.808594 28.824219 C 117.019531 28.59375 117.300781 28.476562 117.652344 28.476562 C 118 28.476562 118.265625 28.589844 118.453125 28.816406 C 118.640625 29.039062 118.734375 29.363281 118.734375 29.785156 C 118.734375 29.785156 116.441406 29.785156 116.441406 29.785156 Z M 116.441406 29.785156 "/>
<path style=" stroke:none;fill-rule:evenodd;fill:rgb(15.686275%,65.098039%,29.019608%);fill-opacity:1;" d="M 123.925781 28 L 123.179688 28 L 122.023438 29.6875 L 120.867188 28 L 120.109375 28 L 121.636719 30.152344 L 120.03125 32.40625 L 120.785156 32.40625 L 122.027344 30.621094 L 123.253906 32.40625 L 124.007812 32.40625 L 122.402344 30.152344 Z M 123.925781 28 "/>
<path style=" stroke:none;fill-rule:evenodd;fill:rgb(16.470588%,53.333333%,78.823529%);fill-opacity:1;" d="M 42.070312 18.074219 L 46.246094 18.074219 L 46.246094 15.933594 L 42.070312 15.933594 L 42.070312 12.742188 L 46.558594 12.742188 L 46.558594 10.59375 L 39.5 10.59375 L 39.5 22.964844 L 42.070312 22.964844 Z M 42.070312 18.074219 "/>
<path style=" stroke:none;fill-rule:evenodd;fill:rgb(16.470588%,53.333333%,78.823529%);fill-opacity:1;" d="M 56.765625 15.621094 C 56.394531 14.882812 55.863281 14.316406 55.171875 13.917969 C 54.484375 13.523438 53.683594 13.328125 52.78125 13.328125 C 51.328125 13.328125 50.199219 13.757812 49.394531 14.613281 C 48.59375 15.46875 48.191406 16.671875 48.191406 18.21875 C 48.191406 19.210938 48.378906 20.078125 48.746094 20.824219 C 49.117188 21.570312 49.648438 22.140625 50.339844 22.535156 C 51.03125 22.933594 51.828125 23.132812 52.730469 23.132812 C 54.171875 23.132812 55.300781 22.699219 56.105469 21.832031 C 56.914062 20.960938 57.320312 19.757812 57.320312 18.21875 C 57.320312 17.226562 57.132812 16.359375 56.765625 15.621094 Z M 54.242188 20.347656 C 53.941406 20.820312 53.449219 21.0625 52.761719 21.0625 C 52.074219 21.0625 51.574219 20.820312 51.269531 20.339844 C 50.964844 19.863281 50.808594 19.152344 50.808594 18.214844 C 50.808594 17.277344 50.960938 16.570312 51.265625 16.105469 C 51.566406 15.640625 52.0625 15.410156 52.746094 15.410156 C 53.4375 15.410156 53.933594 15.644531 54.238281 16.113281 C 54.539062 16.578125 54.691406 17.28125 54.691406 18.21875 C 54.691406 19.160156 54.542969 19.871094 54.242188 20.347656 Z M 54.242188 20.347656 "/>
<path style=" stroke:none;fill-rule:evenodd;fill:rgb(16.470588%,53.333333%,78.823529%);fill-opacity:1;" d="M 65.371094 15.824219 L 65.566406 13.402344 C 65.332031 13.351562 65.042969 13.328125 64.695312 13.328125 C 64.113281 13.328125 63.574219 13.488281 63.074219 13.8125 C 62.578125 14.136719 62.183594 14.566406 61.894531 15.097656 L 61.765625 15.097656 L 61.386719 13.503906 L 59.441406 13.503906 L 59.441406 22.964844 L 62.011719 22.964844 L 62.011719 18.152344 C 62.011719 17.386719 62.238281 16.796875 62.695312 16.371094 C 63.15625 15.949219 63.792969 15.738281 64.613281 15.738281 C 64.910156 15.738281 65.164062 15.769531 65.371094 15.824219 Z M 65.371094 15.824219 "/>
<path style=" stroke:none;fill-rule:evenodd;fill:rgb(16.470588%,53.333333%,78.823529%);fill-opacity:1;" d="M 73.402344 22.96875 C 73.914062 22.859375 74.394531 22.691406 74.84375 22.464844 L 74.84375 20.46875 C 74.292969 20.726562 73.765625 20.917969 73.261719 21.035156 C 72.757812 21.152344 72.21875 21.214844 71.652344 21.214844 C 70.921875 21.214844 70.355469 21.007812 69.953125 20.59375 C 69.546875 20.183594 69.332031 19.609375 69.304688 18.878906 L 75.375 18.878906 L 75.375 17.625 C 75.375 16.285156 75.007812 15.230469 74.265625 14.46875 C 73.523438 13.707031 72.488281 13.328125 71.15625 13.328125 C 69.761719 13.328125 68.671875 13.761719 67.882812 14.625 C 67.097656 15.492188 66.699219 16.71875 66.699219 18.300781 C 66.699219 19.839844 67.128906 21.03125 67.980469 21.875 C 68.832031 22.714844 70.019531 23.132812 71.535156 23.132812 C 72.269531 23.132812 72.890625 23.082031 73.402344 22.96875 Z M 69.890625 15.683594 C 70.203125 15.335938 70.628906 15.164062 71.171875 15.164062 C 71.71875 15.164062 72.148438 15.335938 72.46875 15.683594 C 72.789062 16.03125 72.953125 16.523438 72.964844 17.160156 L 69.363281 17.160156 C 69.40625 16.523438 69.582031 16.03125 69.890625 15.683594 Z M 69.890625 15.683594 "/>
<path style=" stroke:none;fill-rule:evenodd;fill:rgb(16.470588%,53.333333%,78.823529%);fill-opacity:1;" d="M 82.882812 18.265625 L 88.558594 9.246094 L 89.992188 10.085938 L 90.003906 4.238281 L 84.960938 7.152344 L 86.402344 7.992188 L 81.066406 16.460938 L 79.273438 13.503906 L 76.359375 13.503906 L 79.390625 18.132812 L 76.199219 22.964844 L 79.113281 22.964844 L 81.101562 19.726562 L 83.078125 22.964844 L 86 22.964844 Z M 82.882812 18.265625 "/>
<path style=" stroke:none;fill-rule:evenodd;fill:rgb(16.470588%,53.333333%,78.823529%);fill-opacity:1;" d="M 107.589844 21.683594 L 108.085938 22.96875 L 109.882812 22.96875 L 109.882812 16.664062 C 109.882812 15.539062 109.539062 14.695312 108.871094 14.140625 C 108.195312 13.589844 107.226562 13.316406 105.964844 13.316406 C 104.644531 13.316406 103.445312 13.601562 102.363281 14.167969 L 103.210938 15.910156 C 104.226562 15.457031 105.113281 15.226562 105.863281 15.226562 C 106.839844 15.226562 107.328125 15.707031 107.328125 16.664062 L 107.328125 17.078125 L 105.699219 17.128906 C 104.289062 17.179688 103.238281 17.445312 102.535156 17.917969 C 101.835938 18.398438 101.484375 19.136719 101.484375 20.144531 C 101.484375 21.097656 101.746094 21.839844 102.265625 22.359375 C 102.78125 22.875 103.496094 23.136719 104.398438 23.136719 C 105.132812 23.136719 105.730469 23.03125 106.191406 22.820312 C 106.648438 22.609375 107.09375 22.226562 107.523438 21.683594 C 107.523438 21.683594 107.589844 21.683594 107.589844 21.683594 Z M 107.328125 19.367188 C 107.328125 19.933594 107.152344 20.390625 106.792969 20.734375 C 106.441406 21.078125 105.964844 21.25 105.367188 21.25 C 104.539062 21.25 104.121094 20.886719 104.121094 20.164062 C 104.121094 19.652344 104.304688 19.277344 104.671875 19.027344 C 105.039062 18.777344 105.589844 18.644531 106.339844 18.621094 L 107.328125 18.582031 C 107.328125 18.582031 107.328125 19.367188 107.328125 19.367188 Z M 107.328125 19.367188 "/>
<path style=" stroke:none;fill-rule:evenodd;fill:rgb(16.470588%,53.333333%,78.823529%);fill-opacity:1;" d="M 115.09375 18.15625 C 115.09375 17.394531 115.320312 16.800781 115.785156 16.378906 C 116.238281 15.957031 116.875 15.742188 117.699219 15.742188 C 117.996094 15.742188 118.246094 15.769531 118.453125 15.828125 L 118.648438 13.40625 C 118.417969 13.355469 118.128906 13.332031 117.78125 13.332031 C 117.199219 13.332031 116.660156 13.492188 116.160156 13.816406 C 115.660156 14.140625 115.269531 14.570312 114.976562 15.101562 L 114.847656 15.101562 L 114.472656 13.507812 L 112.527344 13.507812 L 112.527344 22.96875 L 115.09375 22.96875 Z M 115.09375 18.15625 "/>
<path style=" stroke:none;fill-rule:evenodd;fill:rgb(16.470588%,53.333333%,78.823529%);fill-opacity:1;" d="M 124.324219 21.082031 C 123.988281 21.082031 123.71875 20.996094 123.511719 20.820312 C 123.304688 20.644531 123.203125 20.375 123.203125 20.007812 L 123.203125 15.449219 L 125.839844 15.449219 L 125.839844 13.507812 L 123.203125 13.507812 L 123.203125 11.496094 L 121.5625 11.496094 L 120.820312 13.492188 L 119.40625 14.355469 L 119.40625 15.449219 L 120.632812 15.449219 L 120.632812 20.007812 C 120.632812 21.050781 120.867188 21.832031 121.335938 22.355469 C 121.808594 22.875 122.554688 23.136719 123.582031 23.136719 C 124.515625 23.136719 125.300781 22.992188 125.941406 22.707031 L 125.941406 20.785156 C 125.3125 20.984375 124.773438 21.082031 124.324219 21.082031 Z M 124.324219 21.082031 "/>
<path style=" stroke:none;fill-rule:evenodd;fill:rgb(16.470588%,53.333333%,78.823529%);fill-opacity:1;" d="M 96.828125 13.28125 L 96.902344 13.28125 C 96.835938 14.835938 96.800781 15.792969 96.789062 16.15625 C 96.78125 16.515625 96.777344 16.835938 96.777344 17.113281 L 96.777344 22.96875 L 99.210938 22.96875 L 99.210938 10.597656 L 95.660156 10.597656 L 92.570312 20.058594 L 92.519531 20.058594 L 89.605469 10.597656 L 88.28125 10.597656 L 86.050781 13.976562 L 86.050781 22.96875 L 88.382812 22.96875 L 88.382812 17.214844 C 88.382812 16.554688 88.328125 15.238281 88.226562 13.265625 L 88.300781 13.265625 L 91.261719 22.96875 L 93.652344 22.96875 Z M 96.828125 13.28125 "/>
<path style=" stroke:none;fill-rule:evenodd;fill:rgb(16.078431%,52.54902%,78.431373%);fill-opacity:1;" d="M 29.863281 13.710938 L 28.835938 13.113281 L 22.035156 23.394531 L 25.140625 28.070312 L 22.308594 28.070312 L 20.398438 24.941406 L 18.472656 28.070312 L 15.652344 28.070312 L 18.742188 23.394531 L 15.808594 18.917969 L 18.628906 18.917969 L 20.253906 21.601562 L 26.675781 11.855469 L 25.707031 11.289062 L 29.859375 8.890625 C 26.882812 5.863281 22.757812 3.984375 18.1875 3.984375 C 9.128906 3.984375 1.789062 11.363281 1.789062 20.460938 C 1.789062 25.667969 4.195312 30.300781 7.945312 33.324219 L 7.945312 15.992188 L 14.8125 15.992188 L 14.8125 18.082031 L 10.445312 18.082031 L 10.445312 21.1875 L 14.507812 21.1875 L 14.507812 23.273438 L 10.445312 23.273438 L 10.445312 34.988281 C 12.75 36.226562 15.386719 36.9375 18.1875 36.9375 C 27.246094 36.9375 34.585938 29.558594 34.585938 20.460938 C 34.585938 15.957031 32.789062 11.878906 29.867188 8.90625 Z M 29.863281 13.710938 "/>
</g>
</svg>
