<svg width="209" height="30" viewBox="0 0 209 30" fill="none" xmlns="http://www.w3.org/2000/svg">
<g clip-path="url(#clip0_1_155)">
<path d="M11.7187 11.0601V23.2155H6.8335V14.947H7.96629L6.8335 13.0035V9.39929H11.6125L10.6567 11.0601H11.7187Z" fill="url(#paint0_linear_1_155)"/>
<path d="M18.516 5.93638V23.1802H13.6309V11.0601H14.7637L13.6309 9.04592V4.52295H18.2682L17.454 5.93638H18.516Z" fill="url(#paint1_linear_1_155)"/>
<path d="M25.4567 0V30H0V13.8516H4.49653L3.85922 14.947H4.9568V25.0883H20.5353V5.9364H21.5621L20.5353 4.09894V0H25.4567Z" fill="url(#paint2_linear_1_155)"/>
<path d="M48.1164 10.8127H38.132V15.3003H47.3021V19.788H38.132V29.9646H32.2192V6.28973H48.1164V10.8127Z" fill="white"/>
<path d="M57.5343 30V10.8127H50.5239V6.28973H70.5282V10.8127H63.5178V30H57.5343Z" fill="white"/>
<path d="M97.2244 30H91.2762V14.2756L86.9567 24.4169H82.885L78.5655 14.2756V30H72.936V6.28973H79.8047L85.0802 17.9858L90.3202 6.28973H97.189V30H97.2244Z" fill="white"/>
<path d="M106.713 30V10.8127H99.7026V6.28973H119.671V10.8127H112.661V30H106.713Z" fill="white"/>
<path d="M144.101 30H136.843L130.222 21.3074H128.098V30H122.15V6.28973H131.709C133.019 6.28973 134.188 6.36041 135.144 6.53708C136.135 6.71376 137.02 7.03178 137.87 7.56182C138.72 8.09185 139.392 8.79857 139.888 9.61129C140.384 10.4593 140.632 11.5194 140.632 12.7915C140.632 14.5936 140.207 16.0777 139.392 17.2085C138.578 18.3392 137.481 19.2226 136.1 19.894L144.101 30ZM134.506 13.5335C134.506 12.9328 134.4 12.4381 134.152 12.0141C133.94 11.5901 133.551 11.2367 133.019 11.0247C132.63 10.848 132.241 10.7774 131.78 10.7067C131.32 10.6714 130.753 10.636 130.081 10.636H128.098V17.0318H129.798C130.612 17.0318 131.32 16.9964 131.922 16.8904C132.488 16.7844 132.984 16.5724 133.409 16.2544C133.798 15.9717 134.082 15.6184 134.259 15.1943C134.4 14.7703 134.506 14.2049 134.506 13.5335Z" fill="white"/>
<path d="M143.287 30L151.324 6.28973H157.839L165.876 30H159.751L158.264 25.159H150.793L149.306 30H143.287ZM156.918 20.848L154.511 13.0389L152.068 20.848H156.918Z" fill="white"/>
<path d="M189.421 18.1625C189.421 20.3533 188.925 22.3321 187.969 24.0989C187.013 25.8304 185.774 27.1731 184.287 28.1272C183.048 28.9399 181.702 29.4346 180.251 29.6466C178.799 29.8586 177.241 30 175.612 30H168.177V6.28973H175.542C177.206 6.28973 178.764 6.39574 180.215 6.60776C181.667 6.81977 183.048 7.3498 184.322 8.16253C185.88 9.15192 187.119 10.4947 188.004 12.1908C188.96 13.8869 189.421 15.8657 189.421 18.1625ZM183.295 18.1272C183.295 16.5724 183.012 15.2297 182.481 14.1343C181.95 13.0389 181.1 12.1555 180.003 11.5194C179.188 11.0601 178.339 10.8127 177.454 10.7774C176.568 10.742 175.506 10.7067 174.267 10.7067H174.161V25.5477H174.267C175.612 25.5477 176.745 25.5123 177.666 25.477C178.587 25.4417 179.472 25.159 180.286 24.629C181.277 24.0282 182.021 23.1802 182.517 22.0848C183.048 20.9894 183.295 19.682 183.295 18.1272Z" fill="white"/>
<path d="M192.926 30V6.28973H209V10.8127H198.874V14.9823H208.186V19.5053H198.874V25.477H209V30H192.926Z" fill="white"/>
</g>
<defs>
<linearGradient id="paint0_linear_1_155" x1="8.38737" y1="15.5461" x2="29.5917" y2="34.6647" gradientUnits="userSpaceOnUse">
<stop stop-color="#29ABE2"/>
<stop offset="0.4103" stop-color="#016EAD"/>
<stop offset="0.6256" stop-color="#015C93"/>
<stop offset="0.8256" stop-color="#1C4D7A"/>
<stop offset="1" stop-color="#233C5E"/>
</linearGradient>
<linearGradient id="paint1_linear_1_155" x1="12.6165" y1="10.8563" x2="33.8209" y2="29.9749" gradientUnits="userSpaceOnUse">
<stop stop-color="#29ABE2"/>
<stop offset="0.4103" stop-color="#016EAD"/>
<stop offset="0.6256" stop-color="#015C93"/>
<stop offset="0.8256" stop-color="#1C4D7A"/>
<stop offset="1" stop-color="#233C5E"/>
</linearGradient>
<linearGradient id="paint2_linear_1_155" x1="10.609" y1="13.0827" x2="31.8137" y2="32.2048" gradientUnits="userSpaceOnUse">
<stop stop-color="#29ABE2"/>
<stop offset="0.4103" stop-color="#016EAD"/>
<stop offset="0.6256" stop-color="#015C93"/>
<stop offset="0.8256" stop-color="#1C4D7A"/>
<stop offset="1" stop-color="#233C5E"/>
</linearGradient>
<clipPath id="clip0_1_155">
<rect width="209" height="30" fill="white"/>
</clipPath>
</defs>
</svg>
