<?xml version="1.0" encoding="utf-8"?><svg width="159" height="45" viewBox="0 0 159 45" fill="none" xmlns="http://www.w3.org/2000/svg">
<path d="M14.8274 36.5022C32.9888 35 45.3431 21.1435 45.3431 21.1435C43.4821 14.9776 36.5538 10.6726 36.5538 10.6726V23.0269C35.7915 23.3857 35.0292 23.722 34.3117 24.0583V2.24215L32.4507 0L30.5897 2.24215V25.6951C29.7601 26.0538 28.9529 26.4126 28.1458 26.7265V7.10762L26.2848 4.86547L24.4238 7.10762V28.2511C23.5269 28.6099 22.6749 28.9238 21.8453 29.2377L22.1816 12.3318L20.3207 10.0897L18.4597 12.3318V30.4484C17.6077 30.7399 16.8005 31.009 16.0157 31.2332V17.0404L14.1547 14.7982L12.2938 17.0404V32.2422C-3.67037 35.7399 9.76012 21.5247 9.76012 21.5247C-11.1143 36.2108 7.98882 35.852 7.98882 35.852C22.6749 35.7399 41.4866 20.8744 41.4866 20.8744C30.5449 32.3767 14.8274 36.5022 14.8274 36.5022Z" fill="#1E3768"/>
<path d="M54.6033 17.13L48.0562 19.7533C49.3567 19.7533 49.6481 20.4035 49.6481 20.4035C31.128 36.8834 15.0293 38.9237 15.0293 38.9237C20.1862 45 28.5943 45 28.5943 45C44.1324 43.6995 45.9934 29.6412 45.9934 29.6412C26.3297 43.6771 22.2266 40.4932 22.2266 40.4932C42.1593 34.5964 50.8589 21.9731 50.8589 21.9731C51.98 21.9731 51.8006 23.834 51.8006 23.834L54.6033 17.13Z" fill="#1E3768"/>
<path d="M62.1816 35.7399V36.0314H59.7376V37.6906H61.3744V37.9821H59.7376V40.0673H62.1816V40.3588H58.9529V35.7175H62.1816V35.7399Z" fill="black"/>
<path d="M63.6165 36.7265H63.8183V37.4664C63.908 37.3767 64.0201 37.2646 64.1322 37.175C64.2443 37.0853 64.3564 36.9956 64.491 36.9283C64.6031 36.8611 64.7376 36.8162 64.8497 36.7714C64.9618 36.7265 65.0963 36.7041 65.186 36.7041C65.2981 36.7041 65.3878 36.7265 65.4999 36.7489C65.612 36.7938 65.7017 36.8386 65.7914 36.9059C65.8811 36.9732 65.9708 37.0628 66.0381 37.1525C66.1053 37.2422 66.1502 37.3543 66.1726 37.4664C66.2398 37.3543 66.3071 37.2646 66.4192 37.175C66.5313 37.0853 66.6434 36.9956 66.7555 36.9283C66.8901 36.8611 67.0246 36.8162 67.1591 36.7714C67.2937 36.7265 67.4282 36.7041 67.5851 36.7041C67.7197 36.7041 67.8542 36.7265 67.9663 36.7938C68.0784 36.8611 68.1905 36.9283 68.2802 37.0404C68.3699 37.1525 68.4372 37.2646 68.482 37.3992C68.5268 37.5337 68.5493 37.6906 68.5493 37.8252V40.3588H67.8318V37.9373C67.8318 37.8476 67.8093 37.7355 67.7869 37.6458C67.7421 37.5561 67.6972 37.4664 67.6524 37.3992C67.5851 37.3319 67.5179 37.2871 67.4506 37.2422C67.3833 37.1974 67.2937 37.175 67.204 37.175C67.1143 37.175 67.0022 37.1974 66.9125 37.2198C66.8004 37.2422 66.7107 37.2871 66.621 37.3319C66.5313 37.3767 66.4416 37.444 66.3744 37.4889C66.3071 37.5561 66.2398 37.6234 66.195 37.6907V40.3588H65.4775V37.9373C65.4775 37.8476 65.4551 37.7355 65.4327 37.6458C65.3878 37.5561 65.343 37.4664 65.2981 37.3992C65.2309 37.3319 65.1636 37.2871 65.0963 37.2422C65.0067 37.1974 64.9394 37.175 64.8497 37.175C64.76 37.175 64.6703 37.1974 64.5582 37.2198C64.4685 37.2422 64.3564 37.2871 64.2668 37.3319C64.1771 37.3767 64.0874 37.444 64.0201 37.4889C63.9304 37.5561 63.8856 37.6234 63.8183 37.6907V40.3588H63.1008V36.9059L63.6165 36.7265Z" fill="black"/>
<path d="M70.3431 36.7265H70.5449V37.5337C70.6122 37.444 70.7019 37.3543 70.7916 37.2646C70.8812 37.1749 70.9709 37.0852 71.083 36.9956C71.1951 36.9283 71.3073 36.861 71.4418 36.7938C71.5763 36.7489 71.7108 36.7265 71.8678 36.7265C72.0696 36.7265 72.2714 36.7713 72.4508 36.861C72.6301 36.9507 72.7647 37.0628 72.8992 37.2198C73.0113 37.3767 73.1234 37.5561 73.1907 37.7579C73.2579 37.9597 73.2803 38.1839 73.2803 38.4081C73.2803 38.6996 73.2355 38.9687 73.1682 39.2377C73.0786 39.4843 72.9664 39.7086 72.8095 39.8879C72.6525 40.0673 72.4732 40.2018 72.249 40.3139C72.0247 40.4261 71.7781 40.4709 71.5315 40.4709C71.4418 40.4709 71.3521 40.4709 71.2624 40.4485C71.1727 40.4485 71.1055 40.4261 71.0158 40.4036C70.9485 40.3812 70.8588 40.3588 70.7916 40.3139C70.7243 40.2915 70.657 40.2467 70.5673 40.2018V41.9059H69.8499V36.9507L70.3431 36.7265ZM70.5449 39.4171C70.5449 39.5292 70.5673 39.6189 70.6122 39.731C70.657 39.8207 70.7243 39.9104 70.814 39.9776C70.9037 40.0449 70.9934 40.1122 71.1055 40.157C71.2176 40.2018 71.3521 40.2243 71.4866 40.2243C71.6212 40.2243 71.7557 40.1794 71.8678 40.1121C71.9799 40.0449 72.092 39.9552 72.1817 39.8207C72.2714 39.6861 72.3386 39.5516 72.3835 39.3722C72.4283 39.1929 72.4508 39.0135 72.4508 38.7893C72.4508 38.5202 72.4283 38.296 72.3835 38.0942C72.3386 37.8924 72.2714 37.7355 72.1817 37.6009C72.092 37.4664 72.0023 37.3767 71.8902 37.3095C71.7781 37.2422 71.6436 37.2198 71.509 37.2198C71.3969 37.2198 71.3073 37.2422 71.2176 37.2646C71.1279 37.287 71.0382 37.3319 70.9485 37.3991C70.8588 37.444 70.7916 37.5113 70.7243 37.5785C70.657 37.6458 70.5898 37.713 70.5225 37.8027V39.4171H70.5449Z" fill="black"/>
<path d="M75.9261 40.4485C75.657 40.4485 75.388 40.4036 75.1638 40.3139C74.9395 40.2243 74.7378 40.0897 74.5584 39.9328C74.379 39.7758 74.2669 39.574 74.1548 39.3498C74.0427 39.1256 74.0203 38.9014 74.0203 38.6323C74.0203 38.3633 74.0651 38.1166 74.1548 37.8924C74.2445 37.6682 74.379 37.4664 74.5584 37.287C74.7378 37.1077 74.9171 36.9731 75.1638 36.8835C75.388 36.7938 75.657 36.7265 75.9261 36.7265C76.1952 36.7265 76.4418 36.7713 76.6884 36.861C76.9126 36.9507 77.1144 37.0852 77.2938 37.2422C77.4732 37.3991 77.5853 37.5785 77.6974 37.8027C77.8095 38.027 77.8319 38.2512 77.8319 38.4978C77.8319 38.7669 77.7871 39.0135 77.6974 39.2601C77.6077 39.5068 77.4732 39.7086 77.2938 39.8879C77.1144 40.0673 76.9351 40.2018 76.6884 40.3139C76.4642 40.4036 76.1952 40.4485 75.9261 40.4485ZM76.0606 40.2018C76.1952 40.2018 76.3297 40.157 76.4418 40.0897C76.5539 40.0225 76.666 39.9104 76.7333 39.7982C76.823 39.6861 76.8902 39.5292 76.9351 39.3722C76.9799 39.2153 77.0023 39.0359 77.0023 38.8565C77.0023 38.5875 76.9799 38.3633 76.9351 38.1391C76.8902 37.9148 76.823 37.713 76.7108 37.5561C76.6212 37.3767 76.4866 37.2646 76.3073 37.1525C76.1503 37.0628 75.9485 37.018 75.7243 37.018C75.6122 37.018 75.5001 37.0628 75.388 37.1301C75.2759 37.1974 75.1862 37.287 75.0965 37.4216C75.0068 37.5337 74.9395 37.6906 74.8947 37.8476C74.8499 38.0045 74.8274 38.1839 74.8274 38.3633C74.8274 38.6323 74.8499 38.879 74.9171 39.1032C74.962 39.3274 75.0517 39.5292 75.1638 39.7086C75.2759 39.8879 75.4104 40.0225 75.5449 40.1121C75.7019 40.1346 75.8588 40.2018 76.0606 40.2018Z" fill="black"/>
<path d="M78.9752 36.7938L80.1187 39.4171L81.2398 36.7938L82.3608 39.4171L83.3698 36.7938H83.7061L82.2487 40.426H82.0021L80.9931 38.0718L79.9842 40.426H79.7599L78.1904 36.7938H78.9752Z" fill="black"/>
<path d="M85.8812 40.4485C85.6345 40.4485 85.4103 40.4036 85.1861 40.3139C84.9619 40.2242 84.7825 40.0897 84.6256 39.9328C84.4686 39.7758 84.3341 39.5964 84.2444 39.3722C84.1547 39.1704 84.1099 38.9462 84.1099 38.6996C84.1099 38.4081 84.1547 38.139 84.2444 37.8924C84.3341 37.6458 84.4462 37.444 84.6031 37.2646C84.7601 37.0852 84.9395 36.9507 85.1637 36.8386C85.3879 36.7489 85.6121 36.6816 85.8812 36.6816C86.1054 36.6816 86.3296 36.7265 86.5314 36.8162C86.7332 36.9059 86.8901 37.018 87.0471 37.1525C87.1816 37.287 87.2937 37.444 87.3834 37.6233C87.4731 37.8027 87.4955 38.0045 87.4955 38.1839H84.8273C84.8273 38.4305 84.8498 38.6547 84.917 38.8565C84.9843 39.0583 85.074 39.2377 85.1861 39.3946C85.2982 39.5516 85.4327 39.6637 85.5897 39.7534C85.7466 39.8431 85.9036 39.8879 86.1054 39.8879C86.2623 39.8879 86.3969 39.8655 86.5538 39.8207C86.6883 39.7758 86.8229 39.7085 86.935 39.6189C87.0471 39.5292 87.1592 39.4395 87.2265 39.3498C87.2937 39.2601 87.361 39.1256 87.4058 39.0135L87.6076 39.1032C87.5628 39.2825 87.4731 39.4619 87.361 39.6189C87.2489 39.7758 87.1143 39.9103 86.9574 40.0449C86.8004 40.157 86.6435 40.2691 86.4641 40.3363C86.2848 40.4036 86.0605 40.4485 85.8812 40.4485ZM86.5762 37.9372C86.5762 37.8027 86.5538 37.6682 86.509 37.5561C86.4641 37.444 86.3969 37.3319 86.3072 37.2422C86.2175 37.1525 86.1278 37.0852 86.0157 37.0404C85.9036 36.9955 85.7915 36.9731 85.6569 36.9731C85.5448 36.9731 85.4552 36.9955 85.343 37.0404C85.2534 37.0852 85.1637 37.1525 85.074 37.2422C85.0067 37.3319 84.9395 37.4215 84.8722 37.5561C84.8274 37.6682 84.7825 37.8027 84.7825 37.9372H86.5762Z" fill="black"/>
<path d="M89.0873 36.7265H89.1995L89.2891 37.4664C89.334 37.3543 89.4237 37.2646 89.4909 37.1749C89.5806 37.0852 89.6703 37.018 89.76 36.9507C89.8721 36.8835 89.9618 36.8386 90.0739 36.7938C90.186 36.7489 90.2981 36.7489 90.4102 36.7489C90.5223 36.7489 90.612 36.7713 90.7241 36.7938C90.8362 36.8162 90.9259 36.861 91.0156 36.9283L90.7914 37.5337C90.7465 37.4888 90.7017 37.444 90.6344 37.3991C90.5672 37.3543 90.5223 37.3543 90.4775 37.3319C90.4326 37.3095 90.3654 37.3095 90.3205 37.3095C90.2757 37.3095 90.2084 37.3095 90.1412 37.3095C90.0515 37.3095 89.9618 37.3319 89.8721 37.3543C89.7824 37.3767 89.7152 37.4216 89.6255 37.4664C89.5582 37.5113 89.4685 37.5785 89.4013 37.6682C89.334 37.7355 89.2891 37.8476 89.2219 37.9373V40.4261H88.5044V36.9731L89.0873 36.7265Z" fill="black"/>
<path d="M91.6882 35.426C91.6882 35.3812 91.6882 35.3139 91.7107 35.2691C91.7331 35.2243 91.7555 35.1794 91.8003 35.1346C91.8452 35.0897 91.89 35.0673 91.9349 35.0449C91.9797 35.0225 92.047 35.0225 92.0918 35.0225C92.1367 35.0225 92.2039 35.0225 92.2488 35.0449C92.2936 35.0673 92.3385 35.0897 92.3833 35.1346C92.4281 35.1794 92.4506 35.2243 92.473 35.2691C92.4954 35.3139 92.4954 35.3812 92.4954 35.426C92.4954 35.4709 92.4954 35.5382 92.473 35.583C92.4506 35.6278 92.4281 35.6727 92.3833 35.7175C92.3385 35.7624 92.2936 35.7848 92.2488 35.8072C92.2039 35.8296 92.1367 35.8296 92.0918 35.8296C92.047 35.8296 91.9797 35.8296 91.9349 35.8072C91.89 35.7848 91.8452 35.7624 91.8003 35.7175C91.7555 35.6727 91.7331 35.6278 91.7107 35.583C91.6882 35.5382 91.6882 35.4709 91.6882 35.426ZM91.7331 36.9283L92.2263 36.7265H92.4281V40.3812H91.7107V36.9283H91.7331Z" fill="black"/>
<path d="M94.2667 36.7265H94.4685V37.444C94.6927 37.1974 94.9169 37.018 95.1411 36.9059C95.3654 36.7938 95.612 36.7265 95.8586 36.7265C95.9932 36.7265 96.1053 36.7489 96.2174 36.8162C96.3295 36.8835 96.4192 36.9507 96.5089 37.0404C96.5985 37.1301 96.6658 37.2646 96.7107 37.3767C96.7555 37.5113 96.7779 37.6458 96.7779 37.8027V40.3812H96.0604V37.9373C96.0604 37.8252 96.038 37.713 96.0156 37.6234C95.9932 37.5337 95.9483 37.4664 95.9035 37.3991C95.8586 37.3319 95.7914 37.287 95.7241 37.2646C95.6568 37.2422 95.5896 37.2198 95.4999 37.2198C95.4326 37.2198 95.3429 37.2422 95.2533 37.2646C95.1636 37.287 95.0739 37.3319 95.0066 37.3767C94.9394 37.4216 94.8272 37.4664 94.7376 37.5337C94.6479 37.6009 94.5582 37.6682 94.4909 37.7355V40.3812H93.7734V36.9283L94.2667 36.7265Z" fill="black"/>
<path d="M101.397 36.9731V37.2646H100.724C100.791 37.3543 100.836 37.4664 100.881 37.6009C100.926 37.7355 100.948 37.8476 100.948 37.9597C100.948 38.1391 100.903 38.3184 100.836 38.4754C100.746 38.6323 100.634 38.7669 100.5 38.879C100.343 38.9911 100.186 39.0808 99.9842 39.1256C99.7824 39.1704 99.5581 39.2153 99.3115 39.2153C99.2218 39.2153 99.1321 39.2153 99.0425 39.1929C98.9528 39.1704 98.8631 39.1704 98.7958 39.148C98.7285 39.1929 98.6613 39.2601 98.6164 39.3498C98.5716 39.4395 98.5492 39.5068 98.5492 39.574C98.5492 39.6413 98.594 39.7086 98.6613 39.7534C98.7285 39.7983 98.8407 39.8207 98.9976 39.8207L100.32 39.8879C100.522 39.8879 100.702 39.9328 100.859 39.9552C100.993 40 101.105 40.0449 101.195 40.1121C101.285 40.1794 101.329 40.2691 101.374 40.3588C101.419 40.4485 101.419 40.5606 101.419 40.6727C101.419 40.8745 101.374 41.0763 101.285 41.2332C101.195 41.4126 101.038 41.5471 100.859 41.6592C100.679 41.7713 100.455 41.861 100.186 41.9283C99.9169 41.9956 99.6254 42.018 99.2891 42.018C98.9976 42.018 98.7285 41.9956 98.5043 41.9731C98.2801 41.9507 98.1007 41.8835 97.9438 41.8162C97.7868 41.7489 97.6972 41.6817 97.6075 41.592C97.5402 41.5023 97.4954 41.3902 97.4954 41.2781C97.4954 41.1884 97.5178 41.0763 97.5626 40.9866C97.6075 40.8969 97.6747 40.8072 97.742 40.7175C97.8093 40.6278 97.899 40.5606 97.9886 40.4709C98.0783 40.3812 98.168 40.3139 98.2577 40.2467C98.1904 40.2243 98.1232 40.2018 98.0783 40.1794C98.0111 40.157 97.9662 40.1122 97.9214 40.0897C97.8765 40.0449 97.8541 40.0225 97.8317 39.9776C97.8093 39.9328 97.7868 39.8879 97.7868 39.8431C97.7868 39.7758 97.8093 39.6861 97.8541 39.6189C97.899 39.5516 97.9438 39.4619 98.0111 39.3947C98.0783 39.3274 98.1456 39.2601 98.2353 39.1929C98.325 39.1256 98.4146 39.0808 98.5268 39.0583C98.2801 38.9462 98.1007 38.8117 97.9662 38.6323C97.8317 38.453 97.7644 38.2287 97.7644 38.0045C97.7644 37.8252 97.8093 37.6682 97.8765 37.5113C97.9662 37.3543 98.0783 37.2198 98.2129 37.1077C98.3474 36.9956 98.5268 36.9059 98.7061 36.8386C98.8855 36.7713 99.1097 36.7265 99.3339 36.7265C99.446 36.7265 99.5581 36.7265 99.6478 36.7489C99.7375 36.7713 99.8496 36.7713 99.9393 36.7938C100.029 36.8162 100.119 36.8386 100.186 36.8835C100.253 36.9059 100.298 36.9507 100.343 36.9731H101.397V36.9731ZM98.5268 40.3588C98.4819 40.4036 98.4371 40.4485 98.3922 40.4933C98.3474 40.5382 98.325 40.583 98.2801 40.6503C98.2577 40.6951 98.2353 40.7624 98.2129 40.8072C98.1904 40.8521 98.1904 40.9193 98.1904 40.9642C98.1904 41.0539 98.2129 41.1211 98.2801 41.1884C98.325 41.2556 98.4146 41.3229 98.5268 41.3902C98.6389 41.4574 98.7734 41.4799 98.9528 41.5247C99.1321 41.5471 99.3115 41.5695 99.5357 41.5695C99.7824 41.5695 99.9842 41.5471 100.186 41.5247C100.365 41.4799 100.545 41.435 100.657 41.3678C100.791 41.3005 100.881 41.2332 100.948 41.166C101.016 41.0987 101.06 41.009 101.06 40.9417C101.06 40.8521 101.038 40.7848 100.993 40.74C100.948 40.6727 100.903 40.6278 100.814 40.6054C100.746 40.5606 100.634 40.5382 100.545 40.5157C100.433 40.4933 100.32 40.4933 100.164 40.4933C99.9842 40.4933 99.8272 40.4933 99.6478 40.4709C99.4685 40.4709 99.3115 40.4485 99.1546 40.4485C98.9976 40.4485 98.8631 40.4261 98.751 40.4036C98.6389 40.3812 98.5716 40.3588 98.5268 40.3588ZM99.4012 39.0359C99.4909 39.0359 99.603 39.0135 99.6927 38.9687C99.7824 38.9238 99.872 38.8565 99.9393 38.7893C100.007 38.6996 100.074 38.6099 100.119 38.5202C100.164 38.4081 100.186 38.296 100.186 38.1839C100.186 38.0045 100.164 37.8476 100.119 37.6906C100.074 37.5337 100.007 37.3991 99.9169 37.287C99.8272 37.1749 99.7375 37.0852 99.6254 37.018C99.5133 36.9507 99.4012 36.9283 99.2891 36.9283C99.177 36.9283 99.0649 36.9507 98.9752 36.9956C98.8855 37.0404 98.8182 37.1077 98.751 37.1974C98.6837 37.287 98.6613 37.3767 98.6164 37.5113C98.594 37.6234 98.5716 37.7579 98.5716 37.8924C98.5716 38.0494 98.594 38.2063 98.6389 38.3409C98.6837 38.4754 98.7286 38.6099 98.8182 38.6996C98.8855 38.8117 98.9752 38.879 99.0873 38.9462C99.177 38.9911 99.2891 39.0359 99.4012 39.0359Z" fill="black"/>
<path d="M106.89 35.7399V36.0314H105.209V40.3812H104.424V36.0314H102.742V35.7399H106.89Z" fill="black"/>
<path d="M107.742 36.7265H107.854L107.944 37.4664C107.989 37.3543 108.078 37.2646 108.146 37.1749C108.235 37.0852 108.325 37.018 108.415 36.9507C108.527 36.8835 108.617 36.8386 108.729 36.7938C108.841 36.7489 108.953 36.7489 109.065 36.7489C109.177 36.7489 109.267 36.7713 109.379 36.7938C109.491 36.8162 109.581 36.861 109.67 36.9283L109.446 37.5337C109.401 37.4888 109.356 37.444 109.289 37.3991C109.244 37.3767 109.177 37.3543 109.132 37.3319C109.087 37.3095 109.02 37.3095 108.975 37.3095C108.93 37.3095 108.863 37.3095 108.796 37.3095C108.706 37.3095 108.617 37.3319 108.527 37.3543C108.437 37.3767 108.37 37.4216 108.28 37.4664C108.213 37.5113 108.123 37.5785 108.056 37.6682C107.989 37.7355 107.944 37.8476 107.877 37.9373V40.4261H107.159V36.9731L107.742 36.7265Z" fill="black"/>
<path d="M112.563 40.3812C112.473 40.3363 112.383 40.2691 112.316 40.1794C112.249 40.0897 112.226 40 112.226 39.8879C112.137 39.9552 112.069 40.0224 111.98 40.0897C111.89 40.157 111.8 40.2242 111.711 40.2691C111.621 40.3139 111.509 40.3588 111.397 40.4036C111.285 40.4485 111.15 40.4485 110.993 40.4485C110.859 40.4485 110.724 40.426 110.612 40.3812C110.5 40.3363 110.41 40.2691 110.321 40.2018C110.253 40.1121 110.186 40.0224 110.141 39.9103C110.096 39.7982 110.074 39.6861 110.074 39.5516C110.074 39.3946 110.096 39.2601 110.164 39.1256C110.231 38.9911 110.298 38.9014 110.41 38.7893C110.522 38.6996 110.635 38.6099 110.769 38.5202C110.904 38.4529 111.061 38.3857 111.217 38.3184C111.374 38.2511 111.531 38.2063 111.711 38.1615C111.89 38.1166 112.047 38.0718 112.204 38.0269V37.8027C112.204 37.6458 112.182 37.5112 112.159 37.3991C112.137 37.287 112.092 37.1973 112.047 37.1301C112.002 37.0628 111.935 37.018 111.868 36.9731C111.8 36.9507 111.711 36.9283 111.599 36.9283C111.509 36.9283 111.397 36.9507 111.33 36.9955C111.24 37.0404 111.173 37.0852 111.105 37.1525C111.038 37.2198 110.993 37.287 110.948 37.3767C110.904 37.4664 110.881 37.5561 110.859 37.6682H110.209C110.231 37.5112 110.276 37.3767 110.365 37.2646C110.455 37.1525 110.567 37.0404 110.702 36.9507C110.836 36.861 110.993 36.7937 111.15 36.7489C111.33 36.7041 111.487 36.6816 111.688 36.6816C111.913 36.6816 112.114 36.7041 112.271 36.7489C112.428 36.7937 112.563 36.861 112.652 36.9507C112.742 37.0404 112.809 37.1301 112.854 37.2422C112.899 37.3543 112.922 37.4888 112.922 37.6233V39.8431C112.922 39.9552 112.944 40.0449 113.011 40.1346C113.078 40.2242 113.146 40.2915 113.258 40.3363H112.563V40.3812ZM112.226 38.296C112.114 38.3184 112.025 38.3633 111.913 38.4081C111.8 38.4529 111.688 38.4978 111.599 38.5426C111.509 38.5875 111.397 38.6547 111.307 38.722C111.217 38.7893 111.128 38.8565 111.061 38.9238C110.993 38.9911 110.926 39.0583 110.881 39.148C110.836 39.2377 110.814 39.305 110.814 39.3946C110.814 39.4843 110.836 39.574 110.859 39.6413C110.881 39.7085 110.926 39.7982 110.993 39.8431C111.038 39.9103 111.105 39.9552 111.173 39.9776C111.24 40.0224 111.307 40.0224 111.397 40.0224C111.487 40.0224 111.554 40.0224 111.621 40C111.688 39.9776 111.756 39.9552 111.823 39.9103C111.89 39.8655 111.957 39.8431 112.025 39.7758C112.092 39.731 112.159 39.6861 112.226 39.6189V38.296V38.296Z" fill="black"/>
<path d="M116.554 40.0225C116.464 40.0897 116.375 40.157 116.285 40.2018C116.195 40.2467 116.083 40.2915 115.993 40.3364C115.881 40.3812 115.792 40.4036 115.679 40.4261C115.567 40.4485 115.478 40.4485 115.366 40.4485C115.164 40.4485 114.962 40.4036 114.783 40.2915C114.603 40.2018 114.446 40.0673 114.312 39.8879C114.177 39.731 114.065 39.5292 113.998 39.305C113.908 39.0808 113.886 38.8565 113.886 38.6099C113.886 38.3633 113.931 38.1391 114.043 37.8924C114.132 37.6682 114.267 37.4664 114.446 37.287C114.626 37.1077 114.805 36.9731 115.052 36.861C115.276 36.7489 115.523 36.7041 115.792 36.7041C115.971 36.7041 116.128 36.7265 116.24 36.7938C116.375 36.861 116.487 36.9283 116.599 37.0404V35.157L117.092 34.9552H117.294V40.3812H116.576V40.0225H116.554ZM116.554 37.9373C116.554 37.8027 116.531 37.6682 116.464 37.5561C116.397 37.444 116.352 37.3319 116.262 37.2646C116.173 37.1749 116.083 37.1077 115.971 37.0628C115.859 37.018 115.747 36.9956 115.657 36.9956C115.523 36.9956 115.388 37.0404 115.253 37.1077C115.119 37.1749 115.029 37.287 114.94 37.3991C114.85 37.5337 114.783 37.6682 114.715 37.8476C114.67 38.027 114.626 38.2287 114.626 38.4305C114.626 38.6548 114.648 38.879 114.715 39.0808C114.783 39.2826 114.85 39.4619 114.962 39.5965C115.074 39.7534 115.186 39.8655 115.321 39.9552C115.455 40.0449 115.612 40.0897 115.769 40.0897C115.836 40.0897 115.926 40.0897 115.993 40.0673C116.061 40.0449 116.15 40.0225 116.218 39.9776C116.285 39.9328 116.352 39.9104 116.419 39.8655C116.487 39.8207 116.531 39.7758 116.576 39.731V37.9373H116.554Z" fill="black"/>
<path d="M120.052 40.4485C119.805 40.4485 119.581 40.4036 119.357 40.3139C119.132 40.2242 118.953 40.0897 118.796 39.9328C118.639 39.7758 118.504 39.5964 118.415 39.3722C118.325 39.1704 118.28 38.9462 118.28 38.6996C118.28 38.4081 118.325 38.139 118.415 37.8924C118.504 37.6458 118.617 37.444 118.774 37.2646C118.931 37.0852 119.11 36.9507 119.334 36.8386C119.558 36.7489 119.783 36.6816 120.052 36.6816C120.276 36.6816 120.5 36.7265 120.702 36.8162C120.904 36.9059 121.061 37.018 121.217 37.1525C121.352 37.287 121.464 37.444 121.554 37.6233C121.621 37.8027 121.666 38.0045 121.666 38.1839H118.998C118.998 38.4305 119.02 38.6547 119.087 38.8565C119.155 39.0583 119.244 39.2377 119.357 39.3946C119.469 39.5516 119.603 39.6637 119.76 39.7534C119.917 39.8431 120.074 39.8879 120.276 39.8879C120.433 39.8879 120.567 39.8655 120.724 39.8207C120.859 39.7758 120.993 39.7085 121.105 39.6189C121.217 39.5292 121.33 39.4395 121.397 39.3498C121.487 39.2377 121.531 39.1256 121.576 39.0135L121.778 39.1032C121.733 39.2825 121.644 39.4619 121.531 39.6189C121.419 39.7758 121.285 39.9103 121.128 40.0449C120.971 40.157 120.814 40.2691 120.635 40.3363C120.41 40.426 120.231 40.4485 120.052 40.4485ZM120.747 37.9372C120.747 37.8027 120.724 37.6682 120.679 37.5561C120.635 37.444 120.567 37.3319 120.478 37.2422C120.388 37.1525 120.298 37.0852 120.186 37.0404C120.074 36.9955 119.962 36.9731 119.827 36.9731C119.715 36.9731 119.626 36.9955 119.513 37.0404C119.424 37.0852 119.334 37.1525 119.244 37.2422C119.177 37.3319 119.11 37.4215 119.043 37.5561C118.998 37.6682 118.953 37.8027 118.953 37.9372H120.747Z" fill="black"/>
<path d="M123.258 36.7265H123.37L123.46 37.4664C123.504 37.3543 123.594 37.2646 123.661 37.1749C123.751 37.0852 123.841 37.018 123.93 36.9507C124.043 36.8835 124.132 36.8386 124.244 36.7938C124.356 36.7489 124.469 36.7489 124.581 36.7489C124.693 36.7489 124.782 36.7713 124.895 36.7938C125.007 36.8162 125.096 36.861 125.186 36.9283L124.962 37.5337C124.917 37.4888 124.872 37.444 124.805 37.3991C124.76 37.3767 124.693 37.3543 124.648 37.3319C124.603 37.3095 124.536 37.3095 124.491 37.3095C124.446 37.3095 124.379 37.3095 124.312 37.3095C124.222 37.3095 124.132 37.3319 124.043 37.3543C123.953 37.3767 123.886 37.4216 123.796 37.4664C123.729 37.5113 123.639 37.5785 123.572 37.6682C123.504 37.7355 123.46 37.8476 123.392 37.9373V40.4261H122.675V36.9731L123.258 36.7265Z" fill="black"/>
<path d="M126.935 40.2018C127.025 40.2018 127.114 40.1794 127.204 40.157C127.294 40.1346 127.361 40.0897 127.406 40.0449C127.451 40 127.518 39.9328 127.54 39.8655C127.563 39.7983 127.585 39.731 127.585 39.6637C127.585 39.5516 127.563 39.4619 127.495 39.3722C127.451 39.2826 127.361 39.2153 127.271 39.148C127.181 39.0808 127.069 39.0359 126.957 38.9687C126.845 38.9238 126.733 38.8565 126.599 38.8117C126.486 38.7444 126.352 38.6996 126.24 38.6323C126.128 38.5651 126.016 38.4978 125.926 38.4081C125.836 38.3184 125.769 38.2287 125.702 38.1166C125.657 38.0045 125.612 37.87 125.612 37.713C125.612 37.5785 125.634 37.444 125.702 37.3095C125.769 37.1974 125.836 37.0852 125.948 36.9956C126.06 36.9059 126.195 36.8386 126.329 36.7938C126.486 36.7489 126.643 36.7265 126.823 36.7265C126.935 36.7265 127.047 36.7265 127.159 36.7489C127.271 36.7713 127.361 36.7938 127.473 36.8386C127.563 36.8835 127.675 36.9507 127.764 37.0404C127.854 37.1301 127.966 37.2422 128.078 37.3767L127.809 37.6009C127.675 37.3767 127.518 37.2198 127.361 37.1077C127.204 36.9956 127.025 36.9507 126.823 36.9507C126.711 36.9507 126.621 36.9731 126.554 36.9956C126.486 37.018 126.397 37.0628 126.329 37.1077C126.262 37.1525 126.217 37.1974 126.195 37.2646C126.15 37.3319 126.15 37.3767 126.15 37.444C126.15 37.5561 126.173 37.6458 126.24 37.713C126.307 37.8027 126.374 37.87 126.486 37.9373C126.576 38.0045 126.688 38.0494 126.823 38.1166C126.957 38.1615 127.069 38.2287 127.204 38.2736C127.338 38.3184 127.451 38.3857 127.585 38.453C127.72 38.5202 127.832 38.5875 127.921 38.6772C128.011 38.7669 128.101 38.8565 128.168 38.9687C128.235 39.0808 128.258 39.2153 128.258 39.3722C128.258 39.5292 128.235 39.6637 128.168 39.7982C128.123 39.9328 128.034 40.0449 127.921 40.1346C127.809 40.2243 127.675 40.3139 127.495 40.3588C127.316 40.4036 127.114 40.4485 126.89 40.4485C126.778 40.4485 126.666 40.4485 126.576 40.4261C126.464 40.4036 126.352 40.3812 126.24 40.3364C126.128 40.2915 126.016 40.2243 125.903 40.1346C125.791 40.0449 125.679 39.9328 125.567 39.7982L125.859 39.5292C125.948 39.6413 126.038 39.7534 126.105 39.8431C126.195 39.9328 126.262 40 126.352 40.0449C126.442 40.0897 126.531 40.1346 126.599 40.157C126.666 40.1794 126.823 40.2018 126.935 40.2018Z" fill="black"/>
<path d="M133.415 35.9642C133.146 35.9642 132.877 36.009 132.63 36.1211C132.383 36.2108 132.182 36.3678 132.025 36.5472C131.868 36.7265 131.711 36.9507 131.621 37.2198C131.531 37.4889 131.486 37.7803 131.486 38.0942C131.486 38.4306 131.531 38.722 131.643 38.9687C131.756 39.2377 131.89 39.462 132.069 39.6413C132.249 39.8207 132.473 39.9776 132.72 40.0673C132.966 40.157 133.235 40.2243 133.504 40.2243C133.706 40.2243 133.886 40.2019 134.065 40.1346C134.222 40.0898 134.379 40.0001 134.513 39.888V38.2512H133.639V37.9821H135.298V40.0225C135.164 40.0898 135.029 40.157 134.895 40.2243C134.76 40.2691 134.603 40.3364 134.446 40.3588C134.289 40.4037 134.11 40.4261 133.908 40.4485C133.706 40.4709 133.504 40.4709 133.258 40.4709C133.011 40.4709 132.764 40.4485 132.518 40.3812C132.271 40.314 132.069 40.2467 131.868 40.1346C131.666 40.0225 131.486 39.9104 131.33 39.7534C131.173 39.5965 131.038 39.4395 130.926 39.2602C130.814 39.0808 130.724 38.9014 130.679 38.6996C130.612 38.4978 130.59 38.296 130.59 38.0718C130.59 37.8476 130.612 37.6458 130.679 37.444C130.747 37.2422 130.814 37.0404 130.926 36.8611C131.038 36.6817 131.173 36.5023 131.33 36.3678C131.486 36.2108 131.666 36.0763 131.845 35.9642C132.047 35.8521 132.249 35.7624 132.473 35.7176C132.697 35.6503 132.944 35.6279 133.19 35.6279C133.437 35.6279 133.661 35.6503 133.863 35.7176C134.065 35.7848 134.267 35.8745 134.424 35.9866C134.603 36.0987 134.738 36.2333 134.872 36.3678C135.007 36.5023 135.119 36.6593 135.208 36.8162L134.872 37.0404C134.67 36.6593 134.469 36.3902 134.222 36.2108C133.998 36.0539 133.729 35.9642 133.415 35.9642Z" fill="black"/>
<path d="M137.182 40.3812H136.464V35.1795L136.98 34.9777H137.182V40.3812V40.3812Z" fill="black"/>
<path d="M140.096 40.4485C139.827 40.4485 139.558 40.4036 139.334 40.3139C139.11 40.2243 138.908 40.0897 138.729 39.9328C138.549 39.7758 138.437 39.574 138.325 39.3498C138.213 39.1256 138.19 38.9014 138.19 38.6323C138.19 38.3633 138.235 38.1166 138.325 37.8924C138.415 37.6682 138.549 37.4664 138.729 37.287C138.908 37.1077 139.087 36.9731 139.334 36.8835C139.558 36.7938 139.827 36.7265 140.096 36.7265C140.365 36.7265 140.612 36.7713 140.859 36.861C141.083 36.9507 141.285 37.0852 141.464 37.2422C141.643 37.3991 141.755 37.5785 141.868 37.8027C141.98 38.027 142.002 38.2512 142.002 38.4978C142.002 38.7669 141.957 39.0135 141.868 39.2601C141.778 39.5068 141.643 39.7086 141.464 39.8879C141.285 40.0673 141.105 40.2018 140.859 40.3139C140.612 40.4036 140.365 40.4485 140.096 40.4485ZM140.231 40.2018C140.365 40.2018 140.5 40.157 140.612 40.0897C140.724 40.0225 140.836 39.9104 140.903 39.7982C140.971 39.6861 141.06 39.5292 141.105 39.3722C141.15 39.2153 141.172 39.0359 141.172 38.8565C141.172 38.5875 141.15 38.3633 141.105 38.1391C141.06 37.9148 140.993 37.713 140.881 37.5561C140.791 37.3767 140.657 37.2646 140.477 37.1525C140.32 37.0628 140.119 37.018 139.894 37.018C139.782 37.018 139.67 37.0628 139.558 37.1301C139.446 37.1974 139.356 37.287 139.267 37.4216C139.177 37.5337 139.11 37.6906 139.065 37.8476C139.02 38.0045 138.998 38.1839 138.998 38.3633C138.998 38.6323 139.02 38.879 139.087 39.1032C139.132 39.3274 139.222 39.5292 139.334 39.7086C139.446 39.8879 139.581 40.0225 139.715 40.1121C139.85 40.1346 140.029 40.2018 140.231 40.2018Z" fill="black"/>
<path d="M142.989 35.157L143.482 34.9552H143.684V37.4664C143.751 37.3767 143.818 37.2646 143.908 37.1749C143.998 37.0852 144.11 36.9956 144.222 36.9283C144.334 36.861 144.446 36.8162 144.558 36.7713C144.67 36.7265 144.782 36.7041 144.895 36.7041C145.096 36.7041 145.298 36.7489 145.477 36.8386C145.657 36.9283 145.814 37.0404 145.926 37.1749C146.06 37.3095 146.15 37.4888 146.217 37.6906C146.285 37.8924 146.329 38.0942 146.329 38.3184C146.329 38.6099 146.285 38.9014 146.173 39.148C146.06 39.4171 145.926 39.6413 145.747 39.8207C145.567 40.0225 145.343 40.157 145.119 40.2691C144.872 40.3812 144.625 40.4485 144.334 40.4485C144.065 40.4485 143.818 40.4036 143.572 40.3364C143.325 40.2691 143.123 40.157 142.944 40.0225V35.157H142.989ZM143.706 39.7983C143.751 39.8431 143.796 39.8879 143.841 39.9328C143.886 39.9776 143.953 40.0225 144.02 40.0449C144.087 40.0897 144.155 40.1122 144.244 40.1346C144.334 40.157 144.424 40.157 144.513 40.157C144.67 40.157 144.827 40.1122 144.962 40.0449C145.096 39.9552 145.208 39.8431 145.321 39.7086C145.41 39.574 145.5 39.3947 145.545 39.1929C145.59 38.9911 145.634 38.7893 145.634 38.5426C145.634 38.3633 145.612 38.2063 145.545 38.0494C145.5 37.8924 145.41 37.7579 145.321 37.6458C145.231 37.5337 145.119 37.444 144.984 37.3767C144.85 37.3095 144.715 37.287 144.581 37.287C144.491 37.287 144.424 37.3095 144.334 37.3319C144.244 37.3543 144.177 37.3767 144.087 37.4216C144.02 37.4664 143.93 37.5113 143.863 37.5561C143.796 37.6009 143.751 37.6682 143.706 37.7355V39.7983Z" fill="black"/>
<path d="M149.603 40.3812C149.513 40.3363 149.424 40.2691 149.356 40.1794C149.289 40.0897 149.267 40 149.267 39.8879C149.177 39.9552 149.11 40.0224 149.02 40.0897C148.93 40.157 148.841 40.2242 148.751 40.2691C148.661 40.3139 148.549 40.3588 148.437 40.4036C148.325 40.4485 148.19 40.4485 148.034 40.4485C147.899 40.4485 147.764 40.426 147.652 40.3812C147.54 40.3363 147.451 40.2691 147.361 40.2018C147.294 40.1121 147.226 40.0224 147.182 39.9103C147.137 39.7982 147.114 39.6861 147.114 39.5516C147.114 39.3946 147.137 39.2601 147.204 39.1256C147.271 38.9911 147.338 38.9014 147.451 38.7893C147.563 38.6996 147.675 38.6099 147.809 38.5202C147.944 38.4529 148.101 38.3857 148.258 38.3184C148.415 38.2511 148.572 38.2063 148.751 38.1615C148.93 38.1166 149.087 38.0718 149.244 38.0269V37.8027C149.244 37.6458 149.222 37.5112 149.199 37.3991C149.177 37.287 149.132 37.1973 149.087 37.1301C149.043 37.0628 148.975 37.018 148.908 36.9731C148.841 36.9507 148.751 36.9283 148.639 36.9283C148.549 36.9283 148.437 36.9507 148.37 36.9955C148.28 37.0404 148.213 37.0852 148.146 37.1525C148.078 37.2198 148.034 37.287 147.989 37.3767C147.944 37.4664 147.921 37.5561 147.899 37.6682H147.249C147.271 37.5112 147.316 37.3767 147.406 37.2646C147.495 37.1525 147.608 37.0404 147.742 36.9507C147.877 36.861 148.034 36.7937 148.191 36.7489C148.37 36.7041 148.527 36.6816 148.729 36.6816C148.953 36.6816 149.155 36.7041 149.312 36.7489C149.469 36.7937 149.603 36.861 149.693 36.9507C149.782 37.0404 149.85 37.1301 149.895 37.2422C149.939 37.3543 149.962 37.4888 149.962 37.6233V39.8431C149.962 39.9552 149.984 40.0449 150.051 40.1346C150.119 40.2242 150.186 40.2915 150.298 40.3363H149.603V40.3812ZM149.289 38.296C149.177 38.3184 149.087 38.3633 148.975 38.4081C148.863 38.4529 148.751 38.4978 148.661 38.5426C148.572 38.5875 148.46 38.6547 148.37 38.722C148.28 38.7893 148.19 38.8565 148.123 38.9238C148.056 38.9911 147.989 39.0583 147.944 39.148C147.899 39.2377 147.877 39.305 147.877 39.3946C147.877 39.4843 147.899 39.574 147.921 39.6413C147.944 39.7085 147.989 39.7982 148.056 39.8431C148.101 39.9103 148.168 39.9552 148.235 39.9776C148.303 40.0224 148.37 40.0224 148.46 40.0224C148.549 40.0224 148.617 40.0224 148.684 40C148.751 39.9776 148.818 39.9552 148.886 39.9103C148.953 39.8655 149.02 39.8431 149.087 39.7758C149.155 39.731 149.222 39.6861 149.289 39.6189V38.296V38.296Z" fill="black"/>
<path d="M151.868 40.3812H151.15V35.1795L151.666 34.9777H151.868V40.3812V40.3812Z" fill="black"/>
<path d="M153.841 40.3812H153.123V35.1795L153.639 34.9777H153.841V40.3812V40.3812Z" fill="black"/>
<path d="M154.939 41.2333C154.962 41.2557 155.007 41.2557 155.029 41.2781C155.074 41.3005 155.096 41.323 155.141 41.323C155.186 41.3454 155.231 41.3454 155.276 41.3678C155.321 41.3902 155.388 41.3902 155.433 41.3902C155.5 41.3902 155.567 41.3678 155.634 41.323C155.702 41.2781 155.769 41.2333 155.814 41.166C155.859 41.0987 155.926 41.0315 155.948 40.9642C155.993 40.8969 156.016 40.8297 156.06 40.7624L156.307 40.2243L154.469 36.8162H155.276L156.666 39.4171L157.787 36.8162H158.168L156.329 41.0315C156.262 41.2108 156.173 41.3678 156.06 41.4799C155.971 41.6144 155.859 41.7041 155.747 41.7938C155.634 41.8835 155.522 41.9508 155.41 41.9732C155.298 42.018 155.186 42.0404 155.074 42.0404C154.984 42.0404 154.917 42.018 154.827 41.9956C154.738 41.9732 154.67 41.9283 154.625 41.8835L154.939 41.2333Z" fill="black"/>
<path d="M68.9527 17.7353V18.9236H62.3832V23.4976H68.1679V24.686H62.3832V31.6142H58.9751V17.7353H68.9527Z" fill="#1E3768"/>
<path d="M73.0109 17.7353L77.5849 27.3317L81.845 17.7353H84.0199L77.7867 31.816H76.1948L69.4907 17.7353H73.0109V17.7353Z" fill="#1E3768"/>
<path d="M85.9033 17.7353H90.7464C91.5311 17.7353 92.2486 17.825 92.9213 17.9819C93.5939 18.1389 94.1993 18.3855 94.6926 18.7218C95.1858 19.0582 95.5894 19.4617 95.8809 19.955C96.1724 20.4483 96.3069 21.0088 96.3069 21.6591C96.3069 22.3093 96.1724 22.8922 95.8809 23.3631C95.5894 23.8564 95.2307 24.26 94.7598 24.5963C94.289 24.9326 93.7509 25.1568 93.1679 25.3362C92.5849 25.5156 91.9571 25.5828 91.3293 25.5828H89.3338V31.6366H85.9257V17.7353H85.9033ZM89.3338 24.2824H90.4549C90.8361 24.2824 91.1724 24.2151 91.4639 24.0806C91.7553 23.9461 91.9796 23.7443 92.1813 23.4976C92.3831 23.251 92.5177 22.9819 92.6074 22.668C92.697 22.3541 92.7419 22.0178 92.7419 21.6815C92.7419 21.2555 92.6746 20.8967 92.5625 20.5828C92.428 20.2689 92.271 19.9999 92.0468 19.7756C91.8226 19.5514 91.576 19.3945 91.2845 19.26C90.993 19.1478 90.6791 19.0806 90.3428 19.0806H89.3114V24.2824H89.3338Z" fill="#1E3768"/>
<path d="M114.334 17.7353V18.9236H109.536V31.6142H106.128V18.9236H101.307V17.7353H114.334V17.7353Z" fill="#1E3768"/>
<path d="M122.047 23.3182C121.912 23.2061 121.778 23.094 121.643 23.0043C121.531 22.9146 121.397 22.8474 121.285 22.7801C121.173 22.7353 121.038 22.6904 120.926 22.668C120.791 22.6456 120.657 22.6232 120.5 22.6232C120.276 22.6232 120.074 22.668 119.85 22.7353C119.648 22.8025 119.446 22.9146 119.267 23.0267C119.087 23.1613 118.908 23.2958 118.773 23.4752C118.616 23.6321 118.504 23.8115 118.437 24.0133V31.6142H115.276V22.085L117.495 20.9191L118.437 21.9505C118.796 21.5918 119.177 21.3003 119.603 21.0761C120.029 20.8519 120.477 20.7397 120.948 20.7397C121.397 20.7397 121.823 20.8294 122.181 21.0312C122.54 21.233 122.877 21.4348 123.146 21.659L122.047 23.3182Z" fill="#1E3768"/>
<path d="M123.527 23.7891C123.639 23.3631 123.818 22.9595 124.11 22.6008C124.379 22.242 124.715 21.9281 125.119 21.6815C125.522 21.4348 125.993 21.2331 126.509 21.0985C127.025 20.964 127.585 20.8967 128.213 20.8967C128.953 20.8967 129.603 20.964 130.164 21.0985C130.702 21.2331 131.15 21.4348 131.509 21.6815C131.868 21.9281 132.114 22.242 132.294 22.5783C132.451 22.9371 132.54 23.3183 132.54 23.7667V29.7532C132.54 30.1792 132.675 30.538 132.944 30.8519C133.213 31.1434 133.594 31.39 134.065 31.5918H130.276C130.164 31.5918 130.051 31.5694 129.962 31.5021C129.85 31.4348 129.76 31.3676 129.693 31.2555C129.603 31.1658 129.536 31.0537 129.468 30.9416C129.401 30.8295 129.356 30.7174 129.334 30.6052C129.132 30.7846 128.953 30.9416 128.796 31.0985C128.616 31.2555 128.437 31.3676 128.235 31.4797C128.034 31.5918 127.809 31.6591 127.54 31.7263C127.294 31.7936 126.98 31.816 126.621 31.816C126.128 31.816 125.702 31.7487 125.321 31.6142C124.939 31.4797 124.603 31.2779 124.334 31.0537C124.065 30.807 123.863 30.5156 123.706 30.2017C123.572 29.8653 123.482 29.5066 123.482 29.1254C123.482 28.52 123.639 28.0044 123.975 27.5783C124.312 27.1523 124.76 26.7712 125.298 26.4573C125.836 26.1434 126.464 25.8519 127.159 25.6277C127.854 25.381 128.572 25.1568 129.289 24.9326V23.9012C129.289 23.5649 129.244 23.2734 129.177 23.0492C129.11 22.825 129.02 22.6232 128.886 22.4662C128.773 22.3093 128.616 22.2196 128.437 22.1523C128.258 22.0851 128.078 22.0626 127.854 22.0626C127.607 22.0626 127.383 22.1075 127.181 22.1972C126.98 22.2869 126.823 22.4214 126.666 22.5783C126.531 22.7353 126.397 22.9371 126.307 23.1389C126.217 23.3407 126.15 23.5649 126.105 23.8115H123.527V23.7891ZM129.334 26.2106C129.02 26.3452 128.706 26.5021 128.392 26.6815C128.078 26.8609 127.787 27.0626 127.54 27.3093C127.294 27.5335 127.092 27.7801 126.935 28.0716C126.778 28.3407 126.688 28.6322 126.688 28.9461C126.688 29.3048 126.778 29.5739 126.957 29.7757C127.137 29.9774 127.383 30.0671 127.697 30.0671C127.966 30.0671 128.213 29.9999 128.46 29.8429C128.706 29.686 128.998 29.4842 129.312 29.2375V26.2106H129.334Z" fill="#1E3768"/>
<path d="M142.293 30.9864C141.912 31.2555 141.486 31.4573 141.015 31.6142C140.567 31.7712 140.119 31.8384 139.67 31.8384C139.02 31.8384 138.392 31.6815 137.832 31.39C137.249 31.0985 136.755 30.6949 136.329 30.2017C135.903 29.7084 135.567 29.1479 135.32 28.4976C135.074 27.8474 134.962 27.1748 134.962 26.4797C134.962 25.7846 135.119 25.0896 135.41 24.4169C135.702 23.7443 136.128 23.1613 136.643 22.6456C137.159 22.1299 137.787 21.7039 138.482 21.39C139.177 21.0761 139.939 20.9192 140.724 20.9192C141.038 20.9192 141.329 20.9416 141.598 20.9864C141.867 21.0313 142.114 21.0985 142.338 21.1882V16.9281L144.558 15.7622H145.5V31.6142H142.338V30.9864H142.293ZM142.293 24.4842C142.293 24.1479 142.249 23.834 142.137 23.5649C142.024 23.2958 141.89 23.0492 141.711 22.8474C141.531 22.6456 141.352 22.4887 141.128 22.3766C140.903 22.2644 140.702 22.2196 140.477 22.2196C140.186 22.2196 139.917 22.3093 139.648 22.5111C139.379 22.6905 139.154 22.9595 138.975 23.2958C138.773 23.6322 138.616 24.0133 138.504 24.4618C138.392 24.9102 138.325 25.4035 138.325 25.9416C138.325 26.5245 138.392 27.0627 138.527 27.6008C138.661 28.1165 138.841 28.5873 139.065 28.9909C139.289 29.3945 139.558 29.7084 139.85 29.955C140.141 30.2017 140.477 30.3138 140.814 30.3138C140.926 30.3138 141.06 30.2914 141.195 30.2465C141.329 30.2017 141.464 30.1568 141.598 30.0896C141.733 30.0223 141.867 29.9326 141.98 29.8429C142.092 29.7532 142.204 29.6411 142.293 29.529V24.4842V24.4842Z" fill="#1E3768"/>
<path d="M153.325 31.8384C152.585 31.8384 151.89 31.7039 151.217 31.4348C150.567 31.1658 149.984 30.7846 149.513 30.3138C149.02 29.8429 148.639 29.3048 148.37 28.677C148.078 28.0492 147.944 27.399 147.944 26.7263C147.944 25.8967 148.078 25.1344 148.325 24.4393C148.594 23.7443 148.953 23.1165 149.423 22.6008C149.894 22.0851 150.477 21.6815 151.127 21.39C151.8 21.0985 152.54 20.964 153.347 20.964C154.087 20.964 154.737 21.0761 155.343 21.3227C155.948 21.5469 156.464 21.8609 156.912 22.2644C157.338 22.668 157.675 23.1389 157.921 23.677C158.168 24.2151 158.28 24.7981 158.28 25.4259H151.015C151.038 26.0088 151.127 26.5469 151.284 27.0851C151.441 27.6008 151.621 28.0716 151.867 28.4752C152.114 28.8788 152.405 29.1927 152.742 29.4169C153.078 29.6411 153.437 29.7756 153.84 29.7756C154.199 29.7756 154.536 29.7084 154.872 29.5963C155.208 29.4842 155.522 29.3048 155.814 29.103C156.105 28.9012 156.352 28.6546 156.553 28.3855C156.755 28.1165 156.912 27.8026 157.024 27.4887L158.639 27.7353C158.482 28.2958 158.213 28.8339 157.854 29.3272C157.495 29.8205 157.069 30.2689 156.598 30.6277C156.127 31.0088 155.589 31.3003 155.029 31.5021C154.491 31.7263 153.908 31.8384 153.325 31.8384ZM154.67 24.3272C154.648 24.0133 154.58 23.7443 154.468 23.4752C154.356 23.2286 154.222 23.0043 154.065 22.825C153.908 22.6456 153.706 22.4887 153.482 22.399C153.258 22.3093 153.033 22.242 152.787 22.242C152.585 22.242 152.383 22.2869 152.204 22.399C152.002 22.4887 151.845 22.6456 151.688 22.825C151.531 23.0043 151.397 23.2286 151.307 23.4752C151.195 23.7218 151.127 24.0133 151.105 24.3272H154.67Z" fill="#1E3768"/>
</svg>
