<svg width="156" height="108" viewBox="0 0 156 108" fill="none" xmlns="http://www.w3.org/2000/svg">
<path d="M56.3798 38.2999C57.5156 38.2987 58.608 38.7358 59.4295 39.52C60.251 40.3043 60.7383 41.3753 60.7898 42.5099C62.0535 38.3629 62.8649 34.0914 63.2098 29.7699C62.3498 29.4599 61.4998 29.1399 60.6398 28.7699C60.47 28.7798 60.2997 28.7798 60.1298 28.7699C59.3536 28.7699 58.588 28.5892 57.8937 28.242C57.1995 27.8949 56.5955 27.3909 56.1298 26.7699C54.1298 25.7699 52.1298 24.7699 50.1998 23.6799L49.9998 23.5699C50.0401 23.7403 50.0602 23.9148 50.0598 24.0899C50.0601 24.53 49.9384 24.9616 49.7081 25.3367C49.4778 25.7118 49.1481 26.0157 48.7554 26.2146C48.3628 26.4135 47.9227 26.4996 47.4841 26.4635C47.0455 26.4273 46.6255 26.2701 46.2707 26.0096C45.916 25.749 45.6405 25.3952 45.4749 24.9874C45.3092 24.5797 45.2598 24.1339 45.3323 23.6998C45.4047 23.2657 45.5961 22.8602 45.8852 22.5283C46.1743 22.1964 46.5497 21.9512 46.9698 21.8199C43.2996 19.6517 39.7723 17.2501 36.4098 14.6299C32.3045 17.8569 27.9585 20.7654 23.4098 23.3299L22.7998 23.6699C18.6386 26.0459 14.2909 28.0793 9.7998 29.7499C10.6426 39.261 13.5466 48.4744 18.3098 56.7499L18.7098 57.4399C22.8098 64.4399 28.9798 71.5999 36.6198 75.0599C40.2063 73.3598 43.4607 71.0333 46.2298 68.1899C46.1173 67.7046 46.0603 67.2081 46.0598 66.7099C46.1001 64.8746 46.8437 63.1249 48.1371 61.8221C49.4305 60.5194 51.1748 59.7633 53.0098 59.7099C53.5098 58.9399 54.0098 58.1699 54.4398 57.3999L54.8398 56.7199C56.8763 53.1463 58.5898 49.3981 59.9598 45.5199C59.4875 46.0989 58.8765 46.549 58.1835 46.8285C57.4905 47.1079 56.7381 47.2075 55.9963 47.118C55.2545 47.0285 54.5474 46.7528 53.9408 46.3166C53.3341 45.8805 52.8476 45.2979 52.5266 44.6232C52.2056 43.9485 52.0604 43.2035 52.1047 42.4577C52.1489 41.7118 52.3811 40.9892 52.7796 40.3572C53.1781 39.7251 53.73 39.2041 54.3839 38.8427C55.0379 38.4812 55.7726 38.2911 56.5198 38.2899L56.3798 38.2999ZM58.5298 34.6599C58.6887 34.5247 58.8926 34.4543 59.101 34.4627C59.3094 34.4711 59.507 34.5577 59.6545 34.7052C59.802 34.8526 59.8886 35.0503 59.897 35.2587C59.9054 35.4671 59.835 35.671 59.6998 35.8299C59.5409 35.965 59.337 36.0354 59.1286 36.027C58.9202 36.0187 58.7226 35.9321 58.5751 35.7846C58.4276 35.6371 58.341 35.4395 58.3326 35.2311C58.3243 35.0227 58.3946 34.8187 58.5298 34.6599ZM54.9998 48.7699C55.1553 48.6154 55.3656 48.5287 55.5848 48.5287C55.804 48.5287 56.0143 48.6154 56.1698 48.7699C56.3226 48.9283 56.4079 49.1398 56.4079 49.3599C56.4079 49.58 56.3226 49.7915 56.1698 49.9499C56.0133 50.105 55.8016 50.1917 55.5813 50.1907C55.3609 50.1898 55.15 50.1014 54.9948 49.9449C54.8397 49.7884 54.753 49.5767 54.754 49.3563C54.7549 49.136 54.8433 48.925 54.9998 48.7699ZM53.1098 54.1699C53.1841 54.0826 53.2756 54.0116 53.3787 53.9614C53.4817 53.9113 53.5941 53.883 53.7086 53.8784C53.8231 53.8738 53.9374 53.8929 54.0441 53.9347C54.1509 53.9764 54.2478 54.0398 54.3289 54.1208C54.4099 54.2019 54.4733 54.2988 54.515 54.4056C54.5568 54.5123 54.5759 54.6266 54.5713 54.7411C54.5667 54.8556 54.5384 54.9679 54.4882 55.071C54.4381 55.1741 54.3671 55.2656 54.2798 55.3399C54.2035 55.4176 54.1124 55.4793 54.012 55.5214C53.9116 55.5636 53.8037 55.5853 53.6948 55.5853C53.5859 55.5853 53.4781 55.5636 53.3776 55.5214C53.2772 55.4793 53.1861 55.4176 53.1098 55.3399C52.9579 55.1818 52.8748 54.97 52.8785 54.7508C52.8823 54.5315 52.9726 54.3227 53.1298 54.1699H53.1098ZM54.2198 28.0899C54.2941 28.0026 54.3856 27.9316 54.4887 27.8814C54.5917 27.8313 54.7041 27.803 54.8186 27.7984C54.9331 27.7938 55.0474 27.8129 55.1541 27.8547C55.2609 27.8964 55.3578 27.9598 55.4389 28.0408C55.5199 28.1219 55.5833 28.2188 55.625 28.3256C55.6668 28.4323 55.6859 28.5466 55.6813 28.6611C55.6767 28.7756 55.6484 28.8879 55.5982 28.991C55.5481 29.0941 55.4771 29.1856 55.3898 29.2599C55.2309 29.395 55.027 29.4654 54.8186 29.457C54.6102 29.4487 54.4126 29.3621 54.2651 29.2146C54.1176 29.0671 54.031 28.8695 54.0226 28.6611C54.0143 28.4527 54.0846 28.2487 54.2198 28.0899ZM49.1598 42.3999C49.3153 42.2454 49.5256 42.1587 49.7448 42.1587C49.964 42.1587 50.1743 42.2454 50.3298 42.3999C50.465 42.5588 50.5354 42.7627 50.527 42.9711C50.5186 43.1795 50.432 43.3771 50.2845 43.5246C50.137 43.6721 49.9394 43.7587 49.731 43.767C49.5226 43.7754 49.3187 43.705 49.1598 43.5699C49.0053 43.4144 48.9186 43.2041 48.9186 42.9849C48.9186 42.7657 49.0053 42.5554 49.1598 42.3999ZM39.7998 26.2699C39.8766 26.1911 39.9682 26.1282 40.0693 26.0848C40.1705 26.0414 40.2792 26.0184 40.3892 26.017C40.4992 26.0156 40.6085 26.0359 40.7107 26.0767C40.8129 26.1175 40.906 26.1781 40.9848 26.2549C41.0636 26.3317 41.1265 26.4233 41.1699 26.5244C41.2133 26.6256 41.2363 26.7342 41.2377 26.8443C41.2391 26.9543 41.2188 27.0635 41.178 27.1657C41.1372 27.2679 41.0766 27.3611 40.9998 27.4399C40.8409 27.575 40.637 27.6454 40.4286 27.637C40.2202 27.6287 40.0226 27.5421 39.8751 27.3946C39.7276 27.2471 39.641 27.0495 39.6326 26.8411C39.6243 26.6327 39.6946 26.4288 39.8298 26.2699H39.7998ZM34.0798 36.4199C34.0798 35.0172 34.4959 33.646 35.2754 32.4799C36.0549 31.3137 37.1628 30.405 38.4589 29.8686C39.755 29.3323 41.1811 29.1925 42.5567 29.4669C43.9323 29.7412 45.1956 30.4175 46.1867 31.41C47.1779 32.4026 47.8524 33.6668 48.1248 35.0428C48.3972 36.4188 48.2554 37.8447 47.7172 39.14C47.1791 40.4354 46.2688 41.542 45.1015 42.3199C43.9343 43.0977 42.5625 43.5119 41.1598 43.5099C40.2292 43.5099 39.3077 43.3264 38.4481 42.97C37.5885 42.6136 36.8075 42.0912 36.15 41.4327C35.4924 40.7742 34.9711 39.9925 34.6159 39.1324C34.2606 38.2722 34.0785 37.3505 34.0798 36.4199ZM39.5398 49.7499C39.1656 49.7519 38.7992 49.6427 38.4871 49.4362C38.1749 49.2298 37.9311 48.9353 37.7866 48.5901C37.642 48.2449 37.6031 47.8646 37.6749 47.4973C37.7467 47.1301 37.9259 46.7924 38.1898 46.527C38.4538 46.2617 38.7905 46.0807 39.1574 46.007C39.5243 45.9332 39.9048 45.9701 40.2507 46.1128C40.5967 46.2556 40.8925 46.4978 41.1006 46.8088C41.3087 47.1198 41.4198 47.4856 41.4198 47.8599C41.4198 48.3594 41.2221 48.8386 40.8698 49.1928C40.5175 49.5469 40.0393 49.7472 39.5398 49.7499ZM46.7598 57.8099C45.8856 57.8099 45.031 57.5507 44.3042 57.065C43.5773 56.5793 43.0108 55.889 42.6763 55.0813C42.3417 54.2737 42.2542 53.385 42.4247 52.5276C42.5953 51.6702 43.0162 50.8826 43.6344 50.2645C44.2525 49.6463 45.0401 49.2254 45.8975 49.0548C46.7549 48.8843 47.6436 48.9718 48.4513 49.3063C49.2589 49.6409 49.9492 50.2074 50.4349 50.9343C50.9206 51.6611 51.1798 52.5157 51.1798 53.3899C51.1798 54.5621 50.7141 55.6864 49.8852 56.5153C49.0563 57.3442 47.9321 57.8099 46.7598 57.8099ZM50.9998 33.0999C51.0018 32.7257 51.1149 32.3605 51.3246 32.0505C51.5344 31.7406 51.8315 31.5 52.1781 31.3591C52.5248 31.2182 52.9055 31.1834 53.272 31.259C53.6385 31.3347 53.9743 31.5175 54.2368 31.7842C54.4993 32.0509 54.6767 32.3896 54.7466 32.7572C54.8164 33.1249 54.7755 33.505 54.6291 33.8494C54.4827 34.1938 54.2374 34.487 53.9242 34.6918C53.611 34.8966 53.244 35.0038 52.8698 34.9999C52.3703 34.9946 51.8932 34.7918 51.5428 34.4357C51.1923 34.0797 50.9971 33.5994 50.9998 33.0999Z" fill="url(#paint0_linear_37_6403)"/>
<path d="M53.1401 17.1204C50.5001 15.6004 47.8401 13.9004 45.3001 12.1204C42.7976 10.3585 40.4002 8.45193 38.1201 6.41043L36.5101 4.94043L34.9001 6.39043C30.278 10.468 25.252 14.0632 19.9001 17.1204C17.1855 18.6961 14.3918 20.1313 11.5301 21.4204C9.20709 22.4866 6.80694 23.3758 4.35006 24.0804L2.56006 24.5604V26.4104C2.56006 37.7704 6.27006 50.7504 12.5601 61.5604C18.3601 71.5604 26.3801 79.8404 35.7401 83.3104L36.5801 83.6204L37.4201 83.3104C42.845 81.1674 47.7186 77.8317 51.6801 73.5504C50.0094 73.2221 48.506 72.3201 47.4301 71.0004C44.3148 74.1946 40.6053 76.7492 36.5101 78.5204C28.6301 75.2504 21.7601 68.0004 16.6501 59.1604C13.8855 54.3434 11.6875 49.2227 10.1001 43.9004C8.53302 38.8002 7.62235 33.521 7.39006 28.1904C12.5689 26.3911 17.5539 24.0761 22.2701 21.2804C27.2967 18.4075 32.0587 15.0945 36.5001 11.3804C40.9397 15.0921 45.6982 18.405 50.7201 21.2804C51.5701 21.7704 52.4201 22.2804 53.2601 22.7004C53.3035 22.3921 53.457 22.1099 53.6923 21.9058C53.9275 21.7018 54.2287 21.5898 54.5401 21.5904C54.7951 21.591 55.0447 21.6638 55.2601 21.8004C55.5724 20.793 56.1782 19.9016 57.0001 19.2404C55.7401 18.5904 54.4401 17.8704 53.1401 17.1204ZM58.5001 21.6204C57.9729 21.8522 57.5518 22.2732 57.3201 22.8004H61.6301C61.3705 22.2297 60.8954 21.7852 60.3088 21.564C59.7221 21.3428 59.0718 21.3631 58.5001 21.6204Z" fill="url(#paint1_linear_37_6403)"/>
<path d="M60.4402 25.9997C60.1554 26.128 59.848 26.1988 59.5357 26.2079C59.2235 26.217 58.9125 26.1643 58.6207 26.0527C58.3289 25.9412 58.062 25.7731 57.8354 25.5581C57.6087 25.343 57.4269 25.0853 57.3002 24.7997C57.1594 24.494 57.0864 24.1614 57.0864 23.8247C57.0864 23.4881 57.1594 23.1555 57.3002 22.8497C57.532 22.3225 57.953 21.9015 58.4802 21.6697C59.0519 21.4124 59.7023 21.3921 60.2889 21.6133C60.8756 21.8345 61.3507 22.279 61.6102 22.8497C61.7411 23.1333 61.8146 23.4398 61.8265 23.7519C61.8385 24.0639 61.7887 24.3752 61.68 24.6679C61.5713 24.9606 61.4058 25.229 61.193 25.4575C60.9803 25.6861 60.7244 25.8704 60.4402 25.9997Z" fill="white"/>
<path d="M65.18 24.1504C65.127 24.6565 64.9989 25.152 64.8 25.6204C64.6451 25.5116 64.5326 25.3526 64.4815 25.1704C64.4305 24.9881 64.4441 24.7938 64.52 24.6204C64.5773 24.4898 64.669 24.3771 64.7852 24.2943C64.9014 24.2116 65.0378 24.1618 65.18 24.1504Z" fill="white"/>
<path d="M74.6301 22.5805C75.348 22.5805 75.9301 21.9984 75.9301 21.2805C75.9301 20.5625 75.348 19.9805 74.6301 19.9805C73.9121 19.9805 73.3301 20.5625 73.3301 21.2805C73.3301 21.9984 73.9121 22.5805 74.6301 22.5805Z" fill="url(#paint2_linear_37_6403)"/>
<path d="M75.8202 14.99C76.864 14.99 77.7102 14.1438 77.7102 13.1C77.7102 12.0561 76.864 11.21 75.8202 11.21C74.7764 11.21 73.9302 12.0561 73.9302 13.1C73.9302 14.1438 74.7764 14.99 75.8202 14.99Z" fill="url(#paint3_linear_37_6403)"/>
<path d="M68.9601 39.2903C71.1029 39.2903 72.8401 37.5531 72.8401 35.4103C72.8401 33.2674 71.1029 31.5303 68.9601 31.5303C66.8172 31.5303 65.0801 33.2674 65.0801 35.4103C65.0801 37.5531 66.8172 39.2903 68.9601 39.2903Z" fill="url(#paint4_linear_37_6403)"/>
<path d="M71.0102 30.16C71.4686 30.16 71.8402 29.7884 71.8402 29.33C71.8402 28.8716 71.4686 28.5 71.0102 28.5C70.5518 28.5 70.1802 28.8716 70.1802 29.33C70.1802 29.7884 70.5518 30.16 71.0102 30.16Z" fill="url(#paint5_linear_37_6403)"/>
<path d="M69.4999 19.8104C69.9583 19.8104 70.3299 19.4388 70.3299 18.9804C70.3299 18.522 69.9583 18.1504 69.4999 18.1504C69.0415 18.1504 68.6699 18.522 68.6699 18.9804C68.6699 19.4388 69.0415 19.8104 69.4999 19.8104Z" fill="url(#paint6_linear_37_6403)"/>
<path d="M77.9101 18.5496C78.3685 18.5496 78.7401 18.178 78.7401 17.7196C78.7401 17.2613 78.3685 16.8896 77.9101 16.8896C77.4517 16.8896 77.0801 17.2613 77.0801 17.7196C77.0801 18.178 77.4517 18.5496 77.9101 18.5496Z" fill="url(#paint7_linear_37_6403)"/>
<path d="M79.04 22.2196C79.4984 22.2196 79.87 21.848 79.87 21.3896C79.87 20.9312 79.4984 20.5596 79.04 20.5596C78.5816 20.5596 78.21 20.9312 78.21 21.3896C78.21 21.848 78.5816 22.2196 79.04 22.2196Z" fill="url(#paint8_linear_37_6403)"/>
<path d="M76.8598 25.6102C77.3182 25.6102 77.6898 25.2386 77.6898 24.7802C77.6898 24.3218 77.3182 23.9502 76.8598 23.9502C76.4014 23.9502 76.0298 24.3218 76.0298 24.7802C76.0298 25.2386 76.4014 25.6102 76.8598 25.6102Z" fill="url(#paint9_linear_37_6403)"/>
<path d="M66.9501 47.7303C67.4085 47.7303 67.7801 47.3587 67.7801 46.9003C67.7801 46.4419 67.4085 46.0703 66.9501 46.0703C66.4917 46.0703 66.1201 46.4419 66.1201 46.9003C66.1201 47.3587 66.4917 47.7303 66.9501 47.7303Z" fill="url(#paint10_linear_37_6403)"/>
<path d="M66.0702 28.8602C66.5286 28.8602 66.9002 28.4886 66.9002 28.0302C66.9002 27.5718 66.5286 27.2002 66.0702 27.2002C65.6118 27.2002 65.2402 27.5718 65.2402 28.0302C65.2402 28.4886 65.6118 28.8602 66.0702 28.8602Z" fill="url(#paint11_linear_37_6403)"/>
<path d="M68.2499 42.6502C68.7083 42.6502 69.0799 42.2786 69.0799 41.8202C69.0799 41.3618 68.7083 40.9902 68.2499 40.9902C67.7915 40.9902 67.4199 41.3618 67.4199 41.8202C67.4199 42.2786 67.7915 42.6502 68.2499 42.6502Z" fill="url(#paint12_linear_37_6403)"/>
<path d="M67.2399 53.0004C67.9579 53.0004 68.5399 52.4184 68.5399 51.7004C68.5399 50.9824 67.9579 50.4004 67.2399 50.4004C66.522 50.4004 65.9399 50.9824 65.9399 51.7004C65.9399 52.4184 66.522 53.0004 67.2399 53.0004Z" fill="url(#paint13_linear_37_6403)"/>
<path d="M72.6701 26.2104C73.3881 26.2104 73.9701 25.6283 73.9701 24.9104C73.9701 24.1924 73.3881 23.6104 72.6701 23.6104C71.9521 23.6104 71.3701 24.1924 71.3701 24.9104C71.3701 25.6283 71.9521 26.2104 72.6701 26.2104Z" fill="url(#paint14_linear_37_6403)"/>
<path d="M64.78 44.9301C65.4979 44.9301 66.08 44.348 66.08 43.6301C66.08 42.9121 65.4979 42.3301 64.78 42.3301C64.062 42.3301 63.48 42.9121 63.48 43.6301C63.48 44.348 64.062 44.9301 64.78 44.9301Z" fill="url(#paint15_linear_37_6403)"/>
<path d="M60.4402 25.9997C60.1554 26.128 59.848 26.1988 59.5357 26.2079C59.2235 26.217 58.9125 26.1643 58.6207 26.0527C58.3289 25.9412 58.062 25.7731 57.8354 25.5581C57.6087 25.343 57.4269 25.0853 57.3002 24.7997C57.1594 24.494 57.0864 24.1614 57.0864 23.8247C57.0864 23.4881 57.1594 23.1555 57.3002 22.8497C57.532 22.3225 57.953 21.9015 58.4802 21.6697C59.0519 21.4124 59.7023 21.3921 60.2889 21.6133C60.8756 21.8345 61.3507 22.279 61.6102 22.8497C61.7411 23.1333 61.8146 23.4398 61.8265 23.7519C61.8385 24.0639 61.7887 24.3752 61.68 24.6679C61.5713 24.9606 61.4058 25.229 61.193 25.4575C60.9803 25.6861 60.7244 25.8704 60.4402 25.9997Z" fill="url(#paint16_linear_37_6403)"/>
<path d="M66.06 25.2504C65.9816 25.4558 65.8249 25.6218 65.6243 25.7118C65.4237 25.8017 65.1956 25.8085 64.99 25.7304C64.9214 25.7037 64.8574 25.6666 64.8 25.6204C64.6451 25.5117 64.5326 25.3527 64.4815 25.1704C64.4305 24.9881 64.4441 24.7938 64.52 24.6204C64.5715 24.4823 64.6606 24.3614 64.7772 24.2712C64.8939 24.1811 65.0334 24.1254 65.18 24.1104C65.3139 24.0713 65.4561 24.0713 65.59 24.1104C65.6995 24.1495 65.7996 24.2111 65.8838 24.2913C65.9679 24.3714 66.0343 24.4684 66.0786 24.5759C66.1229 24.6833 66.1442 24.7989 66.141 24.9151C66.1378 25.0313 66.1102 25.1456 66.06 25.2504Z" fill="url(#paint17_linear_37_6403)"/>
<path d="M62.1698 50.2098C62.6282 50.2098 62.9998 49.8382 62.9998 49.3798C62.9998 48.9214 62.6282 48.5498 62.1698 48.5498C61.7114 48.5498 61.3398 48.9214 61.3398 49.3798C61.3398 49.8382 61.7114 50.2098 62.1698 50.2098Z" fill="url(#paint18_linear_37_6403)"/>
<path d="M58.7398 65.3201C58.5475 65.7469 58.2331 66.1072 57.8363 66.3556C57.4394 66.6039 56.9779 66.7292 56.51 66.7156C56.042 66.7019 55.5886 66.55 55.2069 66.279C54.8252 66.0079 54.5323 65.6299 54.3651 65.1926C54.198 64.7553 54.1642 64.2783 54.2678 63.8218C54.3715 63.3652 54.608 62.9496 54.9476 62.6274C55.2872 62.3052 55.7146 62.0907 56.176 62.0111C56.6373 61.9315 57.1119 61.9903 57.5398 62.1801C58.1148 62.438 58.564 62.9134 58.7889 63.502C59.0139 64.0906 58.9962 64.7444 58.7398 65.3201Z" fill="white"/>
<path d="M57.3598 59.1297C57.8182 59.1297 58.1898 58.7581 58.1898 58.2997C58.1898 57.8413 57.8182 57.4697 57.3598 57.4697C56.9014 57.4697 56.5298 57.8413 56.5298 58.2997C56.5298 58.7581 56.9014 59.1297 57.3598 59.1297Z" fill="url(#paint19_linear_37_6403)"/>
<path d="M75.3002 44.49C76.344 44.49 77.1902 43.6438 77.1902 42.6C77.1902 41.5561 76.344 40.71 75.3002 40.71C74.2563 40.71 73.4102 41.5561 73.4102 42.6C73.4102 43.6438 74.2563 44.49 75.3002 44.49Z" fill="url(#paint20_linear_37_6403)"/>
<path d="M58.7398 65.3201C58.5475 65.7469 58.2331 66.1072 57.8363 66.3556C57.4394 66.6039 56.9779 66.7292 56.51 66.7156C56.042 66.7019 55.5886 66.55 55.2069 66.279C54.8252 66.0079 54.5323 65.6299 54.3651 65.1926C54.198 64.7553 54.1642 64.2783 54.2678 63.8218C54.3715 63.3652 54.608 62.9496 54.9476 62.6274C55.2872 62.3052 55.7146 62.0907 56.176 62.0111C56.6373 61.9315 57.1119 61.9903 57.5398 62.1801C58.1148 62.438 58.564 62.9134 58.7889 63.502C59.0139 64.0906 58.9962 64.7444 58.7398 65.3201Z" fill="url(#paint21_linear_37_6403)"/>
<path d="M79.5601 34.4004C81.355 34.4004 82.8101 32.9453 82.8101 31.1504C82.8101 29.3555 81.355 27.9004 79.5601 27.9004C77.7651 27.9004 76.3101 29.3555 76.3101 31.1504C76.3101 32.9453 77.7651 34.4004 79.5601 34.4004Z" fill="url(#paint22_linear_37_6403)"/>
<path d="M73.3101 66.9998C73.1081 66.9797 72.9042 67.0057 72.7137 67.0758C72.5233 67.146 72.3512 67.2585 72.2106 67.4049C72.07 67.5513 71.9645 67.7277 71.9021 67.9209C71.8396 68.114 71.8218 68.3188 71.8501 68.5198V68.9198C71.5226 68.3002 71.0223 67.7889 70.4099 67.4481C69.7975 67.1072 69.0993 66.9515 68.4001 66.9998C65.6901 66.9998 63.3501 68.9998 63.3501 73.1398C63.3501 76.3198 65.1201 78.5198 68.5201 78.5198C69.1192 78.5155 69.7097 78.3767 70.248 78.1137C70.7863 77.8506 71.2586 77.4699 71.6301 76.9998V77.6598C71.6301 80.1998 70.8401 81.1898 68.8701 81.1898C67.0601 81.1898 66.8001 79.5398 65.4501 79.5398C65.2724 79.5411 65.0968 79.5777 64.9334 79.6475C64.77 79.7173 64.6221 79.8189 64.4983 79.9464C64.3745 80.0739 64.2774 80.2247 64.2124 80.3901C64.1475 80.5555 64.1161 80.7322 64.1201 80.9098C64.1201 82.4698 66.5301 83.5798 68.9801 83.5798C72.3401 83.5798 74.7201 81.7898 74.7201 77.8998V68.4998C74.7601 67.5098 74.3001 66.9998 73.3101 66.9998ZM69.1301 76.1398C67.3001 76.1398 66.5701 74.5098 66.5701 73.0298C66.5701 71.0298 67.2101 69.5198 69.2901 69.5198C70.7901 69.5198 71.6701 70.5198 71.6701 72.8898C71.6701 75.2598 70.5701 76.1198 69.1301 76.1198V76.1398Z" fill="#0C0C0C"/>
<path d="M88.0001 75.7V70.29C88.0001 68 85.8901 67 82.8001 67C79.4901 67 77.6801 68.63 77.6801 69.91C77.6865 70.0821 77.7272 70.2512 77.7999 70.4073C77.8727 70.5634 77.9759 70.7034 78.1036 70.819C78.2313 70.9345 78.3808 71.0234 78.5434 71.0802C78.706 71.1371 78.8783 71.1608 79.0501 71.15C80.3301 71.15 80.3901 69.38 82.7801 69.38C83.8601 69.38 84.7801 69.78 84.7801 70.71C84.7801 71.64 84.1601 71.81 83.3901 71.9L81.3901 72.12C78.9201 72.41 76.8901 73.12 76.8901 75.83C76.9106 76.2859 77.0213 76.7332 77.2158 77.146C77.4103 77.5588 77.6848 77.9289 78.0233 78.2349C78.3619 78.5409 78.7577 78.7767 79.188 78.9286C79.6184 79.0805 80.0745 79.1456 80.5301 79.12C81.3703 79.1614 82.209 79.012 82.9831 78.6829C83.7573 78.3538 84.4469 77.8537 85.0001 77.22C84.9785 77.4741 85.0129 77.7298 85.101 77.9691C85.1891 78.2084 85.3287 78.4255 85.51 78.6048C85.6913 78.7842 85.9097 78.9215 86.15 79.0071C86.3902 79.0926 86.6463 79.1244 86.9001 79.1C87.2568 79.1276 87.6098 79.0125 87.8817 78.78C88.1536 78.5475 88.3221 78.2166 88.3501 77.86C88.1644 77.1529 88.0472 76.4296 88.0001 75.7ZM84.7801 74.64C84.7241 75.3215 84.3998 75.9528 83.8785 76.3953C83.3573 76.8378 82.6817 77.0553 82.0001 77C80.9001 77 80.2101 76.4 80.2101 75.68C80.2101 74.68 80.9401 74.28 82.2901 74.09L83.4601 73.91C83.9588 73.8588 84.4367 73.6835 84.8501 73.4L84.7801 74.64Z" fill="#0C0C0C"/>
<path d="M96.6202 67.0001C95.0502 67.0001 94.3202 68.3901 93.9502 69.7401V68.4801C93.9668 68.2789 93.9416 68.0764 93.8761 67.8855C93.8105 67.6945 93.7061 67.5192 93.5694 67.3706C93.4326 67.2221 93.2666 67.1035 93.0817 67.0224C92.8968 66.9413 92.6971 66.8994 92.4952 66.8994C92.2933 66.8994 92.0935 66.9413 91.9086 67.0224C91.7237 67.1035 91.5577 67.2221 91.4209 67.3706C91.2842 67.5192 91.1798 67.6945 91.1142 67.8855C91.0487 68.0764 91.0235 68.2789 91.0402 68.4801V77.4801C91.0402 77.9071 91.2098 78.3166 91.5117 78.6186C91.8136 78.9205 92.2232 79.0901 92.6502 79.0901C93.0772 79.0901 93.4867 78.9205 93.7886 78.6186C94.0905 78.3166 94.2602 77.9071 94.2602 77.4801V73.7301C94.2602 71.0601 94.9702 70.1601 96.2602 70.1601H96.8402C97.055 70.1771 97.2709 70.1468 97.4729 70.0716C97.6748 69.9964 97.8579 69.878 98.0093 69.7247C98.1608 69.5713 98.2769 69.3868 98.3496 69.1839C98.4222 68.981 98.4497 68.7647 98.4302 68.5501C98.4206 68.3269 98.3652 68.1079 98.2674 67.907C98.1697 67.706 98.0316 67.5273 97.8619 67.3819C97.6921 67.2366 97.4943 67.1277 97.2807 67.062C97.0671 66.9963 96.8423 66.9753 96.6202 67.0001Z" fill="#0C0C0C"/>
<path d="M110.11 75.7V70.29C110.11 68 108 67 104.88 67C101.56 67 99.75 68.63 99.75 69.91C99.7563 70.0821 99.797 70.2512 99.8698 70.4073C99.9425 70.5634 100.046 70.7034 100.173 70.819C100.301 70.9345 100.451 71.0234 100.613 71.0802C100.776 71.1371 100.948 71.1608 101.12 71.15C102.4 71.15 102.47 69.38 104.85 69.38C105.94 69.38 106.85 69.78 106.85 70.71C106.85 71.64 106.23 71.81 105.46 71.9L103.46 72.12C100.99 72.41 98.96 73.12 98.96 75.83C98.9804 76.2859 99.0911 76.7332 99.2856 77.146C99.4801 77.5588 99.7546 77.9289 100.093 78.2349C100.432 78.5409 100.828 78.7767 101.258 78.9286C101.688 79.0805 102.144 79.1456 102.6 79.12C103.429 79.1569 104.256 79.0071 105.019 78.6817C105.782 78.3563 106.463 77.8636 107.01 77.24C106.991 77.5005 107.031 77.762 107.126 78.0052C107.221 78.2485 107.37 78.4673 107.56 78.6457C107.751 78.824 107.98 78.9574 108.229 79.036C108.478 79.1147 108.741 79.1365 109 79.1C109.177 79.115 109.356 79.0949 109.526 79.0406C109.695 78.9863 109.852 78.8991 109.988 78.7838C110.124 78.6685 110.235 78.5276 110.316 78.369C110.397 78.2105 110.446 78.0375 110.46 77.86C110.274 77.1529 110.157 76.4296 110.11 75.7ZM106.89 74.64C106.863 74.9877 106.766 75.3263 106.604 75.6353C106.442 75.9444 106.22 76.2174 105.95 76.438C105.68 76.6586 105.367 76.8221 105.032 76.9187C104.697 77.0153 104.346 77.043 104 77C102.89 77 102.21 76.4 102.21 75.68C102.21 74.68 102.94 74.28 104.28 74.09L105.46 73.91C105.959 73.8588 106.437 73.6835 106.85 73.4L106.89 74.64Z" fill="#0C0C0C"/>
<path d="M119.76 66.9997C118.993 66.9816 118.234 67.155 117.551 67.5042C116.869 67.8534 116.284 68.3674 115.85 68.9997V68.5797C115.85 67.5797 115.41 66.9697 114.4 66.9697C113.39 66.9697 112.94 67.6097 112.94 68.5797V77.4797C112.94 77.9067 113.11 78.3162 113.411 78.6182C113.713 78.9201 114.123 79.0897 114.55 79.0897C114.977 79.0897 115.386 78.9201 115.688 78.6182C115.99 78.3162 116.16 77.9067 116.16 77.4797V72.1697C116.149 71.5084 116.401 70.8697 116.86 70.3936C117.319 69.9176 117.949 69.6429 118.61 69.6297C120.01 69.6297 120.61 70.5497 120.61 71.8597V77.4897C120.61 77.9167 120.78 78.3262 121.081 78.6282C121.383 78.9301 121.793 79.0997 122.22 79.0997C122.647 79.0997 123.056 78.9301 123.358 78.6282C123.66 78.3262 123.83 77.9167 123.83 77.4897V71.2197C123.82 67.9997 121.7 66.9997 119.76 66.9997Z" fill="#0C0C0C"/>
<path d="M131.74 76.5802H131.28C130.71 76.5802 130.44 76.3202 130.44 75.8302V69.3802H131.44C132.44 69.3802 132.9 69.1002 132.9 68.3802C132.9 67.6602 132.39 67.3102 131.44 67.3102H130.44V65.3102C130.44 64.8832 130.27 64.4737 129.968 64.1717C129.666 63.8698 129.257 63.7002 128.83 63.7002C128.403 63.7002 127.993 63.8698 127.691 64.1717C127.39 64.4737 127.22 64.8832 127.22 65.3102V67.3102H126.66C125.76 67.3102 125.38 67.6702 125.38 68.3802C125.38 69.0902 125.76 69.3802 126.66 69.3802H127.22V76.2302C127.22 78.1302 128.22 79.1002 130.53 79.1002C132.08 79.1002 132.87 78.5902 132.87 77.6602C132.883 77.5106 132.863 77.36 132.81 77.2194C132.757 77.0789 132.673 76.952 132.565 76.8483C132.456 76.7445 132.326 76.6665 132.183 76.6201C132.04 76.5737 131.889 76.5601 131.74 76.5802Z" fill="#0C0C0C"/>
<path d="M136.34 67C136.121 66.9707 135.899 66.992 135.689 67.0623C135.48 67.1327 135.29 67.2502 135.133 67.4058C134.977 67.5615 134.858 67.751 134.786 67.9598C134.715 68.1686 134.692 68.3911 134.72 68.61V77.51C134.752 77.9164 134.936 78.2958 135.235 78.5725C135.535 78.8492 135.927 79.0029 136.335 79.0029C136.743 79.0029 137.135 78.8492 137.435 78.5725C137.734 78.2958 137.918 77.9164 137.95 77.51V68.61C137.98 68.3916 137.959 68.1693 137.888 67.9604C137.818 67.7515 137.7 67.5617 137.544 67.4058C137.388 67.2499 137.199 67.1322 136.99 67.0618C136.781 66.9914 136.558 66.9703 136.34 67ZM136.34 62.56C136.006 62.5561 135.679 62.6518 135.399 62.8348C135.12 63.0179 134.901 63.2801 134.772 63.5878C134.642 63.8956 134.607 64.2351 134.671 64.5628C134.736 64.8905 134.896 65.1917 135.132 65.4279C135.368 65.664 135.67 65.8244 135.997 65.8886C136.325 65.9528 136.664 65.9178 136.972 65.7882C137.28 65.6586 137.542 65.4402 137.725 65.1608C137.908 64.8815 138.004 64.554 138 64.22C138 63.7779 137.826 63.3536 137.515 63.0391C137.204 62.7246 136.782 62.5453 136.34 62.54V62.56Z" fill="#0C0C0C"/>
<path d="M146.16 67C142.27 67 140.16 69.65 140.16 73C140.16 76.22 141.73 79.07 146.16 79.07C150.59 79.07 152.16 76.22 152.16 73C152.12 69.63 150.05 67 146.16 67ZM146.16 76.73C144.24 76.73 143.42 75.01 143.42 73.05C143.42 71.09 144.28 69.38 146.16 69.38C148.04 69.38 148.9 70.95 148.9 73.05C148.9 75.15 148.08 76.71 146.16 76.71V76.73Z" fill="#0C0C0C"/>
<path d="M45.8601 88.2601C45.9801 87.8801 46.3401 87.6801 46.9201 87.6601C47.1536 87.6604 47.386 87.694 47.6101 87.7601V86.6701C47.2798 86.6138 46.9451 86.587 46.6101 86.5901C45.1601 86.5901 44.4601 87.5201 44.5001 89.2601V90.8901H43.0601V91.8901H44.5401V101.23H45.6901V91.8801H47.6101V90.8801H45.6901V89.6201C45.6606 89.1601 45.7183 88.6987 45.8601 88.2601Z" fill="black"/>
<path d="M50.7602 90.8901V101.22H51.9102V90.8901H50.7602ZM50.7002 86.8901V88.6601H52.0002V86.8701L50.7002 86.8901Z" fill="black"/>
<path d="M63.88 93.2096C63.8229 92.807 63.6722 92.4234 63.44 92.0896C63.0952 91.6065 62.6339 91.2184 62.0989 90.9614C61.5639 90.7044 60.9726 90.5868 60.38 90.6196C59.7587 90.6053 59.1457 90.7646 58.61 91.0796C58.0605 91.4087 57.5704 91.8279 57.16 92.3196V90.8896H56V101.22H57.15V95.6596C57.1306 94.9841 57.2149 94.3096 57.4 93.6596C57.6052 93.1079 57.9497 92.6187 58.4 92.2396C58.9037 91.8354 59.5344 91.6228 60.18 91.6396C61.93 91.6396 62.79 92.5696 62.77 94.4296V101.17H63.91V94.4596C63.93 93.9996 63.91 93.5996 63.88 93.2096Z" fill="black"/>
<path d="M75.9999 100.3C75.8099 100.18 75.7299 99.8905 75.7499 99.4505V93.8205C75.7911 93.353 75.7221 92.8824 75.5484 92.4465C75.3748 92.0106 75.1013 91.6215 74.7499 91.3105C73.9752 90.8262 73.0729 90.5858 72.1599 90.6205C71.1732 90.5872 70.1998 90.8558 69.3699 91.3905C68.9726 91.7027 68.6486 92.0982 68.4205 92.5491C68.1925 93 68.066 93.4954 68.0499 94.0005H69.2299C69.2578 93.6379 69.3612 93.2851 69.5334 92.9648C69.7056 92.6445 69.9428 92.3637 70.2299 92.1405C70.8334 91.7838 71.5302 91.6166 72.2299 91.6605C72.9263 91.605 73.6182 91.8119 74.1699 92.2405C74.3599 92.4416 74.5073 92.679 74.6036 92.9385C74.6998 93.1979 74.7427 93.4741 74.7299 93.7505C74.7435 93.9536 74.7435 94.1574 74.7299 94.3605C74.6729 94.5596 74.5401 94.7284 74.3599 94.8305C74.1181 94.9193 73.8709 94.9928 73.6199 95.0505L72.8299 95.1705L71.2199 95.3905C68.8932 95.7171 67.7299 96.7538 67.7299 98.5005C67.699 98.923 67.7744 99.3466 67.949 99.7326C68.1237 100.119 68.3921 100.455 68.7299 100.71C69.388 101.225 70.2049 101.494 71.0399 101.47C71.7479 101.476 72.4486 101.327 73.0929 101.033C73.7372 100.739 74.3095 100.308 74.7699 99.7705C74.7796 100.112 74.8438 100.449 74.9599 100.77C75.0234 100.919 75.1239 101.048 75.2517 101.146C75.3795 101.244 75.5304 101.308 75.6899 101.33C75.8614 101.362 76.0354 101.379 76.2099 101.38C76.3936 101.38 76.5759 101.349 76.7499 101.29L77.1199 101.19V100.25C76.5299 100.41 76.2099 100.43 75.9999 100.3ZM74.5999 97.4205C74.624 97.8632 74.5336 98.3046 74.3374 98.7023C74.1412 99.0999 73.8459 99.4402 73.4799 99.6905C72.7312 100.188 71.8488 100.446 70.9499 100.43C70.4106 100.441 69.8831 100.272 69.4499 99.9505C69.2318 99.7964 69.0555 99.5905 68.9368 99.3514C68.8181 99.1122 68.7607 98.8473 68.7699 98.5805C68.7699 97.2205 69.7699 96.4905 71.5999 96.3805C72.1063 96.35 72.6105 96.2899 73.1099 96.2005C73.6195 96.1213 74.1191 95.9872 74.5999 95.8005V97.4205Z" fill="black"/>
<path d="M88.0002 93.2098C87.9431 92.8072 87.7924 92.4236 87.5602 92.0898C87.221 91.6155 86.7693 91.2328 86.2457 90.9763C85.722 90.7197 85.1429 90.5972 84.5602 90.6198C83.9356 90.6042 83.319 90.7635 82.7802 91.0798C82.2307 91.4089 81.7405 91.8281 81.3302 92.3198V90.8898H80.1802V101.22H81.3202V95.6598C81.2987 94.9835 81.3865 94.3082 81.5802 93.6598C81.7841 93.1075 82.1288 92.618 82.5802 92.2398C83.0839 91.8356 83.7145 91.623 84.3602 91.6398C86.1102 91.6398 86.9702 92.5698 86.9502 94.4298V101.17H88.1002V94.4598C88.0881 94.0417 88.0547 93.6245 88.0002 93.2098Z" fill="black"/>
<path d="M99.4302 97.6495C99.4135 98.0345 99.3207 98.4123 99.1569 98.761C98.9931 99.1097 98.7617 99.4225 98.4761 99.6811C98.1905 99.9397 97.8564 100.139 97.4932 100.268C97.13 100.396 96.7448 100.451 96.3602 100.43C95.8478 100.456 95.3381 100.342 94.8854 100.1C94.4327 99.8592 94.0541 99.4994 93.7902 99.0595C93.2466 98.1547 92.9693 97.1149 92.9902 96.0595C92.9657 95.001 93.2507 93.9584 93.8102 93.0595C94.0717 92.622 94.4469 92.2636 94.896 92.0224C95.345 91.7811 95.851 91.6661 96.3602 91.6895C97.0732 91.6608 97.7721 91.8941 98.3248 92.3455C98.8776 92.7969 99.2459 93.4351 99.3602 94.1395H100.54C100.506 93.634 100.372 93.1405 100.144 92.688C99.9158 92.2355 99.5996 91.8333 99.2136 91.5051C98.8276 91.177 98.3798 90.9295 97.8966 90.7774C97.4133 90.6253 96.9045 90.5716 96.4002 90.6195C95.7431 90.5908 95.0891 90.7245 94.496 91.0088C93.903 91.2931 93.3892 91.7193 93.0002 92.2495C92.1852 93.3571 91.7629 94.7049 91.8002 96.0795C91.7442 97.4475 92.1376 98.7961 92.9202 99.9195C93.3294 100.444 93.8598 100.862 94.4659 101.137C95.0719 101.413 95.7356 101.537 96.4002 101.5C96.9377 101.527 97.4751 101.445 97.9803 101.259C98.4854 101.074 98.948 100.788 99.3402 100.42C100.083 99.6701 100.558 98.6964 100.69 97.6495H99.4302Z" fill="black"/>
<path d="M108.41 100.43C107.921 100.455 107.434 100.356 106.994 100.143C106.553 99.9297 106.174 99.6088 105.89 99.21C105.3 98.3684 105.002 97.357 105.04 96.33H112.8C112.707 92.55 111.243 90.6466 108.41 90.62C107.764 90.6008 107.123 90.7348 106.539 91.0112C105.955 91.2876 105.445 91.6984 105.05 92.21C104.195 93.3218 103.756 94.6982 103.81 96.1C103.746 97.4597 104.133 98.8025 104.91 99.92C105.322 100.446 105.856 100.865 106.466 101.14C107.075 101.415 107.742 101.539 108.41 101.5C109.473 101.557 110.517 101.198 111.32 100.5C112.009 99.8305 112.497 98.982 112.73 98.05H111.44C111.312 98.7479 110.933 99.375 110.375 99.8133C109.817 100.252 109.118 100.471 108.41 100.43ZM106.05 92.77C106.346 92.434 106.71 92.1648 107.117 91.9804C107.525 91.796 107.968 91.7007 108.415 91.7007C108.863 91.7007 109.305 91.796 109.713 91.9804C110.121 92.1648 110.484 92.434 110.78 92.77C111.334 93.5169 111.616 94.4307 111.58 95.36H105C105.097 94.4144 105.461 93.5159 106.05 92.77Z" fill="black"/>
<defs>
<linearGradient id="paint0_linear_37_6403" x1="36.4298" y1="75.0699" x2="36.4298" y2="14.6299" gradientUnits="userSpaceOnUse">
<stop stop-color="#89F8BA"/>
<stop offset="0.14" stop-color="#7DEEBC"/>
<stop offset="0.4" stop-color="#5CD2C3"/>
<stop offset="0.75" stop-color="#28A6CD"/>
<stop offset="0.98" stop-color="#0085D5"/>
</linearGradient>
<linearGradient id="paint1_linear_37_6403" x1="32.0801" y1="4.39043" x2="32.0801" y2="86.0904" gradientUnits="userSpaceOnUse">
<stop offset="0.02" stop-color="#0085D5"/>
<stop offset="0.25" stop-color="#28A6CD"/>
<stop offset="0.6" stop-color="#5CD2C3"/>
<stop offset="0.86" stop-color="#7DEEBC"/>
<stop offset="1" stop-color="#89F8BA"/>
</linearGradient>
<linearGradient id="paint2_linear_37_6403" x1="75.2793" y1="20.1189" x2="74.2133" y2="17.7529" gradientUnits="userSpaceOnUse">
<stop stop-color="#89F8BA"/>
<stop offset="0.14" stop-color="#7DEEBC"/>
<stop offset="0.4" stop-color="#5CD2C3"/>
<stop offset="0.75" stop-color="#28A6CD"/>
<stop offset="0.98" stop-color="#0085D5"/>
</linearGradient>
<linearGradient id="paint3_linear_37_6403" x1="76.6817" y1="12.4913" x2="75.1319" y2="9.05146" gradientUnits="userSpaceOnUse">
<stop stop-color="#89F8BA"/>
<stop offset="0.14" stop-color="#7DEEBC"/>
<stop offset="0.4" stop-color="#5CD2C3"/>
<stop offset="0.75" stop-color="#28A6CD"/>
<stop offset="0.98" stop-color="#0085D5"/>
</linearGradient>
<linearGradient id="paint4_linear_37_6403" x1="70.7145" y1="36.5929" x2="67.537" y2="29.5404" gradientUnits="userSpaceOnUse">
<stop stop-color="#89F8BA"/>
<stop offset="0.14" stop-color="#7DEEBC"/>
<stop offset="0.4" stop-color="#5CD2C3"/>
<stop offset="0.75" stop-color="#28A6CD"/>
<stop offset="0.98" stop-color="#0085D5"/>
</linearGradient>
<linearGradient id="paint5_linear_37_6403" x1="71.5006" y1="27.7434" x2="70.82" y2="26.2328" gradientUnits="userSpaceOnUse">
<stop stop-color="#89F8BA"/>
<stop offset="0.14" stop-color="#7DEEBC"/>
<stop offset="0.4" stop-color="#5CD2C3"/>
<stop offset="0.75" stop-color="#28A6CD"/>
<stop offset="0.98" stop-color="#0085D5"/>
</linearGradient>
<linearGradient id="paint6_linear_37_6403" x1="69.956" y1="17.4157" x2="69.2795" y2="15.9142" gradientUnits="userSpaceOnUse">
<stop stop-color="#89F8BA"/>
<stop offset="0.14" stop-color="#7DEEBC"/>
<stop offset="0.4" stop-color="#5CD2C3"/>
<stop offset="0.75" stop-color="#28A6CD"/>
<stop offset="0.98" stop-color="#0085D5"/>
</linearGradient>
<linearGradient id="paint7_linear_37_6403" x1="78.3439" y1="16.1318" x2="77.6633" y2="14.6212" gradientUnits="userSpaceOnUse">
<stop stop-color="#89F8BA"/>
<stop offset="0.14" stop-color="#7DEEBC"/>
<stop offset="0.4" stop-color="#5CD2C3"/>
<stop offset="0.75" stop-color="#28A6CD"/>
<stop offset="0.98" stop-color="#0085D5"/>
</linearGradient>
<linearGradient id="paint8_linear_37_6403" x1="79.4782" y1="19.7916" x2="78.7976" y2="18.281" gradientUnits="userSpaceOnUse">
<stop stop-color="#89F8BA"/>
<stop offset="0.14" stop-color="#7DEEBC"/>
<stop offset="0.4" stop-color="#5CD2C3"/>
<stop offset="0.75" stop-color="#28A6CD"/>
<stop offset="0.98" stop-color="#0085D5"/>
</linearGradient>
<linearGradient id="paint9_linear_37_6403" x1="77.3265" y1="23.1809" x2="76.6459" y2="21.6703" gradientUnits="userSpaceOnUse">
<stop stop-color="#89F8BA"/>
<stop offset="0.14" stop-color="#7DEEBC"/>
<stop offset="0.4" stop-color="#5CD2C3"/>
<stop offset="0.75" stop-color="#28A6CD"/>
<stop offset="0.98" stop-color="#0085D5"/>
</linearGradient>
<linearGradient id="paint10_linear_37_6403" x1="67.5087" y1="45.2953" x2="66.8281" y2="43.7847" gradientUnits="userSpaceOnUse">
<stop stop-color="#89F8BA"/>
<stop offset="0.14" stop-color="#7DEEBC"/>
<stop offset="0.4" stop-color="#5CD2C3"/>
<stop offset="0.75" stop-color="#28A6CD"/>
<stop offset="0.98" stop-color="#0085D5"/>
</linearGradient>
<linearGradient id="paint11_linear_37_6403" x1="66.5577" y1="26.4675" x2="65.8771" y2="24.9569" gradientUnits="userSpaceOnUse">
<stop stop-color="#89F8BA"/>
<stop offset="0.14" stop-color="#7DEEBC"/>
<stop offset="0.4" stop-color="#5CD2C3"/>
<stop offset="0.75" stop-color="#28A6CD"/>
<stop offset="0.98" stop-color="#0085D5"/>
</linearGradient>
<linearGradient id="paint12_linear_37_6403" x1="68.7809" y1="40.2226" x2="68.1003" y2="38.712" gradientUnits="userSpaceOnUse">
<stop stop-color="#89F8BA"/>
<stop offset="0.14" stop-color="#7DEEBC"/>
<stop offset="0.4" stop-color="#5CD2C3"/>
<stop offset="0.75" stop-color="#28A6CD"/>
<stop offset="0.98" stop-color="#0085D5"/>
</linearGradient>
<linearGradient id="paint13_linear_37_6403" x1="67.9992" y1="50.5151" x2="66.9332" y2="48.1491" gradientUnits="userSpaceOnUse">
<stop stop-color="#89F8BA"/>
<stop offset="0.14" stop-color="#7DEEBC"/>
<stop offset="0.4" stop-color="#5CD2C3"/>
<stop offset="0.75" stop-color="#28A6CD"/>
<stop offset="0.98" stop-color="#0085D5"/>
</linearGradient>
<linearGradient id="paint14_linear_37_6403" x1="73.9888" y1="24.6054" x2="72.6628" y2="22.3694" gradientUnits="userSpaceOnUse">
<stop stop-color="#89F8BA"/>
<stop offset="0.14" stop-color="#7DEEBC"/>
<stop offset="0.4" stop-color="#5CD2C3"/>
<stop offset="0.75" stop-color="#28A6CD"/>
<stop offset="0.98" stop-color="#0085D5"/>
</linearGradient>
<linearGradient id="paint15_linear_37_6403" x1="65.5231" y1="42.4676" x2="64.4571" y2="40.1016" gradientUnits="userSpaceOnUse">
<stop stop-color="#89F8BA"/>
<stop offset="0.14" stop-color="#7DEEBC"/>
<stop offset="0.4" stop-color="#5CD2C3"/>
<stop offset="0.75" stop-color="#28A6CD"/>
<stop offset="0.98" stop-color="#0085D5"/>
</linearGradient>
<linearGradient id="paint16_linear_37_6403" x1="57.0902" y1="23.7897" x2="61.8402" y2="23.7897" gradientUnits="userSpaceOnUse">
<stop stop-color="#89F8BA"/>
<stop offset="0.14" stop-color="#7DEEBC"/>
<stop offset="0.4" stop-color="#5CD2C3"/>
<stop offset="0.75" stop-color="#28A6CD"/>
<stop offset="0.98" stop-color="#0085D5"/>
</linearGradient>
<linearGradient id="paint17_linear_37_6403" x1="64.46" y1="24.9604" x2="66.11" y2="24.9604" gradientUnits="userSpaceOnUse">
<stop stop-color="#89F8BA"/>
<stop offset="0.14" stop-color="#7DEEBC"/>
<stop offset="0.4" stop-color="#5CD2C3"/>
<stop offset="0.75" stop-color="#28A6CD"/>
<stop offset="0.98" stop-color="#0085D5"/>
</linearGradient>
<linearGradient id="paint18_linear_37_6403" x1="62.7397" y1="47.7827" x2="62.0591" y2="46.2721" gradientUnits="userSpaceOnUse">
<stop stop-color="#89F8BA"/>
<stop offset="0.14" stop-color="#7DEEBC"/>
<stop offset="0.4" stop-color="#5CD2C3"/>
<stop offset="0.75" stop-color="#28A6CD"/>
<stop offset="0.98" stop-color="#0085D5"/>
</linearGradient>
<linearGradient id="paint19_linear_37_6403" x1="57.9794" y1="56.7037" x2="57.2988" y2="55.1931" gradientUnits="userSpaceOnUse">
<stop stop-color="#89F8BA"/>
<stop offset="0.14" stop-color="#7DEEBC"/>
<stop offset="0.4" stop-color="#5CD2C3"/>
<stop offset="0.75" stop-color="#28A6CD"/>
<stop offset="0.98" stop-color="#0085D5"/>
</linearGradient>
<linearGradient id="paint20_linear_37_6403" x1="76.2619" y1="41.9315" x2="74.7162" y2="38.5008" gradientUnits="userSpaceOnUse">
<stop stop-color="#89F8BA"/>
<stop offset="0.14" stop-color="#7DEEBC"/>
<stop offset="0.4" stop-color="#5CD2C3"/>
<stop offset="0.75" stop-color="#28A6CD"/>
<stop offset="0.98" stop-color="#0085D5"/>
</linearGradient>
<linearGradient id="paint21_linear_37_6403" x1="54.1998" y1="64.3501" x2="58.9498" y2="64.3501" gradientUnits="userSpaceOnUse">
<stop stop-color="#89F8BA"/>
<stop offset="0.14" stop-color="#7DEEBC"/>
<stop offset="0.4" stop-color="#5CD2C3"/>
<stop offset="0.75" stop-color="#28A6CD"/>
<stop offset="0.98" stop-color="#0085D5"/>
</linearGradient>
<linearGradient id="paint22_linear_37_6403" x1="81.0288" y1="31.7379" x2="78.3638" y2="25.8229" gradientUnits="userSpaceOnUse">
<stop stop-color="#89F8BA"/>
<stop offset="0.14" stop-color="#7DEEBC"/>
<stop offset="0.4" stop-color="#5CD2C3"/>
<stop offset="0.75" stop-color="#28A6CD"/>
<stop offset="0.98" stop-color="#0085D5"/>
</linearGradient>
</defs>
</svg>
