<?xml version="1.0" encoding="UTF-8"?> <svg xmlns="http://www.w3.org/2000/svg" xmlns:xlink="http://www.w3.org/1999/xlink" width="144.274" height="82.528" viewBox="0 0 144.274 82.528"><defs><linearGradient id="linear-gradient" y1="0.77" x2="0.872" y2="-0.132" gradientUnits="objectBoundingBox"><stop offset="0" stop-color="#6d2f88"></stop><stop offset="1" stop-color="#972d87"></stop></linearGradient><linearGradient id="linear-gradient-2" x1="-0.134" y1="0.855" x2="1.134" y2="0.145" xlink:href="#linear-gradient"></linearGradient></defs><g id="Logo" transform="translate(-80.263 -81.48)"><g id="Сгруппировать" transform="translate(156.538 114.094)"><text id="GFE" transform="translate(0 19)" fill="#1d1d1b" font-size="19" font-family="Arial-BoldMT, Arial" font-weight="700"><tspan x="0" y="0">GFE</tspan></text><text id="Markets" transform="translate(0 39.634)" fill="#6d2f88" font-size="19" font-family="ArialMT, Arial"><tspan x="0" y="0">Markets</tspan></text></g><path id="Контур_2" data-name="Контур 2" d="M119.031,93.493h6.545l7.072-12.013H103.119a20.939,20.939,0,0,0-7.239,1.292l-.722.269A27.764,27.764,0,0,0,84.217,93.493a28.965,28.965,0,0,0-1.8,3.573,28.166,28.166,0,0,0-2.155,11.043v.156a29.622,29.622,0,0,0,2.119,11.313,26.53,26.53,0,0,0,5.923,8.966c.46.457.936.893,1.437,1.315a26.634,26.634,0,0,0,3.149,2.294V107.848a17.945,17.945,0,0,1,1.219-6.514c0-.031.026-.065.038-.1a12.4,12.4,0,0,1,11.555-7.743Z" transform="translate(0)" fill="url(#linear-gradient)"></path><path id="Контур_3" data-name="Контур 3" d="M209.606,181.518a6.248,6.248,0,0,0-6.248-6.248h-16.81a6.248,6.248,0,0,0-6.248,6.248V184.9a.824.824,0,0,0,.824.824h15.952a.826.826,0,0,1,.824.826v8.8a.824.824,0,0,1-.824.824H181.124a.826.826,0,0,0-.824.829v8.9a.824.824,0,0,0,.824.824h15.952a.826.826,0,0,1,.824.826v8.8a.826.826,0,0,1-.824.826H181.124a.824.824,0,0,0-.824.824v3.379a6.248,6.248,0,0,0,6.248,6.248h16.81a6.248,6.248,0,0,0,6.248-6.248v-2.016h0V182.582h0Z" transform="translate(-72.906 -63.619)" fill="url(#linear-gradient-2)"></path></g></svg> 