<svg width="512" height="284" viewBox="0 0 512 284" fill="none" xmlns="http://www.w3.org/2000/svg">
<path fill-rule="evenodd" clip-rule="evenodd" d="M305.42 247.6C301.9 256.36 295 251 287.37 257C290.68 253.22 290.85 247.44 288.51 244.65C288.124 244.103 287.612 243.657 287.018 243.349C286.424 243.041 285.764 242.88 285.095 242.88C284.426 242.88 283.766 243.041 283.172 243.349C282.578 243.657 282.066 244.103 281.68 244.65C280.02 247.2 282.68 251.97 287.19 248.65C288.76 253.7 285.85 255.85 282.07 256.65C277.46 257.65 273.73 257.65 269.38 260.28C275.38 258.63 280.1 259.95 285.47 259.91C289.96 259.91 295.8 259.73 301.35 254.48C294.61 262.93 285.49 261.17 274.29 260.2C281.29 262.04 291.51 264.41 298.82 259.63C289.26 270.12 272.04 255.32 258.26 264.58C262.79 264.74 262.45 269.95 259.5 271.75C258.637 272.289 257.599 272.471 256.604 272.258C255.61 272.045 254.737 271.454 254.17 270.61C252.17 267.61 254.35 265.31 255.1 267.4C255.79 269.33 257.58 269.28 258.29 268.24C258.526 267.789 258.61 267.273 258.529 266.77C258.448 266.267 258.206 265.804 257.84 265.45C257.285 264.914 256.568 264.576 255.802 264.489C255.035 264.402 254.261 264.571 253.6 264.97C251.69 266.18 251.73 268.97 252.66 270.81C254.39 274.14 259.58 274.81 262.5 272.57C265.21 270.52 265.93 266.31 263.5 263.78C268.95 261.2 278.08 265.86 272.68 270.67C273.073 270.933 273.51 271.122 273.97 271.23C273.741 271.521 273.454 271.762 273.128 271.938C272.802 272.115 272.443 272.222 272.074 272.254C271.704 272.286 271.332 272.241 270.981 272.124C270.629 272.006 270.306 271.818 270.03 271.57C270.77 273.57 273.21 274.38 275.29 273.88C279.16 272.96 279.08 268.05 276.82 265.69C278.15 266.297 279.41 267.044 280.58 267.92C283.05 269.78 285.35 272.35 284.49 275.62C283.84 278.1 281.37 279.46 278.89 276.98C278.28 281.38 283.31 283.87 286.5 279.19C286.812 279.682 287.189 280.129 287.62 280.52C290.62 278.21 289.82 274.36 288.29 271.81C288.933 272.053 289.606 272.207 290.29 272.27C289.948 271.531 289.518 270.836 289.01 270.2C290.636 270.41 292.289 270.171 293.79 269.51C292.645 268.128 291.263 266.96 289.71 266.06C300.58 264.29 308.08 256.98 305.38 247.55L305.42 247.6ZM199 245.21C202.13 254.12 209.27 249.07 216.61 255.45C213.47 251.52 213.56 245.74 216.02 243.07C216.429 242.54 216.96 242.116 217.568 241.834C218.175 241.553 218.842 241.422 219.511 241.452C220.18 241.482 220.831 241.674 221.411 242.009C221.99 242.345 222.481 242.815 222.84 243.38C224.39 246 221.52 250.65 217.16 247.14C215.37 252.14 218.16 254.39 221.92 255.35C226.48 256.51 230.21 256.75 234.43 259.54C228.53 257.62 223.74 258.73 218.37 258.46C213.89 258.23 208.06 257.81 202.75 252.32C209.11 261.06 218.29 259.71 229.54 259.24C222.47 260.77 212.14 262.67 205.05 257.57C214.13 268.49 231.99 254.47 245.34 264.34C240.82 264.34 240.92 269.51 243.78 271.45C244.619 272.026 245.648 272.253 246.652 272.085C247.655 271.918 248.554 271.367 249.16 270.55C251.26 267.64 249.22 265.24 248.38 267.3C247.61 269.2 245.82 269.06 245.15 267.99C244.935 267.529 244.875 267.011 244.98 266.513C245.085 266.016 245.348 265.565 245.73 265.23C246.306 264.718 247.036 264.411 247.805 264.359C248.575 264.306 249.34 264.511 249.98 264.94C251.84 266.23 251.67 269.05 250.66 270.81C248.79 274.06 243.57 274.46 240.76 272.13C238.13 269.96 237.61 265.72 240.11 263.3C234.78 260.48 225.45 264.72 230.63 269.77C230.228 270.018 229.784 270.191 229.32 270.28C229.535 270.582 229.809 270.836 230.126 271.026C230.444 271.217 230.797 271.34 231.164 271.388C231.531 271.436 231.904 271.407 232.259 271.304C232.615 271.202 232.945 271.026 233.23 270.79C232.41 272.79 229.93 273.46 227.88 272.87C224.05 271.77 224.35 266.87 226.72 264.62C225.361 265.158 224.066 265.845 222.86 266.67C220.31 268.42 217.86 270.88 218.61 274.18C219.15 276.69 221.56 278.18 224.14 275.8C224.55 280.22 219.42 282.49 216.44 277.66C216.106 278.137 215.709 278.568 215.26 278.94C212.34 276.5 213.34 272.69 214.98 270.21C214.334 270.428 213.661 270.553 212.98 270.58C213.359 269.861 213.823 269.19 214.36 268.58C212.724 268.711 211.082 268.396 209.61 267.67C210.814 266.336 212.251 265.231 213.85 264.41C203.06 262.15 195.9 254.51 199.02 245.21H199ZM232.27 262.71C228.44 263.13 224.82 265.91 226.21 270.48C225.92 265.91 228.77 263.55 232.22 262.71H232.27ZM241.01 264.23C238.59 267.54 240.08 271.53 244.27 272.93C239.13 272 237.89 266.76 241 264.23H241.01ZM218 275.9C215.17 268.45 221.23 264.59 227.23 263C220.26 263.7 213.68 268.81 218 275.9ZM251.37 283.07C250.883 282.668 250.485 282.169 250.202 281.604C249.92 281.039 249.759 280.421 249.73 279.79C249.082 280.328 248.353 280.76 247.57 281.07C247.525 280.074 247.718 279.082 248.134 278.175C248.549 277.269 249.176 276.475 249.96 275.86C247.37 277.8 243.96 277.52 243.31 274.44C247.31 276.58 250.11 273.99 251.66 270.3C253.04 274.05 255.66 276.77 259.81 274.81C259 277.86 255.61 277.99 253.11 275.93C253.863 276.582 254.451 277.403 254.825 278.326C255.198 279.249 255.348 280.248 255.26 281.24C254.49 280.897 253.78 280.431 253.16 279.86C253.102 280.49 252.913 281.101 252.604 281.654C252.296 282.207 251.876 282.689 251.37 283.07ZM251.61 272.65C251.205 275.241 251.144 277.874 251.43 280.48C251.821 277.888 251.878 275.257 251.6 272.65H251.61ZM271.41 263.59C275.22 264.18 278.71 267.12 277.12 271.59C277.55 267.07 274.81 264.59 271.4 263.59H271.41ZM262.61 264.72C264.88 268.13 263.21 272.05 258.96 273.27C264.08 272.53 265.56 267.38 262.6 264.72H262.61ZM285 277.4C288.16 270.09 282.28 265.96 276.36 264.1C283.3 265.11 289.64 270.52 285 277.4Z" fill="#BB883F"/>
<path d="M170.84 126.65C170.812 112.761 174.185 99.0759 180.664 86.7907C187.144 74.5055 196.533 63.9936 208.011 56.1733C219.49 48.353 232.708 43.4621 246.513 41.9278C260.317 40.3935 274.287 42.2625 287.202 47.3716C300.118 52.4807 311.586 60.6744 320.605 71.237C329.624 81.7997 335.919 94.41 338.941 107.966C341.964 121.523 341.621 135.613 337.942 149.006C334.264 162.4 327.362 174.689 317.84 184.8C319.89 185.31 321.93 185.8 323.98 186.22C335.472 173.136 342.948 157.016 345.512 139.792C348.077 122.568 345.622 104.969 338.441 89.1044C331.26 73.2398 319.657 59.7818 305.023 50.3425C290.389 40.9032 273.344 35.8828 255.93 35.8828C238.516 35.8828 221.471 40.9032 206.837 50.3425C192.203 59.7818 180.6 73.2398 173.419 89.1044C166.238 104.969 163.783 122.568 166.348 139.792C168.912 157.016 176.388 173.136 187.88 186.22C189.88 185.77 191.97 185.31 194.02 184.8C179.15 169.089 170.856 148.282 170.84 126.65Z" fill="#BB883F"/>
<path d="M135.7 126.65C135.686 108.278 139.883 90.1469 147.969 73.6499C156.055 57.1529 167.815 42.7288 182.345 31.4856C196.875 20.2424 213.789 12.4793 231.788 8.79253C249.786 5.10579 268.39 5.59355 286.171 10.2183C303.951 14.8431 320.435 23.4819 334.356 35.471C348.277 47.4602 359.265 62.4807 366.475 79.3787C373.686 96.2768 376.927 114.603 375.95 132.949C374.973 151.295 369.804 169.173 360.84 185.21C364.002 183.856 366.98 182.105 369.7 180C378.696 160.841 382.709 139.721 381.367 118.598C380.025 97.475 373.371 77.0327 362.023 59.1666C350.674 41.3005 334.998 26.589 316.449 16.3962C297.899 6.20341 277.076 0.859253 255.91 0.859253C234.745 0.859253 213.921 6.20341 195.372 16.3962C176.822 26.589 161.146 41.3005 149.798 59.1666C138.449 77.0327 131.795 97.475 130.453 118.598C129.111 139.721 133.124 160.841 142.12 180C144.841 182.105 147.818 183.856 150.98 185.21C140.947 167.324 135.685 147.158 135.7 126.65Z" fill="#BB883F"/>
<path d="M255.91 246.86C234.305 246.893 213.096 241.066 194.54 230C191.82 230.49 189.09 231 186.36 231.34C206.956 245.073 231.156 252.401 255.91 252.401C280.664 252.401 304.864 245.073 325.46 231.34C322.73 230.97 320 230.49 317.27 230C298.718 241.068 277.512 246.895 255.91 246.86Z" fill="#BB883F"/>
<path d="M255.91 233.7C270.083 233.714 284.116 230.902 297.19 225.43C295.26 224.92 293.32 224.43 291.41 223.88C268.507 232.383 243.313 232.383 220.41 223.88C218.5 224.42 216.56 224.88 214.63 225.43C227.704 230.902 241.737 233.714 255.91 233.7Z" fill="#BB883F"/>
<path d="M255.91 236.44C240.244 236.434 224.763 233.054 210.52 226.53C208.74 226.98 206.94 227.36 205.16 227.77C220.893 235.738 238.28 239.89 255.915 239.89C273.55 239.89 290.938 235.738 306.67 227.77C304.88 227.36 303.08 226.98 301.3 226.53C287.057 233.054 271.576 236.434 255.91 236.44Z" fill="#BB883F"/>
<path d="M175.53 68.6C149.34 104.8 149.47 153.5 176.24 188.32C177.49 188.16 178.75 187.92 180.01 187.71C152.48 154 149.75 107.43 175.53 68.6Z" fill="#BB883F"/>
<path d="M170.51 65C143.51 102.29 142.91 152.12 168.85 188.8C170.18 188.8 171.54 188.8 172.91 188.66C145.86 153.13 144 105.35 170.51 65Z" fill="#BB883F"/>
<path d="M180.55 72.22C155.31 107.11 155.94 154.39 183.14 187.22C184.44 186.98 185.73 186.7 187.03 186.42C159.21 154.7 155.74 109.52 180.55 72.22Z" fill="#BB883F"/>
<path d="M165.5 61.36C137.98 99.36 136.5 149.78 161 188.13C162.38 188.36 163.78 188.53 165.21 188.64C139.19 151.14 138.45 101.3 165.5 61.36Z" fill="#BB883F"/>
<path d="M160.48 57.74C132.81 95.99 130.06 146.12 152.26 185.74C153.815 186.343 155.405 186.854 157.02 187.27C132.79 148.35 133.31 98.4 160.48 57.74Z" fill="#BB883F"/>
<path d="M331.27 72.22C356.08 109.52 352.61 154.7 324.79 186.41C326.09 186.69 327.38 186.97 328.68 187.21C355.88 154.39 356.52 107.11 331.27 72.22Z" fill="#BB883F"/>
<path d="M346.32 61.36C373.37 101.3 372.63 151.14 346.61 188.64C348.04 188.53 349.44 188.36 350.82 188.13C375.33 149.78 373.84 99.41 346.32 61.36Z" fill="#BB883F"/>
<path d="M273.48 219.64C261.87 217.479 249.96 217.479 238.35 219.64C249.952 221.893 261.878 221.893 273.48 219.64Z" fill="#BB883F"/>
<path d="M351.34 57.74C378.51 98.4 379.03 148.35 354.8 187.28C356.415 186.864 358.005 186.353 359.56 185.75C381.76 146.12 379 96 351.34 57.74Z" fill="#BB883F"/>
<path d="M341.31 65C367.85 105.37 365.96 153.15 338.91 188.66C340.28 188.76 341.64 188.8 342.98 188.8C368.91 152.1 368.28 102.27 341.31 65Z" fill="#BB883F"/>
<path d="M286.77 222.66C284.46 222.05 282.16 221.44 279.98 220.95C264.203 225.11 247.617 225.11 231.84 220.95C229.66 221.44 227.36 222.05 225.05 222.66C245.113 229.14 266.707 229.14 286.77 222.66Z" fill="#BB883F"/>
<path d="M336.29 68.6C362.07 107.43 359.29 154.04 331.81 187.71C333.07 187.92 334.33 188.16 335.58 188.32C362.35 153.5 362.48 104.8 336.29 68.6Z" fill="#BB883F"/>
<path d="M255.91 242.63C236.684 242.653 217.756 237.879 200.84 228.74C199.13 229.1 197.42 229.45 195.7 229.74C213.97 240.415 234.75 246.041 255.91 246.041C277.07 246.041 297.85 240.415 316.12 229.74C314.4 229.42 312.687 229.087 310.98 228.74C294.067 237.883 275.137 242.658 255.91 242.63Z" fill="#BB883F"/>
<path d="M173.12 227.64C165.96 227.97 157.82 226.24 152.7 220.89C142.995 210.746 134.834 199.229 128.48 186.71C123.95 177.77 123.11 172.43 124.07 165.31C128.457 175.714 136.545 184.122 146.77 188.91C145.11 186.01 143.55 183.04 142.12 180C135.2 174.62 129.86 166.92 126.63 157.24L124.43 150.62C114.99 164.43 117.43 174.45 122.64 185.9C129.287 200.077 138.253 213.045 149.17 224.27C155.3 230.68 164.72 232.92 173.34 232.52C177.68 232.32 182.02 231.88 186.34 231.3C184.28 229.927 182.26 228.497 180.28 227.01C177.9 227.25 175.48 227.53 173.12 227.64Z" fill="#BB883F"/>
<path d="M290.46 223.63L291.46 223.88C294.01 222.95 296.46 221.95 298.96 220.83C297.59 220.46 296.22 220.11 294.84 219.73C292.23 220.82 289.54 221.79 286.84 222.66C288 223 289.17 223.26 290.46 223.63Z" fill="#BB883F"/>
<path d="M214.63 225.43C212.29 224.43 210.04 223.32 207.79 222.18C206.34 222.54 204.92 222.81 203.48 223.13C205.76 224.38 208.14 225.45 210.48 226.53C211.9 226.19 213.26 225.8 214.63 225.43Z" fill="#BB883F"/>
<path d="M301.3 226.53C303.68 225.45 306.06 224.38 308.3 223.13C306.86 222.81 305.44 222.54 303.99 222.18C301.74 223.32 299.49 224.45 297.15 225.43C298.56 225.8 299.92 226.19 301.3 226.53Z" fill="#BB883F"/>
<path d="M328 192.06C329.31 190.63 330.6 189.2 331.82 187.71C330.77 187.54 329.73 187.41 328.69 187.21C327.5 188.65 326.17 190.01 324.88 191.39C325.9 191.61 327 191.87 328 192.06Z" fill="#BB883F"/>
<path d="M238.35 219.64C234.682 218.969 231.056 218.088 227.49 217C225.98 217.37 224.42 217.78 222.84 218.21C225.78 219.27 228.78 220.19 231.84 220.97C234.07 220.44 236.23 220 238.35 219.64Z" fill="#BB883F"/>
<path d="M221.36 223.63C222.65 223.26 223.81 222.99 225.05 222.63C222.33 221.76 219.64 220.79 217.05 219.7C215.67 220.08 214.3 220.43 212.93 220.8C215.38 221.92 217.93 222.92 220.43 223.85L221.36 223.63Z" fill="#BB883F"/>
<path d="M277 215.35C276.5 215.25 276 215.13 275.48 215.04C262.642 217.941 249.318 217.941 236.48 215.04C235.98 215.13 235.48 215.25 234.96 215.35C248.784 218.723 263.216 218.723 277.04 215.35H277Z" fill="#BB883F"/>
<path d="M172.47 193.59C171.21 192.01 170.003 190.407 168.85 188.78C167.62 188.78 166.4 188.78 165.21 188.64C166.4 190.36 167.73 192.01 169.03 193.64C170.17 193.68 171.31 193.66 172.47 193.59Z" fill="#BB883F"/>
<path d="M164.68 193.53C163.4 191.763 162.173 189.963 161 188.13C159.65 187.9 158.32 187.62 157 187.28C158.22 189.28 159.43 191.2 160.77 193.1C162.07 193.28 163.37 193.43 164.68 193.53Z" fill="#BB883F"/>
<path d="M179.78 192.7C178.54 191.27 177.38 189.8 176.24 188.32L175.63 188.41C174.71 188.52 173.82 188.57 172.91 188.64C174.09 190.18 175.23 191.73 176.5 193.22C177.56 193.09 178.69 192.87 179.78 192.7Z" fill="#BB883F"/>
<path d="M191.64 190.38C190.32 189.05 189.1 187.63 187.86 186.22L187.03 186.41C188.26 187.81 189.51 189.2 190.83 190.55L191.64 190.38Z" fill="#BB883F"/>
<path d="M187 191.39C185.71 190.01 184.39 188.65 183.19 187.21C182.19 187.41 181.11 187.54 180.06 187.71C181.28 189.2 182.57 190.63 183.88 192.06C184.83 191.87 185.92 191.61 187 191.39Z" fill="#BB883F"/>
<path d="M387.4 150.62L385.19 157.24C381.96 166.91 376.63 174.62 369.7 180C368.27 183 366.7 186 365.05 188.91C375.275 184.122 383.363 175.714 387.75 165.31C388.75 172.43 387.88 177.77 383.34 186.71C376.986 199.229 368.825 210.746 359.12 220.89C354 226.24 345.87 227.97 338.7 227.64C336.34 227.53 333.92 227.25 331.52 227.01C329.52 228.503 327.5 229.933 325.46 231.3C329.8 231.88 334.14 232.3 338.46 232.52C347.08 232.92 356.46 230.68 362.63 224.27C373.546 213.042 382.515 200.075 389.17 185.9C394.42 174.45 396.83 164.43 387.4 150.62Z" fill="#BB883F"/>
<path d="M321 190.55C322.32 189.2 323.57 187.81 324.8 186.41L323.97 186.22C322.73 187.63 321.51 189.05 320.19 190.38L321 190.55Z" fill="#BB883F"/>
<path d="M189.4 225.84L188.35 226.01C190.35 227.39 192.44 228.7 194.54 229.96L195.7 229.77C193.56 228.52 191.45 227.22 189.4 225.84Z" fill="#BB883F"/>
<path d="M316.12 229.77L317.27 229.96C319.38 228.7 321.45 227.39 323.47 226.01L322.42 225.84C320.37 227.22 318.26 228.52 316.12 229.77Z" fill="#BB883F"/>
<path d="M198.62 224.21C197.29 224.48 195.96 224.75 194.62 225C196.67 226.27 198.69 227.58 200.82 228.74C202.26 228.43 203.7 228.1 205.14 227.74C202.93 226.65 200.76 225.47 198.62 224.21Z" fill="#BB883F"/>
<path d="M301.39 185.37C305.77 186.62 309.86 187.73 313.83 188.77C315.21 187.49 316.543 186.157 317.83 184.77C312.72 183.48 307.64 182.04 302.74 180.64C268.14 170.76 243.74 170.76 209.1 180.64C204.2 182.04 199.1 183.48 194.01 184.77C195.29 186.143 196.623 187.477 198.01 188.77C202.01 187.77 206.07 186.62 210.45 185.37C244.33 175.69 267.49 175.69 301.39 185.37Z" fill="#BB883F"/>
<path d="M355.54 192.24C355.95 192.14 356.36 192.05 356.76 191.94C358.19 189.75 359.55 187.5 360.84 185.21C360.41 185.39 359.99 185.58 359.56 185.75C358.32 188 356.93 190.1 355.54 192.24Z" fill="#BB883F"/>
<path d="M306.67 227.77C308.1 228.1 309.54 228.43 310.98 228.77C313.11 227.62 315.13 226.31 317.18 225.04C315.86 224.79 314.53 224.52 313.18 224.25C311.06 225.47 308.89 226.65 306.67 227.77Z" fill="#BB883F"/>
<path d="M351 193.1C352.34 191.2 353.55 189.24 354.77 187.28C353.47 187.62 352.14 187.9 350.77 188.13C349.6 189.96 348.37 191.75 347.09 193.53C348.45 193.43 349.75 193.28 351 193.1Z" fill="#BB883F"/>
<path d="M342.79 193.68C344.09 192.01 345.42 190.36 346.61 188.68C345.42 188.77 344.21 188.82 342.98 188.82C341.82 190.453 340.61 192.057 339.35 193.63C340.51 193.66 341.65 193.68 342.79 193.68Z" fill="#BB883F"/>
<path d="M152.26 185.75C151.83 185.58 151.41 185.39 150.98 185.21C152.27 187.5 153.63 189.75 155.06 191.94C155.46 192.05 155.87 192.14 156.28 192.24C154.89 190.1 153.5 188 152.26 185.75Z" fill="#BB883F"/>
<path d="M335.32 193.22C336.59 191.73 337.73 190.22 338.91 188.64C338.01 188.57 337.11 188.52 336.19 188.41L335.58 188.32C334.44 189.8 333.28 191.27 332.04 192.7C333.13 192.87 334.26 193.09 335.32 193.22Z" fill="#BB883F"/>
<path d="M323.47 226C321.47 227.38 319.38 228.69 317.27 229.95C320 230.44 322.73 230.95 325.46 231.29C327.52 229.917 329.54 228.487 331.52 227C328.85 226.74 326.18 226.42 323.47 226Z" fill="#BB883F"/>
<path d="M313.83 188.77C315.98 189.33 318.14 189.89 320.18 190.38C321.5 189.05 322.72 187.63 323.96 186.22C321.96 185.77 319.87 185.31 317.82 184.8C316.54 186.173 315.21 187.497 313.83 188.77Z" fill="#BB883F"/>
<path d="M155.06 191.94C153.63 189.75 152.27 187.5 150.98 185.21C147.818 183.856 144.841 182.105 142.12 180C143.55 183 145.12 186 146.77 188.91C149.436 190.17 152.21 191.184 155.06 191.94Z" fill="#BB883F"/>
<path d="M198 188.77C196.62 187.49 195.287 186.157 194 184.77C191.95 185.28 189.91 185.77 187.86 186.19C189.1 187.6 190.32 189.02 191.64 190.35C193.68 189.89 195.84 189.33 198 188.77Z" fill="#BB883F"/>
<path d="M188.35 226C185.64 226.41 182.97 226.73 180.35 227C182.35 228.493 184.37 229.923 186.41 231.29C189.14 230.92 191.87 230.44 194.59 229.95C192.44 228.7 190.37 227.39 188.35 226Z" fill="#BB883F"/>
<path d="M275.43 215C262.555 212.455 249.306 212.455 236.43 215C249.268 217.901 262.592 217.901 275.43 215Z" fill="#BB883F"/>
<path d="M356.76 191.94C359.609 191.195 362.384 190.191 365.05 188.94C366.71 186.04 368.27 183.07 369.7 180.03C366.979 182.135 364.002 183.886 360.84 185.24C359.55 187.5 358.19 189.75 356.76 191.94Z" fill="#BB883F"/>
<path d="M183.83 192.06C182.52 190.63 181.23 189.2 180.01 187.71C178.75 187.92 177.49 188.16 176.24 188.32C177.38 189.8 178.54 191.27 179.78 192.7C181.13 192.49 182.43 192.33 183.83 192.06Z" fill="#BB883F"/>
<path d="M190.83 190.55C189.51 189.2 188.26 187.81 187.03 186.41C185.73 186.69 184.44 186.97 183.14 187.21C184.34 188.65 185.66 190.01 186.95 191.39C188.23 191.12 189.5 190.86 190.83 190.55Z" fill="#BB883F"/>
<path d="M231.84 221C228.78 220.22 225.78 219.3 222.84 218.24C221.84 218.5 221.01 218.7 220.02 218.98C219.03 219.26 218.02 219.5 217.02 219.78C219.63 220.87 222.32 221.84 225.02 222.71C227.36 222.05 229.66 221.44 231.84 221Z" fill="#BB883F"/>
<path d="M169 193.68C167.7 192.01 166.37 190.36 165.18 188.68C163.75 188.57 162.35 188.4 160.97 188.17C162.137 190.003 163.364 191.803 164.65 193.57C166.104 193.643 167.554 193.68 169 193.68Z" fill="#BB883F"/>
<path d="M176.22 193.27H176.5C175.23 191.78 174.09 190.27 172.91 188.69C171.54 188.79 170.18 188.83 168.85 188.83C169.997 190.463 171.203 192.067 172.47 193.64C173.71 193.51 175 193.42 176.22 193.27Z" fill="#BB883F"/>
<path d="M311 228.73C312.707 229.103 314.42 229.437 316.14 229.73C318.28 228.48 320.39 227.18 322.44 225.8C320.7 225.53 318.96 225.28 317.2 224.96C315.13 226.27 313.11 227.58 311 228.73Z" fill="#BB883F"/>
<path d="M157 187.28C155.385 186.864 153.796 186.353 152.24 185.75C153.48 187.96 154.87 190.1 156.24 192.24C157.72 192.59 159.24 192.87 160.75 193.1C159.45 191.2 158.24 189.24 157 187.28Z" fill="#BB883F"/>
<path d="M332 192.7C333.24 191.27 334.4 189.8 335.54 188.32C334.29 188.16 333.03 187.92 331.77 187.71C330.55 189.2 329.26 190.63 327.95 192.06C329.39 192.33 330.69 192.49 332 192.7Z" fill="#BB883F"/>
<path d="M354.8 187.28C353.58 189.28 352.37 191.2 351.03 193.1C352.56 192.87 354.03 192.59 355.54 192.24C356.93 190.1 358.32 187.96 359.54 185.75C357.991 186.352 356.408 186.863 354.8 187.28Z" fill="#BB883F"/>
<path d="M335.6 193.27C336.86 193.42 338.11 193.51 339.35 193.59C340.61 192.01 341.82 190.407 342.98 188.78C341.64 188.78 340.28 188.78 338.91 188.64C337.73 190.18 336.59 191.73 335.32 193.22L335.6 193.27Z" fill="#BB883F"/>
<path d="M297.19 225.43C299.53 224.43 301.78 223.32 304.03 222.18C302.33 221.77 300.62 221.28 298.91 220.83C296.46 221.95 293.91 222.95 291.41 223.88C293.32 224.42 295.26 224.92 297.19 225.43Z" fill="#BB883F"/>
<path d="M203.48 223.13C201.86 223.5 200.23 223.88 198.62 224.21C200.76 225.47 202.93 226.65 205.16 227.77C206.94 227.36 208.74 226.98 210.52 226.53C208.14 225.45 205.76 224.38 203.48 223.13Z" fill="#BB883F"/>
<path d="M347.14 193.53C348.42 191.75 349.65 189.96 350.82 188.13C349.44 188.36 348.04 188.53 346.61 188.64C345.42 190.36 344.09 192.01 342.79 193.64C344.263 193.667 345.713 193.63 347.14 193.53Z" fill="#BB883F"/>
<path d="M286.77 222.66C289.49 221.79 292.18 220.82 294.77 219.73C293.77 219.45 292.77 219.22 291.77 218.93C290.77 218.64 289.9 218.45 288.95 218.19C286.01 219.25 283.01 220.17 279.95 220.95C282.16 221.44 284.46 222.05 286.77 222.66Z" fill="#BB883F"/>
<path d="M273.48 219.64C277.144 218.968 280.767 218.086 284.33 217C281.79 216.37 279.33 215.84 276.95 215.37C263.126 218.743 248.694 218.743 234.87 215.37C232.48 215.84 230.03 216.37 227.49 217C231.056 218.094 234.682 218.982 238.35 219.66C249.959 217.493 261.869 217.486 273.48 219.64Z" fill="#BB883F"/>
<path d="M301.3 226.53C303.08 226.98 304.88 227.36 306.67 227.77C308.89 226.65 311.06 225.47 313.2 224.21C311.59 223.88 309.96 223.5 308.34 223.13C306.06 224.38 303.68 225.45 301.3 226.53Z" fill="#BB883F"/>
<path d="M194.64 225C192.88 225.32 191.14 225.57 189.4 225.84C191.4 227.22 193.56 228.52 195.7 229.77C197.42 229.45 199.13 229.1 200.84 228.77C198.71 227.58 196.69 226.27 194.64 225Z" fill="#BB883F"/>
<path d="M324.87 191.39C326.16 190.01 327.49 188.65 328.68 187.21C327.38 186.97 326.09 186.69 324.79 186.41C323.56 187.81 322.31 189.2 320.99 190.55C322.32 190.86 323.59 191.12 324.87 191.39Z" fill="#BB883F"/>
<path d="M220.41 223.88C217.86 222.95 215.41 221.95 212.91 220.83C211.2 221.28 209.49 221.77 207.79 222.18C210.04 223.32 212.29 224.45 214.63 225.43C216.56 224.92 218.5 224.42 220.41 223.88Z" fill="#BB883F"/>
<path fill-rule="evenodd" clip-rule="evenodd" d="M185.46 45.88C186.164 45.88 186.852 46.0888 187.438 46.48C188.023 46.8711 188.479 47.4271 188.749 48.0777C189.018 48.7282 189.089 49.4439 188.952 50.1345C188.814 50.8251 188.475 51.4594 187.977 51.9573C187.479 52.4552 186.845 52.7942 186.154 52.9316C185.464 53.069 184.748 52.9985 184.098 52.729C183.447 52.4596 182.891 52.0033 182.5 51.4178C182.109 50.8324 181.9 50.1441 181.9 49.44C181.9 48.4958 182.275 47.5903 182.943 46.9227C183.61 46.2551 184.516 45.88 185.46 45.88Z" fill="#BB883F"/>
<path fill-rule="evenodd" clip-rule="evenodd" d="M327.72 45.88C328.424 45.88 329.113 46.0888 329.698 46.48C330.283 46.8712 330.74 47.4272 331.009 48.0777C331.279 48.7282 331.349 49.444 331.212 50.1345C331.074 50.8251 330.735 51.4594 330.237 51.9573C329.74 52.4552 329.105 52.7942 328.415 52.9316C327.724 53.069 327.008 52.9985 326.358 52.729C325.707 52.4596 325.151 52.0033 324.76 51.4178C324.369 50.8324 324.16 50.1441 324.16 49.44C324.159 48.9721 324.25 48.5086 324.428 48.0761C324.607 47.6436 324.869 47.2506 325.2 46.9198C325.531 46.5889 325.924 46.3268 326.356 46.1483C326.789 45.9699 327.252 45.8787 327.72 45.88Z" fill="#BB883F"/>
<path fill-rule="evenodd" clip-rule="evenodd" d="M163.74 203.92L165.19 208.39H169.89L166.08 211.15L167.54 215.62L163.74 212.85L159.94 215.62L161.41 211.15L157.6 208.39H162.3L163.74 203.92ZM348.08 203.92L349.52 208.39H354.22L350.41 211.15L351.88 215.62L348.08 212.85L344.28 215.62L345.74 211.15L341.93 208.39H346.63L348.08 203.92Z" fill="#BB883F"/>
<path fill-rule="evenodd" clip-rule="evenodd" d="M495 79.32C498.16 86.32 490.21 94.73 493.21 100.39C488.28 93.04 495.53 87.89 495 79.32ZM443.8 243.58C444.1 240.92 445.25 239.3 448.04 238.65C444.61 238.26 442 240.28 443.84 243.58H443.8ZM449.3 245.11C449.59 242.44 450.75 240.82 453.54 240.18C450.1 239.78 447.45 241.8 449.34 245.11H449.3ZM414.5 50C414.5 50 416.68 49.19 419.44 48.32C422.2 47.45 423.19 47.21 423.19 47.21C421.203 46.9316 419.197 46.8079 417.19 46.84C416.47 47.0248 415.825 47.4277 415.344 47.9934C414.862 48.5592 414.567 49.2601 414.5 50ZM456.64 54.31C456.1 46.88 450.04 42.31 442.84 42.31C448.65 43.69 454.1 49.11 456.64 54.32V54.31ZM463 87.21C464.16 75.16 456.68 66.07 456.68 66.07C456.68 66.07 459.87 76.64 463 87.21ZM435.27 43.38C441.55 41.38 443.33 50.64 437.33 51.78C439.32 48.86 439.4 44.75 435.24 43.38H435.27ZM444.34 107.11C440.96 97.32 444.13 93.71 449.39 85.78C449.39 91.34 454.09 94.51 454.09 94.51C454.09 94.51 450.9 90.92 452.32 83.22C453.156 78.5252 452.724 73.6925 451.07 69.22C451.565 74.9431 450.037 80.6586 446.75 85.37C442.32 92.3 437.54 97.21 444.34 107.07V107.11ZM443.28 47.66C443.28 47.66 450.16 58.44 447.09 71.16C447.01 71.5 446.92 71.82 446.84 72.16C450.39 65.79 449.51 58.43 448.84 55.16C450.673 57.0864 451.795 59.5803 452.02 62.23C452.02 62.23 453.2 52.71 443.26 47.66H443.28ZM413.1 94.84C415.18 92.4 418.1 90.5 421.92 87.84C420.72 91.53 420.77 96.3 423.25 99.75C420.09 89.12 428 87.42 427.84 77.08C424.8 85.73 415.32 87.19 413.1 94.84ZM449.41 175C458.79 163.6 459.61 152.83 454.41 141.58C464.25 153.93 461.43 165.63 449.41 175ZM442.88 134.7C443.932 137.859 444.581 141.138 444.81 144.46C445 147.183 444.812 149.919 444.25 152.59C444.25 152.59 449.38 144.83 442.88 134.66V134.7ZM427.07 186.43C427.07 186.43 427.35 191.91 430.3 195.53C433.25 199.15 447.05 205.03 447.05 205.03C447.05 205.03 434.67 196.98 432.19 194.44C429.71 191.9 427.07 186.39 427.07 186.39V186.43ZM447.4 162.2C452.45 153.33 450.07 144.5 448.5 137.7C453.35 144.25 455 157 447.4 162.16V162.2ZM401.28 136.35C406.38 137.75 413.41 134 415.64 126.22C412.09 131.82 406 135.57 401.28 136.31V136.35ZM399.59 132.5C403.75 132.95 407.42 130.61 409.16 125.01C406.39 128.23 403.25 131.88 399.59 132.46V132.5ZM407.75 140.59C419.35 143.76 423.32 128.54 423.32 128.54C423.32 128.54 417.23 139 407.75 140.55V140.59ZM442.75 57.41C443.577 59.6566 443.932 62.0495 443.793 64.4395C443.653 66.8294 443.023 69.1649 441.94 71.3C438.94 77.45 436.52 82.83 438.49 90.01L438.28 89.69C436.37 86.7716 435.694 83.2156 436.4 79.8C432.22 85.66 428.46 92.05 431.89 102.8C420.68 80.52 444.46 75.46 442.72 57.37L442.75 57.41ZM506.88 91.21C506.88 91.21 503.83 86.69 500.19 88.41C496.55 90.13 495.38 95.55 498.65 98.41C501.92 101.27 507.85 97.64 507.85 97.64C507.85 97.64 504.65 107.29 495.98 102.64C496.183 104.432 496.715 106.171 497.55 107.77C497.55 107.77 483.9 100.49 489.75 88.16L489.95 87.75C485.66 91.09 485.6 94.94 485.6 94.94C485.6 94.94 480.99 91.94 486.12 85.35C491.25 78.76 489.65 75.26 485.12 75.25C482.61 75.25 479.49 77.13 477.29 79.71C475.05 82.2271 473.482 85.2693 472.732 88.5542C471.982 91.8391 472.074 95.2602 473 98.5C476.81 112.63 490.47 114.5 495.22 126.3C495.804 123.878 495.773 121.347 495.13 118.94C495.13 118.94 501.99 128.25 499.21 138.25C500.78 136.01 501.98 131.89 502.57 129.25C504.04 140.43 499.35 149.17 488.67 153.25C491.469 153.678 494.329 153.138 496.78 151.72C491.25 158.23 478.03 163.33 464.64 165C460.2 173.44 450.88 180.91 450.69 193.11C454.54 197.26 459.21 201.76 462.42 203.01C468.79 205.49 472.73 202.46 472.73 202.46C472.73 202.46 473.58 214.39 458.84 204.55L458.63 204.42C460.761 206.451 463.21 208.12 465.88 209.36C471.64 211.96 474.88 209.25 474.88 209.25C474.88 209.25 474.57 220.57 459.83 209.25L459.38 208.9C461.09 210.81 464.26 213.9 467.96 215.21C469.442 215.847 471.074 216.051 472.667 215.798C474.26 215.544 475.748 214.845 476.96 213.78C476.96 213.78 477.53 218.64 473.56 219.52C474.308 219.847 474.956 220.368 475.436 221.029C475.916 221.69 476.211 222.467 476.29 223.28C476.29 223.28 469.61 220.19 467.43 225.16C465.25 230.13 464.15 234 464.76 238.86C465.37 243.72 458.33 243.86 455.76 246.15C453.19 248.44 453.94 250.57 453.94 250.57C453.94 250.57 449.94 249.46 449.35 246.13C448.15 246.89 446.13 248.62 446.42 250.07C444.35 248.8 442.83 246.41 443.48 244.07C440.13 245.46 440.53 248.33 440.53 248.33C440.53 248.33 435.07 244.52 436.71 239.99C438.24 235.77 443.3 236.15 444.47 237.88C446.821 236.055 448.748 233.742 450.12 231.1C452.79 225.68 452.79 216.51 452.79 215.63C452.79 214.75 437.62 201.55 425.79 199.63C413.96 197.71 414.57 190.51 414.57 190.51C416.283 190.935 418.068 190.979 419.8 190.64C422.43 185.99 428.27 173.35 426.32 155.32C426.072 160.367 425.123 165.355 423.5 170.14C419.826 169.006 415.947 168.695 412.14 169.23C413.85 169.614 415.416 170.476 416.655 171.715C417.894 172.954 418.756 174.52 419.14 176.23C417.651 174.885 415.79 174.023 413.801 173.757C411.812 173.491 409.79 173.834 408 174.74C416 175.07 415.24 182.3 415.24 182.3C415.24 182.3 413.48 178.65 407.95 180.09C402.42 181.53 402.21 189.59 404.42 196C406.63 202.41 411.27 200.86 411.27 200.86C409.64 208.44 404.27 209.66 397.57 209.58C386.91 209.47 376.49 212.96 366.91 207.92C366.043 207.551 365.207 207.113 364.41 206.61C363.47 205.95 363.41 205.72 363.41 204.81C363.47 203.22 361.14 203.33 359.9 205.58C359.62 199.77 365.71 199.19 368.5 203.4C369.1 200.81 365.82 199.02 362.88 199.67C362.87 199.494 362.87 199.317 362.88 199.14C362.94 197.55 360.61 197.66 359.37 199.91C359.09 194.16 365.9 192.91 368.93 198.62C369.27 199.27 369.66 200.01 370.05 200.78C370.7 197.97 368.75 195.51 365.76 194.29C364.82 192.83 363.22 192.48 361.55 193.67C361.63 191.67 363.28 190.67 365.55 191.34C368.49 190.04 370.97 193.08 372.65 196.34C373.24 194.14 372.11 192.09 369.44 191C368.5 189.54 366.9 189.19 365.23 190.38C365.31 188.38 366.96 187.38 369.23 188.04C371.23 187.17 373.16 188.13 374.7 189.88C379.09 194.88 376.32 198.17 384.41 197.63C387.326 197.357 390.086 196.187 392.31 194.28C392.636 190.623 391.678 186.967 389.6 183.94C387.128 180.298 385.868 175.969 386 171.57C383.079 171.712 380.26 172.691 377.88 174.39C377.88 174.39 378.31 166.72 383.88 163.82C384.3 160.5 386.37 153.82 396.03 150.33C406.25 146.63 420.03 148.73 425.68 149.86C425.51 148.94 425.32 148.01 425.1 147.07C412.91 141.34 406.56 143.71 406.56 143.71C406.56 143.71 401.42 141.37 396.87 134.77C398.222 131.128 400.372 127.836 403.164 125.135C405.955 122.433 409.316 120.392 413 119.16C403.85 120.66 399.7 124.24 397 127.62C395.33 129.75 395.56 131.76 394.28 133.35C392.28 135.84 390.84 135.07 390.84 135.07C390.84 135.07 392.29 131.48 389.48 130.68C388.566 131.743 388.066 133.099 388.07 134.5C388.087 135.167 387.954 135.829 387.683 136.438C387.412 137.048 387.008 137.589 386.502 138.023C385.995 138.456 385.398 138.772 384.755 138.946C384.111 139.12 383.436 139.149 382.78 139.03C382.78 139.03 384.54 136.1 382.88 134.85C382.187 135.248 381.599 135.806 381.165 136.477C380.732 137.149 380.466 137.914 380.39 138.71C380.39 142.18 375.02 141.77 375.02 141.77C375.02 141.77 376.91 138.27 374.42 138.13C371.93 137.99 369.13 140.42 367.63 143.13C366.13 145.84 363.96 145.42 362.14 144.85C360.32 144.28 359.28 146.62 359.28 146.62C358.824 146.164 358.549 145.558 358.504 144.915C358.46 144.272 358.651 143.634 359.04 143.12C360.32 140.93 362.84 140.12 363.62 138.92V138.84C362.46 138.99 360.83 139.34 360.21 140.66C359.21 142.75 357.4 142.66 355.94 143.28C355.523 143.473 355.173 143.787 354.936 144.181C354.699 144.575 354.585 145.031 354.61 145.49C354.61 145.49 353.25 143.22 353.97 141.49C354.69 139.76 357.97 138.32 358.91 137.54C357.964 137.399 356.999 137.601 356.19 138.11C354.57 139.22 355.19 140.28 353.09 141.11C350.99 141.94 351.36 144.33 351.36 144.33C351.36 144.33 349.62 141.98 350.48 139.91C351.493 138.029 353.11 136.542 355.07 135.69C353.89 135.34 352.38 135.14 351.79 136.39C351.05 137.96 350.54 138.31 349.93 138.64C348.7 139.31 348.31 139.74 348.7 141.16C346.04 138.24 348.26 133.16 353.07 132.68C356.28 132.35 359.99 132.89 362.47 131.68C364.47 130.68 383.75 123.49 391.58 107.78C392.047 106.838 392.561 105.92 393.12 105.03C388.58 101.87 385.61 99.55 382.84 98.03C381.615 93.0249 380.095 88.0963 378.29 83.27C380.799 84.3074 383.359 85.2186 385.96 86C397.73 89.53 407.96 84 409.36 83.21C408.06 84.85 406.77 86.75 405.22 89.06C401.62 94.46 397.65 94.18 393.38 93.86C394.896 95.3984 396.691 96.6338 398.67 97.5C396.847 98.6441 395.517 100.427 394.94 102.5C396.618 100.377 398.81 98.7173 401.31 97.68C399.988 97.0315 398.749 96.2257 397.62 95.28C403.25 95.28 405.71 92.28 407.68 89.37C412.86 81.6 415.17 78.16 424.35 74.17C422.374 74.164 420.405 74.3854 418.48 74.83C422.25 70.98 430.48 70.92 432.3 66.95C432.879 65.5663 433.175 64.0802 433.17 62.58C431.803 64.6443 429.706 66.1158 427.3 66.7C420.01 68.97 417.96 72 417.96 72C418.352 70.3474 419.138 68.814 420.25 67.53C411.13 69.78 412.45 79.34 412.45 79.34C412.45 79.34 410.56 81.45 407.16 79.93C406.277 79.506 405.325 79.2419 404.35 79.15C403.3 81.98 399.6 82.42 399.6 82.42C400.279 82.1465 400.855 81.6682 401.25 81.0516C401.644 80.4351 401.836 79.711 401.8 78.98C401.285 79.8995 400.474 80.6169 399.498 81.0148C398.523 81.4126 397.441 81.4674 396.43 81.17C397.172 81.0196 397.827 80.5878 398.257 79.9651C398.688 79.3425 398.861 78.5773 398.74 77.83C398.57 76.37 399.98 75.78 399.6 73.78C399.22 71.78 399.3 70.49 399.88 70.17C400.004 70.1365 400.136 70.1365 400.26 70.17C400.421 68.8137 400.969 67.5324 401.84 66.48C401.833 67.9846 402.176 69.4701 402.84 70.82C403.766 71.176 404.769 71.2862 405.75 71.14C406.96 70.62 408.23 70.46 408.34 68.14C408.45 65.82 409.5 63.14 409.87 61.76C410 61.3747 410.046 60.9659 410.004 60.5614C409.963 60.1568 409.835 59.7659 409.629 59.4151C409.423 59.0643 409.144 58.7618 408.812 58.528C408.479 58.2942 408.1 58.1346 407.7 58.06C406.7 57.92 403.26 58.12 400.22 58.13C399.392 59.6662 398.963 61.3852 398.97 63.13C397.762 61.7019 397.14 59.8686 397.23 58C395.93 57.9 395.02 57.69 394.93 57.28C394.61 55.85 396.28 55.01 396.93 51.95C397.58 48.89 397.63 48.4 403.18 49.25C404.983 49.6482 406.863 49.4984 408.58 48.82C409.125 48.634 409.6 48.2849 409.94 47.82C413.55 42.95 415.71 39.82 420.81 38.67C421.06 32.17 427.73 28.22 435.41 29.3C432.841 30.7535 430.721 32.8843 429.28 35.46C431.88 33.79 438.77 30.76 448.22 37.14C460.38 45.34 468.58 37.6 468.58 37.6C467.912 39.6188 466.798 41.4615 465.322 42.9917C463.845 44.5219 462.044 45.7004 460.05 46.44C466.28 50.44 467.11 55.19 467.11 55.19C465.078 53.8856 462.9 52.8249 460.62 52.03C466.06 57.23 470.41 64.22 468.49 73.71C466.264 67.3482 461.996 61.9018 456.35 58.22C467.48 69.74 468.48 86.55 465.16 98.63C463.846 95.5825 462.105 92.7373 459.99 90.18C462.99 102.66 460.51 115.18 448.5 115.77C458.1 110.08 453.81 101.64 448.9 94.7C449.25 102.87 448.35 109.61 441.04 115.46C442.97 105.9 434.04 104.63 436.62 95.56C431.62 106 442.86 107.76 437.62 121.56C440.726 119.152 443.599 116.457 446.2 113.51C441.53 136.17 461.76 136.51 466.25 152.24C466.498 153.107 466.676 153.994 466.78 154.89C475.17 152.89 483.09 149.02 489.11 139.33C489.11 139.33 489.22 144.33 487.41 147.18C499.73 137.06 488.09 125.07 479.29 116.27C473.39 110.37 468.59 103.92 468.29 95.61C467.94 85.33 474.29 75.01 484.64 73.1C486.12 72.83 487.7 72.61 489.41 72.35C500.16 70.74 503.65 80.53 511.91 81.26C509.56 83.51 506.04 82.7 503.52 81.84C507.72 85.34 507.83 90.3 506.76 91.29L506.88 91.21Z" fill="#BB883F"/>
<path fill-rule="evenodd" clip-rule="evenodd" d="M16.9998 79.38C13.8398 86.38 21.7898 94.7899 18.7898 100.45C23.6798 93.0999 16.4298 88 16.9998 79.38ZM68.1498 243.65C67.8598 240.98 66.6998 239.36 63.9198 238.72C67.3898 238.32 69.9998 240.34 68.1498 243.65ZM62.6598 245.17C62.3698 242.51 61.2098 240.89 58.4198 240.24C61.8998 239.85 64.5498 241.87 62.6598 245.17ZM97.4998 50.0799C97.4998 50.0799 95.3198 49.2599 92.5598 48.3899C89.7998 47.5199 88.8098 47.2899 88.8098 47.2899C90.7973 47.0121 92.803 46.8851 94.8098 46.91C95.5383 47.0881 96.1931 47.4894 96.6825 48.0577C97.1719 48.626 97.4716 49.333 97.5398 50.0799H97.4998ZM55.3598 54.38C55.8998 46.96 61.9698 42.38 69.1598 42.38C63.3498 43.75 57.8998 49.18 55.3598 54.38ZM48.9998 87.2799C47.8398 75.2199 55.3198 66.1399 55.3198 66.1399C55.3198 66.1399 52.1298 76.7099 48.9998 87.2799ZM76.7298 43.4499C70.4498 41.4499 68.6698 50.7099 74.6698 51.8399C72.6798 48.9299 72.5998 44.8199 76.7598 43.4499H76.7298ZM67.6598 107.17C71.0398 97.3799 67.8698 93.7699 62.6598 85.8399C62.6598 91.3999 57.9598 94.5799 57.9598 94.5799C57.9598 94.5799 61.1498 90.9799 59.7298 83.2899C58.8959 78.5951 59.3273 73.7628 60.9798 69.2899C60.4835 75.0131 62.0124 80.7289 65.2998 85.4399C69.7298 92.3799 74.5098 97.2799 67.7098 107.14L67.6598 107.17ZM68.7198 47.7299C68.7198 47.7299 61.8398 58.5099 64.9098 71.2299C64.9898 71.5599 65.0798 71.8799 65.1598 72.2299C61.6098 65.8699 62.4898 58.4999 63.1598 55.2299C61.3364 57.1609 60.2224 59.6535 59.9998 62.2999C59.9998 62.2999 58.8198 52.7799 68.7598 47.7299H68.7198ZM98.8998 94.8999C96.8198 92.4599 93.8998 90.5599 90.0798 87.8999C91.2798 91.5899 91.2298 96.3599 88.7498 99.8099C91.9098 89.1799 83.9998 87.4899 84.1598 77.1499C87.1998 85.7899 96.6798 87.2499 98.8998 94.8999ZM62.5898 175C53.2098 163.6 52.3898 152.84 57.5898 141.58C47.7498 154 50.5698 165.69 62.5898 175ZM69.1198 134.71C68.0662 137.869 67.4177 141.148 67.1898 144.47C66.9993 147.193 67.1878 149.929 67.7498 152.6C67.7498 152.6 62.6198 144.89 69.1198 134.73V134.71ZM84.9298 186.43C84.9298 186.43 84.6498 191.92 81.6998 195.53C78.7498 199.14 64.9998 205.06 64.9998 205.06C64.9998 205.06 77.3798 197.01 79.8598 194.46C82.3398 191.91 84.9298 186.45 84.9298 186.45V186.43ZM64.5998 162.22C59.5998 153.36 61.9298 144.53 63.4998 137.72C58.6498 144.31 56.9998 157 64.5998 162.22ZM110.72 136.37C105.62 137.77 98.5898 134.03 96.3598 126.24C99.9098 131.88 106 135.63 110.72 136.37ZM112.41 132.52C108.25 132.97 104.58 130.64 102.84 125.04C105.61 128.3 108.75 131.94 112.41 132.52ZM104.25 140.61C92.6498 143.78 88.6798 128.61 88.6798 128.61C88.6798 128.61 94.7698 139.11 104.25 140.61ZM69.2498 57.4299C68.4225 59.6765 68.0675 62.0695 68.2069 64.4594C68.3463 66.8493 68.977 69.1848 70.0598 71.32C73.0598 77.47 75.4798 82.8599 73.5098 90.0299L73.7198 89.71C75.6293 86.7915 76.3053 83.2355 75.5998 79.82C79.7798 85.68 83.5398 92.07 80.1098 102.82C91.2898 80.63 67.5098 75.5799 69.2498 57.4799V57.4299ZM5.14977 91.2299C5.14977 91.2299 8.14977 86.7199 11.8398 88.4299C15.5298 90.1399 16.6498 95.5699 13.3798 98.4299C10.1098 101.29 4.17977 97.66 4.17977 97.66C4.17977 97.66 7.37976 107.31 16.0498 102.71C15.8474 104.505 15.3152 106.248 14.4798 107.85C14.4798 107.85 28.1298 100.56 22.2798 88.2299L22.0798 87.8299C26.3698 91.16 26.4298 95.0099 26.4298 95.0099C26.4298 95.0099 31.0398 92.0099 25.9098 85.4299C20.7798 78.8499 22.3798 75.33 26.9098 75.32C29.4198 75.32 32.5398 77.1999 34.7398 79.7799C36.9729 82.2988 38.5342 85.3406 39.2788 88.6235C40.0235 91.9063 39.9275 95.3241 38.9998 98.5599C35.1898 112.7 21.5298 114.56 16.7798 126.37C16.1963 123.944 16.2273 121.411 16.8698 119C16.8698 119 10.0098 128.32 12.7898 138.32C11.2198 136.08 10.0198 131.96 9.42977 129.32C7.95977 140.5 12.6498 149.24 23.3298 153.32C20.5344 153.744 17.678 153.204 15.2298 151.79C20.7498 158.29 33.9698 163.39 47.3598 165.06C51.7998 173.51 61.1198 180.97 61.3598 193.17C57.5098 197.33 52.8398 201.82 49.6298 203.07C43.2598 205.56 39.3198 202.52 39.3198 202.52C39.3198 202.52 38.4698 214.45 53.2098 204.62L53.4198 204.48C51.2886 206.511 48.8396 208.18 46.1698 209.42C40.4098 212.02 37.1698 209.31 37.1698 209.31C37.1698 209.31 37.4798 220.64 52.2198 209.31L52.6698 208.97C50.9598 210.87 47.7898 213.92 44.0898 215.28C42.6067 215.914 40.9744 216.116 39.3816 215.861C37.7888 215.606 36.3008 214.905 35.0898 213.84C35.0898 213.84 34.5198 218.71 38.4898 219.59C37.7421 219.915 37.0949 220.435 36.6149 221.094C36.135 221.753 35.8398 222.528 35.7598 223.34C35.7598 223.34 42.4398 220.25 44.6198 225.22C46.7998 230.19 47.8998 234.06 47.2898 238.92C46.6798 243.78 53.7198 243.92 56.2898 246.21C58.8598 248.5 57.9998 250.6 57.9998 250.6C57.9998 250.6 61.9998 249.49 62.5898 246.16C63.7898 246.92 65.8098 248.65 65.5198 250.11C67.5898 248.84 69.1098 246.44 68.4598 244.11C71.8098 245.49 71.4598 248.36 71.4598 248.36C71.4598 248.36 76.9198 244.55 75.2798 240.02C73.7498 235.8 68.6898 236.19 67.5198 237.91C65.169 236.084 63.2414 233.771 61.8698 231.13C59.1998 225.72 59.1998 216.55 59.1998 215.66C59.1998 214.77 74.3698 201.58 86.1998 199.66C98.0298 197.74 97.4198 190.55 97.4198 190.55C95.7065 190.974 93.9207 191.015 92.1898 190.67C89.5598 186.02 83.7198 173.38 85.6698 155.36C85.9191 160.407 86.8682 165.394 88.4898 170.18C92.1618 169.037 96.0417 168.723 99.8498 169.26C98.1402 169.645 96.5749 170.507 95.3358 171.746C94.0967 172.985 93.2346 174.55 92.8498 176.26C94.3401 174.89 96.2134 174.009 98.2187 173.734C100.224 173.458 102.266 173.803 104.07 174.72C96.0698 175.05 96.8298 182.28 96.8298 182.28C96.8298 182.28 98.5898 178.64 104.12 180.07C109.65 181.5 109.86 189.57 107.65 195.98C105.44 202.39 100.8 200.84 100.8 200.84C102.43 208.43 107.8 209.64 114.5 209.57C125.16 209.45 135.58 212.94 145.16 207.91C146.023 207.533 146.858 207.095 147.66 206.6C148.6 205.93 148.66 205.71 148.66 204.79C148.6 203.2 150.93 203.31 152.17 205.56C152.45 199.76 146.36 199.17 143.57 203.38C142.97 200.8 146.25 199 149.19 199.65C149.2 199.473 149.2 199.296 149.19 199.12C149.13 197.54 151.46 197.64 152.7 199.89C152.98 194.15 146.17 192.89 143.14 198.61C142.8 199.26 142.41 199.99 142.02 200.76C141.37 197.96 143.32 195.49 146.31 194.28C147.25 192.81 148.85 192.47 150.52 193.66C150.44 191.66 148.79 190.66 146.52 191.32C143.58 190.03 141.1 193.06 139.42 196.32C138.83 194.12 139.96 192.07 142.63 190.98C143.57 189.52 145.17 189.17 146.84 190.37C146.76 188.37 145.11 187.37 142.84 188.03C140.84 187.15 138.91 188.12 137.37 189.87C132.98 194.87 135.75 198.15 127.66 197.61C124.742 197.342 121.981 196.171 119.76 194.26C119.463 190.623 120.438 186.997 122.52 184C124.992 180.359 126.252 176.029 126.12 171.63C129.042 171.773 131.861 172.756 134.24 174.46C134.24 174.46 133.81 166.78 128.24 163.88C127.82 160.57 125.75 153.88 116.09 150.39C105.87 146.69 92.0898 148.8 86.4398 149.93C86.6098 149.01 86.7998 148.08 87.0198 147.13C99.2098 141.41 105.56 143.77 105.56 143.77C105.56 143.77 110.7 141.44 115.25 134.83C113.888 131.175 111.72 127.875 108.906 125.174C106.093 122.473 102.707 120.441 98.9998 119.23C108.15 120.72 112.3 124.3 115 127.69C116.67 129.81 116.44 131.82 117.72 133.41C119.72 135.9 121.16 135.13 121.16 135.13C121.16 135.13 119.71 131.54 122.52 130.75C123.432 131.809 123.933 133.162 123.93 134.56C123.911 135.227 124.042 135.89 124.313 136.5C124.583 137.111 124.987 137.653 125.494 138.087C126.001 138.521 126.599 138.837 127.243 139.01C127.888 139.184 128.563 139.211 129.22 139.09C129.22 139.09 127.46 136.17 129.12 134.92C129.816 135.314 130.407 135.871 130.841 136.543C131.274 137.215 131.538 137.983 131.61 138.78C131.61 142.24 136.98 141.84 136.98 141.84C136.98 141.84 135.09 138.34 137.58 138.19C140.07 138.04 142.87 140.48 144.37 143.19C145.87 145.9 148.04 145.48 149.86 144.92C151.68 144.36 152.72 146.68 152.72 146.68C153.176 146.224 153.451 145.618 153.495 144.975C153.539 144.332 153.349 143.694 152.96 143.18C151.68 140.99 149.16 140.18 148.38 138.99L148.33 138.9C149.49 139.06 151.12 139.41 151.74 140.72C152.74 142.81 154.55 142.72 156.01 143.34C156.428 143.535 156.778 143.851 157.015 144.246C157.252 144.642 157.365 145.099 157.34 145.56C157.34 145.56 158.7 143.28 157.98 141.56C157.26 139.84 153.98 138.39 153.04 137.62C153.985 137.485 154.948 137.687 155.76 138.19C157.38 139.31 156.76 140.37 158.86 141.19C159.469 141.453 159.972 141.914 160.286 142.498C160.6 143.083 160.707 143.757 160.59 144.41C160.59 144.41 162.33 142.06 161.47 140C160.457 138.116 158.84 136.626 156.88 135.77C158.06 135.42 159.57 135.22 160.16 136.48C160.9 138.05 161.4 138.39 162.02 138.73C163.25 139.4 163.64 139.82 163.25 141.24C165.91 138.32 163.69 133.24 158.88 132.76C155.67 132.43 151.96 132.97 149.48 131.76C147.53 130.76 128.19 123.57 120.37 107.86C119.87 106.86 119.37 105.94 118.83 105.11C123.26 102.03 126.19 99.75 128.9 98.21C130.12 93.1904 131.64 88.2482 133.45 83.41C131.08 84.41 128.56 85.2899 125.99 86.0599C114.22 89.5799 103.99 84.0599 102.59 83.2599C103.89 84.8999 105.18 86.8099 106.73 89.1199C110.33 94.5099 114.3 94.2299 118.57 93.91C117.057 95.4517 115.26 96.6876 113.28 97.5499C115.1 98.6961 116.43 100.478 117.01 102.55C115.327 100.434 113.135 98.7794 110.64 97.74C111.959 97.0856 113.197 96.2802 114.33 95.3399C108.7 95.3399 106.24 92.3399 104.27 89.4199C99.0898 81.6499 96.7798 78.2099 87.5998 74.2299C89.5747 74.2235 91.5441 74.4416 93.4698 74.88C89.6998 71.03 81.4698 70.9799 79.6498 66.9999C79.0695 65.6164 78.7736 64.1302 78.7798 62.63C80.1459 64.6973 82.2425 66.1723 84.6498 66.7599C91.9398 69.0299 93.9898 72.0499 93.9898 72.0499C93.5952 70.3982 92.8098 68.8652 91.6998 67.5799C100.82 69.8399 99.4998 79.3899 99.4998 79.3899C99.4998 79.3899 101.39 81.5 104.79 79.99C105.671 79.5613 106.623 79.2969 107.6 79.21C108.6 82.03 112.35 82.4699 112.35 82.4699C111.672 82.1982 111.095 81.7217 110.701 81.1069C110.307 80.492 110.114 79.7695 110.15 79.0399C110.663 79.9602 111.475 80.6777 112.451 81.0741C113.428 81.4704 114.51 81.5219 115.52 81.2199C114.778 81.0695 114.123 80.6377 113.692 80.0151C113.262 79.3924 113.089 78.6273 113.21 77.88C113.38 76.42 111.97 75.8299 112.35 73.8299C112.73 71.8299 112.65 70.5399 112.07 70.2299C111.946 70.1949 111.814 70.1949 111.69 70.2299C111.533 68.8756 110.984 67.5966 110.11 66.5499C110.116 68.0512 109.774 69.5335 109.11 70.88C108.184 71.2375 107.182 71.3511 106.2 71.21C104.99 70.68 103.72 70.52 103.61 68.21C103.5 65.9 102.45 63.21 102.08 61.82C101.951 61.4346 101.907 61.0262 101.949 60.6222C101.992 60.2183 102.12 59.828 102.325 59.4777C102.531 59.1273 102.809 58.8249 103.141 58.5907C103.473 58.3566 103.851 58.196 104.25 58.1199C105.25 57.9799 108.69 58.1799 111.73 58.1899C112.556 59.7266 112.986 61.4452 112.98 63.1899C114.188 61.7618 114.81 59.9285 114.72 58.0599C116.02 57.9499 116.93 57.7399 117.02 57.3299C117.34 55.9099 115.67 55.0599 115.02 51.9999C114.37 48.9399 114.32 48.4599 108.77 49.3099C106.966 49.6978 105.089 49.5483 103.37 48.88C102.826 48.6905 102.353 48.3421 102.01 47.88C98.3998 43 96.2398 39.8799 91.1398 38.7199C90.8898 32.2199 84.2198 28.2799 76.5398 29.3599C79.1123 30.8084 81.2339 32.9404 82.6698 35.52C80.0698 33.85 73.1798 30.82 63.7298 37.1899C51.5698 45.3899 43.3698 37.6499 43.3698 37.6499C44.0365 39.6706 45.1494 41.5152 46.626 43.0472C48.1026 44.5792 49.9051 45.7593 51.8998 46.4999C45.6698 50.4999 44.8398 55.2499 44.8398 55.2499C46.8457 53.9139 49.0044 52.8228 51.2698 51.9999C45.8298 57.1899 41.4798 64.1799 43.3998 73.6799C45.6277 67.3166 49.8956 61.8676 55.5398 58.1799C44.4098 69.7099 43.4098 86.5199 46.7298 98.5899C48.0466 95.5439 49.7872 92.6991 51.8998 90.1399C48.8998 102.63 51.3798 115.14 63.3898 115.74C53.7798 110.04 58.0798 101.61 62.9898 94.6699C62.6398 102.84 63.5398 109.57 70.8498 115.42C68.9198 105.86 77.8498 104.59 75.2698 95.5299C80.2698 105.97 69.0298 107.72 74.2698 121.53C71.1611 119.125 68.2881 116.429 65.6898 113.48C70.3498 136.14 50.1298 136.48 45.6898 152.22C45.4403 153.084 45.2631 153.967 45.1598 154.86C36.7698 152.86 28.8498 148.99 22.8298 139.3C22.8298 139.3 22.7198 144.3 24.5298 147.16C12.1898 137 23.8298 125 32.6298 116.21C38.5298 110.32 43.3298 103.87 43.6298 95.5599C43.9798 85.2699 37.6298 74.9599 27.2798 73.0499C25.7998 72.77 24.2198 72.5499 22.5098 72.2999C11.7598 70.68 8.26977 80.48 0.00976562 81.21C2.35977 83.45 5.87977 82.6499 8.39977 81.7799C4.19977 85.2899 4.08977 90.2399 5.15977 91.2299H5.14977Z" fill="#BB883F"/>
<path d="M222.92 22.46C222.458 22.3174 221.982 22.2269 221.5 22.19C220.97 22.1476 220.436 22.1643 219.91 22.24C219.324 22.3182 218.75 22.4659 218.2 22.68C217.301 23.0347 216.466 23.5347 215.73 24.16C215.042 24.7537 214.499 25.4957 214.14 26.33C213.759 27.2268 213.582 28.1966 213.62 29.17C213.766 31.4704 214.611 33.6715 216.04 35.48C216.632 36.2187 217.384 36.8125 218.24 37.2163C219.096 37.62 220.033 37.8231 220.98 37.81C222.03 37.7958 223.069 37.582 224.04 37.18C224.381 37.0509 224.714 36.9041 225.04 36.74C225.382 36.5775 225.716 36.3972 226.04 36.2C226.328 36.0244 226.606 35.8307 226.87 35.62C227.089 35.4399 227.287 35.2352 227.46 35.01C227.29 34.55 227.13 34.09 226.95 33.63C226.77 33.17 226.6 32.7 226.42 32.23C226.24 31.76 225.98 31.17 225.75 30.65C225.52 30.13 225.29 29.65 225.07 29.15C225.46 29.0839 225.842 28.9767 226.21 28.83C226.378 28.7669 226.541 28.6935 226.7 28.61C226.858 28.5308 227.009 28.4371 227.15 28.33C227.26 28.69 227.45 29.26 227.73 30.01C228.01 30.76 228.4 31.77 228.88 33.01L229.26 33.93C229.39 34.24 229.51 34.55 229.63 34.85C229.295 35.1514 228.944 35.4351 228.58 35.7C228.13 36.0352 227.663 36.3456 227.18 36.63L225.65 37.49C225.13 37.77 224.65 38 224.22 38.18C222.987 38.6944 221.687 39.0311 220.36 39.18C219.218 39.2918 218.067 39.1448 216.99 38.75C215.931 38.3549 214.982 37.714 214.22 36.88C213.345 35.9245 212.665 34.8068 212.22 33.59C211.734 32.4137 211.486 31.1528 211.49 29.88C211.512 28.7411 211.785 27.6212 212.29 26.6C212.821 25.5527 213.567 24.6293 214.48 23.89C215.516 23.0436 216.68 22.3684 217.93 21.89C218.615 21.6085 219.32 21.3779 220.04 21.2C220.608 21.0604 221.187 20.9635 221.77 20.91C222.231 20.8573 222.696 20.8373 223.16 20.85L224.27 20.92C224.23 21.2354 224.23 21.5546 224.27 21.87C224.297 22.2077 224.354 22.5424 224.44 22.87L224.16 22.97C223.766 22.7563 223.35 22.5853 222.92 22.46Z" fill="#BB883F"/>
<path d="M230.48 21.49C230.22 20.49 229.96 19.49 229.69 18.41H230.31C230.505 18.3946 230.699 18.3646 230.89 18.32C231.083 18.284 231.274 18.2339 231.46 18.17L232.04 17.95C232.22 19.02 232.39 20.06 232.57 21.09C232.75 22.12 232.95 23.15 233.17 24.21C233.6 26.21 233.98 27.98 234.31 29.45C234.64 30.92 234.94 32.25 235.21 33.45C236.34 33.21 237.43 32.97 238.46 32.72C239.581 32.4472 240.686 32.1134 241.77 31.72C241.737 31.9656 241.737 32.2144 241.77 32.46C241.823 32.6777 241.907 32.8866 242.02 33.08C241.28 33.22 240.55 33.3499 239.81 33.5099L237.6 33.9799L235.38 34.45C234.67 34.61 233.93 34.78 233.17 34.97C233.01 33.97 232.84 32.97 232.66 31.97C232.48 30.97 232.28 29.9 232.06 28.84L231.18 24.71C231 23.53 230.74 22.49 230.48 21.49Z" fill="#BB883F"/>
<path d="M243.05 24.11C242.982 22.84 243.165 21.569 243.59 20.37C243.969 19.3054 244.58 18.3386 245.38 17.54C246.189 16.7391 247.156 16.1158 248.22 15.71C250.607 14.8452 253.205 14.7473 255.65 15.43C256.75 15.7588 257.772 16.3102 258.65 17.05C259.508 17.7871 260.191 18.706 260.65 19.74C261.16 20.9012 261.435 22.1519 261.46 23.42C261.528 24.6934 261.344 25.9676 260.92 27.17C260.531 28.2366 259.909 29.2033 259.1 30C258.293 30.7914 257.324 31.3987 256.26 31.78C253.862 32.6043 251.273 32.7017 248.82 32.06C247.722 31.7678 246.702 31.2336 245.837 30.4965C244.972 29.7594 244.283 28.8381 243.82 27.8C243.327 26.6314 243.066 25.3783 243.05 24.11ZM259.05 23.51C259.029 22.3186 258.81 21.139 258.4 20.02C258.068 19.1192 257.55 18.2981 256.88 17.61C256.252 16.9974 255.493 16.5357 254.66 16.26C252.91 15.7127 251.024 15.7833 249.32 16.46C248.509 16.7929 247.787 17.3098 247.21 17.97C246.591 18.7023 246.134 19.5579 245.87 20.48C245.549 21.631 245.417 22.8267 245.48 24.02C245.501 25.2147 245.72 26.3976 246.13 27.52C246.464 28.4193 246.986 29.2373 247.66 29.92C248.285 30.5342 249.04 30.9991 249.87 31.28C250.731 31.5579 251.636 31.6798 252.54 31.64C253.458 31.6213 254.364 31.4279 255.21 31.07C256.021 30.7372 256.743 30.2202 257.32 29.56C257.945 28.8317 258.403 27.9748 258.66 27.05C258.971 25.8974 259.085 24.7007 259 23.51H259.05Z" fill="#BB883F"/>
<path d="M265.86 21.92C266.02 20.85 266.15 19.8 266.27 18.76L266.6 15.63L267.87 15.91C268.3 16 268.73 16.07 269.15 16.13C269.57 16.19 270.01 16.24 270.45 16.27C270.89 16.3 271.32 16.34 271.74 16.4C272.399 16.49 273.048 16.6407 273.68 16.85C274.241 17.0204 274.766 17.2915 275.23 17.65C275.652 17.9749 275.98 18.4064 276.18 18.9C276.395 19.4571 276.45 20.0631 276.34 20.65C276.295 21.178 276.133 21.6894 275.867 22.1476C275.601 22.6058 275.236 22.9993 274.8 23.3C273.846 23.8983 272.755 24.2426 271.63 24.3C272.846 24.4718 273.981 25.0128 274.88 25.85C275.263 26.2823 275.536 26.801 275.675 27.3617C275.815 27.9224 275.816 28.5086 275.68 29.07C275.601 29.8267 275.319 30.5481 274.865 31.1586C274.412 31.7691 273.802 32.2463 273.1 32.54C272.438 32.8394 271.725 33.0091 271 33.04C270.273 33.0988 269.541 33.072 268.82 32.96L267.65 32.76C267.25 32.68 266.86 32.62 266.47 32.56L265.29 32.39C264.899 32.3269 264.505 32.2835 264.11 32.26L264.71 29.18C264.9 28.18 265.08 27.12 265.24 26.05L265.86 21.92ZM267.17 26.78C267.04 27.61 266.94 28.43 266.85 29.24C266.76 30.05 266.67 30.87 266.58 31.71C266.88 31.79 267.25 31.87 267.66 31.96L268.94 32.19C269.452 32.2636 269.973 32.2467 270.48 32.14C270.97 32.036 271.433 31.8317 271.84 31.54C272.249 31.2258 272.589 30.831 272.84 30.38C273.143 29.8567 273.34 29.2791 273.42 28.68C273.528 28.0925 273.486 27.4874 273.3 26.92C273.116 26.4336 272.793 26.0126 272.37 25.71C271.879 25.3671 271.335 25.107 270.76 24.94C270.049 24.7313 269.324 24.5743 268.59 24.47L267.5 24.31L267.17 26.78ZM269 23.6C269.565 23.6897 270.138 23.7199 270.71 23.69C271.253 23.666 271.788 23.5475 272.29 23.34C272.807 23.132 273.255 22.7842 273.586 22.3356C273.916 21.887 274.115 21.3553 274.16 20.8C274.27 20.2519 274.225 19.6839 274.03 19.16C273.867 18.7447 273.598 18.3793 273.25 18.1C272.896 17.8125 272.488 17.5983 272.05 17.47C271.596 17.3277 271.131 17.224 270.66 17.16C270.24 17.09 269.88 17.05 269.58 17.03H268.8C268.65 17.8 268.5 18.57 268.35 19.32C268.2 20.07 268.08 20.84 267.96 21.61L267.69 23.44L269 23.6Z" fill="#BB883F"/>
<path d="M290.44 38.5201C290.23 38.42 290.03 38.35 289.84 38.28L289.22 38.09L288.6 37.9C288.39 37.8373 288.176 37.7872 287.96 37.75C287.96 37.36 287.96 36.88 287.96 36.31C287.96 35.74 287.89 35.15 287.83 34.53C287.77 33.91 287.72 33.2701 287.67 32.6301C287.62 31.9901 287.56 31.37 287.52 30.79L286.01 30.28L284.46 29.79L283.03 29.36L281.59 28.95C280.71 30.01 279.89 31.03 279.15 32C278.41 32.97 277.81 33.79 277.38 34.45C277.102 34.3291 276.818 34.2223 276.53 34.1301C276.241 34.0415 275.947 33.968 275.65 33.91C277.77 31.57 279.85 29.2367 281.89 26.91C283.93 24.5834 285.997 22.21 288.09 19.79L288.53 19.93C288.63 20.93 288.73 22.0601 288.84 23.2401C288.95 24.4201 289.06 25.65 289.18 26.86C289.3 28.07 289.41 29.2901 289.54 30.4901C289.67 31.6901 289.78 32.82 289.89 33.86C290 34.9 290.11 35.86 290.21 36.65C290.31 37.44 290.36 38.09 290.44 38.5201ZM282.33 28C282.74 28.13 283.15 28.26 283.59 28.42L284.85 28.84L286.16 29.23C286.6 29.36 287.05 29.4901 287.49 29.6001L286.74 22.84L282.33 28Z" fill="#BB883F"/>
<path d="M298.27 27.27L299.54 24.35L300.05 24.69C300.217 24.7963 300.391 24.8931 300.57 24.98C300.74 25.06 300.92 25.14 301.11 25.21L301.7 25.4C301.19 26.34 300.7 27.28 300.19 28.2C299.68 29.12 299.19 30.06 298.75 31.03C297.86 32.88 297.08 34.5 296.44 35.86C295.8 37.22 295.22 38.46 294.71 39.54C295.76 40.05 296.76 40.54 297.71 40.96C298.758 41.4379 299.833 41.8552 300.93 42.21C300.755 42.3894 300.61 42.5953 300.5 42.82C300.408 43.0232 300.348 43.2389 300.32 43.46C299.65 43.11 298.98 42.76 298.32 42.46L296.32 41.46C295.62 41.1066 294.953 40.7733 294.32 40.46C293.67 40.14 292.98 39.82 292.26 39.51C292.74 38.62 293.26 37.71 293.73 36.79C294.2 35.87 294.73 34.91 295.17 33.94L297.01 30.14C297.41 29.18 297.86 28.22 298.27 27.27Z" fill="#BB883F"/>
<path d="M183.87 204.48C183.64 203.74 183.41 202.97 183.18 202.2L183.64 202.15L184.07 202.07L184.5 201.93L184.93 201.75C185.09 202.55 185.26 203.33 185.42 204.09C185.58 204.85 185.76 205.63 185.96 206.41L186.75 209.48C186.95 210.26 187.16 211.04 187.38 211.78C187.6 212.52 187.83 213.28 188.05 214.01C187.754 214.057 187.46 214.121 187.17 214.2C186.876 214.272 186.586 214.359 186.3 214.46C186.15 213.71 185.99 212.95 185.83 212.18C185.67 211.41 185.48 210.64 185.28 209.85L184.5 206.78C184.3 206 184.09 205.23 183.87 204.48Z" fill="#BB883F"/>
<path d="M194.55 204.58C194.326 204.404 194.062 204.285 193.782 204.233C193.502 204.18 193.213 204.197 192.94 204.28C192.589 204.342 192.258 204.489 191.977 204.709C191.697 204.928 191.474 205.214 191.33 205.54C191.078 206.286 191.078 207.094 191.33 207.84L191.74 209.35C191.88 209.89 192.04 210.44 192.22 211.03C192.4 211.62 192.58 212.13 192.76 212.58C192.48 212.63 192.22 212.69 191.95 212.76C191.68 212.83 191.43 212.92 191.16 213.02C191.09 212.52 190.99 212.02 190.85 211.39C190.71 210.76 190.57 210.24 190.42 209.71L189.93 207.86C189.78 207.32 189.62 206.77 189.45 206.19C189.28 205.61 189.08 205.07 188.89 204.58C189.166 204.558 189.441 204.514 189.71 204.45L190.01 204.34L190.39 204.17C190.49 204.65 190.6 205.13 190.72 205.61C190.897 205.052 191.194 204.54 191.59 204.11C192.015 203.688 192.548 203.39 193.13 203.25C193.457 203.165 193.793 203.121 194.13 203.12C194.477 203.126 194.818 203.208 195.13 203.36C195.49 203.541 195.804 203.801 196.05 204.12C196.367 204.554 196.595 205.047 196.72 205.57C196.86 206.08 196.99 206.57 197.11 207.15C197.23 207.73 197.37 208.27 197.54 208.88L198 210C198.05 210.19 198.1 210.38 198.16 210.56C198.22 210.74 198.27 210.91 198.33 211.07C198.074 211.113 197.82 211.17 197.57 211.24L196.85 211.47C196.71 210.85 196.56 210.21 196.42 209.55C196.28 208.89 196.11 208.22 195.92 207.55L195.63 206.46C195.484 205.733 195.105 205.072 194.55 204.58Z" fill="#BB883F"/>
<path d="M203.11 209.4L200.34 205.66C199.4 204.41 198.42 203.16 197.34 201.9L197.8 201.84C197.951 201.819 198.102 201.789 198.25 201.75L198.63 201.62L199.01 201.44C199.69 202.52 200.4 203.56 201.14 204.58C201.88 205.6 202.68 206.58 203.54 207.65C203.64 207.1 203.73 206.52 203.81 205.89C203.89 205.26 203.96 204.62 204.03 203.96L204.21 201.96C204.26 201.29 204.32 200.64 204.37 199.96C204.565 199.964 204.76 199.944 204.95 199.9C205.133 199.844 205.308 199.763 205.47 199.66C205.22 201.27 204.98 202.85 204.74 204.42C204.5 205.99 204.32 207.53 204.19 209.07C204.001 209.093 203.814 209.13 203.63 209.18C203.48 209.26 203.3 209.33 203.11 209.4Z" fill="#BB883F"/>
<path d="M207.39 203.63C207.013 202.41 207.081 201.095 207.58 199.92C207.854 199.402 208.243 198.953 208.715 198.607C209.188 198.26 209.733 198.025 210.31 197.92C210.863 197.768 211.442 197.73 212.01 197.81C212.493 197.882 212.955 198.052 213.37 198.31C213.775 198.563 214.117 198.905 214.37 199.31C214.635 199.726 214.831 200.182 214.95 200.66C214.95 200.78 215 200.9 215.02 201.01C215.04 201.12 215.02 201.25 215.08 201.37L213.16 201.81L211.25 202.27C210.85 202.37 210.46 202.47 210.09 202.58L208.92 202.91C208.92 202.97 208.92 203.06 208.97 203.18L209.03 203.41C209.137 203.853 209.316 204.275 209.56 204.66C209.783 205.015 210.075 205.321 210.42 205.56C210.765 205.787 211.153 205.94 211.56 206.01C212.019 206.09 212.491 206.066 212.94 205.94C213.188 205.879 213.427 205.785 213.65 205.66C213.889 205.535 214.113 205.384 214.32 205.21C214.529 205.04 214.72 204.849 214.89 204.64C215.053 204.446 215.193 204.235 215.31 204.01H215.41L215.52 204.91C215.195 205.322 214.807 205.68 214.37 205.97C213.894 206.309 213.358 206.554 212.79 206.69C212.194 206.849 211.573 206.897 210.96 206.83C210.402 206.778 209.863 206.604 209.38 206.32C208.898 206.043 208.479 205.668 208.15 205.22C207.793 204.746 207.535 204.205 207.39 203.63ZM210.49 198.48C210.105 198.567 209.757 198.769 209.49 199.06C209.242 199.332 209.051 199.652 208.93 200C208.808 200.361 208.74 200.739 208.73 201.12C208.717 201.478 208.74 201.837 208.8 202.19L209.96 201.94L211.13 201.66C211.53 201.56 211.92 201.46 212.33 201.34L213.49 201.02C213.406 200.679 213.295 200.344 213.16 200.02C213.023 199.683 212.83 199.372 212.59 199.1C212.355 198.835 212.06 198.629 211.73 198.5C211.33 198.358 210.894 198.351 210.49 198.48Z" fill="#BB883F"/>
<path d="M218.06 203.68C218.418 203.935 218.834 204.096 219.27 204.15C219.515 204.194 219.766 204.194 220.01 204.15C220.234 204.1 220.447 204.012 220.64 203.89C220.82 203.77 220.978 203.621 221.11 203.45C221.244 203.272 221.336 203.067 221.38 202.85C221.44 202.61 221.44 202.36 221.38 202.12C221.356 201.962 221.298 201.812 221.21 201.679C221.122 201.546 221.006 201.434 220.87 201.35C220.595 201.195 220.293 201.094 219.98 201.05C219.612 200.998 219.242 200.968 218.87 200.96C218.495 200.962 218.121 200.912 217.76 200.81C217.412 200.713 217.088 200.542 216.81 200.31C216.502 200.01 216.292 199.623 216.21 199.2C216.121 198.83 216.101 198.447 216.15 198.07C216.195 197.713 216.322 197.37 216.52 197.07C216.723 196.755 216.993 196.489 217.31 196.29C217.684 196.048 218.097 195.872 218.53 195.77C218.912 195.674 219.308 195.644 219.7 195.68L220.64 195.8C220.583 196.036 220.546 196.277 220.53 196.52C220.516 196.736 220.516 196.954 220.53 197.17L220.31 197.22C220.129 196.943 219.872 196.724 219.57 196.59C219.228 196.425 218.837 196.39 218.47 196.49C218.29 196.538 218.119 196.612 217.96 196.71C217.793 196.807 217.65 196.941 217.54 197.1C217.416 197.262 217.33 197.45 217.29 197.65C217.236 197.883 217.236 198.126 217.29 198.36C217.318 198.526 217.379 198.684 217.47 198.825C217.562 198.966 217.681 199.087 217.82 199.18C218.099 199.336 218.404 199.438 218.72 199.48C219.082 199.525 219.446 199.548 219.81 199.55C220.184 199.541 220.558 199.585 220.92 199.68C221.267 199.764 221.589 199.929 221.86 200.16C222.173 200.453 222.383 200.839 222.46 201.26C222.536 201.616 222.536 201.984 222.46 202.34C222.388 202.718 222.242 203.078 222.03 203.4C221.804 203.744 221.512 204.04 221.17 204.27C220.778 204.524 220.345 204.71 219.89 204.82C219.426 204.937 218.949 204.994 218.47 204.99C218.131 204.979 217.795 204.925 217.47 204.83C217.51 204.602 217.533 204.371 217.54 204.14C217.557 203.905 217.541 203.67 217.49 203.44H217.71C217.817 203.534 217.934 203.614 218.06 203.68Z" fill="#BB883F"/>
<path d="M224.4 192.08C224.46 192.54 224.52 193 224.59 193.44C224.66 193.88 224.74 194.33 224.8 194.78L225.54 194.62C225.9 194.54 226.29 194.44 226.7 194.33C226.7 194.33 226.7 194.44 226.7 194.53V194.71V194.91C226.712 194.972 226.733 195.033 226.76 195.09L226.27 195.16L225.72 195.26L224.84 195.44C224.84 195.49 224.84 195.69 224.92 196.03C225 196.37 225.03 196.77 225.11 197.24C225.19 197.71 225.29 198.19 225.39 198.69C225.49 199.19 225.57 199.69 225.65 200.05C225.73 200.41 225.8 200.72 225.89 201.05C225.962 201.343 226.08 201.624 226.24 201.88C226.377 202.106 226.57 202.292 226.8 202.42C227.077 202.544 227.389 202.566 227.68 202.48L228.06 202.36C228.199 202.317 228.333 202.26 228.46 202.19L228.55 202.62L227.9 202.89C227.682 202.998 227.45 203.075 227.21 203.12C226.913 203.21 226.601 203.238 226.293 203.202C225.985 203.166 225.688 203.066 225.42 202.91C224.937 202.536 224.62 201.986 224.54 201.38C224.47 201.05 224.41 200.7 224.34 200.32C224.27 199.94 224.2 199.52 224.13 199.07C224.06 198.62 223.97 198.07 223.87 197.56C223.77 197.05 223.65 196.4 223.51 195.73L222.93 195.85L222.62 195.92L222.29 196.02C222.29 195.94 222.29 195.87 222.29 195.8C222.29 195.73 222.29 195.67 222.29 195.59C222.29 195.51 222.29 195.48 222.24 195.42L222.18 195.24C222.73 195.17 223.18 195.1 223.38 195.05C223.32 194.82 223.25 194.52 223.17 194.16C223.09 193.8 222.99 193.43 222.89 193.05L224.26 192.11L224.4 192.08Z" fill="#BB883F"/>
<path d="M228.8 195.34C228.708 194.778 228.588 194.22 228.44 193.67C228.719 193.697 229.001 193.697 229.28 193.67L229.6 193.6L229.99 193.48C229.99 193.97 230.07 194.48 230.14 194.94C230.325 194.406 230.656 193.935 231.097 193.581C231.537 193.227 232.069 193.005 232.63 192.94C232.932 192.895 233.238 192.895 233.54 192.94C233.834 192.987 234.12 193.075 234.39 193.2C234.644 193.331 234.876 193.499 235.08 193.7C235.27 193.891 235.42 194.119 235.52 194.37C235.705 193.785 236.051 193.265 236.52 192.87C237.003 192.483 237.585 192.237 238.2 192.16C238.578 192.1 238.962 192.1 239.34 192.16C239.691 192.218 240.023 192.357 240.311 192.565C240.599 192.773 240.835 193.045 241 193.36C241.206 193.76 241.339 194.193 241.39 194.64C241.39 194.85 241.44 195.07 241.47 195.32C241.5 195.57 241.47 195.85 241.55 196.17C241.63 196.49 241.62 196.86 241.66 197.27C241.7 197.68 241.77 198.15 241.84 198.69C241.89 199.01 241.94 199.33 241.98 199.63C242.02 199.93 242.09 200.26 242.16 200.63C242.027 200.615 241.893 200.615 241.76 200.63H241.37L240.98 200.69C240.844 200.709 240.711 200.739 240.58 200.78C240.58 200.47 240.52 199.85 240.44 198.92C240.36 197.99 240.2 196.7 239.97 195.05C239.931 194.762 239.857 194.48 239.75 194.21C239.66 193.967 239.521 193.746 239.34 193.56C239.157 193.381 238.934 193.247 238.69 193.17C238.38 193.103 238.06 193.103 237.75 193.17C237.361 193.212 236.989 193.353 236.67 193.58C236.414 193.765 236.202 194.004 236.05 194.28C235.975 194.417 235.915 194.561 235.87 194.71C235.845 194.919 235.845 195.131 235.87 195.34C235.87 195.62 235.87 196 235.97 196.5C236.07 197 236.11 197.67 236.23 198.5C236.3 199.03 236.38 199.5 236.46 199.93C236.54 200.36 236.62 200.83 236.72 201.33C236.44 201.33 236.16 201.33 235.91 201.41C235.643 201.442 235.379 201.492 235.12 201.56C235.12 200.88 235.03 200.19 234.96 199.5C234.89 198.81 234.8 198.12 234.71 197.45C234.62 196.78 234.57 196.45 234.52 196.11C234.48 195.854 234.427 195.6 234.36 195.35C234.322 195.195 234.269 195.044 234.2 194.9C234.136 194.769 234.059 194.645 233.97 194.53C233.786 194.297 233.54 194.12 233.26 194.02C232.971 193.893 232.652 193.851 232.34 193.9C232.001 193.912 231.671 194.011 231.381 194.186C231.09 194.36 230.849 194.606 230.68 194.9C230.36 195.618 230.269 196.418 230.42 197.19L230.64 198.74C230.71 199.29 230.8 199.86 230.9 200.46C230.989 201.002 231.105 201.54 231.25 202.07C230.96 202.07 230.69 202.07 230.42 202.15L229.61 202.3C229.61 201.8 229.61 201.3 229.5 200.65C229.39 200 229.36 199.47 229.29 198.93L229.03 197.03C229 196.51 228.9 195.94 228.8 195.34Z" fill="#BB883F"/>
<path d="M243.74 196.45C243.607 195.179 243.934 193.902 244.66 192.85C245.026 192.391 245.494 192.022 246.027 191.774C246.559 191.526 247.142 191.405 247.73 191.42C248.306 191.374 248.885 191.449 249.43 191.64C249.883 191.805 250.298 192.06 250.65 192.39C250.984 192.718 251.243 193.113 251.41 193.55C251.589 194.01 251.69 194.497 251.71 194.99C251.71 195.11 251.71 195.23 251.71 195.35V195.71L249.71 195.76L247.71 195.83L246.5 195.91L245.3 196C245.29 196.093 245.29 196.187 245.3 196.28V196.52C245.315 196.975 245.406 197.425 245.57 197.85C245.723 198.225 245.951 198.565 246.24 198.85C246.522 199.141 246.863 199.37 247.24 199.52C247.681 199.683 248.151 199.751 248.62 199.72C248.874 199.704 249.125 199.661 249.37 199.59C249.622 199.504 249.866 199.397 250.1 199.27C250.343 199.151 250.571 199.003 250.78 198.83C250.974 198.668 251.151 198.487 251.31 198.29L251.41 198.34L251.34 199.24C250.941 199.585 250.488 199.862 250 200.06C249.469 200.295 248.899 200.427 248.32 200.45C247.702 200.487 247.082 200.412 246.49 200.23C245.953 200.063 245.456 199.787 245.03 199.42C244.611 199.047 244.272 198.595 244.03 198.09C243.836 197.565 243.738 197.01 243.74 196.45ZM247.74 192C247.334 192.006 246.94 192.135 246.61 192.37C246.306 192.586 246.053 192.866 245.87 193.19C245.676 193.515 245.538 193.87 245.46 194.24C245.372 194.587 245.325 194.942 245.32 195.3H246.5C246.91 195.3 247.31 195.3 247.71 195.3C248.11 195.3 248.52 195.3 248.94 195.23L250.15 195.14C250.134 194.787 250.09 194.436 250.02 194.09C249.949 193.738 249.821 193.4 249.64 193.09C249.462 192.784 249.215 192.524 248.92 192.33C248.585 192.109 248.191 191.994 247.79 192H247.74Z" fill="#BB883F"/>
<path d="M259.38 193.06C259.218 192.826 259.001 192.635 258.748 192.504C258.496 192.374 258.215 192.307 257.93 192.31C257.576 192.271 257.217 192.318 256.885 192.446C256.552 192.575 256.256 192.782 256.02 193.05C255.568 193.693 255.337 194.465 255.36 195.25L255.31 196.82C255.31 197.37 255.31 197.95 255.31 198.56C255.31 199.17 255.31 199.71 255.38 200.21C255.108 200.17 254.834 200.15 254.56 200.15C254.284 200.135 254.006 200.135 253.73 200.15C253.8 199.66 253.86 199.15 253.9 198.51C253.94 197.87 253.96 197.32 253.97 196.77L254.03 194.85C254.03 194.3 254.03 193.72 254.03 193.12C254.03 192.52 254.03 191.94 253.96 191.41C254.233 191.473 254.51 191.51 254.79 191.52C254.896 191.53 255.004 191.53 255.11 191.52L255.52 191.46C255.47 191.96 255.44 192.46 255.43 192.94C255.757 192.452 256.192 192.045 256.7 191.75C257.226 191.464 257.822 191.333 258.42 191.37C258.76 191.385 259.096 191.445 259.42 191.55C259.766 191.655 260.083 191.836 260.35 192.08C260.649 192.354 260.876 192.697 261.01 193.08C261.19 193.586 261.269 194.123 261.24 194.66C261.24 195.19 261.19 195.73 261.15 196.29C261.11 196.85 261.08 197.44 261.06 198.07V199.26C261.06 199.45 261.06 199.65 261.06 199.84C261.06 200.03 261.06 200.21 261.06 200.38C260.82 200.38 260.56 200.33 260.29 200.32C260.02 200.31 259.78 200.32 259.54 200.32C259.54 199.68 259.63 199.02 259.68 198.32C259.73 197.62 259.76 196.96 259.78 196.24V195.12C259.867 194.408 259.727 193.688 259.38 193.06Z" fill="#BB883F"/>
<path d="M266.36 189.57C266.28 190.03 266.22 190.48 266.16 190.93C266.1 191.38 266.05 191.82 265.98 192.27L266.73 192.32C267.11 192.32 267.5 192.37 267.93 192.38C267.926 192.447 267.926 192.513 267.93 192.58V192.76V192.96C267.92 193.023 267.92 193.087 267.93 193.15L267.43 193.08L266.89 193.02L265.99 192.95C265.94 193.14 265.907 193.334 265.89 193.53C265.84 193.87 265.79 194.27 265.74 194.75C265.69 195.23 265.64 195.75 265.59 196.22C265.54 196.69 265.5 197.22 265.46 197.6C265.42 197.98 265.46 198.27 265.46 198.6C265.442 198.903 265.473 199.207 265.55 199.5C265.621 199.753 265.755 199.984 265.94 200.17C266.171 200.362 266.46 200.472 266.76 200.48H267.16C267.308 200.473 267.456 200.453 267.6 200.42V200.86L266.9 200.94C266.658 200.965 266.413 200.965 266.17 200.94C265.86 200.941 265.552 200.878 265.267 200.756C264.981 200.634 264.724 200.455 264.51 200.23C264.154 199.732 264.01 199.114 264.11 198.51C264.11 198.18 264.17 197.83 264.22 197.44C264.27 197.05 264.31 196.64 264.37 196.18C264.43 195.72 264.48 195.18 264.54 194.66C264.6 194.14 264.66 193.49 264.72 192.8L264.13 192.75H263.47C263.474 192.683 263.474 192.617 263.47 192.55C263.476 192.477 263.476 192.403 263.47 192.33C263.47 192.27 263.47 192.21 263.47 192.15C263.47 192.09 263.47 192.03 263.47 191.97C264.01 192.05 264.42 192.1 264.67 192.12C264.67 191.88 264.67 191.57 264.72 191.2C264.77 190.83 264.72 190.46 264.77 190.06L266.35 189.55L266.36 189.57Z" fill="#BB883F"/>
<path d="M274.25 200C274.383 200.255 274.552 200.491 274.75 200.7C274.971 200.933 275.227 201.129 275.51 201.28C275.819 201.456 276.158 201.575 276.51 201.63C276.88 201.706 277.261 201.706 277.63 201.63C277.961 201.553 278.271 201.406 278.54 201.2C278.805 200.996 279.026 200.741 279.19 200.45C279.365 200.14 279.484 199.801 279.54 199.45C279.641 198.977 279.566 198.483 279.33 198.06C279.086 197.671 278.771 197.331 278.4 197.06C277.992 196.758 277.565 196.484 277.12 196.24C276.669 195.983 276.246 195.678 275.86 195.33C275.483 194.993 275.18 194.581 274.97 194.12C274.743 193.555 274.687 192.936 274.81 192.34C274.885 191.861 275.055 191.402 275.31 190.99C275.559 190.582 275.902 190.239 276.31 189.99C276.725 189.732 277.188 189.558 277.67 189.48C278.226 189.385 278.794 189.385 279.35 189.48C279.861 189.558 280.356 189.713 280.82 189.94C281.228 190.148 281.594 190.429 281.9 190.77C281.75 190.962 281.623 191.17 281.52 191.39C281.385 191.66 281.265 191.937 281.16 192.22H280.94C280.901 192.017 280.847 191.816 280.78 191.62C280.706 191.398 280.598 191.189 280.46 191C280.301 190.796 280.112 190.618 279.9 190.47C279.645 190.307 279.359 190.198 279.06 190.15C278.729 190.091 278.391 190.091 278.06 190.15C277.767 190.206 277.488 190.322 277.24 190.49C276.998 190.662 276.791 190.88 276.63 191.13C276.474 191.402 276.369 191.7 276.32 192.01C276.212 192.489 276.283 192.99 276.52 193.42C276.768 193.806 277.083 194.145 277.45 194.42C277.855 194.727 278.283 195.001 278.73 195.24C279.176 195.49 279.598 195.782 279.99 196.11C280.371 196.425 280.682 196.817 280.9 197.26C281.127 197.786 281.183 198.37 281.06 198.93C280.983 199.472 280.796 199.993 280.51 200.46C280.237 200.919 279.869 201.315 279.43 201.62C278.969 201.939 278.443 202.154 277.89 202.25C277.252 202.36 276.599 202.36 275.96 202.25C275.337 202.164 274.737 201.961 274.19 201.65C273.798 201.406 273.439 201.114 273.12 200.78C273.265 200.555 273.383 200.313 273.47 200.06C273.55 199.84 273.64 199.56 273.73 199.22H273.95C274.022 199.49 274.122 199.752 274.25 200Z" fill="#BB883F"/>
<path d="M286.33 192.53C286.2 192.98 286.08 193.42 285.98 193.85L285.65 195.17L286.39 195.31C286.75 195.37 287.15 195.44 287.58 195.49C287.547 195.552 287.527 195.62 287.52 195.69V195.87V196.07C287.52 196.15 287.52 196.21 287.52 196.25L287.04 196.13L286.5 196.01L285.62 195.83C285.551 196.019 285.497 196.213 285.46 196.41C285.37 196.74 285.28 197.14 285.17 197.6C285.06 198.06 284.96 198.54 284.86 199.04C284.76 199.54 284.65 200.04 284.58 200.4C284.51 200.76 284.45 201.06 284.4 201.4C284.36 201.699 284.36 202.001 284.4 202.3C284.439 202.56 284.546 202.805 284.71 203.01C284.914 203.232 285.191 203.374 285.49 203.41H285.89H286.33L286.24 203.84H285.54C285.295 203.851 285.05 203.831 284.81 203.78C284.503 203.746 284.206 203.65 283.938 203.497C283.67 203.344 283.435 203.137 283.25 202.89C282.949 202.355 282.87 201.723 283.03 201.13C283.09 200.81 283.17 200.46 283.26 200.08C283.35 199.7 283.45 199.29 283.55 198.85C283.65 198.41 283.78 197.91 283.9 197.36C284.02 196.81 284.15 196.2 284.28 195.53L283.7 195.41L283.4 195.36H283.05L283.11 195.16C283.136 195.093 283.153 195.022 283.16 194.95C283.17 194.89 283.17 194.83 283.16 194.77C283.165 194.707 283.165 194.643 283.16 194.58C283.7 194.73 284.09 194.82 284.34 194.87C284.34 194.63 284.43 194.33 284.5 193.97C284.57 193.61 284.62 193.23 284.67 192.84L286.3 192.51L286.33 192.53Z" fill="#BB883F"/>
<path d="M292.91 197.82C292.753 197.721 292.581 197.65 292.4 197.61C292.132 197.535 291.848 197.535 291.58 197.61C291.324 197.693 291.089 197.83 290.89 198.01C290.666 198.21 290.483 198.451 290.35 198.72C290.191 199.02 290.074 199.339 290 199.67L289.56 201.67C289.38 202.48 289.25 203.09 289.16 203.51C289.077 203.855 289.02 204.206 288.99 204.56C288.75 204.48 288.52 204.42 288.27 204.36C288.019 204.303 287.765 204.26 287.51 204.23C287.64 203.83 287.79 203.23 287.95 202.58C288.11 201.93 288.31 201.03 288.54 200.01L288.67 199.43C288.77 198.97 288.9 198.43 289.02 197.82C289.14 197.21 289.29 196.5 289.44 195.7C289.556 195.758 289.676 195.809 289.8 195.85C289.919 195.898 290.043 195.935 290.17 195.96C290.284 195.989 290.402 196.005 290.52 196.01H290.9C290.782 196.338 290.682 196.671 290.6 197.01C290.526 197.263 290.466 197.503 290.42 197.73C291.42 196.6 292.35 196.13 293.22 196.33C293.315 196.348 293.409 196.375 293.5 196.41C293.595 196.451 293.685 196.501 293.77 196.56C293.654 196.756 293.57 196.968 293.52 197.19C293.44 197.49 293.37 197.75 293.32 197.99L293.18 198.05C293.107 197.955 293.015 197.877 292.91 197.82Z" fill="#BB883F"/>
<path d="M295.26 198C295.794 197.754 296.365 197.599 296.95 197.54C297.437 197.508 297.926 197.552 298.4 197.67C298.803 197.76 299.186 197.923 299.53 198.15C299.841 198.345 300.107 198.604 300.31 198.91C300.506 199.213 300.636 199.554 300.69 199.91C300.753 200.289 300.736 200.678 300.64 201.05C300.47 201.73 300.3 202.4 300.11 203.05C299.92 203.7 299.73 204.42 299.55 205.17C299.55 205.32 299.48 205.47 299.44 205.63C299.416 205.779 299.416 205.931 299.44 206.08C299.456 206.211 299.5 206.338 299.57 206.45C299.664 206.565 299.795 206.642 299.94 206.67H300.12C300.19 206.68 300.26 206.68 300.33 206.67L300.23 207.06C300.058 207.086 299.882 207.086 299.71 207.06C299.484 207.049 299.26 207.016 299.04 206.96C298.883 206.941 298.732 206.89 298.595 206.81C298.459 206.73 298.34 206.623 298.247 206.496C298.153 206.368 298.086 206.223 298.051 206.069C298.015 205.915 298.012 205.756 298.04 205.6C297.574 205.893 297.065 206.109 296.53 206.24C295.997 206.331 295.451 206.303 294.93 206.16C294.632 206.087 294.346 205.972 294.08 205.82C293.824 205.666 293.603 205.46 293.43 205.215C293.258 204.971 293.139 204.693 293.08 204.4C292.995 204.072 292.995 203.728 293.08 203.4C293.14 203.088 293.268 202.792 293.454 202.535C293.641 202.277 293.882 202.064 294.16 201.91C294.783 201.615 295.475 201.497 296.16 201.57C296.83 201.63 297.35 201.66 297.74 201.67C298.028 201.684 298.316 201.668 298.6 201.62C298.752 201.601 298.891 201.526 298.99 201.41C299.059 201.273 299.113 201.129 299.15 200.98C299.218 200.688 299.251 200.39 299.25 200.09C299.248 199.818 299.19 199.549 299.08 199.3C298.975 199.05 298.811 198.83 298.6 198.66C298.347 198.454 298.049 198.31 297.73 198.24C297.267 198.125 296.783 198.125 296.32 198.24C295.879 198.337 295.48 198.572 295.18 198.91L294.98 198.86L295.26 198ZM298.9 202.27C298.651 202.29 298.4 202.29 298.15 202.27L297.29 202.22C297.004 202.205 296.717 202.205 296.43 202.22C296.157 202.236 295.888 202.289 295.63 202.38C295.395 202.474 295.181 202.613 295 202.79C294.808 203.014 294.674 203.282 294.61 203.57C294.537 203.8 294.515 204.044 294.544 204.283C294.574 204.523 294.654 204.754 294.78 204.96C295.01 205.313 295.369 205.56 295.78 205.65C296.22 205.762 296.684 205.738 297.11 205.58C297.514 205.442 297.883 205.217 298.19 204.92L298.9 202.27Z" fill="#BB883F"/>
<path d="M306.33 197.21C306.18 197.66 306.06 198.1 305.93 198.53C305.8 198.96 305.69 199.39 305.56 199.83L306.3 199.99C306.65 200.07 307.05 200.15 307.47 200.22C307.442 200.284 307.421 200.351 307.41 200.42V200.6L307.36 200.79C307.354 200.853 307.354 200.917 307.36 200.98L306.89 200.83L306.35 200.7L305.47 200.49C305.47 200.54 305.39 200.73 305.29 201.05C305.19 201.37 305.09 201.78 304.97 202.24C304.85 202.7 304.73 203.17 304.6 203.67C304.47 204.17 304.37 204.62 304.27 205.01C304.17 205.4 304.13 205.68 304.07 206.01C304.026 206.312 304.026 206.618 304.07 206.92C304.1 207.182 304.2 207.431 304.36 207.64C304.558 207.87 304.831 208.022 305.13 208.07C305.259 208.097 305.389 208.114 305.52 208.12C305.666 208.135 305.814 208.135 305.96 208.12L305.86 208.56C305.65 208.56 305.41 208.56 305.16 208.56C304.914 208.557 304.669 208.526 304.43 208.47C304.123 208.428 303.828 208.322 303.564 208.158C303.3 207.994 303.074 207.777 302.9 207.52C302.757 207.254 302.67 206.962 302.642 206.661C302.615 206.361 302.648 206.057 302.74 205.77L303.01 204.72L303.34 203.5C303.47 203.06 303.6 202.56 303.74 202.02C303.88 201.48 304.03 200.88 304.19 200.21L303.62 200.07L303.31 200.01L302.96 199.96C302.96 199.89 303.02 199.82 303.04 199.76C303.061 199.691 303.078 199.621 303.09 199.55C303.095 199.49 303.095 199.43 303.09 199.37C303.09 199.31 303.09 199.25 303.09 199.19C303.62 199.35 304 199.46 304.25 199.52C304.3 199.28 304.36 198.97 304.44 198.62C304.52 198.27 304.59 197.88 304.66 197.49L306.29 197.22L306.33 197.21Z" fill="#BB883F"/>
<path d="M307.5 204.83C307.694 203.57 308.332 202.421 309.3 201.59C309.774 201.242 310.322 201.007 310.9 200.903C311.479 200.799 312.074 200.829 312.64 200.99C313.207 201.09 313.746 201.312 314.22 201.64C314.615 201.905 314.955 202.245 315.22 202.64C315.453 203.043 315.603 203.488 315.66 203.95C315.707 204.441 315.68 204.937 315.58 205.42L315.49 205.77C315.49 205.88 315.42 206 315.39 206.12L313.47 205.66L311.55 205.23L310.37 205L309.18 204.78C309.147 204.864 309.124 204.951 309.11 205.04L309.05 205.28C308.952 205.723 308.929 206.179 308.98 206.63C309.019 207.046 309.149 207.449 309.36 207.81C309.564 208.169 309.839 208.482 310.17 208.73C310.555 208.998 310.99 209.185 311.45 209.28C311.7 209.333 311.955 209.349 312.21 209.33C312.476 209.323 312.741 209.286 313 209.22C313.265 209.164 313.523 209.08 313.77 208.97C314.001 208.86 314.222 208.73 314.43 208.58L314.5 208.65L314.2 209.51C313.726 209.737 313.22 209.888 312.7 209.96C312.14 210.074 311.564 210.088 311 210C310.398 209.874 309.822 209.644 309.3 209.32C308.819 209.027 308.409 208.631 308.1 208.16C307.788 207.696 307.58 207.171 307.49 206.62C307.372 206.029 307.375 205.42 307.5 204.83ZM312.56 201.57C312.162 201.477 311.746 201.498 311.36 201.63C311.014 201.768 310.701 201.975 310.44 202.24C310.173 202.503 309.95 202.807 309.78 203.14C309.606 203.457 309.468 203.792 309.37 204.14L310.52 204.43L311.69 204.7C312.09 204.78 312.49 204.87 312.9 204.94L314.1 205.16C314.168 204.83 314.214 204.496 314.24 204.16C314.264 203.796 314.227 203.431 314.13 203.08C314.041 202.735 313.865 202.418 313.62 202.16C313.34 201.854 312.968 201.647 312.56 201.57Z" fill="#BB883F"/>
<path d="M317.13 205C317.197 204.544 317.368 204.109 317.63 203.73C317.861 203.393 318.174 203.121 318.54 202.94C318.91 202.745 319.314 202.622 319.73 202.58C320.184 202.516 320.645 202.516 321.1 202.58L321.76 202.71L322.55 202.9L323.29 203.08L323.81 203.19C324.301 203.283 324.8 203.333 325.3 203.34C325.271 203.4 325.251 203.464 325.24 203.53C325.236 203.593 325.236 203.657 325.24 203.72C325.235 203.783 325.235 203.847 325.24 203.91C325.235 203.977 325.235 204.043 325.24 204.11L324.24 203.85C323.91 203.76 323.58 203.69 323.24 203.62C323.593 203.909 323.853 204.295 323.99 204.73C324.138 205.178 324.18 205.654 324.11 206.12C324.064 206.529 323.924 206.922 323.702 207.269C323.481 207.616 323.182 207.907 322.83 208.12C322.037 208.544 321.118 208.672 320.24 208.48L319.75 208.37L319.25 208.27C319.024 208.241 318.794 208.291 318.6 208.41C318.498 208.466 318.411 208.545 318.345 208.64C318.279 208.736 318.236 208.845 318.22 208.96C318.188 209.081 318.181 209.208 318.2 209.332C318.219 209.455 318.263 209.574 318.33 209.68C318.542 209.906 318.831 210.045 319.14 210.07L320.14 210.26L321.14 210.45C321.62 210.538 322.087 210.686 322.53 210.89C322.865 211.047 323.165 211.272 323.41 211.55C323.617 211.773 323.765 212.045 323.84 212.34C323.9 212.637 323.9 212.943 323.84 213.24C323.758 213.681 323.599 214.104 323.37 214.49C323.121 214.912 322.779 215.271 322.37 215.54C321.926 215.855 321.422 216.076 320.89 216.19C320.229 216.319 319.55 216.319 318.89 216.19C317.906 216.076 316.979 215.668 316.23 215.02C315.944 214.761 315.73 214.432 315.609 214.066C315.488 213.7 315.464 213.308 315.54 212.93C315.588 212.633 315.694 212.348 315.85 212.09C316.01 211.855 316.202 211.643 316.42 211.46C316.629 211.29 316.866 211.158 317.12 211.07C317.366 210.99 317.621 210.94 317.88 210.92C317.559 210.782 317.292 210.544 317.12 210.24C316.958 209.933 316.909 209.58 316.98 209.24C317.015 209.045 317.086 208.859 317.19 208.69C317.298 208.54 317.426 208.406 317.57 208.29C317.712 208.182 317.871 208.097 318.04 208.04C318.197 207.982 318.363 207.952 318.53 207.95C318.043 207.653 317.651 207.222 317.4 206.71C317.13 206.183 317.036 205.584 317.13 205ZM322.27 213.85C322.349 213.567 322.356 213.268 322.29 212.981C322.224 212.695 322.086 212.429 321.89 212.21C321.311 211.766 320.617 211.495 319.89 211.43C319.168 211.269 318.416 211.3 317.71 211.52C317.425 211.653 317.182 211.861 317.005 212.122C316.829 212.383 316.727 212.686 316.71 213C316.633 213.359 316.633 213.731 316.71 214.09C316.793 214.389 316.947 214.664 317.16 214.89C317.379 215.123 317.645 215.307 317.94 215.43C318.26 215.573 318.595 215.677 318.94 215.74C319.301 215.79 319.668 215.79 320.03 215.74C320.377 215.706 320.715 215.611 321.03 215.46C321.335 215.312 321.604 215.101 321.82 214.84C322.048 214.563 322.202 214.233 322.27 213.88V213.85ZM322.61 205.85C322.759 205.227 322.67 204.571 322.36 204.01C322.211 203.781 322.014 203.587 321.782 203.442C321.551 203.297 321.291 203.204 321.02 203.17C320.736 203.108 320.441 203.112 320.159 203.181C319.876 203.251 319.613 203.384 319.39 203.57C318.92 204.017 318.623 204.616 318.55 205.26C318.407 205.894 318.473 206.557 318.74 207.15C318.889 207.407 319.098 207.624 319.349 207.784C319.599 207.944 319.884 208.042 320.18 208.07C320.493 208.133 320.817 208.112 321.12 208.01C321.389 207.914 321.632 207.756 321.83 207.55C322.038 207.33 322.207 207.077 322.33 206.8C322.464 206.5 322.558 206.184 322.61 205.86V205.85Z" fill="#BB883F"/>
<path d="M329.32 212.79C329.21 212.45 329.07 212.01 328.89 211.47C328.71 210.93 328.53 210.36 328.33 209.75L327.71 207.92C327.5 207.29 327.3 206.71 327.11 206.16C326.92 205.61 326.76 205.16 326.62 204.71C326.48 204.26 326.37 203.98 326.3 203.78L326.74 203.88C326.87 203.88 327 203.88 327.14 203.94H327.54H327.99C328.28 205.14 328.62 206.34 328.99 207.52C329.36 208.7 329.76 209.93 330.19 211.19C330.78 210.19 331.36 209.04 331.92 207.85C332.48 206.66 332.99 205.49 333.45 204.35C333.645 204.416 333.846 204.463 334.05 204.49C334.253 204.511 334.457 204.511 334.66 204.49C334.56 204.65 334.41 204.93 334.18 205.33C333.95 205.73 333.7 206.2 333.39 206.74C333.08 207.28 332.75 207.9 332.39 208.57C332.03 209.24 331.65 209.93 331.27 210.63L330.15 212.72C329.78 213.42 329.43 214.07 329.15 214.72C328.87 215.37 328.55 215.9 328.31 216.41C328.07 216.92 327.89 217.31 327.76 217.61C327.563 217.538 327.358 217.491 327.15 217.47C326.939 217.459 326.727 217.476 326.52 217.52C327.568 216.014 328.504 214.434 329.32 212.79Z" fill="#BB883F"/>
<path d="M240.63 76.11C239.52 75.2193 238.312 74.4577 237.03 73.84C235.622 73.1604 234.147 72.6276 232.63 72.25C230.946 71.8323 229.215 71.6274 227.48 71.64C224.648 71.6122 221.833 72.0757 219.16 73.01C216.637 73.8894 214.347 75.3288 212.46 77.22C210.465 79.2706 208.939 81.7308 207.99 84.43C205.893 90.8677 205.83 97.7952 207.81 104.27C208.672 106.941 210.113 109.39 212.03 111.44C213.923 113.441 216.235 114.998 218.8 116C221.674 117.086 224.727 117.622 227.8 117.58C228.8 117.58 229.87 117.53 230.97 117.44C232.047 117.347 233.118 117.2 234.18 117C235.155 116.824 236.117 116.583 237.06 116.28C237.854 116.038 238.616 115.702 239.33 115.28C239.33 113.84 239.41 112.39 239.44 110.95C239.47 109.51 239.44 108.05 239.44 106.56C239.44 104.88 239.44 103.2 239.33 101.56C239.22 99.92 239.18 98.27 239.08 96.73C240.219 96.9634 241.378 97.0839 242.54 97.09C243.07 97.09 243.6 97.09 244.13 97.02C244.641 96.9707 245.147 96.8736 245.64 96.73C245.54 97.83 245.47 99.57 245.42 101.95C245.37 104.33 245.35 107.46 245.35 111.35C245.35 112.35 245.35 113.29 245.35 114.27C245.35 115.25 245.35 116.27 245.35 117.19C244.35 117.57 243.08 117.97 241.57 118.38C239.979 118.8 238.367 119.134 236.74 119.38C235.04 119.64 233.33 119.88 231.63 120.1C230.088 120.3 228.535 120.407 226.98 120.42C223.072 120.469 219.177 119.947 215.42 118.87C212.222 117.903 209.279 116.24 206.8 114C204.354 111.775 202.457 109.013 201.26 105.93C199.897 102.367 199.235 98.5741 199.31 94.76C199.236 91.0258 199.917 87.3152 201.31 83.85C202.581 80.7576 204.525 77.9872 207 75.74C209.586 73.4718 212.617 71.7687 215.9 70.74C219.642 69.5434 223.552 68.9559 227.48 69C229.66 68.9863 231.838 69.1199 234 69.4C235.689 69.6095 237.36 69.9438 239 70.4C240.312 70.7815 241.601 71.2389 242.86 71.77C243.96 72.25 244.95 72.71 245.81 73.14C245.382 73.9635 245.046 74.8322 244.81 75.73C244.509 76.7076 244.304 77.7124 244.2 78.73H243.33C242.523 77.7657 241.618 76.8877 240.63 76.11Z" fill="#BB883F"/>
<path d="M257.92 79.24C257.8 76.1867 257.667 73.0767 257.52 69.91C258.15 70.01 258.75 70.09 259.33 70.16C260.475 70.3067 261.635 70.3067 262.78 70.16C263.36 70.09 263.96 70.01 264.59 69.91C264.443 73.0834 264.31 76.1934 264.19 79.24C264.07 82.2867 264.01 85.3967 264.01 88.57V101C264.01 104.167 264.07 107.29 264.19 110.37C264.31 113.44 264.44 116.47 264.59 119.44C263.48 119.35 262.3 119.3 261.05 119.3C259.8 119.3 258.63 119.35 257.52 119.44C257.67 116.44 257.8 113.44 257.92 110.37C258.04 107.3 258.1 104.17 258.1 101V88.57C258.1 85.4034 258.04 82.2934 257.92 79.24Z" fill="#BB883F"/>
<path d="M278.09 112.67C278.764 113.584 279.565 114.395 280.47 115.08C282.612 116.71 285.239 117.573 287.93 117.53C289.399 117.555 290.857 117.273 292.21 116.7C293.435 116.188 294.542 115.429 295.46 114.47C296.355 113.513 297.052 112.388 297.51 111.16C297.996 109.855 298.24 108.472 298.23 107.08C298.334 105.181 297.732 103.311 296.54 101.83C295.353 100.488 293.921 99.3853 292.32 98.58C290.556 97.6823 288.739 96.8909 286.88 96.21C284.974 95.5054 283.151 94.5968 281.44 93.5C279.767 92.4247 278.333 91.0152 277.23 89.36C276.009 87.3205 275.421 84.9642 275.54 82.5899C275.514 80.6983 275.882 78.8219 276.62 77.08C277.33 75.4341 278.4 73.9682 279.75 72.7899C281.201 71.5448 282.878 70.5908 284.69 69.9799C286.779 69.2848 288.969 68.9467 291.17 68.9799C293.201 68.9386 295.226 69.2187 297.17 69.8099C298.872 70.3748 300.457 71.242 301.85 72.3699C301.415 73.2 301.054 74.0667 300.77 74.96C300.48 75.88 300.2 77.0299 299.91 78.4199H299C298.715 77.6658 298.381 76.9309 298 76.22C297.572 75.4032 297.011 74.6631 296.34 74.0299C295.614 73.3294 294.776 72.7549 293.86 72.33C292.771 71.8526 291.589 71.6204 290.4 71.6499C289.134 71.6323 287.875 71.8528 286.69 72.3C285.58 72.7069 284.56 73.3288 283.69 74.13C282.851 74.9335 282.19 75.9045 281.75 76.9799C281.287 78.123 281.056 79.3467 281.07 80.58C280.957 82.5042 281.559 84.4023 282.76 85.91C283.948 87.2549 285.376 88.3671 286.97 89.19C288.726 90.1098 290.543 90.9051 292.41 91.57C294.303 92.2423 296.125 93.0998 297.85 94.13C299.512 95.1187 300.95 96.4436 302.07 98.02C303.284 99.9042 303.875 102.122 303.76 104.36C303.771 106.507 303.367 108.636 302.57 110.63C301.797 112.574 300.618 114.33 299.11 115.78C297.522 117.29 295.63 118.442 293.56 119.16C291.166 119.991 288.644 120.394 286.11 120.35C283.642 120.442 281.18 120.037 278.87 119.16C277.204 118.477 275.639 117.569 274.22 116.46C274.611 115.489 274.912 114.485 275.12 113.46C275.484 112.291 275.928 111.148 276.45 110.04C276.908 110.969 277.457 111.85 278.09 112.67Z" fill="#BB883F"/>
<path d="M227.42 153.13C227.071 153.298 226.706 153.429 226.33 153.52C225.91 153.64 225.43 153.74 224.91 153.84C224.365 153.93 223.813 153.973 223.26 153.97C222.112 153.982 220.971 153.807 219.88 153.45C218.883 153.13 217.971 152.59 217.21 151.87C216.442 151.137 215.842 150.246 215.45 149.26C214.599 147.004 214.599 144.516 215.45 142.26C215.846 141.27 216.453 140.38 217.23 139.65C218.027 138.912 218.971 138.35 220 138C221.134 137.618 222.324 137.428 223.52 137.44C224.462 137.435 225.402 137.539 226.32 137.75C227.085 137.933 227.832 138.188 228.55 138.51C228.408 138.787 228.307 139.084 228.25 139.39C228.17 139.76 228.11 140.07 228.06 140.31H227.92C227.724 140.083 227.51 139.872 227.28 139.68C226.964 139.432 226.63 139.208 226.28 139.01C225.883 138.787 225.464 138.606 225.03 138.47C224.535 138.316 224.018 138.242 223.5 138.25C222.637 138.244 221.78 138.393 220.97 138.69C220.209 138.982 219.525 139.444 218.97 140.04C218.358 140.707 217.898 141.498 217.62 142.36C217.271 143.431 217.105 144.554 217.13 145.68C217.105 146.81 217.271 147.935 217.62 149.01C217.898 149.868 218.358 150.656 218.97 151.32C219.527 151.916 220.211 152.381 220.97 152.68C221.78 152.977 222.637 153.126 223.5 153.12C224.003 153.149 224.508 153.109 225 153C225.443 152.869 225.874 152.702 226.29 152.5C226.661 152.32 227.019 152.113 227.36 151.88L228.16 151.28L228.25 151.38L228.04 152.74C227.85 152.895 227.642 153.026 227.42 153.13Z" fill="#BB883F"/>
<path d="M243.3 153.67C243.093 153.656 242.886 153.656 242.68 153.67H241.45C241.247 153.656 241.043 153.656 240.84 153.67C240.73 153.32 240.59 152.89 240.4 152.39C240.21 151.89 240.01 151.39 239.79 150.81C239.57 150.23 239.34 149.71 239.1 149.15L238.46 147.54H236.95H234H232.59C232.09 148.74 231.64 149.89 231.24 150.98C230.84 152.07 230.54 152.98 230.34 153.67C230.053 153.654 229.766 153.654 229.48 153.67C229.197 153.654 228.913 153.654 228.63 153.67C229.88 150.97 231.1 148.29 232.29 145.61C233.48 142.93 234.67 140.23 235.88 137.46H236.31C236.69 138.36 237.09 139.33 237.52 140.37C237.95 141.41 238.39 142.46 238.84 143.53C239.29 144.6 239.73 145.65 240.18 146.7L241.44 149.63C241.84 150.53 242.19 151.34 242.51 152.05C242.83 152.76 243.09 153.3 243.3 153.67ZM233 146.47H234.25H235.5H236.79H238.09L235.52 140.59L233 146.47Z" fill="#BB883F"/>
<path d="M246 143.76C246 142.74 245.98 141.74 245.94 140.76C245.94 139.76 245.86 138.76 245.81 137.76C246.18 137.76 246.56 137.82 246.94 137.85C247.32 137.88 247.69 137.85 248.06 137.85H248.73H249.53H250.31H250.93H251.79C252.15 137.864 252.508 137.911 252.86 137.99C253.247 138.065 253.626 138.179 253.99 138.33C254.362 138.49 254.7 138.717 254.99 139C255.31 139.313 255.559 139.692 255.72 140.11C255.924 140.629 256.019 141.183 256 141.74C256.041 142.612 255.81 143.475 255.34 144.21C254.923 144.826 254.368 145.336 253.72 145.7C253.097 146.046 252.421 146.286 251.72 146.41C251.09 146.53 250.451 146.594 249.81 146.6H248.81L247.91 146.54V147.81C247.91 148.81 247.91 149.81 247.91 150.81C247.91 151.81 248 152.81 248.04 153.73C247.69 153.73 247.31 153.73 246.91 153.73C246.51 153.73 246.13 153.73 245.77 153.73C245.77 152.78 245.86 151.8 245.9 150.81C245.94 149.82 245.96 148.81 245.96 147.81L246 143.76ZM247.9 145.5C248.438 145.622 248.988 145.682 249.54 145.68C250.038 145.679 250.534 145.626 251.02 145.52C251.521 145.418 251.997 145.217 252.42 144.93C252.864 144.631 253.225 144.225 253.47 143.75C253.76 143.149 253.897 142.486 253.87 141.82C253.891 141.263 253.796 140.708 253.59 140.19C253.433 139.791 253.166 139.444 252.82 139.19C252.453 138.946 252.036 138.785 251.6 138.72C251.065 138.627 250.523 138.584 249.98 138.59H247.9V145.5Z" fill="#BB883F"/>
<path d="M258.77 140.76C258.77 139.76 258.69 138.76 258.65 137.76L259.23 137.85C259.413 137.86 259.597 137.86 259.78 137.85C259.966 137.86 260.153 137.86 260.34 137.85L260.92 137.76C260.87 138.76 260.83 139.76 260.79 140.76C260.75 141.76 260.73 142.76 260.73 143.76V147.76C260.73 148.76 260.73 149.76 260.79 150.76C260.85 151.76 260.87 152.76 260.92 153.68C260.56 153.68 260.18 153.68 259.78 153.68C259.38 153.68 259 153.68 258.65 153.68C258.65 152.73 258.74 151.75 258.77 150.76C258.8 149.77 258.83 148.76 258.83 147.76V143.76C258.83 142.74 258.81 141.74 258.77 140.76Z" fill="#BB883F"/>
<path d="M268.42 139H267.16C266.72 139 266.28 139 265.84 139.05L264.56 139.13C264.15 139.13 263.79 139.2 263.46 139.24C263.534 139 263.575 138.751 263.58 138.5C263.568 138.256 263.528 138.014 263.46 137.78L266.46 137.87C267.46 137.87 268.46 137.87 269.46 137.87C270.46 137.87 271.46 137.87 272.46 137.87L275.46 137.78C275.398 138.022 275.361 138.27 275.35 138.52C275.357 138.764 275.394 139.005 275.46 139.24C275.14 139.24 274.77 139.16 274.36 139.13L273 139C272.56 139 272.12 139 271.68 138.95H270.42C270.42 140.54 270.35 142.14 270.35 143.74V147.74C270.35 148.74 270.35 149.74 270.41 150.74C270.47 151.74 270.49 152.74 270.53 153.66C270.18 153.66 269.8 153.66 269.4 153.66C269 153.66 268.62 153.66 268.26 153.66C268.31 152.71 268.35 151.73 268.39 150.74C268.43 149.75 268.45 148.74 268.45 147.74V143.74C268.49 142.16 268.47 140.56 268.42 139Z" fill="#BB883F"/>
<path d="M289.22 153.67C289.014 153.656 288.806 153.656 288.6 153.67H287.37C287.167 153.656 286.963 153.656 286.76 153.67C286.65 153.32 286.51 152.89 286.32 152.39C286.13 151.89 285.93 151.39 285.71 150.81C285.49 150.23 285.26 149.71 285.02 149.15L284.38 147.54H282.87H279.93H278.52C278.02 148.74 277.58 149.89 277.17 150.98C276.76 152.07 276.47 152.98 276.27 153.67C275.984 153.654 275.697 153.654 275.41 153.67C275.127 153.654 274.843 153.654 274.56 153.67C275.81 150.97 277.03 148.29 278.22 145.61C279.41 142.93 280.6 140.23 281.81 137.46H282.25L283.45 140.37C283.88 141.37 284.32 142.46 284.77 143.53C285.22 144.6 285.66 145.65 286.11 146.7L287.37 149.63C287.77 150.53 288.12 151.34 288.44 152.05C288.76 152.76 289 153.3 289.22 153.67ZM279 146.47H280.25H281.5H282.79H284.09L281.52 140.59L279 146.47Z" fill="#BB883F"/>
<path d="M291.82 140.76C291.82 139.76 291.74 138.76 291.69 137.76L292.27 137.85C292.456 137.86 292.643 137.86 292.83 137.85C293.013 137.86 293.197 137.86 293.38 137.85L293.96 137.76C293.96 138.76 293.87 139.76 293.84 140.76C293.81 141.76 293.78 142.76 293.78 143.76C293.78 145.71 293.78 147.39 293.78 148.82C293.78 150.25 293.78 151.53 293.83 152.65C294.917 152.65 295.967 152.65 296.98 152.65C298.064 152.623 299.146 152.533 300.22 152.38C300.148 152.607 300.108 152.842 300.1 153.08C300.107 153.292 300.147 153.501 300.22 153.7C299.51 153.7 298.8 153.7 298.09 153.7H293.82C293.13 153.7 292.41 153.7 291.67 153.7C291.72 152.75 291.76 151.77 291.8 150.78C291.84 149.79 291.86 148.78 291.86 147.78V143.78C291.873 142.747 291.86 141.74 291.82 140.76Z" fill="#BB883F"/>
</svg>
