<svg width="145" height="42" viewBox="0 0 145 42" fill="none" xmlns="http://www.w3.org/2000/svg">
<g clip-path="url(#clip0)">
<path fill-rule="evenodd" clip-rule="evenodd" d="M9.15332 10.6223C9.15332 10.256 9.4503 9.95898 9.81663 9.95898H18.8377C19.204 9.95898 19.501 10.256 19.501 10.6223C19.501 10.9886 19.204 11.2856 18.8377 11.2856H9.81663C9.4503 11.2856 9.15332 10.9886 9.15332 10.6223Z" fill="url(#paint0_linear)" stroke="url(#paint1_linear)" stroke-width="0.265325"/>
<path fill-rule="evenodd" clip-rule="evenodd" d="M9.15332 32.7766C9.15332 32.4103 9.4503 32.1133 9.81663 32.1133H18.8377C19.204 32.1133 19.501 32.4103 19.501 32.7766C19.501 33.1429 19.204 33.4399 18.8377 33.4399H9.81663C9.4503 33.4399 9.15332 33.1429 9.15332 32.7766Z" fill="url(#paint2_linear)" stroke="url(#paint3_linear)" stroke-width="0.265325"/>
<path fill-rule="evenodd" clip-rule="evenodd" d="M4.51074 16.1946C4.51074 15.8282 4.80772 15.5312 5.17405 15.5312H23.6141C23.9805 15.5312 24.2774 15.8282 24.2774 16.1946C24.2774 16.5609 23.9805 16.8579 23.6141 16.8579H5.17405C4.80772 16.8579 4.51074 16.5609 4.51074 16.1946Z" fill="url(#paint4_linear)" stroke="url(#paint5_linear)" stroke-width="0.265325"/>
<path fill-rule="evenodd" clip-rule="evenodd" d="M0 21.7668C0 21.4005 0.296975 21.1035 0.663312 21.1035H27.9918C28.3581 21.1035 28.6551 21.4005 28.6551 21.7668C28.6551 22.1332 28.3581 22.4301 27.9918 22.4301H0.663312C0.296975 22.4301 0 22.1332 0 21.7668Z" fill="url(#paint6_linear)" stroke="url(#paint7_linear)" stroke-width="0.265325"/>
<path fill-rule="evenodd" clip-rule="evenodd" d="M4.51074 27.2043C4.51074 26.838 4.78503 26.541 5.12338 26.541H12.7201C13.0585 26.541 13.3328 26.838 13.3328 27.2043C13.3328 27.5707 13.0585 27.8676 12.7201 27.8676H5.12338C4.78503 27.8676 4.51074 27.5707 4.51074 27.2043Z" fill="url(#paint8_linear)" stroke="url(#paint9_linear)" stroke-width="0.265325"/>
<path fill-rule="evenodd" clip-rule="evenodd" d="M15.5215 27.2043C15.5215 26.838 15.8301 26.541 16.2107 26.541H23.6543C24.035 26.541 24.3435 26.838 24.3435 27.2043C24.3435 27.5707 24.035 27.8676 23.6543 27.8676H16.2107C15.8301 27.8676 15.5215 27.5707 15.5215 27.2043Z" fill="url(#paint10_linear)" stroke="url(#paint11_linear)" stroke-width="0.265325"/>
<path d="M32.9294 28.2374C32.8663 28.4891 32.9083 28.6989 33.0344 28.8457C33.1605 28.9925 33.3496 29.0555 33.6018 29.0555H34.3162C34.5683 29.0555 34.7785 28.9925 34.9676 28.8457C35.1357 28.6989 35.2618 28.4891 35.3038 28.2374L36.6486 21.3786C37.6572 20.4557 38.5188 19.9943 39.2752 19.9943C39.7795 19.9943 40.1157 20.1621 40.2628 20.4767C40.4099 20.7913 40.4309 21.2737 40.3048 21.9449L39.0861 28.2374C39.0441 28.4891 39.0651 28.6779 39.1912 28.8247C39.3172 28.9925 39.5064 29.0555 39.7585 29.0555H40.4729C41.0193 29.0555 41.3555 28.7828 41.4605 28.2374L42.7633 21.6093C42.9735 20.4767 42.8474 19.5748 42.3851 18.9036C41.9018 18.2533 41.1243 17.9177 40.0317 17.9177C39.0651 17.9177 38.0775 18.3372 37.0689 19.1553L37.9514 14.6456C37.9934 14.4149 37.9514 14.2261 37.8253 14.0583C37.6993 13.9115 37.5312 13.8276 37.279 13.8276H36.5646C36.3124 13.8276 36.0813 13.9115 35.9132 14.0583C35.7241 14.2261 35.619 14.4149 35.577 14.6456L32.9294 28.2374Z" fill="white"/>
<path d="M47.8307 16.4914C48.2089 16.4914 48.5451 16.3656 48.7973 16.1139C49.0494 15.8622 49.1965 15.5266 49.1965 15.149C49.1965 14.7715 49.0494 14.4569 48.7973 14.2052C48.5451 13.9535 48.2089 13.8066 47.8307 13.8066C47.4315 13.8066 47.0952 13.9535 46.8431 14.2052C46.5699 14.4569 46.4439 14.7715 46.4439 15.149C46.4439 15.5266 46.5699 15.8622 46.8431 16.1139C47.0952 16.3656 47.4315 16.4914 47.8307 16.4914ZM44.1745 28.2374C44.1114 28.4891 44.1535 28.6779 44.2795 28.8247C44.4056 28.9925 44.5947 29.0555 44.8469 29.0555H45.5613C45.8135 29.0555 46.0236 28.9925 46.2127 28.8457C46.3808 28.6989 46.5069 28.5101 46.5489 28.2584L48.356 19.0084C48.398 18.7777 48.356 18.5889 48.2299 18.4211C48.1039 18.2743 47.9147 18.1904 47.6626 18.1904H46.9482C46.696 18.1904 46.4649 18.2743 46.2968 18.4211C46.1076 18.5889 46.0026 18.7777 45.9606 19.0084L44.1745 28.2374Z" fill="white"/>
<path d="M51.5349 28.1326C51.5559 28.4052 51.6399 28.636 51.808 28.8038C51.9761 28.9716 52.1863 29.0555 52.4384 29.0555H53.468C54.0144 29.0555 54.4136 28.8247 54.6658 28.3213L59.5617 19.0504C59.6878 18.8197 59.6878 18.6099 59.6038 18.4421C59.5197 18.2743 59.3516 18.1904 59.0995 18.1904H58.28C57.7546 18.1904 57.3974 18.4211 57.1873 18.8406L54.9179 23.2454C54.5397 23.9585 54.0144 25.1331 53.384 26.7692C53.3209 25.217 53.2579 24.0424 53.1949 23.2454L52.6695 18.9665C52.6275 18.4631 52.3123 18.1904 51.766 18.1904H50.9675C50.4422 18.1904 50.2111 18.4841 50.2531 19.0714L51.5349 28.1326Z" fill="white"/>
<path d="M64.2476 29.3281C65.1091 29.3281 66.1387 29.1603 67.3575 28.7828C67.8618 28.615 68.1139 28.2794 68.0719 27.8179L68.0509 27.3565C68.0089 26.8111 67.6937 26.6014 67.1474 26.7692C66.1387 27.1048 65.2772 27.2516 64.5838 27.2516C63.7853 27.2516 63.26 27.0209 62.9868 26.5594C62.7137 26.098 62.6506 25.4897 62.8187 24.7136L64.3947 24.6088C66.0757 24.5249 67.3575 24.1473 68.282 23.4971C69.1856 22.8469 69.6479 21.9869 69.6479 20.9172C69.6479 20.0782 69.3117 19.365 68.6603 18.7777C67.9879 18.2114 67.1263 17.9177 66.0757 17.9177C63.1759 17.9177 61.3898 19.5748 60.7385 22.8469L60.4443 24.399C60.1291 25.9721 60.3392 27.1887 61.0536 28.0487C61.7681 28.9086 62.8187 29.3281 64.2476 29.3281ZM63.1339 22.9937C63.5121 21.0011 64.4157 19.9943 65.8866 19.9943C66.3279 19.9943 66.6641 20.1201 66.9162 20.3299C67.1474 20.5396 67.2734 20.8333 67.2734 21.1898C67.2734 21.6932 67.0003 22.0708 66.4749 22.3644C65.9496 22.6581 65.2352 22.8469 64.3527 22.9098L63.1339 22.9937Z" fill="white"/>
<path d="M74.036 29.1333L75.9882 19.0079C76.0307 18.7819 76.1438 18.669 76.3277 18.669H76.4551C76.639 18.669 76.7168 18.7819 76.6885 19.0079L76.5399 20.2789C77.7707 19.022 79.0014 18.3936 80.2322 18.3936C81.7883 18.3936 82.7078 19.0291 82.9908 20.3C84.3488 19.0291 85.6432 18.3936 86.874 18.3936C87.9916 18.3936 88.7838 18.7254 89.2506 19.3892C89.7174 20.0388 89.8448 20.9073 89.6326 21.9947L88.2321 29.1333C88.1896 29.3451 88.0623 29.4511 87.8501 29.4511H87.5742C87.362 29.4511 87.2772 29.3381 87.3196 29.1121L88.6352 22.3548C88.8191 21.3521 88.7696 20.5895 88.4867 20.067C88.2179 19.5445 87.652 19.2833 86.7891 19.2833C85.7281 19.2833 84.4832 19.9541 83.0544 21.2956C83.0544 21.451 83.0261 21.684 82.9695 21.9947L81.5903 29.1333C81.5478 29.3451 81.4205 29.4511 81.2083 29.4511H80.9324C80.7202 29.4511 80.6354 29.3451 80.6778 29.1333L81.9934 22.3548C82.3754 20.3071 81.7742 19.2833 80.1897 19.2833C79.5673 19.2833 78.9166 19.488 78.2375 19.8976C77.5726 20.293 76.9785 20.7731 76.4551 21.338L74.9485 29.1333C74.906 29.3451 74.7787 29.4511 74.5665 29.4511H74.2906C74.0784 29.4511 73.9936 29.3451 74.036 29.1333Z" fill="#5D6F85"/>
<path d="M92.5526 25.4475L93.0194 23.0962C93.3024 21.5993 93.8541 20.4413 94.6746 19.6222C95.5092 18.8031 96.6127 18.3936 97.9849 18.3936C99.0317 18.3936 100.192 18.7254 101.465 19.3892C101.663 19.488 101.734 19.6504 101.677 19.8764L99.8734 29.1333C99.831 29.3451 99.7178 29.4511 99.5339 29.4511H99.4278C99.2298 29.4511 99.1449 29.3381 99.1732 29.1121L99.3005 27.82C98.6922 28.4272 98.0981 28.9003 97.518 29.2392C96.9522 29.564 96.3085 29.7264 95.587 29.7264C94.4412 29.7264 93.5924 29.3098 93.0407 28.4766C92.489 27.6293 92.3263 26.6196 92.5526 25.4475ZM95.778 28.8367C96.4005 28.8367 96.9946 28.6532 97.5605 28.286C98.1405 27.9047 98.7629 27.3751 99.4278 26.6973L100.722 20.0035C99.7178 19.5233 98.7488 19.2833 97.8151 19.2833C95.7214 19.2833 94.42 20.6037 93.9107 23.2445L93.5287 25.278C93.3448 26.2807 93.4226 27.128 93.7621 27.82C94.1017 28.4978 94.7736 28.8367 95.778 28.8367Z" fill="#5D6F85"/>
<path d="M103.399 29.1333L105.373 19.0079C105.415 18.7819 105.528 18.669 105.712 18.669H105.861C106.045 18.669 106.122 18.7961 106.094 19.0502L105.967 20.3424C107.155 19.0432 108.259 18.3936 109.277 18.3936C109.305 18.3936 109.355 18.3936 109.426 18.3936C109.496 18.3936 109.553 18.4006 109.595 18.4148C109.638 18.4148 109.687 18.4218 109.744 18.4359C109.815 18.4359 109.871 18.4501 109.914 18.4783C109.956 18.4924 109.992 18.5136 110.02 18.5419C110.062 18.5701 110.091 18.6125 110.105 18.669C110.119 18.7113 110.119 18.7607 110.105 18.8172L110.02 19.0502C109.977 19.1632 109.921 19.2409 109.85 19.2833C109.779 19.3115 109.652 19.3186 109.468 19.3044C109.298 19.2903 109.178 19.2833 109.107 19.2833C108.669 19.2833 108.138 19.5021 107.516 19.9399C106.893 20.3636 106.321 20.872 105.797 21.4651L104.312 29.1333C104.269 29.3451 104.142 29.4511 103.93 29.4511H103.654C103.442 29.4511 103.357 29.3451 103.399 29.1333Z" fill="#5D6F85"/>
<path d="M110.839 29.1333L113.704 14.39C113.746 14.1782 113.874 14.0723 114.086 14.0723H114.362C114.574 14.0723 114.659 14.1782 114.616 14.39L112.813 23.6046L115.677 22.8844C116.286 22.7149 116.752 22.3407 117.078 21.7617L118.733 18.9231C118.832 18.7537 118.973 18.669 119.157 18.669H119.497C119.723 18.669 119.78 18.7678 119.667 18.9655L117.884 22.037C117.431 22.8279 116.795 23.3716 115.974 23.6681L117.948 29.0486C118.047 29.3169 117.983 29.4511 117.757 29.4511H117.417C117.219 29.4511 117.085 29.3522 117.014 29.1545L115.104 23.9011L112.643 24.5366L111.73 29.1545C111.688 29.3522 111.575 29.4511 111.391 29.4511H111.094C110.882 29.4511 110.797 29.3451 110.839 29.1333Z" fill="#5D6F85"/>
<path d="M124.335 29.7264C123.118 29.7264 122.22 29.3028 121.64 28.4555C121.06 27.6081 120.911 26.4431 121.194 24.9603L121.555 23.1174C121.838 21.6063 122.404 20.4413 123.252 19.6222C124.101 18.8031 125.155 18.3936 126.414 18.3936C127.39 18.3936 128.161 18.6478 128.727 19.1562C129.307 19.6504 129.597 20.2789 129.597 21.0414C129.597 22.1288 129.095 22.9338 128.09 23.4563C127.1 23.9788 125.636 24.3036 123.698 24.4307L122.191 24.5154C121.923 25.9982 121.972 27.0927 122.34 27.7988C122.722 28.4908 123.436 28.8367 124.483 28.8367C125.261 28.8367 126.301 28.639 127.602 28.2436C127.829 28.173 127.942 28.2436 127.942 28.4555V28.7308C127.942 28.9285 127.857 29.0627 127.687 29.1333C126.499 29.5287 125.381 29.7264 124.335 29.7264ZM122.382 23.6046L123.698 23.5198C126.994 23.3363 128.642 22.5454 128.642 21.1474C128.642 20.5966 128.458 20.1518 128.09 19.8128C127.737 19.4598 127.192 19.2833 126.457 19.2833C124.292 19.2833 122.934 20.7237 122.382 23.6046Z" fill="#5D6F85"/>
<path d="M131.804 26.6337L133.204 19.4739L131.783 19.4104C131.67 19.4104 131.585 19.3892 131.528 19.3468C131.472 19.3044 131.45 19.2268 131.464 19.1138L131.486 18.9443C131.514 18.7607 131.634 18.669 131.846 18.669H133.353L133.99 15.3856C134.032 15.1597 134.159 15.0467 134.372 15.0467H134.647C134.874 15.0467 134.959 15.1597 134.902 15.3856L134.265 18.669H136.6C136.812 18.669 136.897 18.7749 136.854 18.9867L136.812 19.2197C136.769 19.3892 136.649 19.4739 136.451 19.4739H134.117L132.759 26.4854C132.603 27.3186 132.674 27.9188 132.971 28.286C133.268 28.6532 133.714 28.8367 134.308 28.8367C134.619 28.8367 134.944 28.8085 135.284 28.752C135.51 28.7096 135.624 28.8014 135.624 29.0274V29.2392C135.624 29.4511 135.517 29.5781 135.305 29.6205C134.98 29.6911 134.584 29.7264 134.117 29.7264C133.268 29.7264 132.624 29.4511 132.186 28.9003C131.747 28.3495 131.62 27.594 131.804 26.6337Z" fill="#5D6F85"/>
<path d="M137.643 29.3028C137.43 29.2322 137.36 29.098 137.43 28.9003L137.536 28.5826C137.593 28.3848 137.727 28.3213 137.94 28.3919C138.873 28.6885 139.658 28.8367 140.295 28.8367C141.186 28.8367 141.894 28.6179 142.417 28.1801C142.94 27.7282 143.202 27.1351 143.202 26.4007C143.202 26.0335 143.054 25.7017 142.757 25.4051C142.459 25.0944 142.099 24.8261 141.674 24.6002C141.25 24.3742 140.818 24.1412 140.38 23.9011C139.956 23.6611 139.595 23.3645 139.298 23.0114C139.001 22.6443 138.852 22.2347 138.852 21.7828C138.852 20.7661 139.234 19.947 139.998 19.3256C140.762 18.7043 141.674 18.3936 142.735 18.3936C143.457 18.3936 144.136 18.4995 144.772 18.7113C144.985 18.7819 145.048 18.9161 144.963 19.1138L144.857 19.368C144.772 19.5657 144.61 19.6292 144.369 19.5586C143.775 19.3751 143.188 19.2833 142.608 19.2833C141.802 19.2833 141.13 19.488 140.592 19.8976C140.069 20.3071 139.807 20.8649 139.807 21.571C139.807 21.9382 139.956 22.2771 140.253 22.5878C140.55 22.8844 140.91 23.1527 141.335 23.3927C141.759 23.6187 142.184 23.8517 142.608 24.0918C143.047 24.3319 143.414 24.6355 143.711 25.0026C144.009 25.3557 144.157 25.7511 144.157 26.1889C144.157 27.2198 143.782 28.0671 143.032 28.7308C142.283 29.3946 141.349 29.7264 140.231 29.7264C139.411 29.7264 138.548 29.5852 137.643 29.3028Z" fill="#5D6F85"/>
</g>
<defs>
<linearGradient id="paint0_linear" x1="9.15332" y1="11.2856" x2="9.54715" y2="8.53276" gradientUnits="userSpaceOnUse">
<stop stop-color="#FFB706"/>
<stop offset="0.768009" stop-color="#F97B00"/>
</linearGradient>
<linearGradient id="paint1_linear" x1="9.15332" y1="11.2856" x2="9.54715" y2="8.53276" gradientUnits="userSpaceOnUse">
<stop stop-color="#FFB706"/>
<stop offset="0.768009" stop-color="#F97B00"/>
</linearGradient>
<linearGradient id="paint2_linear" x1="9.15332" y1="33.4399" x2="9.54715" y2="30.6871" gradientUnits="userSpaceOnUse">
<stop stop-color="#FFB706"/>
<stop offset="0.768009" stop-color="#F97B00"/>
</linearGradient>
<linearGradient id="paint3_linear" x1="9.15332" y1="33.4399" x2="9.54715" y2="30.6871" gradientUnits="userSpaceOnUse">
<stop stop-color="#FFB706"/>
<stop offset="0.768009" stop-color="#F97B00"/>
</linearGradient>
<linearGradient id="paint4_linear" x1="4.51074" y1="16.8579" x2="4.71996" y2="14.0643" gradientUnits="userSpaceOnUse">
<stop stop-color="#FFB706"/>
<stop offset="0.768009" stop-color="#F97B00"/>
</linearGradient>
<linearGradient id="paint5_linear" x1="4.51074" y1="16.8579" x2="4.71996" y2="14.0643" gradientUnits="userSpaceOnUse">
<stop stop-color="#FFB706"/>
<stop offset="0.768009" stop-color="#F97B00"/>
</linearGradient>
<linearGradient id="paint6_linear" x1="-6.94144e-07" y1="22.4301" x2="0.144741" y2="19.6284" gradientUnits="userSpaceOnUse">
<stop stop-color="#FFB706"/>
<stop offset="0.768009" stop-color="#F97B00"/>
</linearGradient>
<linearGradient id="paint7_linear" x1="-6.94144e-07" y1="22.4301" x2="0.144741" y2="19.6284" gradientUnits="userSpaceOnUse">
<stop stop-color="#FFB706"/>
<stop offset="0.768009" stop-color="#F97B00"/>
</linearGradient>
<linearGradient id="paint8_linear" x1="4.51074" y1="27.8676" x2="4.96922" y2="25.1354" gradientUnits="userSpaceOnUse">
<stop stop-color="#FFB706"/>
<stop offset="0.768009" stop-color="#F97B00"/>
</linearGradient>
<linearGradient id="paint9_linear" x1="4.51074" y1="27.8676" x2="4.96922" y2="25.1354" gradientUnits="userSpaceOnUse">
<stop stop-color="#FFB706"/>
<stop offset="0.768009" stop-color="#F97B00"/>
</linearGradient>
<linearGradient id="paint10_linear" x1="15.5215" y1="27.8676" x2="15.98" y2="25.1354" gradientUnits="userSpaceOnUse">
<stop stop-color="#FFB706"/>
<stop offset="0.768009" stop-color="#F97B00"/>
</linearGradient>
<linearGradient id="paint11_linear" x1="15.5215" y1="27.8676" x2="15.98" y2="25.1354" gradientUnits="userSpaceOnUse">
<stop stop-color="#FFB706"/>
<stop offset="0.768009" stop-color="#F97B00"/>
</linearGradient>
<clipPath id="clip0">
<rect width="144.909" height="42" fill="white"/>
</clipPath>
</defs>
</svg>
