<svg width="108" height="48" viewBox="0 0 108 48" fill="none" xmlns="http://www.w3.org/2000/svg">
<path fill-rule="evenodd" clip-rule="evenodd" d="M2.85141 7.48997C4.34109 5.45147 6.80577 4 10.5 4C13.5749 4 15.7652 5.30335 17.2045 6.95048C18.6032 8.55114 19.2796 10.4526 19.4826 11.7719C19.6085 12.5907 19.0469 13.3566 18.2281 13.4826C17.4093 13.6085 16.6434 13.0469 16.5174 12.2281C16.3871 11.3807 15.9134 10.0322 14.9455 8.92452C14.0182 7.86331 12.6251 7 10.5 7C7.69423 7 6.15891 8.04853 5.27359 9.26003C4.33114 10.5497 4 12.2049 4 13.5C4 14.6928 4.40199 16.0623 5.35991 17.116C6.28551 18.1341 7.85905 19 10.5 19C15.4769 19 19.1239 16.7615 22.2103 13.7938C23.7649 12.299 25.1531 10.642 26.4958 9.00267C26.6364 8.831 26.7769 8.65903 26.9173 8.48719C28.0938 7.04704 29.2633 5.61536 30.4393 4.43934C30.7206 4.15804 31.1022 4 31.5 4H45C45.5952 4 46.1341 4.3519 46.3734 4.89684C46.6127 5.44179 46.5072 6.07669 46.1045 6.51494L30.0233 24.015L45.6194 41.5016C46.0129 41.9427 46.1106 42.5739 45.8689 43.1133C45.6272 43.6528 45.0911 44 44.5 44H33.5C33.1022 44 32.7206 43.842 32.4393 43.5607L20.8787 32H15V42.5C15 43.3284 14.3284 44 13.5 44H4C3.17157 44 2.5 43.3284 2.5 42.5V28C2.5 27.1716 3.17157 26.5 4 26.5C4.82843 26.5 5.5 27.1716 5.5 28V41H12V30.5C12 29.6716 12.6716 29 13.5 29H21.5C21.8978 29 22.2794 29.158 22.5607 29.4393L34.1213 41H41.1522L26.8806 24.9984C26.3675 24.4232 26.3739 23.5526 26.8955 22.9851L41.5845 7H32.1336C31.2103 7.97542 30.2699 9.12603 29.2331 10.3945C29.096 10.5622 28.9573 10.7319 28.8167 10.9036C27.4719 12.5455 25.9851 14.326 24.2897 15.9562C20.8761 19.2385 16.5231 22 10.5 22C7.14095 22 4.71449 20.8659 3.14009 19.134C1.59801 17.4377 1 15.3072 1 13.5C1 11.7951 1.41886 9.45031 2.85141 7.48997Z" fill="url(#paint0_linear_2_17)"/>
<path d="M60.875 14.9375V32H57.9336V14.9375H60.875ZM67.4727 14.9375V32H64.5312V14.9375H67.4727ZM77.7266 14.9375L70.8125 23.1523L66.875 27.3242L66.3594 24.4062L69.1719 20.9375L74.1406 14.9375H77.7266ZM74.5625 32L68.9492 23.9141L70.9766 21.9102L78.0547 32H74.5625ZM82.8359 14.9375V32H79.8945V14.9375H82.8359ZM96.5703 26.4453H99.5C99.4062 27.5625 99.0938 28.5586 98.5625 29.4336C98.0312 30.3008 97.2852 30.9844 96.3242 31.4844C95.3633 31.9844 94.1953 32.2344 92.8203 32.2344C91.7656 32.2344 90.8164 32.0469 89.9727 31.6719C89.1289 31.2891 88.4062 30.75 87.8047 30.0547C87.2031 29.3516 86.7422 28.5039 86.4219 27.5117C86.1094 26.5195 85.9531 25.4102 85.9531 24.1836V22.7656C85.9531 21.5391 86.1133 20.4297 86.4336 19.4375C86.7617 18.4453 87.2305 17.5977 87.8398 16.8945C88.4492 16.1836 89.1797 15.6406 90.0312 15.2656C90.8906 14.8906 91.8555 14.7031 92.9258 14.7031C94.2852 14.7031 95.4336 14.9531 96.3711 15.4531C97.3086 15.9531 98.0352 16.6445 98.5508 17.5273C99.0742 18.4102 99.3945 19.4219 99.5117 20.5625H96.582C96.5039 19.8281 96.332 19.1992 96.0664 18.6758C95.8086 18.1523 95.4258 17.7539 94.918 17.4805C94.4102 17.1992 93.7461 17.0586 92.9258 17.0586C92.2539 17.0586 91.668 17.1836 91.168 17.4336C90.668 17.6836 90.25 18.0508 89.9141 18.5352C89.5781 19.0195 89.3242 19.6172 89.1523 20.3281C88.9883 21.0312 88.9062 21.8359 88.9062 22.7422V24.1836C88.9062 25.043 88.9805 25.8242 89.1289 26.5273C89.2852 27.2227 89.5195 27.8203 89.832 28.3203C90.1523 28.8203 90.5586 29.207 91.0508 29.4805C91.543 29.7539 92.1328 29.8906 92.8203 29.8906C93.6562 29.8906 94.332 29.7578 94.8477 29.4922C95.3711 29.2266 95.7656 28.8398 96.0312 28.332C96.3047 27.8164 96.4844 27.1875 96.5703 26.4453ZM105.312 14.9375V32H102.371V14.9375H105.312Z" fill="white"/>
<defs>
<linearGradient id="paint0_linear_2_17" x1="2.5" y1="44" x2="47" y2="4" gradientUnits="userSpaceOnUse">
<stop stop-color="#FF321B"/>
<stop offset="1" stop-color="#FF782F"/>
</linearGradient>
</defs>
</svg>
