<svg width="242" height="48" viewBox="0 0 242 48" fill="none" xmlns="http://www.w3.org/2000/svg">
<path fill-rule="evenodd" clip-rule="evenodd" d="M24.7071 0.707107C24.3166 0.316583 23.6834 0.316583 23.2929 0.707108L5.65687 18.3431C2.53267 21.4673 2.53267 26.5327 5.65686 29.6569L23.2929 47.2929C23.6834 47.6834 24.3166 47.6834 24.7071 47.2929L42.3432 29.6569C45.4674 26.5327 45.4674 21.4673 42.3432 18.3431L35.7071 11.7071C35.3166 11.3166 34.6834 11.3166 34.2929 11.7071L27.7071 18.2929C27.3166 18.6834 27.3166 19.3166 27.7071 19.7071L31.2929 23.2929C31.6834 23.6834 31.6834 24.3166 31.2929 24.7071L24.7071 31.2929C24.3166 31.6834 23.6834 31.6834 23.2929 31.2929L16.7071 24.7071C16.3166 24.3166 16.3166 23.6834 16.7071 23.2929L31.2929 8.70711C31.6834 8.31658 31.6834 7.68342 31.2929 7.29289L24.7071 0.707107Z" fill="#ffffff"/>
<path d="M58.376 32C58.2 32 58.056 31.944 57.944 31.832C57.832 31.72 57.776 31.576 57.776 31.4V15.8C57.776 15.624 57.832 15.48 57.944 15.368C58.056 15.256 58.2 15.2 58.376 15.2H61.088C61.264 15.2 61.408 15.256 61.52 15.368C61.632 15.48 61.688 15.624 61.688 15.8V31.4C61.688 31.576 61.632 31.72 61.52 31.832C61.408 31.944 61.264 32 61.088 32H58.376ZM65.5411 32C65.3811 32 65.2451 31.944 65.1331 31.832C65.0211 31.72 64.9651 31.576 64.9651 31.4V20.12C64.9651 19.944 65.0211 19.8 65.1331 19.688C65.2451 19.576 65.3811 19.52 65.5411 19.52H67.8931C68.0691 19.52 68.2131 19.576 68.3251 19.688C68.4371 19.8 68.4931 19.944 68.4931 20.12V21.056C68.9091 20.544 69.4451 20.12 70.1011 19.784C70.7571 19.448 71.5571 19.28 72.5011 19.28C73.4451 19.28 74.2691 19.496 74.9731 19.928C75.6931 20.344 76.2531 20.96 76.6531 21.776C77.0691 22.576 77.2771 23.552 77.2771 24.704V31.4C77.2771 31.576 77.2131 31.72 77.0851 31.832C76.9731 31.944 76.8371 32 76.6771 32H74.1331C73.9571 32 73.8131 31.944 73.7011 31.832C73.5891 31.72 73.5331 31.576 73.5331 31.4V24.848C73.5331 24 73.3251 23.344 72.9091 22.88C72.5091 22.4 71.9171 22.16 71.1331 22.16C70.3811 22.16 69.7811 22.4 69.3331 22.88C68.8851 23.344 68.6611 24 68.6611 24.848V31.4C68.6611 31.576 68.6051 31.72 68.4931 31.832C68.3811 31.944 68.2451 32 68.0851 32H65.5411ZM84.1936 32C83.9536 32 83.7696 31.944 83.6416 31.832C83.5296 31.704 83.4336 31.56 83.3536 31.4L78.8416 20.264C78.8096 20.2 78.7936 20.128 78.7936 20.048C78.7936 19.904 78.8416 19.784 78.9376 19.688C79.0496 19.576 79.1776 19.52 79.3216 19.52H81.6496C81.8576 19.52 82.0096 19.576 82.1056 19.688C82.2176 19.8 82.2896 19.904 82.3216 20L85.2736 27.92L88.2256 20C88.2736 19.904 88.3456 19.8 88.4416 19.688C88.5536 19.576 88.7056 19.52 88.8976 19.52H91.2256C91.3696 19.52 91.4896 19.576 91.5856 19.688C91.6976 19.784 91.7536 19.904 91.7536 20.048C91.7536 20.128 91.7456 20.2 91.7296 20.264L87.1936 31.4C87.1296 31.56 87.0336 31.704 86.9056 31.832C86.7776 31.944 86.5936 32 86.3536 32H84.1936ZM98.8925 32.24C97.0525 32.24 95.5885 31.728 94.5005 30.704C93.4285 29.68 92.8605 28.192 92.7965 26.24C92.7965 26.112 92.7965 25.944 92.7965 25.736C92.7965 25.512 92.7965 25.336 92.7965 25.208C92.8605 23.976 93.1405 22.92 93.6365 22.04C94.1325 21.144 94.8285 20.464 95.7245 20C96.6205 19.52 97.6685 19.28 98.8685 19.28C100.213 19.28 101.333 19.56 102.229 20.12C103.141 20.664 103.821 21.416 104.269 22.376C104.733 23.32 104.965 24.408 104.965 25.64V26.192C104.965 26.352 104.901 26.488 104.773 26.6C104.661 26.712 104.525 26.768 104.365 26.768H96.5165C96.5165 26.784 96.5165 26.816 96.5165 26.864C96.5165 26.896 96.5165 26.928 96.5165 26.96C96.5325 27.472 96.6285 27.944 96.8045 28.376C96.9965 28.792 97.2605 29.128 97.5965 29.384C97.9485 29.64 98.3645 29.768 98.8445 29.768C99.2445 29.768 99.5725 29.712 99.8285 29.6C100.085 29.488 100.293 29.352 100.453 29.192C100.629 29.032 100.757 28.896 100.837 28.784C100.981 28.624 101.093 28.528 101.173 28.496C101.269 28.448 101.413 28.424 101.605 28.424H104.101C104.261 28.424 104.389 28.472 104.484 28.568C104.597 28.648 104.645 28.768 104.629 28.928C104.613 29.184 104.477 29.504 104.221 29.888C103.981 30.256 103.621 30.624 103.141 30.992C102.661 31.344 102.061 31.64 101.341 31.88C100.637 32.12 99.8205 32.24 98.8925 32.24ZM96.5165 24.584H101.221V24.536C101.221 23.96 101.125 23.464 100.933 23.048C100.757 22.616 100.493 22.28 100.141 22.04C99.7885 21.8 99.3645 21.68 98.8685 21.68C98.3725 21.68 97.9485 21.8 97.5965 22.04C97.2445 22.28 96.9725 22.616 96.7805 23.048C96.6045 23.464 96.5165 23.96 96.5165 24.536V24.584ZM112.284 32.24C111.292 32.24 110.436 32.128 109.716 31.904C109.012 31.664 108.436 31.376 107.988 31.04C107.556 30.704 107.228 30.368 107.004 30.032C106.796 29.68 106.684 29.384 106.668 29.144C106.652 28.968 106.708 28.824 106.836 28.712C106.964 28.6 107.092 28.544 107.22 28.544H109.548C109.596 28.544 109.644 28.552 109.692 28.568C109.74 28.584 109.788 28.624 109.836 28.688C110.044 28.832 110.26 29 110.484 29.192C110.708 29.368 110.964 29.52 111.252 29.648C111.556 29.776 111.932 29.84 112.38 29.84C112.908 29.84 113.356 29.736 113.724 29.528C114.092 29.304 114.276 28.992 114.276 28.592C114.276 28.304 114.188 28.064 114.012 27.872C113.852 27.68 113.54 27.504 113.076 27.344C112.612 27.184 111.924 27.008 111.012 26.816C110.148 26.624 109.412 26.368 108.804 26.048C108.196 25.728 107.74 25.328 107.436 24.848C107.132 24.352 106.98 23.76 106.98 23.072C106.98 22.448 107.172 21.848 107.556 21.272C107.956 20.696 108.54 20.224 109.308 19.856C110.076 19.472 111.036 19.28 112.188 19.28C113.068 19.28 113.836 19.392 114.492 19.616C115.164 19.824 115.724 20.096 116.172 20.432C116.62 20.752 116.956 21.088 117.18 21.44C117.42 21.776 117.548 22.072 117.564 22.328C117.58 22.488 117.532 22.624 117.42 22.736C117.308 22.848 117.18 22.904 117.036 22.904H114.9C114.82 22.904 114.748 22.896 114.684 22.88C114.62 22.848 114.564 22.808 114.516 22.76C114.324 22.632 114.124 22.488 113.916 22.328C113.724 22.152 113.492 22 113.22 21.872C112.948 21.744 112.596 21.68 112.164 21.68C111.636 21.68 111.228 21.8 110.94 22.04C110.668 22.264 110.532 22.552 110.532 22.904C110.532 23.128 110.604 23.336 110.748 23.528C110.892 23.72 111.188 23.896 111.636 24.056C112.084 24.216 112.764 24.384 113.676 24.56C114.764 24.752 115.628 25.04 116.268 25.424C116.908 25.808 117.364 26.256 117.636 26.768C117.924 27.264 118.068 27.8 118.068 28.376C118.068 29.128 117.844 29.8 117.396 30.392C116.948 30.968 116.292 31.424 115.428 31.76C114.58 32.08 113.532 32.24 112.284 32.24ZM126.325 32C125.333 32 124.485 31.84 123.781 31.52C123.077 31.184 122.541 30.672 122.173 29.984C121.821 29.296 121.645 28.432 121.645 27.392V22.352H119.773C119.597 22.352 119.453 22.296 119.341 22.184C119.229 22.072 119.173 21.928 119.173 21.752V20.12C119.173 19.944 119.229 19.8 119.341 19.688C119.453 19.576 119.597 19.52 119.773 19.52H121.645V15.56C121.645 15.384 121.701 15.24 121.812 15.128C121.941 15.016 122.085 14.96 122.245 14.96H124.597C124.773 14.96 124.917 15.016 125.029 15.128C125.141 15.24 125.197 15.384 125.197 15.56V19.52H128.197C128.357 19.52 128.493 19.576 128.605 19.688C128.717 19.8 128.773 19.944 128.773 20.12V21.752C128.773 21.928 128.717 22.072 128.605 22.184C128.493 22.296 128.357 22.352 128.197 22.352H125.197V27.104C125.197 27.712 125.301 28.192 125.509 28.544C125.733 28.88 126.117 29.048 126.661 29.048H128.413C128.573 29.048 128.709 29.104 128.821 29.216C128.933 29.328 128.989 29.464 128.989 29.624V31.4C128.989 31.576 128.933 31.72 128.821 31.832C128.709 31.944 128.573 32 128.413 32H126.325ZM136.65 32.24C134.81 32.24 133.346 31.728 132.258 30.704C131.186 29.68 130.618 28.192 130.554 26.24C130.554 26.112 130.554 25.944 130.554 25.736C130.554 25.512 130.554 25.336 130.554 25.208C130.618 23.976 130.898 22.92 131.394 22.04C131.89 21.144 132.586 20.464 133.482 20C134.378 19.52 135.426 19.28 136.626 19.28C137.97 19.28 139.09 19.56 139.986 20.12C140.898 20.664 141.578 21.416 142.026 22.376C142.49 23.32 142.722 24.408 142.722 25.64V26.192C142.722 26.352 142.658 26.488 142.53 26.6C142.418 26.712 142.282 26.768 142.122 26.768H134.274C134.274 26.784 134.274 26.816 134.274 26.864C134.274 26.896 134.274 26.928 134.274 26.96C134.29 27.472 134.386 27.944 134.562 28.376C134.754 28.792 135.018 29.128 135.354 29.384C135.706 29.64 136.122 29.768 136.602 29.768C137.002 29.768 137.33 29.712 137.586 29.6C137.842 29.488 138.05 29.352 138.21 29.192C138.386 29.032 138.514 28.896 138.594 28.784C138.738 28.624 138.85 28.528 138.93 28.496C139.026 28.448 139.17 28.424 139.362 28.424H141.858C142.018 28.424 142.146 28.472 142.242 28.568C142.354 28.648 142.402 28.768 142.386 28.928C142.37 29.184 142.234 29.504 141.978 29.888C141.738 30.256 141.378 30.624 140.898 30.992C140.418 31.344 139.818 31.64 139.098 31.88C138.394 32.12 137.578 32.24 136.65 32.24ZM134.274 24.584H138.978V24.536C138.978 23.96 138.882 23.464 138.69 23.048C138.514 22.616 138.25 22.28 137.898 22.04C137.546 21.8 137.122 21.68 136.626 21.68C136.13 21.68 135.706 21.8 135.354 22.04C135.002 22.28 134.73 22.616 134.538 23.048C134.362 23.464 134.274 23.96 134.274 24.536V24.584ZM145.697 32C145.537 32 145.401 31.944 145.289 31.832C145.177 31.72 145.121 31.576 145.121 31.4V20.12C145.121 19.96 145.177 19.824 145.289 19.712C145.401 19.584 145.537 19.52 145.697 19.52H148.049C148.209 19.52 148.345 19.584 148.457 19.712C148.585 19.824 148.649 19.96 148.649 20.12V21.08C149.049 20.584 149.537 20.2 150.113 19.928C150.705 19.656 151.385 19.52 152.153 19.52H153.185C153.345 19.52 153.481 19.576 153.593 19.688C153.705 19.8 153.761 19.944 153.761 20.12V22.184C153.761 22.36 153.705 22.504 153.593 22.616C153.481 22.728 153.345 22.784 153.185 22.784H151.073C150.369 22.784 149.817 22.984 149.417 23.384C149.017 23.768 148.817 24.32 148.817 25.04V31.4C148.817 31.576 148.761 31.72 148.649 31.832C148.537 31.944 148.393 32 148.217 32H145.697ZM157.831 36.56C157.703 36.56 157.583 36.512 157.471 36.416C157.375 36.32 157.327 36.2 157.327 36.056C157.327 36.024 157.335 35.976 157.351 35.912C157.367 35.864 157.391 35.8 157.423 35.72L159.295 31.232L154.687 20.36C154.639 20.232 154.615 20.128 154.615 20.048C154.631 19.904 154.687 19.784 154.783 19.688C154.879 19.576 154.999 19.52 155.143 19.52H157.471C157.679 19.52 157.831 19.576 157.927 19.688C158.023 19.784 158.095 19.888 158.143 20L161.119 27.44L164.167 20C164.231 19.872 164.311 19.76 164.407 19.664C164.503 19.568 164.655 19.52 164.863 19.52H167.143C167.287 19.52 167.407 19.576 167.503 19.688C167.615 19.784 167.671 19.896 167.671 20.024C167.671 20.104 167.639 20.216 167.575 20.36L160.783 36.08C160.735 36.208 160.655 36.32 160.543 36.416C160.447 36.512 160.295 36.56 160.087 36.56H157.831ZM182.145 32.24C180.737 32.24 179.537 31.976 178.545 31.448C177.569 30.92 176.817 30.176 176.289 29.216C175.777 28.256 175.489 27.128 175.425 25.832C175.409 25.128 175.401 24.384 175.401 23.6C175.401 22.8 175.409 22.04 175.425 21.32C175.489 20.024 175.777 18.904 176.289 17.96C176.817 17.016 177.577 16.28 178.569 15.752C179.561 15.224 180.753 14.96 182.145 14.96C183.281 14.96 184.265 15.12 185.097 15.44C185.929 15.76 186.609 16.168 187.137 16.664C187.681 17.144 188.081 17.648 188.337 18.176C188.609 18.704 188.753 19.168 188.769 19.568C188.785 19.712 188.745 19.832 188.649 19.928C188.553 20.008 188.425 20.048 188.265 20.048H186.849C186.689 20.048 186.569 20.016 186.489 19.952C186.425 19.888 186.361 19.776 186.297 19.616C186.153 19.2 185.913 18.792 185.577 18.392C185.257 17.992 184.817 17.664 184.257 17.408C183.713 17.136 183.009 17 182.145 17C180.881 17 179.857 17.344 179.073 18.032C178.305 18.72 177.889 19.856 177.825 21.44C177.777 22.864 177.777 24.288 177.825 25.712C177.889 27.312 178.313 28.464 179.097 29.168C179.881 29.856 180.905 30.2 182.169 30.2C183.017 30.2 183.769 30.048 184.425 29.744C185.097 29.424 185.625 28.936 186.009 28.28C186.393 27.624 186.585 26.792 186.585 25.784V24.776H182.985C182.825 24.776 182.689 24.728 182.577 24.632C182.481 24.52 182.433 24.376 182.433 24.2V23.432C182.433 23.256 182.481 23.12 182.577 23.024C182.689 22.912 182.825 22.856 182.985 22.856H188.409C188.585 22.856 188.721 22.912 188.817 23.024C188.913 23.12 188.961 23.256 188.961 23.432V25.736C188.961 27.048 188.689 28.192 188.145 29.168C187.617 30.144 186.841 30.904 185.817 31.448C184.793 31.976 183.569 32.24 182.145 32.24ZM192.625 32C192.465 32 192.329 31.952 192.217 31.856C192.121 31.744 192.073 31.608 192.073 31.448V20.096C192.073 19.936 192.121 19.8 192.217 19.688C192.329 19.576 192.465 19.52 192.625 19.52H193.729C193.889 19.52 194.025 19.576 194.137 19.688C194.249 19.8 194.305 19.936 194.305 20.096V21.152C194.625 20.608 195.065 20.2 195.625 19.928C196.185 19.656 196.857 19.52 197.641 19.52H198.601C198.761 19.52 198.889 19.576 198.985 19.688C199.081 19.784 199.129 19.912 199.129 20.072V21.056C199.129 21.216 199.081 21.344 198.985 21.44C198.889 21.536 198.761 21.584 198.601 21.584H197.161C196.297 21.584 195.617 21.84 195.121 22.352C194.625 22.848 194.377 23.528 194.377 24.392V31.448C194.377 31.608 194.321 31.744 194.209 31.856C194.097 31.952 193.961 32 193.801 32H192.625ZM206.068 32.24C204.852 32.24 203.836 32.008 203.02 31.544C202.204 31.08 201.58 30.44 201.148 29.624C200.716 28.792 200.476 27.848 200.428 26.792C200.412 26.52 200.404 26.176 200.404 25.76C200.404 25.328 200.412 24.984 200.428 24.728C200.476 23.656 200.716 22.712 201.148 21.896C201.596 21.08 202.228 20.44 203.044 19.976C203.86 19.512 204.868 19.28 206.068 19.28C207.268 19.28 208.276 19.512 209.092 19.976C209.908 20.44 210.532 21.08 210.964 21.896C211.412 22.712 211.66 23.656 211.708 24.728C211.724 24.984 211.732 25.328 211.732 25.76C211.732 26.176 211.724 26.52 211.708 26.792C211.66 27.848 211.42 28.792 210.988 29.624C210.556 30.44 209.932 31.08 209.116 31.544C208.3 32.008 207.284 32.24 206.068 32.24ZM206.068 30.392C207.06 30.392 207.852 30.08 208.444 29.456C209.036 28.816 209.356 27.888 209.404 26.672C209.42 26.432 209.428 26.128 209.428 25.76C209.428 25.392 209.42 25.088 209.404 24.848C209.356 23.632 209.036 22.712 208.444 22.088C207.852 21.448 207.06 21.128 206.068 21.128C205.076 21.128 204.276 21.448 203.668 22.088C203.076 22.712 202.764 23.632 202.732 24.848C202.716 25.088 202.708 25.392 202.708 25.76C202.708 26.128 202.716 26.432 202.732 26.672C202.764 27.888 203.076 28.816 203.668 29.456C204.276 30.08 205.076 30.392 206.068 30.392ZM219.393 32.24C218.369 32.24 217.497 32.016 216.777 31.568C216.073 31.104 215.537 30.464 215.169 29.648C214.801 28.832 214.617 27.896 214.617 26.84V20.072C214.617 19.912 214.665 19.784 214.761 19.688C214.873 19.576 215.009 19.52 215.169 19.52H216.369C216.529 19.52 216.657 19.576 216.753 19.688C216.865 19.784 216.921 19.912 216.921 20.072V26.72C216.921 29.104 217.961 30.296 220.041 30.296C221.033 30.296 221.825 29.984 222.417 29.36C223.025 28.72 223.329 27.84 223.329 26.72V20.072C223.329 19.912 223.377 19.784 223.473 19.688C223.585 19.576 223.721 19.52 223.881 19.52H225.057C225.233 19.52 225.369 19.576 225.465 19.688C225.561 19.784 225.609 19.912 225.609 20.072V31.448C225.609 31.608 225.561 31.744 225.465 31.856C225.369 31.952 225.233 32 225.057 32H223.953C223.793 32 223.657 31.952 223.545 31.856C223.449 31.744 223.401 31.608 223.401 31.448V30.392C222.969 30.952 222.441 31.4 221.817 31.736C221.209 32.072 220.401 32.24 219.393 32.24ZM229.75 36.56C229.59 36.56 229.454 36.504 229.342 36.392C229.246 36.296 229.198 36.168 229.198 36.008V20.072C229.198 19.912 229.246 19.784 229.342 19.688C229.454 19.576 229.59 19.52 229.75 19.52H230.854C231.014 19.52 231.142 19.576 231.238 19.688C231.35 19.784 231.406 19.912 231.406 20.072V21.128C231.79 20.6 232.302 20.16 232.942 19.808C233.582 19.456 234.382 19.28 235.342 19.28C236.238 19.28 236.998 19.432 237.622 19.736C238.262 20.04 238.782 20.456 239.182 20.984C239.598 21.512 239.91 22.112 240.118 22.784C240.326 23.456 240.438 24.176 240.454 24.944C240.47 25.2 240.478 25.472 240.478 25.76C240.478 26.048 240.47 26.32 240.454 26.576C240.438 27.328 240.326 28.048 240.118 28.736C239.91 29.408 239.598 30.008 239.182 30.536C238.782 31.048 238.262 31.464 237.622 31.784C236.998 32.088 236.238 32.24 235.342 32.24C234.414 32.24 233.63 32.072 232.99 31.736C232.366 31.384 231.854 30.952 231.454 30.44V36.008C231.454 36.168 231.406 36.296 231.31 36.392C231.214 36.504 231.078 36.56 230.902 36.56H229.75ZM234.838 30.296C235.67 30.296 236.318 30.12 236.782 29.768C237.262 29.4 237.606 28.928 237.814 28.352C238.022 27.76 238.142 27.128 238.174 26.456C238.19 25.992 238.19 25.528 238.174 25.064C238.142 24.392 238.022 23.768 237.814 23.192C237.606 22.6 237.262 22.128 236.782 21.776C236.318 21.408 235.67 21.224 234.838 21.224C234.054 21.224 233.414 21.408 232.918 21.776C232.438 22.144 232.078 22.616 231.838 23.192C231.614 23.752 231.486 24.328 231.454 24.92C231.438 25.176 231.43 25.48 231.43 25.832C231.43 26.184 231.438 26.496 231.454 26.768C231.47 27.328 231.598 27.88 231.838 28.424C232.094 28.968 232.47 29.416 232.966 29.768C233.462 30.12 234.086 30.296 234.838 30.296Z" fill="white"/>
</svg>
