<svg width="227" height="48" viewBox="0 0 227 48" fill="none" xmlns="http://www.w3.org/2000/svg">
<path d="M40.2887 20.5928C42.3887 26.589 41.627 35.293 35.2008 41.6383C28.8778 47.8834 20.2211 48.6745 14.099 46.5088C26.4049 41.4566 35.119 32.8256 40.2887 20.5928Z" fill="white" fill-opacity="0.2"/>
<path d="M33.5726 10.8345C34.2267 11.4381 34.8033 11.9402 35.3455 12.4766C36.3984 13.5179 37.3107 14.6737 38.1125 15.9196C38.233 16.1084 38.2631 16.2686 38.1943 16.4903C37.0009 20.288 35.291 23.8368 33.0849 27.1525C31.18 30.0147 28.9523 32.5995 26.4335 34.9353C25.6116 35.6963 24.7437 36.4087 23.9232 37.1196C22.1345 35.333 20.3716 33.5736 18.5858 31.7899C25.4036 26.1999 30.4484 19.2553 33.5726 10.8345Z" fill="#F84E77"/>
<path d="M16.4643 18.769C18.2573 20.5628 20.0188 22.3279 21.8176 24.1273C21.5077 24.4678 21.1649 24.8597 20.8049 25.2359C17.6377 28.5501 14.0674 31.3523 10.061 33.5909C7.75449 34.8797 5.35471 35.9625 2.8459 36.8036C2.6207 36.8794 2.49734 36.8679 2.37972 36.6462C1.25513 34.5192 0.533617 32.2649 0.175012 29.889C0.130545 29.5972 0.289765 29.5114 0.514969 29.437C2.61496 28.7461 4.63033 27.8607 6.56536 26.7922C10.1256 24.8268 13.2612 22.3293 15.9752 19.3054C16.1344 19.1309 16.2965 18.9536 16.4643 18.769Z" fill="white" fill-opacity="0.5"/>
<path d="M19.9127 6.39746C18.276 10.9104 15.7816 14.864 12.4179 18.2655C8.91069 21.8129 4.7939 24.4163 6.10352e-05 26.1313C0.233872 21.4453 1.79596 17.3443 4.75374 13.7998C9.39552 8.23553 15.5549 6.48185 19.9127 6.39746Z" fill="white"/>
<path d="M23.9778 21.4942C22.1647 19.6733 20.3831 17.881 18.5944 16.0845C19.118 15.2563 19.6803 14.4123 20.1967 13.5426C21.4561 11.4185 22.4788 9.18276 23.2563 6.83833C23.3323 6.61089 23.4385 6.53794 23.6751 6.57513C26.0907 6.94561 28.3772 7.69657 30.5303 8.85234C30.7497 8.96963 30.6723 9.10123 30.612 9.24713C29.9823 10.7734 29.3999 12.3211 28.7071 13.8187C27.5008 16.4278 25.9688 18.8494 24.2561 21.1567C24.1758 21.2668 24.084 21.3669 23.9778 21.4942Z" fill="white" fill-opacity="0.5"/>
<path d="M21.1404 39.1364C20.3601 39.6156 19.6114 40.0948 18.8439 40.5411C16.2003 42.0816 13.4118 43.2932 10.5057 44.2516C9.91037 44.4475 9.48578 44.3817 8.98086 44.0227C7.35566 42.8669 5.89112 41.5481 4.62309 40.0118C4.55997 39.936 4.50977 39.8488 4.44952 39.7587C5.32452 39.4096 6.18804 39.0807 7.03866 38.7245C10.0337 37.4729 12.861 35.9137 15.5233 34.0628C15.7901 33.8768 15.9278 33.9097 16.1444 34.1286C17.7122 35.7121 19.2944 37.2812 20.8708 38.8547C20.9497 38.9319 21.0243 39.0149 21.1404 39.1364Z" fill="#F84E77"/>
<path d="M52.0445 36.0967V10.937H58.2266V36.0967H52.0445ZM62.1115 36.0967V17.0831H67.9341V18.3771C69.3718 17.2748 71.0731 16.7237 73.038 16.7237C74.5236 16.7237 75.8295 17.0472 76.9557 17.6942C78.1058 18.3411 79.0044 19.2397 79.6514 20.3898C80.2983 21.54 80.6218 22.8699 80.6218 24.3795V36.0967H74.7991V25.1702C74.7991 24.1159 74.4876 23.2772 73.8646 22.6542C73.2416 22.0312 72.403 21.7197 71.3487 21.7197C70.6059 21.7197 69.9469 21.8515 69.3718 22.1151C68.8207 22.3787 68.3415 22.7501 67.9341 23.2293V36.0967H62.1115ZM89.2851 36.0967L81.1621 17.0831H87.4879L92.1964 28.7285L96.9048 17.0831H103.087L94.964 36.0967H89.2851ZM113.79 36.4561C111.85 36.4561 110.088 36.0248 108.507 35.1622C106.949 34.2756 105.715 33.0895 104.805 31.6039C103.894 30.1183 103.439 28.4529 103.439 26.6079C103.439 24.7628 103.87 23.0975 104.733 21.6119C105.62 20.1263 106.818 18.9521 108.327 18.0895C109.837 17.2029 111.514 16.7597 113.359 16.7597C115.228 16.7597 116.882 17.2149 118.319 18.1255C119.757 19.0121 120.883 20.2341 121.698 21.7916C122.536 23.3491 122.956 25.1342 122.956 27.147V28.5847H109.406C109.669 29.1838 110.017 29.7109 110.448 30.1662C110.903 30.6215 111.442 30.9809 112.065 31.2445C112.688 31.4841 113.359 31.6039 114.078 31.6039C114.869 31.6039 115.588 31.4841 116.235 31.2445C116.882 30.9809 117.433 30.6215 117.888 30.1662L121.734 33.5807C120.536 34.5871 119.302 35.3179 118.032 35.7732C116.786 36.2285 115.372 36.4561 113.79 36.4561ZM109.298 24.5232H117.241C117.049 23.9002 116.75 23.3731 116.342 22.9418C115.959 22.4865 115.504 22.139 114.977 21.8994C114.449 21.6358 113.874 21.5041 113.251 21.5041C112.604 21.5041 112.017 21.6239 111.49 21.8635C110.963 22.1031 110.508 22.4505 110.124 22.9058C109.765 23.3371 109.489 23.8763 109.298 24.5232ZM133.365 36.4561C131.568 36.4561 129.903 36.2524 128.369 35.8451C126.836 35.4138 125.506 34.7908 124.379 33.9761L127.147 30.0584C128.345 30.7772 129.435 31.3044 130.418 31.6398C131.4 31.9513 132.371 32.1071 133.329 32.1071C134.288 32.1071 135.042 31.9753 135.593 31.7117C136.169 31.4242 136.456 31.0528 136.456 30.5975C136.456 30.2381 136.3 29.9505 135.989 29.7349C135.677 29.4953 135.186 29.3275 134.515 29.2317L130.741 28.6566C128.848 28.3691 127.399 27.7461 126.392 26.7876C125.41 25.8052 124.919 24.5352 124.919 22.9777C124.919 21.6838 125.242 20.5815 125.889 19.671C126.56 18.7365 127.506 18.0296 128.728 17.5504C129.951 17.0472 131.412 16.7956 133.113 16.7956C134.503 16.7956 135.881 16.9873 137.247 17.3707C138.613 17.7541 139.883 18.3291 141.057 19.0959L138.289 22.8339C137.259 22.2349 136.276 21.8036 135.342 21.54C134.407 21.2525 133.473 21.1087 132.538 21.1087C131.796 21.1087 131.197 21.2405 130.741 21.5041C130.286 21.7437 130.058 22.0672 130.058 22.4745C130.058 22.8579 130.226 23.1694 130.562 23.409C130.897 23.6247 131.472 23.7924 132.287 23.9122L136.061 24.4873C137.93 24.7509 139.367 25.3739 140.374 26.3563C141.404 27.3147 141.919 28.5368 141.919 30.0224C141.919 31.2684 141.548 32.3706 140.805 33.3291C140.062 34.2876 139.044 35.0543 137.75 35.6294C136.48 36.1805 135.018 36.4561 133.365 36.4561ZM153.737 36.3483C151.46 36.3483 149.735 35.8451 148.561 34.8387C147.411 33.8083 146.836 32.2988 146.836 30.31V21.9354H142.99V17.0831H146.836V12.195L152.659 10.937V17.0831H157.978V21.9354H152.659V29.1598C152.659 29.9984 152.838 30.5975 153.198 30.9569C153.581 31.2924 154.24 31.4601 155.175 31.4601C155.654 31.4601 156.085 31.4361 156.468 31.3882C156.876 31.3163 157.319 31.2085 157.798 31.0647V35.7732C157.271 35.9409 156.6 36.0727 155.786 36.1686C154.971 36.2884 154.288 36.3483 153.737 36.3483Z" fill="white"/>
<path d="M163.546 35.8947V17.6H167.14V35.8947H163.546Z" fill="white"/>
<path d="M171.373 35.8947V17.6H174.968V19.9363C175.543 19.0737 176.25 18.4027 177.088 17.9235C177.951 17.4203 178.921 17.1687 180 17.1687C180.742 17.1927 181.353 17.3005 181.833 17.4922V20.727C181.497 20.5832 181.15 20.4874 180.79 20.4395C180.431 20.3676 180.071 20.3316 179.712 20.3316C178.658 20.3316 177.723 20.6192 176.908 21.1943C176.094 21.7454 175.447 22.5601 174.968 23.6383V35.8947H171.373Z" fill="white"/>
<path d="M192.428 36.2182C190.631 36.2182 189.002 35.7989 187.54 34.9602C186.102 34.1215 184.952 32.9834 184.09 31.5457C183.251 30.108 182.832 28.5025 182.832 26.7294C182.832 24.9802 183.239 23.3987 184.054 21.985C184.868 20.5473 185.971 19.4091 187.36 18.5705C188.75 17.7078 190.296 17.2765 191.997 17.2765C193.698 17.2765 195.208 17.7078 196.526 18.5705C197.844 19.4091 198.886 20.5593 199.653 22.0209C200.443 23.4586 200.839 25.088 200.839 26.9091V27.9155H186.426C186.618 28.9219 186.989 29.8204 187.54 30.6112C188.115 31.4019 188.834 32.0249 189.697 32.4802C190.583 32.9354 191.542 33.1631 192.572 33.1631C193.459 33.1631 194.309 33.0313 195.124 32.7677C195.963 32.4802 196.658 32.0728 197.209 31.5457L199.509 33.81C198.431 34.6247 197.316 35.2358 196.166 35.6431C195.04 36.0265 193.794 36.2182 192.428 36.2182ZM186.462 25.2198H197.281C197.137 24.2613 196.801 23.4227 196.274 22.7038C195.771 21.961 195.136 21.3859 194.369 20.9786C193.626 20.5473 192.812 20.3316 191.925 20.3316C191.015 20.3316 190.176 20.5353 189.409 20.9427C188.642 21.35 187.995 21.9251 187.468 22.6679C186.965 23.3867 186.63 24.2374 186.462 25.2198Z" fill="white"/>
<path d="M163.611 14.3728C164.056 14.818 164.588 15.0406 165.206 15.0406C165.849 15.0406 166.393 14.818 166.838 14.3728C167.284 13.9029 167.506 13.3587 167.506 12.7404C167.506 12.0973 167.284 11.5656 166.838 11.1451C166.393 10.6999 165.849 10.4773 165.206 10.4773C164.588 10.4773 164.056 10.6999 163.611 11.1451C163.165 11.5656 162.943 12.0973 162.943 12.7404C162.943 13.3587 163.165 13.9029 163.611 14.3728Z" fill="white"/>
<path d="M200.839 42.6253L210.779 29.5218L201.241 17.071H207.114L213.691 25.8067L220.268 17.071H225.941L216.503 29.4716L226.544 42.6253H220.67L213.591 33.1868L206.512 42.6253H200.839Z" fill="#F84E77"/>
<path d="M220.251 17.0559L213.675 25.7822L216.506 29.4658L225.958 17.0559H220.251Z" fill="white"/>
<path d="M54.2152 47.5978V41.7271H51.8359V40.8276H57.61V41.7271H55.2307V47.5978H54.2152Z" fill="white"/>
<path d="M60.4425 47.5978V40.8276H61.458V43.7291H65.0559V40.8276H66.0715V47.5978H65.0559V44.6479H61.458V47.5978H60.4425Z" fill="white"/>
<path d="M69.4335 47.5978V40.8276H74.4241V41.7174H70.449V43.7485H73.0604V44.6093H70.449V46.708H74.4628V47.5978H69.4335Z" fill="white"/>
<path d="M84.7527 47.7042C84.2498 47.7042 83.7823 47.6172 83.3503 47.4431C82.9248 47.2625 82.5476 47.0143 82.2187 46.6984C81.8963 46.376 81.6449 46.0052 81.4643 45.5861C81.2902 45.1605 81.2032 44.7027 81.2032 44.2127C81.2032 43.7227 81.2902 43.2681 81.4643 42.849C81.6449 42.4234 81.8963 42.0527 82.2187 41.7367C82.5476 41.4143 82.928 41.1661 83.36 40.992C83.792 40.8115 84.2563 40.7212 84.7527 40.7212C85.1074 40.7212 85.4523 40.7696 85.7876 40.8663C86.1294 40.9565 86.4421 41.0887 86.7258 41.2628C87.0159 41.4369 87.2674 41.6465 87.4802 41.8915L86.8032 42.5878C86.5517 42.2848 86.2454 42.0559 85.8843 41.9011C85.5233 41.74 85.1461 41.6594 84.7527 41.6594C84.3917 41.6594 84.0564 41.7238 83.7469 41.8528C83.4438 41.9817 83.1795 42.1623 82.9538 42.3944C82.7281 42.6201 82.5508 42.8877 82.4218 43.1972C82.2993 43.5067 82.2381 43.8452 82.2381 44.2127C82.2381 44.5738 82.2993 44.9091 82.4218 45.2186C82.5508 45.5281 82.7313 45.7989 82.9635 46.031C83.1956 46.2631 83.4664 46.4437 83.7759 46.5726C84.0854 46.7016 84.4207 46.7661 84.7818 46.7661C85.1751 46.7661 85.5458 46.6887 85.894 46.5339C86.2486 46.3727 86.5485 46.1471 86.7935 45.8569L87.4608 46.5339C87.2352 46.7725 86.9773 46.9821 86.6871 47.1626C86.4034 47.3367 86.0939 47.4721 85.7586 47.5688C85.4298 47.6591 85.0945 47.7042 84.7527 47.7042Z" fill="white"/>
<path d="M90.4371 47.5978V40.8276H91.4526V46.6984H95.3504V47.5978H90.4371Z" fill="white"/>
<path d="M98.3608 47.5978V40.8276H103.351V41.7174H99.3763V43.7485H101.988V44.6093H99.3763V46.708H103.39V47.5978H98.3608Z" fill="white"/>
<path d="M108.572 47.5978L105.806 40.8276H106.899L109.191 46.592L111.522 40.8276H112.566L109.762 47.5978H108.572Z" fill="white"/>
<path d="M115.247 47.5978V40.8276H120.238V41.7174H116.263V43.7485H118.874V44.6093H116.263V46.708H120.276V47.5978H115.247Z" fill="white"/>
<path d="M123.303 47.5978V40.8276H126.369C126.82 40.8276 127.214 40.9114 127.549 41.079C127.891 41.2467 128.155 41.482 128.342 41.7851C128.535 42.0817 128.632 42.4299 128.632 42.8296C128.632 43.2745 128.506 43.6582 128.255 43.9806C128.004 44.303 127.665 44.5351 127.239 44.677L128.748 47.5978H127.626L126.224 44.822H124.319V47.5978H123.303ZM124.319 43.9709H126.292C126.691 43.9709 127.011 43.871 127.249 43.6711C127.494 43.4648 127.617 43.1875 127.617 42.8393C127.617 42.504 127.494 42.2332 127.249 42.0269C127.011 41.8206 126.691 41.7174 126.292 41.7174H124.319V43.9709Z" fill="white"/>
<path d="M136.758 47.5978L135.278 40.8276H136.323L137.377 46.002L138.905 40.8276H139.872L141.401 45.9923L142.464 40.8276H143.461L141.981 47.5978H140.936L139.379 42.2783L137.812 47.5978H136.758Z" fill="white"/>
<path d="M145.264 47.5978L148.059 40.8276H149.258L152.024 47.5978H150.922L150.138 45.6151H147.111L146.318 47.5978H145.264ZM147.44 44.7737H149.809L148.629 41.7948L147.44 44.7737Z" fill="white"/>
<path d="M155.508 47.5978V44.9091L152.781 40.8276H153.961L156.04 44.0096L158.12 40.8276H159.251L156.524 44.9284V47.5978H155.508Z" fill="white"/>
</svg>
