<svg version="1.1" xmlns="http://www.w3.org/2000/svg" viewBox="-2077.567375058194 -1373.8240692138672 9057.151660031339 2109.696112060547"><desc>Created with Snap</desc><defs></defs><g><rect x="-2077.567375058194" y="-1373.8240692138672" width="9057.151660031339" height="2109.696112060547" fill="#143d59" fill-opacity="0" style=""></rect><g transform="matrix(16.6329,0,0,16.6329,-1853.5318,-1149.7885)"><g><path d="M78.4,66.5c-5.5,4.8-9.9,15.2-9.9,15.2s-6.9-11.4-12.9-15.3c-9.5-6.1-13.6-6.2-13.6-6.2V65c0,0,7.8,1.2,11.7,4.6   c8.2,7.1,14.8,18.5,14.8,18.5S74.4,75,80.1,70.5C88.1,64.3,95,65,95,65v-4.8C95,60.1,85.1,60.7,78.4,66.5z" fill="#f4b41a" style=""></path><path d="M42,80c-6.4-3.6-17.8-4.3-17.8-4.3s8.7-10.1,10.5-17C37.5,47.9,36.2,44,36.2,44l-4.6,1.6c0,0,1.3,7.7-0.6,12.4   c-4.1,9.9-13,19.8-13,19.8s14.6,1.3,20.7,5.1c8.6,5.4,10.2,12,10.2,12l4.6-1.6C53.5,93.4,49.7,84.4,42,80z" fill="#f4b41a" style=""></path><path d="M35.3,36.8c11.3-0.9,14.6-3.4,14.6-3.4l-3-3.8c0,0-6.9,3.7-12.1,3.4c-10.9-0.6-23.3-5.6-23.3-5.6s3.5,14,1.8,20.9   C10.9,58.2,5,61.8,5,61.8l3,3.8c0,0,7.5-6.5,9.1-15.1c1.3-7.1-1.7-18-1.7-18S28,37.4,35.3,36.8z" fill="#f4b41a" style=""></path><path d="M37.4,17.8c7.3-1.1,16.7-7.4,16.7-7.4s-0.6,13.2,2.4,19.8c4.6,10.2,8,12.5,8,12.5l2.7-4c0,0-5.9-5.2-7.3-10.2   C56.9,18.2,57.7,5,57.7,5s-12.3,7.8-19.5,8.5c-10.2,1-15.6-3.3-15.6-3.3l-2.7,4.1C19.9,14.2,28.6,19.1,37.4,17.8z" fill="#f4b41a" style=""></path><path d="M65,60.5c0,0,3.1-7.2,7.4-10.1c9-6.1,21.9-9.7,21.9-9.7s-11.5-8.9-14.5-15.4c-4.2-9.1-1.9-15.6-1.9-15.6l-4.8-1.2   c0,0-1.9,9.6,2.2,17.4c3.4,6.4,12.5,13.2,12.5,13.2S75,42.9,69.6,47.8c-8.3,7.6-9.4,11.5-9.4,11.5L65,60.5z" fill="#f4b41a" style=""></path></g><desc>Created with Snap</desc><defs></defs></g><g><g transform="matrix(1.024,0,0,-1.024,0,0)"><path d="M641 12Q644 12 644 6Q644 0 641 0L529 0Q521 0 500 -1Q480 -1 443 50Q406 102 372 145L219 338L186 306L186 81Q186 51 192 36Q198 22 215 17Q233 12 271 12Q274 12 274 6Q274 0 271 0Q241 0 223 1L153 2L85 1Q67 0 35 0Q33 0 33 6Q33 12 35 12Q73 12 90 17Q108 22 114 36Q121 51 121 81L121 544Q121 574 115 588Q109 602 91 607Q74 613 36 613Q34 613 34 619Q34 625 36 625L86 624Q128 622 153 622Q182 622 224 624L271 625Q274 625 274 619Q274 613 271 613Q234 613 216 607Q199 601 192 586Q186 572 186 542L186 331L400 544Q433 577 433 593Q433 613 374 613Q372 613 372 619Q372 625 374 625L417 624Q457 622 490 622Q523 622 559 624L596 625Q599 625 599 619Q599 613 596 613Q555 613 509 595Q463 577 423 538L265 383L409 199Q482 104 520 65Q559 26 580 19Q601 12 641 12ZM1125 149Q1125 151 1129 151Q1132 151 1134 150Q1137 149 1137 147Q1128 84 1128 15Q1128 7 1124 3Q1121 0 1112 0L693 0Q691 0 691 6Q691 12 693 12Q731 12 748 17Q766 22 772 36Q779 51 779 81L779 544Q779 574 772 588Q766 602 748 607Q731 613 693 613Q691 613 691 619Q691 625 693 625L1095 625Q1104 625 1104 616L1106 493Q1106 490 1101 489Q1096 489 1095 492Q1092 545 1063 574Q1034 604 986 604L925 604Q890 604 873 598Q857 593 850 579Q844 566 844 539L844 336L966 336Q1014 336 1034 352Q1055 368 1055 406Q1055 408 1061 408Q1067 408 1067 406L1066 325Q1066 296 1067 281L1068 233Q1068 231 1062 231Q1056 231 1056 233Q1056 277 1034 296Q1013 315 963 315L844 315L844 85Q844 57 850 44Q856 31 872 26Q888 21 922 21L1002 21Q1050 21 1082 55Q1114 89 1125 149ZM1372 543L1372 85Q1372 56 1378 43Q1384 30 1400 25Q1416 21 1452 21L1561 21Q1618 21 1652 56Q1686 91 1697 153Q1697 156 1702 155Q1708 155 1708 152Q1699 69 1699 15Q1699 7 1696 3Q1693 0 1684 0L1222 0Q1220 0 1220 6Q1220 12 1222 12Q1260 12 1277 17Q1295 22 1301 36Q1307 51 1307 81L1307 544Q1307 574 1301 588Q1295 602 1277 607Q1260 613 1222 613Q1220 613 1220 619Q1220 625 1222 625L1271 624Q1313 622 1339 622Q1367 622 1409 624L1457 625Q1460 625 1460 619Q1460 613 1457 613Q1420 613 1402 607Q1385 602 1378 587Q1372 573 1372 543ZM2195 149Q2195 151 2199 151Q2202 151 2204 150Q2207 149 2207 147Q2198 84 2198 15Q2198 7 2194 3Q2191 0 2182 0L1763 0Q1761 0 1761 6Q1761 12 1763 12Q1801 12 1818 17Q1836 22 1842 36Q1849 51 1849 81L1849 544Q1849 574 1842 588Q1836 602 1818 607Q1801 613 1763 613Q1761 613 1761 619Q1761 625 1763 625L2165 625Q2174 625 2174 616L2176 493Q2176 490 2171 489Q2166 489 2165 492Q2162 545 2133 574Q2104 604 2056 604L1995 604Q1960 604 1943 598Q1927 593 1920 579Q1914 566 1914 539L1914 336L2036 336Q2084 336 2104 352Q2125 368 2125 406Q2125 408 2131 408Q2137 408 2137 406L2136 325Q2136 296 2137 281L2138 233Q2138 231 2132 231Q2126 231 2126 233Q2126 277 2104 296Q2083 315 2033 315L1914 315L1914 85Q1914 57 1920 44Q1926 31 1942 26Q1958 21 1992 21L2072 21Q2120 21 2152 55Q2184 89 2195 149ZM2940 12Q2942 12 2942 6Q2942 0 2940 0L2811 0Q2786 0 2717 85Q2649 171 2551 324Q2527 317 2497 317Q2478 317 2452 319L2452 81Q2452 50 2458 36Q2464 22 2481 17Q2499 12 2537 12Q2540 12 2540 6Q2540 0 2537 0Q2506 0 2488 1L2419 2L2351 1Q2333 0 2300 0Q2298 0 2298 6Q2298 12 2300 12Q2338 12 2356 17Q2374 23 2381 37Q2388 51 2388 81L2388 544Q2388 574 2381 588Q2375 602 2357 607Q2340 613 2302 613Q2299 613 2299 619Q2299 625 2302 625L2351 624Q2393 622 2419 622Q2437 622 2453 623Q2469 624 2481 625Q2513 628 2539 628Q2620 628 2664 595Q2708 562 2708 503Q2708 455 2680 412Q2652 370 2606 345Q2691 218 2749 146Q2807 75 2852 43Q2897 12 2940 12ZM2452 344Q2477 340 2511 340Q2580 340 2610 369Q2640 399 2640 468Q2640 613 2518 613Q2491 613 2477 608Q2464 604 2458 589Q2452 575 2452 542L2452 344ZM3569 -12Q3460 -12 3379 30Q3298 72 3255 144Q3213 216 3213 305Q3213 402 3262 477Q3312 552 3398 594Q3485 636 3594 636Q3643 636 3687 626Q3732 617 3760 600Q3768 595 3769 591Q3771 588 3772 577L3784 465Q3784 462 3778 461Q3773 461 3772 464Q3750 536 3692 575Q3635 614 3551 614Q3425 614 3356 541Q3287 468 3287 341Q3287 244 3326 167Q3366 91 3436 48Q3506 5 3593 5Q3644 5 3672 14Q3700 23 3713 49Q3726 75 3726 126Q3726 178 3719 198Q3713 219 3690 226Q3668 233 3613 233Q3607 233 3607 241Q3607 244 3608 246Q3610 249 3612 249Q3690 244 3738 244Q3785 244 3836 247Q3838 247 3839 244Q3841 242 3841 240Q3841 233 3836 233Q3812 234 3802 226Q3792 219 3789 196Q3786 173 3786 116Q3786 71 3789 52Q3793 33 3793 28Q3793 22 3791 20Q3789 18 3782 16Q3661 -12 3569 -12ZM4561 12Q4563 12 4563 6Q4563 0 4561 0L4432 0Q4407 0 4338 85Q4270 171 4172 324Q4148 317 4118 317Q4099 317 4073 319L4073 81Q4073 50 4079 36Q4085 22 4102 17Q4120 12 4158 12Q4161 12 4161 6Q4161 0 4158 0Q4127 0 4109 1L4040 2L3972 1Q3954 0 3921 0Q3919 0 3919 6Q3919 12 3921 12Q3959 12 3977 17Q3995 23 4002 37Q4009 51 4009 81L4009 544Q4009 574 4002 588Q3996 602 3978 607Q3961 613 3923 613Q3920 613 3920 619Q3920 625 3923 625L3972 624Q4014 622 4040 622Q4058 622 4074 623Q4090 624 4102 625Q4134 628 4160 628Q4241 628 4285 595Q4329 562 4329 503Q4329 455 4301 412Q4273 370 4227 345Q4312 218 4370 146Q4428 75 4473 43Q4518 12 4561 12ZM4073 344Q4098 340 4132 340Q4201 340 4231 369Q4261 399 4261 468Q4261 613 4139 613Q4112 613 4098 608Q4085 604 4079 589Q4073 575 4073 542L4073 344ZM4917 -12Q4824 -12 4751 31Q4679 75 4639 149Q4600 224 4600 312Q4600 415 4652 488Q4704 562 4785 599Q4867 636 4952 636Q5047 636 5119 591Q5191 547 5229 474Q5268 401 5268 319Q5268 228 5220 152Q5172 76 5091 32Q5011 -12 4917 -12ZM4952 9Q5020 9 5074 42Q5129 75 5160 139Q5192 203 5192 291Q5192 385 5157 458Q5122 531 5058 572Q4995 613 4910 613Q4800 613 4738 542Q4676 471 4676 347Q4676 253 4711 175Q4746 98 4809 53Q4872 9 4952 9ZM5889 515Q5889 613 5802 613Q5799 613 5799 619Q5799 625 5802 625L5845 624Q5881 622 5902 622Q5919 622 5951 624L5993 625Q5995 625 5995 619Q5995 613 5993 613Q5913 613 5913 515L5913 231Q5913 116 5849 51Q5785 -13 5677 -13Q5603 -13 5547 16Q5492 45 5461 98Q5431 152 5431 224L5431 544Q5431 574 5425 588Q5419 602 5401 607Q5384 613 5346 613Q5344 613 5344 619Q5344 625 5346 625L5395 624Q5437 622 5463 622Q5491 622 5533 624L5581 625Q5584 625 5584 619Q5584 613 5581 613Q5544 613 5526 607Q5508 601 5502 586Q5496 572 5496 542L5496 259Q5496 142 5549 79Q5603 17 5699 17Q5789 17 5839 73Q5889 130 5889 230L5889 515ZM6207 85Q6207 53 6215 38Q6224 24 6248 18Q6273 12 6326 12Q6329 12 6329 6Q6329 0 6326 0Q6285 0 6262 1L6175 2L6108 1Q6089 0 6057 0Q6055 0 6055 6Q6055 12 6057 12Q6095 12 6112 17Q6130 22 6136 36Q6142 51 6142 81L6142 544Q6142 574 6136 588Q6130 602 6112 607Q6095 613 6057 613Q6055 613 6055 619Q6055 625 6057 625L6107 624Q6149 622 6174 622Q6199 622 6230 625Q6242 625 6268 626Q6294 628 6313 628Q6405 628 6460 587Q6516 546 6516 462Q6516 396 6483 351Q6451 306 6400 284Q6349 262 6295 262Q6266 262 6247 267Q6244 267 6244 272Q6244 275 6245 278Q6247 281 6249 280Q6265 276 6285 276Q6351 276 6396 319Q6442 362 6442 443Q6442 522 6399 567Q6356 613 6289 613Q6253 613 6237 609Q6221 605 6214 590Q6207 576 6207 542L6207 85Z" fill="#999" style=""></path></g></g></g></svg>