<svg width="177" height="23" viewBox="0 0 177 23" fill="none" xmlns="http://www.w3.org/2000/svg">
<path d="M3.36172 22.5409V3.63615H0.796387V0.50293H7.56669V22.5438H3.36172V22.5409Z" fill="#FF0000"/>
<path d="M13.9324 22.5409V15.1061C13.9324 11.8059 15.6942 9.96994 20.0838 9.96994H29.1398C31.8599 9.96994 32.7258 9.07097 32.7258 7.46922V6.33599C32.7258 4.13395 31.7051 3.60102 28.9851 3.60102H22.307C19.1852 3.60102 18.1347 4.13395 18.1347 6.46776V7.36673H13.9297V5.70056C13.9297 1.33162 15.8164 0.5 21.2239 0.5H29.7234C35.0088 0.5 36.9579 1.33455 36.9579 5.7357V8.30377C36.9579 11.3374 35.3509 13.0387 30.003 13.0387H21.2239C18.9979 13.0387 18.1319 14.0402 18.1319 15.8381V19.4047H36.9579V22.5379H13.9324V22.5409Z" fill="#FF0000"/>
<path d="M44.9662 22.5409V3.63615H42.4009V0.50293H49.1712V22.5438H44.9662V22.5409Z" fill="#FF0000"/>
<path d="M62.7389 22.5409C57.3286 22.5409 55.5044 21.6068 55.5044 17.273V5.77083C55.5044 1.46925 57.3286 0.50293 62.7389 0.50293H77.2676V3.63615H63.8519C60.7925 3.63615 59.7419 4.30378 59.7419 6.70494V16.374C59.7419 18.7752 60.8549 19.4077 63.8519 19.4077H77.2676V22.5409H62.7389Z" fill="white"/>
<path d="M90.4661 22.5409C85.0558 22.5409 83.2642 21.6419 83.2642 17.273V5.77083C83.2642 1.36969 85.1183 0.50293 90.4661 0.50293H100.019C105.429 0.50293 107.283 1.36969 107.283 5.77083V17.273C107.283 21.6741 105.429 22.5409 100.019 22.5409H90.4661ZM103.108 6.70494C103.108 4.20422 102.087 3.63615 98.9358 3.63615H91.609C88.517 3.63615 87.4664 4.16909 87.4664 6.70494V16.374C87.4664 18.8074 88.3948 19.4077 91.609 19.4077H98.9358C102.087 19.4077 103.108 18.8396 103.108 16.374V6.70494Z" fill="white"/>
<path d="M117.762 6.83655H113.557V22.5407H117.762V6.83655Z" fill="white"/>
<path d="M117.762 0.50293H113.557V4.78695H117.762V0.50293Z" fill="#FF0000"/>
<path d="M142.395 22.5409L128.238 6.47069V22.5409H124.22V0.5H128.672L142.52 16.9391V0.5H146.57V22.5409H142.395Z" fill="white"/>
<path d="M167.092 11.3374L176.705 22.5409H171.637L164.527 14.3067L157.447 22.5409H152.132L161.869 11.5717L152.411 0.50293H157.482L164.467 8.63758L171.607 0.50293H176.52L167.092 11.3374Z" fill="white"/>
</svg>
