<svg width="172" height="42" viewBox="0 0 172 42" fill="none" xmlns="http://www.w3.org/2000/svg">
<g clip-path="url(#clip0_199_261)">
<path d="M36.6922 11.5288C36.5654 11.4048 36.4649 11.2569 36.3966 11.0936C36.3283 10.9304 36.2936 10.7552 36.2946 10.5784V10.4721C36.2928 10.2943 36.3271 10.118 36.3954 9.95367C36.4638 9.78936 36.5647 9.64044 36.6922 9.51582C36.8167 9.38787 36.9663 9.28674 37.1317 9.2187C37.2971 9.15067 37.4748 9.11718 37.6537 9.12032H37.814C37.993 9.11718 38.1707 9.15067 38.3361 9.2187C38.5015 9.28674 38.6511 9.38787 38.7755 9.51582C38.9031 9.64044 39.004 9.78936 39.0723 9.95367C39.1407 10.118 39.175 10.2943 39.1732 10.4721V10.5784C39.1742 10.7552 39.1395 10.9304 39.0712 11.0936C39.0029 11.2569 38.9023 11.4048 38.7755 11.5288C38.6511 11.6567 38.5015 11.7578 38.3361 11.8259C38.1707 11.8939 37.993 11.9274 37.814 11.9243H37.6537C37.4748 11.9274 37.2971 11.8939 37.1317 11.8259C36.9663 11.7578 36.8167 11.6567 36.6922 11.5288ZM36.8525 27.9805C36.6332 27.7606 36.5095 27.4638 36.5082 27.1541V15.7671C36.5041 15.6078 36.5325 15.4493 36.5917 15.3012C36.6509 15.1531 36.7396 15.0184 36.8525 14.9053C36.9623 14.7903 37.0951 14.6995 37.2422 14.6385C37.3894 14.5775 37.5478 14.5477 37.7072 14.5511C37.8691 14.5462 38.0303 14.5743 38.1808 14.6337C38.3314 14.693 38.4682 14.7824 38.5827 14.8963C38.6972 15.0103 38.7871 15.1463 38.8468 15.296C38.9065 15.4458 38.9348 15.6061 38.9298 15.7671V27.1541C38.9307 27.3082 38.9001 27.4609 38.84 27.603C38.7798 27.745 38.6912 27.8735 38.5797 27.9805C38.4664 28.0938 38.3313 28.1831 38.1823 28.243C38.0333 28.3029 37.8737 28.332 37.7131 28.3288C37.5535 28.3312 37.395 28.3017 37.2471 28.2418C37.0992 28.182 36.965 28.0931 36.8525 27.9805Z" fill="white"/>
<path d="M42.8234 27.9801C42.6019 27.7611 42.4761 27.4642 42.4732 27.1537V9.94045C42.4699 9.7807 42.4992 9.62195 42.5594 9.47381C42.6196 9.32567 42.7094 9.19122 42.8234 9.07861C42.9318 8.96305 43.0633 8.87132 43.2095 8.8093C43.3557 8.74729 43.5133 8.71637 43.6722 8.71852C43.8351 8.71275 43.9974 8.7404 44.1491 8.79976C44.3008 8.85913 44.4386 8.94893 44.5538 9.06356C44.6691 9.1782 44.7594 9.31522 44.8191 9.46609C44.8788 9.61695 44.9066 9.77843 44.9008 9.94045V27.1537C44.8982 27.3106 44.8625 27.4652 44.796 27.6076C44.7296 27.7499 44.6338 27.8768 44.515 27.9801C44.4017 28.0934 44.2666 28.1827 44.1176 28.2426C43.9687 28.3025 43.809 28.3316 43.6484 28.3284C43.4945 28.3281 43.3421 28.2972 43.2004 28.2373C43.0587 28.1775 42.9305 28.09 42.8234 27.9801Z" fill="white"/>
<path d="M48.7884 27.9804C48.5691 27.7605 48.4455 27.4637 48.4442 27.1539V9.94073C48.4401 9.7814 48.4685 9.6229 48.5277 9.47479C48.5868 9.32667 48.6755 9.192 48.7884 9.07889C48.898 8.96317 49.0305 8.87139 49.1777 8.8094C49.3248 8.74741 49.4833 8.71655 49.6431 8.71881C49.8057 8.7139 49.9676 8.74228 50.1187 8.80219C50.2698 8.8621 50.4069 8.95227 50.5215 9.06708C50.6359 9.18157 50.7255 9.31817 50.7847 9.46843C50.8439 9.6187 50.8715 9.77944 50.8658 9.94073V27.1539C50.8687 27.3121 50.8379 27.469 50.7755 27.6145C50.7131 27.76 50.6205 27.8907 50.5037 27.9981C50.3912 28.1107 50.257 28.1996 50.1091 28.2594C49.9612 28.3193 49.8027 28.3488 49.6431 28.3463C49.4832 28.3457 49.3251 28.313 49.1782 28.2501C49.0313 28.1872 48.8988 28.0955 48.7884 27.9804Z" fill="white"/>
<path d="M55.4063 26.6167C54.1916 25.4006 53.5842 23.675 53.5842 21.4397C53.5711 20.2473 53.8076 19.0653 54.2786 17.9687C54.7167 16.9267 55.4485 16.0329 56.3857 15.395C57.4432 14.712 58.6867 14.3698 59.9469 14.4151C61.1513 14.3904 62.337 14.7145 63.3597 15.3478C64.3038 15.94 65.0608 16.785 65.5439 17.7857C66.0468 18.8216 66.3028 19.9589 66.2917 21.1091C66.2918 21.2677 66.2598 21.4247 66.1976 21.5707C66.1353 21.7167 66.0442 21.8487 65.9295 21.9589C65.8148 22.0691 65.679 22.1552 65.5302 22.212C65.3813 22.2689 65.2225 22.2953 65.0631 22.2898H56.0355C56.109 23.3923 56.6038 24.425 57.4184 25.1763C58.3416 25.9176 59.5105 26.2882 60.6947 26.2153C61.3539 26.2253 62.0118 26.1539 62.6534 26.0028C63.219 25.8644 63.7681 25.6665 64.2915 25.4125C64.4422 25.3428 64.6062 25.3065 64.7723 25.3062C65.0506 25.3045 65.3187 25.4103 65.5202 25.6013C65.6227 25.696 65.7037 25.8113 65.758 25.9395C65.8122 26.0678 65.8384 26.206 65.8347 26.3451C65.818 26.5546 65.7454 26.7559 65.6244 26.9282C65.5034 27.1004 65.3383 27.2374 65.1462 27.325C64.4969 27.692 63.808 27.9851 63.0926 28.1987C62.2395 28.4136 61.3608 28.5109 60.4811 28.4879C58.3166 28.4682 56.6251 27.8445 55.4063 26.6167ZM63.8939 20.324C63.8703 19.5515 63.6343 18.8001 63.2113 18.1517C62.8456 17.5963 62.3319 17.1528 61.7275 16.8708C61.1734 16.5999 60.5643 16.459 59.9469 16.459C59.3295 16.459 58.7203 16.5999 58.1663 16.8708C57.5672 17.1537 57.0595 17.5973 56.7002 18.1517C56.2884 18.8042 56.059 19.554 56.0355 20.324H63.8939Z" fill="white"/>
<path d="M69.1644 27.9802C68.956 27.7557 68.8432 27.4594 68.8499 27.1538V15.7669C68.8458 15.6076 68.8742 15.4491 68.9334 15.301C68.9925 15.1528 69.0812 15.0182 69.1941 14.9051C69.304 14.7901 69.4367 14.6992 69.5839 14.6383C69.7311 14.5773 69.8894 14.5475 70.0488 14.5509C70.2067 14.5524 70.3628 14.5852 70.5078 14.6474C70.6528 14.7097 70.7839 14.8001 70.8933 14.9133C71.0028 15.0265 71.0884 15.1604 71.1452 15.3069C71.2019 15.4535 71.2288 15.6099 71.224 15.7669V16.8531C71.8529 16.1512 72.5902 15.5534 73.4082 15.0821C74.2575 14.6224 75.2133 14.3924 76.18 14.4151C77.0784 14.3927 77.9637 14.6328 78.7263 15.1058C79.4451 15.5647 80.0174 16.2179 80.3763 16.9888C80.7707 17.8067 80.9736 18.7027 80.9698 19.6098V27.1538C80.9713 27.3118 80.9398 27.4683 80.8775 27.6135C80.8152 27.7588 80.7234 27.8897 80.6078 27.998C80.4945 28.1113 80.3593 28.2006 80.2104 28.2605C80.0614 28.3204 79.9018 28.3495 79.7412 28.3462C79.5832 28.3499 79.4261 28.3208 79.28 28.2609C79.1339 28.2009 79.0019 28.1114 78.8925 27.998C78.7807 27.8874 78.6921 27.7559 78.632 27.6109C78.5719 27.466 78.5414 27.3106 78.5423 27.1538V19.8754C78.5423 17.7208 77.5689 16.6405 75.6102 16.6405C74.7673 16.6301 73.9405 16.8706 73.2361 17.3312C72.4722 17.8408 71.7933 18.4662 71.224 19.1847V27.1538C71.2266 27.3114 71.1962 27.4677 71.1349 27.613C71.0736 27.7583 70.9827 27.8894 70.8679 27.998C70.6458 28.2139 70.3475 28.3347 70.0369 28.3344C69.8749 28.3378 69.7139 28.3081 69.5638 28.2471C69.4138 28.1862 69.2779 28.0954 69.1644 27.9802Z" fill="white"/>
<path d="M84.5607 11.5288C84.4339 11.4048 84.3334 11.2569 84.2651 11.0936C84.1967 10.9304 84.1621 10.7552 84.163 10.5784V10.4721C84.1613 10.2943 84.1956 10.118 84.2639 9.95367C84.3322 9.78936 84.4332 9.64044 84.5607 9.51582C84.6852 9.38787 84.8347 9.28674 85.0001 9.2187C85.1655 9.15067 85.3432 9.11718 85.5222 9.12032H85.6825C85.8614 9.11718 86.0392 9.15067 86.2046 9.2187C86.37 9.28674 86.5195 9.38787 86.644 9.51582C86.7715 9.64044 86.8725 9.78936 86.9408 9.95367C87.0091 10.118 87.0434 10.2943 87.0417 10.4721V10.5784C87.0426 10.7552 87.0079 10.9304 86.9396 11.0936C86.8713 11.2569 86.7708 11.4048 86.644 11.5288C86.5195 11.6567 86.37 11.7578 86.2046 11.8259C86.0392 11.8939 85.8614 11.9274 85.6825 11.9243H85.5222C85.3432 11.9274 85.1655 11.8939 85.0001 11.8259C84.8347 11.7578 84.6852 11.6567 84.5607 11.5288ZM84.721 27.9805C84.6102 27.8695 84.5228 27.7377 84.4637 27.5928C84.4046 27.4478 84.375 27.2927 84.3767 27.1363V15.7671C84.3726 15.6078 84.401 15.4493 84.4602 15.3012C84.5193 15.1531 84.6081 15.0184 84.721 14.9053C84.8308 14.7903 84.9635 14.6995 85.1107 14.6385C85.2579 14.5775 85.4162 14.5477 85.5756 14.5511C85.7375 14.5462 85.8987 14.5743 86.0493 14.6337C86.1999 14.693 86.3366 14.7824 86.4512 14.8963C86.5657 15.0103 86.6556 15.1463 86.7153 15.296C86.775 15.4458 86.8033 15.6061 86.7983 15.7671V27.154C86.8009 27.3116 86.7706 27.468 86.7093 27.6133C86.648 27.7585 86.557 27.8896 86.4422 27.9982C86.329 28.1115 86.1938 28.2008 86.0448 28.2607C85.8959 28.3206 85.7363 28.3497 85.5756 28.3465C85.4157 28.3459 85.2576 28.3131 85.1107 28.2502C84.9639 28.1873 84.8313 28.0956 84.721 27.9805Z" fill="white"/>
<path d="M92.4369 27.7439C91.7311 27.2896 91.1676 26.6474 90.8106 25.8904C90.4167 25.0703 90.2138 24.1724 90.217 23.2635V15.7431C90.2133 15.584 90.2436 15.4259 90.3061 15.2793C90.3685 15.1327 90.4616 15.0011 90.5791 14.8931C90.6921 14.7815 90.8266 14.6937 90.9744 14.6349C91.1223 14.576 91.2805 14.5474 91.4397 14.5507C91.7546 14.5507 92.0565 14.6751 92.2791 14.8965C92.5017 15.1179 92.6268 15.4182 92.6268 15.7313V23.0215C92.6268 25.182 93.6061 26.2564 95.5588 26.2564C96.4016 26.2657 97.2281 26.0253 97.933 25.5657C98.6893 25.0574 99.3586 24.4316 99.9154 23.7122V15.7431C99.9116 15.584 99.942 15.4259 100.004 15.2793C100.067 15.1327 100.16 15.0011 100.277 14.8931C100.391 14.7808 100.527 14.6925 100.675 14.6337C100.824 14.5749 100.984 14.5466 101.144 14.5507C101.459 14.5507 101.761 14.6751 101.983 14.8965C102.206 15.1179 102.331 15.4182 102.331 15.7313V27.1064C102.334 27.2661 102.305 27.4249 102.245 27.573C102.185 27.7212 102.095 27.8556 101.981 27.9682C101.872 28.0832 101.74 28.1746 101.594 28.2365C101.448 28.2985 101.291 28.3298 101.132 28.3283C100.971 28.3301 100.811 28.2991 100.662 28.2371C100.513 28.1752 100.378 28.0837 100.266 27.9682C100.149 27.8566 100.057 27.7226 99.9952 27.5744C99.9329 27.4263 99.9017 27.267 99.9035 27.1064V26.0202C99.2754 26.7229 98.5379 27.3208 97.7193 27.7912C96.8755 28.2486 95.9261 28.4786 94.9653 28.4582C94.0705 28.4705 93.1916 28.2222 92.4369 27.7439Z" fill="white"/>
<path d="M106.242 27.9804C106.131 27.8698 106.042 27.7383 105.982 27.5933C105.922 27.4484 105.891 27.293 105.892 27.1362V15.767C105.889 15.6073 105.918 15.4485 105.978 15.3004C106.039 15.1522 106.128 15.0178 106.242 14.9052C106.352 14.791 106.483 14.7005 106.629 14.6396C106.776 14.5786 106.933 14.5484 107.091 14.551C107.416 14.551 107.728 14.6789 107.958 14.9068C108.188 15.1347 108.318 15.444 108.32 15.767V16.8532C108.796 16.1569 109.4 15.5561 110.1 15.0823C110.922 14.589 111.872 14.3487 112.831 14.3916C113.748 14.3688 114.648 14.6491 115.389 15.1885C116.079 15.6819 116.613 16.3621 116.926 17.1483C117.407 16.2847 118.121 15.5714 118.987 15.0887C119.853 14.6059 120.837 14.3727 121.829 14.4152C122.719 14.3826 123.596 14.6441 124.321 15.159C124.991 15.6442 125.513 16.304 125.829 17.0657C126.149 17.839 126.312 18.6674 126.31 19.5036V27.1539C126.313 27.3121 126.282 27.469 126.22 27.6145C126.157 27.76 126.064 27.8907 125.948 27.9981C125.834 28.1114 125.699 28.2007 125.55 28.2606C125.401 28.3205 125.242 28.3496 125.081 28.3463C124.766 28.3463 124.464 28.222 124.242 28.0005C124.019 27.7791 123.894 27.4789 123.894 27.1657V19.9818C123.969 19.0965 123.761 18.2103 123.301 17.4494C123.04 17.1588 122.713 16.934 122.348 16.7935C121.983 16.6529 121.589 16.6005 121.199 16.6406C120.389 16.6126 119.593 16.8604 118.944 17.3431C118.312 17.8602 117.775 18.4835 117.359 19.1849V27.1539C117.362 27.3115 117.332 27.4678 117.27 27.6131C117.209 27.7584 117.118 27.8895 117.003 27.9981C116.89 28.1114 116.755 28.2007 116.606 28.2606C116.457 28.3205 116.297 28.3496 116.137 28.3463C115.822 28.3463 115.52 28.222 115.297 28.0005C115.075 27.7791 114.95 27.4789 114.95 27.1657V19.9818C115.022 19.0967 114.814 18.2114 114.356 17.4494C114.087 17.1479 113.748 16.9165 113.368 16.7755C112.988 16.6345 112.58 16.5882 112.178 16.6406C111.369 16.6111 110.575 16.8591 109.928 17.3431C109.296 17.8602 108.759 18.4835 108.344 19.1849V27.1539C108.346 27.3121 108.316 27.469 108.253 27.6145C108.191 27.76 108.098 27.8907 107.981 27.9981C107.868 28.1114 107.733 28.2007 107.584 28.2606C107.435 28.3205 107.276 28.3496 107.115 28.3463C106.952 28.3481 106.79 28.3166 106.64 28.2536C106.49 28.1907 106.355 28.0976 106.242 27.9804Z" fill="white"/>
<path d="M140.43 21.3098C140.43 18.0986 138.821 16.062 136.305 16.062C133.788 16.062 132.15 18.0986 132.15 21.3098C132.15 24.521 133.759 26.5281 136.305 26.5281C138.851 26.5281 140.43 24.5033 140.43 21.3098Z" fill="white"/>
<path d="M165.756 22.4312V26.2859H171.341C171.686 24.9561 171.899 23.5958 171.976 22.2246C171.733 22.3653 171.456 22.4368 171.175 22.4312H165.756Z" fill="white"/>
<path d="M165.756 19.9818H171.175C171.466 19.9761 171.752 20.054 172 20.2061C171.95 18.8924 171.777 17.5861 171.484 16.3042H165.756V19.9818Z" fill="white"/>
<path d="M162.539 27.2719V15.3478C162.513 15.1286 162.536 14.9063 162.607 14.6969C162.677 14.4876 162.794 14.2965 162.947 14.1373C163.101 13.978 163.289 13.8547 163.496 13.7762C163.704 13.6977 163.926 13.6659 164.147 13.6832H170.676C169.096 9.45288 166.188 5.84133 162.382 3.38348C158.577 0.925628 154.076 -0.247804 149.548 0.0369981C145.019 0.3218 140.704 2.04969 137.24 4.96472C133.776 7.87976 131.348 11.8269 130.316 16.2215C131.592 14.4506 133.652 13.4175 136.251 13.4175C140.804 13.4175 143.665 16.4576 143.665 21.3335C143.665 26.2094 140.804 29.2199 136.251 29.2199C135.176 29.2598 134.105 29.0544 133.122 28.6196C132.139 28.1848 131.268 27.532 130.577 26.7111C131.775 30.9189 134.263 34.65 137.694 37.384C141.126 40.118 145.33 41.7185 149.72 41.9623C154.11 42.206 158.467 41.0808 162.184 38.7436C165.9 36.4064 168.79 32.9739 170.451 28.9248H164.147C163.927 28.9417 163.706 28.9102 163.499 28.8323C163.293 28.7545 163.106 28.6323 162.953 28.4744C162.799 28.3166 162.682 28.127 162.611 27.9191C162.539 27.7113 162.515 27.4903 162.539 27.2719ZM159.393 27.5907C159.416 27.8011 159.391 28.014 159.32 28.2135C159.249 28.4129 159.133 28.5939 158.982 28.743C158.831 28.8921 158.648 29.0055 158.447 29.0748C158.246 29.1441 158.032 29.1674 157.82 29.1432C157.493 29.1516 157.17 29.0701 156.886 28.9077C156.602 28.7452 156.369 28.5081 156.212 28.2223L149.57 18.9369H149.469V27.5435C149.469 27.949 149.307 28.3378 149.019 28.6246C148.731 28.9113 148.34 29.0724 147.932 29.0724C147.524 29.0724 147.133 28.9113 146.845 28.6246C146.557 28.3378 146.395 27.949 146.395 27.5435V15.0468C146.373 14.8304 146.401 14.6119 146.475 14.4073C146.549 14.2027 146.668 14.017 146.823 13.8638C146.978 13.7106 147.165 13.5938 147.372 13.5217C147.578 13.4496 147.798 13.4241 148.015 13.4471C148.333 13.4555 148.644 13.5458 148.917 13.7093C149.189 13.8728 149.414 14.1038 149.57 14.3797L156.236 23.6121H156.319V15.0586C156.319 14.6531 156.481 14.2642 156.769 13.9775C157.057 13.6908 157.448 13.5297 157.856 13.5297C158.264 13.5297 158.655 13.6908 158.943 13.9775C159.231 14.2642 159.393 14.6531 159.393 15.0586V27.5907Z" fill="white"/>
<path d="M28.7507 29.4027C26.4834 29.4027 24.6435 27.9388 24.6435 26.1325V7.13063C24.6435 5.3243 26.4834 3.86035 28.7507 3.86035C31.0121 3.86035 32.8521 5.3243 32.8521 7.13063V26.1325C32.8521 27.9388 31.0121 29.4027 28.7507 29.4027Z" fill="white"/>
<path d="M31.1545 4.13231C30.7153 3.81837 30.2174 3.59503 29.6901 3.47543C29.1627 3.35582 28.6166 3.34239 28.084 3.4359C27.5514 3.52942 27.0429 3.728 26.5886 4.01994C26.1344 4.31189 25.7434 4.6913 25.4388 5.13582L17.1709 17.054L20.9398 22.3667C21.4809 23.128 21.7409 24.0518 21.6758 24.9818L32.1517 9.91727C32.7756 9.01372 33.0205 7.90375 32.8343 6.8234C32.6481 5.74306 32.0454 4.77758 31.1545 4.13231Z" fill="white"/>
<path d="M18.7556 28.665C19.1972 28.3575 19.5733 27.9663 19.8625 27.5139C20.1518 27.0615 20.3483 26.5568 20.441 26.0286C20.5336 25.5005 20.5205 24.9594 20.4024 24.4363C20.2843 23.9132 20.0635 23.4185 19.7528 22.9804L7.46069 5.57831C6.83419 4.69397 5.88056 4.0929 4.80902 3.90699C3.73748 3.72107 2.63554 3.96548 1.74497 4.5866C1.30342 4.89411 0.92726 5.28529 0.638055 5.73771C0.348849 6.19012 0.15229 6.69486 0.0596513 7.22299C-0.0329878 7.75112 -0.0198846 8.29225 0.0982094 8.81533C0.216303 9.33841 0.437065 9.83316 0.747833 10.2712L13.0577 27.6733C13.6839 28.5526 14.6341 29.1502 15.7014 29.336C16.7686 29.5217 17.8664 29.2806 18.7556 28.665Z" fill="white"/>
<path d="M8.20263 7.92762C8.20263 5.67486 6.36641 3.84863 4.10131 3.84863C1.83622 3.84863 0 5.67486 0 7.92762V31.6342C0 33.8869 1.83622 35.7131 4.10131 35.7131C6.36641 35.7131 8.20263 33.8869 8.20263 31.6342V7.92762Z" fill="white"/>
<path d="M16.0803 38.397C16.023 38.397 15.9743 38.377 15.9342 38.3369C15.8941 38.2968 15.8741 38.2481 15.8741 38.1908V32.5962C15.8741 32.5332 15.8941 32.4816 15.9342 32.4415C15.9743 32.4014 16.023 32.3813 16.0803 32.3813H19.8101C19.8731 32.3813 19.9246 32.4014 19.9648 32.4415C20.0049 32.4816 20.0249 32.5332 20.0249 32.5962V33.1978C20.0249 33.2608 20.0049 33.3123 19.9648 33.3525C19.9246 33.3868 19.8731 33.404 19.8101 33.404H17.0514V35.0368H19.6382C19.7012 35.0368 19.7528 35.0569 19.7929 35.097C19.833 35.1371 19.853 35.1887 19.853 35.2517V35.8533C19.853 35.9106 19.833 35.9593 19.7929 35.9994C19.7528 36.0395 19.7012 36.0595 19.6382 36.0595H17.0514V38.1908C17.0514 38.2481 17.0314 38.2968 16.9913 38.3369C16.9512 38.377 16.8996 38.397 16.8366 38.397H16.0803Z" fill="white"/>
<path d="M23.562 38.397C23.5047 38.397 23.456 38.377 23.4159 38.3369C23.3758 38.2968 23.3558 38.2481 23.3558 38.1908V32.5962C23.3558 32.5332 23.3758 32.4816 23.4159 32.4415C23.456 32.4014 23.5047 32.3813 23.562 32.3813H27.3433C27.4063 32.3813 27.4579 32.4014 27.498 32.4415C27.5381 32.4816 27.5582 32.5332 27.5582 32.5962V33.1634C27.5582 33.2207 27.5381 33.2694 27.498 33.3095C27.4579 33.3496 27.4063 33.3696 27.3433 33.3696H24.5159V34.8907H27.1542C27.2173 34.8907 27.2688 34.9108 27.3089 34.9509C27.349 34.9853 27.3691 35.034 27.3691 35.097V35.6298C27.3691 35.6928 27.349 35.7444 27.3089 35.7845C27.2688 35.8189 27.2173 35.8361 27.1542 35.8361H24.5159V37.4087H27.4121C27.4751 37.4087 27.5266 37.4288 27.5667 37.4689C27.6068 37.509 27.6269 37.5606 27.6269 37.6236V38.1908C27.6269 38.2481 27.6068 38.2968 27.5667 38.3369C27.5266 38.377 27.4751 38.397 27.4121 38.397H23.562Z" fill="white"/>
<path d="M31.2283 38.397C31.171 38.397 31.1223 38.377 31.0822 38.3369C31.0421 38.2968 31.0221 38.2481 31.0221 38.1908V32.5962C31.0221 32.5332 31.0421 32.4816 31.0822 32.4415C31.1223 32.4014 31.171 32.3813 31.2283 32.3813H35.0096C35.0726 32.3813 35.1242 32.4014 35.1643 32.4415C35.2044 32.4816 35.2245 32.5332 35.2245 32.5962V33.1634C35.2245 33.2207 35.2044 33.2694 35.1643 33.3095C35.1242 33.3496 35.0726 33.3696 35.0096 33.3696H32.1822V34.8907H34.8206C34.8836 34.8907 34.9351 34.9108 34.9752 34.9509C35.0153 34.9853 35.0354 35.034 35.0354 35.097V35.6298C35.0354 35.6928 35.0153 35.7444 34.9752 35.7845C34.9351 35.8189 34.8836 35.8361 34.8206 35.8361H32.1822V37.4087H35.0784C35.1414 37.4087 35.1929 37.4288 35.2331 37.4689C35.2732 37.509 35.2932 37.5606 35.2932 37.6236V38.1908C35.2932 38.2481 35.2732 38.2968 35.2331 38.3369C35.1929 38.377 35.1414 38.397 35.0784 38.397H31.2283Z" fill="white"/>
<path d="M38.8946 38.397C38.8373 38.397 38.7886 38.377 38.7485 38.3369C38.7084 38.2968 38.6884 38.2481 38.6884 38.1908V32.5876C38.6884 32.5303 38.7084 32.4816 38.7485 32.4415C38.7886 32.4014 38.8373 32.3813 38.8946 32.3813H39.6939C39.7512 32.3813 39.7999 32.4014 39.84 32.4415C39.8801 32.4816 39.9001 32.5303 39.9001 32.5876V37.3744H42.6244C42.6874 37.3744 42.7389 37.3944 42.7791 37.4345C42.8192 37.4746 42.8392 37.5262 42.8392 37.5892V38.1908C42.8392 38.2481 42.8192 38.2968 42.7791 38.3369C42.7389 38.377 42.6874 38.397 42.6244 38.397H38.8946Z" fill="white"/>
<path d="M51.3797 38.397C51.3224 38.397 51.2737 38.377 51.2336 38.3369C51.1935 38.2968 51.1734 38.2481 51.1734 38.1908V33.4384H49.5836C49.5263 33.4384 49.4776 33.4183 49.4375 33.3782C49.3974 33.3381 49.3773 33.2894 49.3773 33.2321V32.5962C49.3773 32.5332 49.3974 32.4816 49.4375 32.4415C49.4776 32.4014 49.5263 32.3813 49.5836 32.3813H53.9664C54.0294 32.3813 54.081 32.4014 54.1211 32.4415C54.1612 32.4816 54.1813 32.5332 54.1813 32.5962V33.2321C54.1813 33.2894 54.1612 33.3381 54.1211 33.3782C54.081 33.4183 54.0294 33.4384 53.9664 33.4384H52.3852V38.1908C52.3852 38.2481 52.3651 38.2968 52.325 38.3369C52.2849 38.377 52.2333 38.397 52.1703 38.397H51.3797Z" fill="white"/>
<path d="M57.5799 38.397C57.5226 38.397 57.4739 38.3798 57.4338 38.3455C57.3937 38.3054 57.3736 38.2538 57.3736 38.1908V32.5962C57.3736 32.5332 57.3937 32.4816 57.4338 32.4415C57.4739 32.4014 57.5226 32.3813 57.5799 32.3813H58.3619C58.4249 32.3813 58.4736 32.4014 58.508 32.4415C58.5481 32.4816 58.5682 32.5332 58.5682 32.5962V34.8134H61.1033V32.5962C61.1033 32.5332 61.1234 32.4816 61.1635 32.4415C61.2036 32.4014 61.2523 32.3813 61.3096 32.3813H62.083C62.1461 32.3813 62.1976 32.4014 62.2377 32.4415C62.2778 32.4816 62.2979 32.5332 62.2979 32.5962V38.1908C62.2979 38.2481 62.2778 38.2968 62.2377 38.3369C62.1976 38.377 62.1461 38.397 62.083 38.397H61.3096C61.2523 38.397 61.2036 38.377 61.1635 38.3369C61.1234 38.2968 61.1033 38.2481 61.1033 38.1908V35.8876H58.5682V38.1908C58.5682 38.2481 58.5481 38.2968 58.508 38.3369C58.4736 38.377 58.4249 38.397 58.3619 38.397H57.5799Z" fill="white"/>
<path d="M66.1609 38.397C66.1037 38.397 66.055 38.377 66.0149 38.3369C65.9747 38.2968 65.9547 38.2481 65.9547 38.1908V32.5962C65.9547 32.5332 65.9747 32.4816 66.0149 32.4415C66.055 32.4014 66.1037 32.3813 66.1609 32.3813H69.9422C70.0053 32.3813 70.0568 32.4014 70.0969 32.4415C70.137 32.4816 70.1571 32.5332 70.1571 32.5962V33.1634C70.1571 33.2207 70.137 33.2694 70.0969 33.3095C70.0568 33.3496 70.0053 33.3696 69.9422 33.3696H67.1149V34.8907H69.7532C69.8162 34.8907 69.8678 34.9108 69.9079 34.9509C69.948 34.9853 69.968 35.034 69.968 35.097V35.6298C69.968 35.6928 69.948 35.7444 69.9079 35.7845C69.8678 35.8189 69.8162 35.8361 69.7532 35.8361H67.1149V37.4087H70.011C70.074 37.4087 70.1256 37.4288 70.1657 37.4689C70.2058 37.509 70.2258 37.5606 70.2258 37.6236V38.1908C70.2258 38.2481 70.2058 38.2968 70.1657 38.3369C70.1256 38.377 70.074 38.397 70.011 38.397H66.1609Z" fill="white"/>
<path d="M78.1114 38.397C78.0541 38.397 78.0054 38.377 77.9653 38.3369C77.9252 38.2968 77.9052 38.2481 77.9052 38.1908V32.5962C77.9052 32.5332 77.9252 32.4816 77.9653 32.4415C78.0054 32.4014 78.0541 32.3813 78.1114 32.3813H78.7731C78.8534 32.3813 78.9106 32.4014 78.945 32.4415C78.9851 32.4759 79.0109 32.5017 79.0224 32.5188L81.4974 36.3689V32.5962C81.4974 32.5332 81.5146 32.4816 81.549 32.4415C81.5891 32.4014 81.6406 32.3813 81.7037 32.3813H82.4255C82.4886 32.3813 82.5401 32.4014 82.5802 32.4415C82.6203 32.4816 82.6404 32.5332 82.6404 32.5962V38.1822C82.6404 38.2452 82.6203 38.2968 82.5802 38.3369C82.5401 38.377 82.4914 38.397 82.4341 38.397H81.7638C81.6836 38.397 81.6263 38.377 81.5919 38.3369C81.5576 38.2968 81.5318 38.271 81.5146 38.2595L79.0481 34.4954V38.1908C79.0481 38.2481 79.0281 38.2968 78.988 38.3369C78.9479 38.377 78.8963 38.397 78.8333 38.397H78.1114Z" fill="white"/>
<path d="M86.5079 38.397C86.4506 38.397 86.4019 38.377 86.3618 38.3369C86.3217 38.2968 86.3016 38.2481 86.3016 38.1908V32.5962C86.3016 32.5332 86.3217 32.4816 86.3618 32.4415C86.4019 32.4014 86.4506 32.3813 86.5079 32.3813H90.2892C90.3522 32.3813 90.4038 32.4014 90.4439 32.4415C90.484 32.4816 90.504 32.5332 90.504 32.5962V33.1634C90.504 33.2207 90.484 33.2694 90.4439 33.3095C90.4038 33.3496 90.3522 33.3696 90.2892 33.3696H87.4618V34.8907H90.1001C90.1631 34.8907 90.2147 34.9108 90.2548 34.9509C90.2949 34.9853 90.315 35.034 90.315 35.097V35.6298C90.315 35.6928 90.2949 35.7444 90.2548 35.7845C90.2147 35.8189 90.1631 35.8361 90.1001 35.8361H87.4618V37.4087H90.3579C90.4209 37.4087 90.4725 37.4288 90.5126 37.4689C90.5527 37.509 90.5728 37.5606 90.5728 37.6236V38.1908C90.5728 38.2481 90.5527 38.2968 90.5126 38.3369C90.4725 38.377 90.4209 38.397 90.3579 38.397H86.5079Z" fill="white"/>
<path d="M94.9562 38.397C94.8703 38.397 94.8015 38.3741 94.75 38.3283C94.7041 38.2767 94.6726 38.2137 94.6554 38.1392L93.6328 32.6306C93.6328 32.6134 93.6299 32.5991 93.6242 32.5876C93.6242 32.5761 93.6242 32.5675 93.6242 32.5618C93.6242 32.5103 93.6414 32.4673 93.6758 32.4329C93.7159 32.3985 93.7588 32.3813 93.8046 32.3813H94.5609C94.7041 32.3813 94.7844 32.4386 94.8015 32.5532L95.5148 36.4462L96.2883 33.9282C96.3055 33.8824 96.3341 33.8366 96.3742 33.7907C96.42 33.7392 96.4859 33.7134 96.5719 33.7134H97.0359C97.1276 33.7134 97.1935 33.7392 97.2336 33.7907C97.2737 33.8366 97.2995 33.8824 97.3109 33.9282L98.093 36.4376L98.8063 32.5532C98.8235 32.4386 98.9037 32.3813 99.0469 32.3813H99.8032C99.849 32.3813 99.8891 32.3985 99.9235 32.4329C99.9578 32.4673 99.975 32.5103 99.975 32.5618C99.975 32.5675 99.975 32.5761 99.975 32.5876C99.975 32.5991 99.9722 32.6134 99.9664 32.6306L98.9438 38.1392C98.9323 38.2137 98.9008 38.2767 98.8492 38.3283C98.7977 38.3741 98.7289 38.397 98.643 38.397H98.0672C97.9813 38.397 97.9125 38.3741 97.8609 38.3283C97.8151 38.2825 97.7836 38.2338 97.7664 38.1822L96.8039 35.3118L95.8414 38.1822C95.8185 38.2338 95.7841 38.2825 95.7383 38.3283C95.6924 38.3741 95.6237 38.397 95.532 38.397H94.9562Z" fill="white"/>
<path d="M107.694 38.397C107.637 38.397 107.588 38.377 107.548 38.3369C107.508 38.2968 107.488 38.2481 107.488 38.1908V32.5962C107.488 32.5332 107.508 32.4816 107.548 32.4415C107.588 32.4014 107.637 32.3813 107.694 32.3813H109.791C110.37 32.3813 110.845 32.4702 111.218 32.6478C111.596 32.8254 111.879 33.0889 112.068 33.4384C112.263 33.7879 112.363 34.2147 112.369 34.7189C112.381 34.971 112.386 35.1944 112.386 35.3892C112.386 35.584 112.381 35.8046 112.369 36.0509C112.358 36.5837 112.26 37.0249 112.077 37.3744C111.894 37.7181 111.616 37.9759 111.243 38.1478C110.877 38.314 110.407 38.397 109.834 38.397H107.694ZM108.682 37.4087H109.791C110.112 37.4087 110.372 37.3629 110.573 37.2712C110.774 37.1796 110.92 37.0335 111.011 36.833C111.109 36.6267 111.16 36.3574 111.166 36.0251C111.172 35.8533 111.175 35.7043 111.175 35.5783C111.18 35.4465 111.18 35.3176 111.175 35.1915C111.175 35.0598 111.172 34.9108 111.166 34.7447C111.154 34.2749 111.037 33.9282 110.814 33.7048C110.59 33.4814 110.235 33.3696 109.748 33.3696H108.682V37.4087Z" fill="white"/>
<path d="M115.364 38.397C115.318 38.397 115.275 38.3798 115.235 38.3455C115.2 38.3111 115.183 38.2681 115.183 38.2166C115.183 38.1936 115.189 38.1679 115.2 38.1392L117.271 32.5962C117.289 32.5389 117.32 32.4902 117.366 32.4501C117.418 32.4043 117.486 32.3813 117.572 32.3813H118.509C118.595 32.3813 118.661 32.4043 118.707 32.4501C118.752 32.4902 118.787 32.5389 118.81 32.5962L120.881 38.1392C120.887 38.1679 120.889 38.1936 120.889 38.2166C120.889 38.2681 120.872 38.3111 120.838 38.3455C120.804 38.3798 120.763 38.397 120.718 38.397H119.97C119.89 38.397 119.83 38.3798 119.789 38.3455C119.755 38.3054 119.732 38.2681 119.721 38.2338L119.317 37.1853H116.764L116.361 38.2338C116.349 38.2681 116.323 38.3054 116.283 38.3455C116.249 38.3798 116.192 38.397 116.111 38.397H115.364ZM117.065 36.197H119.016L118.036 33.5415L117.065 36.197Z" fill="white"/>
<path d="M125.145 38.397C125.088 38.397 125.039 38.377 124.999 38.3369C124.959 38.2968 124.939 38.2481 124.939 38.1908V36.2486L122.911 32.6564C122.905 32.6449 122.899 32.6306 122.893 32.6134C122.888 32.5962 122.885 32.579 122.885 32.5618C122.885 32.5103 122.902 32.4673 122.936 32.4329C122.971 32.3985 123.011 32.3813 123.057 32.3813H123.822C123.89 32.3813 123.945 32.3985 123.985 32.4329C124.031 32.4673 124.062 32.5045 124.079 32.5446L125.54 35.0454L126.993 32.5446C127.016 32.5045 127.047 32.4673 127.087 32.4329C127.133 32.3985 127.19 32.3813 127.259 32.3813H128.015C128.067 32.3813 128.11 32.3985 128.144 32.4329C128.179 32.4673 128.196 32.5103 128.196 32.5618C128.196 32.579 128.193 32.5962 128.187 32.6134C128.187 32.6306 128.182 32.6449 128.17 32.6564L126.142 36.2486V38.1908C126.142 38.2481 126.122 38.2968 126.082 38.3369C126.042 38.377 125.99 38.397 125.927 38.397H125.145Z" fill="white"/>
</g>
<defs>
<clipPath id="clip0_199_261">
<rect width="172" height="42" fill="white"/>
</clipPath>
</defs>
</svg>
