<svg id="Слой_1" data-name="Слой 1" xmlns="http://www.w3.org/2000/svg" xmlns:xlink="http://www.w3.org/1999/xlink" width="512" height="512" viewBox="0 0 512 512"><defs><style>.cls-1{fill:url(#Безымянный_градиент_6);}.cls-2{fill:url(#Безымянный_градиент_6-2);}.cls-3{fill:url(#Безымянный_градиент_6-3);}.cls-4{fill:url(#Безымянный_градиент_6-4);}.cls-5{fill:url(#Безымянный_градиент_6-5);}.cls-6{fill:url(#Безымянный_градиент_6-6);}.cls-7{fill:url(#Безымянный_градиент_6-7);}</style><linearGradient id="Безымянный_градиент_6" x1="116.69" y1="112.26" x2="286.66" y2="450.92" gradientUnits="userSpaceOnUse"><stop offset="0" stop-color="#e4cda1"/><stop offset="1" stop-color="#c28e41"/></linearGradient><linearGradient id="Безымянный_градиент_6-2" x1="182.75" y1="79.1" x2="352.72" y2="417.76" xlink:href="#Безымянный_градиент_6"/><linearGradient id="Безымянный_градиент_6-3" x1="258.79" y1="40.94" x2="428.75" y2="379.6" xlink:href="#Безымянный_градиент_6"/><linearGradient id="Безымянный_градиент_6-4" x1="221.06" y1="59.88" x2="391.02" y2="398.54" xlink:href="#Безымянный_градиент_6"/><linearGradient id="Безымянный_градиент_6-5" x1="46.4" y1="147.54" x2="216.37" y2="486.19" xlink:href="#Безымянный_градиент_6"/><linearGradient id="Безымянный_градиент_6-6" x1="119.97" y1="110.61" x2="289.94" y2="449.27" xlink:href="#Безымянный_градиент_6"/><linearGradient id="Безымянный_градиент_6-7" x1="102.23" y1="-51.6" x2="410.77" y2="563.17" xlink:href="#Безымянный_градиент_6"/></defs><path class="cls-1" d="M210.19,174.57V337q-21,.95-41.53,2.74V191.08Z"/><path class="cls-2" d="M277.27,115.9V336.21q-10.44-.22-21-.22-10.31,0-20.53.21V115.9Z"/><path class="cls-3" d="M411.43,265v83.14q-20.39-3.28-41.54-5.73V248.49Z"/><path class="cls-4" d="M344.35,191.27V339.82q-20.48-1.8-41.54-2.77V174.76Z"/><path class="cls-5" d="M143.11,249.63v92.73q-21.14,2.42-41.53,5.71V266.14Z"/><path class="cls-6" d="M411.43,369.63v26H101.58V369.55q20.37-3.29,41.53-5.71,12.64-1.45,25.55-2.58,20.47-1.78,41.53-2.75,12.67-.57,25.54-.83,10.22-.21,20.53-.2,10.56,0,21,.21,12.87.27,25.54.84,21,1,41.54,2.77,12.88,1.14,25.54,2.59Q391,366.32,411.43,369.63Z"/><path class="cls-7" d="M512.72,512H.29V-.43H512.72ZM12.07,500.22H500.94V11.35H12.07Z"/></svg>