<svg id="Layer_1" data-name="Layer 1" xmlns="http://www.w3.org/2000/svg" xmlns:xlink="http://www.w3.org/1999/xlink" viewBox="0 0 1977.28 116.95"><defs><style>.cls-1{fill:#fff;}.cls-2{fill:url(#MB_Gradient_Gold_2);}.cls-3{fill:url(#MB_Gradient_Gold_2-2);}.cls-4{fill:url(#MB_Gradient_Gold_2-3);}.cls-5{fill:url(#MB_Gradient_Gold_2-4);}.cls-6{fill:url(#MB_Gradient_Gold_2-5);}.cls-7{fill:url(#MB_Gradient_Gold_2-6);}.cls-8{fill:url(#MB_Gradient_Gold_2-7);}.cls-9{fill:url(#MB_Gradient_Gold_2-8);}.cls-10{fill:url(#MB_Gradient_Gold_2-9);}.cls-11{fill:url(#MB_Gradient_Gold_2-10);}.cls-12{fill:url(#MB_Gradient_Gold_2-11);}.cls-13{fill:url(#MB_Gradient_Gold_2-12);}.cls-14{fill:url(#MB_Gradient_Gold_2-13);}.cls-15{fill:url(#MB_Gradient_Gold_2-14);}.cls-16{fill:url(#MB_Gradient_Gold_2-15);}.cls-17{fill:url(#MB_Gradient_Gold_2-16);}.cls-18{fill:url(#MB_Gradient_Gold_2-17);}.cls-19{fill:url(#MB_Gradient_Gold_2-18);}.cls-20{fill:url(#MB_Gradient_Gold_2-19);}.cls-21{fill:url(#MB_Gradient_Gold_2-20);}</style><linearGradient id="MB_Gradient_Gold_2" x1="1571.8" y1="22.23" x2="1627.52" y2="77.95" gradientUnits="userSpaceOnUse"><stop offset="0" stop-color="#9f762e"/><stop offset="0.2" stop-color="#fbc678"/><stop offset="0.5" stop-color="#eaca86"/><stop offset="0.8" stop-color="#bb9049"/><stop offset="1" stop-color="#9f762e"/></linearGradient><linearGradient id="MB_Gradient_Gold_2-2" x1="1301.53" y1="25.1" x2="1341.73" y2="65.31" xlink:href="#MB_Gradient_Gold_2"/><linearGradient id="MB_Gradient_Gold_2-3" x1="1371.78" y1="38.76" x2="1402.87" y2="69.86" xlink:href="#MB_Gradient_Gold_2"/><linearGradient id="MB_Gradient_Gold_2-4" x1="1334.36" y1="23.27" x2="1380.48" y2="69.39" xlink:href="#MB_Gradient_Gold_2"/><linearGradient id="MB_Gradient_Gold_2-5" x1="1380.66" y1="11.64" x2="1393.93" y2="24.91" xlink:href="#MB_Gradient_Gold_2"/><linearGradient id="MB_Gradient_Gold_2-6" x1="1399.54" y1="16.07" x2="1457.7" y2="74.23" xlink:href="#MB_Gradient_Gold_2"/><linearGradient id="MB_Gradient_Gold_2-7" x1="1469.95" y1="31.89" x2="1517.48" y2="79.42" xlink:href="#MB_Gradient_Gold_2"/><linearGradient id="MB_Gradient_Gold_2-8" x1="1524.47" y1="33.02" x2="1571.56" y2="80.11" xlink:href="#MB_Gradient_Gold_2"/><linearGradient id="MB_Gradient_Gold_2-9" x1="1261.41" y1="28.52" x2="1308.51" y2="75.61" xlink:href="#MB_Gradient_Gold_2"/><linearGradient id="MB_Gradient_Gold_2-10" x1="1176.62" y1="9.46" x2="1248.1" y2="80.95" xlink:href="#MB_Gradient_Gold_2"/><linearGradient id="MB_Gradient_Gold_2-11" x1="394.35" y1="24.87" x2="449.63" y2="80.15" xlink:href="#MB_Gradient_Gold_2"/><linearGradient id="MB_Gradient_Gold_2-12" x1="126.19" y1="27.72" x2="166.08" y2="67.6" xlink:href="#MB_Gradient_Gold_2"/><linearGradient id="MB_Gradient_Gold_2-13" x1="195.89" y1="41.27" x2="226.74" y2="72.12" xlink:href="#MB_Gradient_Gold_2"/><linearGradient id="MB_Gradient_Gold_2-14" x1="204.7" y1="14.35" x2="217.88" y2="27.52" xlink:href="#MB_Gradient_Gold_2"/><linearGradient id="MB_Gradient_Gold_2-15" x1="223.43" y1="18.75" x2="281.14" y2="76.46" xlink:href="#MB_Gradient_Gold_2"/><linearGradient id="MB_Gradient_Gold_2-16" x1="293.29" y1="34.44" x2="340.46" y2="81.61" xlink:href="#MB_Gradient_Gold_2"/><linearGradient id="MB_Gradient_Gold_2-17" x1="347.39" y1="35.57" x2="394.11" y2="82.3" xlink:href="#MB_Gradient_Gold_2"/><linearGradient id="MB_Gradient_Gold_2-18" x1="86.39" y1="31.1" x2="133.12" y2="77.83" xlink:href="#MB_Gradient_Gold_2"/><linearGradient id="MB_Gradient_Gold_2-19" x1="2.26" y1="12.2" x2="73.19" y2="83.12" xlink:href="#MB_Gradient_Gold_2"/><linearGradient id="MB_Gradient_Gold_2-20" x1="158.77" y1="25.89" x2="204.53" y2="71.66" xlink:href="#MB_Gradient_Gold_2"/></defs><path class="cls-1" d="M1004,79.05V43.18h8.9a9.9,9.9,0,0,1,5.16,1.18,6.81,6.81,0,0,1,2.81,3.38,14.5,14.5,0,0,1,.88,5.36,11.37,11.37,0,0,1-1,4.92,7.34,7.34,0,0,1-3,3.21,9.59,9.59,0,0,1-4.87,1.13H1009V79.05Zm5-20.28h2.3a9.43,9.43,0,0,0,3.41-.49,3.1,3.1,0,0,0,1.78-1.7,8.93,8.93,0,0,0,.53-3.43,15.7,15.7,0,0,0-.38-3.94A2.76,2.76,0,0,0,1015,47.3a9.82,9.82,0,0,0-3.72-.53H1009Z"/><path class="cls-1" d="M1021.57,79.05l7.62-35.87H1034l7.66,35.87h-4.73l-1.64-9H1028l-1.72,9Zm7.09-12.62h6l-3-16.16Z"/><path class="cls-1" d="M1045.3,79.05V43.18h7.22a15.76,15.76,0,0,1,5.93,1,6.58,6.58,0,0,1,3.48,3,11.67,11.67,0,0,1,1.13,5.51,14.87,14.87,0,0,1-.45,3.79,7.2,7.2,0,0,1-1.41,2.88,5.52,5.52,0,0,1-2.57,1.7l5.09,18h-4.82l-4.7-16.83h-3.89V79.05Zm5-20.41h1.9a9.24,9.24,0,0,0,3.45-.54,3.5,3.5,0,0,0,1.95-1.81,8.48,8.48,0,0,0,.62-3.59c0-2.09-.38-3.61-1.15-4.53s-2.29-1.4-4.56-1.4h-2.21Z"/><path class="cls-1" d="M1072.22,79.05V46.9h-6.06V43.18h16.95V46.9h-5.89V79.05Z"/><path class="cls-1" d="M1105.87,79.45a10.53,10.53,0,0,1-5.8-1.42,7.79,7.79,0,0,1-3.1-4,18.6,18.6,0,0,1-.93-6.18V54.21a17.3,17.3,0,0,1,1-6.09,7.53,7.53,0,0,1,3.09-3.89,10.68,10.68,0,0,1,5.78-1.36,10.49,10.49,0,0,1,5.76,1.38,7.72,7.72,0,0,1,3.07,3.89,17.14,17.14,0,0,1,1,6.07V67.85a17.73,17.73,0,0,1-1,6.11,8.08,8.08,0,0,1-3.07,4.05A10.15,10.15,0,0,1,1105.87,79.45Zm0-4a4.76,4.76,0,0,0,3-.81,4.11,4.11,0,0,0,1.38-2.31,15.33,15.33,0,0,0,.35-3.47V53.19a14.84,14.84,0,0,0-.35-3.43,3.81,3.81,0,0,0-1.38-2.21,4.89,4.89,0,0,0-3-.78,5,5,0,0,0-3,.78,3.74,3.74,0,0,0-1.4,2.21,14.84,14.84,0,0,0-.35,3.43V68.91a15.33,15.33,0,0,0,.35,3.47,4,4,0,0,0,1.4,2.31A4.84,4.84,0,0,0,1105.87,75.5Z"/><path class="cls-1" d="M1120.57,79.05V43.18h13.86v3.59h-8.86V58.72h6.87v3.55h-6.87V79.05Z"/><path class="cls-1" d="M1969.13,4.92V27.79a4.08,4.08,0,0,0,8.15,0V4.92a4.08,4.08,0,0,0-8.15,0"/><path class="cls-1" d="M1957.38,13.88V36.74a4.08,4.08,0,0,0,8.15,0V13.88a4.08,4.08,0,0,0-8.15,0"/><path class="cls-1" d="M1945.62,4.92V27.79a4.08,4.08,0,0,0,8.16,0V4.92a4.08,4.08,0,0,0-8.16,0"/><path class="cls-1" d="M1933.87,18.12V32.73a4.08,4.08,0,0,0,8.15,0V18.12a4.08,4.08,0,0,0-8.15,0"/><path class="cls-1" d="M1711.84,116.64V87.33h18.73v4h-14.28v8.56h12.18v4h-12.18v8.81h14.28v4Z"/><path class="cls-1" d="M1750.64,114.62a11.89,11.89,0,0,1-7.57,2.27q-6.55,0-10.38-3.87l3-2.93a10.09,10.09,0,0,0,7.49,2.8q6,0,6-4.48a3.87,3.87,0,0,0-1.15-3,6.09,6.09,0,0,0-3.21-1.24l-3.46-.49a9.86,9.86,0,0,1-5.56-2.35,7.3,7.3,0,0,1-2.14-5.6,7.89,7.89,0,0,1,2.64-6.21,10.26,10.26,0,0,1,7.16-2.39,12.84,12.84,0,0,1,9.1,3.33l-2.84,2.8a8.89,8.89,0,0,0-6.38-2.26q-5.35,0-5.36,4.57a3.44,3.44,0,0,0,1.12,2.72,6.2,6.2,0,0,0,3.29,1.35l3.33.5a10.62,10.62,0,0,1,5.48,2.18,8.48,8.48,0,0,1-.58,12.35Z"/><path class="cls-1" d="M1767.18,91.32v25.32h-4.45V91.32h-8.07v-4h20.59v4Z"/><path class="cls-1" d="M1774.47,116.64v-5h5v5Z"/><path class="cls-1" d="M1787.6,116.64v-3.75l11.28-13.71a6.08,6.08,0,0,0,1.56-3.91c0-3-1.42-4.44-4.28-4.44a4.36,4.36,0,0,0-3,1,4.5,4.5,0,0,0-1.32,3.5h-4.2a8,8,0,0,1,2.39-6,9.52,9.52,0,0,1,12.27,0,8,8,0,0,1,2.34,6,7.6,7.6,0,0,1-.7,3.3,17.51,17.51,0,0,1-2,3l-9.19,11.24h11.94v3.75Z"/><path class="cls-1" d="M1824.23,108.49a8,8,0,0,1-2.51,6.17,8.29,8.29,0,0,1-6,2.23,8.39,8.39,0,0,1-6-2.23,8.13,8.13,0,0,1-2.47-6.17v-13a8.16,8.16,0,0,1,2.47-6.18,8.42,8.42,0,0,1,6-2.22,8.32,8.32,0,0,1,6,2.22,8,8,0,0,1,2.51,6.18ZM1820,95.6c0-3.18-1.42-4.77-4.28-4.77s-4.24,1.59-4.24,4.77v12.77q0,4.77,4.24,4.77c2.86,0,4.28-1.59,4.28-4.77Z"/><path class="cls-1" d="M1844,108.49a8.06,8.06,0,0,1-2.51,6.17,9.11,9.11,0,0,1-11.94,0,8.1,8.1,0,0,1-2.47-6.17v-13a8.12,8.12,0,0,1,2.47-6.18,9.14,9.14,0,0,1,11.94,0,8.08,8.08,0,0,1,2.51,6.18Zm-4.2-12.89q0-4.77-4.28-4.77t-4.24,4.77v12.77q0,4.77,4.24,4.77t4.28-4.77Z"/><path class="cls-1" d="M1863,111.08a8,8,0,0,1-2.06,3.54,8.35,8.35,0,0,1-6.18,2.31,8.47,8.47,0,0,1-6.26-2.27,6.85,6.85,0,0,1-1.64-2.59,10.58,10.58,0,0,1-.58-3h4.2c.36,2.72,1.78,4.08,4.28,4.08a4.13,4.13,0,0,0,3-1.15,4.59,4.59,0,0,0,1.15-2.31,12.73,12.73,0,0,0,.25-2.84,8.76,8.76,0,0,0-.87-4.36,3.62,3.62,0,0,0-3.41-1.77c-2.23,0-3.61.88-4.16,2.63h-3.83v-16h15.81v3.74h-12v7.74a6.43,6.43,0,0,1,4.86-1.69,7.15,7.15,0,0,1,5.27,1.9,8.12,8.12,0,0,1,2.1,3.7,15.93,15.93,0,0,1,.45,4.12A17.52,17.52,0,0,1,1863,111.08Z"/><path class="cls-1" d="M1673.22,11.74c-9.54,0-16.46,1.9-21.28,5.72-6.73,5.41-10.44,15.25-10.44,28,0,12.94,3.71,22.68,10.54,28,4.93,3.92,10.24,5.22,20.58,5.22h29.91V38.94h-32.92V50.88h18.66V66.74h-12.84c-6.53,0-10.84-1.31-13.45-4-3-3.21-4.82-10.23-4.82-18.57,0-14.65,5-20.47,17.77-20.47h27.6V11.74Z"/><path class="cls-1" d="M1711.84,29.94V78.68h13.42V40.35h3.9c6.6,0,8.61,2.1,8.61,9V52h12.9V47.15c0-7.4-1-10.8-4-13.5s-6.8-3.71-15-3.71Z"/><path class="cls-1" d="M1771.31,54.56c0-10,3.88-15,11.85-15s12.17,4.88,12.17,14.55c0,10-4,14.86-11.87,14.86s-12.15-5-12.15-14.46m-13.66-.4c0,15.85,9.47,25.12,25.41,25.12S1809,69.91,1809,54.86c0-7-1.79-12.56-5.58-17.35-4.19-5.38-11.06-8.17-19.84-8.17-15.85,0-25.91,9.57-25.91,24.82"/><path class="cls-1" d="M1849.34,29.94V68.27h-12.61c-4,0-6.41-2.6-6.41-7V29.94h-13.4V60c0,6.8,1.69,11.61,5.1,14.81,3.4,3,6.61,3.9,14.4,3.9h26.33V29.94Z"/><path class="cls-1" d="M1885.46,40.34h9.2c8.21,0,12.8,4.91,12.8,13.71,0,9.5-4.59,14.2-13.8,14.2h-8.2Zm-13.4-10.4V97h13.4V78.65h11.8c8.1,0,13.2-1.9,17.5-6.3s6.41-10.3,6.41-17.3c0-9.3-3-16.51-8.7-20.91-4.1-3.3-7.91-4.2-17-4.2Z"/><polygon class="cls-2" points="1609.55 47.85 1625.64 30.17 1610.36 30.17 1595.73 47.28 1595.73 11.73 1582.29 11.73 1582.29 78.64 1595.73 78.68 1595.73 63.13 1601.54 56.88 1613.39 78.68 1626.79 78.68 1609.55 47.85"/><path class="cls-3" d="M1314.9,75.29v3.36l13.44,0V11.74H1314.9Z"/><polygon class="cls-4" points="1380.6 78.66 1394 78.69 1394.03 78.69 1394.03 29.94 1380.6 29.94 1380.6 78.66"/><path class="cls-5" d="M1371.58,29.63l-12.36,0V11.68l-13.29,0V29.63h-8.77V40h8.74V61.55c-.18,7.4.82,10.8,3.82,13.5s6.8,3.7,15,3.7h6.4V68.35h-3.31c-6.59,0-8.6-2.1-8.6-9V40h12.37Z"/><rect class="cls-6" x="1380.56" y="11.74" width="13.48" height="13.08"/><path class="cls-7" d="M1460.14,38.87a18.22,18.22,0,0,0,1.06-17.44,15.24,15.24,0,0,0-7.14-7.78q-4.05-2-13-2H1404V78.52l13.43,0h22.85c5.57,0,9.75-.51,12.6-1.47a13.71,13.71,0,0,0,6.89-5.27,18.65,18.65,0,0,0,3.08-11c0-7.5-3.22-12.76-9.7-15.72A14.7,14.7,0,0,0,1460.14,38.87ZM1444,65a6.47,6.47,0,0,1-2.64,1.3,23.33,23.33,0,0,1-4.5.34h-19.45V51h19.77c3.26,0,5.6.48,7,1.39,2,1.26,2.92,3.26,2.92,6A7.78,7.78,0,0,1,1444,65Zm0-27.49a6.85,6.85,0,0,1-2.68,1.29,21.79,21.79,0,0,1-4.46.34h-19.45V23.52h19.77c3.26,0,5.6.48,7,1.4,2,1.26,2.92,3.25,2.92,6A7.79,7.79,0,0,1,1444,37.51Z"/><path class="cls-8" d="M1507.64,31.14a23.18,23.18,0,0,0-4.68-1c-1.55-.14-4.34-.21-8.39-.21h-22.71V40.38h22.71q6.08,0,8.15,1.77c1.39,1.2,2.08,3.5,2.08,6.92h-16.45q-8,0-11.41,1.22a12,12,0,0,0-6.24,5.21,16.35,16.35,0,0,0-2.37,8.77q0,8.06,6,12.07a12.57,12.57,0,0,0,5.11,1.91,83.55,83.55,0,0,0,10.51.44h28.29V51.22Q1518.75,35.35,1507.64,31.14Zm-2.84,37.14h-15.52q-4,0-5.61-1a3.59,3.59,0,0,1-1.63-3.37,4.21,4.21,0,0,1,1.34-3.27,5.22,5.22,0,0,1,3.65-1.23l2.25,0h15.52Z"/><path class="cls-9" d="M1562.31,30.75a37,37,0,0,0-8.86-.81h-25.91V78.68H1541V40.33h11.71c2.44,0,4.21.54,5.29,1.59s1.62,2.81,1.62,5.22V78.68H1573v-30c0-6.77-1.69-11.72-5.15-14.83A13.21,13.21,0,0,0,1562.31,30.75Z"/><path class="cls-10" d="M1292,29.94V68.3h-11.71c-2.44,0-4.21-.53-5.29-1.58s-1.62-2.82-1.62-5.22V29.94H1260V60c0,6.78,1.7,11.72,5.15,14.84a13.33,13.33,0,0,0,5.52,3.08,37.08,37.08,0,0,0,8.86.8h25.91V29.94Z"/><polygon class="cls-11" points="1211.93 63.99 1195.23 11.73 1174.34 11.73 1174.34 78.65 1187.96 78.69 1187.96 28.42 1204.51 78.69 1219.2 78.69 1236.74 28.42 1236.74 78.69 1250.36 78.69 1250.36 11.73 1229.52 11.73 1211.93 63.99"/><path class="cls-1" d="M961.11,0a4.19,4.19,0,0,0-4.22,4.15V27.86a4.23,4.23,0,0,0,8.45,0V4.15A4.19,4.19,0,0,0,961.11,0Z"/><path class="cls-1" d="M948.93,9.28a4.2,4.2,0,0,0-4.22,4.16v23.7a4.23,4.23,0,0,0,8.45,0V13.44A4.19,4.19,0,0,0,948.93,9.28Z"/><path class="cls-1" d="M936.75,0a4.19,4.19,0,0,0-4.23,4.15V27.86a4.23,4.23,0,0,0,8.46,0V4.15A4.2,4.2,0,0,0,936.75,0Z"/><path class="cls-1" d="M924.56,13.68a4.18,4.18,0,0,0-4.22,4.15V33a4.22,4.22,0,0,0,8.44,0V17.83A4.18,4.18,0,0,0,924.56,13.68Z"/><polygon class="cls-12" points="431.81 50.29 447.77 32.74 432.61 32.74 418.1 49.72 418.1 14.45 404.76 14.45 404.76 80.83 418.1 80.87 418.1 65.45 423.86 59.24 435.61 80.87 448.92 80.87 431.81 50.29"/><path class="cls-13" d="M139.46,77.51v3.34l13.34,0V14.45H139.46Z"/><polygon class="cls-14" points="204.64 80.85 217.94 80.89 217.97 80.89 217.97 32.52 204.64 32.52 204.64 80.85"/><rect class="cls-15" x="204.6" y="14.45" width="13.37" height="12.97"/><path class="cls-16" d="M283.56,41.37a18.05,18.05,0,0,0,1.05-17.3,15.08,15.08,0,0,0-7.08-7.72q-4-2-12.86-2H227.86V80.71l13.33,0h22.67c5.53,0,9.67-.51,12.5-1.45a13.63,13.63,0,0,0,6.84-5.23,18.55,18.55,0,0,0,3.06-10.91c0-7.44-3.2-12.66-9.63-15.6A14.46,14.46,0,0,0,283.56,41.37Zm-16,25.93A6.37,6.37,0,0,1,265,68.59a23.11,23.11,0,0,1-4.46.33h-19.3V53.43H260.8c3.24,0,5.56.47,7,1.38,2,1.25,2.9,3.23,2.9,5.93A7.74,7.74,0,0,1,267.57,67.3Zm0-27.27a7,7,0,0,1-2.66,1.28,22.33,22.33,0,0,1-4.42.33h-19.3V26.15H260.8c3.24,0,5.56.47,7,1.38,2,1.25,2.9,3.23,2.9,5.93A7.76,7.76,0,0,1,267.57,40Z"/><path class="cls-17" d="M330.69,33.7a23.33,23.33,0,0,0-4.64-1c-1.54-.14-4.31-.2-8.33-.2H295.19V42.87h22.53q6,0,8.09,1.76t2.07,6.87H311.56c-5.29,0-9.05.4-11.33,1.21a11.8,11.8,0,0,0-6.18,5.16,16.16,16.16,0,0,0-2.36,8.71q0,8,5.93,12a12.47,12.47,0,0,0,5.07,1.9,84.05,84.05,0,0,0,10.42.44h28.07V53.63Q341.72,37.88,330.69,33.7Zm-2.81,36.86H312.47c-2.62,0-4.47-.33-5.56-1a3.58,3.58,0,0,1-1.62-3.35A4.21,4.21,0,0,1,306.62,63a5.19,5.19,0,0,1,3.63-1.21l2.22,0h15.41Z"/><path class="cls-18" d="M384.94,33.32a36.58,36.58,0,0,0-8.8-.8h-25.7V80.87l13.3,0V42.82h11.63c2.41,0,4.17.54,5.24,1.58s1.61,2.79,1.61,5.18V80.87l13.3,0V51.09c0-6.72-1.68-11.63-5.1-14.72A13.29,13.29,0,0,0,384.94,33.32Z"/><path class="cls-19" d="M116.76,32.52V70.58H105.14c-2.42,0-4.17-.54-5.25-1.58s-1.61-2.79-1.61-5.17V32.52H85V62.31C85,69,86.66,73.94,90.09,77a13.23,13.23,0,0,0,5.47,3.06,37.1,37.1,0,0,0,8.8.8h25.7V32.52Z"/><polygon class="cls-20" points="37.29 66.3 20.73 14.45 0 14.45 0 80.84 13.51 80.89 13.51 31 29.93 80.89 44.5 80.89 61.91 31 61.91 80.89 75.42 80.89 75.42 14.45 54.75 14.45 37.29 66.3"/><path class="cls-21" d="M195.7,32.21l-12.27,0V14.39l-13.19,0V32.21h-8.7V42.52h8.68l0,21.36c-.17,7.34.82,10.71,3.8,13.4S180.75,81,188.89,81h6.35V70.62H192c-6.53,0-8.53-2.08-8.53-8.94V42.52H195.7Z"/><path class="cls-1" d="M472.12,22.16q-7.5,7.36-8.51,23c-.06.92-.05,4.63,0,5.61a47.36,47.36,0,0,0,2.3,13.3,23.9,23.9,0,0,0,7.73,11,22.52,22.52,0,0,0,9.8,4.7,56.18,56.18,0,0,0,10.82,1h23.48V69.29l-23.66.1a29.19,29.19,0,0,1-5.94-.6,8.85,8.85,0,0,1-5-3.09A13.55,13.55,0,0,1,480,59.81a27.86,27.86,0,0,1-.79-6.72h38.58V41.59l-38.48.09q.45-7.36,4.23-11.37t11.42-4.1h22.83V14.63H494.63C484.63,14.63,477.12,17.25,472.12,22.16Z"/><polygon class="cls-1" points="559.16 32.29 548.48 46.92 538.08 32.29 523.17 32.29 541.21 56.59 523.35 80.8 538.17 80.8 548.48 66.72 558.7 80.8 573.61 80.8 555.94 56.87 573.89 32.29 559.16 32.29"/><path class="cls-1" d="M592.44,33.48a18.32,18.32,0,0,0-8.52,4.7A22,22,0,0,0,579,45.27a26.59,26.59,0,0,0-2.11,8.28c-.06.55-.11,1.11-.14,1.66s0,1.11,0,1.66,0,.87,0,1.33.05.91.05,1.34A29.18,29.18,0,0,0,579,68a21.82,21.82,0,0,0,4.88,7.13,17.79,17.79,0,0,0,8.52,4.65,44.18,44.18,0,0,0,9.71,1.06h17.4V70.4H605.92c-.13,0-5.64-.09-6.81-.28a9.35,9.35,0,0,1-3.31-1.19,10,10,0,0,1-4.42-5.2,21.34,21.34,0,0,1-1.29-6.86,21.9,21.9,0,0,1,1.15-7.09,10,10,0,0,1,4.56-5.43,9.37,9.37,0,0,1,3.31-1.2,22.83,22.83,0,0,1,3.54-.37h16.9V32.29h-17.4A43.08,43.08,0,0,0,592.44,33.48Z"/><path class="cls-1" d="M666.91,36.15q-5.38-3.67-14.77-3.86H640.72V14.71H628V80.8h12.7V43l10.22.09q4.88,0,6.72,1.93t1.84,6.54V80.8h12.89V50.15Q672.3,39.83,666.91,36.15Z"/><path class="cls-1" d="M725.88,37.26a14.33,14.33,0,0,0-7-4,41.49,41.49,0,0,0-8.14-1H684.45v10l21.36.09a21.33,21.33,0,0,1,8.51,1.48q3.36,1.47,3.09,7.45H700.56A31,31,0,0,0,687.4,54q-5.53,2.58-6.17,11.33-.37,7.27,3.59,11.37t11.41,4.09h34.43V50.51a24.46,24.46,0,0,0-1.06-7.17A13.84,13.84,0,0,0,725.88,37.26ZM717.5,71h-16a17.21,17.21,0,0,1-4.92-.64q-2.17-.65-2-4.24c.06-2.14.86-3.42,2.3-4.09A11.75,11.75,0,0,1,701.67,61H717.5Z"/><path class="cls-1" d="M780.93,36.06q-5.34-3.68-14.92-3.77H741.89V80.8h12.8V43l10.31.09q5.16,0,6.81,1.75c1.11,1.16,1.66,3.44,1.66,6.81V80.8h12.79V50.15Q786.26,39.74,780.93,36.06Z"/><path class="cls-1" d="M809.55,33.44a17.7,17.7,0,0,0-8.46,4.65,21.25,21.25,0,0,0-4.84,7.09,29.44,29.44,0,0,0-2.16,8.28c-.06.55-.11,1.1-.14,1.66s-.05,1.1-.05,1.66,0,.87.05,1.33,0,.94,0,1.43a31.55,31.55,0,0,0,2.16,8.65,21.14,21.14,0,0,0,4.93,7.36,15.38,15.38,0,0,0,8.46,4.61,68,68,0,0,0,9.76.64h10.41q.18,3.78-1.8,5.66a8.47,8.47,0,0,1-5.85,2H799.15v9.85h25.13q9.86,0,14.09-4.88t4.23-14.36V32.29l-23.29.09A44,44,0,0,0,809.55,33.44Zm20.17,9.27V70.86s-9.43,0-9.86,0a24.38,24.38,0,0,1-4-.46,9,9,0,0,1-3.64-1.57,10.21,10.21,0,0,1-4.09-5.56,23,23,0,0,1-.78-6.86c0-.37,0-1.85,0-2.21.15-5.41,2.16-8.69,5.56-9.85A33.79,33.79,0,0,1,824,42.71Z"/><path class="cls-1" d="M900.88,55c0-.4-.26-3-.4-3.93a35.14,35.14,0,0,0-1.34-5.63,20,20,0,0,0-4.27-7.25l-.49-.53a17.34,17.34,0,0,0-8.17-4.86A40.37,40.37,0,0,0,876,31.52h-.68a40.37,40.37,0,0,0-10.17,1.26A17.34,17.34,0,0,0,857,37.64l-.49.53a20,20,0,0,0-4.27,7.25,39.22,39.22,0,0,0-1.64,8.3c0,.45-.11,1.49-.11,1.89,0,.79,0,1.74,0,2.52a32.29,32.29,0,0,0,1.64,8.62,20.21,20.21,0,0,0,4.37,7.5c.16.18.33.35.49.51a17.5,17.5,0,0,0,8.17,4.78,40.37,40.37,0,0,0,10.17,1.26h22.33V70.5h-22a20.58,20.58,0,0,1-7.42-1.31c-2.07-1-3.17-3.55-3.28-7.85H900.5a23,23,0,0,0,.38-3.21C900.9,57.35,900.89,55.77,900.88,55ZM865,51c.13-4.1,1.29-6.63,3.46-7.66a17.36,17.36,0,0,1,14.56,0c2.17,1,3.33,3.56,3.46,7.66Z"/></svg>