<svg width="247" height="61" viewBox="0 0 247 61" fill="none" xmlns="http://www.w3.org/2000/svg">
<path fill-rule="evenodd" clip-rule="evenodd" d="M38.5979 38.9452L7.68693 16.8318C4.45249 14.5179 0 16.8741 0 20.9001V48.9909C0 55.4084 5.10801 60.6106 11.4088 60.6106C12.2969 60.6106 13.0167 59.8777 13.0167 58.9732V36.8499L23.1336 44.1013C28.2868 47.7763 35.3892 46.5009 38.9974 41.2524C39.5126 40.5029 39.3338 39.47 38.5979 38.9452Z" fill="url(#paint0_linear)"/>
<path fill-rule="evenodd" clip-rule="evenodd" d="M47.4228 24.1561L28.6034 10.7188C23.4447 7.03922 16.3338 8.31626 12.7212 13.5708C12.2101 14.3142 12.3876 15.3385 13.1173 15.859L47.4228 41.3069L66.3513 24.5909V48.994C66.3513 55.4007 71.4506 60.5943 77.7411 60.5943C78.6398 60.5943 79.3683 59.8525 79.3683 58.9372V4.04128C79.3683 -0.433413 74.0181 -1.28039 70.9707 1.94251L47.4228 24.1561Z" fill="url(#paint1_linear)"/>
<path fill-rule="evenodd" clip-rule="evenodd" d="M66.3513 24.5911V48.9941C66.3513 55.4008 71.4506 60.5944 77.7411 60.5944C78.6398 60.5944 79.3683 59.8526 79.3683 58.9373C79.3683 58.9373 79.3683 26.6623 79.3683 12.9554C79.2719 12.9382 66.3513 24.5911 66.3513 24.5911Z" fill="url(#paint2_linear)"/>
<path d="M146.761 28.5599H143.522C143.133 28.5599 142.809 28.3286 142.647 27.9319L142.129 26.5106C141.417 27.2708 140.639 27.8327 139.733 28.2625C138.826 28.6922 137.887 28.8905 136.85 28.8905C135.555 28.8905 134.324 28.6591 133.126 28.1633C131.927 27.6675 130.891 26.9733 129.984 26.0809C129.077 25.1884 128.332 24.0976 127.814 22.8415C127.264 21.5854 127.005 20.1972 127.005 18.6436C127.005 17.2223 127.264 15.9001 127.749 14.644C128.268 13.3879 128.948 12.2971 129.822 11.3716C130.697 10.4461 131.733 9.71888 132.931 9.15696C134.13 8.62808 135.425 8.36365 136.818 8.36365C138.016 8.36365 139.052 8.59503 139.992 9.05779C140.931 9.52056 141.708 10.1816 142.421 10.975L143.068 9.15696C143.198 8.79336 143.554 8.52892 143.943 8.52892H146.761C147.279 8.52892 147.667 8.95863 147.667 9.45445V27.5683C147.667 28.1302 147.246 28.5599 146.761 28.5599ZM141.449 16.7264C141.222 16.1315 140.866 15.6026 140.445 15.1398C140.024 14.6771 139.538 14.3135 138.955 14.049C138.372 13.7846 137.757 13.6524 137.109 13.6524C136.494 13.6524 135.911 13.7846 135.36 14.016C134.81 14.2473 134.324 14.5779 133.903 15.0407C133.482 15.4704 133.158 15.9992 132.899 16.5942C132.64 17.1892 132.51 17.8833 132.51 18.6105C132.51 19.3047 132.64 19.9658 132.867 20.5608C133.093 21.1557 133.417 21.6846 133.838 22.1143C134.259 22.544 134.713 22.9076 135.296 23.139C135.846 23.4034 136.461 23.5026 137.109 23.5026C137.757 23.5026 138.372 23.3704 138.955 23.106C139.538 22.8415 140.024 22.4779 140.445 22.0482C140.866 21.6185 141.19 21.0896 141.449 20.4616C141.676 19.8666 141.805 19.2386 141.805 18.5444C141.805 17.9495 141.676 17.3214 141.449 16.7264Z" fill="white"/>
<path d="M181.253 18.0816C181.253 17.4205 181.188 16.8255 181.026 16.2966C180.864 15.7677 180.67 15.338 180.378 14.9744C180.087 14.6108 179.763 14.3464 179.374 14.1481C178.986 13.9497 178.565 13.8836 178.143 13.8836C177.69 13.8836 177.269 13.9497 176.88 14.115C176.492 14.2803 176.168 14.5117 175.876 14.8422C175.585 15.1728 175.358 15.5694 175.196 16.0652C175.034 16.528 174.937 17.0899 174.937 17.751V27.1385C174.937 27.8987 174.322 28.5598 173.545 28.5598H170.403C169.658 28.5598 169.01 27.9318 169.01 27.1385V4.16561C169.01 3.40535 169.626 2.74426 170.403 2.74426H173.545C174.289 2.74426 174.937 3.3723 174.937 4.16561V10.6443C175.617 10.0163 176.33 9.48738 177.139 9.02462C177.982 8.56185 178.921 8.33047 179.86 8.33047C181.317 8.33047 182.516 8.59491 183.455 9.12378C184.394 9.65265 185.171 10.3799 185.69 11.3054C186.24 12.2309 186.596 13.3217 186.823 14.5778C187.018 15.8338 187.115 17.1891 187.115 18.6435V27.1054C187.115 27.8657 186.499 28.5268 185.722 28.5268H182.581C181.836 28.5268 181.188 27.8987 181.188 27.1054V18.0816H181.253Z" fill="white"/>
<path d="M150.874 24.2298L152.882 22.2135C153.205 21.8829 153.724 21.8499 154.08 22.1474L154.89 22.8085C155.181 23.0398 155.473 23.2051 155.796 23.3704C156.282 23.6018 156.768 23.8001 157.286 23.8662C157.319 23.8662 157.383 23.8662 157.448 23.8993C158.031 23.9323 158.485 23.8993 158.841 23.8001C159.1 23.734 159.327 23.6348 159.489 23.5026C159.65 23.3704 159.748 23.2382 159.812 23.0729C159.877 22.9076 159.91 22.7093 159.91 22.511C159.91 22.2796 159.877 22.0813 159.78 21.916C159.715 21.7507 159.553 21.6185 159.327 21.4863C159.1 21.3541 158.808 21.2218 158.42 21.0566C158.031 20.9243 157.513 20.7591 156.898 20.5607C155.926 20.2633 155.084 19.9327 154.371 19.503C153.659 19.1064 153.076 18.6436 152.59 18.0817C152.137 17.5528 151.78 16.9248 151.554 16.1976C151.327 15.5034 151.23 14.7101 151.23 13.8176C151.23 13.0243 151.392 12.2641 151.716 11.5699C152.04 10.8758 152.525 10.2808 153.141 9.78498C153.756 9.28916 154.533 8.89251 155.44 8.62807C156.347 8.33058 157.383 8.19836 158.549 8.19836C159.424 8.19836 160.169 8.29753 160.816 8.4628C161.464 8.66113 162.015 8.89251 162.533 9.15694C163.019 9.45444 163.44 9.75193 163.828 10.0825C163.99 10.2147 164.379 10.6113 164.735 10.9419C165.124 11.3385 165.124 11.9666 164.703 12.3302L162.598 14.2143C162.274 14.5118 161.756 14.5118 161.432 14.2473L160.946 13.8507C160.752 13.6854 160.557 13.5532 160.331 13.454C160.104 13.3549 159.877 13.2557 159.618 13.1896C159.359 13.1235 159.068 13.0904 158.744 13.0904C158.128 13.0904 157.675 13.1896 157.383 13.3879C157.092 13.5862 156.93 13.8176 156.93 14.049C156.93 14.3134 156.995 14.5118 157.124 14.644C157.254 14.7762 157.481 14.9415 157.804 15.0406C158.128 15.1729 158.517 15.3051 159.035 15.4373C159.553 15.5695 160.169 15.7678 160.914 16.0323C161.95 16.3628 162.76 16.7925 163.407 17.2884C164.055 17.7842 164.541 18.313 164.897 18.875C165.253 19.4369 165.48 20.0319 165.61 20.6269C165.739 21.2218 165.804 21.8499 165.804 22.4449C165.804 23.4695 165.61 24.3951 165.189 25.1884C164.768 25.9817 164.217 26.6758 163.505 27.2047C162.792 27.7336 162.015 28.1633 161.108 28.4608C160.201 28.7583 159.294 28.8905 158.323 28.8905C157.675 28.8905 157.027 28.8574 156.379 28.7583C155.732 28.6591 155.084 28.4938 154.469 28.2294C153.853 27.965 153.238 27.6344 152.655 27.2047C152.266 26.9403 151.91 26.6097 151.554 26.2131C151.489 26.147 151.295 25.9156 151.068 25.6842L150.874 25.4859C150.485 25.1884 150.485 24.5934 150.874 24.2298Z" fill="white"/>
<path d="M104.56 5.28955H109.451C109.775 5.28955 110.066 5.45482 110.228 5.71926L118.066 18.6766V6.21508C118.066 5.6862 118.487 5.28955 118.973 5.28955H122.859C123.377 5.28955 123.766 5.71926 123.766 6.21508V27.1386C123.766 27.8988 123.15 28.5599 122.373 28.5599H118.875C118.228 28.5599 117.645 28.2294 117.321 27.6675L109.354 15.272V27.1386C109.354 27.8988 108.738 28.5599 107.961 28.5599H105.046C104.301 28.5599 103.654 27.9319 103.654 27.1386V6.21508C103.654 5.71926 104.075 5.28955 104.56 5.28955Z" fill="white"/>
<path d="M231.674 55.7535L233.712 53.7178C234.04 53.3841 234.566 53.3507 234.927 53.6511L235.749 54.3185C236.044 54.5521 236.34 54.719 236.669 54.8858C237.096 55.1194 237.556 55.2529 238.016 55.3864C238.18 55.4198 238.344 55.4531 238.476 55.4531C239.002 55.4531 239.396 55.4197 239.724 55.353C239.987 55.2863 240.217 55.1862 240.382 55.0527C240.546 54.9192 240.644 54.7857 240.71 54.6188C240.776 54.452 240.809 54.2518 240.809 54.0515C240.809 53.8179 240.776 53.6177 240.677 53.4509C240.612 53.284 240.447 53.1505 240.217 53.017C239.987 52.8835 239.692 52.7501 239.297 52.5832C238.903 52.4497 238.377 52.2829 237.753 52.0826C236.767 51.7823 235.913 51.4486 235.19 51.0148C234.467 50.6143 233.876 50.1471 233.383 49.5798C232.923 49.0459 232.562 48.4118 232.332 47.6776C232.102 46.9768 232.003 46.1759 232.003 45.2749C232.003 44.474 232.167 43.7065 232.496 43.0057C232.824 42.3049 233.317 41.7042 233.942 41.2036C234.566 40.7031 235.354 40.3026 236.274 40.0356C237.194 39.7353 238.246 39.6018 239.429 39.6018C240.316 39.6018 241.072 39.7019 241.729 39.8688C242.386 40.069 242.944 40.3026 243.47 40.5696C243.963 40.8699 244.39 41.1703 244.784 41.504C244.949 41.6374 245.343 42.0379 245.704 42.3716C246.099 42.7721 246.099 43.4061 245.671 43.7732L243.536 45.6754C243.207 45.9757 242.681 45.9757 242.353 45.7087L241.86 45.3083C241.663 45.1414 241.466 45.0079 241.236 44.9078C241.006 44.8077 240.776 44.7076 240.513 44.6409C240.25 44.5741 239.954 44.5407 239.626 44.5407C239.002 44.5407 238.542 44.6409 238.246 44.8411C237.95 45.0413 237.786 45.2749 237.786 45.5085C237.786 45.7755 237.852 45.9757 237.983 46.1092C238.114 46.2427 238.344 46.4095 238.673 46.5096C239.002 46.6431 239.396 46.7766 239.922 46.9101C240.447 47.0436 241.072 47.2438 241.827 47.5108C242.879 47.8445 243.7 48.2783 244.357 48.7789C245.014 49.2795 245.507 49.8134 245.869 50.3807C246.23 50.948 246.46 51.5487 246.591 52.1494C246.723 52.7501 246.789 53.3841 246.789 53.9848C246.789 55.0193 246.591 55.9537 246.164 56.7546C245.737 57.5555 245.179 58.2563 244.456 58.7902C243.733 59.3242 242.944 59.758 242.024 60.0583C241.104 60.3587 240.184 60.4922 239.199 60.4922C238.542 60.4922 237.884 60.4588 237.227 60.3587C236.57 60.2586 235.913 60.0917 235.289 59.8247C234.664 59.5578 234.04 59.2241 233.449 58.7902C233.054 58.5233 232.693 58.1896 232.332 57.7891C232.266 57.7224 232.069 57.4888 231.839 57.2552L231.642 57.0549C231.28 56.7212 231.313 56.1205 231.674 55.7535Z" fill="#656666"/>
<path d="M149.006 59.4912L148.48 58.0562C147.757 58.8238 146.969 59.3911 146.049 59.8249C145.129 60.2587 144.176 60.459 143.125 60.459C141.81 60.459 140.562 60.2254 139.346 59.7248C138.13 59.2242 137.079 58.5234 136.159 57.6224C135.239 56.7214 134.483 55.6201 133.958 54.352C133.399 53.0839 133.136 51.6823 133.136 50.1139C133.136 48.6789 133.399 47.3441 133.892 46.076C134.418 44.8079 135.108 43.7066 135.995 42.7722C136.882 41.8379 137.933 41.1037 139.149 40.5364C140.365 39.9691 141.679 39.7355 143.092 39.7355C144.308 39.7355 145.359 39.9691 146.312 40.4363C147.265 40.9035 148.053 41.5709 148.776 42.3718L149.4 40.5698C149.532 40.2027 149.893 39.9357 150.287 39.9357H153.179C153.705 39.9357 154.099 40.3695 154.099 40.8701V59.1575C154.099 59.6914 153.672 60.0919 153.179 60.0919H149.893C149.499 60.1253 149.137 59.8583 149.006 59.4912ZM147.79 48.1784C147.56 47.5777 147.199 47.0438 146.772 46.5766C146.345 46.1094 145.852 45.7423 145.26 45.4753C144.669 45.2083 144.045 45.0749 143.388 45.0749C142.763 45.0749 142.172 45.2083 141.613 45.4419C141.055 45.6755 140.562 46.0093 140.135 46.4764C139.708 46.9436 139.379 47.4442 139.116 48.0449C138.853 48.6456 138.722 49.3464 138.722 50.0805C138.722 50.7813 138.853 51.4488 139.083 52.0494C139.313 52.6501 139.642 53.1841 140.069 53.6179C140.496 54.0517 140.956 54.4188 141.548 54.6524C142.106 54.9194 142.73 55.0195 143.388 55.0195C144.045 55.0195 144.669 54.886 145.26 54.619C145.852 54.352 146.345 53.985 146.772 53.5511C147.199 53.1173 147.527 52.5834 147.79 51.9493C148.02 51.3486 148.152 50.7146 148.152 50.0138C148.152 49.4131 148.02 48.7791 147.79 48.1784Z" fill="#656666"/>
<path d="M162.215 40.5363L162.97 42.5052C163.299 42.1381 163.595 41.8044 163.923 41.4707C164.219 41.137 164.58 40.8366 164.942 40.5697C165.303 40.3027 165.73 40.1025 166.19 39.9356C166.65 39.7688 167.209 39.702 167.833 39.702C168.49 39.702 169.115 39.8021 169.706 40.0357C170.297 40.2693 170.856 40.5029 171.349 40.7699C171.842 41.0702 172.269 41.3372 172.597 41.6042C172.696 41.6709 172.827 41.771 172.959 41.9045C173.55 42.3717 173.649 43.206 173.222 43.8401L171.875 45.7756C171.415 46.443 170.495 46.5765 169.87 46.0759C169.377 45.6755 168.819 45.275 168.359 45.1082C168.03 45.008 167.636 44.9413 167.242 44.9413C166.782 44.9413 166.322 45.008 165.895 45.1749C165.467 45.3084 165.106 45.542 164.777 45.8423C164.449 46.1427 164.219 46.5097 164.022 46.9436C163.825 47.3774 163.759 47.9113 163.759 48.4786V58.6235C163.759 59.391 163.135 60.0584 162.346 60.0584H159.159C158.403 60.0584 157.746 59.4244 157.746 58.6235V40.9034C157.746 40.3694 158.173 39.969 158.666 39.969H161.328C161.755 39.9356 162.083 40.1692 162.215 40.5363Z" fill="#656666"/>
<path d="M187.12 48.1449L195.039 58.6234C195.499 59.2575 195.072 60.1585 194.316 60.1585H189.617C189.322 60.1585 189.026 60.025 188.862 59.7581L183.44 52.0493L181.633 53.9515V58.7236C181.633 59.4911 181.009 60.1585 180.22 60.1585H177.066C176.31 60.1585 175.653 59.5245 175.653 58.7236V35.4972C175.653 34.7297 176.277 34.0623 177.066 34.0623H180.22C180.976 34.0623 181.633 34.6963 181.633 35.4972V46.8768L187.416 40.3027C187.58 40.1024 187.843 40.0023 188.106 40.0023H192.607C193.429 40.0023 193.856 41.0035 193.297 41.6041L187.12 48.1449Z" fill="#656666"/>
<path d="M212.453 54.0182L214.194 56.4543C214.49 56.8547 214.424 57.3887 214.063 57.7224C213.767 57.9893 213.439 58.2563 213.307 58.3564C212.979 58.6234 212.65 58.8236 212.289 59.0238C211.664 59.3909 211.04 59.6913 210.416 59.8915C209.792 60.0917 209.2 60.2586 208.576 60.3253C208.05 60.3921 207.524 60.4254 206.966 60.4254C205.684 60.4588 204.37 60.2252 203.187 59.7246C201.84 59.1573 200.657 58.3898 199.639 57.3887C198.719 56.4543 197.963 55.353 197.404 54.1183C196.846 52.8502 196.583 51.5153 196.583 50.0804C196.583 48.6454 196.813 47.3106 197.306 46.0758C197.799 44.8077 198.489 43.7398 199.343 42.8055C200.23 41.8711 201.282 41.1369 202.497 40.5696C203.713 40.0023 205.093 39.7687 206.572 39.7687C207.196 39.7687 207.853 39.8354 208.543 40.0023C209.233 40.1691 209.923 40.4361 210.613 40.7698C211.303 41.1369 211.96 41.5707 212.584 42.1047C213.209 42.6386 213.767 43.306 214.227 44.0402C214.687 44.8077 215.082 45.6754 215.377 46.6431C215.673 47.6109 215.804 48.7122 215.804 49.9469C215.804 50.3807 215.771 50.7144 215.673 50.9814C215.607 51.2484 215.443 51.4486 215.279 51.5821C215.082 51.7156 214.852 51.8157 214.556 51.849C214.26 51.8824 213.899 51.9158 213.472 51.9158H202.267C202.432 52.4497 202.629 52.9503 202.924 53.3507C203.22 53.7846 203.549 54.1517 203.943 54.452C204.337 54.7523 204.764 54.9859 205.224 55.1528C205.684 55.3196 206.21 55.3864 206.703 55.3864C207.459 55.3864 208.05 55.3196 208.543 55.2195C209.036 55.086 209.43 54.9526 209.792 54.7523C210.219 54.5187 210.679 54.1517 211.04 53.8179C211.5 53.4842 212.124 53.551 212.453 54.0182ZM205.159 44.7744C204.764 44.9412 204.403 45.1414 204.074 45.4084C203.746 45.6754 203.45 45.9757 203.22 46.3428C202.957 46.7099 202.76 47.077 202.563 47.4774H210.416C209.989 46.543 209.463 45.8089 208.773 45.3083C208.083 44.8077 207.294 44.5408 206.374 44.5408C205.98 44.5408 205.553 44.6075 205.159 44.7744Z" fill="#656666"/>
<path d="M225.957 45.5422V58.6904C225.957 59.4579 225.333 60.1254 224.544 60.1254H221.291C220.536 60.1254 219.879 59.4913 219.879 58.6904V45.5422H218.006C217.48 45.5422 217.086 45.1083 217.086 44.6078V40.9703C217.086 40.4364 217.513 40.0359 218.006 40.0359H219.879V36.7655C219.879 36.3651 220.141 35.998 220.503 35.8645L224.676 34.4629C225.267 34.2627 225.891 34.7299 225.891 35.3639V40.0025H228.191C228.717 40.0025 229.111 40.4364 229.111 40.9369V44.5744C229.111 45.1083 228.684 45.5088 228.191 45.5088H225.957V45.5422Z" fill="#656666"/>
<path d="M110.662 46.7101L109.413 58.8572C109.348 59.5913 108.723 60.1253 108.033 60.1253H105.043C104.222 60.1253 103.565 59.3911 103.663 58.5568L105.865 37.4662C105.931 36.999 106.325 36.632 106.785 36.632H111.779C112.173 36.632 112.535 36.8989 112.666 37.2994L116.938 51.5489L121.209 37.2994C121.34 36.8989 121.702 36.632 122.096 36.632H127.09C127.55 36.632 127.978 36.999 128.01 37.4662L130.212 58.5235C130.31 59.3577 129.653 60.0919 128.832 60.0919H125.842C125.119 60.0919 124.528 59.558 124.462 58.8238L123.246 47.0104L119.698 59.0908C119.533 59.6914 118.975 60.0919 118.35 60.0919H115.492C114.868 60.0919 114.309 59.6581 114.145 59.0574L110.662 46.7101Z" fill="#656666"/>
<defs>
<linearGradient id="paint0_linear" x1="33.2495" y1="5.29377" x2="-11.4882" y2="23.1377" gradientUnits="userSpaceOnUse">
<stop stop-color="#5500FF"/>
<stop offset="1" stop-color="#4FC7D6"/>
</linearGradient>
<linearGradient id="paint1_linear" x1="68.7787" y1="-63.3692" x2="-70.5433" y2="-40.0872" gradientUnits="userSpaceOnUse">
<stop stop-color="#5500FF"/>
<stop offset="1" stop-color="#00F6FF"/>
</linearGradient>
<linearGradient id="paint2_linear" x1="68.0398" y1="12.9553" x2="68.0398" y2="48.2357" gradientUnits="userSpaceOnUse">
<stop stop-color="#102166"/>
<stop offset="1" stop-color="#1D3BB7"/>
</linearGradient>
</defs>
</svg>
