<?xml version="1.0" encoding="UTF-8"?>
<!DOCTYPE svg PUBLIC "-//W3C//DTD SVG 1.1//EN" "http://www.w3.org/Graphics/SVG/1.1/DTD/svg11.dtd">
<!-- Creator: CorelDRAW 2017 -->
<svg xmlns="http://www.w3.org/2000/svg" xml:space="preserve" width="200px" height="75px" version="1.1" style="shape-rendering:geometricPrecision; text-rendering:geometricPrecision; image-rendering:optimizeQuality; fill-rule:evenodd; clip-rule:evenodd"
viewBox="0 0 200 75"
 xmlns:xlink="http://www.w3.org/1999/xlink">
 <defs>
  <style type="text/css">
 
  </style>
 </defs>
 <g id="Layer_x0020_1">
  <metadata id="CorelCorpID_0Corel-Layer"/>
  <g id="_2357856116032">
   <g>
    <polygon class="fil0" points="105.9,36.12 92.41,23.38 92.41,35.28 88.94,35.28 88.94,15.6 102.44,28.44 102.44,16.35 106,16.35 106,36.12 "/>
    <path class="fil0" d="M126.05 21.88c0.47,1.22 0.75,2.44 0.75,3.84 0,1.31 -0.28,2.63 -0.75,3.84 -0.46,1.13 -1.12,2.25 -2.06,3.1 -0.84,0.84 -1.87,1.59 -3.09,2.15 -1.22,0.47 -2.44,0.75 -3.75,0.75 -1.31,0 -2.53,-0.28 -3.75,-0.75 -1.12,-0.47 -2.15,-1.22 -3,-2.15 -0.84,-0.94 -1.59,-1.97 -2.06,-3.1 -0.47,-1.21 -0.75,-2.53 -0.75,-3.84 0,-1.31 0.28,-2.62 0.75,-3.84 0.47,-1.22 1.22,-2.25 2.06,-3.19 0.85,-0.94 1.88,-1.59 3,-2.15 1.22,-0.47 2.44,-0.75 3.75,-0.75 1.31,0 2.63,0.28 3.75,0.75 1.12,0.46 2.25,1.21 3.09,2.15 0.85,0.94 1.6,1.97 2.06,3.19zm-2.71 3.84c0,-1.69 -0.66,-3.28 -1.78,-4.4 -1.13,-1.13 -2.72,-1.78 -4.41,-1.78 -1.69,0 -3.19,0.65 -4.4,1.78 -1.13,1.12 -1.78,2.71 -1.78,4.4 0,1.69 0.65,3.28 1.78,4.41 1.12,1.12 2.71,1.78 4.4,1.78 1.69,0 3.28,-0.66 4.41,-1.78 1.12,-1.22 1.78,-2.72 1.78,-4.41z"/>
    <polygon class="fil0" points="134.96,36.22 125.4,16.35 129.33,16.35 135.15,28.25 140.58,16.35 144.52,16.35 "/>
    <polygon class="fil0" points="149.67,19.82 149.67,23.57 157.64,23.57 157.64,27.13 149.67,27.13 149.67,31.72 159.42,31.72 159.42,35.28 146.11,35.28 146.11,16.35 159.42,16.35 159.42,19.91 149.67,19.91 "/>
    <polygon class="fil0" points="164.85,16.35 164.85,31.72 173.48,31.72 173.48,35.28 161.29,35.28 161.29,16.35 "/>
    <polygon class="fil0" points="179.19,16.35 179.19,35.28 175.54,35.28 175.54,16.35 "/>
    <path class="fil0" d="M183.04 34.53c-0.94,-0.47 -1.41,-0.94 -1.6,-1.03l0 -4.59c0.28,0.28 0.85,0.84 1.5,1.4 0.66,0.47 1.41,0.94 2.25,1.22 0.94,0.38 1.97,0.56 3,0.56 1.22,0 2.25,-0.28 3,-0.84 0.66,-0.47 1.03,-0.94 1.03,-1.5 0,-0.66 -0.28,-1.12 -1.03,-1.5 -0.84,-0.37 -1.97,-0.65 -3.09,-0.84l-0.1 0c-1.59,-0.28 -3.18,-0.66 -4.4,-1.41 -0.75,-0.47 -1.31,-1.03 -1.69,-1.68 -0.47,-0.75 -0.65,-1.69 -0.65,-2.82 0,-1.78 0.84,-3.28 2.24,-4.21l0 0c1.22,-0.85 2.82,-1.22 4.6,-1.22 2.43,0 3.93,0.56 4.78,1.03 0.84,0.37 1.22,0.84 1.31,0.94l-0.09 4.31c0,0 -1.97,-2.63 -6.28,-2.63 -0.57,0 -1.41,0.1 -2.16,0.47 -0.75,0.38 -1.12,0.84 -1.12,1.41 0,0.84 0.37,1.31 1.12,1.68 0.84,0.47 1.97,0.66 3.19,0.94 1.68,0.28 3.18,0.66 4.4,1.31 0.75,0.47 1.31,0.94 1.69,1.6 0.47,0.65 0.66,1.5 0.66,2.53 0,1.12 -0.19,2.06 -0.66,2.81 -0.38,0.75 -1.03,1.4 -1.69,1.87 -1.59,1.13 -3.56,1.32 -4.97,1.32 -2.53,0 -4.21,-0.57 -5.24,-1.13z"/>
    <polygon class="fil0" points="200,35.19 196.81,35.19 196.81,31.72 200,31.72 "/>
    <path class="fil0" d="M100.19 55.99c-1.22,0.75 -2.53,1.13 -4.03,1.13 -4.22,0 -7.59,-3.38 -7.59,-7.5 0,-4.12 3.37,-7.59 7.59,-7.59 1.5,0 2.9,0.47 4.03,1.22l0 2.25c-1.03,-0.94 -2.44,-1.5 -4.03,-1.5 -3.28,0 -5.81,2.53 -5.81,5.62 0,3.09 2.53,5.62 5.81,5.62 1.59,0 3,-0.56 4.03,-1.5l0 2.25z"/>
    <path class="fil0" d="M116.59 53.65l-7.12 0 -1.6 3.37 -2.06 0 7.22 -15.18 7.21 15.18 -1.96 0 -1.69 -3.37zm-6.28 -1.87l5.53 0 -2.72 -6 -2.81 6z"/>
    <path class="fil0" d="M128.77 57.02l-1.87 0 0 -14.52 5.72 0c1.96,0 4.21,1.4 4.21,4.4 0,3 -2.25,4.5 -4.21,4.5l-3.94 0 0 5.62 0.09 0zm0 -7.49l3.66 0c1.97,0 2.62,-1.22 2.62,-2.53 0,-1.32 -0.75,-2.53 -2.62,-2.53l-3.66 0 0 5.06z"/>
    <polygon class="fil0" points="146.11,57.02 144.24,57.02 144.24,42.5 146.11,42.5 "/>
    <polygon class="fil0" points="153.51,44.28 153.51,42.5 165.51,42.5 165.51,44.28 160.45,44.28 160.45,56.93 158.57,56.93 158.57,44.28 "/>
    <path class="fil0" d="M179.76 53.65l-7.13 0 -1.59 3.37 -2.06 0 7.21 -15.18 7.22 15.18 -1.97 0 -1.68 -3.37zm-6.38 -1.87l5.53 0 -2.72 -6 -2.81 6z"/>
    <polygon class="fil0" points="191.85,55.15 198.97,55.15 198.97,56.93 190.07,56.93 190.07,42.5 191.94,42.5 191.94,55.15 "/>
   </g>
   <g>
    <path class="fil0" d="M73.1 10.82c0,-1.31 -0.09,-1.5 -0.65,-1.88 -1.04,-0.56 -3.94,-2.24 -4.41,-2.53 -3.28,-1.96 -6.56,-3.84 -9.75,-5.81 -0.56,-0.28 -1.03,-0.56 -1.68,-0.28 -4.41,2.53 -8.81,5.06 -13.5,7.78 4.88,2.53 8.9,4.87 13.5,7.41 1.4,0.75 1.96,1.59 1.87,3.18 -0.09,12.37 0,24.74 0,37.12 0,1.87 -0.84,1.96 -2.06,1.21 -6.84,-3.84 -19.96,-11.52 -27.18,-15.65 0,0 0,1.41 0,2.91 0,4.22 0,8.34 0,12.56 0,1.03 0.28,1.68 1.22,2.15 8.62,4.88 17.15,9.84 25.68,14.81 0.75,0.37 1.31,0.56 2.06,0.09 4.31,-2.53 13.78,-8.24 13.96,-8.43 0.75,-0.56 0.85,-1.31 0.85,-2.34 0.09,-17.25 0,-34.87 0.09,-52.3z"/>
    <path class="fil0" d="M14.62 56.37c0.09,-12.19 0,-34.96 0.09,-37.3 0,-1.13 0.66,-1.69 1.88,-0.94 4.87,2.72 13.87,7.87 20.52,11.71 2.16,1.32 4.32,2.54 6.75,4.03 0,-4.87 0.1,-12.37 0.1,-13.96 0,-3.09 -0.57,-3.09 -3.28,-4.69 -2.07,-1.21 -20.9,-12.27 -21.56,-12.74 -2.44,-1.6 -3.47,-1.78 -6,-0.19 -0.28,0.19 -11.43,6.56 -11.62,6.65 -1.22,0.66 -1.5,1.41 -1.5,2.72 0,17.62 0,35.24 0,52.86 0,1.22 0.19,1.69 1.22,2.25 3.56,1.97 11.43,6.65 11.99,7.03 2.63,1.5 2.91,1.31 6.57,-0.66 2.53,-1.4 8.99,-5.34 10.12,-5.99 -4.69,-2.72 -9.09,-5.35 -13.5,-7.78 -1.31,-0.75 -1.78,-1.5 -1.78,-3z"/>
   </g>
  </g>
 </g>
</svg>
