<svg width="196" height="51" viewBox="0 0 196 51" fill="none" xmlns="http://www.w3.org/2000/svg">
<g clip-path="url(#clip0)">
<path fill-rule="evenodd" clip-rule="evenodd" d="M25.8789 17.7263C28.954 18.3542 31.8233 19.743 34.2253 21.7661C34.7044 20.6547 34.7823 19.4109 34.4457 18.2482C34.109 17.0855 33.3788 16.0765 32.3804 15.3942C27.8616 12.3725 23.5785 9.01126 19.5682 5.33952L19.9499 10.0802C20.0636 10.8058 20.3776 11.4851 20.8565 12.0413C21.3354 12.5975 21.9601 13.0085 22.6599 13.2278L29.1233 16.4902C26.2221 15.6843 23.4024 14.6092 20.7006 13.2788C21.2476 16.4265 23.3088 17.1019 25.8789 17.7263Z" fill="#DFAE59"/>
<path fill-rule="evenodd" clip-rule="evenodd" d="M25.447 2.3384e-06C30.3336 -0.0046498 35.1183 1.4001 39.2291 4.04639C43.3399 6.69267 46.6031 10.4686 48.6286 14.9228C43.9974 9.07346 39.2389 5.13568 34.5313 3.60645C20.5359 -0.904795 5.44623 5.77287 3.47415 19.9565C1.65474 32.8658 8.95782 43.3411 20.9812 43.0352C24.1705 42.6588 27.1857 41.3765 29.6711 39.3396C28.0857 39.3035 26.5152 39.0242 25.0144 38.5112L30.7144 36.1282C32.3811 35.4273 32.6101 33.9745 32.5592 32.4325C32.182 33.0433 31.7565 33.6229 31.2869 34.1657C29.909 35.3089 28.1897 35.9592 26.4012 36.0135C24.5437 36.2429 21.7827 36.4468 20.1033 35.2106L16.6935 32.6619L26.0323 32.1139C26.3811 32.132 26.7297 32.0746 27.0544 31.9455C27.3791 31.8164 27.6721 31.6188 27.9137 31.366C28.1552 31.1132 28.3394 30.8113 28.4539 30.4807C28.5683 30.1502 28.6103 29.7988 28.5769 29.4505C28.2931 29.8992 27.8873 30.2575 27.4073 30.4832C26.9272 30.709 26.3928 30.7928 25.8669 30.7249L17.3424 30.3936C15.6197 30.4414 13.9156 30.0279 12.4058 29.1957L8.44889 25.8568L22.2281 27.1312C24.4292 27.3351 25.6633 26.7744 26.3885 25.449C21.7827 26.1882 17.0879 24.8373 12.5203 24.1747C11.6449 24.0723 10.7991 23.7938 10.0339 23.3558C9.26864 22.9178 8.59968 22.3294 8.0672 21.6259L5.02637 16.006L25.1671 20.7976C24.2978 19.9558 23.3123 19.2434 22.2408 18.6822C25.1798 19.9565 28.0425 20.033 30.3327 21.1289C33.5517 22.6582 35.8927 24.7099 36.8342 27.5007C36.6803 25.6445 36.0443 23.8608 34.9894 22.3268C36.1148 21.7889 37.2703 21.3166 38.4501 20.9123C37.8485 20.6621 37.2145 20.4991 36.567 20.428C39.2262 19.2939 41.9616 16.8471 44.2009 16.6814C43.7302 15.904 44.2009 14.7826 45.1297 13.47C45.5986 14.5858 46.1604 15.66 46.8092 16.6814C47.3537 16.5965 47.9104 16.6357 48.4377 16.7961C49.0987 17.1961 49.6879 17.7044 50.1808 18.2999C50.7172 18.6366 51.2162 19.0296 51.6694 19.4723C52.56 20.7466 51.9493 20.1222 53.3998 20.9505C54.318 21.5177 55.265 22.0366 56.237 22.5052C56.8223 22.7474 57.0895 23.1552 57.0004 23.5502C56.8602 24.0633 56.8602 24.6046 57.0004 25.1177C57.0589 25.2647 57.0719 25.4258 57.0379 25.5803C57.0039 25.7348 56.9243 25.8756 56.8096 25.9843C56.4689 26.261 56.1765 26.5927 55.9444 26.9655C55.8412 27.1358 55.6758 27.259 55.4834 27.309C55.2909 27.3589 55.0866 27.3317 54.9138 27.2331L53.6161 26.3283C52.5219 25.5892 51.5295 26.2136 50.0408 26.545C47.3435 27.1439 45.804 25.449 45.5877 22.9003C44.1119 27.3096 45.3333 30.6102 49.7991 32.5472C46.1348 43.2519 36.5289 50.9872 25.4597 50.9872C18.711 50.9872 12.2386 48.302 7.46649 43.5222C2.69439 38.7424 0.0134506 32.2596 0.0134506 25.5C0.0134506 18.7404 2.69439 12.2576 7.46649 7.47779C12.2386 2.698 18.711 0.012746 25.4597 0.012746L25.447 2.3384e-06ZM51.0714 20.9123C50.9452 20.3789 50.6313 19.9089 50.1874 19.5883C49.7435 19.2677 49.1992 19.1179 48.654 19.1664C48.9195 19.6049 49.2703 19.9855 49.6856 20.2854C50.1009 20.5854 50.5722 20.7986 51.0714 20.9123Z" fill="#DFAE59"/>
<path d="M85.016 26.4685C85.0338 28.0548 84.7799 29.6324 84.2653 31.1327C83.7823 32.5169 83.0152 33.7845 82.0133 34.8538C81.1869 35.7827 80.1833 36.5366 79.0616 37.0712C77.8553 37.5824 76.554 37.83 75.2446 37.7976C73.9329 37.8129 72.6326 37.5525 71.4277 37.033C70.2151 36.4842 69.1378 35.675 68.2724 34.6627C67.3355 33.5942 66.6178 32.3514 66.1603 31.0052C65.6897 29.5529 65.4577 28.0336 65.4733 26.5067C65.4452 24.8635 65.708 23.2283 66.2494 21.6769C66.8181 20.2142 67.6847 18.8861 68.794 17.7774C69.6182 16.9182 70.6158 16.2448 71.7203 15.8021C72.8426 15.3584 74.0381 15.1293 75.2446 15.1267C76.5045 15.1142 77.7544 15.3525 78.9216 15.8276C80.096 16.3466 81.1458 17.1114 82.0006 18.0705C82.9902 19.1345 83.7561 20.3869 84.2526 21.7534C84.7775 23.269 85.0358 24.8644 85.016 26.4685ZM83.7437 26.3156C83.7376 24.7917 83.4441 23.2827 82.8785 21.8681C82.3891 20.5606 81.6305 19.3709 80.652 18.3763C79.9338 17.6271 79.067 17.0367 78.1073 16.6432C77.1911 16.3034 76.2216 16.1308 75.2446 16.1334C74.2585 16.1207 73.2788 16.2936 72.3565 16.6432C71.4016 17.0105 70.5346 17.5749 69.8119 18.2998C68.8269 19.3042 68.0754 20.5139 67.6107 21.8426C66.5522 24.7872 66.5253 28.005 67.5344 30.967C68.0247 32.2921 68.7876 33.4991 69.7737 34.5097C70.4921 35.2524 71.3593 35.8344 72.3183 36.2174C73.2748 36.6107 74.2997 36.81 75.3337 36.8036C76.3306 36.8058 77.3191 36.6199 78.2473 36.2556C79.2069 35.8976 80.0757 35.3319 80.7919 34.5989C81.7868 33.5852 82.5735 32.386 83.1075 31.069C83.6121 29.5423 83.8236 27.9338 83.731 26.3283L83.7437 26.3156Z" fill="#333333"/>
<path d="M75.2446 38.1162C73.8895 38.1289 72.5465 37.8598 71.3005 37.3261C70.0452 36.7594 68.9291 35.9243 68.0306 34.8793C67.063 33.7616 66.3277 32.4619 65.8677 31.0562C65.3758 29.5732 65.135 28.0183 65.1552 26.4558C65.1293 24.7731 65.4006 23.0992 65.9567 21.5112C66.5202 20.0158 67.3866 18.6534 68.5014 17.5097C69.3585 16.6179 70.395 15.9186 71.5422 15.458C72.7277 15.0266 73.9838 14.8234 75.2446 14.8591C76.5529 14.8404 77.8513 15.0875 79.0616 15.5854C80.2806 16.1189 81.37 16.9101 82.2551 17.9048C83.2837 19.0042 84.0724 20.3062 84.5707 21.7279C85.106 23.2808 85.3686 24.915 85.3468 26.5577C85.3666 28.1785 85.1084 29.7906 84.5834 31.3238C84.078 32.745 83.2853 34.0464 82.2551 35.1469C81.3782 36.1299 80.2947 36.906 79.0825 37.4194C77.8703 37.9329 76.5596 38.1708 75.2446 38.1162ZM75.2446 15.4453C74.0668 15.4592 72.9019 15.6925 71.8094 16.1334C70.7415 16.5597 69.7781 17.2117 68.9848 18.045C67.9122 19.129 67.0874 20.4334 66.5674 21.8681C66.0364 23.3821 65.7779 24.9786 65.8041 26.5832C65.7916 28.0755 66.0193 29.56 66.4784 30.9797C66.9134 32.2918 67.6104 33.5014 68.5268 34.5352C69.3574 35.5137 70.3965 36.2932 71.5676 36.8163C73.2667 37.5969 75.1702 37.8139 77.0009 37.4357C78.8317 37.0575 80.4941 36.1038 81.7462 34.7136C82.7123 33.6726 83.4569 32.4456 83.9345 31.1072C84.4333 29.6388 84.6786 28.0959 84.6598 26.545C84.6819 24.9761 84.4322 23.4152 83.9218 21.9318C83.4402 20.6095 82.7006 19.3965 81.7462 18.3636C80.9373 17.4179 79.935 16.6573 78.8071 16.1334C77.6774 15.6681 76.4661 15.4341 75.2446 15.4453ZM75.2446 37.1094C74.1729 37.1229 73.1092 36.9237 72.1147 36.5232C71.1261 36.1187 70.2332 35.5109 69.4938 34.7391C68.4845 33.6929 67.7045 32.4472 67.2036 31.0817C66.6784 29.6146 66.4199 28.0651 66.4402 26.5067C66.421 24.8795 66.7058 23.263 67.2799 21.7406C67.7926 20.366 68.5955 19.1185 69.6337 18.0832C70.3587 17.3452 71.2239 16.7602 72.1784 16.3628C74.1035 15.6484 76.2204 15.6484 78.1455 16.3628C79.1671 16.76 80.0914 17.3728 80.8555 18.1597C81.8637 19.1846 82.6479 20.4085 83.1584 21.7534C83.7373 23.2095 84.0393 24.7611 84.049 26.3283C84.0947 27.9905 83.8271 29.6463 83.2602 31.2091C82.7054 32.5605 81.8978 33.7933 80.881 34.8411C80.1434 35.5843 79.2535 36.1582 78.2727 36.5232C77.3096 36.9106 76.2825 37.1137 75.2446 37.1222V37.1094ZM75.2446 16.4393C74.2979 16.4243 73.3568 16.5886 72.471 16.9235C71.5767 17.2916 70.7638 17.8329 70.079 18.5165C69.1029 19.4859 68.3477 20.6553 67.8652 21.9445C67.3274 23.3957 67.0601 24.9334 67.0764 26.4812C67.0559 27.9658 67.3016 29.4419 67.8016 30.8396C68.2709 32.1234 69.0083 33.2921 69.9645 34.2676C70.6336 34.9826 71.4497 35.5435 72.3565 35.9115C74.1839 36.6323 76.2163 36.6323 78.0437 35.9115C78.9441 35.5682 79.7568 35.0284 80.4229 34.3313C81.3853 33.3432 82.1498 32.1795 82.6749 30.9033C83.2034 29.4377 83.4537 27.8861 83.4129 26.3283C83.423 24.8485 83.1599 23.3795 82.6368 21.9955C82.1557 20.7326 81.4193 19.5829 80.4738 18.6184C79.7553 17.8883 78.8871 17.3231 77.9292 16.9618C77.0708 16.6367 76.1623 16.4642 75.2446 16.452V16.4393Z" fill="#333333"/>
<path d="M98.0573 21.6641C97.0455 21.9743 96.0516 22.3402 95.0801 22.7601C93.6212 23.3782 92.2094 24.1023 90.856 24.9265C90.856 25.054 90.856 25.6911 90.856 26.8508V29.8328C90.856 31.1072 90.856 32.5982 90.856 34.3313C90.856 36.0645 90.856 37.033 90.856 37.2241H89.5837C89.5837 37.033 89.5837 36.434 89.5837 35.4145C89.5837 34.395 89.5837 32.6619 89.5837 30.2024C89.5837 29.2084 89.5837 27.8193 89.5837 26.0352C89.5837 24.2511 89.5837 22.5817 89.5837 20.9378H90.856V23.7796C92.0716 23.0239 93.3484 22.3717 94.6729 21.8298C96.1106 21.2309 97.1539 20.8358 97.7901 20.6447L98.0573 21.6641Z" fill="#333333"/>
<path d="M91.1868 37.5427H89.3165V37.2241C89.3165 37.033 89.3165 36.434 89.3165 35.4145C89.3165 34.395 89.3165 32.6619 89.3165 30.2024C89.3165 29.2084 89.3165 27.8193 89.3165 26.0352C89.3165 24.2511 89.3165 22.5817 89.3165 20.9378V20.6192H91.1868V23.1679C92.2682 22.5337 93.3903 21.9718 94.5457 21.4857C95.58 21.0311 96.6375 20.6312 97.7137 20.2878L98.0191 20.1986L98.4517 21.8808L98.1463 21.97C97.1521 22.2729 96.1751 22.6302 95.22 23.0405C93.8242 23.612 92.4719 24.2849 91.174 25.054V29.7818C91.174 31.0562 91.174 32.5472 91.174 34.2803C91.174 36.0135 91.174 36.982 91.174 37.1732L91.1868 37.5427ZM89.9145 36.9055H90.5124C90.5124 36.4595 90.5124 35.6312 90.5124 34.3568C90.5124 32.6237 90.5124 31.1199 90.5124 29.8583V24.7609L90.6651 24.6717C92.036 23.8391 93.4696 23.1148 94.9528 22.5052C96.1361 22.021 97.0267 21.6896 97.6756 21.4857L97.5611 21.0525C96.9249 21.2564 95.9834 21.6132 94.7747 22.1357C93.4788 22.6716 92.2279 23.3109 91.0341 24.0472L90.8305 24.1874L90.5124 23.8688V21.3201H89.9145C89.9145 22.8111 89.9145 24.3913 89.9145 26.048C89.9145 27.7046 89.9145 29.2211 89.9145 30.2151C89.9145 32.6747 89.9145 34.4205 89.9145 35.44C89.9653 36.1027 89.9526 36.5997 89.9526 36.9055H89.9145Z" fill="#333333"/>
<path d="M102.612 16.6687H101.149V15.0884H102.612V16.6687ZM102.498 37.2241H101.225C101.225 36.8418 101.225 36.0135 101.225 34.6754C101.225 33.3373 101.225 31.5787 101.225 29.2594V25.3853C101.225 23.9325 101.225 22.467 101.225 20.9887H102.498C102.498 22.6709 102.498 24.0982 102.498 25.2706V29.0937C102.498 30.5974 102.498 32.2286 102.498 33.9872C102.498 35.7459 102.498 36.88 102.498 37.2241Z" fill="#333333"/>
<path d="M102.816 37.5427H100.945V37.2241C100.945 36.8418 100.945 36.0135 100.945 34.6754C100.945 33.3373 100.945 31.5914 100.945 29.2721V25.3853C100.945 23.9325 100.945 22.467 100.945 21.0015V20.6701H102.816V21.0015C102.816 22.6836 102.816 24.1109 102.816 25.2833V29.1064C102.816 30.5974 102.816 32.2414 102.816 34C102.816 35.7586 102.816 36.8291 102.816 37.1731V37.5427ZM101.543 36.9055H102.141C102.141 36.3958 102.141 35.44 102.141 34.051C102.141 32.2923 102.141 30.6611 102.141 29.1574V25.3343C102.141 24.2384 102.141 22.9258 102.141 21.371H101.582C101.582 22.7346 101.582 24.0982 101.582 25.449V29.374C101.582 31.6934 101.582 33.503 101.582 34.7901C101.594 35.7204 101.582 36.4468 101.582 36.9055H101.543ZM102.892 16.9872H100.831V14.7698H102.93L102.892 16.9872ZM101.429 16.3501H102.256V15.407H101.429V16.3501Z" fill="#333333"/>
<path d="M121.557 29.1064C121.572 30.3293 121.374 31.5454 120.972 32.7001C120.578 33.769 119.962 34.7419 119.165 35.5547C118.523 36.2062 117.757 36.7219 116.913 37.0712C116.062 37.4052 115.155 37.5697 114.241 37.5555C113.316 37.563 112.397 37.3989 111.531 37.0712C110.685 36.7251 109.918 36.2089 109.279 35.5547C108.492 34.7385 107.886 33.766 107.498 32.7001C107.077 31.5407 106.87 30.3144 106.887 29.081C106.869 27.8994 107.049 26.7232 107.422 25.6019C107.773 24.5904 108.323 23.659 109.037 22.8621C109.705 22.1485 110.522 21.5915 111.429 21.2309C112.324 20.8769 113.279 20.6995 114.241 20.7084C115.202 20.6977 116.154 20.8842 117.04 21.2564C117.91 21.6258 118.687 22.1828 119.318 22.8876C120.08 23.684 120.669 24.6299 121.048 25.6657C121.408 26.7762 121.58 27.9391 121.557 29.1064ZM120.285 29.1064C120.328 27.9338 120.155 26.7632 119.776 25.6529C119.402 24.6973 118.834 23.8296 118.109 23.1042C117.611 22.6019 117.013 22.211 116.353 21.9573C115.689 21.7132 114.987 21.5881 114.279 21.5877C113.521 21.577 112.767 21.7021 112.053 21.9573C111.326 22.2685 110.678 22.7388 110.157 23.3336C109.478 24.0664 108.962 24.9351 108.643 25.8823C108.284 26.936 108.112 28.0444 108.134 29.1574C108.106 30.3657 108.309 31.5683 108.732 32.7001C109.145 33.6726 109.766 34.5425 110.551 35.2489C111.024 35.6837 111.584 36.0137 112.193 36.2174C112.846 36.4523 113.534 36.573 114.228 36.5742C114.954 36.5666 115.673 36.433 116.353 36.1792C117.04 35.9189 117.662 35.5099 118.173 34.9813C118.879 34.2505 119.428 33.3833 119.788 32.4325C120.162 31.3773 120.347 30.2643 120.336 29.1447L120.285 29.1064Z" fill="#333333"/>
<path d="M114.241 37.8741C113.276 37.8845 112.317 37.7116 111.417 37.3643C110.527 37.0016 109.721 36.4594 109.05 35.7714C108.237 34.9397 107.608 33.9452 107.205 32.8531C106.769 31.6572 106.554 30.3921 106.569 29.1192C106.554 27.9035 106.739 26.6937 107.116 25.5382C107.483 24.4865 108.059 23.5198 108.808 22.6964C109.504 21.9 110.375 21.2762 111.353 20.8741C113.233 20.1288 115.326 20.1288 117.206 20.8741C118.123 21.2579 118.945 21.8412 119.61 22.5817C120.392 23.438 120.994 24.4436 121.379 25.5382C121.751 26.6817 121.936 27.8782 121.926 29.081C121.945 30.3437 121.738 31.5997 121.315 32.7894C120.905 33.8948 120.267 34.9019 119.445 35.7459C118.771 36.4336 117.966 36.9795 117.078 37.3516C116.174 37.7048 115.211 37.8821 114.241 37.8741ZM114.241 20.9633C113.318 20.9534 112.402 21.1221 111.544 21.4603C110.675 21.8369 109.901 22.4029 109.279 23.1169C108.586 23.875 108.057 24.7689 107.727 25.7421C107.364 26.8304 107.188 27.9721 107.205 29.1192C107.19 30.3141 107.392 31.5017 107.803 32.6237C108.17 33.6371 108.751 34.5588 109.508 35.3253C110.113 35.9542 110.847 36.4453 111.658 36.7654C113.3 37.3743 115.106 37.3743 116.748 36.7654C117.556 36.4341 118.288 35.9396 118.898 35.3126C119.659 34.5352 120.249 33.606 120.628 32.5855C121.026 31.4653 121.22 30.2826 121.201 29.0937C121.213 27.9594 121.037 26.831 120.679 25.7549C120.336 24.74 119.781 23.8102 119.05 23.0277C118.445 22.3593 117.703 21.829 116.875 21.473C116.039 21.1311 115.144 20.9579 114.241 20.9633ZM114.241 36.9183C113.524 36.9075 112.814 36.7739 112.142 36.5232C111.49 36.3017 110.892 35.9457 110.386 35.4783C109.559 34.7376 108.91 33.8181 108.49 32.7894C108.032 31.6127 107.811 30.3565 107.841 29.0937C107.813 27.9572 107.977 26.8241 108.325 25.7421C108.674 24.7729 109.215 23.8843 109.915 23.1297C110.469 22.4962 111.161 21.999 111.938 21.6769C113.394 21.1536 114.986 21.1536 116.442 21.6769C117.148 21.9435 117.789 22.356 118.325 22.8876C119.073 23.6462 119.662 24.5476 120.056 25.5382C120.487 26.6902 120.695 27.9145 120.666 29.1447C120.685 30.3044 120.491 31.4577 120.094 32.5472C119.726 33.5569 119.149 34.4775 118.402 35.2489C117.86 35.8185 117.193 36.2546 116.455 36.5232C115.743 36.7912 114.988 36.9251 114.228 36.9183H114.241ZM114.241 21.919C113.521 21.9105 112.806 22.0314 112.129 22.2759C111.448 22.5622 110.839 22.9976 110.348 23.5502C109.71 24.244 109.216 25.0585 108.897 25.946C108.558 26.9644 108.395 28.0331 108.414 29.1064C108.387 30.2856 108.59 31.4588 109.012 32.56C109.409 33.5 110.003 34.3432 110.755 35.0322C111.197 35.4342 111.717 35.742 112.282 35.937C113.556 36.4016 114.952 36.4016 116.226 35.937C116.87 35.6948 117.453 35.3117 117.931 34.8156C118.605 34.1115 119.133 33.2797 119.483 32.3688C119.843 31.3461 120.02 30.2674 120.005 29.1829C120.031 28.032 119.841 26.8864 119.445 25.8058C119.081 24.9009 118.54 24.0778 117.854 23.3846C117.388 22.9102 116.824 22.5447 116.2 22.3141C115.58 22.0691 114.921 21.9353 114.254 21.919H114.241Z" fill="#333333"/>
<path d="M137.983 37.2242H136.71C136.71 36.9183 136.71 35.9498 136.71 34.2422C136.71 32.5345 136.71 31.5278 136.71 31.1327C136.71 30.7377 136.71 29.7437 136.71 28.584C136.71 27.4243 136.71 26.6597 136.71 26.1627C136.816 24.9251 136.508 23.6874 135.832 22.6455C135.471 22.2919 135.036 22.022 134.559 21.8546C134.082 21.6873 133.574 21.6267 133.071 21.677C132.052 21.7458 131.057 22.0188 130.145 22.4798C129.049 22.9573 127.991 23.5153 126.977 24.1492V26.4048C126.977 27.7939 126.977 28.9536 126.977 29.9221C126.977 31.1964 126.977 32.662 126.977 34.4206C126.977 36.1792 126.977 37.0967 126.977 37.1859H125.705C125.705 37.1095 125.705 36.4468 125.705 35.2107C125.705 33.9745 125.705 32.1395 125.705 29.6927C125.705 28.5713 125.705 27.2587 125.705 25.7549C125.705 24.2512 125.705 22.6582 125.705 20.9506H126.977V23.1425C128.063 22.479 129.194 21.8914 130.361 21.3839C131.381 20.9171 132.485 20.6655 133.606 20.6447C134.181 20.6299 134.754 20.7355 135.286 20.955C135.818 21.1744 136.299 21.5028 136.697 21.9191C137.132 22.3888 137.468 22.9408 137.687 23.5426C137.905 24.1445 138.002 24.784 137.97 25.4236V28.8771C137.97 29.8584 137.97 30.6485 137.97 31.2602C137.97 32.2287 137.97 33.4521 137.97 34.9176C137.97 36.3831 137.983 37.1477 137.983 37.2242Z" fill="#333333"/>
<path d="M138.301 37.5427H136.417V37.2241C136.417 36.9183 136.417 35.9498 136.417 34.2421C136.417 32.5345 136.417 31.5277 136.417 31.1327C136.417 30.7376 136.417 29.7436 136.417 28.584C136.417 27.4243 136.417 26.6724 136.417 26.1627C136.517 25.0003 136.236 23.8371 135.616 22.8493C135.278 22.532 134.876 22.2915 134.437 22.1442C133.998 21.9968 133.532 21.9461 133.071 21.9955C132.097 22.0706 131.146 22.3346 130.272 22.7729C129.243 23.2177 128.248 23.7374 127.295 24.3276V26.4558C127.295 27.8321 127.295 29.0045 127.295 29.9603C127.295 31.2346 127.295 32.7002 127.295 34.4588C127.295 36.2174 127.295 37.1349 127.295 37.2241V37.5427H125.425V37.2241C125.425 37.1477 125.425 36.485 125.425 35.2489C125.425 34.0128 125.425 32.1777 125.425 29.7309C125.425 28.6095 125.425 27.2969 125.425 25.8059C125.425 24.3149 125.425 22.6964 125.425 20.9888V20.6702H127.41V22.5945C128.359 22.0279 129.345 21.5255 130.361 21.0907C133.02 19.9438 135.451 20.0712 137.041 21.6642C137.488 22.1691 137.831 22.7581 138.05 23.3969C138.268 24.0357 138.358 24.7116 138.313 25.3853V28.8771C138.313 29.8583 138.313 30.6484 138.313 31.2601C138.313 32.2286 138.313 33.452 138.313 34.9176V35.2489C138.313 36.5233 138.313 37.1987 138.313 37.2751L138.301 37.5427ZM137.028 36.9056H137.626C137.626 36.5742 137.626 36.0135 137.626 35.2107V34.9176C137.626 33.452 137.626 32.2414 137.626 31.2601C137.626 30.6484 137.626 29.8583 137.626 28.8771V25.3853C137.7 24.1883 137.297 23.0108 136.507 22.1102C136.134 21.7285 135.685 21.4293 135.19 21.2317C134.695 21.0342 134.164 20.9427 133.631 20.9633C132.555 20.9894 131.495 21.2321 130.514 21.6769C129.362 22.1778 128.248 22.7613 127.18 23.4228L126.875 23.6012L126.672 23.117V21.3074H126.137C126.137 22.9003 126.137 24.3913 126.137 25.7931C126.137 27.1949 126.137 28.6095 126.137 29.7309C126.137 32.1777 126.137 34.0128 126.137 35.2489C126.137 36.039 126.137 36.5232 126.137 36.9056H126.722C126.722 36.485 126.722 35.6312 126.722 34.4588C126.722 32.7002 126.722 31.1964 126.722 29.9603C126.722 29.0045 126.722 27.8321 126.722 26.443V24.0217L126.875 23.9198C127.897 23.2772 128.964 22.7107 130.069 22.2249C131.027 21.7514 132.069 21.4701 133.135 21.3966C133.683 21.3477 134.235 21.4181 134.753 21.6029C135.271 21.7876 135.744 22.0824 136.138 22.467C136.862 23.5656 137.198 24.8758 137.092 26.1882C137.092 26.6979 137.092 27.4625 137.092 28.6222C137.092 29.7819 137.092 30.572 137.092 31.1709C137.092 31.7699 137.092 32.611 137.092 34.2931C137.066 35.542 137.066 36.4213 137.054 36.9056H137.028Z" fill="#333333"/>
<path d="M151.367 36.2429L151.265 37.2369H150.133C148.563 37.3583 147.009 36.8546 145.807 35.8351C145.286 35.2588 144.888 34.5814 144.639 33.8449C144.389 33.1084 144.293 32.3284 144.357 31.5533C144.357 30.2789 144.357 28.6732 144.357 26.9018C144.357 25.1305 144.357 23.4865 144.357 21.97H141.647V21.0015H144.395V17.2676H145.54V21.027H151.456V21.9955H145.54C145.54 22.3141 145.54 22.964 145.54 23.9326C145.54 24.9011 145.54 25.8823 145.54 26.8381C145.54 27.7939 145.54 28.7751 145.54 29.3868C145.54 29.9985 145.54 30.5975 145.54 31.1964C145.434 32.5573 145.812 33.9118 146.609 35.0195C147.126 35.4765 147.732 35.8202 148.39 36.0287C149.047 36.2372 149.74 36.3058 150.426 36.2302H151.329L151.367 36.2429Z" fill="#DFAE59"/>
<path d="M150.133 37.8996C148.397 38.0205 146.684 37.4529 145.362 36.3194C144.782 35.6816 144.338 34.9326 144.056 34.1177C143.774 33.3028 143.66 32.4391 143.721 31.5788C143.721 30.3044 143.721 28.6987 143.721 26.9273C143.721 25.3981 143.721 23.9708 143.721 22.6327H141.011V20.3899H143.759V16.6305H146.176V20.3899H152.092V22.6327H146.176C146.176 22.9641 146.176 23.4101 146.176 23.9071C146.176 24.8756 146.176 25.8441 146.176 26.7999C146.176 27.7557 146.176 28.7242 146.176 29.3486C146.176 29.9731 146.176 30.5593 146.176 31.1582C146.068 32.3755 146.388 33.5923 147.079 34.599C147.542 34.9848 148.079 35.2719 148.657 35.4428C149.234 35.6137 149.84 35.6648 150.438 35.593H152.041L151.825 37.8614H150.108L150.133 37.8996Z" fill="#DFAE59"/>
<path d="M166.762 28.1889H154.93C154.892 29.4904 155.099 30.7874 155.54 32.012C156.066 33.1526 156.898 34.1237 157.945 34.8156C158.637 35.3174 159.419 35.6808 160.248 35.886C161.207 36.1374 162.195 36.2617 163.187 36.2556H164.459H165.452L165.261 37.2623H164.625C164.319 37.2623 163.823 37.2623 163.162 37.2623C161.803 37.2891 160.45 37.0733 159.167 36.6252C158.102 36.2631 157.13 35.6698 156.32 34.8877C155.511 34.1057 154.884 33.1541 154.484 32.1012C154.064 31.0784 153.848 29.9831 153.848 28.877C153.822 27.7676 153.977 26.6614 154.306 25.6019C154.649 24.6165 155.181 23.7075 155.871 22.9258C156.468 22.2023 157.219 21.622 158.068 21.2272C158.918 20.8325 159.846 20.6334 160.782 20.6446C161.609 20.6304 162.43 20.7776 163.2 21.0779C163.899 21.3642 164.529 21.799 165.045 22.3523C165.664 23.0566 166.124 23.8869 166.393 24.7863C166.688 25.8951 166.813 27.0425 166.762 28.1889ZM165.579 27.2713C165.557 25.7076 165.005 24.1977 164.014 22.9895C163.578 22.5302 163.05 22.1688 162.465 21.9294C161.879 21.6899 161.249 21.5778 160.617 21.6004C159.27 21.5824 157.97 22.1003 157.004 23.0404C155.898 24.2001 155.19 25.6818 154.981 27.2713H165.579Z" fill="#DFAE59"/>
<path d="M163.034 37.8995C161.602 37.9199 160.177 37.6913 158.823 37.2241C157.618 36.8118 156.518 36.1373 155.604 35.2489C154.809 34.4225 154.182 33.4485 153.759 32.3815C153.312 31.2852 153.083 30.1122 153.085 28.928C153.061 27.75 153.224 26.5757 153.568 25.449C153.939 24.3683 154.513 23.3689 155.261 22.5052C155.912 21.7139 156.729 21.0745 157.652 20.6319C159.447 19.8397 161.48 19.7848 163.314 20.479C164.102 20.8071 164.81 21.3027 165.388 21.9318C166.05 22.7163 166.548 23.6265 166.851 24.6079C167.201 25.7691 167.377 26.976 167.373 28.1889V28.8771H155.54C155.56 29.8734 155.745 30.8596 156.088 31.7953C156.549 32.8279 157.289 33.7107 158.225 34.3441C158.851 34.8033 159.559 35.1366 160.312 35.3253C161.606 35.6382 162.941 35.7457 164.268 35.6439L166.062 35.5675L165.655 37.7976H165.134H164.536C164.23 37.8995 163.721 37.8995 163.034 37.8995ZM155.769 26.6342H164.866C164.772 25.4605 164.329 24.3421 163.594 23.4228C163.218 23.026 162.76 22.7148 162.253 22.5103C161.746 22.3059 161.201 22.2129 160.655 22.2376C160.067 22.2292 159.483 22.3375 158.937 22.5562C158.392 22.7749 157.894 23.0998 157.474 23.512C156.626 24.3728 156.035 25.4544 155.769 26.6342Z" fill="#DFAE59"/>
<path d="M179.129 21.6641C178.119 21.9786 177.125 22.3444 176.152 22.7601C174.697 23.3788 173.29 24.1028 171.941 24.9265V26.8508C171.941 28.0105 171.941 29.0045 171.941 29.8328C171.941 31.1072 171.941 32.5982 171.941 34.3313C171.941 36.0645 171.941 37.033 171.941 37.2241H170.668C170.668 37.033 170.668 36.434 170.668 35.4145C170.668 34.395 170.668 32.6619 170.668 30.2024C170.668 29.2084 170.668 27.8193 170.668 26.0352C170.668 24.2511 170.668 22.5817 170.668 20.9378H171.941V23.7796C173.158 23.0265 174.434 22.3744 175.757 21.8298C177.199 21.2266 178.243 20.8316 178.887 20.6447L179.129 21.6641Z" fill="#DFAE59"/>
<path d="M172.577 37.8613H170.032V37.2242C170.032 37.033 170.032 36.4341 170.032 35.4146C170.032 34.3951 170.032 32.6619 170.032 30.2024C170.032 29.2084 170.032 27.8194 170.032 26.048C170.032 24.2766 170.032 22.5817 170.032 20.9506V20.3134H172.577V22.6327C173.519 22.1152 174.487 21.6473 175.478 21.2309C176.523 20.7487 177.593 20.3233 178.684 19.9565L179.307 19.7781L179.905 22.0847L179.295 22.2504C178.309 22.5506 177.341 22.9037 176.394 23.3081C175.077 23.8668 173.801 24.5184 172.577 25.2579V26.8126C172.577 27.9723 172.577 28.9663 172.577 29.7946C172.577 31.069 172.577 32.5473 172.577 34.2804C172.577 36.0135 172.577 36.9948 172.577 37.1859V37.8613ZM171.304 24.0473V24.5315L171.546 24.3913H171.61L171.304 24.0473Z" fill="#DFAE59"/>
<path d="M195.364 29.1064C195.406 30.326 195.229 31.5432 194.842 32.7001C194.448 33.769 193.833 34.7419 193.036 35.5547C192.394 36.2062 191.628 36.7219 190.784 37.0712C189.933 37.4061 189.025 37.5707 188.112 37.5555C187.19 37.5621 186.276 37.3979 185.414 37.0712C184.567 36.728 183.8 36.2115 183.162 35.5547C182.376 34.753 181.769 33.793 181.381 32.7384C180.961 31.5789 180.754 30.3527 180.77 29.1192C180.754 27.9388 180.93 26.7637 181.292 25.6402C181.644 24.6257 182.198 23.6935 182.921 22.9003C183.562 22.1812 184.352 21.6113 185.236 21.2309C186.131 20.8769 187.086 20.6995 188.048 20.7084C189.009 20.6977 189.961 20.8842 190.847 21.2564C191.722 21.6223 192.505 22.1796 193.137 22.8876C193.891 23.6859 194.471 24.6318 194.842 25.6657C195.206 26.7754 195.383 27.9384 195.364 29.1064ZM194.092 29.1064C194.121 27.9158 193.922 26.7304 193.506 25.6147C193.131 24.6628 192.568 23.7961 191.852 23.066C191.348 22.566 190.746 22.1756 190.084 21.919C189.42 21.6739 188.718 21.5488 188.01 21.5495C187.256 21.5403 186.506 21.6654 185.796 21.919C185.064 22.2267 184.411 22.6974 183.888 23.2954C183.213 24.0316 182.698 24.8993 182.374 25.8441C182.025 26.9001 181.858 28.0073 181.877 29.1192C181.846 30.3424 182.058 31.5597 182.501 32.7001C182.909 33.672 183.526 34.5421 184.307 35.2489C184.781 35.6837 185.34 36.0137 185.949 36.2174C186.602 36.4523 187.29 36.573 187.984 36.5742C188.71 36.5679 189.429 36.4342 190.109 36.1792C190.798 35.9224 191.42 35.5129 191.929 34.9813C192.639 34.2539 193.189 33.3857 193.544 32.4325C193.942 31.3821 194.144 30.2679 194.142 29.1447L194.092 29.1064Z" fill="#DFAE59"/>
<path d="M188.048 38.1926C187.043 38.2009 186.046 38.0193 185.109 37.6574C184.181 37.2814 183.341 36.7174 182.641 36.0007C181.793 35.1374 181.138 34.1036 180.719 32.9677C180.277 31.7423 180.058 30.4475 180.071 29.1446C180.054 27.8904 180.243 26.6419 180.63 25.449C181.009 24.358 181.606 23.3562 182.386 22.5052C183.088 21.6964 183.956 21.0488 184.931 20.6064C186.892 19.8286 189.076 19.8286 191.038 20.6064C192.005 21.0162 192.872 21.629 193.583 22.4033C194.394 23.2926 195.017 24.3373 195.415 25.4745C196.182 27.9079 196.16 30.5223 195.351 32.9422C194.922 34.0867 194.259 35.1285 193.404 36.0007C192.701 36.7252 191.856 37.2976 190.923 37.6829C190.005 38.0303 189.03 38.2031 188.048 38.1926ZM188.048 22.2376C187.368 22.2269 186.691 22.3392 186.05 22.5689C185.415 22.8418 184.849 23.2558 184.396 23.7796C183.782 24.4363 183.31 25.2128 183.01 26.0607C182.687 27.0472 182.532 28.0811 182.552 29.1192C182.524 30.2588 182.718 31.393 183.124 32.458C183.494 33.3533 184.059 34.1545 184.778 34.8028C185.189 35.1806 185.674 35.4672 186.203 35.6439C187.403 36.0834 188.719 36.0834 189.918 35.6439C190.519 35.4181 191.063 35.0611 191.509 34.5989C192.155 33.9263 192.657 33.1284 192.985 32.2541C193.341 31.2703 193.513 30.2292 193.493 29.1829C193.521 28.0756 193.34 26.9732 192.959 25.9332C192.613 25.0603 192.094 24.2669 191.432 23.6012C191.001 23.1638 190.48 22.8248 189.906 22.6072C189.317 22.3777 188.692 22.2526 188.061 22.2376H188.048Z" fill="#DFAE59"/>
</g>
<defs>
<clipPath id="clip0">
<rect width="196" height="51" fill="white"/>
</clipPath>
</defs>
</svg>
