<svg width="220" height="43" viewBox="0 0 220 43" fill="none" xmlns="http://www.w3.org/2000/svg">
<path d="M114.828 28.6078C114.5 28.6078 114.225 28.4961 114.001 28.2726C113.778 28.0491 113.666 27.7734 113.666 27.4456V13.2982H108.838C108.525 13.2982 108.265 13.2014 108.056 13.0077C107.862 12.7991 107.765 12.5383 107.765 12.2254C107.765 11.9125 107.862 11.6592 108.056 11.4655C108.265 11.2569 108.525 11.1526 108.838 11.1526H120.795C121.108 11.1526 121.362 11.2569 121.555 11.4655C121.764 11.6592 121.868 11.9125 121.868 12.2254C121.868 12.5383 121.764 12.7991 121.555 13.0077C121.362 13.2014 121.108 13.2982 120.795 13.2982H115.99V27.4456C115.99 27.7734 115.878 28.0491 115.655 28.2726C115.431 28.4961 115.156 28.6078 114.828 28.6078Z" fill="white"/>
<path d="M121.097 28.6078C120.352 28.6078 119.979 28.2353 119.979 27.4903V17.5C119.979 16.755 120.352 16.3825 121.097 16.3825C121.842 16.3825 122.214 16.755 122.214 17.5V17.9246C122.661 17.4031 123.205 16.9934 123.846 16.6954C124.501 16.3974 125.209 16.2484 125.969 16.2484C126.863 16.2484 127.526 16.3974 127.958 16.6954C128.405 16.9785 128.576 17.3212 128.472 17.7235C128.398 18.0364 128.249 18.245 128.025 18.3493C127.802 18.4387 127.541 18.4536 127.243 18.394C126.289 18.2003 125.433 18.1854 124.673 18.3493C123.913 18.5132 123.309 18.8186 122.862 19.2656C122.43 19.7126 122.214 20.2788 122.214 20.9642V27.4903C122.214 28.2353 121.842 28.6078 121.097 28.6078Z" fill="white"/>
<path d="M133.932 28.6972C132.844 28.6972 131.868 28.429 131.004 27.8926C130.14 27.3413 129.455 26.6038 128.948 25.68C128.456 24.7413 128.21 23.6834 128.21 22.5063C128.21 21.3292 128.479 20.2713 129.015 19.3326C129.566 18.394 130.304 17.6564 131.228 17.12C132.166 16.5687 133.217 16.2931 134.379 16.2931C135.541 16.2931 136.584 16.5687 137.508 17.12C138.432 17.6564 139.162 18.394 139.698 19.3326C140.25 20.2713 140.525 21.3292 140.525 22.5063V27.4903C140.525 27.8181 140.413 28.0938 140.19 28.3173C139.981 28.5259 139.713 28.6302 139.385 28.6302C139.058 28.6302 138.782 28.5259 138.558 28.3173C138.35 28.0938 138.246 27.8181 138.246 27.4903V26.6634C137.724 27.2892 137.091 27.7883 136.346 28.1608C135.616 28.5184 134.811 28.6972 133.932 28.6972ZM134.379 26.6857C135.139 26.6857 135.817 26.5069 136.413 26.1493C137.009 25.7768 137.478 25.2777 137.821 24.6519C138.164 24.0112 138.335 23.296 138.335 22.5063C138.335 21.7017 138.164 20.9865 137.821 20.3607C137.478 19.72 137.009 19.2209 136.413 18.8633C135.817 18.4908 135.139 18.3046 134.379 18.3046C133.634 18.3046 132.956 18.4908 132.345 18.8633C131.749 19.2209 131.272 19.72 130.915 20.3607C130.572 20.9865 130.401 21.7017 130.401 22.5063C130.401 23.296 130.572 24.0112 130.915 24.6519C131.272 25.2777 131.749 25.7768 132.345 26.1493C132.956 26.5069 133.634 26.6857 134.379 26.6857Z" fill="white"/>
<path d="M148.343 28.6972C147.181 28.6972 146.131 28.429 145.192 27.8926C144.268 27.3413 143.531 26.5963 142.979 25.6576C142.443 24.719 142.175 23.6611 142.175 22.484C142.175 21.3069 142.421 20.2564 142.912 19.3326C143.419 18.394 144.104 17.6564 144.968 17.12C145.833 16.5687 146.809 16.2931 147.896 16.2931C148.775 16.2931 149.587 16.4793 150.332 16.8518C151.077 17.2094 151.703 17.7011 152.21 18.3269V12.2925C152.21 11.9498 152.314 11.6741 152.523 11.4655C152.746 11.2569 153.022 11.1526 153.35 11.1526C153.692 11.1526 153.968 11.2569 154.177 11.4655C154.385 11.6741 154.489 11.9498 154.489 12.2925V22.484C154.489 23.6611 154.214 24.719 153.663 25.6576C153.126 26.5963 152.396 27.3413 151.472 27.8926C150.548 28.429 149.505 28.6972 148.343 28.6972ZM148.343 26.6857C149.103 26.6857 149.781 26.5069 150.377 26.1493C150.973 25.7768 151.442 25.2702 151.785 24.6296C152.128 23.9889 152.299 23.2737 152.299 22.484C152.299 21.6794 152.128 20.9642 151.785 20.3384C151.442 19.7126 150.973 19.2209 150.377 18.8633C149.781 18.4908 149.103 18.3046 148.343 18.3046C147.598 18.3046 146.92 18.4908 146.309 18.8633C145.713 19.2209 145.237 19.7126 144.879 20.3384C144.536 20.9642 144.365 21.6794 144.365 22.484C144.365 23.2737 144.536 23.9889 144.879 24.6296C145.237 25.2702 145.713 25.7768 146.309 26.1493C146.92 26.5069 147.598 26.6857 148.343 26.6857Z" fill="white"/>
<path d="M163.142 28.6972C161.905 28.6972 160.802 28.4365 159.834 27.915C158.88 27.3786 158.128 26.6485 157.577 25.7247C157.04 24.786 156.772 23.7132 156.772 22.5063C156.772 21.2845 157.025 20.2117 157.532 19.2879C158.053 18.3493 158.769 17.6192 159.677 17.0977C160.586 16.5613 161.629 16.2931 162.806 16.2931C163.969 16.2931 164.967 16.5538 165.801 17.0753C166.636 17.5819 167.269 18.2897 167.701 19.1985C168.148 20.0925 168.371 21.1281 168.371 22.3052C168.371 22.5883 168.275 22.8267 168.081 23.0204C167.887 23.1992 167.641 23.2886 167.343 23.2886H158.85C159.014 24.3167 159.484 25.1585 160.258 25.8141C161.048 26.4548 162.009 26.7751 163.142 26.7751C163.604 26.7751 164.073 26.6932 164.55 26.5293C165.041 26.3505 165.436 26.1493 165.734 25.9258C165.958 25.7619 166.196 25.68 166.449 25.68C166.718 25.6651 166.949 25.7396 167.142 25.9035C167.396 26.127 167.53 26.3728 167.545 26.641C167.559 26.9092 167.44 27.1402 167.187 27.3339C166.68 27.7362 166.047 28.064 165.287 28.3173C164.542 28.5706 163.827 28.6972 163.142 28.6972ZM162.806 18.2152C161.704 18.2152 160.817 18.5206 160.147 19.1315C159.476 19.7424 159.052 20.5321 158.873 21.5006H166.315C166.181 20.547 165.816 19.7647 165.22 19.1538C164.624 18.5281 163.82 18.2152 162.806 18.2152Z" fill="white"/>
<path d="M176.173 28.6078C175.845 28.6078 175.57 28.4961 175.346 28.2726C175.137 28.0491 175.033 27.7809 175.033 27.468C175.033 27.1402 175.137 26.872 175.346 26.6634L181.693 19.2432C182.14 18.7218 182.483 18.2301 182.721 17.7682C182.975 17.3063 183.101 16.8667 183.101 16.4495C183.101 15.481 182.848 14.7062 182.342 14.1251C181.85 13.544 181.172 13.2535 180.308 13.2535C179.741 13.2535 179.227 13.4025 178.766 13.7005C178.319 13.9836 177.961 14.371 177.693 14.8627C177.439 15.3395 177.313 15.8684 177.313 16.4495C177.313 16.7475 177.201 17.0083 176.978 17.2318C176.769 17.4553 176.501 17.567 176.173 17.567C175.86 17.567 175.592 17.4553 175.368 17.2318C175.145 17.0083 175.033 16.7475 175.033 16.4495C175.033 15.4363 175.264 14.5349 175.726 13.7452C176.188 12.9406 176.814 12.3074 177.603 11.8455C178.408 11.3836 179.309 11.1526 180.308 11.1526C181.321 11.1526 182.2 11.3687 182.945 11.8008C183.69 12.2329 184.264 12.8438 184.666 13.6334C185.083 14.4231 185.292 15.3618 185.292 16.4495C185.292 16.9263 185.187 17.4106 184.979 17.9023C184.785 18.394 184.532 18.8633 184.219 19.3103C183.921 19.7573 183.615 20.1596 183.303 20.5172L178.184 26.3281H184.442C184.77 26.3281 185.046 26.4473 185.269 26.6857C185.493 26.9092 185.605 27.17 185.605 27.468C185.605 27.7809 185.493 28.0491 185.269 28.2726C185.046 28.4961 184.77 28.6078 184.442 28.6078H176.173Z" fill="white"/>
<path d="M195.704 28.6078C195.406 28.6078 195.153 28.4961 194.944 28.2726C194.736 28.0491 194.631 27.7809 194.631 27.468V24.6519H187.189C186.846 24.6519 186.578 24.5476 186.384 24.339C186.191 24.1304 186.079 23.892 186.049 23.6238C186.034 23.3407 186.109 23.0874 186.273 22.8639L194.833 11.6443C194.952 11.4953 195.086 11.3761 195.235 11.2867C195.399 11.1973 195.578 11.1526 195.771 11.1526C196.084 11.1526 196.338 11.2644 196.531 11.4879C196.725 11.7114 196.822 11.987 196.822 12.3148V22.5957H198.163C198.476 22.5957 198.744 22.6702 198.967 22.8192C199.191 22.9682 199.303 23.2364 199.303 23.6238C199.303 23.9069 199.191 24.1528 198.967 24.3614C198.744 24.5551 198.476 24.6519 198.163 24.6519H196.822V27.468C196.822 27.7809 196.717 28.0491 196.509 28.2726C196.3 28.4961 196.032 28.6078 195.704 28.6078ZM194.631 22.5957V15.1979L188.999 22.5957H194.631Z" fill="white"/>
<path d="M201.053 30.2617C200.636 30.2617 200.315 30.0904 200.092 29.7477C199.883 29.4199 199.861 29.0548 200.025 28.6525L206.752 11.8231C206.842 11.6145 206.983 11.4506 207.177 11.3314C207.371 11.2122 207.579 11.1526 207.803 11.1526C208.19 11.1526 208.495 11.3165 208.719 11.6443C208.957 11.9572 208.995 12.3297 208.831 12.7618L202.103 29.5912C202.014 29.8296 201.865 30.001 201.656 30.1053C201.463 30.2096 201.262 30.2617 201.053 30.2617Z" fill="white"/>
<path d="M211.641 28.6078C211.343 28.6078 211.082 28.4961 210.859 28.2726C210.635 28.0491 210.524 27.7809 210.524 27.468C210.524 27.2594 210.591 27.021 210.725 26.7528L217.139 13.4323H210.345C210.017 13.4323 209.742 13.328 209.518 13.1194C209.309 12.8959 209.205 12.6203 209.205 12.2925C209.205 11.9647 209.309 11.6965 209.518 11.4879C209.742 11.2644 210.017 11.1526 210.345 11.1526H218.86C219.173 11.1526 219.441 11.2644 219.665 11.4879C219.888 11.7114 220 11.9796 220 12.2925C220 12.3968 219.985 12.5011 219.955 12.6054C219.926 12.6948 219.888 12.7916 219.844 12.8959L212.692 27.982C212.453 28.3992 212.103 28.6078 211.641 28.6078Z" fill="white"/>
<path d="M56.7861 28.6077C56.4583 28.6077 56.1826 28.496 55.9591 28.2725C55.7356 28.049 55.6239 27.7734 55.6239 27.4456V12.3147C55.6239 11.972 55.7356 11.6964 55.9591 11.4878C56.1826 11.2643 56.4583 11.1525 56.7861 11.1525H61.256C62.3735 11.1525 63.3644 11.3984 64.2286 11.8901C65.0927 12.3818 65.7632 13.0672 66.24 13.9463C66.7317 14.8105 66.9776 15.8088 66.9776 16.9411C66.9776 18.0288 66.7317 18.9973 66.24 19.8466C65.7632 20.6959 65.0927 21.359 64.2286 21.8358C63.3644 22.3125 62.3735 22.5509 61.256 22.5509H57.9483V27.4456C57.9483 27.7734 57.8365 28.049 57.613 28.2725C57.4044 28.496 57.1288 28.6077 56.7861 28.6077ZM57.9483 20.4054H61.256C62.2692 20.4054 63.1036 20.085 63.7592 19.4443C64.4148 18.7887 64.7426 17.9543 64.7426 16.9411C64.7426 16.2259 64.5936 15.6002 64.2956 15.0638C63.9976 14.5125 63.5879 14.0804 63.0664 13.7675C62.5449 13.4546 61.9414 13.2981 61.256 13.2981H57.9483V20.4054Z" fill="#1EE5D9"/>
<path d="M69.3254 28.6077C68.5804 28.6077 68.2079 28.2353 68.2079 27.4903V17.4999C68.2079 16.7549 68.5804 16.3824 69.3254 16.3824C70.0704 16.3824 70.4428 16.7549 70.4428 17.4999V17.9245C70.8898 17.403 71.4337 16.9933 72.0744 16.6953C72.73 16.3973 73.4377 16.2483 74.1976 16.2483C75.0916 16.2483 75.7547 16.3973 76.1868 16.6953C76.6337 16.9784 76.8051 17.3211 76.7008 17.7234C76.6263 18.0363 76.4773 18.2449 76.2538 18.3492C76.0303 18.4386 75.7696 18.4535 75.4716 18.3939C74.518 18.2002 73.6612 18.1853 72.9013 18.3492C72.1414 18.5131 71.538 18.8185 71.091 19.2655C70.6589 19.7125 70.4428 20.2787 70.4428 20.9641V27.4903C70.4428 28.2353 70.0704 28.6077 69.3254 28.6077Z" fill="#1EE5D9"/>
<path d="M82.6076 28.6971C81.4007 28.6971 80.3354 28.4364 79.4116 27.9149C78.4878 27.3785 77.7577 26.6484 77.2213 25.7246C76.6998 24.7859 76.4391 23.7131 76.4391 22.5062C76.4391 21.2845 76.6998 20.2117 77.2213 19.2879C77.7577 18.3492 78.4878 17.6191 79.4116 17.0976C80.3354 16.5612 81.4007 16.293 82.6076 16.293C83.7996 16.293 84.8575 16.5612 85.7813 17.0976C86.7051 17.6191 87.4277 18.3492 87.9492 19.2879C88.4856 20.2117 88.7538 21.2845 88.7538 22.5062C88.7538 23.7131 88.4931 24.7859 87.9716 25.7246C87.4501 26.6484 86.7274 27.3785 85.8036 27.9149C84.8798 28.4364 83.8145 28.6971 82.6076 28.6971ZM82.6076 26.6857C83.3824 26.6857 84.0678 26.5069 84.6638 26.1493C85.2598 25.7917 85.7217 25.3 86.0495 24.6742C86.3922 24.0484 86.5635 23.3257 86.5635 22.5062C86.5635 21.6868 86.3922 20.9641 86.0495 20.3383C85.7217 19.6976 85.2598 19.1985 84.6638 18.8409C84.0678 18.4833 83.3824 18.3045 82.6076 18.3045C81.8328 18.3045 81.1474 18.4833 80.5514 18.8409C79.9554 19.1985 79.4861 19.6976 79.1434 20.3383C78.8007 20.9641 78.6293 21.6868 78.6293 22.5062C78.6293 23.3257 78.8007 24.0484 79.1434 24.6742C79.4861 25.3 79.9554 25.7917 80.5514 26.1493C81.1474 26.5069 81.8328 26.6857 82.6076 26.6857Z" fill="#1EE5D9"/>
<path d="M92.3925 28.6077C92.0647 28.6077 91.789 28.496 91.5655 28.2725C91.3569 28.049 91.2526 27.7808 91.2526 27.4679V18.7515H90.2916C89.9787 18.7515 89.7254 18.6621 89.5317 18.4833C89.338 18.3045 89.2411 18.081 89.2411 17.8128C89.2411 17.5148 89.338 17.2764 89.5317 17.0976C89.7254 16.9188 89.9787 16.8294 90.2916 16.8294H91.2526V16.4494C91.2526 14.7807 91.7518 13.4546 92.75 12.4712C93.7632 11.4878 95.4022 10.9961 97.667 10.9961C98.7398 10.9961 99.5965 11.1749 100.237 11.5325C100.893 11.8901 101.221 12.352 101.221 12.9182C101.221 13.5738 100.818 13.9016 100.014 13.9016C99.7008 13.9016 99.4177 13.8345 99.1644 13.7004C98.9261 13.5663 98.6876 13.4099 98.4493 13.2311C98.2109 13.0523 97.9576 12.8958 97.6894 12.7617C97.4212 12.6276 97.1083 12.5606 96.7507 12.5606C96.1994 12.5606 95.6779 12.6723 95.1862 12.8958C94.6945 13.1044 94.2922 13.4918 93.9793 14.058C93.6813 14.6242 93.5323 15.4214 93.5323 16.4494V16.8294H95.8343C96.1472 16.8294 96.4005 16.9188 96.5942 17.0976C96.7879 17.2764 96.8848 17.5148 96.8848 17.8128C96.8848 18.081 96.7879 18.3045 96.5942 18.4833C96.4005 18.6621 96.1472 18.7515 95.8343 18.7515H93.5323V27.4679C93.5323 27.7808 93.4205 28.049 93.197 28.2725C92.9884 28.496 92.7203 28.6077 92.3925 28.6077ZM99.8349 28.6077C99.5071 28.6077 99.2315 28.5034 99.008 28.2948C98.7994 28.0714 98.6951 27.7957 98.6951 27.4679V17.5222C98.6951 17.1795 98.7994 16.9039 99.008 16.6953C99.2315 16.4867 99.5071 16.3824 99.8349 16.3824C100.178 16.3824 100.453 16.4867 100.662 16.6953C100.87 16.9039 100.975 17.1795 100.975 17.5222V27.4679C100.975 27.7957 100.87 28.0714 100.662 28.2948C100.453 28.5034 100.178 28.6077 99.8349 28.6077Z" fill="#1EE5D9"/>
<g clip-path="url(#clip0_304_234)">
<path d="M21.4558 0C9.60567 0 0 9.60567 0 21.4558C0 33.306 9.60567 42.9116 21.4558 42.9116C33.306 42.9116 42.9116 33.306 42.9116 21.4558C42.9116 9.60567 33.306 0 21.4558 0ZM25.2164 36.5098C16.1496 36.5098 8.79434 29.1546 8.79434 20.0878C8.79434 11.0211 16.1496 3.66579 25.2164 3.66579C34.289 3.66579 41.6384 11.0211 41.6384 20.0878C41.6443 29.1546 34.289 36.5098 25.2164 36.5098Z" fill="white"/>
<path d="M34.212 9.68858C29.2138 4.69031 21.1183 4.69031 16.12 9.68858C11.1217 14.6868 11.1217 22.7824 16.12 27.7806C21.1183 32.7789 29.2138 32.7789 34.212 27.7806C39.2103 22.7824 39.2103 14.6809 34.212 9.68858ZM31.0792 27.8221C27.2536 31.6478 21.0531 31.6478 17.2333 27.8221C13.4077 23.9964 13.4077 17.8019 17.2333 13.9762C21.059 10.1505 27.2595 10.1505 31.0792 13.9762C34.9049 17.796 34.9049 23.9964 31.0792 27.8221Z" fill="#1EE5D9"/>
</g>
<defs>
<clipPath id="clip0_304_234">
<rect width="42.9116" height="42.9116" fill="white"/>
</clipPath>
</defs>
</svg>
