<?xml version="1.0" encoding="utf-8"?>
<!-- Generator: Adobe Illustrator 26.2.1, SVG Export Plug-In . SVG Version: 6.00 Build 0)  -->
<svg version="1.1" id="Layer_1" xmlns="http://www.w3.org/2000/svg" xmlns:xlink="http://www.w3.org/1999/xlink" x="0px" y="0px"
	 viewBox="0 0 504 106" style="enable-background:new 0 0 504 106;" xml:space="preserve">
<title>Asset radarfx</title>
<style type="text/css">
	.st0{fill-rule:evenodd;clip-rule:evenodd;fill:#6B33FF;}
	.st1{fill-rule:evenodd;clip-rule:evenodd;fill:#00033d;}
	.st2{fill:#00033d;}
</style>
<g>
	<path class="st0" d="M398.4,38.3c-1.7,0-3,1.4-3,3c0,1.8,1.4,3,3,3h28.4h8.6h29.8L504,0h-30.2l-25.1,29L432.5,0.1h-30.6L416.5,26
		h-3.4c-1.7,0-3,1.4-3,3c0,1.6,1.4,3,3,3h6.8h10.9c1.7,0,3,1.4,3,3c0,1.8-1.4,3-3,3h-7.4h-25.1V38.3z"/>
	<path class="st1" d="M442,71.2l19.5,34.6h30.6l-31.1-55.1h-25.5h-5.8h-8.8c-1.7,0-3,1.4-3,3c0,1.6,1.4,3,3,3h3.5h11.1h10.3
		c1.7,0,3,1.4,3,3c0,1.8-1.4,3-3,3h-10.3h-16.6h-9c-1.7,0-3,1.4-3,3c0,1.8,1.4,3,3,3h3.7l-32,37h30.2L442,71.2z"/>
	<path class="st1" d="M403.3,56.9h5.3c1.7,0,3-1.4,3-3c0-1.6-1.4-3-3-3h-5.3c-1.7,0-3,1.4-3,3C400.3,55.5,401.7,56.9,403.3,56.9z"/>
	<path class="st2" d="M392.2,1.3h-70.3v103.2h18.9V62.4H387V43.4h-46.2V20.2h51.3V1.3z"/>
	<path class="st2" d="M52.1,104.5L29.6,73.6h-1c-2.1,0-5.3-0.1-9.5-0.3v31.2H0V22.2c4.2-0.9,8.8-1.7,13.7-2.2
		c5-0.6,9.8-0.9,14.3-0.9c12.7,0,22.2,2.2,28.5,6.6c6.4,4.4,9.5,11.3,9.5,20.5c0,6-1.4,11.1-4.5,15.2c-3,4.1-7.4,7.2-13.1,9.2
		l25.1,33.9H52.1z M19.2,59c3.3,0.4,6.6,0.6,10.1,0.6c6.4,0,11.1-1.1,14.1-3.2c3-2.1,4.5-5.5,4.5-10.2c0-4.7-1.5-8.1-4.4-10.2
		c-2.9-2.1-7.5-3.2-13.7-3.2c-3.5,0-7,0.3-10.6,1V59z"/>
	<path class="st2" d="M98.3,41.1c7.3,0,13.2,0.9,17.7,2.6c4.5,1.7,7.7,4.5,9.9,8.5c2.1,3.9,3.2,9.3,3.2,16.1v36.2h-15.8l-1.3-6h-0.9
		c-2.1,2.4-4.6,4.2-7.6,5.4s-6.4,1.8-10.1,1.8c-4.6,0-8.5-0.8-11.8-2.3c-3.3-1.5-5.8-3.7-7.5-6.4c-1.7-2.7-2.5-5.9-2.5-9.5
		c0-5.9,2.2-10.5,6.6-13.8c4.5-3.3,11.4-5.2,20.9-5.8l11.4-0.9v-0.2c0-3-0.5-5.3-1.5-7c-1-1.7-2.6-2.9-4.9-3.7
		c-2.2-0.7-5.2-1.1-9-1.1c-2.7,0-5.7,0.2-9,0.7c-3.3,0.5-6.3,1.1-9.1,2V43.9c3.2-0.9,6.7-1.6,10.5-2.1
		C91.3,41.4,94.9,41.1,98.3,41.1z M99.4,92.9c2,0,4-0.3,5.9-1c1.9-0.6,3.7-1.7,5.2-3.1V77.5l-9.6,0.7c-3.7,0.3-6.4,1.1-8,2.3
		c-1.6,1.3-2.4,3-2.4,5.3c0,2.2,0.7,4,2.2,5.3C94.3,92.3,96.5,92.9,99.4,92.9z"/>
	<path class="st2" d="M162.8,105.6c-5.3,0-10-1.1-14.1-3.3c-4.1-2.2-7.4-5.6-9.9-10.2c-2.4-4.6-3.7-10.5-3.7-17.6
		c0-7.2,1.4-13.3,4.1-18.3c2.8-5,6.8-8.8,12-11.4c5.3-2.6,11.7-3.9,19.1-3.9c2.6,0,5.8,0.2,9.4,0.6V12.3h19.1v92.2h-16l-1-6.4H181
		c-2.2,2.3-4.8,4.1-7.9,5.5C170,104.9,166.6,105.6,162.8,105.6z M168.1,90.3c2.2,0,4.4-0.4,6.5-1.1c2.1-0.8,3.9-1.9,5.4-3.5V56.2
		c-2.7-0.5-5.6-0.8-8.6-0.8c-5.8,0-10.1,1.4-13,4.3c-2.8,2.9-4.2,7.4-4.2,13.5c0,6.1,1.2,10.4,3.6,13.1
		C160.2,88.9,163.6,90.3,168.1,90.3z"/>
	<path class="st2" d="M231.9,41.1c7.3,0,13.2,0.9,17.7,2.6c4.5,1.7,7.7,4.5,9.9,8.5c2.1,3.9,3.2,9.3,3.2,16.1v36.2h-15.8l-1.3-6
		h-0.9c-2.1,2.4-4.6,4.2-7.6,5.4c-3,1.2-6.4,1.8-10.1,1.8c-4.6,0-8.5-0.8-11.8-2.3c-3.3-1.5-5.8-3.7-7.5-6.4
		c-1.7-2.7-2.5-5.9-2.5-9.5c0-5.9,2.2-10.5,6.6-13.8c4.5-3.3,11.4-5.2,20.9-5.8l11.4-0.9v-0.2c0-3-0.5-5.3-1.5-7
		c-1-1.7-2.6-2.9-4.9-3.7c-2.2-0.7-5.2-1.1-9-1.1c-2.7,0-5.7,0.2-9,0.7c-3.3,0.5-6.3,1.1-9.1,2V43.9c3.2-0.9,6.7-1.6,10.5-2.1
		C224.8,41.4,228.5,41.1,231.9,41.1z M233,92.9c2,0,4-0.3,5.9-1c1.9-0.6,3.7-1.7,5.2-3.1V77.5l-9.6,0.7c-3.7,0.3-6.4,1.1-8,2.3
		c-1.6,1.3-2.4,3-2.4,5.3c0,2.2,0.7,4,2.2,5.3C227.8,92.3,230,92.9,233,92.9z"/>
	<path class="st2" d="M271.7,42.1h15.6l1.5,7.7h0.9c1.8-2.8,4.2-4.9,7.2-6.4c3-1.4,6.4-2.2,10.1-2.2c1.6,0,3.4,0.2,5.4,0.5v17
		c-1.6-0.3-3.7-0.5-6.5-0.5c-2.9,0-5.7,0.5-8.6,1.5c-2.8,1-5,2.5-6.6,4.5v40.4h-19.1V42.1z"/>
</g>
</svg>
