<?xml version="1.0" encoding="UTF-8"?>
<svg viewBox="0 0 159 33" version="1.1" xmlns="http://www.w3.org/2000/svg" xmlns:xlink="http://www.w3.org/1999/xlink">
    <!-- Generator: Sketch 46.2 (44496) - http://www.bohemiancoding.com/sketch -->
    <title>RCB_logo</title>
    <defs></defs>
        <g id="RCB_logo">
            <polygon id="Fill-1" fill="#CCCED3" points="0.277977684 1.727525 0.277977684 32.091525 30.6699777 32.131525 30.6699777 1.727525"></polygon>
            <polygon id="Fill-2" fill="#1D1D1B" points="0.277977684 1.727525 0.277977684 32.091525 30.6699777 32.131525 30.6699777 1.727525"></polygon>
            <polygon id="Fill-3" fill="#FFEC00" points="1.06837768 31.261925 1.06837768 2.595925 29.8013777 2.595925 29.7623777 31.261925"></polygon>
            <polygon id="Fill-4" fill="#1D1D1B" points="15.3965777 20.590025 24.5805777 29.691025 28.1525777 26.116025 18.9675777 16.987025 20.7745777 15.221025 20.7745777 11.648025 22.0515777 10.378025 22.0515777 13.347025 23.3005777 14.547025 27.7715777 10.075025 28.9715777 11.277025 28.9715777 11.111025 28.9615777 10.905025 28.9435777 10.670025 28.9045777 10.388025 28.8555777 10.084025 28.7955777 9.753025 28.7085777 9.402025 28.5905777 9.030025 28.5335777 8.835025 28.4635777 8.640025 28.3855777 8.435025 28.2985777 8.239025 28.2105777 8.034025 28.1035777 7.829025 27.9965777 7.624025 27.8785777 7.409025 27.7515777 7.204025 27.6255777 6.999025 27.4795777 6.794025 27.3225777 6.589025 27.1575777 6.384025 26.9915777 6.180025 26.8045777 5.985025 26.6105777 5.788025 26.3855777 5.584025 26.1615777 5.399025 25.9375777 5.242025 25.7215777 5.096025 25.4975777 4.968025 25.2835777 4.861025 25.0685777 4.764025 24.8535777 4.686025 24.6385777 4.627025 24.4345777 4.578025 24.2295777 4.548025 24.0245777 4.529025 23.8195777 4.520025 23.6245777 4.520025 23.4275777 4.539025 23.2435777 4.559025 23.0565777 4.588025 22.8815777 4.637025 22.7065777 4.686025 22.5405777 4.735025 22.3745777 4.793025 22.2175777 4.861025 22.0725777 4.930025 21.9245777 5.007025 21.7895777 5.085025 21.6625777 5.164025 21.5355777 5.242025 21.4175777 5.330025 21.2125777 5.486025 21.0375777 5.643025 16.7125777 9.957025 17.8065777 11.051025 15.3965777 13.414025 13.0245777 11.051025 14.1175777 9.957025 9.79357768 5.643025 9.61857768 5.486025 9.41357768 5.330025 9.29557768 5.242025 9.17857768 5.164025 9.04257768 5.085025 8.90657768 5.007025 8.75857768 4.930025 8.61357768 4.861025 8.45757768 4.793025 8.29157768 4.735025 8.12557768 4.686025 7.94957768 4.637025 7.77457768 4.588025 7.58757768 4.559025 7.40357768 4.539025 7.20857768 4.520025 7.01157768 4.520025 6.80657768 4.529025 6.61257768 4.548025 6.39757768 4.578025 6.19257768 4.627025 5.97857768 4.686025 5.76257768 4.764025 5.54757768 4.861025 5.33357768 4.968025 5.10957768 5.096025 4.89457768 5.242025 4.66957768 5.399025 4.44557768 5.584025 4.23157768 5.788025 4.03657768 5.985025 3.85057768 6.180025 3.67357768 6.384025 3.50757768 6.589025 3.36257768 6.794025 3.21557768 6.999025 3.07957768 7.204025 2.96157768 7.409025 2.84457768 7.624025 2.73757768 7.829025 2.64057768 8.034025 2.54257768 8.239025 2.46357768 8.435025 2.38557768 8.640025 2.31857768 8.835025 2.25857768 9.030025 2.15257768 9.402025 2.06457768 9.753025 2.00457768 10.084025 1.95757768 10.388025 1.92657768 10.670025 1.90857768 10.905025 1.89857768 11.111025 1.89857768 11.277025 3.05957768 10.075025 7.53957768 14.547025 8.77957768 13.307025 8.77957768 10.378025 10.0565777 11.648025 10.0565777 15.221025 11.8635777 16.987025 2.75657768 26.048025 6.36857768 29.612025"></polygon>
            <path d="M39.2226777,7.387825 L39.5416777,7.387825 C40.6176777,7.387825 41.8266777,7.185825 41.8266777,5.808825 C41.8266777,4.431825 40.6176777,4.229825 39.5416777,4.229825 L39.2226777,4.229825 L39.2226777,7.387825 Z M46.4626777,14.376825 L42.3636777,14.376825 L39.2566777,9.504825 L39.2226777,9.504825 L39.2226777,14.376825 L35.9296777,14.376825 L35.9296777,1.709825 L40.8516777,1.709825 C43.3556777,1.709825 45.2536777,2.903825 45.2536777,5.606825 C45.2536777,7.354825 44.2786777,8.866825 42.4816777,9.185825 L46.4626777,14.376825 Z" id="Fill-5" fill="#1D1D1B"></path>
            <path d="M49.8232777,10.076325 C49.8232777,11.168325 50.5452777,12.008325 51.7882777,12.008325 C53.0322777,12.008325 53.7542777,11.168325 53.7542777,10.076325 C53.7542777,9.016325 53.0322777,8.127325 51.7882777,8.127325 C50.5452777,8.127325 49.8232777,9.016325 49.8232777,10.076325 L49.8232777,10.076325 Z M56.7112777,14.377325 L53.6522777,14.377325 L53.6522777,13.419325 L53.6202777,13.419325 C53.0822777,14.275325 52.0232777,14.662325 51.0152777,14.662325 C48.4622777,14.662325 46.6652777,12.529325 46.6652777,10.058325 C46.6652777,7.590325 48.4282777,5.472325 50.9812777,5.472325 C51.9722777,5.472325 53.0142777,5.842325 53.6522777,6.597325 L53.6522777,5.759325 L56.7112777,5.759325 L56.7112777,14.377325 Z" id="Fill-7" fill="#1D1D1B"></path>
            <path d="M58.7427777,14.376525 L61.7997777,14.376525 L61.7997777,5.759525 L58.7427777,5.759525 L58.7427777,14.376525 Z M61.9857777,2.448525 C61.9857777,3.389525 61.2117777,4.162525 60.2717777,4.162525 C59.3307777,4.162525 58.5587777,3.389525 58.5587777,2.448525 C58.5587777,1.508525 59.3307777,0.735525 60.2717777,0.735525 C61.2117777,0.735525 61.9857777,1.508525 61.9857777,2.448525 L61.9857777,2.448525 Z" id="Fill-9" fill="#1D1D1B"></path>
            <path d="M67.1758777,14.377125 L64.1188777,14.377125 L64.1188777,8.278125 L63.0428777,8.278125 L63.0428777,5.759125 L64.1188777,5.759125 L64.1188777,4.667125 C64.1188777,3.474125 64.1518777,2.601125 64.9918777,1.643125 C65.7478777,0.753125 66.8398777,0.266125 67.9988777,0.266125 C68.4698777,0.266125 68.8898777,0.349125 69.3088777,0.567125 L69.3088777,3.204125 C68.9568777,3.055125 68.6378777,2.920125 68.2338777,2.920125 C67.4458777,2.920125 67.1758777,3.390125 67.1758777,4.364125 L67.1758777,5.759125 L69.3088777,5.759125 L69.3088777,8.278125 L67.1758777,8.278125 L67.1758777,14.377125 Z" id="Fill-11" fill="#1D1D1B"></path>
            <path d="M73.6933777,14.377125 L70.6363777,14.377125 L70.6363777,8.278125 L69.5603777,8.278125 L69.5603777,5.759125 L70.6363777,5.759125 L70.6363777,4.667125 C70.6363777,3.474125 70.6693777,2.601125 71.5093777,1.643125 C72.2653777,0.753125 73.3573777,0.266125 74.5163777,0.266125 C74.9873777,0.266125 75.4073777,0.349125 75.8263777,0.567125 L75.8263777,3.204125 C75.4743777,3.055125 75.1553777,2.920125 74.7513777,2.920125 C73.9633777,2.920125 73.6933777,3.390125 73.6933777,4.364125 L73.6933777,5.759125 L75.8263777,5.759125 L75.8263777,8.278125 L73.6933777,8.278125 L73.6933777,14.377125 Z" id="Fill-12" fill="#1D1D1B"></path>
            <path d="M82.8652777,8.815625 C82.7152777,7.993625 81.9592777,7.455625 81.1362777,7.455625 C80.2462777,7.455625 79.5062777,7.925625 79.3202777,8.815625 L82.8652777,8.815625 Z M85.7052777,10.580625 L79.2702777,10.580625 C79.2702777,11.823625 79.9262777,12.495625 81.1852777,12.495625 C81.8422777,12.495625 82.3112777,12.277625 82.6472777,11.705625 L85.5882777,11.705625 C85.0992777,13.738625 83.1692777,14.662625 81.2032777,14.662625 C78.3462777,14.662625 76.2142777,13.049625 76.2142777,10.076625 C76.2142777,7.203625 78.1782777,5.472625 80.9842777,5.472625 C83.9742777,5.472625 85.7052777,7.321625 85.7052777,10.260625 L85.7052777,10.580625 Z" id="Fill-13" fill="#1D1D1B"></path>
            <path d="M87.0987777,14.376525 L90.1567777,14.376525 L90.1567777,5.759525 L87.0987777,5.759525 L87.0987777,14.376525 Z M90.3407777,2.448525 C90.3407777,3.389525 89.5677777,4.162525 88.6277777,4.162525 C87.6867777,4.162525 86.9137777,3.389525 86.9137777,2.448525 C86.9137777,1.508525 87.6867777,0.735525 88.6277777,0.735525 C89.5677777,0.735525 90.3407777,1.508525 90.3407777,2.448525 L90.3407777,2.448525 Z" id="Fill-14" fill="#1D1D1B"></path>
            <path d="M97.8672777,7.975725 C97.3962777,7.723725 96.7412777,7.555725 96.2202777,7.555725 C95.8682777,7.555725 95.2632777,7.706725 95.2632777,8.144725 C95.2632777,8.732725 96.2202777,8.816725 96.6402777,8.900725 C98.0682777,9.185725 99.1432777,9.857725 99.1432777,11.453725 C99.1432777,13.720725 97.0772777,14.662725 95.0782777,14.662725 C93.8512777,14.662725 92.6422777,14.308725 91.6002777,13.670725 L92.7102777,11.537725 C93.3312777,11.973725 94.3722777,12.411725 95.1282777,12.411725 C95.5142777,12.411725 96.0862777,12.225725 96.0862777,11.755725 C96.0862777,11.083725 95.1282777,11.049725 94.1712777,10.797725 C93.2142777,10.545725 92.2562777,10.076725 92.2562777,8.530725 C92.2562777,6.413725 94.1712777,5.472725 96.0532777,5.472725 C97.0262777,5.472725 98.0012777,5.623725 98.8912777,6.027725 L97.8672777,7.975725 Z" id="Fill-15" fill="#1D1D1B"></path>
            <path d="M106.802778,8.815625 C106.652778,7.993625 105.896778,7.455625 105.073778,7.455625 C104.183778,7.455625 103.444778,7.925625 103.258778,8.815625 L106.802778,8.815625 Z M109.642778,10.580625 L103.208778,10.580625 C103.208778,11.823625 103.864778,12.495625 105.122778,12.495625 C105.779778,12.495625 106.248778,12.277625 106.584778,11.705625 L109.525778,11.705625 C109.037778,13.738625 107.106778,14.662625 105.140778,14.662625 C102.283778,14.662625 100.151778,13.049625 100.151778,10.076625 C100.151778,7.203625 102.116778,5.472625 104.920778,5.472625 C107.911778,5.472625 109.642778,7.321625 109.642778,10.260625 L109.642778,10.580625 Z" id="Fill-16" fill="#1D1D1B"></path>
            <path d="M114.094778,6.867325 L114.126778,6.867325 C114.832778,5.825325 115.690778,5.473325 116.882778,5.473325 C119.200778,5.473325 120.124778,6.934325 120.124778,9.051325 L120.124778,14.376325 L117.068778,14.376325 L117.068778,10.177325 C117.068778,9.353325 117.201778,7.909325 115.690778,7.909325 C114.447778,7.909325 114.094778,8.833325 114.094778,9.908325 L114.094778,14.376325 L111.036778,14.376325 L111.036778,5.758325 L114.094778,5.758325 L114.094778,6.867325 Z" id="Fill-17" fill="#1D1D1B"></path>
            <path d="M45.9580777,23.704225 C45.4300777,22.798225 44.4150777,22.310225 43.2890777,22.310225 C41.2720777,22.310225 39.6680777,23.856225 39.3560777,25.821225 C39.0400777,27.820225 40.1880777,29.265225 42.2370777,29.265225 C43.3120777,29.265225 44.4710777,28.744225 45.2900777,27.922225 L44.6650777,31.868225 C43.5190777,32.204225 42.6890777,32.456225 41.6650777,32.456225 C39.9000777,32.456225 38.3280777,31.784225 37.2060777,30.592225 C36.0120777,29.331225 35.6340777,27.685225 35.9320777,25.805225 C36.2060777,24.073225 37.1250777,22.410225 38.5300777,21.167225 C39.9760777,19.891225 41.8960777,19.118225 43.6770777,19.118225 C44.7350777,19.118225 45.6720777,19.353225 46.5830777,19.757225 L45.9580777,23.704225 Z" id="Fill-18" fill="#1D1D1B"></path>
            <polygon id="Fill-19" fill="#1D1D1B" points="51.5146777 22.243325 51.1796777 24.360325 54.8916777 24.360325 54.4506777 27.148325 50.7376777 27.148325 50.3916777 29.332325 54.3056777 29.332325 53.8636777 32.120325 46.6576777 32.120325 48.6626777 19.454325 55.8696777 19.454325 55.4276777 22.243325"></polygon>
            <polygon id="Fill-20" fill="#1D1D1B" points="57.9023777 19.454225 61.1953777 19.454225 65.9993777 27.198225 66.0323777 27.198225 67.2593777 19.454225 70.5523777 19.454225 68.5453777 32.120225 65.2543777 32.120225 60.4513777 24.360225 60.4183777 24.360225 59.1883777 32.120225 55.8953777 32.120225"></polygon>
            <polygon id="Fill-21" fill="#1D1D1B" points="75.7363777 32.121225 72.4423777 32.121225 74.0073777 22.244225 71.2863777 22.244225 71.7273777 19.455225 80.4643777 19.455225 80.0213777 22.244225 77.2993777 22.244225"></polygon>
            <path d="M84.0498777,25.133025 L84.3678777,25.133025 C85.4438777,25.133025 86.6858777,24.931025 86.9038777,23.553025 C87.1208777,22.176025 85.9448777,21.974025 84.8688777,21.974025 L84.5498777,21.974025 L84.0498777,25.133025 Z M90.1828777,32.121025 L86.0838777,32.121025 L83.7468777,27.250025 L83.7148777,27.250025 L82.9428777,32.121025 L79.6498777,32.121025 L81.6558777,19.455025 L86.5768777,19.455025 C89.0808777,19.455025 90.7908777,20.647025 90.3618777,23.352025 C90.0868777,25.099025 88.8708777,26.611025 87.0238777,26.930025 L90.1828777,32.121025 Z" id="Fill-22" fill="#1D1D1B"></path>
            <path d="M94.8994777,25.569525 C94.5524777,27.753525 95.9134777,29.348525 97.8784777,29.348525 C99.8434777,29.348525 101.710478,27.753525 102.054478,25.569525 C102.332478,23.822525 100.972478,22.225525 99.0064777,22.225525 C97.0424777,22.225525 95.1754777,23.822525 94.8994777,25.569525 M105.485478,25.551525 C104.836478,29.651525 101.438478,32.541525 97.3734777,32.541525 C93.3064777,32.541525 90.8264777,29.651525 91.4754777,25.551525 C92.0824777,21.722525 95.8674777,19.034525 99.5114777,19.034525 C103.158478,19.034525 106.091478,21.722525 105.485478,25.551525" id="Fill-23" fill="#1D1D1B"></path>
            <path d="M110.485378,24.426925 L110.853378,24.426925 C111.728378,24.426925 112.659378,24.276925 112.829378,23.199925 C113.012378,22.041925 111.998378,21.973925 111.108378,21.973925 L110.873378,21.973925 L110.485378,24.426925 Z M109.665378,29.600925 L110.085378,29.600925 C111.058378,29.600925 112.698378,29.652925 112.919378,28.256925 C113.161378,26.729925 111.506378,26.878925 110.431378,26.878925 L110.095378,26.878925 L109.665378,29.600925 Z M105.972378,32.120925 L107.979378,19.453925 L112.682378,19.453925 C114.934378,19.453925 116.307378,20.327925 115.924378,22.746925 C115.744378,23.888925 115.228378,24.813925 114.121378,25.333925 L114.116378,25.366925 C115.891378,25.603925 116.470378,26.828925 116.192378,28.592925 C115.771378,31.246925 113.365378,32.120925 111.047378,32.120925 L105.972378,32.120925 Z" id="Fill-24" fill="#1D1D1B"></path>
            <path d="M124.258878,23.369325 L124.224878,23.369325 L122.226878,27.400325 L124.964878,27.400325 L124.258878,23.369325 Z M120.919878,29.921325 L119.696878,32.121325 L116.203878,32.121325 L123.080878,19.455325 L126.676878,19.455325 L129.441878,32.121325 L125.929878,32.121325 L125.455878,29.921325 L120.919878,29.921325 Z" id="Fill-25" fill="#1D1D1B"></path>
            <polygon id="Fill-26" fill="#1D1D1B" points="132.472678 19.454225 135.765678 19.454225 140.569678 27.198225 140.603678 27.198225 141.828678 19.454225 145.120678 19.454225 143.116678 32.120225 139.823678 32.120225 135.021678 24.360225 134.988678 24.360225 133.758678 32.120225 130.465678 32.120225"></polygon>
            <polygon id="Fill-27" fill="#1D1D1B" points="154.580178 19.454225 158.662178 19.454225 152.672178 25.451225 157.109178 32.120225 152.843178 32.120225 149.462178 26.628225 149.430178 26.628225 148.559178 32.120225 145.267178 32.120225 147.272178 19.454225 150.565178 19.454225 149.737178 24.680225 149.771178 24.680225"></polygon>
        </g>
    
</svg>