<svg xmlns="http://www.w3.org/2000/svg" xmlns:xlink="http://www.w3.org/1999/xlink" width="312.25" height="75.393" viewBox="0 0 312.25 75.393">
  <defs>
    <linearGradient id="linear-gradient" x1="0.485" y1="0.008" x2="0.485" y2="0.997" gradientUnits="objectBoundingBox">
      <stop offset="0" stop-color="#a57f2d"/>
      <stop offset="0.073" stop-color="#b9963a"/>
      <stop offset="0.161" stop-color="#cead4a"/>
      <stop offset="0.255" stop-color="#dec059"/>
      <stop offset="0.357" stop-color="#eacc62"/>
      <stop offset="0.484" stop-color="#eed165"/>
      <stop offset="0.626" stop-color="#eacd62"/>
      <stop offset="0.74" stop-color="#e0c158"/>
      <stop offset="0.844" stop-color="#d0af48"/>
      <stop offset="0.942" stop-color="#bd9837"/>
      <stop offset="1" stop-color="#af892e"/>
    </linearGradient>
    <linearGradient id="linear-gradient-2" x1="0.504" y1="0.017" x2="0.504" y2="1.012" xlink:href="#linear-gradient"/>
    <linearGradient id="linear-gradient-3" x1="0.501" y1="0.002" x2="0.501" y2="1.027" xlink:href="#linear-gradient"/>
    <linearGradient id="linear-gradient-4" x1="0.503" y1="0.002" x2="0.503" y2="1.027" xlink:href="#linear-gradient"/>
    <linearGradient id="linear-gradient-5" x1="0.498" y1="0.002" x2="0.498" y2="1.027" xlink:href="#linear-gradient"/>
    <linearGradient id="linear-gradient-6" x1="0.499" y1="0.002" x2="0.499" y2="1.027" xlink:href="#linear-gradient"/>
    <linearGradient id="linear-gradient-7" x1="0.501" y1="0.017" x2="0.501" y2="1.012" xlink:href="#linear-gradient"/>
    <linearGradient id="linear-gradient-8" x1="0.501" y1="0" x2="0.501" y2="1.027" xlink:href="#linear-gradient"/>
    <linearGradient id="linear-gradient-9" x1="0.496" y1="0.002" x2="0.496" y2="1.027" xlink:href="#linear-gradient"/>
    <linearGradient id="linear-gradient-10" x1="0.494" y1="0.002" x2="0.494" y2="1.027" xlink:href="#linear-gradient"/>
    <linearGradient id="linear-gradient-11" x1="0.496" y1="0.002" x2="0.496" y2="1.027" xlink:href="#linear-gradient"/>
    <linearGradient id="linear-gradient-12" x1="0.5" y1="0" x2="0.5" y2="1.027" xlink:href="#linear-gradient"/>
    <linearGradient id="linear-gradient-13" x1="0.5" y1="0.002" x2="0.5" y2="1.027" xlink:href="#linear-gradient"/>
    <linearGradient id="linear-gradient-14" x1="0.503" y1="0.017" x2="0.503" y2="1.012" xlink:href="#linear-gradient"/>
    <linearGradient id="linear-gradient-15" x1="0.114" y1="0.959" x2="0.773" y2="0.026" gradientUnits="objectBoundingBox">
      <stop offset="0" stop-color="#a57f2d"/>
      <stop offset="0.484" stop-color="#eed165"/>
      <stop offset="0.875" stop-color="#af892e"/>
    </linearGradient>
  </defs>
  <g id="logo-seven-capitals" transform="translate(-5.092 -4.8)">
    <g id="Group_4762" data-name="Group 4762" transform="translate(157.645 65.191)">
      <path id="Path_4880" data-name="Path 4880" d="M211.671,85h-6.047c-.077,0-.077,0-.077.077v4.057c0,.077,0,.077.077.077h4.21a.165.165,0,0,1,.153.153v.689a.165.165,0,0,1-.153.153h-4.21c-.077,0-.077,0-.077.077v5.052a.165.165,0,0,1-.153.153h-.842a.165.165,0,0,1-.153-.153V84.153a.165.165,0,0,1,.153-.153h7.118a.165.165,0,0,1,.153.153v.689C211.825,85,211.825,85,211.671,85Z" transform="translate(-204.4 -83.77)" fill="#fff"/>
      <path id="Path_4881" data-name="Path 4881" d="M217.272,94.769a2.721,2.721,0,0,1-1.072-2.22v-.536a.165.165,0,0,1,.153-.153h.842a.165.165,0,0,1,.153.153v.459A1.787,1.787,0,0,0,218.114,94a3.649,3.649,0,0,0,2.22.612,2.852,2.852,0,0,0,1.914-.536,1.778,1.778,0,0,0,.689-1.454,1.538,1.538,0,0,0-.306-1,3.063,3.063,0,0,0-.919-.765c-.459-.23-1-.536-1.76-.842a17.024,17.024,0,0,1-1.914-.842,2.545,2.545,0,0,1-1.072-.919,2.182,2.182,0,0,1-.383-1.454,2.515,2.515,0,0,1,1-2.143,3.909,3.909,0,0,1,2.6-.765,4.855,4.855,0,0,1,2.909.842,2.765,2.765,0,0,1,1.072,2.3v.383a.165.165,0,0,1-.153.153h-1.072a.165.165,0,0,1-.153-.153v-.383a1.787,1.787,0,0,0-.765-1.531,3.483,3.483,0,0,0-2.067-.612,2.843,2.843,0,0,0-1.76.459,1.682,1.682,0,0,0-.612,1.378,1.538,1.538,0,0,0,.306,1,4.061,4.061,0,0,0,.842.689,14.593,14.593,0,0,0,1.76.765,11.254,11.254,0,0,1,1.914.918,3.109,3.109,0,0,1,1.148,1.072,2.429,2.429,0,0,1,.459,1.531,2.658,2.658,0,0,1-1,2.22,4.458,4.458,0,0,1-2.832.842A5.933,5.933,0,0,1,217.272,94.769Z" transform="translate(-207.168 -83.747)" fill="#fff"/>
      <path id="Path_4882" data-name="Path 4882" d="M231.437,95.1a3.749,3.749,0,0,1-1.378-1.3,3.931,3.931,0,0,1-.459-1.914V87.374a3.93,3.93,0,0,1,.459-1.914,3.243,3.243,0,0,1,1.378-1.3,4.238,4.238,0,0,1,1.99-.459,4.026,4.026,0,0,1,1.99.459,3.555,3.555,0,0,1,1.378,1.225,3.636,3.636,0,0,1,.459,1.837c0,.077,0,.077-.077.153l-.077.077-.842.077a.165.165,0,0,1-.153-.153V87.3a2.269,2.269,0,0,0-.765-1.837,2.735,2.735,0,0,0-1.99-.689,2.862,2.862,0,0,0-1.99.689A2.535,2.535,0,0,0,230.6,87.3V91.89a2.269,2.269,0,0,0,.765,1.837,2.735,2.735,0,0,0,1.99.689,2.862,2.862,0,0,0,1.99-.689,2.269,2.269,0,0,0,.765-1.837h0a.165.165,0,0,1,.153-.153l.842.077a.165.165,0,0,1,.153.153,4.15,4.15,0,0,1-.459,1.914,2.7,2.7,0,0,1-1.378,1.225,4.238,4.238,0,0,1-1.99.459A4.026,4.026,0,0,1,231.437,95.1Z" transform="translate(-210.312 -83.7)" fill="#fff"/>
      <path id="Path_4883" data-name="Path 4883" d="M254.706,95.4l-2.449-5.128a.075.075,0,0,0-.077-.077h-2.755c-.077,0-.077,0-.077.077v5.052a.165.165,0,0,1-.153.153h-.842a.165.165,0,0,1-.153-.153V84.153a.165.165,0,0,1,.153-.153h4.286a3.388,3.388,0,0,1,2.3.842,3.057,3.057,0,0,1,.842,2.3,3.412,3.412,0,0,1-.612,1.99,2.816,2.816,0,0,1-1.684,1.072c-.077,0-.077.077,0,.077l2.449,5.052V95.4c0,.077-.077.077-.153.077h-.842C254.783,95.481,254.783,95.481,254.706,95.4Zm-5.358-10.333V89.2c0,.077,0,.077.077.077h3.062a2.143,2.143,0,1,0,0-4.286l-3.138.077Z" transform="translate(-214.675 -83.77)" fill="#fff"/>
      <path id="Path_4884" data-name="Path 4884" d="M267.736,92.057v.536a.165.165,0,0,1-.153.153H262.3c-.077,0-.077,0-.077.077,0,.612.077,1,.077,1.148a2.051,2.051,0,0,0,.765,1.148,2.429,2.429,0,0,0,1.531.459,2.246,2.246,0,0,0,1.225-.306,2.433,2.433,0,0,0,.842-.919c.077-.077.153-.153.23-.077l.612.383a.281.281,0,0,1,.077.23,3.14,3.14,0,0,1-1.225,1.225,3.728,3.728,0,0,1-1.914.459,4.041,4.041,0,0,1-1.99-.536,2.926,2.926,0,0,1-1.148-1.531,6.144,6.144,0,0,1-.306-2.3V91.062a2.264,2.264,0,0,1,.153-.765,2.612,2.612,0,0,1,1.148-1.684A3.027,3.027,0,0,1,264.368,88a3.092,3.092,0,0,1,2.3.765,3.744,3.744,0,0,1,1,2.143A5.071,5.071,0,0,1,267.736,92.057Zm-4.669-2.6a1.815,1.815,0,0,0-.689,1.148,10.634,10.634,0,0,0-.153,1.148c0,.077,0,.077.077.077h4.286c.077,0,.077,0,.077-.077,0-.459-.077-.842-.077-1.072a2.051,2.051,0,0,0-.765-1.148,2.687,2.687,0,0,0-1.378-.459A1.583,1.583,0,0,0,263.067,89.454Z" transform="translate(-217.678 -84.709)" fill="#fff"/>
      <path id="Path_4885" data-name="Path 4885" d="M278.464,88.106h.842a.165.165,0,0,1,.153.153v7.884a3.239,3.239,0,0,1-1.072,2.679,4.694,4.694,0,0,1-2.909.842h-.612a.165.165,0,0,1-.153-.153v-.765c0-.077,0-.077.077-.153s.077,0,.077,0h.459a3.492,3.492,0,0,0,2.22-.612,2.329,2.329,0,0,0,.689-1.914v-.689c0-.077,0,0-.077,0a2.515,2.515,0,0,1-2.143,1,2.87,2.87,0,0,1-1.914-.612,2.638,2.638,0,0,1-1.072-1.607,6.738,6.738,0,0,1-.23-1.99,5.806,5.806,0,0,1,.077-1.225,3.841,3.841,0,0,1,.153-.918,3.327,3.327,0,0,1,1.072-1.607,3.114,3.114,0,0,1,1.837-.612,2.565,2.565,0,0,1,2.22,1h.077v-.689Zm-.153,5.128v-2.22c0-.23-.077-.383-.077-.536a2.106,2.106,0,0,0-.612-1.148,2.073,2.073,0,0,0-2.6,0,2.352,2.352,0,0,0-.765,1.148,8.122,8.122,0,0,0-.153,1.607,7.791,7.791,0,0,0,.153,1.684,2.219,2.219,0,0,0,.689,1.148,2.079,2.079,0,0,0,1.3.459,1.8,1.8,0,0,0,1.3-.459,1.714,1.714,0,0,0,.612-1.148C278.234,93.694,278.234,93.541,278.311,93.234Z" transform="translate(-220.446 -84.662)" fill="#fff"/>
      <path id="Path_4886" data-name="Path 4886" d="M290.358,88.177h.842a.165.165,0,0,1,.153.153v7.96a.165.165,0,0,1-.153.153h-.842a.165.165,0,0,1-.153-.153v-.765h-.077a2.477,2.477,0,0,1-2.22,1,2.922,2.922,0,0,1-2.526-1.225A2.932,2.932,0,0,1,285,93.841V88.253a.165.165,0,0,1,.153-.153H286a.165.165,0,0,1,.153.153v5.2a1.8,1.8,0,0,0,.536,1.454,1.905,1.905,0,0,0,1.454.536,1.8,1.8,0,0,0,1.454-.536,1.906,1.906,0,0,0,.536-1.454v-5.2C290.2,88.177,290.2,88.177,290.358,88.177Z" transform="translate(-223.308 -84.732)" fill="#fff"/>
      <path id="Path_4887" data-name="Path 4887" d="M297.1,95.328V84.153a.165.165,0,0,1,.153-.153h.842a.165.165,0,0,1,.153.153V95.328a.165.165,0,0,1-.153.153h-.842C297.177,95.481,297.1,95.481,297.1,95.328Z" transform="translate(-226.146 -83.77)" fill="#fff"/>
      <path id="Path_4888" data-name="Path 4888" d="M307.464,88.742a2.653,2.653,0,0,1,.842,1.99v5.511a.165.165,0,0,1-.153.153h-.842a.165.165,0,0,1-.153-.153v-.765h-.077a2.746,2.746,0,0,1-1.072.765,4.457,4.457,0,0,1-1.454.23,3.412,3.412,0,0,1-1.99-.612,2.081,2.081,0,0,1-.765-1.837,2.226,2.226,0,0,1,.919-1.914,4.125,4.125,0,0,1,2.526-.689h1.914c.077,0,.077,0,.077-.077v-.612a1.8,1.8,0,0,0-.459-1.3,1.949,1.949,0,0,0-1.454-.459,2.346,2.346,0,0,0-1.3.306,1.362,1.362,0,0,0-.612.842c0,.077-.077.153-.23.153l-.919-.077c-.153,0-.153-.077-.153-.153a2.039,2.039,0,0,1,1-1.531,3.734,3.734,0,0,1,2.143-.612A3.419,3.419,0,0,1,307.464,88.742Zm-1.072,6.353a1.5,1.5,0,0,0,.689-1.3v-1.3c0-.077,0-.077-.077-.077h-1.76a3.17,3.17,0,0,0-1.76.459A1.379,1.379,0,0,0,302.8,94.1a1.158,1.158,0,0,0,.536,1.072,2.189,2.189,0,0,0,1.3.383A3,3,0,0,0,306.392,95.095Z" transform="translate(-227.249 -84.685)" fill="#fff"/>
      <path id="Path_4889" data-name="Path 4889" d="M317.163,88.438h-1.914c-.077,0-.077,0-.077.077v4.822a1.277,1.277,0,0,0,.383,1.072,1.5,1.5,0,0,0,1.072.306h.383a.165.165,0,0,1,.153.153v.689a.165.165,0,0,1-.153.153H316.4a2.843,2.843,0,0,1-1.76-.459,1.962,1.962,0,0,1-.612-1.607v-5.2c0-.077,0-.077-.077-.077h-.995a.165.165,0,0,1-.153-.153V87.6a.165.165,0,0,1,.153-.153h.995c.077,0,.077,0,.077-.077V85.453a.165.165,0,0,1,.153-.153h.842a.165.165,0,0,1,.153.153v1.914c0,.077,0,.077.077.077h1.837a.165.165,0,0,1,.153.153v.612C317.316,88.438,317.239,88.438,317.163,88.438Z" transform="translate(-229.829 -84.075)" fill="#fff"/>
      <path id="Path_4890" data-name="Path 4890" d="M328.036,92.057v.536a.165.165,0,0,1-.153.153H322.6c-.077,0-.077,0-.077.077,0,.612.077,1,.077,1.148a2.051,2.051,0,0,0,.765,1.148,2.429,2.429,0,0,0,1.531.459,2.246,2.246,0,0,0,1.225-.306,2.434,2.434,0,0,0,.842-.919c.077-.077.153-.153.23-.077l.612.383a.281.281,0,0,1,.077.23,3.14,3.14,0,0,1-1.225,1.225,3.728,3.728,0,0,1-1.914.459,4.041,4.041,0,0,1-1.99-.536,2.655,2.655,0,0,1-1.148-1.531,6.144,6.144,0,0,1-.306-2.3V91.062a2.264,2.264,0,0,1,.153-.765,2.612,2.612,0,0,1,1.148-1.684A3.027,3.027,0,0,1,324.668,88a3.092,3.092,0,0,1,2.3.765,3.745,3.745,0,0,1,1,2.143A5.067,5.067,0,0,1,328.036,92.057Zm-4.669-2.6a1.815,1.815,0,0,0-.689,1.148,10.624,10.624,0,0,0-.153,1.148c0,.077,0,.077.077.077h4.286c.077,0,.077,0,.077-.077,0-.459-.077-.842-.077-1.072a2.051,2.051,0,0,0-.765-1.148,2.137,2.137,0,0,0-1.378-.459A1.659,1.659,0,0,0,323.367,89.454Z" transform="translate(-231.823 -84.709)" fill="#fff"/>
      <path id="Path_4891" data-name="Path 4891" d="M338.888,84h.842a.165.165,0,0,1,.153.153V95.328a.165.165,0,0,1-.153.153h-.842a.165.165,0,0,1-.153-.153v-.765h-.077a3.063,3.063,0,0,1-.918.765,3.327,3.327,0,0,1-3.138-.383,3.006,3.006,0,0,1-1.072-1.607,7.322,7.322,0,0,1-.23-2.067,6.966,6.966,0,0,1,.23-2.067,3.551,3.551,0,0,1,1.072-1.684,3.243,3.243,0,0,1,1.99-.612,2.556,2.556,0,0,1,1.148.23,1.787,1.787,0,0,1,.918.765h.077V84C338.658,84.077,338.734,84,338.888,84Zm-.306,8.573a9.832,9.832,0,0,0,0-2.449c-.077-.306-.153-.536-.23-.765a2.752,2.752,0,0,0-.612-.918,1.757,1.757,0,0,0-1.072-.306,1.845,1.845,0,0,0-1.148.306,2.393,2.393,0,0,0-.689.842,2.74,2.74,0,0,0-.306.842,9.832,9.832,0,0,0,0,2.449c.077.306.153.536.23.765a2.09,2.09,0,0,0,.689.919,2.118,2.118,0,0,0,1.225.383,1.243,1.243,0,0,0,1.072-.383,2.089,2.089,0,0,0,.689-.919A2.265,2.265,0,0,0,338.581,92.573Z" transform="translate(-234.638 -83.77)" fill="#fff"/>
      <path id="Path_4892" data-name="Path 4892" d="M356.541,89.588a2.815,2.815,0,0,1,1.378,1.072,3.086,3.086,0,0,1,.459,1.684,2.888,2.888,0,0,1-.919,2.3,3.719,3.719,0,0,1-2.526.842h-3.98a.165.165,0,0,1-.153-.153V84.153a.165.165,0,0,1,.153-.153h3.827a3.694,3.694,0,0,1,2.526.765,2.831,2.831,0,0,1,.919,2.22,2.429,2.429,0,0,1-.459,1.531,2.63,2.63,0,0,1-1.225,1C356.464,89.511,356.464,89.588,356.541,89.588Zm-4.592-4.516v3.98c0,.077,0,.077.077.077h2.756a2.474,2.474,0,0,0,1.684-.536,1.96,1.96,0,0,0,.612-1.454,2.137,2.137,0,0,0-.612-1.531,2.349,2.349,0,0,0-1.684-.536Zm4.592,8.8a2.416,2.416,0,0,0,0-3.215,2.522,2.522,0,0,0-1.684-.612h-2.832c-.077,0-.077,0-.077.077V94.41c0,.077,0,.077.077.077h2.909A2.193,2.193,0,0,0,356.541,93.874Z" transform="translate(-238.743 -83.77)" fill="#fff"/>
      <path id="Path_4893" data-name="Path 4893" d="M368.71,88.261c.077.077.153.077.077.23l-.153.842c0,.077-.077.153-.23.077a1.442,1.442,0,0,0-.612-.153h-.23a1.792,1.792,0,0,0-1.378.612,2.085,2.085,0,0,0-.536,1.531v4.822a.165.165,0,0,1-.153.153h-.842a.165.165,0,0,1-.153-.153V88.338a.165.165,0,0,1,.153-.153h.842a.165.165,0,0,1,.153.153v1.072h.077a3.263,3.263,0,0,1,.842-.918,2.246,2.246,0,0,1,1.225-.306A1.28,1.28,0,0,1,368.71,88.261Z" transform="translate(-241.957 -84.74)" fill="#fff"/>
      <path id="Path_4894" data-name="Path 4894" d="M373.578,95.96a2.924,2.924,0,0,1-1.148-1.684,7.1,7.1,0,0,1-.23-1.99,6.74,6.74,0,0,1,.23-1.99,3.693,3.693,0,0,1,1.148-1.684A3.027,3.027,0,0,1,375.644,88a3.412,3.412,0,0,1,1.99.612,3.123,3.123,0,0,1,1.148,1.607,6.74,6.74,0,0,1,.23,1.99,6.4,6.4,0,0,1-.23,1.99,3.331,3.331,0,0,1-1.148,1.684,3.483,3.483,0,0,1-2.067.612A3.221,3.221,0,0,1,373.578,95.96Zm3.368-.842a2.352,2.352,0,0,0,.765-1.148,8.378,8.378,0,0,0,.153-1.684,9.025,9.025,0,0,0-.153-1.684,2.051,2.051,0,0,0-.765-1.148A2.687,2.687,0,0,0,375.568,89a2.137,2.137,0,0,0-1.378.459,2.351,2.351,0,0,0-.765,1.148,8.38,8.38,0,0,0-.153,1.684,9.028,9.028,0,0,0,.153,1.684,2.05,2.05,0,0,0,.765,1.148,2.3,2.3,0,0,0,2.755,0Z" transform="translate(-243.764 -84.709)" fill="#fff"/>
      <path id="Path_4895" data-name="Path 4895" d="M384.6,95.328V84.153a.165.165,0,0,1,.153-.153h.842a.165.165,0,0,1,.153.153v6.812h.077l3.521-3.674a.281.281,0,0,1,.23-.077h1c.077,0,.077,0,.153.077v.153l-2.067,2.3v.077l2.526,5.511V95.4a.165.165,0,0,1-.153.153h-.918a.165.165,0,0,1-.153-.153l-2.143-4.822c0-.077-.077-.077-.077,0L385.9,92.5v2.832a.165.165,0,0,1-.153.153h-.842C384.677,95.481,384.6,95.481,384.6,95.328Z" transform="translate(-246.672 -83.77)" fill="#fff"/>
      <path id="Path_4896" data-name="Path 4896" d="M401.736,92.057v.536a.165.165,0,0,1-.153.153H396.3c-.077,0-.077,0-.077.077,0,.612.077,1,.077,1.148a2.051,2.051,0,0,0,.765,1.148,2.429,2.429,0,0,0,1.531.459,2.246,2.246,0,0,0,1.225-.306,2.433,2.433,0,0,0,.842-.919c.077-.077.153-.153.23-.077l.612.383a.281.281,0,0,1,.077.23,3.14,3.14,0,0,1-1.225,1.225,3.729,3.729,0,0,1-1.914.459,4.041,4.041,0,0,1-1.99-.536,2.655,2.655,0,0,1-1.148-1.531,6.144,6.144,0,0,1-.306-2.3V91.062a2.264,2.264,0,0,1,.153-.765,2.612,2.612,0,0,1,1.148-1.684A3.027,3.027,0,0,1,398.368,88a3.092,3.092,0,0,1,2.3.765,3.745,3.745,0,0,1,1,2.143A5.069,5.069,0,0,1,401.736,92.057Zm-4.669-2.6a1.814,1.814,0,0,0-.689,1.148,10.64,10.64,0,0,0-.153,1.148c0,.077,0,.077.077.077h4.286c.077,0,.077,0,.077-.077,0-.459-.077-.842-.077-1.072a2.051,2.051,0,0,0-.765-1.148,2.137,2.137,0,0,0-1.378-.459A1.583,1.583,0,0,0,397.067,89.454Z" transform="translate(-249.112 -84.709)" fill="#fff"/>
      <path id="Path_4897" data-name="Path 4897" d="M411.61,88.261c.077.077.153.077.077.23l-.153.842c0,.077-.077.153-.23.077a1.442,1.442,0,0,0-.612-.153h-.23a1.792,1.792,0,0,0-1.378.612,2.085,2.085,0,0,0-.536,1.531v4.822a.165.165,0,0,1-.153.153h-.842a.165.165,0,0,1-.153-.153V88.338a.165.165,0,0,1,.153-.153h.842a.165.165,0,0,1,.153.153v1.072h.077a3.263,3.263,0,0,1,.842-.918,2.246,2.246,0,0,1,1.225-.306A1.28,1.28,0,0,1,411.61,88.261Z" transform="translate(-252.021 -84.74)" fill="#fff"/>
    </g>
    <g id="Group_4765" data-name="Group 4765" transform="translate(5.092 4.8)">
      <g id="Group_4763" data-name="Group 4763" transform="translate(68.281 8.496)">
        <path id="Path_4898" data-name="Path 4898" d="M94.683,68.1a.362.362,0,0,1-.383-.383V16.283a.383.383,0,1,1,.765,0V67.719A.362.362,0,0,1,94.683,68.1Z" transform="translate(-94.3 -15.9)" fill="url(#linear-gradient)"/>
      </g>
      <g id="Group_4764" data-name="Group 4764" transform="translate(80.069 18.829)">
        <path id="Path_4899" data-name="Path 4899" d="M123.554,36.289v.765l-4.439.459V36.365c0-1.76-.842-2.679-2.373-2.679s-2.373.918-2.373,2.679v.383c0,1.76.765,3.291,3.9,5.97,4.21,3.6,5.817,6.123,5.817,9.8v1.531c0,4.363-2.6,6.889-7.195,6.889s-7.195-2.526-7.195-6.889V51.98l4.439-.459v2.22c0,1.914.842,2.909,2.6,2.909s2.6-1,2.6-2.909v-1c0-1.914-.918-3.444-3.98-6.047-4.21-3.6-5.664-6.123-5.664-9.721v-.689c0-4.363,2.526-6.889,6.889-6.889S123.554,31.926,123.554,36.289Z" transform="translate(-109.7 -29.4)" fill="url(#linear-gradient-2)"/>
        <path id="Path_4900" data-name="Path 4900" d="M146.312,34.286h-8.42v8.649h6.736v4.286h-6.736V56.33h8.42v4.286H133.3V30h13.012Z" transform="translate(-115.236 -29.541)" fill="url(#linear-gradient-3)"/>
        <path id="Path_4901" data-name="Path 4901" d="M165.575,60.617H159.6L154.4,30h4.746l3.444,23.345h.077L166.034,30h4.592Z" transform="translate(-120.186 -29.541)" fill="url(#linear-gradient-4)"/>
        <path id="Path_4902" data-name="Path 4902" d="M194.212,34.286h-8.42v8.649h6.736v4.286h-6.736V56.33h8.42v4.286H181.2V30h13.012Z" transform="translate(-126.473 -29.541)" fill="url(#linear-gradient-5)"/>
        <path id="Path_4903" data-name="Path 4903" d="M219.5,60.617h-4.516l-6.047-20.283h-.077V60.617H204.5V30h5.128l5.434,18.217h.077V30H219.5V60.617Z" transform="translate(-131.939 -29.541)" fill="url(#linear-gradient-6)"/>
        <path id="Path_4904" data-name="Path 4904" d="M257.413,36.748V39.5l-4.439.23V37.207c0-2.449-.918-3.521-2.6-3.521s-2.6,1.072-2.6,3.062V53.434c0,1.99.918,3.062,2.6,3.062s2.6-1.072,2.6-3.521V49.607l4.439.23v3.751c0,4.592-2.679,7.348-7.195,7.348s-7.118-2.679-7.118-7.348V36.748c0-4.592,2.6-7.348,7.118-7.348C254.734,29.477,257.413,32.155,257.413,36.748Z" transform="translate(-140.994 -29.4)" fill="url(#linear-gradient-7)"/>
        <path id="Path_4905" data-name="Path 4905" d="M282.256,60.64h-4.746l-1-6.965h-5.128l-.995,6.965H265.8l5.281-30.54h5.894Zm-8.343-24.034-1.837,12.859h3.9l-1.914-12.859h-.153Z" transform="translate(-146.319 -29.564)" fill="url(#linear-gradient-8)"/>
        <path id="Path_4906" data-name="Path 4906" d="M307.213,37.731V40.18c0,5.052-2.679,7.731-7.654,7.731h-2.067V60.617H292.9V30h6.659C304.458,30,307.213,32.755,307.213,37.731Zm-9.8-3.444v9.338h1.914c2.22,0,3.215-1.148,3.215-3.751V38.037c0-2.6-.995-3.751-3.215-3.751Z" transform="translate(-152.676 -29.541)" fill="url(#linear-gradient-9)"/>
        <path id="Path_4907" data-name="Path 4907" d="M321.793,60.617H317.2V30h4.592Z" transform="translate(-158.377 -29.541)" fill="url(#linear-gradient-10)"/>
        <path id="Path_4908" data-name="Path 4908" d="M342.69,34.363h-4.9V60.617H333.2V34.363h-4.9V30h14.466v4.363Z" transform="translate(-160.981 -29.541)" fill="url(#linear-gradient-11)"/>
        <path id="Path_4909" data-name="Path 4909" d="M364.456,60.64h-4.746l-1-6.965h-5.128l-1,6.965H348l5.281-30.54h5.894Zm-8.343-24.034L354.2,49.465h3.9L356.19,36.606Z" transform="translate(-165.602 -29.564)" fill="url(#linear-gradient-12)"/>
        <path id="Path_4910" data-name="Path 4910" d="M379.593,56.254h7.731v4.363H375V30h4.592Z" transform="translate(-171.936 -29.541)" fill="url(#linear-gradient-13)"/>
        <path id="Path_4911" data-name="Path 4911" d="M408.054,36.289v.765l-4.439.459V36.365c0-1.76-.842-2.679-2.373-2.679s-2.373.918-2.373,2.679v.383c0,1.76.765,3.291,3.9,5.97,4.21,3.6,5.817,6.123,5.817,9.8v1.531c0,4.363-2.6,6.889-7.195,6.889s-7.195-2.526-7.195-6.889V51.98l4.439-.459v2.22c0,1.914.842,2.909,2.6,2.909s2.6-1,2.6-2.909v-1c0-1.914-.918-3.444-3.98-6.047-4.21-3.6-5.664-6.123-5.664-9.721v-.689c0-4.363,2.526-6.889,6.889-6.889C405.6,29.477,408.054,31.926,408.054,36.289Z" transform="translate(-176.44 -29.4)" fill="url(#linear-gradient-14)"/>
      </g>
      <path id="Path_4912" data-name="Path 4912" d="M61.586,4.8H13.747L10.3,10.923l38.347-.306h0L38.087,29.676,20.712,60.981h0l-1.99,3.674h0L13.594,73.84l7.195.077L50.1,24.242h0a30.116,30.116,0,0,1,2.373,2.909,24.3,24.3,0,0,1,3.291,6.965,23.656,23.656,0,0,1-16.3,29.315,24.888,24.888,0,0,1-8.879.842l-2.3,3.9c.536.077,1.072.153,1.684.23a27.689,27.689,0,0,0,10.639-.918A27.635,27.635,0,0,0,57.376,54.246a27.151,27.151,0,0,0,3.368-10.563,27.69,27.69,0,0,0-.918-10.639A28.2,28.2,0,0,0,55,23.476q-.23-.115-.23-.23a27.511,27.511,0,0,0-2.449-2.679L61.586,4.8ZM30.51,23.323,13.365,54.169a25.841,25.841,0,0,1-1.837-3.138L23.391,29.6H16.5L9.308,42.688v.077A23.113,23.113,0,0,1,12.216,29.14,23.7,23.7,0,0,1,26.453,17.812a23.267,23.267,0,0,1,14.084.306L42.6,14.368a28.336,28.336,0,0,0-6.583-1.531,27.689,27.689,0,0,0-10.639.918A27.635,27.635,0,0,0,8.619,27,27.151,27.151,0,0,0,5.251,37.56,27.69,27.69,0,0,0,6.17,48.2a28.2,28.2,0,0,0,4.822,9.568,26.149,26.149,0,0,0,4.822,4.822L37.628,23.323Z" transform="translate(-5.092 -4.8)" fill="url(#linear-gradient-15)"/>
    </g>
  </g>
</svg>
