<svg width="207" height="60" viewBox="0 0 330 95" fill="none" xmlns="http://www.w3.org/2000/svg">
<g clip-path="url(#clip0_1183_5052)">
<path d="M31.1795 88.9281C35.5976 84.5006 35.5976 77.3535 31.1795 72.9261L21.4595 63.249L13.6331 55.3428C7.4477 49.1444 7.4477 39.0879 13.6331 32.8895C19.8185 26.6911 29.854 26.6911 36.0394 32.8895L43.8658 40.7323L53.5226 50.4094C63.2426 60.1498 79.0217 60.1498 88.6785 50.4094C98.3984 40.6691 98.3984 24.9201 88.6785 15.1797C68.4812 -5.05994 35.4714 -5.05994 15.211 15.243C-5.04934 35.5459 -5.04934 68.6251 15.211 88.9281C19.6292 93.3555 26.7613 93.3555 31.1795 88.9281Z" fill="url(#paint0_linear_1183_5052)"/>
<path d="M21.4595 40.7956C27.6449 34.5972 37.6804 34.5972 43.8658 40.7956L36.0394 32.8895C29.854 26.6911 19.8185 26.6911 13.6331 32.8895C7.44767 39.0879 7.44767 49.1445 13.6331 55.3429L21.4595 63.249C15.2741 57.0506 15.2741 46.9307 21.4595 40.7956Z" fill="#005971"/>
<path d="M59.0137 95C50.2405 95 43.1715 87.8528 43.1715 79.1245C43.1715 70.3329 50.3037 63.249 59.0137 63.249C67.7869 63.249 74.8559 70.3329 74.8559 79.1245C74.8559 87.9161 67.7869 95 59.0137 95Z" fill="url(#paint1_linear_1183_5052)"/>
<g opacity="0.35">
<mask id="mask0_1183_5052" style="mask-type:alpha" maskUnits="userSpaceOnUse" x="7" y="0" width="89" height="49">
<g opacity="0.35">
<g opacity="0.35">
<path opacity="0.35" d="M88.7416 15.1797C68.4813 -5.05994 35.4714 -5.05994 15.211 15.243C12.2446 18.2157 9.71992 21.5046 7.63708 24.9201C16.4103 20.1764 26.4458 17.3935 37.1124 17.3935C59.9606 17.3935 79.9053 29.7903 90.6351 48.259C98.3353 38.5186 97.7041 24.2243 88.7416 15.1797Z" fill="url(#paint2_linear_1183_5052)"/>
</g>
</g>
</mask>
<g mask="url(#mask0_1183_5052)">
<path opacity="0.35" d="M88.7416 15.1797C68.4813 -5.05994 35.4714 -5.05994 15.211 15.243C12.2446 18.2157 9.71992 21.5046 7.63708 24.9201C16.4103 20.1764 26.4458 17.3935 37.1124 17.3935C59.9606 17.3935 79.9053 29.7903 90.6351 48.259C98.3353 38.5186 97.7041 24.2243 88.7416 15.1797Z" fill="url(#paint3_linear_1183_5052)"/>
</g>
</g>
<path d="M101.03 85.2885C101.03 84.2628 100.648 83.4295 99.882 82.7885C99.1483 82.1474 98.2072 81.5705 97.0588 81.0577C95.9422 80.5128 94.714 79.9679 93.3741 79.4231C92.0662 78.8462 90.838 78.1571 89.6895 77.3558C88.573 76.5224 87.6319 75.4968 86.8662 74.2788C86.1325 73.0609 85.7656 71.5064 85.7656 69.6154C85.7656 67.9808 86.0368 66.5705 86.5791 65.3846C87.1214 64.1667 87.8871 63.1571 88.876 62.3558C89.8969 61.5545 91.0932 60.9615 92.4649 60.5769C93.8367 60.1923 95.368 60 97.0588 60C99.0047 60 100.839 60.1763 102.562 60.5288C104.284 60.8494 105.704 61.3301 106.821 61.9712L104.763 67.5C104.061 67.0513 103.008 66.6506 101.605 66.2981C100.201 65.9135 98.6857 65.7212 97.0588 65.7212C95.5275 65.7212 94.3471 66.0256 93.5177 66.6346C92.7202 67.2436 92.3214 68.0609 92.3214 69.0865C92.3214 70.0481 92.6883 70.8494 93.422 71.4904C94.1876 72.1314 95.1287 72.7244 96.2453 73.2692C97.3937 73.8141 98.6219 74.375 99.9299 74.9519C101.27 75.5288 102.498 76.234 103.615 77.0673C104.763 77.8686 105.704 78.8782 106.438 80.0962C107.203 81.2821 107.586 82.7724 107.586 84.5673C107.586 86.3622 107.283 87.9167 106.677 89.2308C106.103 90.5128 105.273 91.5865 104.189 92.4519C103.136 93.3173 101.844 93.9583 100.313 94.375C98.8133 94.7917 97.1545 95 95.3361 95C92.9435 95 90.838 94.7756 89.0196 94.3269C87.2012 93.8782 85.8613 93.4295 85 92.9808L87.1055 87.3558C87.4564 87.5481 87.903 87.7564 88.4454 87.9808C89.0196 88.2051 89.6576 88.4135 90.3594 88.6058C91.0613 88.7981 91.795 88.9583 92.5607 89.0865C93.3582 89.2147 94.1717 89.2788 95.0011 89.2788C96.9471 89.2788 98.4305 88.9583 99.4514 88.3173C100.504 87.6442 101.03 86.6346 101.03 85.2885Z" fill="white"/>
<path d="M126.453 94.3269V80.6731C126.453 78.7179 126.182 77.3077 125.64 76.4423C125.097 75.5769 124.108 75.1442 122.673 75.1442C121.62 75.1442 120.647 75.5128 119.754 76.25C118.892 76.9551 118.318 77.8686 118.031 78.9904V94.3269H111.81V60.6731H118.031V72.9808H118.223C118.988 71.9551 119.929 71.1378 121.046 70.5288C122.162 69.9199 123.582 69.6154 125.305 69.6154C126.517 69.6154 127.586 69.7756 128.511 70.0962C129.436 70.4167 130.202 70.9455 130.808 71.6827C131.446 72.4199 131.908 73.4295 132.195 74.7115C132.514 75.9615 132.674 77.516 132.674 79.375V94.3269H126.453Z" fill="white"/>
<path d="M137.742 71.6827C139.019 71.1058 140.534 70.6571 142.288 70.3365C144.043 69.984 145.877 69.8077 147.791 69.8077C149.45 69.8077 150.838 70.016 151.955 70.4327C153.071 70.8173 153.948 71.3782 154.586 72.1154C155.256 72.8526 155.719 73.734 155.974 74.7596C156.261 75.7853 156.405 76.9391 156.405 78.2212C156.405 79.6314 156.357 81.0577 156.261 82.5C156.166 83.9103 156.102 85.3045 156.07 86.6827C156.07 88.0609 156.118 89.4071 156.213 90.7212C156.309 92.0032 156.548 93.2212 156.931 94.375H151.859L150.854 91.0577H150.615C149.977 92.0513 149.083 92.9167 147.935 93.6538C146.818 94.359 145.367 94.7115 143.58 94.7115C142.464 94.7115 141.459 94.5513 140.566 94.2308C139.673 93.8782 138.907 93.3974 138.269 92.7885C137.631 92.1474 137.136 91.4103 136.785 90.5769C136.435 89.7115 136.259 88.75 136.259 87.6923C136.259 86.2179 136.578 84.984 137.216 83.9904C137.886 82.9647 138.827 82.1474 140.039 81.5385C141.284 80.8974 142.751 80.4647 144.442 80.2404C146.164 79.984 148.079 79.9038 150.184 80C150.407 78.2051 150.28 76.9231 149.801 76.1538C149.323 75.3526 148.254 74.9519 146.595 74.9519C145.351 74.9519 144.027 75.0801 142.623 75.3365C141.252 75.5929 140.119 75.9295 139.226 76.3462L137.742 71.6827ZM145.638 89.5673C146.882 89.5673 147.871 89.2949 148.605 88.75C149.339 88.1731 149.881 87.5641 150.232 86.9231V83.7981C149.243 83.7019 148.286 83.6859 147.361 83.75C146.468 83.8141 145.67 83.9583 144.968 84.1827C144.266 84.4071 143.708 84.7276 143.293 85.1442C142.879 85.5609 142.671 86.0897 142.671 86.7308C142.671 87.6282 142.926 88.3333 143.437 88.8462C143.979 89.3269 144.713 89.5673 145.638 89.5673Z" fill="white"/>
<path d="M178.565 92.8365C177.608 93.5417 176.443 94.0705 175.072 94.4231C173.732 94.8077 172.344 95 170.909 95C168.994 95 167.368 94.6955 166.028 94.0865C164.72 93.4776 163.651 92.6282 162.822 91.5385C161.992 90.4167 161.386 89.0705 161.003 87.5C160.652 85.9295 160.477 84.1987 160.477 82.3077C160.477 78.2372 161.386 75.1122 163.204 72.9327C165.023 70.7212 167.671 69.6154 171.148 69.6154C172.902 69.6154 174.306 69.7596 175.359 70.0481C176.443 70.3365 177.416 70.7051 178.278 71.1538L176.794 76.25C176.061 75.8974 175.327 75.625 174.593 75.4327C173.891 75.2404 173.078 75.1442 172.153 75.1442C170.43 75.1442 169.122 75.7212 168.229 76.875C167.336 77.9968 166.889 79.8077 166.889 82.3077C166.889 83.3333 167.001 84.2788 167.224 85.1442C167.447 86.0096 167.782 86.7628 168.229 87.4038C168.675 88.0449 169.25 88.5577 169.952 88.9423C170.685 89.2949 171.531 89.4712 172.488 89.4712C173.54 89.4712 174.434 89.3429 175.167 89.0865C175.901 88.7981 176.555 88.4615 177.129 88.0769L178.565 92.8365Z" fill="white"/>
<path d="M190.223 84.375H188.548V94.3269H182.327V60.6731H188.548V80.5288L189.983 79.8558L195.438 70.2885H202.281L196.539 79.4231L194.099 81.25L196.73 83.125L203.19 94.3269H196.061L190.223 84.375Z" fill="white"/>
<path d="M224.413 92.2596C223.456 93.0288 222.148 93.6859 220.489 94.2308C218.862 94.7436 217.123 95 215.273 95C211.413 95 208.589 93.8782 206.803 91.6346C205.016 89.359 204.123 86.25 204.123 82.3077C204.123 78.0769 205.128 74.9038 207.138 72.7885C209.148 70.6731 211.971 69.6154 215.608 69.6154C216.82 69.6154 218 69.7756 219.149 70.0962C220.297 70.4167 221.318 70.9455 222.211 71.6827C223.105 72.4199 223.822 73.4135 224.365 74.6635C224.907 75.9135 225.178 77.4679 225.178 79.3269C225.178 80 225.13 80.7212 225.035 81.4904C224.971 82.2596 224.859 83.0609 224.7 83.8942H210.344C210.44 85.9135 210.95 87.4359 211.875 88.4615C212.832 89.4872 214.364 90 216.469 90C217.777 90 218.941 89.8077 219.962 89.4231C221.015 89.0064 221.813 88.5897 222.355 88.1731L224.413 92.2596ZM215.512 74.6154C213.885 74.6154 212.673 75.1122 211.875 76.1058C211.11 77.0673 210.647 78.3654 210.488 80H219.388C219.516 78.2692 219.245 76.9391 218.575 76.0096C217.937 75.0801 216.916 74.6154 215.512 74.6154Z" fill="white"/>
<path d="M246.278 92.8365C245.321 93.5417 244.156 94.0705 242.784 94.4231C241.445 94.8077 240.057 95 238.621 95C236.707 95 235.08 94.6955 233.74 94.0865C232.432 93.4776 231.364 92.6282 230.534 91.5385C229.705 90.4167 229.099 89.0705 228.716 87.5C228.365 85.9295 228.19 84.1987 228.19 82.3077C228.19 78.2372 229.099 75.1122 230.917 72.9327C232.736 70.7212 235.383 69.6154 238.861 69.6154C240.615 69.6154 242.019 69.7596 243.072 70.0481C244.156 70.3365 245.129 70.7051 245.991 71.1538L244.507 76.25C243.773 75.8974 243.04 75.625 242.306 75.4327C241.604 75.2404 240.791 75.1442 239.865 75.1442C238.143 75.1442 236.835 75.7212 235.942 76.875C235.048 77.9968 234.602 79.8077 234.602 82.3077C234.602 83.3333 234.713 84.2788 234.937 85.1442C235.16 86.0096 235.495 86.7628 235.942 87.4038C236.388 88.0449 236.962 88.5577 237.664 88.9423C238.398 89.2949 239.243 89.4712 240.2 89.4712C241.253 89.4712 242.146 89.3429 242.88 89.0865C243.614 88.7981 244.268 88.4615 244.842 88.0769L246.278 92.8365Z" fill="white"/>
<path d="M248.097 82.3077C248.097 78.2372 249.086 75.1122 251.064 72.9327C253.042 70.7212 255.817 69.6154 259.39 69.6154C261.304 69.6154 262.963 69.9199 264.367 70.5288C265.77 71.1378 266.935 72.0032 267.86 73.125C268.785 74.2147 269.471 75.5449 269.917 77.1154C270.396 78.6859 270.635 80.4167 270.635 82.3077C270.635 86.3782 269.646 89.5192 267.668 91.7308C265.722 93.9103 262.963 95 259.39 95C257.476 95 255.817 94.6955 254.413 94.0865C253.01 93.4776 251.829 92.6282 250.872 91.5385C249.947 90.4167 249.245 89.0705 248.767 87.5C248.32 85.9295 248.097 84.1987 248.097 82.3077ZM254.509 82.3077C254.509 83.3654 254.605 84.3429 254.796 85.2404C254.988 86.1378 255.275 86.9231 255.657 87.5962C256.04 88.2692 256.535 88.7981 257.141 89.1827C257.779 89.5353 258.529 89.7115 259.39 89.7115C261.017 89.7115 262.229 89.1186 263.027 87.9327C263.824 86.7468 264.223 84.8718 264.223 82.3077C264.223 80.0962 263.856 78.3173 263.122 76.9712C262.389 75.5929 261.145 74.9038 259.39 74.9038C257.859 74.9038 256.662 75.4808 255.801 76.6346C254.94 77.7885 254.509 79.6795 254.509 82.3077Z" fill="white"/>
<path d="M275.474 70.2885H281.694V94.3269H275.474V70.2885ZM274.564 63.5096C274.564 62.5801 274.899 61.7949 275.569 61.1538C276.271 60.4808 277.228 60.1442 278.44 60.1442C279.653 60.1442 280.626 60.4808 281.359 61.1538C282.125 61.7949 282.508 62.5801 282.508 63.5096C282.508 64.4391 282.125 65.2244 281.359 65.8654C280.626 66.4744 279.653 66.7788 278.44 66.7788C277.228 66.7788 276.271 66.4744 275.569 65.8654C274.899 65.2244 274.564 64.4391 274.564 63.5096Z" fill="white"/>
<path d="M302.441 94.3269V80.6731C302.441 78.7179 302.154 77.3077 301.58 76.4423C301.037 75.5769 300.096 75.1442 298.756 75.1442C297.576 75.1442 296.571 75.4968 295.742 76.2019C294.944 76.875 294.37 77.7244 294.019 78.75V94.3269H287.798V70.2885H292.727L293.445 73.4615H293.636C294.37 72.4359 295.343 71.5385 296.555 70.7692C297.767 70 299.33 69.6154 301.245 69.6154C302.425 69.6154 303.478 69.7756 304.403 70.0962C305.328 70.4167 306.11 70.9455 306.748 71.6827C307.386 72.4199 307.864 73.4295 308.183 74.7115C308.502 75.9615 308.662 77.516 308.662 79.375V94.3269H302.441Z" fill="white"/>
<path d="M323.779 87.6923C323.779 87.0513 323.508 86.5385 322.966 86.1538C322.423 85.7692 321.753 85.4167 320.956 85.0962C320.158 84.7756 319.281 84.4551 318.324 84.1346C317.367 83.782 316.49 83.3173 315.692 82.7404C314.895 82.1314 314.225 81.3782 313.682 80.4808C313.14 79.5513 312.869 78.3654 312.869 76.9231C312.869 74.5513 313.571 72.7404 314.974 71.4904C316.378 70.2404 318.404 69.6154 321.052 69.6154C322.87 69.6154 324.513 69.8077 325.98 70.1923C327.448 70.5769 328.596 71.0096 329.426 71.4904L328.038 76.0096C327.304 75.7212 326.379 75.4167 325.263 75.0962C324.146 74.7756 323.014 74.6154 321.865 74.6154C320.015 74.6154 319.09 75.3365 319.09 76.7788C319.09 77.3558 319.361 77.8205 319.903 78.1731C320.446 78.5256 321.115 78.8622 321.913 79.1827C322.711 79.4712 323.588 79.7917 324.545 80.1442C325.502 80.4968 326.379 80.9615 327.177 81.5385C327.974 82.0833 328.644 82.8045 329.187 83.7019C329.729 84.5994 330 85.7532 330 87.1635C330 89.5994 329.218 91.5224 327.655 92.9327C326.124 94.3109 323.811 95 320.717 95C319.026 95 317.431 94.7756 315.931 94.3269C314.464 93.9103 313.268 93.4135 312.343 92.8365L314.065 88.1731C314.799 88.5897 315.772 89.0064 316.984 89.4231C318.196 89.8077 319.441 90 320.717 90C321.642 90 322.376 89.8237 322.918 89.4712C323.492 89.1186 323.779 88.5256 323.779 87.6923Z" fill="white"/>
</g>
<defs>
<linearGradient id="paint0_linear_1183_5052" x1="47.9921" y1="0.00787354" x2="47.9921" y2="92.2486" gradientUnits="userSpaceOnUse">
<stop stop-color="#B8E6F5"/>
<stop offset="0.390625" stop-color="#C8EDCF"/>
<stop offset="0.604167" stop-color="#E3F6A2"/>
<stop offset="0.911458" stop-color="#B8E6F5"/>
</linearGradient>
<linearGradient id="paint1_linear_1183_5052" x1="59.0137" y1="63.249" x2="59.0137" y2="95" gradientUnits="userSpaceOnUse">
<stop stop-color="#B8E6F5"/>
<stop offset="0.390625" stop-color="#C8EDCF"/>
<stop offset="0.604167" stop-color="#E3F6A2"/>
<stop offset="0.911458" stop-color="#B8E6F5"/>
</linearGradient>
<linearGradient id="paint2_linear_1183_5052" x1="7.60887" y1="24.1288" x2="95.9855" y2="24.1288" gradientUnits="userSpaceOnUse">
<stop offset="0.2757"/>
<stop offset="1" stop-color="white"/>
</linearGradient>
<linearGradient id="paint3_linear_1183_5052" x1="7.60887" y1="24.1288" x2="95.9855" y2="24.1288" gradientUnits="userSpaceOnUse">
<stop offset="0.2757" stop-color="white"/>
<stop offset="1" stop-color="white"/>
</linearGradient>
<clipPath id="clip0_1183_5052">
<rect width="330" height="95" fill="white"/>
</clipPath>
</defs>
</svg>
