<svg id="Layer_1" data-name="Layer 1" xmlns="http://www.w3.org/2000/svg" xmlns:xlink="http://www.w3.org/1999/xlink" viewBox="0 0 133 33"><defs><style>.cls-1{fill:url(#linear-gradient);}.cls-2{fill:url(#linear-gradient-2);}.cls-3{fill:#fff;}</style><linearGradient id="linear-gradient" x1="5.11" y1="16.93" x2="28" y2="16.93" gradientUnits="userSpaceOnUse"><stop offset="0.82" stop-color="#ef94ff"/><stop offset="1" stop-color="#510763"/></linearGradient><linearGradient id="linear-gradient-2" x1="7.97" y1="17.1" x2="25.08" y2="17.1" gradientUnits="userSpaceOnUse"><stop offset="0" stop-color="#ff3fe5"/><stop offset="1" stop-color="#510763"/></linearGradient></defs><title>site_smart_logo_svg</title><path class="cls-1" d="M5.11,16.93V29.86H28V4H5.11Zm22.25,0,0,12.31H5.72l0-12.31V4.64H27.36Z"/><path class="cls-2" d="M15.87,5.6a8.18,8.18,0,0,0-6.4,4A5.56,5.56,0,0,0,8.8,12.5a5.69,5.69,0,0,0,.6,2.8,4.67,4.67,0,0,0,1,1.42c1.2,1.24,1.62,1.47,5.7,3.15a13.19,13.19,0,0,1,2.49,1.18A1.19,1.19,0,0,1,19,22a1.25,1.25,0,0,1-.32.92c-.7.81-2.69.86-4.56.14a12.35,12.35,0,0,1-2.65-1.49l-.19-.15-1.67,2c-.92,1.1-1.67,2-1.67,2a4.56,4.56,0,0,0,.47.4,13,13,0,0,0,8,2.77,9.86,9.86,0,0,0,4.73-1,6.93,6.93,0,0,0,3.87-5,9.82,9.82,0,0,0,0-2.4,5.66,5.66,0,0,0-2.59-4A16,16,0,0,0,19,14.74c-3-1.16-3.48-1.39-3.85-1.72a1.16,1.16,0,0,1-.41-.92,1.31,1.31,0,0,1,.46-1A3.92,3.92,0,0,1,18,10.7a7.77,7.77,0,0,1,3,1.2l.52.33.1-.13,1.47-1.85L24.5,8.53l-.28-.25a11.11,11.11,0,0,0-2.56-1.71,12.75,12.75,0,0,0-3-.9A14.84,14.84,0,0,0,15.87,5.6Z"/><path class="cls-3" d="M34.05,13.38a2,2,0,0,0-1,3.32,7.17,7.17,0,0,0,1.3.68c1.06.44,1.26.63,1,1s-.9.31-1.64-.05L33.19,18l-.46.52a1.93,1.93,0,0,0-.44.63,3.17,3.17,0,0,0,.77.48,2.66,2.66,0,0,0,1.65.37A2.44,2.44,0,0,0,36,19.8a2,2,0,0,0,1-2.66c-.23-.5-.7-.82-1.86-1.25-.85-.32-1-.44-1-.71,0-.45.9-.55,1.61-.19a1.59,1.59,0,0,0,.46.18l.42-.52.4-.5-.33-.28A3.41,3.41,0,0,0,34.05,13.38Z"/><path class="cls-3" d="M39.8,16.66V20h1.63l-.06-1.63c0-.88-.1-1.86-.13-2.15-.05-.45,0-.29.48,1L42.4,19c.13.34.18.37.61.4l.47,0,.63-1.79c.35-1,.68-1.84.73-1.89s.07,0,0,.16a20.83,20.83,0,0,0-.14,2.15L44.67,20h1.52v-6.6H44.4l-.13.34c-.07.19-.36,1-.66,1.89s-.54,1.55-.56,1.58-.09-.15-.16-.37-.36-1.09-.66-1.93l-.54-1.51H39.8Z"/><path class="cls-3" d="M50.27,13.48c0,.07-.46,1.5-1,3.17s-.94,3.1-1,3.16.18.14.84.14h.89l.13-.69.13-.7,1,0,1,0,.15.66.15.67h.9c.8,0,.89,0,.85-.19s-.48-1.59-1-3.29l-.95-3.12h-1C50.62,13.36,50.3,13.4,50.27,13.48Zm1.37,2.42c.15.67.28,1.22.28,1.25a2.17,2.17,0,0,1-.59,0c-.32,0-.59,0-.59-.1s.1-.52.21-1l.28-1.19c0-.14.07-.23.1-.21S51.5,15.23,51.64,15.9Z"/><path class="cls-3" d="M56.23,16.66V20h1.7V17.72h.35c.33,0,.36,0,.9,1.12L59.75,20h1.92l-.45-.83-.69-1.23-.24-.43L60.7,17a2.15,2.15,0,0,0-.19-3.2,5.16,5.16,0,0,0-2.84-.46H56.23ZM59.48,15a1,1,0,0,1,.15.54c0,.51-.4.79-1.13.79h-.57V14.72l.7,0C59.16,14.79,59.38,14.86,59.48,15Z"/><path class="cls-3" d="M63.4,14.1v.75h1.7V20h1.7V14.85h1.81V13.36H63.4Z"/><path class="cls-3" d="M73.69,14.17v.75h1.7V20h1.7V14.92h1.81V13.43H73.69Z"/><path class="cls-3" d="M81.19,16.66V20h1.7V17.72l.34,0c.31,0,.38.12.92,1.12l.57,1.1h1.88l-.69-1.22c-.37-.67-.68-1.25-.68-1.26a4.43,4.43,0,0,1,.43-.48,2,2,0,0,0,.51-1.81,1.61,1.61,0,0,0-1-1.53c-.45-.21-.68-.24-2.23-.28l-1.74,0Zm3-1.79a1.15,1.15,0,0,1,.31.24.84.84,0,0,1-.18,1c-.21.22-.36.27-.85.27h-.59v-1.6h.54A2.22,2.22,0,0,1,84.2,14.87Z"/><path class="cls-3" d="M90.59,14.28c-.16.52-.62,2-1,3.3L88.85,20h1.76l.15-.67.15-.66,1,0,1,0,.13.7.13.69H94a2.29,2.29,0,0,0,.89-.09s-.44-1.52-1-3.3l-1-3.22H90.87Zm1.59,1.56c.16.63.28,1.19.28,1.25s-.27.1-.59.1a2.17,2.17,0,0,1-.59,0s.12-.56.27-1.21.27-1.21.27-1.26C91.81,14.42,91.94,14.83,92.18,15.85Z"/><path class="cls-3" d="M114,13.36A3.21,3.21,0,0,0,112,15.48a5.25,5.25,0,0,0,.13,2.7,3.07,3.07,0,0,0,4.25,1.45c.83-.45.84-.49.33-1.1l-.45-.53-.39.26c-1.1.76-2.25-.07-2.25-1.61s1.12-2.41,2.19-1.75l.34.22.42-.49a2.05,2.05,0,0,0,.4-.62,2,2,0,0,0-.67-.47A2.69,2.69,0,0,0,114,13.36Z"/><path class="cls-3" d="M96.19,16.66V20l1.52,0c1.43,0,1.54-.06,2.15-.36a2.85,2.85,0,0,0,1.59-2.93,3.12,3.12,0,0,0-.69-2.28c-.66-.75-1.25-.95-3-1l-1.52-.05ZM99.11,15a1.8,1.8,0,0,1,.6,1.62c0,1.16-.45,1.8-1.36,1.92l-.45.06v-3.9l.48.06A2.48,2.48,0,0,1,99.11,15Z"/><path class="cls-3" d="M102.9,16.66V20h4.36V18.47H104.6l0-.56,0-.55,1.1,0,1.09,0V15.92l-1.09,0-1.1,0,0-.51,0-.5h2.57V13.36H102.9Z"/><path class="cls-3" d="M117.68,16.61v3.3h1.7V17.46h2.13V16.08h-2.13V14.8h2.56V13.31h-4.26Z"/><path class="cls-3" d="M122.44,16.61v3.32l1.52,0c1.43,0,1.54-.06,2.15-.36a2.85,2.85,0,0,0,1.59-2.93,3.12,3.12,0,0,0-.69-2.28c-.66-.75-1.25-.95-3-1l-1.52-.05ZM125.35,15a1.8,1.8,0,0,1,.6,1.62c0,1.16-.45,1.8-1.36,1.92l-.45.06v-3.9l.48.06A2.48,2.48,0,0,1,125.35,15Z"/></svg>