<svg width="384" height="156" viewBox="0 0 384 156" fill="none" xmlns="http://www.w3.org/2000/svg">
<path d="M169.168 66.672C166.416 66.672 163.76 66.336 161.2 65.664C158.672 64.96 156.608 64.064 155.008 62.976L158.128 55.968C159.632 56.928 161.36 57.728 163.312 58.368C165.296 58.976 167.264 59.28 169.216 59.28C170.528 59.28 171.584 59.168 172.384 58.944C173.184 58.688 173.76 58.368 174.112 57.984C174.496 57.568 174.688 57.088 174.688 56.544C174.688 55.776 174.336 55.168 173.632 54.72C172.928 54.272 172.016 53.904 170.896 53.616C169.776 53.328 168.528 53.04 167.152 52.752C165.808 52.464 164.448 52.096 163.072 51.648C161.728 51.2 160.496 50.624 159.376 49.92C158.256 49.184 157.344 48.24 156.64 47.088C155.936 45.904 155.584 44.416 155.584 42.624C155.584 40.608 156.128 38.784 157.216 37.152C158.336 35.52 160 34.208 162.208 33.216C164.416 32.224 167.168 31.728 170.464 31.728C172.672 31.728 174.832 31.984 176.944 32.496C179.088 32.976 180.992 33.696 182.656 34.656L179.728 41.712C178.128 40.848 176.544 40.208 174.976 39.792C173.408 39.344 171.888 39.12 170.416 39.12C169.104 39.12 168.048 39.264 167.248 39.552C166.448 39.808 165.872 40.16 165.52 40.608C165.168 41.056 164.992 41.568 164.992 42.144C164.992 42.88 165.328 43.472 166 43.92C166.704 44.336 167.616 44.688 168.736 44.976C169.888 45.232 171.136 45.504 172.48 45.792C173.856 46.08 175.216 46.448 176.56 46.896C177.936 47.312 179.184 47.888 180.304 48.624C181.424 49.328 182.32 50.272 182.992 51.456C183.696 52.608 184.048 54.064 184.048 55.824C184.048 57.776 183.488 59.584 182.368 61.248C181.28 62.88 179.632 64.192 177.424 65.184C175.248 66.176 172.496 66.672 169.168 66.672ZM201.062 66.432C198.214 66.432 195.686 65.856 193.478 64.704C191.27 63.552 189.526 61.968 188.246 59.952C186.998 57.904 186.374 55.568 186.374 52.944C186.374 50.32 186.998 48 188.246 45.984C189.526 43.968 191.27 42.4 193.478 41.28C195.686 40.128 198.214 39.552 201.062 39.552C203.91 39.552 206.438 40.128 208.646 41.28C210.886 42.4 212.63 43.968 213.878 45.984C215.126 48 215.75 50.32 215.75 52.944C215.75 55.568 215.126 57.904 213.878 59.952C212.63 61.968 210.886 63.552 208.646 64.704C206.438 65.856 203.91 66.432 201.062 66.432ZM201.062 59.184C202.118 59.184 203.046 58.944 203.846 58.464C204.678 57.984 205.334 57.28 205.814 56.352C206.294 55.392 206.534 54.256 206.534 52.944C206.534 51.632 206.294 50.528 205.814 49.632C205.334 48.704 204.678 48 203.846 47.52C203.046 47.04 202.118 46.8 201.062 46.8C200.038 46.8 199.11 47.04 198.278 47.52C197.478 48 196.822 48.704 196.31 49.632C195.83 50.528 195.59 51.632 195.59 52.944C195.59 54.256 195.83 55.392 196.31 56.352C196.822 57.28 197.478 57.984 198.278 58.464C199.11 58.944 200.038 59.184 201.062 59.184ZM219.975 66V30.384H229.095V66H219.975ZM250.91 66V61.152L250.286 59.952V51.024C250.286 49.584 249.838 48.48 248.942 47.712C248.078 46.912 246.686 46.512 244.766 46.512C243.518 46.512 242.254 46.72 240.974 47.136C239.694 47.52 238.606 48.064 237.71 48.768L234.638 42.576C236.11 41.616 237.87 40.88 239.918 40.368C241.998 39.824 244.062 39.552 246.11 39.552C250.334 39.552 253.598 40.528 255.902 42.48C258.238 44.4 259.406 47.424 259.406 51.552V66H250.91ZM243.23 66.432C241.15 66.432 239.39 66.08 237.95 65.376C236.51 64.672 235.406 63.712 234.638 62.496C233.902 61.28 233.534 59.92 233.534 58.416C233.534 56.816 233.934 55.44 234.734 54.288C235.566 53.104 236.83 52.208 238.526 51.6C240.222 50.96 242.414 50.64 245.102 50.64H251.246V55.392H246.35C244.878 55.392 243.838 55.632 243.23 56.112C242.654 56.592 242.366 57.232 242.366 58.032C242.366 58.832 242.67 59.472 243.278 59.952C243.886 60.432 244.718 60.672 245.774 60.672C246.766 60.672 247.662 60.432 248.462 59.952C249.294 59.44 249.902 58.672 250.286 57.648L251.534 61.008C251.054 62.8 250.11 64.16 248.702 65.088C247.326 65.984 245.502 66.432 243.23 66.432ZM282.106 39.552C284.122 39.552 285.946 39.968 287.578 40.8C289.21 41.6 290.49 42.848 291.418 44.544C292.378 46.24 292.858 48.432 292.858 51.12V66H283.738V52.608C283.738 50.752 283.354 49.408 282.586 48.576C281.85 47.712 280.81 47.28 279.466 47.28C278.506 47.28 277.626 47.504 276.826 47.952C276.026 48.368 275.402 49.024 274.954 49.92C274.506 50.816 274.282 51.984 274.282 53.424V66H265.162V39.984H273.85V47.376L272.17 45.216C273.162 43.328 274.522 41.92 276.25 40.992C277.978 40.032 279.93 39.552 282.106 39.552ZM314.472 66V61.152L313.848 59.952V51.024C313.848 49.584 313.4 48.48 312.504 47.712C311.64 46.912 310.248 46.512 308.328 46.512C307.08 46.512 305.816 46.72 304.536 47.136C303.256 47.52 302.168 48.064 301.272 48.768L298.2 42.576C299.672 41.616 301.432 40.88 303.48 40.368C305.56 39.824 307.624 39.552 309.672 39.552C313.896 39.552 317.16 40.528 319.464 42.48C321.8 44.4 322.968 47.424 322.968 51.552V66H314.472ZM306.792 66.432C304.712 66.432 302.952 66.08 301.512 65.376C300.072 64.672 298.968 63.712 298.2 62.496C297.464 61.28 297.096 59.92 297.096 58.416C297.096 56.816 297.496 55.44 298.296 54.288C299.128 53.104 300.392 52.208 302.088 51.6C303.784 50.96 305.976 50.64 308.664 50.64H314.808V55.392H309.912C308.44 55.392 307.4 55.632 306.792 56.112C306.216 56.592 305.928 57.232 305.928 58.032C305.928 58.832 306.232 59.472 306.84 59.952C307.448 60.432 308.28 60.672 309.336 60.672C310.328 60.672 311.224 60.432 312.024 59.952C312.856 59.44 313.464 58.672 313.848 57.648L315.096 61.008C314.616 62.8 313.672 64.16 312.264 65.088C310.888 65.984 309.064 66.432 306.792 66.432ZM157.36 117V83.4H165.184L179.104 106.248H174.976L188.512 83.4H196.336L196.432 117H187.696L187.6 96.696H189.088L178.96 113.688H174.736L164.32 96.696H166.144V117H157.36ZM218.613 117V112.152L217.989 110.952V102.024C217.989 100.584 217.541 99.48 216.645 98.712C215.781 97.912 214.389 97.512 212.469 97.512C211.221 97.512 209.957 97.72 208.677 98.136C207.397 98.52 206.309 99.064 205.413 99.768L202.341 93.576C203.813 92.616 205.573 91.88 207.621 91.368C209.701 90.824 211.765 90.552 213.813 90.552C218.037 90.552 221.301 91.528 223.605 93.48C225.941 95.4 227.109 98.424 227.109 102.552V117H218.613ZM210.933 117.432C208.853 117.432 207.093 117.08 205.653 116.376C204.213 115.672 203.109 114.712 202.341 113.496C201.605 112.28 201.237 110.92 201.237 109.416C201.237 107.816 201.637 106.44 202.437 105.288C203.269 104.104 204.533 103.208 206.229 102.6C207.925 101.96 210.117 101.64 212.805 101.64H218.949V106.392H214.053C212.581 106.392 211.541 106.632 210.933 107.112C210.357 107.592 210.069 108.232 210.069 109.032C210.069 109.832 210.373 110.472 210.981 110.952C211.589 111.432 212.421 111.672 213.477 111.672C214.469 111.672 215.365 111.432 216.165 110.952C216.997 110.44 217.605 109.672 217.989 108.648L219.237 112.008C218.757 113.8 217.813 115.16 216.405 116.088C215.029 116.984 213.205 117.432 210.933 117.432ZM232.866 117V90.984H241.554V98.568L240.258 96.408C241.026 94.456 242.274 93 244.002 92.04C245.73 91.048 247.826 90.552 250.29 90.552V98.76C249.874 98.696 249.506 98.664 249.186 98.664C248.898 98.632 248.578 98.616 248.226 98.616C246.37 98.616 244.866 99.128 243.714 100.152C242.562 101.144 241.986 102.776 241.986 105.048V117H232.866ZM261.637 112.2L261.877 101.304L272.485 90.984H283.285L271.525 103.128L266.869 106.872L261.637 112.2ZM254.053 117V81.384H263.173V117H254.053ZM273.157 117L265.189 107.016L270.853 100.008L284.197 117H273.157ZM299.419 117.432C296.347 117.432 293.659 116.856 291.355 115.704C289.083 114.52 287.307 112.92 286.027 110.904C284.779 108.856 284.155 106.536 284.155 103.944C284.155 101.352 284.763 99.048 285.979 97.032C287.227 94.984 288.939 93.4 291.115 92.28C293.291 91.128 295.739 90.552 298.459 90.552C301.019 90.552 303.355 91.08 305.467 92.136C307.579 93.16 309.259 94.68 310.507 96.696C311.755 98.712 312.379 101.16 312.379 104.04C312.379 104.36 312.363 104.728 312.331 105.144C312.299 105.56 312.267 105.944 312.235 106.296H291.643V101.496H307.387L303.931 102.84C303.963 101.656 303.739 100.632 303.259 99.768C302.811 98.904 302.171 98.232 301.339 97.752C300.539 97.272 299.595 97.032 298.507 97.032C297.419 97.032 296.459 97.272 295.627 97.752C294.827 98.232 294.203 98.92 293.755 99.816C293.307 100.68 293.083 101.704 293.083 102.888V104.28C293.083 105.56 293.339 106.664 293.851 107.592C294.395 108.52 295.163 109.24 296.155 109.752C297.147 110.232 298.331 110.472 299.707 110.472C300.987 110.472 302.075 110.296 302.971 109.944C303.899 109.56 304.811 108.984 305.707 108.216L310.507 113.208C309.259 114.584 307.723 115.64 305.899 116.376C304.075 117.08 301.915 117.432 299.419 117.432ZM328.2 117.432C324.872 117.432 322.28 116.616 320.424 114.984C318.568 113.32 317.64 110.824 317.64 107.496V85.176H326.76V107.4C326.76 108.328 327.016 109.064 327.528 109.608C328.04 110.12 328.696 110.376 329.496 110.376C330.584 110.376 331.512 110.104 332.28 109.56L334.536 115.944C333.768 116.456 332.824 116.824 331.704 117.048C330.584 117.304 329.416 117.432 328.2 117.432ZM313.848 98.76V91.944H332.712V98.76H313.848ZM347.509 117.432C345.301 117.432 343.141 117.176 341.029 116.664C338.949 116.152 337.269 115.512 335.989 114.744L338.725 108.504C339.941 109.24 341.365 109.832 342.997 110.28C344.629 110.696 346.229 110.904 347.797 110.904C349.333 110.904 350.389 110.744 350.965 110.424C351.573 110.104 351.877 109.672 351.877 109.128C351.877 108.616 351.589 108.248 351.013 108.024C350.469 107.768 349.733 107.576 348.805 107.448C347.909 107.32 346.917 107.176 345.829 107.016C344.741 106.856 343.637 106.648 342.517 106.392C341.429 106.104 340.421 105.688 339.493 105.144C338.597 104.568 337.877 103.8 337.333 102.84C336.789 101.88 336.517 100.664 336.517 99.192C336.517 97.528 336.997 96.056 337.957 94.776C338.949 93.464 340.389 92.44 342.277 91.704C344.165 90.936 346.469 90.552 349.189 90.552C351.013 90.552 352.853 90.744 354.709 91.128C356.597 91.48 358.181 92.024 359.461 92.76L356.725 98.952C355.445 98.216 354.165 97.72 352.885 97.464C351.605 97.176 350.389 97.032 349.237 97.032C347.701 97.032 346.613 97.208 345.973 97.56C345.365 97.912 345.061 98.344 345.061 98.856C345.061 99.368 345.333 99.768 345.877 100.056C346.421 100.312 347.141 100.52 348.037 100.68C348.965 100.808 349.973 100.952 351.061 101.112C352.149 101.24 353.237 101.448 354.325 101.736C355.445 102.024 356.453 102.456 357.349 103.032C358.277 103.576 359.013 104.328 359.557 105.288C360.101 106.216 360.373 107.416 360.373 108.888C360.373 110.488 359.877 111.928 358.885 113.208C357.925 114.488 356.485 115.512 354.565 116.28C352.677 117.048 350.325 117.432 347.509 117.432Z" fill="url(#paint0_linear_875_7158)"/>
<path d="M1 77.625V50.5094C1 43.6453 4.70237 37.3148 10.685 33.9495L59.685 6.38701C65.4689 3.13359 72.5311 3.13359 78.315 6.38702L127.315 33.9495C133.298 37.3148 137 43.6453 137 50.5094V77.625V104.741C137 111.605 133.298 117.935 127.315 121.3L78.315 148.863C72.5311 152.116 65.4689 152.116 59.685 148.863L10.685 121.3C4.70237 117.935 1 111.605 1 104.741V77.625Z" stroke="#1F1F1F" stroke-width="2"/>
<path d="M5.31982 53.2802C5.31982 46.0547 9.21705 39.391 15.5146 35.8486L59.3524 11.1899C65.4407 7.76522 72.8746 7.76523 78.9629 11.1899L122.801 35.8486C129.098 39.391 132.995 46.0547 132.995 53.2802V77.492V101.704C132.995 108.929 129.098 115.593 122.801 119.135L78.9628 143.794C72.8746 147.219 65.4407 147.219 59.3524 143.794L15.5146 119.135C9.21705 115.593 5.31982 108.929 5.31982 101.704V77.492V53.2802Z" fill="url(#paint1_linear_875_7158)"/>
<g filter="url(#filter0_iiii_875_7158)">
<path d="M11.3489 56.8267C11.3489 49.6013 15.2462 42.9376 21.5437 39.3952L59.0766 18.283C65.1648 14.8584 72.5987 14.8584 78.687 18.283L116.22 39.3952C122.517 42.9376 126.415 49.6013 126.415 56.8268V77.492V98.1573C126.415 105.383 122.517 112.046 116.22 115.589L78.687 136.701C72.5987 140.126 65.1648 140.126 59.0766 136.701L21.5437 115.589C15.2462 112.046 11.3489 105.383 11.3489 98.1573V77.492V56.8267Z" fill="#35393A"/>
</g>
<path d="M14.5408 58.6001C14.5408 51.3747 18.4381 44.711 24.7356 41.1686L59.116 21.8296C65.2042 18.405 72.6381 18.405 78.7264 21.8296L113.107 41.1686C119.404 44.711 123.302 51.3746 123.302 58.6001V77.4921V96.3841C123.302 103.61 119.404 110.273 113.107 113.816L78.7264 133.155C72.6381 136.579 65.2042 136.579 59.116 133.155L24.7356 113.816C18.4381 110.273 14.5408 103.61 14.5408 96.3841V77.4921V58.6001Z" fill="url(#paint2_linear_875_7158)"/>
<g filter="url(#filter1_d_875_7158)">
<path d="M39.8423 45.2876C40.2186 44.9032 40.7338 44.6865 41.2717 44.6865H108.796C110.608 44.6865 111.486 46.9029 110.166 48.1438L96.6888 60.8125C96.3179 61.1612 95.828 61.3553 95.3189 61.3553H28.8724C27.101 61.3553 26.204 59.2224 27.4431 57.9564L39.8423 45.2876Z" fill="url(#paint3_linear_875_7158)"/>
</g>
<g filter="url(#filter2_d_875_7158)">
<path d="M98.1183 70.1134C97.742 69.729 97.2268 69.5123 96.6889 69.5123H29.1642C27.3525 69.5123 26.4743 71.7287 27.7944 72.9696L41.2718 85.6383C41.6427 85.987 42.1326 86.1811 42.6417 86.1811H109.088C110.86 86.1811 111.757 84.0482 110.517 82.7822L98.1183 70.1134Z" fill="url(#paint4_linear_875_7158)"/>
</g>
<g filter="url(#filter3_d_875_7158)">
<path d="M39.8423 94.5846C40.2186 94.2002 40.7338 93.9835 41.2717 93.9835H108.796C110.608 93.9835 111.486 96.1999 110.166 97.4408L96.6888 110.11C96.3179 110.458 95.828 110.652 95.3189 110.652H28.8724C27.101 110.652 26.204 108.519 27.4431 107.253L39.8423 94.5846Z" fill="url(#paint5_linear_875_7158)"/>
</g>
<defs>
<filter id="filter0_iiii_875_7158" x="11.3489" y="11.7145" width="119.066" height="131.555" filterUnits="userSpaceOnUse" color-interpolation-filters="sRGB">
<feFlood flood-opacity="0" result="BackgroundImageFix"/>
<feBlend mode="normal" in="SourceGraphic" in2="BackgroundImageFix" result="shape"/>
<feColorMatrix in="SourceAlpha" type="matrix" values="0 0 0 0 0 0 0 0 0 0 0 0 0 0 0 0 0 0 127 0" result="hardAlpha"/>
<feOffset dy="4"/>
<feGaussianBlur stdDeviation="2"/>
<feComposite in2="hardAlpha" operator="arithmetic" k2="-1" k3="1"/>
<feColorMatrix type="matrix" values="0 0 0 0 0 0 0 0 0 0 0 0 0 0 0 0 0 0 0.25 0"/>
<feBlend mode="normal" in2="shape" result="effect1_innerShadow_875_7158"/>
<feColorMatrix in="SourceAlpha" type="matrix" values="0 0 0 0 0 0 0 0 0 0 0 0 0 0 0 0 0 0 127 0" result="hardAlpha"/>
<feOffset dx="4"/>
<feGaussianBlur stdDeviation="2"/>
<feComposite in2="hardAlpha" operator="arithmetic" k2="-1" k3="1"/>
<feColorMatrix type="matrix" values="0 0 0 0 0 0 0 0 0 0 0 0 0 0 0 0 0 0 0.25 0"/>
<feBlend mode="normal" in2="effect1_innerShadow_875_7158" result="effect2_innerShadow_875_7158"/>
<feColorMatrix in="SourceAlpha" type="matrix" values="0 0 0 0 0 0 0 0 0 0 0 0 0 0 0 0 0 0 127 0" result="hardAlpha"/>
<feOffset dy="-4"/>
<feGaussianBlur stdDeviation="2"/>
<feComposite in2="hardAlpha" operator="arithmetic" k2="-1" k3="1"/>
<feColorMatrix type="matrix" values="0 0 0 0 0 0 0 0 0 0 0 0 0 0 0 0 0 0 0.25 0"/>
<feBlend mode="normal" in2="effect2_innerShadow_875_7158" result="effect3_innerShadow_875_7158"/>
<feColorMatrix in="SourceAlpha" type="matrix" values="0 0 0 0 0 0 0 0 0 0 0 0 0 0 0 0 0 0 127 0" result="hardAlpha"/>
<feOffset dx="4"/>
<feGaussianBlur stdDeviation="2"/>
<feComposite in2="hardAlpha" operator="arithmetic" k2="-1" k3="1"/>
<feColorMatrix type="matrix" values="0 0 0 0 0 0 0 0 0 0 0 0 0 0 0 0 0 0 0.25 0"/>
<feBlend mode="normal" in2="effect3_innerShadow_875_7158" result="effect4_innerShadow_875_7158"/>
</filter>
<filter id="filter1_d_875_7158" x="26.8685" y="44.6865" width="99.9319" height="30.6687" filterUnits="userSpaceOnUse" color-interpolation-filters="sRGB">
<feFlood flood-opacity="0" result="BackgroundImageFix"/>
<feColorMatrix in="SourceAlpha" type="matrix" values="0 0 0 0 0 0 0 0 0 0 0 0 0 0 0 0 0 0 127 0" result="hardAlpha"/>
<feOffset dx="9" dy="7"/>
<feGaussianBlur stdDeviation="3.5"/>
<feComposite in2="hardAlpha" operator="out"/>
<feColorMatrix type="matrix" values="0 0 0 0 0 0 0 0 0 0 0 0 0 0 0 0 0 0 0.4 0"/>
<feBlend mode="normal" in2="BackgroundImageFix" result="effect1_dropShadow_875_7158"/>
<feBlend mode="normal" in="SourceGraphic" in2="effect1_dropShadow_875_7158" result="shape"/>
</filter>
<filter id="filter2_d_875_7158" x="27.1602" y="65.5123" width="109.932" height="38.6687" filterUnits="userSpaceOnUse" color-interpolation-filters="sRGB">
<feFlood flood-opacity="0" result="BackgroundImageFix"/>
<feColorMatrix in="SourceAlpha" type="matrix" values="0 0 0 0 0 0 0 0 0 0 0 0 0 0 0 0 0 0 127 0" result="hardAlpha"/>
<feOffset dx="15" dy="7"/>
<feGaussianBlur stdDeviation="5.5"/>
<feComposite in2="hardAlpha" operator="out"/>
<feColorMatrix type="matrix" values="0 0 0 0 0 0 0 0 0 0 0 0 0 0 0 0 0 0 0.41 0"/>
<feBlend mode="normal" in2="BackgroundImageFix" result="effect1_dropShadow_875_7158"/>
<feBlend mode="normal" in="SourceGraphic" in2="effect1_dropShadow_875_7158" result="shape"/>
</filter>
<filter id="filter3_d_875_7158" x="26.8685" y="86.9835" width="115.932" height="44.6687" filterUnits="userSpaceOnUse" color-interpolation-filters="sRGB">
<feFlood flood-opacity="0" result="BackgroundImageFix"/>
<feColorMatrix in="SourceAlpha" type="matrix" values="0 0 0 0 0 0 0 0 0 0 0 0 0 0 0 0 0 0 127 0" result="hardAlpha"/>
<feOffset dx="18" dy="7"/>
<feGaussianBlur stdDeviation="7"/>
<feComposite in2="hardAlpha" operator="out"/>
<feColorMatrix type="matrix" values="0 0 0 0 0 0 0 0 0 0 0 0 0 0 0 0 0 0 0.3 0"/>
<feBlend mode="normal" in2="BackgroundImageFix" result="effect1_dropShadow_875_7158"/>
<feBlend mode="normal" in="SourceGraphic" in2="effect1_dropShadow_875_7158" result="shape"/>
</filter>
<linearGradient id="paint0_linear_875_7158" x1="170" y1="42" x2="366" y2="110" gradientUnits="userSpaceOnUse">
<stop stop-color="#3393DE"/>
<stop offset="0.868319" stop-color="#40DA78"/>
</linearGradient>
<linearGradient id="paint1_linear_875_7158" x1="69.1576" y1="11.3489" x2="69.1576" y2="144.699" gradientUnits="userSpaceOnUse">
<stop stop-color="#484847"/>
<stop offset="1" stop-color="#1F2120"/>
</linearGradient>
<linearGradient id="paint2_linear_875_7158" x1="68.9212" y1="22.6586" x2="68.803" y2="132.109" gradientUnits="userSpaceOnUse">
<stop stop-color="#4B4C4E"/>
<stop offset="1" stop-color="#191B1A"/>
</linearGradient>
<linearGradient id="paint3_linear_875_7158" x1="24.1165" y1="54.6878" x2="111.226" y2="54.1847" gradientUnits="userSpaceOnUse">
<stop stop-color="#2F7DFF"/>
<stop offset="0.995556" stop-color="#40DB78"/>
</linearGradient>
<linearGradient id="paint4_linear_875_7158" x1="113.844" y1="79.5136" x2="26.7349" y2="79.0105" gradientUnits="userSpaceOnUse">
<stop stop-color="#2F7DFF"/>
<stop offset="0.995556" stop-color="#40DB78"/>
</linearGradient>
<linearGradient id="paint5_linear_875_7158" x1="24.1165" y1="103.985" x2="111.226" y2="103.482" gradientUnits="userSpaceOnUse">
<stop stop-color="#2F7DFF"/>
<stop offset="0.995556" stop-color="#40DB78"/>
</linearGradient>
</defs>
</svg>
