<?xml version="1.0" encoding="utf-8"?>
<!-- Generator: Adobe Illustrator 21.0.0, SVG Export Plug-In . SVG Version: 6.00 Build 0)  -->
<svg version="1.1" id="Layer_1" xmlns="http://www.w3.org/2000/svg" xmlns:xlink="http://www.w3.org/1999/xlink" x="0px" y="0px"
	 viewBox="0 0 234 81" style="enable-background:new 0 0 234 81;" xml:space="preserve">
<style type="text/css">
	.st0{fill:#414146;}
	.st1{fill:#3598DC;}
</style>
<g>
	<polygon id="XMLID_127_" class="st0" points="68.5,25.8 56.2,25.8 56.2,21.4 86.1,21.4 86.1,25.8 73.8,25.8 73.8,61.8 68.5,61.8 	
		"/>
	<path id="XMLID_124_" class="st0" d="M87.9,48.3c0.1,7.1,4.7,10.1,10,10.1c3.8,0,6.1-0.7,8-1.5l0.9,3.8c-1.9,0.8-5,1.8-9.7,1.8
		c-8.9,0-14.3-5.9-14.3-14.6S88,32.2,96.4,32.2c9.5,0,12,8.3,12,13.7c0,1.1-0.1,1.9-0.2,2.5L87.9,48.3L87.9,48.3z M103.4,44.5
		c0.1-3.4-1.4-8.6-7.3-8.6c-5.3,0-7.7,4.9-8.1,8.6H103.4z"/>
	<path id="XMLID_123_" class="st0" d="M112.2,41.9c0-3.4-0.1-6.4-0.2-9.1h4.6l0.2,5.7h0.2c1.3-3.9,4.5-6.4,8-6.4
		c0.6,0,1,0.1,1.5,0.2v5c-0.5-0.1-1.1-0.2-1.8-0.2c-3.7,0-6.4,2.8-7.1,6.8c-0.1,0.7-0.2,1.6-0.2,2.5v15.5h-5.2V41.9z"/>
	<path id="XMLID_120_" class="st0" d="M145.9,61.8l-0.4-3.7h-0.2c-1.6,2.3-4.7,4.3-8.9,4.3c-5.9,0-8.9-4.1-8.9-8.3
		c0-7,6.2-10.9,17.5-10.8v-0.6c0-2.4-0.7-6.7-6.6-6.7c-2.7,0-5.5,0.8-7.6,2.2l-1.2-3.5c2.4-1.6,5.9-2.6,9.5-2.6
		c8.9,0,11,6.1,11,11.9v10.9c0,2.5,0.1,5,0.5,7L145.9,61.8L145.9,61.8z M145.1,47c-5.8-0.1-12.3,0.9-12.3,6.5c0,3.4,2.3,5,5,5
		c3.8,0,6.2-2.4,7-4.9c0.2-0.5,0.3-1.1,0.3-1.7V47z"/>
	<polygon id="XMLID_119_" class="st1" points="155.4,21.4 180.1,21.4 180.1,28.9 164.6,28.9 164.6,38.1 179.1,38.1 179.1,45.6 
		164.6,45.6 164.6,61.8 155.4,61.8 	"/>
	<path id="XMLID_117_" class="st1" d="M13.4,31L13.4,31C13.5,31,13.5,31,13.4,31L13.4,31z"/>
	<path id="XMLID_116_" class="st1" d="M55.3,52.5c0,4.4-0.9,10.4-4.5,16.1l0,0l0,0c-2,2.8-3.3,4.4-4.7,5.6s-2.7,2.1-4.9,3.6L41,77.9
		l-4.5-7.3l0.2-0.1l0,0h0.1c0.1,0,0.2-0.1,0.3-0.2c0.3-0.2,0.7-0.5,1.2-0.8c1-0.8,2.3-1.9,3.6-3.6c2.6-3.3,5.3-8.5,5.3-16
		c0-0.9,0-1.9-0.1-2.9l0,0c-0.9-5.7-2.9-9.5-5-12.2c-2.2-2.7-4.5-4.2-6.1-5.4c-0.6-0.3-1.7-1-3.2-1.5c-1.1-0.4-2.4-0.7-4-0.9
		c1.5,0.3,3.2,0.9,5,1.9c3.6,2,7.2,5.6,9.4,12.2l0,0l0,0c0.1,0.2,1,2.6,1,6.2c0,2.8-0.5,6.5-2.4,10.5l0,0l0,0
		c-1.3,2.4-2.5,4-3.7,5.2s-2.5,2.1-4,3.2l-0.2,0.2l-3.8-6.1l0.2-0.1l0,0h0.1c0.1,0,0.1-0.1,0.2-0.2c0.2-0.1,0.5-0.4,0.8-0.7
		c0.7-0.6,1.6-1.5,2.6-2.7c1.9-2.4,3.7-6.1,3.7-11.2c0-1-0.1-2-0.2-3.1l0,0c-0.3-1.5-0.9-4.6-3-7.5s-5.5-5.7-11.3-6.6h-0.1
		c0,0-0.1,0-0.2,0c-0.2,0-0.4,0-0.7,0c-1.4,0-4.4,0.2-7.2,2l-1.7,1l0,0l0,0l1.4-1.4c0,0,5.6-5.4,14.8-5.4c2.2,0,4.6,0.3,7.2,1.1
		c6.7,2,11.1,6.5,13.8,10.9s3.8,8.6,4.1,10C54.9,47.3,55.3,49.6,55.3,52.5z"/>
	<path id="XMLID_115_" class="st1" d="M26.8,38.5c-1.3,0.6-2.6,0.7-3.6,0.7c-0.5,0-1,0-1.3-0.1c-0.2,0-0.3,0-0.4-0.1h-0.1l0,0l0,0
		l0,0c-3.7-1-5.7-3.1-6.9-5.2c-0.6-1-0.9-2-1.1-2.9l0,0l0,0l0,0c-0.2-0.9-0.3-1.7-0.3-2.2c0-0.2,0-0.4,0-0.6c0-3.9,1.5-6.5,2.9-8.1
		c0.7-0.8,1.5-1.4,2-1.8c0.3-0.2,0.5-0.3,0.7-0.4c0.1,0,0.1-0.1,0.2-0.1l0,0l0,0l0.2-0.1L17,13.1l-0.2,0.1c-1,0.6-1.9,1.1-2.8,1.8
		c-0.9,0.7-1.7,1.6-2.7,3.1l0,0l0,0c-1.9,3.2-2.4,6.1-2.4,8.1c0,1.6,0.3,2.6,0.3,2.7l0,0l0,0c1.2,5.5,4.1,8.3,6.8,9.7
		c0.1,0,0.1,0.1,0.2,0.1c-0.2-0.1-0.3-0.1-0.5-0.2c-1.3-0.6-2.1-1.2-2.5-1.5c-1-0.9-2.4-2.1-3.6-4c-1.2-1.9-2.2-4.5-2.4-8.3
		c0.1-5.7,2.2-9.3,4.2-11.5c1-1.1,2-1.8,2.8-2.3c0.4-0.2,0.7-0.4,0.9-0.5c0.1-0.1,0.2-0.1,0.3-0.1h0.1l0,0l0.2-0.1L13.2,5L13,5.1
		C11.5,5.9,10.6,6.3,9.6,7c-1,0.7-1.9,1.6-3.4,3.3l0,0l0,0C2.7,14.7,2,19.7,2,22.7c0,0.9,0.1,1.5,0.1,2c0.1,0.9,0.5,3.8,2,6.9
		s4,6.4,8.3,8.3c2.4,1,4.6,1.4,6.6,1.4c5,0,8.1-2.4,8.1-2.5l1.5-1.2L26.8,38.5z"/>
	<path id="XMLID_114_" class="st1" d="M15.3,10.1l0.1,0.2L15.3,10.1L15.3,10.1z"/>
	<path id="XMLID_113_" class="st1" d="M15.4,10.3l-0.2,0.1l0,0C15.3,10.3,15.4,10.3,15.4,10.3z"/>
	<path id="XMLID_112_" class="st1" d="M13.5,31h-0.1H13.5z"/>
	<path id="XMLID_108_" class="st1" d="M15.2,10.4c0.1-0.1,0.2-0.1,0.2-0.1L15.2,10.4L15.2,10.4z"/>
	<path id="XMLID_107_" class="st1" d="M15.4,10.3l-0.1-0.2l0,0L15.4,10.3z"/>
	<g id="XMLID_22_">
		<path id="XMLID_105_" class="st1" d="M220.6,21.4v7.9c0,0.4,0,0.7-0.1,1s-0.2,0.6-0.5,0.8c-0.4,0.4-1,0.7-1.6,0.7
			c-0.7,0-1.3-0.2-1.7-0.7c-0.4-0.5-0.6-1.1-0.6-1.8v-7.9l-1.7,3v5.2c0,0.6,0.1,1.1,0.3,1.5c0.2,0.5,0.5,0.9,0.8,1.2
			c0.3,0.3,0.8,0.6,1.2,0.8c0.5,0.2,1,0.3,1.5,0.3c0.6,0,1.1-0.1,1.6-0.3c0.5-0.2,0.9-0.5,1.3-0.9c0.4-0.4,0.7-0.8,0.8-1.2
			c0.2-0.4,0.2-0.9,0.2-1.4v-8.1h-1.5V21.4z"/>
		<path id="XMLID_103_" class="st1" d="M216,61.8h-10.5l-3.7-7.3c-1.5-2.8-2.5-4.9-3.6-7.3h-0.1c-0.8,2.3-1.9,4.4-3.1,7.3l-3.4,7.3
			h-10.4l11.7-20.5l-11.3-20h10.5l3.5,7.4c1.2,2.5,2.1,4.4,3.1,6.7h0.1c1-2.6,1.7-4.4,2.8-6.7l3.4-7.4h10.4l-1.7,3L204,41.1
			L216,61.8z"/>
		<path id="XMLID_41_" class="st1" d="M230.8,33.1l-4.5-5.9v5.9h-1.7V21.4h1.7v5.8l4.5-5.8h2.1l-4.6,5.8l4.6,5.9L230.8,33.1
			L230.8,33.1z"/>
	</g>
</g>
</svg>
