<?xml version="1.0" encoding="utf-8"?>
<!-- Generator: Adobe Illustrator 25.0.1, SVG Export Plug-In . SVG Version: 6.00 Build 0)  -->
<svg version="1.1" id="Layer_1" xmlns="http://www.w3.org/2000/svg" xmlns:xlink="http://www.w3.org/1999/xlink" x="0px" y="0px"
	 viewBox="0 0 940.3 286.9" style="enable-background:new 0 0 940.3 286.9;" xml:space="preserve">
<style type="text/css">
	.st0{fill:#CC0000;stroke:#FFFFFF;stroke-width:5;stroke-miterlimit:10;}
	.st1{clip-path:url(#SVGID_2_);}
	.st2{fill:#43403E;}
	.st3{fill:#CC0000;}
	.st4{fill:#FFFFFF;stroke:#43403E;stroke-miterlimit:10;}
	.st5{fill:#FFFFFF;}
</style>
<circle class="st0" cx="93.1" cy="121" r="82.5"/>
<g>
	<g>
		<defs>
			<circle id="SVGID_1_" cx="93.1" cy="121" r="80"/>
		</defs>
		<clipPath id="SVGID_2_">
			<use xlink:href="#SVGID_1_"  style="overflow:visible;"/>
		</clipPath>
		<g class="st1">
			<polygon class="st2" points="-74,210 -69.1,212.1 142,-37.8 137.1,-39.9 			"/>
			<polygon class="st2" points="-63.3,220.5 -58.4,222.6 152.7,-27.3 147.8,-29.4 			"/>
			<polygon class="st2" points="-52.5,231 -47.6,233 163.5,-16.9 158.6,-18.9 			"/>
			<polygon class="st2" points="-41.7,241.4 -36.8,243.5 174.2,-6.4 169.4,-8.4 			"/>
			<polygon class="st2" points="-31,251.9 -26.1,254 185,4.1 180.1,2 			"/>
			<polygon class="st2" points="-20.2,262.4 -15.3,264.5 195.8,14.6 190.9,12.5 			"/>
			<polygon class="st2" points="-9.5,272.9 -4.6,274.9 206.5,25 201.6,23 			"/>
			<polygon class="st2" points="1.3,283.3 6.2,285.4 217.3,35.5 212.4,33.4 			"/>
			<polygon class="st2" points="12.1,293.8 16.9,295.9 228,46 223.1,43.9 			"/>
			<polygon class="st2" points="22.8,304.3 27.7,306.4 238.8,56.5 233.9,54.4 			"/>
		</g>
	</g>
</g>
<path class="st3" d="M286.3,87.1h-31.9L234,183.5h-19.5l20.4-96.5h-32.5l3.5-16.4h83.9L286.3,87.1z"/>
<path class="st3" d="M373.9,183.5h-19.5l10.1-48.2h-52l-10.1,48.2h-19.7l23.9-112.8h19.7L316.1,118h52.1l10.1-47.3h19.5L373.9,183.5
	z"/>
<path class="st3" d="M447.6,185.5c-11.9,0-21.3-3.3-28.2-10c-7-6.7-10.4-15.6-10.4-26.9c0-5.4,0.6-11.1,1.9-16.9l13.1-61h19.6
	l-13.1,60.7c-1.4,7.1-2.1,12.2-2.1,15.4c0,6.8,1.9,12.1,5.8,16s9.1,5.8,15.7,5.8c7.9,0,14.1-2.4,18.6-7.1s7.9-12.3,10.1-22.5
	l14.7-68.2h19.6l-14.6,67.7c-2.5,11.8-5.9,20.9-10,27.5s-9.6,11.5-16.2,14.7S457.3,185.5,447.6,185.5z"/>
<path class="st3" d="M612.5,183.5h-18.9l-38.5-81c-0.3-0.7-0.8-2-1.6-3.9s-1.2-3.3-1.4-4.2h-0.5l-0.7,5.3l-0.9,5.7l-16.6,78.1H515
	l23.8-112.8h20.5l37.7,80.6c1.2,2.7,2.1,4.9,2.6,6.6h0.3c0.3-3.6,0.8-7.1,1.5-10.5l16.4-76.8h18.7L612.5,183.5z"/>
<path class="st3" d="M749.1,116.3c0,13.4-2.8,25.2-8.5,35.6c-5.7,10.3-13.6,18.2-23.8,23.6c-10.2,5.4-22.3,8.1-36.3,8.1h-40.7
	l24-112.8h35.6c15.2,0,27.3,4.1,36.3,12.2C744.7,91,749.1,102.2,749.1,116.3z M728.8,117.8c0-10.1-2.9-17.7-8.7-22.9
	c-5.8-5.2-14.3-7.8-25.3-7.8h-14.8l-17.1,80.2h18.3c9.5,0,17.9-2.1,25.2-6.1s12.8-9.9,16.7-17.5C726.8,136,728.8,127.4,728.8,117.8z
	"/>
<path class="st3" d="M839.4,87.1h-41.5l-6.8,31.9h38.5l-3.5,16.4h-38.5l-6.8,31.9H825l-3.4,16.3h-63.7l23.9-112.8h61.1L839.4,87.1z"
	/>
<path class="st3" d="M933.2,99c0,9.2-3.1,16.8-9.2,22.8c-6.1,6-14.2,9.5-24.2,10.6v0.3c5.9,1.9,10,7.4,12.3,16.4l8.7,34.3h-20.8
	l-7.2-31.3c-1.1-4.8-2.9-8.4-5.4-10.7s-5.9-3.5-10.1-3.5h-7.1l-9.8,45.6h-19.6l23.9-112.8h34.8c10.6,0,18.9,2.5,24.8,7.5
	C930.3,83.1,933.2,90.1,933.2,99z M912.8,101.8c0-4.7-1.5-8.5-4.4-11.4s-7.4-4.3-13.4-4.3h-14l-7.7,36.2h13c8.3,0,14.8-1.8,19.5-5.6
	S912.8,108.1,912.8,101.8z"/>
<polygon class="st4" points="112.6,89.7 162.1,3.8 66.6,116.2 85.7,111.6 51.4,155.4 85,137.8 31.4,226.5 131.6,110.7 110.1,116.7 
	143.4,75.1 "/>
<path class="st5" d="M637.7,207.3h35.2l-1.3,6.1h-28.5l-5.9,27.4h26.5l-1.3,6.1H636l-6.9,33h-6.7L637.7,207.3z"/>
<path class="st5" d="M704.5,281.1c-8.9,0-16-2.9-21.3-8.6s-7.9-13.2-7.9-22.6c0-8.3,1.7-15.8,5.1-22.4c3.4-6.7,8.1-11.9,14-15.8
	c5.9-3.8,12.6-5.7,19.9-5.7c8.7,0,15.7,2.8,21,8.5c5.3,5.7,7.9,13.1,7.9,22.3c0,8.1-1.7,15.6-5,22.5c-3.3,6.8-7.9,12.2-13.8,16
	C718.6,279.2,711.9,281.1,704.5,281.1z M704.8,275.1c6.1,0,11.5-1.6,16.2-4.8s8.5-7.8,11.2-13.8c2.7-6,4.1-12.5,4.1-19.3
	c0-7.8-2-13.9-6.1-18.4c-4-4.5-9.5-6.8-16.3-6.8c-6,0-11.4,1.6-16.3,4.9s-8.7,7.9-11.4,13.7c-2.7,5.9-4,12.3-4,19.3
	c0,7.8,2,13.9,6,18.4C692.2,272.9,697.7,275.1,704.8,275.1z"/>
<path class="st5" d="M765.2,207.3h19.2c6.1,0,10.9,1.6,14.3,4.7s5,7.5,5,13.1c0,6-2,11-6.1,14.9c-4,3.9-9.4,6.1-15.9,6.6v0.2
	c3.3,1.3,5.6,4.5,6.9,9.9l5.9,23.2h-7.1l-5.4-21.8c-0.8-3.4-2.2-5.9-4-7.5c-1.8-1.6-4.3-2.4-7.5-2.4h-7.2l-6.7,31.7h-6.7
	L765.2,207.3z M776.4,242.2c6.3,0,11.3-1.5,14.9-4.4s5.4-7,5.4-12.1c0-3.8-1.2-6.7-3.4-9c-2.3-2.2-5.7-3.3-10.1-3.3h-12.6l-6.1,28.9
	H776.4z"/>
<path class="st5" d="M824,207.3h35.2l-1.3,6h-28.5l-5.8,27.1h26.4l-1.3,6h-26.5l-5.8,27.4h30.2l-1.2,6h-36.9L824,207.3z"/>
<path class="st5" d="M852.1,279.9l31.7-36.9c-0.6-1.9-3.1-8.1-7.4-18.6l-7-17.1h7.7l10.2,27.2c0.5,1.4,1,2.8,1.4,4.4h0.2
	c0.8-1.4,1.8-2.9,3.1-4.5l22.4-27.1h8l-30.2,36l0.9,2.2l13.7,34.3h-7.6l-10.5-27.7l-0.7-2.3l-0.7-2.3H887c-1,1.7-2.1,3.3-3.3,4.7
	l-23.1,27.6L852.1,279.9L852.1,279.9z"/>
</svg>
