<?xml version="1.0" encoding="UTF-8"?>
<svg width="169px" height="40px" viewBox="0 0 169 40" version="1.1" xmlns="http://www.w3.org/2000/svg" xmlns:xlink="http://www.w3.org/1999/xlink">
    <!-- Generator: Sketch 62 (91390) - https://sketch.com -->
    <title>Titan-logo/standard</title>
    <desc>Created with Sketch.</desc>
    <g id="Titan-logo/standard" stroke="none" stroke-width="1" fill="none" fill-rule="evenodd">
        <g id="Titan-logo-final" fill-rule="nonzero">
            <polygon id="Path" fill="#3D434F" points="49 15.0502545 49 10 65 10 65 15.0502545 60.3026499 15.0502545 60.3026499 27 53.9093445 27 53.9093445 15.1043257"></polygon>
            <polygon id="Path" fill="#3D434F" points="68 27 68 10 74 10 74 27"></polygon>
            <polygon id="Path" fill="#3D434F" points="77 15.0502545 77 10 93 10 93 15.0502545 88.261324 15.0502545 88.261324 27 81.8724739 27 81.8724739 15.1043257"></polygon>
            <polygon id="Path" fill="#3D434F" points="114 27 114 10 118.620783 10 125.271255 19.2776366 125.217274 17.4847522 125.217274 10 130 10 130 27 125.292848 27 118.717949 17.8735705 118.717949 27"></polygon>
            <polygon id="Path" fill="#3D434F" points="93 27 96.0858653 27 98.9498018 26.9893143 101 22.1914515 98.5059445 15"></polygon>
            <polygon id="Path" fill="#3D434F" points="105.5 9.47996977 114 33 106.042553 27.7063492 102.685505 18.5328798 97 4"></polygon>
            <polygon id="Path" fill="#3D434F" points="149 27 153.455782 27 158.920635 21.5565438 164.408163 27 168.863946 27 161.142857 18.9752224 169 10 164.634921 10 159 16.5127065 156.709751 18.9644219"></polygon>
            <polygon id="Path" fill="#231F20" points="155.85059 17 158 14.7396871 154.099607 10 150 10"></polygon>
            <path d="M154,13.2443736 L139.132326,13.2443736 L139.132326,27 L136,27 L136,11.633062 C136.000907,11.418467 136.041459,11.2058637 136.119637,11.0058401 C136.191496,10.8092092 136.302466,10.6289912 136.445921,10.4759457 C136.585859,10.3263224 136.75647,10.2083126 136.946224,10.1298922 C137.144781,10.042399 137.359866,9.99815228 137.577039,10.0000591 L151.716012,10.0000591 L154,13.2443736 Z M149.986707,20.3384702 L140.27432,20.3384702 L140.27432,17.0942187 L149.986707,17.0942187 L149.986707,20.3384702 Z" id="Shape" fill="#3D434F"></path>
            <polygon id="Path" fill="#72BD44" points="22 40 9.05479452 28.9738995 4 11 8.19178082 14.4230619 19.5006227 15.7335411"></polygon>
            <polygon id="Path" fill="#72BD44" points="22 11 8.06141249 9.93869347 3.85056295 7.72763819 0 0 22 2.88542714"></polygon>
            <polygon id="Path" fill="#72BD44" points="22 40 34.9501247 28.9738995 40 11 35.8142145 14.4230619 24.4912718 15.7335411"></polygon>
            <polygon id="Path" fill="#72BD44" points="21.2183 11 35.0185787 9.93869347 39.1764979 7.72763819 43 0 21.2183 2.88542714 19 6.55577889"></polygon>
        </g>
    </g>
</svg>