<?xml version="1.0" encoding="utf-8"?>
<!-- Generator: Adobe Illustrator 23.0.2, SVG Export Plug-In . SVG Version: 6.00 Build 0)  -->
<svg version="1.1" id="Layer_1" xmlns="http://www.w3.org/2000/svg" xmlns:xlink="http://www.w3.org/1999/xlink" x="0px" y="0px"
	 viewBox="0 0 373.4 50" style="enable-background:new 0 0 373.4 50;" xml:space="preserve">
<style type="text/css">
	.st0{fill:#FFFFFF;}
	.st1{fill:url(#SVGID_1_);}
</style>
<g>
	<path class="st0" d="M0,3.5h31.3v4.9H18.5v39h-5.7v-39H0V3.5z"/>
	<path class="st0" d="M48.5,19.3c-1.2-0.3-2.3-0.4-3.5-0.4c-2.8,0-5.7,0.6-7.2,2v26.5h-5.5v-33H37l0.5,3.1c2.5-2.8,5.7-3.5,8.7-3.5
		c1,0,2,0.1,3,0.3L48.5,19.3z"/>
	<path class="st0" d="M77.4,46c-4.4,1.4-8.9,2.2-13.5,2.2c-6,0-12.2-2.2-12.2-9.3c0-7.9,6.5-10.1,12.9-10.1c2.5,0,4.9,0.3,7.3,1v-4
		c0-4.6-1.2-7.2-6.9-7.2c-2.8,0-6.3,0.7-9.9,1.6l-1-4.2c3.3-1.4,9-2.2,11.7-2.2c8.5,0,11.7,3.7,11.7,11.7L77.4,46z M71.9,33.3
		C70,32.8,68,32.5,66,32.5c-4.3,0-8.7,1.6-8.7,6.3c0,4.4,4.2,5.3,8,5.3c2.2,0,4.4-0.3,6.6-1V33.3z"/>
	<path class="st0" d="M99.1,13.6c2.6,0,5.2,0.3,7.7,1.1V0.6h5.5v45.9c-4.1,0.8-8.7,1.6-12.9,1.6c-8.4,0-15.6-3.2-15.6-16.1
		C83.7,21.7,87.6,13.6,99.1,13.6z M106.8,19.3c-2.2-0.8-4.5-1.2-6.8-1.2c-6.4,0-10.3,4.2-10.3,13.9c0,8.5,4.4,11.9,10.8,11.9
		c2.1,0,4.2-0.3,6.3-0.9V19.3z"/>
	<path class="st0" d="M119.5,30.8c0-8.7,4.5-17.1,14.7-17.1c9,0,13.3,4.7,13.3,12.5c0,1.7-0.2,3.4-0.5,5.1h-21.6
		c0,9.1,4.4,12.4,11.9,12.4c2.9-0.1,5.7-0.6,8.4-1.6l0.7,4.5c-3.9,1.5-7.1,1.8-11.2,1.8C124.5,48.3,119.5,42.1,119.5,30.8z
		 M125.5,26.9h16.4c0.1-0.4,0.1-0.8,0.1-1.2c0-5-2.9-7.7-7.5-7.7C127.5,18,125.6,24.7,125.5,26.9z"/>
	<path class="st0" d="M218.4,44.9c-4.4,1.4-8.9,2.2-13.5,2.2c-6,0-12.2-2.2-12.2-9.3c0-7.9,6.5-10.1,12.9-10.1
		c2.5,0,4.9,0.4,7.3,1.1v-4c0-4.6-1.2-7.2-6.9-7.2c-2.8,0-6.3,0.7-9.9,1.6l-1.1-4.2c3.4-1.4,9-2.2,11.7-2.2
		c8.5,0,11.7,3.7,11.7,11.7L218.4,44.9z M212.8,32.2c-1.9-0.6-3.9-0.9-5.8-0.9c-4.3,0-8.7,1.6-8.7,6.3c0,4.4,4.2,5.3,8,5.3
		c2.2,0,4.4-0.4,6.6-1L212.8,32.2z"/>
	<path class="st0" d="M225.3,0h5.5v6.8h-5.5V0z M230.7,46.3h-5.5v-33h5.5V46.3z"/>
	<path class="st0" d="M237.4,29.9c0-12.7,5.8-17.3,15-17.3c9.1,0,14.6,4.4,14.6,17.3s-5.9,17.4-14.9,17.4
		C242.1,47.2,237.4,42.7,237.4,29.9z M243.2,29.9c0,9.7,3.2,12.9,9,12.9c5,0,9-3.2,9-12.9c0-10.5-3.5-12.9-8.9-12.9
		C247.4,17,243.2,19.4,243.2,29.9L243.2,29.9z"/>
	<path class="st0" d="M289.6,12.5c6.8,0,11.7,1.9,11.7,11.2v22.6h-5.4V24.7c0-6.3-3-7.5-6.8-7.5c-3.1,0-6.2,0.6-9.1,1.8v27.4h-5.5
		V16C279.2,13.8,284.4,12.6,289.6,12.5z"/>
	<path class="st0" d="M309.2,0h5.5v6.8h-5.5V0z M314.6,46.3h-5.5v-33h5.5V46.3z"/>
	<path class="st0" d="M344.7,18.4c-2.5-0.9-5.2-1.3-7.9-1.2c-4.9,0-9.7,3.2-9.7,12.6s4.9,12.7,10.2,12.7c2.8,0,5.6-0.5,8.2-1.6
		l0.9,4.3c-3,1.1-6.1,1.8-9.3,1.8c-8.6,0-16-5-16-17.3c0-12.2,7.7-17.3,15.6-17.3c3.1,0,6.2,0.6,9.1,1.6L344.7,18.4z"/>
	<path class="st0" d="M352.4,40.4c2.8,1.1,5.7,1.7,8.7,1.8c4.6,0,6.8-2.3,6.8-4.6c0-7.8-16.2-4.4-16.2-15.4c0-5.9,4.6-9.8,11.8-9.8
		c3,0,6,0.6,8.7,1.8l-1.1,4.1c-2.3-0.7-4.7-1.1-7.2-1.1c-3.4,0-6.7,1-6.7,4.5c0,7.4,16.2,4.2,16.2,15c0,5.3-3.9,10.4-12.5,10.4
		c-3.9,0-8.1-1.1-10-2.4L352.4,40.4z"/>
	<linearGradient id="SVGID_1_" gradientUnits="userSpaceOnUse" x1="153.5333" y1="14.7391" x2="178.1218" y2="36.0779">
		<stop  offset="0" style="stop-color:#3EBFEC"/>
		<stop  offset="1" style="stop-color:#63BFB1"/>
	</linearGradient>
	<path class="st1" d="M186.4,35.8l0-0.1c0-0.2,0-0.4-0.1-0.7c0-0.2,0-0.4-0.1-0.6s-0.1-0.4-0.1-0.6c0-0.2-0.1-0.4-0.1-0.6
		c0-0.2-0.1-0.4-0.1-0.6c-0.1-0.2-0.1-0.4-0.2-0.6c-0.1-0.2-0.1-0.4-0.2-0.6s-0.1-0.4-0.2-0.6c-0.1-0.2-0.2-0.4-0.2-0.5
		c-0.1-0.2-0.2-0.4-0.3-0.5c-0.1-0.2-0.2-0.4-0.3-0.5c-0.1-0.2-0.2-0.3-0.3-0.5c-0.1-0.2-0.2-0.3-0.3-0.5c-0.1-0.2-0.2-0.3-0.3-0.5
		c-0.1-0.2-0.2-0.3-0.4-0.5c-0.1-0.2-0.3-0.3-0.4-0.5c-0.1-0.2-0.3-0.3-0.4-0.4c-0.1-0.2-0.3-0.3-0.4-0.4c-0.2-0.1-0.3-0.3-0.5-0.4
		c-0.2-0.1-0.3-0.3-0.5-0.4c-0.2-0.1-0.3-0.3-0.5-0.4c-0.2-0.1-0.4-0.3-0.5-0.4c-0.2-0.1-0.4-0.2-0.6-0.4c0,0,0,0-0.1,0
		c0.8-0.5,1.5-1.2,2.2-1.9c0.4-0.4,0.7-0.8,1-1.2c0.2-0.3,0.4-0.7,0.6-1c0.2-0.3,0.3-0.6,0.4-0.9c0.1-0.3,0.2-0.6,0.3-0.9
		c0.1-0.3,0.2-0.5,0.2-0.8c0.1-0.3,0.1-0.5,0.2-0.8c0.1-0.2,0.1-0.5,0.1-0.8c0-0.2,0.1-0.5,0.1-0.7c0-0.2,0-0.5,0.1-0.7
		c0-0.2,0-0.5,0-0.7c0-0.2,0-0.3,0-0.5c0-0.1,0-0.1,0-0.2c0-0.2,0-0.4,0-0.7c0-0.2,0-0.4-0.1-0.7c0-0.2,0-0.4-0.1-0.6
		c0-0.2-0.1-0.4-0.1-0.6c0-0.2-0.1-0.4-0.1-0.6c0-0.2-0.1-0.4-0.2-0.6c-0.1-0.2-0.1-0.4-0.2-0.6c-0.1-0.2-0.1-0.4-0.2-0.6
		c-0.1-0.2-0.1-0.4-0.2-0.5c-0.1-0.2-0.2-0.4-0.3-0.5c-0.1-0.2-0.2-0.4-0.3-0.5c-0.1-0.2-0.2-0.3-0.3-0.5c-0.1-0.2-0.2-0.3-0.3-0.5
		c-0.1-0.2-0.2-0.3-0.4-0.5c-0.1-0.2-0.2-0.3-0.4-0.5c-0.1-0.2-0.3-0.3-0.4-0.4c-0.1-0.2-0.3-0.3-0.4-0.4c-0.2-0.1-0.3-0.3-0.5-0.4
		c-0.2-0.1-0.3-0.3-0.5-0.4h0c-0.2-0.1-0.4-0.3-0.5-0.4c-0.2-0.1-0.4-0.2-0.6-0.3c-0.2-0.1-0.4-0.2-0.6-0.3
		c-0.2-0.1-0.5-0.2-0.7-0.3c-0.2-0.1-0.5-0.2-0.7-0.3c-0.3-0.1-0.5-0.2-0.8-0.2h0c-0.3-0.1-0.6-0.1-0.9-0.2c-0.3,0-0.7-0.1-1-0.1
		l0,0h-0.8h-0.3l0,0h-1.2h-1.2h-1.2h-1.2h-1.2h-1.2h-1.2h-1.2h-1.2h-1.2h-1.2h-1.2h-1.2h-1.2h-1.2H154h-0.2v0.1v0.7v0.7v0.7v0.7v0.7
		v0.7v0.7v0.7v0.7v0.7v0.7v0.7v0.7v0.7v0.7v0.7l0,0v0v0.7V13v0.7v0.7V15v0.7v0.7v0.7v0.7v0.7v0.7v0.7v0c0,0.2,0,0.4,0,0.6l0.1,0.7
		c0,0.2,0.1,0.4,0.1,0.6c0,0.2,0.1,0.4,0.1,0.6c0,0.2,0.1,0.4,0.1,0.6c0.1,0.2,0.1,0.4,0.2,0.6v0c0.1,0.2,0.1,0.4,0.2,0.6
		c0.1,0.2,0.1,0.4,0.2,0.6c0.1,0.2,0.2,0.4,0.3,0.5c0.1,0.2,0.2,0.3,0.3,0.5c0.1,0.2,0.2,0.3,0.3,0.5c0.1,0.2,0.2,0.3,0.4,0.5
		c0.1,0.2,0.3,0.3,0.4,0.5c0.1,0.2,0.3,0.3,0.4,0.4c0.2,0.1,0.3,0.3,0.5,0.4c0.2,0.1,0.3,0.3,0.5,0.4c0.2,0.1,0.4,0.2,0.6,0.3
		c0.2,0.1,0.4,0.2,0.7,0.3c0.3,0.1,0.5,0.2,0.8,0.2c0.3,0.1,0.6,0.1,1,0.1c0.1,0,0.2,0,0.3,0h0.9h1.2h1.2h1.2h1.2h1.2h1.2h1.1v-0.6
		V28v-0.7v-0.7v-0.3l0.2,0.2l0.4,0.5l0.4,0.5l0.4,0.5l0.4,0.5l0.4,0.5l0.4,0.5l0.4,0.5l0.4,0.5l0.4,0.5l0.4,0.5l0.4,0.5l0.4,0.5
		l0.4,0.5l0.4,0.5l0.4,0.5l0.4,0.5l0.4,0.5l0.4,0.5l0.2,0.2l-0.6,0.7l-1.2,1.4l-1.2,1.4l-1.2,1.4l-1.2,1.4l-1.2,1.4l-0.9,1V43v-0.7
		v-0.7v-0.7v-0.4h-0.4h-1.2h-1.2h-1.2h-1.2h-1.2h-1.2h-1.2h-0.3c-0.3,0-0.7,0-1,0.1c-1.4,0.2-2.7,1-3.8,2.2
		c-0.3,0.4-0.6,0.8-0.9,1.2c-0.2,0.3-0.4,0.6-0.6,1c-0.1,0.3-0.3,0.6-0.4,0.9c-0.1,0.3-0.2,0.6-0.3,0.8c-0.1,0.3-0.1,0.5-0.2,0.8
		c-0.1,0.3-0.1,0.5-0.1,0.8c0,0.2-0.1,0.5-0.1,0.7c0,0.2,0,0.5,0,0.7c0,0.1,0,0.2,0,0.3h0.7h1.2h1.2h1.2h1.2h1.2h1.2h1.2h1.2h1.2
		h1.2h1.2h1.2h1.2h1.2h1.2h1.2h0.6h0.6l0,0c0.5,0,0.9-0.1,1.4-0.1h0c0.7-0.1,1.3-0.3,2-0.5c1.6-0.5,3.1-1.4,4.3-2.5
		c0.5-0.4,0.9-0.9,1.3-1.5c0.3-0.4,0.5-0.7,0.8-1.1c0.2-0.3,0.4-0.7,0.5-1c0.2-0.3,0.3-0.6,0.4-0.9v0c0.1-0.3,0.2-0.6,0.3-0.9
		c0.1-0.3,0.2-0.5,0.2-0.8v0c0.1-0.3,0.1-0.5,0.2-0.8c0.1-0.2,0.1-0.5,0.1-0.8c0-0.2,0.1-0.5,0.1-0.7c0-0.2,0-0.5,0.1-0.7
		c0-0.1,0-0.1,0-0.2c0-0.3,0-0.6,0-0.9C186.4,36.4,186.4,36.1,186.4,35.8z M164.6,10.1h1.2h1.2h1.2h1.2h1.2h0.7c0.1,0,0.3,0,0.4,0h0
		c0.3,0,0.6,0.1,0.9,0.2c0,0,0,0,0,0h0c0.2,0.1,0.5,0.2,0.7,0.3c0,0,0,0,0,0c0.2,0.1,0.4,0.2,0.6,0.3c0.2,0.1,0.3,0.2,0.5,0.4
		c0.2,0.1,0.3,0.3,0.4,0.4h0c0.1,0.1,0.3,0.3,0.4,0.5c0,0,0,0,0,0c0.1,0.2,0.2,0.3,0.3,0.5c0.1,0.2,0.2,0.4,0.2,0.5
		c0.1,0.2,0.1,0.4,0.2,0.6h0c0,0.2,0.1,0.4,0.1,0.6v0c0,0.1,0,0.2,0,0.3c0,0.1,0,0.2,0,0.3v0v0.1c0,0.2,0,0.4,0,0.7v0
		c0,0.3-0.1,0.5-0.2,0.8v0c-0.1,0.3-0.2,0.6-0.3,0.9c-0.2,0.4-0.5,0.8-0.8,1.1v0c0,0,0,0,0,0c-0.6,0.6-1.4,1.1-2.2,1.3h0l0,0
		c-0.4,0.1-0.9,0.2-1.3,0.1H171h-1.2h0h-1.2h-1.2h-1.2h0h-1.2h-1.2h0h-1.2h-0.4v-0.4v-0.7v-0.7v-0.7v0v-0.7v-0.7v-0.7v-0.7v0v-0.7
		v-0.7v0v-0.7v-0.7v-0.7v-0.7v0v-0.6h1.1H164.6z"/>
</g>
</svg>
