<svg width="1920" height="535" viewBox="0 0 1920 535" fill="none" xmlns="http://www.w3.org/2000/svg">
<path d="M221.5 110.5H0V132.1H100V414.9H121.5V132.1H221.5V110.5Z" fill="#1E2B38"/>
<path d="M496.5 414.9L419.2 309C440 302.9 457 292.2 469 277.4C482.9 260.3 490.1 237.9 490.1 211.7C490.1 196 487.4 181.7 482.2 169.1C474.3 150.2 460.4 135.3 441.7 125.4C423 115.5 399.7 110.5 372.3 110.5H267V414.9H288.5V314.9H372.3C380.8 314.9 388.6 314.3 395.8 313.6L469.7 414.9H496.5ZM288.5 132.1H372.3C404 132.1 428.1 139.7 444 153.1C452 159.8 458.1 167.9 462.2 177.7C466.3 187.4 468.6 198.8 468.6 211.8C468.6 225.1 466.4 236.8 462.2 246.8C455.9 261.8 445.4 273.2 430.5 281.2C415.6 289.2 396 293.5 372.3 293.5H288.5V132.1Z" fill="#1E2B38"/>
<path d="M671.9 110.5H654.3L514.9 414.9H539.4L579.8 326.2H748L788.8 414.9H813L671.9 110.5ZM738.1 304.6H589.6L663.1 142.5L738.1 304.6Z" fill="#1E2B38"/>
<path d="M1084.6 155.2C1056.4 127.6 1017.5 110.6 974.7 110.6H853.5V415H974.7C1017.5 415 1056.4 397.9 1084.6 370.4C1112.8 342.9 1130.4 304.9 1130.4 263C1130.3 220.9 1112.8 182.7 1084.6 155.2ZM1069.5 355C1045.2 378.7 1011.6 393.4 974.7 393.4H875V132.1H974.6C1011.6 132.1 1045.1 146.8 1069.4 170.5C1093.7 194.2 1108.7 226.9 1108.7 262.9C1108.8 298.7 1093.8 331.3 1069.5 355Z" fill="#1E2B38"/>
<path d="M1191.3 110.5V414.9H1197.9H1212.8V110.5H1191.3Z" fill="#1E2B38"/>
<path d="M85.7 484.6L82.6 490.9C79.1 488.8 74.8 487.4 71.3 487.4C68 487.4 65.6 488.5 65.6 491.3C65.6 498.5 86.4 494.6 86.4 508.8C86.4 516.8 79.3 520.4 71.4 520.4C65.7 520.4 59.5 518.5 55.6 514.9L58.6 508.9C62 511.9 67.4 513.8 71.7 513.8C75.3 513.8 78.1 512.5 78.1 509.6C78.1 501.6 57.5 506.1 57.6 491.9C57.6 483.9 64.5 480.6 72 480.6C77 480.7 82.2 482.1 85.7 484.6Z" fill="#1E2B38"/>
<path d="M144.1 503.9H114.5C115.8 509.9 120.5 513.7 126.7 513.7C131 513.7 134.9 512.1 137.7 509.1L142.2 513.9C138.4 518.1 132.8 520.5 126 520.5C113.9 520.5 106 512.5 106 500.7C106 488.8 114.2 480.8 125.8 480.7C139.6 480.7 145.2 489.7 144.1 503.9ZM136.8 497.7C136.5 491.4 132.3 487.5 125.9 487.5C119.7 487.5 115.4 491.4 114.4 497.7H136.8Z" fill="#1E2B38"/>
<path d="M200 487.1L195.4 492.6C192.7 489.8 188.9 488.1 184.2 488.2C177.4 488.2 172.6 493.3 172.6 500.7C172.6 508.1 177.5 513.2 184.2 513.2C189.1 513.2 193.1 511.6 195.8 508.5L200.5 513.2C197 517.8 191.3 520.5 183.9 520.5C172.3 520.5 164.2 512.5 164.2 500.7C164.2 488.8 172.3 480.7 183.9 480.7C190.8 480.7 196.3 483 200 487.1Z" fill="#1E2B38"/>
<path d="M259.5 520.2H251V512.5C248.3 518 243.4 520.4 237 520.5C228 520.5 222.6 514.8 222.6 505.4V481H231.1V503C231.1 508.9 234.6 512.5 240.2 512.5C247 512.4 251 507.1 251 500.3V481H259.5V520.2Z" fill="#1E2B38"/>
<path d="M295.3 488.8C298 483.5 302.7 480.7 308.9 480.7V488.8C301 488.4 296 493 295.3 499.7V520.2H286.8V481H295.3V488.8Z" fill="#1E2B38"/>
<path d="M365 503.9H335.4C336.7 509.9 341.4 513.7 347.6 513.7C351.9 513.7 355.8 512.1 358.6 509.1L363.1 513.9C359.3 518.1 353.7 520.5 346.9 520.5C334.8 520.5 326.9 512.5 326.9 500.7C326.9 488.8 335.1 480.8 346.7 480.7C360.4 480.7 366 489.7 365 503.9ZM357.6 497.7C357.3 491.4 353.1 487.5 346.7 487.5C340.5 487.5 336.2 491.4 335.2 497.7H357.6Z" fill="#1E2B38"/>
<path d="M459.5 500.6C459.5 512.4 451.2 520.5 439.1 520.5C426.9 520.5 418.6 512.4 418.6 500.6C418.6 488.7 426.9 480.7 439.1 480.7C451.2 480.7 459.5 488.8 459.5 500.6ZM427.1 500.7C427.1 508.3 432 513.4 439.1 513.4C446.1 513.4 451 508.2 451 500.7C451 493.2 446.1 488 439.1 488C432 488 427.1 493.2 427.1 500.7Z" fill="#1E2B38"/>
<path d="M520.6 495.8V520.2H512.1V498.2C512.1 492.3 508.6 488.7 502.7 488.7C496.2 488.8 492.2 493.3 491.6 499.4V520.2H483.1V481H491.6V488.5C494.4 483 499.4 480.7 506 480.7C515.1 480.7 520.6 486.5 520.6 495.8Z" fill="#1E2B38"/>
<path d="M547 520.2V465.6H555.5V520.2H547Z" fill="#1E2B38"/>
<path d="M592.2 469.8C592.2 472.7 590.1 474.9 587.3 474.9C584.5 474.9 582.4 472.8 582.4 469.8C582.4 466.8 584.5 464.6 587.3 464.6C590.1 464.7 592.2 466.8 592.2 469.8ZM583.1 520.2V481H591.5V520.2H583.1Z" fill="#1E2B38"/>
<path d="M656.2 495.8V520.2H647.7V498.2C647.7 492.3 644.2 488.7 638.3 488.7C631.8 488.8 627.8 493.3 627.2 499.4V520.2H618.7V481H627.2V488.5C630 483 635 480.7 641.6 480.7C650.8 480.7 656.2 486.5 656.2 495.8Z" fill="#1E2B38"/>
<path d="M716.8 503.9H687.2C688.5 509.9 693.2 513.7 699.4 513.7C703.7 513.7 707.6 512.1 710.4 509.1L714.9 513.9C711.1 518.1 705.5 520.5 698.7 520.5C686.6 520.5 678.7 512.5 678.7 500.7C678.7 488.8 686.9 480.8 698.5 480.7C712.2 480.7 717.8 489.7 716.8 503.9ZM709.4 497.7C709.1 491.4 704.9 487.5 698.5 487.5C692.3 487.5 688 491.4 687 497.7H709.4Z" fill="#1E2B38"/>
<path d="M796.3 517.7C793.2 519.5 790 520.6 786.7 520.6C780.8 520.6 775.7 517.2 775.7 509.2V488.9H770.2V482.6H775.7V471.8H784.1V482.6H795.7V488.9H784V507.7C784 511.8 785.5 513 788.2 513C790 513 791.8 512.4 794.1 511.3L796.3 517.7Z" fill="#1E2B38"/>
<path d="M827.3 488.8C830 483.5 834.7 480.7 840.9 480.7V488.8C833 488.4 828 493 827.3 499.7V520.2H818.8V481H827.3V488.8Z" fill="#1E2B38"/>
<path d="M884.5 515.4C881.7 518.9 877.2 520.6 871.5 520.6C863 520.6 857.7 515.4 857.7 508.4C857.7 501.3 863.1 496.7 872.5 496.6H884.4V495.4C884.4 490.5 881.2 487.5 875 487.5C871.2 487.5 867.3 488.8 863.4 491.5L859.9 485.6C865.3 482.4 869.3 480.7 876.8 480.7C886.9 480.7 892.6 485.9 892.6 494.5L892.7 520.2H884.4L884.5 515.4ZM884.4 506.4V502.8H873.8C868.3 502.8 865.7 504.3 865.7 508C865.7 511.5 868.6 513.8 873.3 513.8C879.3 513.9 884 510.7 884.4 506.4Z" fill="#1E2B38"/>
<path d="M956.2 520.2H947.7V513.5C944.9 518.1 940.2 520.6 933.9 520.6C922.6 520.6 915.1 512.4 915.1 500.5C915.1 488.7 922.7 480.7 933.7 480.7C940 480.7 944.7 483.3 947.6 487.8V465.6H956.1L956.2 520.2ZM947.8 500.8C947.8 493.2 942.9 487.9 935.8 487.9C928.7 487.9 923.8 493.3 923.7 500.8C923.8 508.2 928.6 513.5 935.8 513.5C942.8 513.5 947.8 508.2 947.8 500.8Z" fill="#1E2B38"/>
<path d="M993 469.8C993 472.7 990.9 474.9 988.1 474.9C985.3 474.9 983.2 472.8 983.2 469.8C983.2 466.8 985.3 464.6 988.1 464.6C990.9 464.7 993 466.8 993 469.8ZM983.9 520.2V481H992.3V520.2H983.9Z" fill="#1E2B38"/>
<path d="M1057 495.8V520.2H1048.5V498.2C1048.5 492.3 1045 488.7 1039.1 488.7C1032.6 488.8 1028.6 493.3 1028 499.4V520.2H1019.5V481H1028V488.5C1030.8 483 1035.8 480.7 1042.4 480.7C1051.5 480.7 1057 486.5 1057 495.8Z" fill="#1E2B38"/>
<path d="M1118.4 516.4C1118.4 527.7 1110.4 534.7 1098.1 534.7C1092 534.7 1086.6 532.8 1081.8 529.5L1085.4 523.4C1089.1 526.1 1092.9 527.7 1097.7 527.7C1105.1 527.7 1110 523.4 1110 516.6V511.7C1107.3 516 1102.9 518.3 1097 518.3C1086.4 518.3 1079.3 510.6 1079.3 499.4C1079.3 488.4 1086.3 480.8 1096.7 480.8C1102.7 480.7 1107.2 483.2 1110 487.4V481H1118.4V516.4ZM1110 499.6C1110 492.5 1105.4 487.6 1098.7 487.6C1092 487.6 1087.4 492.6 1087.3 499.6C1087.4 506.7 1091.9 511.7 1098.7 511.7C1105.4 511.7 1110 506.6 1110 499.6Z" fill="#1E2B38"/>
<path d="M1496.8 0.5L1424.1 127.2L1434.1 144.5L1516.8 0.5H1496.8Z" fill="#1AB8C1"/>
<path d="M1536.7 0.5L1444 161.8L1444.1 162L1454 179.2L1556.6 0.5H1536.7Z" fill="#1AB8C1"/>
<path d="M1576.6 0.5L1464 196.5L1464.1 196.7L1473.9 213.9L1596.5 0.5H1576.6Z" fill="#1AB8C1"/>
<path d="M1616.4 0.5L1483.9 231.2L1484 231.4L1493.9 248.6L1636.4 0.5H1616.4Z" fill="#1AB8C1"/>
<path d="M1303.9 519H1323.8L1396.6 392.3L1386.6 375L1303.9 519Z" fill="#1AB8C1"/>
<path d="M1376.5 357.5L1366.7 340.3L1264 519H1284L1376.7 357.7L1376.5 357.5Z" fill="#1AB8C1"/>
<path d="M1356.6 322.8L1346.8 305.6L1224.2 519H1244.1L1356.7 323L1356.6 322.8Z" fill="#1AB8C1"/>
<path d="M1336.7 288.1L1326.8 270.9L1184.3 519H1204.3L1336.8 288.3L1336.7 288.1Z" fill="#1AB8C1"/>
<path d="M1485.7 409.1L1436.5 323L1426.6 305.5L1416.6 288.1L1406.6 270.6L1404 266H1404.1L1394.1 248.5L1384.1 231.1L1374.2 213.6L1315.1 110.1H1295.1L1364.2 231.1L1374.2 248.5L1376.8 253.1H1376.7L1376.8 253.2L1386.7 270.6L1396.7 288.1L1406.6 305.5L1416.6 323L1426.6 340.5L1435.8 356.6H1435.7L1528.4 519H1548.3L1485.6 409.1H1485.7Z" fill="#1E2B38"/>
<path d="M1445.8 409.1L1416.6 357.9L1396.7 323L1386.7 305.5L1376.8 288.1L1366.8 270.6L1364.2 266L1354.2 248.5L1275.2 110.1H1255.3L1336.9 253.1V253.2L1346.9 270.6L1356.8 288.1L1366.8 305.5L1376.8 323L1386.7 340.5L1396.7 357.9L1406.6 375.4L1415.8 391.5L1488.6 519H1508.5L1445.8 409.1Z" fill="#1E2B38"/>
<path d="M1525.5 409.1L1456.5 288.1L1446.5 270.6L1443.9 266L1434 248.5L1424 231.1L1414 213.6L1404.1 196.1L1394.1 178.7L1354.9 110.1H1335L1384.1 196.1L1394.1 213.6L1404.1 231.1L1414 248.5L1416.7 253.1H1416.6V253.2L1426.6 270.6L1436.5 288.1L1446.5 305.5L1455.7 321.7L1568.3 519H1588.2L1525.5 409.1Z" fill="#1E2B38"/>
<path d="M1565.3 409.1H1565.4L1483.7 266H1483.8L1473.8 248.5L1463.9 231.1L1453.9 213.6L1443.9 196.1L1434 178.7L1424 161.2L1414 143.8L1394.8 110.1H1374.9L1404.1 161.2L1424 196.1L1434 213.6L1443.9 231.1L1453.9 248.5L1456.5 253.1V253.2L1466.4 270.6L1475.6 286.7V286.8L1608.1 519H1628.1L1565.3 409.1Z" fill="#1E2B38"/>
<path d="M1692.1 110.1L1691.6 110.9L1691.1 110L1561.7 334.1L1572.9 353.5L1609.3 290.4H1774.1L1846.2 414.8H1848.6H1868.6L1692.1 110.1ZM1763.4 271.9H1620.1L1691.6 148L1763.4 271.9Z" fill="#1E2B38"/>
<path d="M1808.3 470.8C1801.3 470.8 1796 475.9 1796 483.8C1796 491.7 1801.3 496.8 1808.3 496.8C1815.4 496.8 1820.7 491.7 1820.7 483.8C1820.7 475.9 1815.4 470.8 1808.3 470.8Z" fill="#1E2B38"/>
<path d="M1878.9 449.2H1628.4L1670.5 519H1919.8L1878.9 449.2ZM1718.6 505.2C1715.1 505.2 1712.2 502.5 1712.2 498.7C1712.2 494.8 1715.1 492.2 1718.6 492.2C1722.1 492.2 1725 494.8 1725 498.7C1725 502.5 1722.1 505.2 1718.6 505.2ZM1758.3 496.9C1762.4 496.9 1766.2 495.1 1768.7 491.1L1776.2 495.5C1773 501.7 1766.5 505.3 1758.4 505.3C1745.2 505.3 1735.9 496.4 1735.9 483.9C1735.9 471.4 1745.3 462.6 1758.4 462.6C1766.5 462.6 1773 466 1776.2 472.3L1768.7 476.7C1766.2 472.7 1762.5 470.9 1758.3 470.9C1751.1 470.9 1745.7 475.9 1745.7 483.9C1745.7 492 1751.2 496.9 1758.3 496.9ZM1808.3 505.2C1795.5 505.2 1786.1 496.3 1786.1 483.8C1786.1 471.3 1795.5 462.5 1808.3 462.5C1821.3 462.5 1830.5 471.3 1830.5 483.8C1830.5 496.3 1821.2 505.2 1808.3 505.2Z" fill="#1E2B38"/>
</svg>
