<?xml version="1.0" encoding="UTF-8"?> <svg xmlns="http://www.w3.org/2000/svg" width="170" height="30" viewBox="0 0 170 30" fill="none"><path d="M62.6118 25.8997C61.8734 26.2215 61.0214 26.5055 60.0748 26.7706C59.1281 27.0357 58.1625 27.1682 57.2159 27.1682C56.5532 27.1682 55.9095 27.0925 55.3226 26.9221C54.7357 26.7517 54.2055 26.4866 53.7701 26.1269C53.3157 25.7671 52.9749 25.2749 52.7098 24.669C52.4448 24.0632 52.3312 23.3437 52.3312 22.4917V13.3092H50.0781V9.25751H52.3312V3.65332H57.6892V9.25751H61.2676V13.3092H57.6892V20.6552C57.6892 21.2421 57.8407 21.6587 58.1247 21.9048C58.4087 22.1699 58.7873 22.2835 59.2228 22.2835C59.6204 22.2835 60.0369 22.2077 60.4724 22.0752C60.8889 21.9427 61.2676 21.7912 61.5705 21.6397L62.6118 25.8997Z" fill="#161616"></path><path d="M75.8459 13.8209C74.5585 13.8398 73.3846 14.0481 72.3244 14.4646C71.2641 14.8622 70.5068 15.4681 70.0524 16.2822V26.8468H64.6943V9.23907H69.6169V12.7796C70.2228 11.5868 70.999 10.6591 71.9457 9.9964C72.8924 9.33374 73.9147 8.97401 74.975 8.95508C75.2211 8.95508 75.3915 8.95508 75.5051 8.95508C75.6187 8.95508 75.7323 8.97401 75.8459 8.99295V13.8209Z" fill="#161616"></path><path d="M85.6345 27.1688C84.1577 27.1688 82.8324 26.9227 81.6586 26.4494C80.4847 25.9761 79.4813 25.3134 78.6671 24.4803C77.853 23.6473 77.2282 22.7006 76.8117 21.6215C76.3952 20.5423 76.168 19.4063 76.168 18.2135C76.168 16.945 76.3762 15.7333 76.8117 14.6162C77.2282 13.4802 77.853 12.4957 78.6482 11.6437C79.4434 10.7917 80.4468 10.1291 81.6207 9.63683C82.7945 9.14457 84.1388 8.89844 85.6345 8.89844C87.1302 8.89844 88.4555 9.14457 89.6294 9.63683C90.7843 10.1291 91.7688 10.7917 92.5829 11.6248C93.3781 12.4579 94.0029 13.4234 94.4194 14.5216C94.836 15.6197 95.0442 16.7746 95.0442 17.9674C95.0442 18.2892 95.0253 18.5922 95.0064 18.8951C94.9874 19.198 94.9496 19.4631 94.9117 19.6903H81.9047C81.9994 20.8831 82.4159 21.7729 83.1921 22.3977C83.9684 23.0036 84.8393 23.3254 85.8238 23.3254C86.6001 23.3254 87.3574 23.1361 88.0958 22.7574C88.8153 22.3788 89.3075 21.8676 89.5536 21.2239L94.1165 22.4924C93.416 23.8745 92.3557 25.0105 90.8979 25.8814C89.4211 26.7334 87.6793 27.1688 85.6345 27.1688ZM89.3643 16.377C89.2507 15.2599 88.8531 14.3701 88.1526 13.7264C87.4521 13.0826 86.6001 12.7608 85.5777 12.7608C84.5174 12.7608 83.6655 13.0826 82.9839 13.7453C82.3023 14.408 81.9047 15.2789 81.7911 16.377H89.3643Z" fill="#161616"></path><path d="M104.794 27.1685C103.582 27.1685 102.484 26.9413 101.462 26.4869C100.439 26.0325 99.5685 25.3888 98.8301 24.5558C98.0917 23.7227 97.5237 22.7571 97.1072 21.659C96.6907 20.5609 96.4824 19.3492 96.4824 18.0239C96.4824 16.7553 96.6718 15.5626 97.0504 14.4455C97.4291 13.3285 97.9592 12.3629 98.6597 11.5487C99.3602 10.7346 100.174 10.0909 101.121 9.61757C102.068 9.14425 103.109 8.91705 104.264 8.91705C105.495 8.91705 106.612 9.20105 107.596 9.78798C108.6 10.3749 109.357 11.1512 109.887 12.1357V2.36621H115.245V20.807C115.245 21.3371 115.321 21.7158 115.491 21.9241C115.662 22.1323 115.946 22.2649 116.381 22.3027V26.8277C115.889 26.9413 115.472 27.0171 115.113 27.0549C114.753 27.0928 114.412 27.1117 114.109 27.1117C113.162 27.1117 112.405 26.9224 111.837 26.5248C111.25 26.1272 110.928 25.5782 110.834 24.8398L110.739 23.931C110.114 25.0291 109.262 25.8432 108.202 26.3733C107.123 26.9035 105.987 27.1685 104.794 27.1685ZM106.233 22.6435C106.971 22.6435 107.672 22.4163 108.353 21.9809C109.035 21.5454 109.546 20.9395 109.906 20.1822V16.4903C109.565 15.6004 109.035 14.862 108.278 14.294C107.52 13.7261 106.744 13.4421 105.949 13.4421C105.362 13.4421 104.832 13.5746 104.359 13.8207C103.885 14.0858 103.45 14.4266 103.109 14.8431C102.749 15.2596 102.484 15.7519 102.295 16.3199C102.106 16.8879 102.011 17.4748 102.011 18.0996C102.011 18.7433 102.124 19.3492 102.333 19.9172C102.541 20.4852 102.844 20.9585 103.204 21.3561C103.563 21.7537 104.018 22.0755 104.548 22.3027C105.059 22.5299 105.627 22.6435 106.233 22.6435Z" fill="#161616"></path><path d="M127.817 27.1688C126.34 27.1688 125.015 26.9227 123.841 26.4494C122.667 25.9761 121.664 25.3134 120.85 24.4803C120.036 23.6473 119.411 22.7006 118.994 21.6215C118.578 20.5423 118.351 19.4063 118.351 18.2135C118.351 16.945 118.559 15.7333 118.994 14.6162C119.411 13.4802 120.036 12.4957 120.831 11.6437C121.626 10.7917 122.629 10.1291 123.803 9.63683C124.977 9.14457 126.321 8.89844 127.817 8.89844C129.313 8.89844 130.638 9.14457 131.812 9.63683C132.967 10.1291 133.951 10.7917 134.766 11.6248C135.561 12.4579 136.186 13.4234 136.602 14.5216C137.019 15.6197 137.227 16.7746 137.227 17.9674C137.227 18.2892 137.208 18.5922 137.189 18.8951C137.17 19.198 137.132 19.4631 137.094 19.6903H124.087C124.182 20.8831 124.598 21.7729 125.375 22.3977C126.151 23.0036 127.022 23.3254 128.006 23.3254C128.783 23.3254 129.54 23.1361 130.278 22.7574C130.998 22.3788 131.49 21.8676 131.736 21.2239L136.299 22.4924C135.599 23.8745 134.538 25.0105 133.081 25.8814C131.604 26.7334 129.862 27.1688 127.817 27.1688ZM131.547 16.377C131.433 15.2599 131.036 14.3701 130.335 13.7264C129.635 13.0826 128.783 12.7608 127.76 12.7608C126.7 12.7608 125.848 13.0826 125.166 13.7453C124.485 14.408 124.087 15.2789 123.974 16.377H131.547Z" fill="#161616"></path><path d="M150.821 13.8209C149.533 13.8398 148.359 14.0481 147.299 14.4646C146.239 14.8622 145.481 15.4681 145.027 16.2822V26.8468H139.669V9.23907H144.592V12.7796C145.197 11.5868 145.974 10.6591 146.92 9.9964C147.867 9.33374 148.889 8.97401 149.95 8.95508C150.196 8.95508 150.366 8.95508 150.48 8.95508C150.593 8.95508 150.707 8.97401 150.821 8.99295V13.8209Z" fill="#161616"></path><path d="M160.572 27.1685C159.076 27.1685 157.732 26.9223 156.558 26.4301C155.384 25.9378 154.399 25.2752 153.585 24.4421C152.771 23.609 152.165 22.6245 151.749 21.5264C151.332 20.4283 151.124 19.2544 151.124 18.0617C151.124 16.8499 151.332 15.695 151.749 14.5969C152.165 13.4988 152.771 12.5143 153.585 11.6812C154.381 10.8482 155.384 10.1666 156.558 9.67431C157.732 9.18206 159.076 8.91699 160.572 8.91699C162.067 8.91699 163.393 9.16312 164.566 9.67431C165.721 10.1855 166.706 10.8482 167.52 11.6812C168.334 12.5143 168.94 13.4988 169.357 14.5969C169.773 15.695 170 16.8689 170 18.0617C170 19.2734 169.792 20.4283 169.376 21.5264C168.959 22.6245 168.353 23.609 167.539 24.4421C166.725 25.2752 165.74 25.9378 164.566 26.4301C163.393 26.9223 162.086 27.1685 160.572 27.1685ZM156.652 18.0617C156.652 19.4438 157.012 20.5608 157.751 21.3939C158.489 22.2269 159.436 22.6435 160.572 22.6435C161.121 22.6435 161.651 22.5299 162.105 22.3027C162.579 22.0755 162.976 21.7725 163.336 21.356C163.677 20.9584 163.961 20.4662 164.15 19.8982C164.339 19.3302 164.453 18.7054 164.453 18.0427C164.453 16.6606 164.093 15.5436 163.355 14.7105C162.616 13.8775 161.689 13.4609 160.572 13.4609C160.004 13.4609 159.492 13.5745 159.019 13.8017C158.546 14.0289 158.129 14.3318 157.77 14.7484C157.429 15.146 157.145 15.6382 156.955 16.2062C156.766 16.7553 156.652 17.3801 156.652 18.0617Z" fill="#161616"></path><path d="M36.8248 4.71433C34.9504 6.05858 32.7731 6.94844 30.4822 7.3271C29.706 7.45963 28.9108 7.51643 28.1156 7.51643C26.1087 7.51643 24.1207 7.0999 22.2842 6.32364L21.489 5.98285L20.7128 6.30471C18.8763 7.0999 16.8883 7.4975 14.8814 7.4975C13.8969 7.4975 12.9313 7.40283 11.9657 7.2135C9.65586 6.75911 7.49749 5.75565 5.64205 4.31674L0 0L2.44237 6.9863C4.39247 12.5716 9.80733 18.2136 14.9193 20.5045C16.7368 22.9658 17.6646 27.3394 20.2584 28.7593L21.205 29.2705L22.1517 28.7593C24.7077 27.3772 25.749 23.0226 27.5476 20.6181C32.6027 18.4219 37.904 12.9124 39.9298 7.47856L42.4479 0.738388L36.8248 4.71433ZM26.298 13.4614C25.0674 13.6886 23.9693 13.7075 23.0983 13.6318C23.0037 15.1654 22.8522 16.8126 22.625 18.5355C22.3032 20.8832 21.8866 23.0605 21.4133 25.0106C20.94 23.0605 20.5234 20.9021 20.2016 18.5355C19.9744 16.8126 19.8229 15.1843 19.7283 13.6318C18.8573 13.7075 17.7592 13.6886 16.5286 13.4614C13.6886 12.9124 11.7385 11.4734 10.754 10.6215C12.174 10.8676 13.7833 11.0758 15.544 11.1516C17.816 11.2652 19.8608 11.1516 21.6026 10.9622C23.2498 11.1516 25.162 11.2462 27.3015 11.1516C29.0812 11.0758 30.6905 10.8676 32.0915 10.6215C31.0881 11.4734 29.1191 12.9313 26.298 13.4614Z" fill="#F6A433"></path></svg> 