<?xml version="1.0" encoding="utf-8"?>
<!-- Generator: Adobe Illustrator 19.0.0, SVG Export Plug-In . SVG Version: 6.00 Build 0)  -->
<svg version="1.1" id="Layer_1" xmlns="http://www.w3.org/2000/svg" xmlns:xlink="http://www.w3.org/1999/xlink" x="0px" y="0px"
	 viewBox="0 0 833.5 516.9" style="enable-background:new 0 0 833.5 516.9;" xml:space="preserve">
<style type="text/css">
	.st0{fill-rule:evenodd;clip-rule:evenodd;fill:#FFFFFF;}
	.st1{fill-rule:evenodd;clip-rule:evenodd;fill:#93C841;}
	.st2{fill-rule:evenodd;clip-rule:evenodd;fill:#212B2C;}
	.st3{fill-rule:evenodd;clip-rule:evenodd;fill:#C9DE7D;}
	.st4{fill:none;}
	.st5{fill:#93C841;}
	.st6{fill:#689B41;}
	.st7{fill:#212B2C;}
	.st8{fill:#C9DE7D;}
	.st9{fill:#93CB40;}
</style>
<text id="XMLID_169_" transform="matrix(1 0 0 1 -1730.7128 2409.0667)" class="st5" style="font-family:'Gilroy-Heavy'; font-size:197.4745px;">Winnex </text>
<text id="XMLID_168_" transform="matrix(1 0 0 1 -1617.3148 2471.0396)" class="st7" style="font-family:'Poppins-SemiBold'; font-size:58.5573px; letter-spacing:23;">Consulting</text>
<g id="XMLID_12_">
	
		<text id="XMLID_14_" transform="matrix(1 0 0 1 -3774.282 2419.0442)" class="st5" style="font-family:'Poppins-Bold'; font-size:212.9774px;">Winnex </text>
	
		<text id="XMLID_13_" transform="matrix(0.99 0 0 1 -3373.3516 2502.4448)" class="st7" style="font-family:'Poppins-Regular'; font-size:72.617px;">Consulting</text>
</g>
<path id="XMLID_74_" class="st0" d="M-4003.9,2268c8.6-5.1,16.2-9.7,24.2-14.5c-2.9-6.5-5.8-12.8-9-20c-9.6,5.7-18.7,11-28.2,16.6
	C-4012.3,2256.6-4008.2,2262.1-4003.9,2268z"/>
<path id="XMLID_73_" class="st0" d="M-4047.6,2278.1c-6.7,9.4-12.6,17.8-19,26.8c6.9,3.9,13.1,7.4,19.2,10.9
	c5.6-7.9,10.8-15.1,16.3-22.8C-4036.4,2288.2-4041.5,2283.6-4047.6,2278.1z"/>
<path id="XMLID_72_" class="st0" d="M-4004.1,2274.4c-7,6.4-13.4,12.3-20.3,18.6c5,4.5,9.3,8.4,13.7,12.3c6-5.5,11.6-10.6,17.5-16
	C-3996.8,2284.4-4000.2,2279.8-4004.1,2274.4z"/>
<path id="XMLID_71_" class="st0" d="M-4055.8,2346.7c2.8,1.1,4.4,1.8,5.9,2.3c11.3,4,11.3,4,16.2-7.2c1.5-3.5,3.2-6.9,5-10.7
	c-5.2-3-10.1-5.9-16.1-9.4C-4048.6,2330.3-4052,2338.1-4055.8,2346.7z"/>
<path id="XMLID_70_" class="st0" d="M-3943.5,2246.8c1,5.6,1.4,9.8,2.7,13.6c0.6,1.8,3.4,4,5.1,3.9c6.2-0.2,12.3-1.3,18.8-2
	c0-5.9,0-11.6,0-18.4C-3925.9,2244.8-3934.3,2245.8-3943.5,2246.8z"/>
<path id="XMLID_69_" class="st0" d="M-3947.7,2247.7c-9,3-17.2,5.8-26,8.7c2.8,6.3,5.2,11.4,7.6,16.7c6.5-2.1,12.6-3.8,18.3-6.1
	c1.6-0.6,3.3-3.4,3.2-5C-3945,2257.6-3946.4,2253.3-3947.7,2247.7z"/>
<path id="XMLID_68_" class="st0" d="M-4027,2296c-5.5,7.7-10.5,14.7-15.9,22.3c5.8,3.4,10.7,6.2,15.9,9.2
	c4.7-6.6,9.1-12.8,13.6-19.2C-4017.8,2304.3-4021.9,2300.6-4027,2296z"/>
<path id="XMLID_67_" class="st0" d="M-4024.4,2333.4c-3.2,7.4-6,13.9-9,20.9c6.5,2,11.9,3.7,17.5,5.4c2.7-6.2,5.1-11.6,7.5-17.3
	C-4013.5,2339.4-4018.4,2336.7-4024.4,2333.4z"/>
<path id="XMLID_66_" class="st0" d="M-4034.6,2357.8c-1.5,7.7-2.9,14.7-4.5,22.4c7.2,0.5,12.8,0.9,18.4,1.3c1.3-6.4,2.4-12,3.6-18.3
	C-4022.7,2361.5-4028.1,2359.9-4034.6,2357.8z"/>
<path id="XMLID_65_" class="st0" d="M-4006.9,2308.8c5.1,4.5,9.5,8.2,13.9,12.1c4.8-4.4,9.2-8.4,14-12.8c-3.7-4.8-7.2-9.5-11.1-14.8
	C-3996,2298.7-4001.1,2303.4-4006.9,2308.8z"/>
<path id="XMLID_64_" class="st0" d="M-3967.5,2279.5c-6.9,4.1-13,7.8-19.5,11.7c4,5.4,7.4,9.9,11,14.7c5.7-3.4,10.8-6.4,16.2-9.7
	C-3962.3,2290.7-3964.6,2285.7-3967.5,2279.5z"/>
<path id="XMLID_63_" class="st0" d="M-3942.5,2270.8c-7.6,2.5-14.2,4.8-21.5,7.2c2.9,6.3,5.3,11.4,7.8,16.6c6.4-2.2,12-4.2,17.8-6.1
	C-3939.7,2282.6-3940.9,2277.5-3942.5,2270.8z"/>
<path id="XMLID_62_" class="st1" d="M-3663.6,2498.7c-3,5.4-5.5,11.2-9.3,16.1c-4.3,5.5-9.7,6.5-16.6,2.6
	c-35-19.8-70.2-39.1-105.4-58.6c-2.1-1.2-4.2-2.2-6.9-3.6c-20.7,34.4-50.3,56.2-89.8,63.2c-28.3,5-55.5,0.4-80.9-13.1
	c-52-27.6-71.5-83.5-65.8-121.3c5.4,0.5,10.9,1,17,1.6c-0.8,38.9,12.7,71.2,44.1,94.8c21.6,16.3,46.3,23.3,73.1,20.9
	c58.1-5.2,100.1-51.8,99.4-109.8c-0.7-54.3-44.3-103.8-107-105.7c0-5.6,0-11.3,0-18.4c6.9,0.7,14.1,0.9,21.1,2.1
	c61.6,10,108.2,67.9,104.3,130.2c-0.7,10.5-2.9,21.1-5.6,31.3c-1.5,5.8-0.7,7.9,4.9,9.9c37.3,13.4,74.5,27.3,111.8,40.8
	c5.3,1.9,9.4,4.6,11.6,9.8C-3663.6,2493.9-3663.6,2496.3-3663.6,2498.7z"/>
<path id="XMLID_61_" class="st1" d="M-4089.6,2372.2c2.2-9.5,4.4-19.1,6.8-29.3c7.4,2.4,14,4.6,20.6,6.7c-1.8,9.1-3.5,17.6-5.4,27.2
	c-7.2-0.6-14.6-1.1-21.9-1.7C-4089.6,2374.2-4089.6,2373.2-4089.6,2372.2z"/>
<path id="XMLID_60_" class="st1" d="M-3916.6,2216.7c0,7.2,0,14.5,0,21.8c-8.2,1-15.9,2.2-23.5,2.7c-1.7,0.1-4.6-1.7-5-3.2
	c-1.6-5.3-2.4-10.8-3.7-17.2c8.7-1.4,16.8-2.8,25-4.2C-3921.4,2216.7-3919,2216.7-3916.6,2216.7z"/>
<path id="XMLID_53_" class="st1" d="M-4003.9,2268c-4.3-5.9-8.4-11.4-13-17.8c9.5-5.6,18.5-10.9,28.2-16.6c3.3,7.2,6.1,13.5,9,20
	C-3987.8,2258.3-3995.4,2262.9-4003.9,2268z"/>
<path id="XMLID_52_" class="st1" d="M-4047.6,2278.1c6.1,5.5,11.2,10.1,16.4,14.8c-5.5,7.7-10.7,14.9-16.3,22.8
	c-6.1-3.5-12.3-6.9-19.2-10.9C-4060.2,2295.9-4054.3,2287.5-4047.6,2278.1z"/>
<path id="XMLID_51_" class="st2" d="M-4004.1,2274.4c3.9,5.4,7.3,10,10.9,14.9c-5.9,5.4-11.5,10.6-17.5,16c-4.4-4-8.7-7.8-13.7-12.3
	C-4017.5,2286.7-4011.1,2280.8-4004.1,2274.4z"/>
<path id="XMLID_50_" class="st2" d="M-4055.8,2346.7c3.8-8.6,7.2-16.4,11-25c6,3.5,10.9,6.3,16.1,9.4c-1.8,3.8-3.4,7.2-5,10.7
	c-4.9,11.2-4.9,11.2-16.2,7.2C-4051.5,2348.4-4053,2347.8-4055.8,2346.7z"/>
<path id="XMLID_49_" class="st3" d="M-3943.5,2246.8c9.2-1,17.6-2,26.6-3c0,6.9,0,12.5,0,18.4c-6.4,0.8-12.6,1.9-18.8,2
	c-1.7,0.1-4.5-2.2-5.1-3.9C-3942.2,2256.6-3942.5,2252.4-3943.5,2246.8z"/>
<path id="XMLID_48_" class="st2" d="M-3947.7,2247.7c1.3,5.5,2.7,9.9,3.1,14.3c0.2,1.6-1.6,4.4-3.2,5c-5.7,2.3-11.8,4-18.3,6.1
	c-2.4-5.3-4.7-10.5-7.6-16.7C-3964.9,2253.6-3956.7,2250.8-3947.7,2247.7z"/>
<path id="XMLID_47_" class="st3" d="M-4027,2296c5.1,4.6,9.1,8.3,13.6,12.3c-4.6,6.5-8.9,12.6-13.6,19.2c-5.2-3-10.1-5.9-15.9-9.2
	C-4037.4,2310.6-4032.5,2303.7-4027,2296z"/>
<path id="XMLID_46_" class="st1" d="M-4024.4,2333.4c6.1,3.4,10.9,6.1,16.1,9c-2.5,5.7-4.8,11.1-7.5,17.3c-5.6-1.7-11-3.4-17.5-5.4
	C-4030.4,2347.2-4027.6,2340.8-4024.4,2333.4z"/>
<path id="XMLID_45_" class="st3" d="M-4034.6,2357.8c6.5,2,11.9,3.7,17.6,5.4c-1.2,6.3-2.3,11.9-3.6,18.3
	c-5.6-0.4-11.3-0.8-18.4-1.3C-4037.5,2372.6-4036.1,2365.5-4034.6,2357.8z"/>
<path id="XMLID_19_" class="st1" d="M-4006.9,2308.8c5.8-5.4,10.9-10.1,16.8-15.5c3.9,5.2,7.5,9.9,11.1,14.8
	c-4.8,4.4-9.2,8.5-14,12.8C-3997.4,2317-4001.8,2313.2-4006.9,2308.8z"/>
<path id="XMLID_18_" class="st3" d="M-3967.5,2279.5c2.9,6.3,5.2,11.2,7.7,16.7c-5.5,3.3-10.6,6.3-16.2,9.7c-3.6-4.7-7-9.3-11-14.7
	C-3980.5,2287.2-3974.4,2283.6-3967.5,2279.5z"/>
<path id="XMLID_17_" class="st1" d="M-3942.5,2270.8c1.6,6.7,2.7,11.9,4.1,17.7c-5.8,2-11.3,3.9-17.8,6.1
	c-2.5-5.2-4.9-10.3-7.8-16.6C-3956.7,2275.5-3950,2273.3-3942.5,2270.8z"/>
<text id="XMLID_208_" transform="matrix(1 0 0 1 -1771.75 1314.2524)" class="st7" style="font-family:'Gilroy-Heavy'; font-size:203.071px;">Winnex </text>
<g id="XMLID_207_">
	
		<text id="XMLID_377_" transform="matrix(0.99 0 0 1 -1436.0402 1418.6636)" class="st5" style="font-family:'Poppins-Regular'; font-size:70.8028px;">Consulting</text>
</g>
<polyline id="XMLID_20_" class="st4" points="-1536,1104 -1817.7,1104 -1817.7,1388.5 -1012.9,1388.5 -1012.9,1104 -1301.5,1104 "/>
<polygon id="XMLID_139_" class="st5" points="-1817.7,1388.5 -1817.7,1104 -1524.8,1104 -1536,1089.7 -1832.1,1089.7 
	-1832.1,1402.8 -1448.7,1402.8 -1448.7,1388.5 "/>
<polygon id="XMLID_141_" class="st5" points="-998.6,1089.7 -1301.5,1089.7 -1312.7,1104 -1012.9,1104 -1012.9,1388.5 
	-1046.6,1388.5 -1046.6,1402.8 -998.6,1402.8 "/>
<path id="XMLID_34_" class="st5" d="M-1763.1,2473.5c-35.9,22.6-79.5,32.6-121.8,28.1c-23.3-2.4-46.2-9.3-67-20
	c-4.9-2.6-10.6-3.3-16-1.9c-21.3,5.3-42.7,10.7-64,16c2.6-20.7,5.2-41.5,7.8-62.2c0.5-4.3,1.4-8.6,0.3-12.9
	c-0.7-3.5-2.7-6.6-4.5-9.6c-19.2-31.1-29.2-67.9-28.3-104.5c0.7-34.3,10.9-68.4,29.1-97.5c19.1-30.6,47-55.7,79.6-71.2
	c35.7-17.2,76.9-23,116-16.1c35.4,6.1,68.9,22.4,95.5,46.4c24.3,21.8,42.7,49.9,53.2,80.8c0,0,0,0.1,0,0.1h44.7
	c-13.9-51.6-46.2-98.1-89.7-129.1c-28.7-20.7-62.3-34.8-97.2-40.6c-45.1-7.8-92.4-2-134.2,16.5c-41.6,18.2-77.6,48.8-102.2,86.9
	c-23.3,35.8-36.5,78.1-37.7,120.8c-1.3,43.2,9.6,86.8,31.4,124.1c0.6,1.2,1.6,2.4,1.2,3.8c-3.7,30.1-7.5,60.1-11.2,90.2
	c-1.4,10.3,6,20.8,16.2,23c5.8,1.6,11.7-0.4,17.3-1.8c26.6-6.6,53.3-13.3,79.9-20c41.3,19.6,88.5,26.7,133.7,19.9
	c39.8-5.7,77.9-21.9,109.6-46.6c21.9-16.9,40.7-37.7,55.4-61.1h-52.7C-1731.4,2450.1-1746.4,2463.1-1763.1,2473.5z"/>
<path id="XMLID_35_" class="st6" d="M-1890.6,2205.1c12.6-0.1,25.2,0,37.8,0c4.9,0,9.2,4.4,9,9.3c0,61.2,0,122.5,0,183.7
	c0.2,4.9-4.1,9.4-9.1,9.3c-12.4,0-24.7,0-37.1,0c-4.9,0-9.2-4.4-9-9.3c0-61.2,0-122.4,0-183.7
	C-1899.1,2209.7-1895.3,2205.4-1890.6,2205.1z"/>
<path id="XMLID_32_" class="st5" d="M-1818.2,2251.2c1.1-0.2,2.2-0.2,3.3-0.2c11.9,0,23.9,0,35.8,0c4.7,0,8.9,4.3,8.9,9
	c0,45.3,0,90.6,0,135.8c0,2,0.1,4.1-0.8,6c-1.4,3.4-4.9,5.6-8.6,5.5c-12.2,0-24.5,0-36.7,0c-4.9,0.1-9.4-4.4-9.2-9.3
	c0-45.9,0-91.7,0-137.6C-1825.6,2256.2-1822.4,2252.1-1818.2,2251.2z"/>
<path id="XMLID_15_" class="st7" d="M-1965.6,2306.5c1.2-0.3,2.5-0.3,3.7-0.3c11.9,0,23.9,0,35.8,0c4.7,0.1,8.8,4.3,8.7,9
	c0,27.6,0,55.2,0,82.8c0.2,4.8-4,9.2-8.8,9.3c-12.4,0.1-24.7,0-37.1,0c-3.7,0.1-7.4-2.4-8.7-5.8c-0.8-1.9-0.6-4-0.6-6.1
	c0-26.7,0-53.5,0-80.2C-1972.5,2311.2-1969.5,2307.4-1965.6,2306.5z"/>
<g id="XMLID_295_">
	<g id="XMLID_10_">
		<path id="XMLID_86_" class="st5" d="M-1548.9,959c-7.8,0-15.6-0.1-23.5,0.1c16.8,28.4,32.8,57.3,49.9,85.5l0,0.7
			c16.2,27.6,31.8,55.7,48.4,83.1c6.3,13,14.5,25,21.4,37.7l11.3-21.7L-1548.9,959z"/>
		<polygon id="XMLID_33_" class="st5" points="-1581.1,979.8 -1582.1,923.6 -1532.9,950.8 		"/>
	</g>
	<path id="XMLID_132_" class="st7" d="M-1273.3,959.2l-180.2-0.1c13.3,22.1,25.5,44.9,39.1,66.8l0.1,0.7c6.8,12,13.5,24.1,20.7,35.8
		c4-6.5,8.1-13,12.2-19.4c-12-21-24-42-36.4-62.8l110.3,0.1l-83.5,144.2l-94.4-162.1l17-6.9l-44.5-34.5l-7.6,55.7l15.7-6.4
		l113.3,195.8L-1273.3,959.2z"/>
</g>
<g id="XMLID_262_">
	<g id="XMLID_226_">
		<path id="XMLID_263_" class="st7" d="M105.3,393.3L65.1,251.2h44.7l19.3,78.2l22.9-78.2h31.3l22.9,78.2l19.3-78.2h44.7L230,393.3
			h-40l-22.3-75.9l-22.3,75.9H105.3z"/>
		<path id="XMLID_266_" class="st7" d="M293.1,284.1c-5.7,0-10.6-2.1-14.7-6.2c-4.1-4.1-6.2-9-6.2-14.5c0-5.5,2.1-10.4,6.2-14.5
			c4.1-4.1,9-6.2,14.7-6.2c5.5,0,10.4,2.1,14.5,6.2c4.1,4.1,6.2,9,6.2,14.5c0,5.6-2.1,10.4-6.2,14.5
			C303.5,282,298.7,284.1,293.1,284.1z M274.3,393.3V291.8h37.6v101.5H274.3z"/>
		<path id="XMLID_269_" class="st7" d="M392.9,289c11.1,0,20,3.8,26.7,11.5c6.7,7.7,10.1,19.1,10.1,34.2v58.7H392v-54.6
			c0-9.1-4.2-13.6-12.6-13.6c-4.5,0-7.9,1.4-10.3,4.3c-2.4,2.8-3.6,6.8-3.6,11.8v52.2h-37.6V291.8h37.6v10
			C371.9,293.2,380.9,289,392.9,289z"/>
		<path id="XMLID_271_" class="st7" d="M509.6,289c11.1,0,20,3.8,26.7,11.5c6.7,7.7,10.1,19.1,10.1,34.2v58.7h-37.6v-54.6
			c0-9.1-4.2-13.6-12.6-13.6c-4.5,0-7.9,1.4-10.3,4.3c-2.4,2.8-3.6,6.8-3.6,11.8v52.2h-37.6V291.8h37.6v10
			C488.6,293.2,497.7,289,509.6,289z"/>
		<path id="XMLID_273_" class="st7" d="M594.7,355.4c3.2,6.8,10.2,10.2,20.7,10.2c6.2,0,12-2.2,17.3-6.5l24.6,20.7
			c-10.2,11-24.5,16.4-43.1,16.4c-17.3,0-31.2-5-41.7-15.1C562,371,556.7,358.3,556.7,343c0-15.4,5.1-28.3,15.3-38.6
			c10.2-10.3,23.1-15.4,38.7-15.4c15.4,0,28.1,5,38.1,15.1c10,10.1,14.9,22.8,14.9,38.1c0,4.5-0.5,8.9-1.6,13.2H594.7z M594.1,331.2
			h34.1c-2.3-8.1-7.8-12.2-16.4-12.2C603,319,597.1,323.1,594.1,331.2z"/>
		<path id="XMLID_277_" class="st7" d="M777.5,393.3h-41.4l-16.5-23l-16.5,23h-41.4l37.2-51.9l-35.5-49.6h41.4l14.8,20.7l14.8-20.7
			h41.4l-35.5,49.6L777.5,393.3z"/>
	</g>
	<g id="XMLID_265_">
		<g id="XMLID_496_">
			<path id="XMLID_518_" class="st5" d="M423.4,447.8c10.6,0,19,5.4,22.6,14.9h-7.6c-2.7-5.9-7.9-9.3-15-9.3
				c-10.2,0-17.9,7.5-17.9,19.6c0,12,7.6,19.5,17.9,19.5c7.2,0,12.3-3.3,15-9.2h7.6c-3.6,9.5-12.1,14.8-22.6,14.8
				c-13.7,0-24.4-10.3-24.4-25.1C399.1,458.2,409.8,447.8,423.4,447.8z"/>
			<path id="XMLID_515_" class="st5" d="M472.3,498.4c-10.9,0-19.1-7.8-19.1-20.1c0-12.2,8.6-20,19.4-20c10.9,0,19.4,7.7,19.4,20
				C492,490.6,483.2,498.4,472.3,498.4z M472.3,492.7c6.7,0,13.2-4.6,13.2-14.4c0-9.8-6.4-14.4-13-14.4c-6.7,0-12.8,4.6-12.8,14.4
				C459.7,488.1,465.6,492.7,472.3,492.7z"/>
			<path id="XMLID_513_" class="st5" d="M528.5,475.8c0-7.9-4.3-12-10.7-12c-6.5,0-11,4.1-11,12.5v21.5h-6.4V459h6.4v5.5
				c2.5-4,7.2-6.2,12.3-6.2c8.9,0,15.7,5.5,15.7,16.6v22.9h-6.3V475.8z"/>
			<path id="XMLID_511_" class="st5" d="M558.9,498.4c-9,0-15.3-5-15.7-12h6.6c0.4,3.8,3.6,6.6,9,6.6c5,0,7.9-2.5,7.9-5.7
				c0-8.6-22.7-3.6-22.7-18.1c0-5.9,5.5-10.8,14.1-10.8c8.5,0,14.1,4.6,14.5,12.2h-6.4c-0.3-3.9-3.2-6.7-8.3-6.7
				c-4.7,0-7.5,2.3-7.5,5.4c0,9.2,22.3,4.2,22.6,18.1C572.9,493.6,567.4,498.4,558.9,498.4z"/>
			<path id="XMLID_509_" class="st5" d="M615.9,497.8h-6.4V492c-2.5,4-7.2,6.3-12.3,6.3c-8.8,0-15.8-5.5-15.8-16.6V459h6.3v21.9
				c0,7.9,4.3,11.9,10.7,11.9c6.6,0,11-4.1,11-12.5V459h6.4V497.8z"/>
			<path id="XMLID_507_" class="st5" d="M626.7,445.4h6.4v52.4h-6.4V445.4z"/>
			<path id="XMLID_505_" class="st5" d="M645.4,464.3h-5V459h5v-9.8h6.4v9.8h10v5.3h-10v22.9c0,3.8,1.4,5.2,5.3,5.2h4.7v5.5H656
				c-6.8,0-10.7-2.8-10.7-10.6V464.3z"/>
			<path id="XMLID_502_" class="st5" d="M668.4,448.3c0-2.5,1.9-4.4,4.3-4.4c2.3,0,4.2,1.9,4.2,4.4c0,2.5-1.9,4.4-4.2,4.4
				C670.3,452.7,668.4,450.7,668.4,448.3z M669.5,459h6.4v38.8h-6.4V459z"/>
			<path id="XMLID_500_" class="st5" d="M714.8,475.8c0-7.9-4.3-12-10.7-12c-6.5,0-11,4.1-11,12.5v21.5h-6.4V459h6.4v5.5
				c2.5-4,7.2-6.2,12.3-6.2c8.9,0,15.7,5.5,15.7,16.6v22.9h-6.3V475.8z"/>
			<path id="XMLID_497_" class="st5" d="M747.4,458.3c7,0,12.1,3.5,14.3,7.7V459h6.4v39.6c0,10.7-7.1,18.3-18.4,18.3
				c-10.1,0-17.3-5.2-18.6-13.5h6.3c1.4,4.7,6,7.9,12.3,7.9c6.8,0,11.9-4.4,11.9-12.7v-8.1c-2.3,4.2-7.3,7.9-14.3,7.9
				c-10.3,0-18.2-8.1-18.2-20.2C729.2,466.1,737.1,458.3,747.4,458.3z M748.7,463.9c-7,0-13,5.2-13,14.3s6,14.5,13,14.5
				s13-5.3,13-14.4C761.7,469.3,755.7,463.9,748.7,463.9z"/>
		</g>
	</g>
	<polyline id="XMLID_261_" class="st4" points="296,183.1 14.3,183.1 14.3,467.6 819.1,467.6 819.1,183.1 530.5,183.1 	"/>
	<polygon id="XMLID_260_" class="st5" points="14.3,467.6 14.3,183.1 307.2,183.1 296,168.8 0,168.8 0,481.9 383.4,481.9 
		383.4,467.6 	"/>
	<polygon id="XMLID_259_" class="st5" points="833.5,168.8 530.5,168.8 519.3,183.1 819.1,183.1 819.1,467.6 785.5,467.6 
		785.5,481.9 833.5,481.9 	"/>
	<g id="XMLID_227_">
		<g id="XMLID_231_">
			<path id="XMLID_246_" class="st5" d="M283.2,38.1c-7.8,0-15.6-0.1-23.5,0.1c16.8,28.4,32.8,57.3,49.9,85.5l0,0.7
				c16.2,27.6,31.8,55.7,48.4,83.1c6.3,13,14.5,25,21.4,37.7l11.3-21.7L283.2,38.1z"/>
			<polygon id="XMLID_232_" class="st5" points="251,58.9 249.9,2.7 299.2,29.9 			"/>
		</g>
		<path id="XMLID_228_" class="st7" d="M558.8,38.3l-180.2-0.1c13.3,22.1,25.5,44.9,39.1,66.8l0.1,0.7c6.8,12,13.5,24.1,20.7,35.8
			c4-6.5,8.1-13,12.2-19.4c-12-21-24-42-36.4-62.8l110.3,0.1l-83.5,144.2L346.8,41.4l17-6.9L319.3,0l-7.6,55.7l15.7-6.4l113.3,195.8
			L558.8,38.3z"/>
	</g>
</g>
<path id="XMLID_55_" class="st8" d="M-3911.7,2326.9c1.2-0.5,2.4-0.2,3.7-0.1c15.3,1.4,30,8.9,40.2,20.5
	c8.7,9.7,14.1,22.3,15.2,35.2c0.1,1.1,0.4,2.2-0.1,3.2c-0.6,1.6-2.2,2.6-3.9,2.5c-17.9,0-35.7,0-53.6,0c-2.1,0.1-3.9-1.8-3.8-3.8
	c0-17.8,0-35.5,0-53.3C-3914.3,2329.4-3913.4,2327.5-3911.7,2326.9z"/>
<path id="XMLID_54_" class="st5" d="M-3955.2,2341.4c8.8-5.8,19.1-9.3,29.6-9.9c2.2-0.2,4.2,1.8,4,4c0,18,0,35.9,0,53.9
	c0,1-0.1,2.1,0.1,3.1c0.3,1.3,1.4,2.1,2.3,3c12.8,12.8,25.6,25.6,38.4,38.4c1.6,1.5,1.5,4.2-0.1,5.6c-2,1.6-4,3.4-6.2,4.7
	c-14.1,9.7-32.3,12.9-48.9,8.9c-16.2-3.8-30.6-14.6-39-29c-5.3-9.1-8.2-19.5-8.4-30v-2c0.1-7.1,1.4-14.1,3.9-20.8
	c0.7-2,1.7-3.9,2.6-5.9C-3971.8,2355.8-3964.4,2347.3-3955.2,2341.4z"/>
<path id="XMLID_11_" class="st7" d="M-3899.4,2399.5c0.3-1.8,2.1-3.2,3.9-3.1c16.1,0,32.3,0,48.4,0c1.9,0,3.6,1.6,3.8,3.5v0.6
	c-0.4,2.4-0.4,4.9-1,7.2c-2,11-7.1,21.3-14.5,29.6c-1.2,1.2-3.3,1.4-4.7,0.4c-0.7-0.5-1.3-1.1-1.8-1.7c-11-11-22-22-33-32.9
	C-3899.1,2402.1-3899.7,2400.8-3899.4,2399.5z"/>
<g id="XMLID_36_">
	<g id="XMLID_7_">
		<path id="XMLID_3_" class="st9" d="M-3962,1017.7c31.9-9.6,66.9-8.7,98.3,2.6c25.9,9.3,49.1,25.8,66.6,47
			c15.9,19.2,27.2,42.2,32.6,66.6c6.6,29.6,4.1,61-6.8,89.2c-6.2,0-12.3-0.1-18.5,0c12.3-27.5,15.3-59.1,8-88.4
			c-6.6-27.1-21.4-52.1-42.1-70.8c-17.2-15.7-38.5-27-61.3-32.2c-21.5-4.9-44.1-4.8-65.5,0.6c-37.3,9.1-70.1,34.6-88.2,68.4
			c21.5-0.1,43.1,0.1,64.7-0.1c6.9,18.1,13.2,36.3,20.3,54.3c6.7-18.1,13.5-36.1,20-54.2c11.4,0,22.8-0.1,34.2,0
			c6.5,18.1,13.3,36.2,20,54.2c7-18,13.4-36.3,20.3-54.3c19.4,0.1,38.9,0.1,58.3,0c-14.9,40.9-30.2,81.6-45.1,122.5
			c-6.1,0.1-12.2,0-18.3,0c13.1-35.1,26-70.3,39-105.4c-7.4,0-14.7,0-22.1,0c-8.1,21.6-16.1,43.3-24.1,65c-5.4,0-10.7,0-16,0
			c-7.9-21.7-16-43.3-24-65c-3.4,0-6.9,0-10.3,0c-8,21.7-16.1,43.3-24,65c-5.4,0-10.7,0-16.1,0c-8-21.7-16-43.3-24-65
			c-26.3,0-52.5,0-78.7,0c7.3-22.4,20.1-43.1,36.6-59.9C-4010,1039.2-3987,1025.2-3962,1017.7z"/>
	</g>
	<g id="XMLID_5_">
		<path id="XMLID_2_" class="st7" d="M-4069.5,1134.6c5.8,0,11.7,0,17.5,0c-7.6,31.2-3.9,65,10.5,93.8
			c11.6,23.5,29.8,43.6,52.2,57.3c26.4,16.4,58.4,23.1,89.1,19.3c34.4-4,66.9-21.5,89.2-48c-29.8,0.3-59.6-0.1-89.5,0.1
			c-5.6-14.7-10.8-29.5-16.5-44.1c-5.4,14.7-10.8,29.4-16.2,44.1c-13.5-0.1-27,0-40.5-0.1c-1.2,0.4-1.5-0.9-1.9-1.7
			c-14.8-40.3-29.8-80.5-44.6-120.8c5.7,0,11.3,0,17,0c1.3-0.4,1.5,1.1,1.9,1.9c12.7,34.5,25.5,69,38.3,103.6c6-0.1,12,0,18.1,0
			c6.6-18.3,13.4-36.4,20-54.7c5.3-0.1,10.7,0,16,0c6.8,18.2,13.5,36.5,20.3,54.7c36.6,0,73.2,0,109.8,0
			c-11.8,22.7-29.6,42.2-50.8,56.5c-25.5,17.2-56.3,26.5-87.1,26.5c-27.5,0.1-54.9-7.3-78.6-21.1c-24.6-14.4-45.2-35.7-58.7-60.8
			C-4071.8,1208.9-4077.2,1170.4-4069.5,1134.6z"/>
	</g>
	<path id="XMLID_9_" class="st5" d="M-3542.5,1083.5l-51.3,114l-11.1,24.6l-11.1-24.6l-29.1-64.7l-29.1,64.7l-11.1,24.6l-11.1-24.6
		l-51.3-114h22.2l40.2,89.3l29.1-64.7l11.1-24.6h0l11.1,24.6l29.1,64.7l40.2-89.3H-3542.5z"/>
	<path id="XMLID_124_" class="st5" d="M-3522.5,1222.1v-140.6h20.2v140.6H-3522.5z M-3522.5,1081.5v140.6h20.2v-140.6H-3522.5z
		 M-3502.9,1082.2h-18.9v139.3h18.9V1082.2z"/>
	<path id="XMLID_213_" class="st5" d="M-3370.7,1081.8v139.7l-20.2-20.2l-70.9-70.9v0l-20.2-20.2v-28.6l91.1,91.1v-90.9H-3370.7z
		 M-3482.1,1124.4l20.2,20.2v77.5h-20.2V1124.4z"/>
	<path id="XMLID_216_" class="st5" d="M-3239.2,1081.8v139.7l-20.2-20.2l-70.9-70.9v0l-20.2-20.2v-28.6l91.1,91.1v-90.9H-3239.2z
		 M-3350.5,1124.4l20.2,20.2v77.5h-20.2V1124.4z"/>
	<path id="XMLID_219_" class="st5" d="M-3092.5,1081.8v20.2h-124.1v-20.2H-3092.5z M-3196.4,1201.9h103.8v20.2h-124.1v-110h20.2
		v24.6h90.2v20.2h-90.2V1201.9z"/>
	<polygon id="XMLID_237_" class="st5" points="-3025,1158 -3012.4,1175.1 -3047,1222.1 -3072.1,1222.1 	"/>
	<polygon id="XMLID_236_" class="st7" points="-2940,1222.1 -2965.1,1222.1 -3006.1,1166.5 -3006.1,1166.6 -3018.7,1149.5 
		-3018.6,1149.5 -3020.5,1147 -3068.5,1081.8 -3043.4,1081.8 -3007.9,1129.9 -3006.1,1132.4 -3004.2,1129.9 -2968.8,1081.8 
		-2943.6,1081.8 -2991.7,1147 -2993.5,1149.5 	"/>
	
		<text id="XMLID_4_" transform="matrix(1 0 0 1 -3709.1433 1303.2423)" class="st7" style="font-family:'Poppins-SemiBold'; font-size:77.2586px; letter-spacing:30;">Consulting</text>
	<polygon id="XMLID_56_" class="st7" points="-2987.8,1074.9 -2934.5,1053.6 -2942.8,1110.4 	"/>
</g>
<g id="XMLID_120_">
	<path id="XMLID_121_" class="st9" d="M-6106,1029.8c31.9-9.6,66.9-8.7,98.3,2.6c25.9,9.3,49.1,25.8,66.6,47
		c15.9,19.2,27.2,42.2,32.6,66.6c6.6,29.6,4.1,61-6.8,89.2c-6.2,0-12.3-0.1-18.5,0c12.3-27.5,15.3-59.1,8-88.4
		c-6.6-27.1-21.4-52.1-42.1-70.8c-17.2-15.7-38.5-27-61.3-32.2c-21.5-4.9-44.1-4.8-65.5,0.6c-37.3,9.1-70.1,34.6-88.2,68.4
		c21.5-0.1,43.1,0.1,64.7-0.1c6.9,18.1,13.2,36.3,20.3,54.3c6.7-18.1,13.5-36.1,20-54.2c11.4,0,22.8-0.1,34.2,0
		c6.5,18.1,13.3,36.2,20,54.2c7-18,13.4-36.3,20.3-54.3c19.4,0.1,38.9,0.1,58.3,0c-14.9,40.9-30.2,81.6-45.1,122.5
		c-6.1,0.1-12.2,0-18.3,0c13.1-35.1,26-70.3,39-105.4c-7.4,0-14.7,0-22.1,0c-8.1,21.6-16.1,43.3-24.1,65c-5.4,0-10.7,0-16,0
		c-7.9-21.7-16-43.3-24-65c-3.4,0-6.9,0-10.3,0c-8,21.7-16.1,43.3-24,65c-5.4,0-10.7,0-16.1,0c-8-21.7-16-43.3-24-65
		c-26.3,0-52.5,0-78.7,0c7.3-22.4,20.1-43.1,36.6-59.9C-6154.1,1051.3-6131,1037.3-6106,1029.8z"/>
</g>
<g id="XMLID_117_">
	<path id="XMLID_119_" class="st7" d="M-6213.6,1146.7c5.8,0,11.7,0,17.5,0c-7.6,31.2-3.9,65,10.5,93.8
		c11.6,23.5,29.8,43.6,52.2,57.3c26.4,16.4,58.4,23.1,89.1,19.3c34.4-4,66.9-21.5,89.2-48c-29.8,0.3-59.6-0.1-89.5,0.1
		c-5.6-14.7-10.8-29.5-16.5-44.1c-5.4,14.7-10.8,29.4-16.2,44.1c-13.5-0.1-27,0-40.5-0.1c-1.2,0.4-1.5-0.9-1.9-1.7
		c-14.8-40.3-29.8-80.5-44.6-120.8c5.7,0,11.3,0,17,0c1.3-0.4,1.5,1.1,1.9,1.9c12.7,34.5,25.5,69,38.3,103.6c6-0.1,12,0,18.1,0
		c6.6-18.3,13.4-36.4,20-54.7c5.3-0.1,10.7,0,16,0c6.8,18.2,13.5,36.5,20.3,54.7c36.6,0,73.2,0,109.8,0
		c-11.8,22.7-29.6,42.2-50.8,56.5c-25.5,17.2-56.3,26.5-87.1,26.5c-27.5,0.1-54.9-7.3-78.6-21.1c-24.6-14.4-45.2-35.7-58.7-60.8
		C-6215.8,1221-6221.3,1182.5-6213.6,1146.7z"/>
</g>
<path id="XMLID_99_" class="st5" d="M-5686.6,1095.6l-51.3,114l-11.1,24.6l-11.1-24.6l-29.1-64.7l-29.1,64.7l-11.1,24.6l-11.1-24.6
	l-51.3-114h22.2l40.2,89.3l29.1-64.7l11.1-24.6h0l11.1,24.6l29.1,64.7l40.2-89.3H-5686.6z"/>
<path id="XMLID_84_" class="st5" d="M-5666.5,1234.2v-140.6h20.2v140.6H-5666.5z M-5666.5,1093.6v140.6h20.2v-140.6H-5666.5z
	 M-5647,1094.3h-18.9v139.3h18.9V1094.3z"/>
<path id="XMLID_78_" class="st5" d="M-5514.8,1093.9v139.7l-20.2-20.2l-70.9-70.9v0l-20.2-20.2v-28.6l91.1,91.1v-90.9H-5514.8z
	 M-5626.2,1136.5l20.2,20.2v77.5h-20.2V1136.5z"/>
<path id="XMLID_75_" class="st5" d="M-5383.2,1093.9v139.7l-20.2-20.2l-70.9-70.9v0l-20.2-20.2v-28.6l91.1,91.1v-90.9H-5383.2z
	 M-5494.6,1136.5l20.2,20.2v77.5h-20.2V1136.5z"/>
<path id="XMLID_57_" class="st5" d="M-5236.6,1093.9v20.2h-124.1v-20.2H-5236.6z M-5340.4,1214h103.8v20.2h-124.1v-110h20.2v24.6
	h90.2v20.2h-90.2V1214z"/>
<polygon id="XMLID_44_" class="st5" points="-5169,1170.1 -5156.4,1187.2 -5191.1,1234.2 -5216.2,1234.2 "/>
<polygon id="XMLID_42_" class="st7" points="-5084.1,1234.2 -5109.2,1234.2 -5150.1,1178.6 -5150.2,1178.7 -5162.7,1161.6 
	-5162.7,1161.6 -5164.5,1159.1 -5212.5,1093.9 -5187.4,1093.9 -5152,1142 -5150.1,1144.5 -5148.3,1142 -5112.8,1093.9 
	-5087.7,1093.9 -5135.7,1159.1 -5137.6,1161.6 "/>
<g id="XMLID_38_">
	<path id="XMLID_159_" class="st7" d="M-5823.2,1260.7c12,0,21.7,6.4,25.3,17.5h-12.4c-2.5-5.2-7.2-7.7-13-7.7
		c-9.4,0-16.1,6.9-16.1,17.8c0,10.9,6.7,17.8,16.1,17.8c5.8,0,10.4-2.5,13-7.8h12.4c-3.6,11.1-13.4,17.5-25.3,17.5
		c-15.5,0-27.3-11.4-27.3-27.5S-5838.7,1260.7-5823.2,1260.7z"/>
	<path id="XMLID_161_" class="st7" d="M-5732.6,1315.9c-15.2,0-27.7-11.4-27.7-27.7c0-16.1,12.4-27.6,27.7-27.6
		c15.4,0,27.6,11.4,27.6,27.6C-5705,1304.4-5717.3,1315.9-5732.6,1315.9z M-5732.6,1306.2c9.7,0,16.5-7,16.5-18
		c0-11-6.7-17.8-16.5-17.8c-9.8,0-16.5,6.9-16.5,17.8C-5749.1,1299.2-5742.4,1306.2-5732.6,1306.2z"/>
	<path id="XMLID_164_" class="st7" d="M-5620,1261.3v54h-10.8l-24.5-37v37h-10.8v-54h10.8l24.5,37.1v-37.1H-5620z"/>
	<path id="XMLID_166_" class="st7" d="M-5559.8,1315.9c-11.2,0-19.9-5.9-20-16.1h11.6c0.3,4.3,3.2,7.2,8.2,7.2
		c5.1,0,8.1-2.7,8.1-6.6c0-11.7-27.8-4.6-27.7-24.2c0-9.7,7.9-15.6,19-15.6c11,0,18.6,5.6,19.3,15.4h-11.9c-0.2-3.6-3.1-6.3-7.7-6.4
		c-4.2-0.2-7.4,1.9-7.4,6.3c0,10.8,27.7,4.8,27.7,23.8C-5540.7,1308.2-5547.5,1315.9-5559.8,1315.9z"/>
	<path id="XMLID_174_" class="st7" d="M-5500.6,1261.4h10.8v33.4c0,7.4,4,11.3,10.9,11.3c7,0,11-3.9,11-11.3v-33.4h10.9v33.3
		c0,14.2-10.2,21.2-22,21.2s-21.6-7-21.6-21.2V1261.4z"/>
	<path id="XMLID_176_" class="st7" d="M-5404.9,1261.4v45.3h17.8v8.6h-28.6v-53.9H-5404.9z"/>
	<path id="XMLID_178_" class="st7" d="M-5352.2,1261.4h39.6v8.7h-14.4v45.2h-10.8v-45.2h-14.4V1261.4z"/>
	<path id="XMLID_180_" class="st7" d="M-5273.8,1261.4h10.8v53.9h-10.8V1261.4z"/>
	<path id="XMLID_182_" class="st7" d="M-5175.3,1261.3v54h-10.8l-24.5-37v37h-10.8v-54h10.8l24.5,37.1v-37.1H-5175.3z"/>
	<path id="XMLID_184_" class="st7" d="M-5083.8,1277.6h-12.4c-2.5-4.6-7-7-12.7-7c-9.7,0-16.4,6.9-16.4,17.6
		c0,11,6.8,17.8,16.8,17.8c8.3,0,13.7-4.8,15.3-12.4h-18.5v-8.3h29.2v9.4c-2.2,11-12,21-26.3,21c-15.7,0-27.6-11.4-27.6-27.5
		s11.9-27.6,27.5-27.6C-5096.9,1260.7-5087.3,1266.8-5083.8,1277.6z"/>
</g>
<polygon id="XMLID_39_" class="st7" points="-5131.9,1087 -5078.6,1065.7 -5086.8,1122.5 "/>
</svg>
