<svg width="146" height="27" viewBox="0 0 146 27" fill="none" xmlns="http://www.w3.org/2000/svg">
    <path d="M17.6593 6.20966C17.3677 6.01159 17.0238 5.9071 16.6712 5.9071H0.226771V9.55078H12.5682L0.522792 22.9566C0.289893 23.2156 0.13753 23.5378 0.0809375 23.8817C0.0199921 24.2299 0.0722311 24.5869 0.228948 24.9025C0.374782 25.2268 0.609858 25.5011 0.908055 25.6948C1.19972 25.8929 1.54363 25.9973 1.89624 25.9973H18.3145V22.358H6.00135L18.0207 8.9522C18.2623 8.70189 18.419 8.38192 18.469 8.03584C18.5278 7.68758 18.4843 7.32844 18.345 7.00195C18.1926 6.67763 17.9554 6.40338 17.6593 6.20966Z" fill="#181C1F"/>
    <path d="M25.025 6.05076C24.8073 6.14 24.6093 6.27278 24.4438 6.44038C24.2784 6.61016 24.1478 6.8104 24.0586 7.03024C23.965 7.25661 23.9171 7.49822 23.9171 7.74417V20.8844C23.891 21.7116 24.0673 22.53 24.4286 23.2744C24.7377 23.8838 25.173 24.4236 25.7041 24.8546C26.1938 25.2529 26.7598 25.5511 27.3649 25.7318C27.9003 25.8994 28.4575 25.9886 29.0191 25.9973H42.1594V22.3558H29.0474C28.6425 22.3841 28.2442 22.2492 27.9417 21.9771C27.6718 21.6789 27.5368 21.2849 27.5629 20.8844V17.7849H40.5204V14.1173H27.5629V9.55078H42.1594V5.9071H25.7563C25.5038 5.9071 25.2557 5.95499 25.025 6.05076Z" fill="#181C1F"/>
    <path d="M47.0764 9.55297H55.1169V25.9995H58.7605V9.55079H66.7857V5.9093H47.0764V9.55297Z" fill="#181C1F"/>
    <path d="M114.038 20.0595L100.73 6.17479C100.478 5.90924 100.149 5.73076 99.792 5.66546C99.435 5.59581 99.065 5.63064 98.7276 5.76776C98.4033 5.91577 98.1247 6.15085 97.9223 6.44687C97.7155 6.74507 97.6067 7.09985 97.6132 7.46335V25.9973H101.255V11.8492L114.563 25.747C114.732 25.9276 114.941 26.0669 115.174 26.154C115.392 26.2345 115.623 26.2781 115.853 26.2803C116.099 26.2824 116.341 26.2345 116.567 26.141C116.783 26.0517 116.981 25.9189 117.146 25.7535C117.314 25.5859 117.447 25.39 117.538 25.1724C117.638 24.9438 117.686 24.6978 117.684 24.4497V5.91142H114.042L114.038 20.0595Z" fill="#181C1F"/>
    <path d="M144.776 10.6652C144.378 9.66826 143.779 8.76279 143.02 8.00532C142.26 7.25221 141.357 6.66017 140.364 6.25967C139.302 5.83305 138.168 5.61757 137.023 5.62845H132.1C130.953 5.61757 129.816 5.83087 128.752 6.25967C126.734 7.05849 125.137 8.65178 124.331 10.6673C123.9 11.7361 123.683 12.881 123.696 14.0346V17.872C123.683 19.0277 123.898 20.177 124.331 21.2501C124.734 22.2448 125.333 23.1503 126.088 23.9121C126.847 24.6674 127.753 25.2616 128.75 25.6556C129.814 26.0778 130.953 26.289 132.098 26.2759H137.028C138.17 26.289 139.306 26.0778 140.369 25.6556C141.363 25.2594 142.267 24.6652 143.022 23.9077C143.779 23.1481 144.378 22.2426 144.779 21.2457C145.207 20.1726 145.421 19.0234 145.408 17.8676V14.0302C145.421 12.8766 145.205 11.7339 144.776 10.6652ZM141.764 17.872C141.773 18.5402 141.657 19.204 141.42 19.8287C141.205 20.3903 140.874 20.9018 140.447 21.3263C140.016 21.7485 139.505 22.0772 138.941 22.2927C138.32 22.5277 137.663 22.6431 137.001 22.6366H132.1C131.438 22.6453 130.778 22.5277 130.16 22.2927C129.597 22.0772 129.085 21.7485 128.654 21.3263C128.227 20.9018 127.897 20.3903 127.681 19.8287C127.444 19.204 127.329 18.5402 127.337 17.872V14.0346C127.329 13.3663 127.444 12.7047 127.681 12.08C127.897 11.5184 128.227 11.0069 128.654 10.5824C129.085 10.1602 129.597 9.83151 130.16 9.61602C130.778 9.38095 131.438 9.26341 132.1 9.27212H137.03C137.687 9.26559 138.34 9.38095 138.956 9.61602C140.094 10.0448 140.993 10.9416 141.42 12.08C141.657 12.7047 141.773 13.3663 141.764 14.0346V17.872Z" fill="#181C1F"/>
    <path d="M76.2171 17.9003H73.6334L62.9484 26.2716C62.9484 26.2716 74.7914 26.7178 76.2171 17.9003Z" fill="url(#paint0_linear_5_3)"/>
    <path d="M84.4099 17.811H81.9612C81.9612 17.811 81.6499 25.6099 95.2299 26.2759L84.4099 17.811Z" fill="url(#paint1_linear_5_3)"/>
    <path d="M77.7167 0.802901L62.9484 26.2716L73.6356 17.9003L78.4851 9.6204C78.7637 9.14372 79.4537 9.14807 79.7279 9.62693L84.4099 17.811L95.2299 26.2759L80.5028 0.80508C79.8825 -0.267995 78.3371 -0.267998 77.7167 0.802901Z" fill="url(#paint2_linear_5_3)"/>
    <defs>
    <linearGradient id="paint0_linear_5_3" x1="78.7083" y1="22.0878" x2="63.9903" y2="22.0878" gradientUnits="userSpaceOnUse">
    <stop stop-color="#FFC22A"/>
    <stop offset="0.173" stop-color="#FFC22A"/>
    <stop offset="0.538" stop-color="#FAAE38"/>
    <stop offset="1" stop-color="#F8A83D"/>
    </linearGradient>
    <linearGradient id="paint1_linear_5_3" x1="83.1634" y1="22.0433" x2="91.452" y2="22.0433" gradientUnits="userSpaceOnUse">
    <stop stop-color="#FFC22A"/>
    <stop offset="0.173" stop-color="#FFC22A"/>
    <stop offset="0.538" stop-color="#FAAE38"/>
    <stop offset="1" stop-color="#F8A83D"/>
    </linearGradient>
    <linearGradient id="paint2_linear_5_3" x1="79.0711" y1="29.9763" x2="79.197" y2="3.65855" gradientUnits="userSpaceOnUse">
    <stop stop-color="#FFC22A"/>
    <stop offset="0.173" stop-color="#FFC22A"/>
    <stop offset="0.538" stop-color="#FAAE38"/>
    <stop offset="1" stop-color="#F8A83D"/>
    </linearGradient>
    </defs>
</svg>
